%TF.GenerationSoftware,KiCad,Pcbnew,8.0.4*%
%TF.CreationDate,2024-10-19T12:15:15-07:00*%
%TF.ProjectId,camera_controller,63616d65-7261-45f6-936f-6e74726f6c6c,1.0*%
%TF.SameCoordinates,Original*%
%TF.FileFunction,Soldermask,Top*%
%TF.FilePolarity,Negative*%
%FSLAX46Y46*%
G04 Gerber Fmt 4.6, Leading zero omitted, Abs format (unit mm)*
G04 Created by KiCad (PCBNEW 8.0.4) date 2024-10-19 12:15:15*
%MOMM*%
%LPD*%
G01*
G04 APERTURE LIST*
G04 Aperture macros list*
%AMRoundRect*
0 Rectangle with rounded corners*
0 $1 Rounding radius*
0 $2 $3 $4 $5 $6 $7 $8 $9 X,Y pos of 4 corners*
0 Add a 4 corners polygon primitive as box body*
4,1,4,$2,$3,$4,$5,$6,$7,$8,$9,$2,$3,0*
0 Add four circle primitives for the rounded corners*
1,1,$1+$1,$2,$3*
1,1,$1+$1,$4,$5*
1,1,$1+$1,$6,$7*
1,1,$1+$1,$8,$9*
0 Add four rect primitives between the rounded corners*
20,1,$1+$1,$2,$3,$4,$5,0*
20,1,$1+$1,$4,$5,$6,$7,0*
20,1,$1+$1,$6,$7,$8,$9,0*
20,1,$1+$1,$8,$9,$2,$3,0*%
G04 Aperture macros list end*
%ADD10R,1.549400X0.660400*%
%ADD11R,1.905000X1.295400*%
%ADD12R,2.895600X1.092200*%
%ADD13R,1.803400X0.660400*%
%ADD14RoundRect,0.250000X-0.262500X-0.450000X0.262500X-0.450000X0.262500X0.450000X-0.262500X0.450000X0*%
%ADD15R,0.600000X1.700000*%
%ADD16R,1.000000X2.800000*%
%ADD17R,1.092200X2.895600*%
%ADD18R,0.660400X1.701800*%
%ADD19RoundRect,0.250000X-1.000000X1.750000X-1.000000X-1.750000X1.000000X-1.750000X1.000000X1.750000X0*%
%ADD20RoundRect,0.250000X0.250000X0.475000X-0.250000X0.475000X-0.250000X-0.475000X0.250000X-0.475000X0*%
%ADD21RoundRect,0.250000X-0.325000X-1.100000X0.325000X-1.100000X0.325000X1.100000X-0.325000X1.100000X0*%
%ADD22RoundRect,0.250000X0.262500X0.450000X-0.262500X0.450000X-0.262500X-0.450000X0.262500X-0.450000X0*%
%ADD23R,1.500000X2.300000*%
%ADD24O,1.500000X2.300000*%
%ADD25R,1.700000X1.700000*%
%ADD26O,1.700000X1.700000*%
%ADD27C,1.000000*%
%ADD28R,1.300000X4.700000*%
%ADD29R,1.100000X6.000000*%
%ADD30RoundRect,0.250000X0.450000X-0.262500X0.450000X0.262500X-0.450000X0.262500X-0.450000X-0.262500X0*%
%ADD31C,0.800000*%
%ADD32C,5.400000*%
%ADD33R,0.660400X1.803400*%
%ADD34RoundRect,0.250000X1.000000X-1.750000X1.000000X1.750000X-1.000000X1.750000X-1.000000X-1.750000X0*%
%ADD35RoundRect,0.250000X-0.450000X0.262500X-0.450000X-0.262500X0.450000X-0.262500X0.450000X0.262500X0*%
%ADD36RoundRect,0.250000X-0.250000X-0.475000X0.250000X-0.475000X0.250000X0.475000X-0.250000X0.475000X0*%
%ADD37RoundRect,0.250000X1.750000X1.000000X-1.750000X1.000000X-1.750000X-1.000000X1.750000X-1.000000X0*%
%ADD38RoundRect,0.100000X0.100000X-0.637500X0.100000X0.637500X-0.100000X0.637500X-0.100000X-0.637500X0*%
%ADD39R,1.981200X0.558800*%
%ADD40RoundRect,0.500000X1.750000X-1.250000X1.750000X1.250000X-1.750000X1.250000X-1.750000X-1.250000X0*%
%ADD41RoundRect,0.250000X-0.475000X0.250000X-0.475000X-0.250000X0.475000X-0.250000X0.475000X0.250000X0*%
%ADD42C,1.700000*%
%ADD43RoundRect,0.250000X-1.000000X1.400000X-1.000000X-1.400000X1.000000X-1.400000X1.000000X1.400000X0*%
%ADD44RoundRect,0.500000X-1.250000X-1.750000X1.250000X-1.750000X1.250000X1.750000X-1.250000X1.750000X0*%
%ADD45RoundRect,0.250000X0.475000X-0.250000X0.475000X0.250000X-0.475000X0.250000X-0.475000X-0.250000X0*%
%ADD46R,1.104900X1.498600*%
%ADD47R,1.524000X0.508000*%
%ADD48O,1.524000X0.508000*%
%ADD49RoundRect,0.250000X-0.350000X0.850000X-0.350000X-0.850000X0.350000X-0.850000X0.350000X0.850000X0*%
%ADD50RoundRect,0.249997X-2.650003X2.950003X-2.650003X-2.950003X2.650003X-2.950003X2.650003X2.950003X0*%
G04 APERTURE END LIST*
D10*
%TO.C,J8*%
X69182201Y-40300000D03*
X69182201Y-39299999D03*
X69182201Y-38300001D03*
X69182201Y-37300000D03*
D11*
X66602201Y-41599999D03*
X66602201Y-36000001D03*
%TD*%
D10*
%TO.C,J7*%
X61482200Y-40297799D03*
X61482200Y-39297798D03*
X61482200Y-38297800D03*
X61482200Y-37297799D03*
D11*
X58902200Y-41597798D03*
X58902200Y-35997800D03*
%TD*%
D12*
%TO.C,J6*%
X100453600Y-65400002D03*
X100453600Y-69599998D03*
D13*
X95303600Y-68500001D03*
X95303600Y-67500000D03*
X95303600Y-66499999D03*
%TD*%
D14*
%TO.C,R25*%
X80787500Y-28350000D03*
X82612500Y-28350000D03*
%TD*%
D15*
%TO.C,J13*%
X76525000Y-71600000D03*
X77525000Y-71600000D03*
X78525000Y-71600000D03*
X79525000Y-71600000D03*
D16*
X75425000Y-76750000D03*
X80625000Y-76750000D03*
%TD*%
D17*
%TO.C,J10*%
X69800000Y-22691426D03*
X79000000Y-22666660D03*
D18*
X70900000Y-28300000D03*
X71900000Y-28300000D03*
X72900001Y-28300000D03*
X73899999Y-28300000D03*
X74900000Y-28300000D03*
X75900000Y-28300000D03*
X76900000Y-28300000D03*
X77900000Y-28300000D03*
%TD*%
D19*
%TO.C,C1*%
X44500000Y-67300000D03*
X44500000Y-75300000D03*
%TD*%
D20*
%TO.C,C4*%
X51750000Y-47600000D03*
X49850000Y-47600000D03*
%TD*%
D21*
%TO.C,C17*%
X41725000Y-59800000D03*
X44675000Y-59800000D03*
%TD*%
%TO.C,C16*%
X41725000Y-63100000D03*
X44675000Y-63100000D03*
%TD*%
D22*
%TO.C,R15*%
X92887500Y-32450000D03*
X91062500Y-32450000D03*
%TD*%
%TO.C,R18*%
X93212500Y-66400000D03*
X91387500Y-66400000D03*
%TD*%
D23*
%TO.C,U1*%
X45053000Y-44107500D03*
D24*
X47593000Y-44107500D03*
X50133000Y-44107500D03*
%TD*%
D25*
%TO.C,J16*%
X25000000Y-31800000D03*
D26*
X22460000Y-31800000D03*
%TD*%
D22*
%TO.C,R17*%
X93212500Y-68400000D03*
X91387500Y-68400000D03*
%TD*%
D27*
%TO.C,J9*%
X31370000Y-26000000D03*
X51690000Y-25400000D03*
D28*
X50420000Y-31150000D03*
X47880000Y-31150000D03*
X45340000Y-31150000D03*
X42800000Y-31150000D03*
X40260000Y-31150000D03*
X37720000Y-31150000D03*
X35180000Y-31150000D03*
X32640000Y-31150000D03*
D29*
X52960000Y-26000000D03*
X30100000Y-26000000D03*
%TD*%
D30*
%TO.C,R19*%
X47300000Y-56312500D03*
X47300000Y-54487500D03*
%TD*%
D31*
%TO.C,*%
X96915000Y-23735000D03*
X97508109Y-22303109D03*
X97508109Y-25166891D03*
X98940000Y-21710000D03*
D32*
X98940000Y-23735000D03*
D31*
X98940000Y-25760000D03*
X100371891Y-22303109D03*
X100371891Y-25166891D03*
X100965000Y-23735000D03*
%TD*%
D17*
%TO.C,J15*%
X93124996Y-76700000D03*
X88925000Y-76700000D03*
D33*
X90024997Y-71550000D03*
X91024998Y-71550000D03*
X92024999Y-71550000D03*
%TD*%
D34*
%TO.C,C2*%
X33600000Y-60300000D03*
X33600000Y-52300000D03*
%TD*%
D35*
%TO.C,R21*%
X71850000Y-39975000D03*
X71850000Y-41800000D03*
%TD*%
D14*
%TO.C,R26*%
X80787500Y-30350000D03*
X82612500Y-30350000D03*
%TD*%
D21*
%TO.C,C3*%
X44625000Y-48200000D03*
X47575000Y-48200000D03*
%TD*%
D31*
%TO.C,*%
X21375000Y-75415000D03*
X21968109Y-73983109D03*
X21968109Y-76846891D03*
X23400000Y-73390000D03*
D32*
X23400000Y-75415000D03*
D31*
X23400000Y-77440000D03*
X24831891Y-73983109D03*
X24831891Y-76846891D03*
X25425000Y-75415000D03*
%TD*%
D36*
%TO.C,C13*%
X80750000Y-32450000D03*
X82650000Y-32450000D03*
%TD*%
D37*
%TO.C,C20*%
X30500000Y-39800000D03*
X22500000Y-39800000D03*
%TD*%
D38*
%TO.C,U4*%
X41025000Y-56662500D03*
X41675000Y-56662500D03*
X42325000Y-56662500D03*
X42975000Y-56662500D03*
X43625000Y-56662500D03*
X44275000Y-56662500D03*
X44925000Y-56662500D03*
X45575000Y-56662500D03*
X45575000Y-50937500D03*
X44925000Y-50937500D03*
X44275000Y-50937500D03*
X43625000Y-50937500D03*
X42975000Y-50937500D03*
X42325000Y-50937500D03*
X41675000Y-50937500D03*
X41025000Y-50937500D03*
%TD*%
D12*
%TO.C,J5*%
X100478600Y-29350002D03*
X100478600Y-33549998D03*
D13*
X95328600Y-32450001D03*
X95328600Y-31450000D03*
X95328600Y-30449999D03*
%TD*%
D31*
%TO.C,*%
X96915000Y-75415000D03*
X97508109Y-73983109D03*
X97508109Y-76846891D03*
X98940000Y-73390000D03*
D32*
X98940000Y-75415000D03*
D31*
X98940000Y-77440000D03*
X100371891Y-73983109D03*
X100371891Y-76846891D03*
X100965000Y-75415000D03*
%TD*%
D39*
%TO.C,U6*%
X34036200Y-43816231D03*
X34036200Y-45086231D03*
X34036200Y-46356231D03*
X34036200Y-47626231D03*
X38963800Y-47626231D03*
X38963800Y-46356231D03*
X38963800Y-45086231D03*
X38963800Y-43816231D03*
%TD*%
D40*
%TO.C,J12*%
X23062500Y-54000000D03*
X23062500Y-49000000D03*
%TD*%
D41*
%TO.C,C22*%
X53200000Y-66250000D03*
X53200000Y-68150000D03*
%TD*%
D17*
%TO.C,J11*%
X58600000Y-22744226D03*
X65800000Y-22744226D03*
D18*
X59700000Y-28352800D03*
X60700000Y-28352800D03*
X61700001Y-28352800D03*
X62699999Y-28352800D03*
X63700000Y-28352800D03*
X64700000Y-28352800D03*
%TD*%
D14*
%TO.C,R28*%
X83587500Y-35175000D03*
X85412500Y-35175000D03*
%TD*%
D22*
%TO.C,R16*%
X92887500Y-30450000D03*
X91062500Y-30450000D03*
%TD*%
D25*
%TO.C,U3*%
X71725000Y-73125000D03*
D26*
X71725000Y-70585000D03*
X71725000Y-68045000D03*
X71725000Y-65505000D03*
X71725000Y-62965000D03*
X71725000Y-60425000D03*
X71725000Y-57885000D03*
X71725000Y-55345000D03*
X71725000Y-52805000D03*
X71725000Y-50265000D03*
X71725000Y-47725000D03*
X71725000Y-45185000D03*
X56485000Y-45055000D03*
X56485000Y-47595000D03*
X56485000Y-50135000D03*
X56485000Y-52675000D03*
X56485000Y-55215000D03*
X56485000Y-57755000D03*
X56485000Y-60295000D03*
X56485000Y-62835000D03*
X56485000Y-65375000D03*
X56485000Y-67915000D03*
X56485000Y-70585000D03*
D42*
X56485000Y-72995000D03*
D26*
X59025000Y-61565000D03*
D42*
X59025000Y-64105000D03*
%TD*%
D17*
%TO.C,J14*%
X86824996Y-76725000D03*
X82625000Y-76725000D03*
D33*
X83724997Y-71575000D03*
X84724998Y-71575000D03*
X85724999Y-71575000D03*
%TD*%
D31*
%TO.C,*%
X21375000Y-23735000D03*
X21968109Y-22303109D03*
X21968109Y-25166891D03*
X23400000Y-21710000D03*
D32*
X23400000Y-23735000D03*
D31*
X23400000Y-25760000D03*
X24831891Y-22303109D03*
X24831891Y-25166891D03*
X25425000Y-23735000D03*
%TD*%
D14*
%TO.C,R27*%
X74887500Y-30600000D03*
X76712500Y-30600000D03*
%TD*%
D43*
%TO.C,CR1*%
X36900000Y-66400000D03*
X30100000Y-66400000D03*
%TD*%
D44*
%TO.C,J1*%
X30500000Y-74400000D03*
X35500000Y-74400000D03*
%TD*%
D45*
%TO.C,C9*%
X47300000Y-52850000D03*
X47300000Y-50950000D03*
%TD*%
D25*
%TO.C,J17*%
X76050000Y-54000000D03*
D26*
X76050000Y-51460000D03*
%TD*%
D46*
%TO.C,CR2*%
X73908550Y-33000000D03*
X76791450Y-33000000D03*
%TD*%
D47*
%TO.C,U7*%
X76575400Y-37065000D03*
D48*
X76575400Y-38335000D03*
X83585800Y-38335000D03*
X83585800Y-37065000D03*
%TD*%
D30*
%TO.C,R20*%
X49400000Y-56312500D03*
X49400000Y-54487500D03*
%TD*%
D49*
%TO.C,Q1*%
X26380000Y-58700000D03*
D50*
X24100000Y-65000000D03*
D49*
X21820000Y-58700000D03*
%TD*%
M02*
