%TF.GenerationSoftware,KiCad,Pcbnew,9.0.7*%
%TF.CreationDate,2026-06-23T11:25:12-07:00*%
%TF.ProjectId,hadron_io_breakouts,68616472-6f6e-45f6-996f-5f627265616b,rev?*%
%TF.SameCoordinates,Original*%
%TF.FileFunction,Profile,NP*%
%FSLAX46Y46*%
G04 Gerber Fmt 4.6, Leading zero omitted, Abs format (unit mm)*
G04 Created by KiCad (PCBNEW 9.0.7) date 2026-06-23 11:25:12*
%MOMM*%
%LPD*%
G01*
G04 APERTURE LIST*
%TA.AperFunction,Profile*%
%ADD10C,0.050000*%
%TD*%
G04 APERTURE END LIST*
D10*
X21150000Y-19570000D02*
G75*
G02*
X22650000Y-18070000I1500000J0D01*
G01*
X102825000Y-18070000D02*
X61902841Y-18070000D01*
X21150000Y-21100000D02*
X21150000Y-19570000D01*
X104325000Y-38500000D02*
G75*
G02*
X102825000Y-40000000I-1500000J0D01*
G01*
X21150000Y-38500000D02*
X21150000Y-21100000D01*
X61500000Y-18472843D02*
X61500000Y-19390000D01*
X104325000Y-19570000D02*
X104325000Y-21100000D01*
X102825000Y-40000000D02*
X22650000Y-40000000D01*
X51902843Y-19800000D02*
G75*
G02*
X51502776Y-19397157I4857J404900D01*
G01*
X61500000Y-19397157D02*
G75*
G02*
X61097157Y-19800000I-409900J7057D01*
G01*
X51097157Y-18070000D02*
G75*
G02*
X51497009Y-18472844I24243J-375800D01*
G01*
X61500000Y-18472843D02*
G75*
G02*
X61902841Y-18070000I409900J-7057D01*
G01*
X51097157Y-18070000D02*
X42850000Y-18070000D01*
X37154372Y-18070000D02*
X22650000Y-18070000D01*
X22650000Y-40000000D02*
G75*
G02*
X21150000Y-38500000I0J1500000D01*
G01*
X61097157Y-19800000D02*
X51902800Y-19800000D01*
X51502843Y-19397200D02*
X51497157Y-18472843D01*
X104325000Y-21100000D02*
X104325000Y-38500000D01*
X102825000Y-18070000D02*
G75*
G02*
X104325000Y-19570000I0J-1500000D01*
G01*
X42845446Y-18070330D02*
G75*
G02*
X37154372Y-18070000I-2845446J1570330D01*
G01*
M02*
