%TF.GenerationSoftware,KiCad,Pcbnew,9.0.7*%
%TF.CreationDate,2026-06-23T11:25:12-07:00*%
%TF.ProjectId,hadron_io_breakouts,68616472-6f6e-45f6-996f-5f627265616b,rev?*%
%TF.SameCoordinates,Original*%
%TF.FileFunction,Copper,L1,Top*%
%TF.FilePolarity,Positive*%
%FSLAX46Y46*%
G04 Gerber Fmt 4.6, Leading zero omitted, Abs format (unit mm)*
G04 Created by KiCad (PCBNEW 9.0.7) date 2026-06-23 11:25:12*
%MOMM*%
%LPD*%
G01*
G04 APERTURE LIST*
G04 Aperture macros list*
%AMRoundRect*
0 Rectangle with rounded corners*
0 $1 Rounding radius*
0 $2 $3 $4 $5 $6 $7 $8 $9 X,Y pos of 4 corners*
0 Add a 4 corners polygon primitive as box body*
4,1,4,$2,$3,$4,$5,$6,$7,$8,$9,$2,$3,0*
0 Add four circle primitives for the rounded corners*
1,1,$1+$1,$2,$3*
1,1,$1+$1,$4,$5*
1,1,$1+$1,$6,$7*
1,1,$1+$1,$8,$9*
0 Add four rect primitives between the rounded corners*
20,1,$1+$1,$2,$3,$4,$5,0*
20,1,$1+$1,$4,$5,$6,$7,0*
20,1,$1+$1,$6,$7,$8,$9,0*
20,1,$1+$1,$8,$9,$2,$3,0*%
G04 Aperture macros list end*
%TA.AperFunction,SMDPad,CuDef*%
%ADD10R,1.092200X2.895600*%
%TD*%
%TA.AperFunction,SMDPad,CuDef*%
%ADD11R,0.660400X1.701800*%
%TD*%
%TA.AperFunction,SMDPad,CuDef*%
%ADD12RoundRect,0.250000X0.450000X-0.262500X0.450000X0.262500X-0.450000X0.262500X-0.450000X-0.262500X0*%
%TD*%
%TA.AperFunction,SMDPad,CuDef*%
%ADD13RoundRect,0.250000X-0.262500X-0.450000X0.262500X-0.450000X0.262500X0.450000X-0.262500X0.450000X0*%
%TD*%
%TA.AperFunction,ComponentPad*%
%ADD14C,0.800000*%
%TD*%
%TA.AperFunction,ComponentPad*%
%ADD15C,5.400000*%
%TD*%
%TA.AperFunction,SMDPad,CuDef*%
%ADD16R,0.300000X1.800000*%
%TD*%
%TA.AperFunction,SMDPad,CuDef*%
%ADD17RoundRect,0.250000X0.262500X0.450000X-0.262500X0.450000X-0.262500X-0.450000X0.262500X-0.450000X0*%
%TD*%
%TA.AperFunction,SMDPad,CuDef*%
%ADD18R,0.600000X1.700000*%
%TD*%
%TA.AperFunction,SMDPad,CuDef*%
%ADD19R,1.000000X2.800000*%
%TD*%
%TA.AperFunction,ComponentPad*%
%ADD20R,1.700000X1.700000*%
%TD*%
%TA.AperFunction,ComponentPad*%
%ADD21O,1.700000X1.700000*%
%TD*%
%TA.AperFunction,ViaPad*%
%ADD22C,0.600000*%
%TD*%
%TA.AperFunction,ViaPad*%
%ADD23C,0.460000*%
%TD*%
%TA.AperFunction,Conductor*%
%ADD24C,0.400000*%
%TD*%
%TA.AperFunction,Conductor*%
%ADD25C,0.300000*%
%TD*%
%TA.AperFunction,Conductor*%
%ADD26C,0.350000*%
%TD*%
%TA.AperFunction,Conductor*%
%ADD27C,0.200000*%
%TD*%
%TA.AperFunction,Conductor*%
%ADD28C,0.250000*%
%TD*%
G04 APERTURE END LIST*
D10*
%TO.P,J6,*%
%TO.N,*%
X74800000Y-37708574D03*
X65600000Y-37733340D03*
D11*
%TO.P,J6,1,1*%
%TO.N,SBC_GPIO13*%
X73700000Y-32100000D03*
%TO.P,J6,2,2*%
%TO.N,GND*%
X72700000Y-32100000D03*
%TO.P,J6,3,3*%
%TO.N,SBC_GPIO12*%
X71699999Y-32100000D03*
%TO.P,J6,4,4*%
%TO.N,GND*%
X70700001Y-32100000D03*
%TO.P,J6,5,5*%
%TO.N,SBC_GPIO11*%
X69700000Y-32100000D03*
%TO.P,J6,6,6*%
%TO.N,GND*%
X68700000Y-32100000D03*
%TO.P,J6,7,7*%
%TO.N,SBC_GPIO10*%
X67700000Y-32100000D03*
%TO.P,J6,8,8*%
%TO.N,GND*%
X66700000Y-32100000D03*
%TD*%
D12*
%TO.P,R4,1*%
%TO.N,SBC_GPIO13*%
X74325000Y-29912500D03*
%TO.P,R4,2*%
%TO.N,Net-(J4-Pad5)*%
X74325000Y-28087500D03*
%TD*%
%TO.P,R3,1*%
%TO.N,SBC_GPIO12*%
X72175000Y-29912500D03*
%TO.P,R3,2*%
%TO.N,Net-(J4-Pad3)*%
X72175000Y-28087500D03*
%TD*%
D13*
%TO.P,R1,1*%
%TO.N,GND*%
X66537500Y-28725000D03*
%TO.P,R1,2*%
%TO.N,SBC_GPIO11*%
X68362500Y-28725000D03*
%TD*%
D12*
%TO.P,R7,1*%
%TO.N,SBC_GPIO11*%
X66700000Y-24137500D03*
%TO.P,R7,2*%
%TO.N,Net-(J4-Pad6)*%
X66700000Y-22312500D03*
%TD*%
%TO.P,R8,1*%
%TO.N,SBC_GPIO10*%
X64750000Y-24187500D03*
%TO.P,R8,2*%
%TO.N,Net-(J4-Pad4)*%
X64750000Y-22362500D03*
%TD*%
D14*
%TO.P,REF\u002A\u002A,1*%
%TO.N,GND*%
X98515000Y-25000000D03*
X99108109Y-23568109D03*
X99108109Y-26431891D03*
X100540000Y-22975000D03*
X100540000Y-27025000D03*
X101971891Y-23568109D03*
X101971891Y-26431891D03*
X102565000Y-25000000D03*
D15*
%TO.P,REF\u002A\u002A,2*%
X100540000Y-25000000D03*
%TD*%
D16*
%TO.P,J1,1,1*%
%TO.N,USB1 VBUS*%
X40820000Y-33240000D03*
%TO.P,J1,2,2*%
X40320000Y-35940000D03*
%TO.P,J1,3,3*%
%TO.N,GND*%
X39820000Y-33240000D03*
%TO.P,J1,4,4*%
X39320000Y-35940000D03*
%TO.P,J1,5,5*%
%TO.N,USB1_D_N*%
X38820000Y-33240000D03*
%TO.P,J1,6,6*%
%TO.N,GND*%
X38320000Y-35940000D03*
%TO.P,J1,7,7*%
%TO.N,USB1_D_P*%
X37820000Y-33240000D03*
%TO.P,J1,8,8*%
%TO.N,GND*%
X37320000Y-35940000D03*
%TO.P,J1,9,9*%
%TO.N,unconnected-(J1-Pad9)*%
X36820000Y-33240000D03*
%TO.P,J1,10,10*%
%TO.N,GND*%
X36320000Y-35940000D03*
%TO.P,J1,11,11*%
%TO.N,USB1_RX_N*%
X35820000Y-33240000D03*
%TO.P,J1,12,12*%
%TO.N,GND*%
X35320000Y-35940000D03*
%TO.P,J1,13,13*%
%TO.N,USB1_RX_P*%
X34820000Y-33240000D03*
%TO.P,J1,14,14*%
%TO.N,GND*%
X34320000Y-35940000D03*
%TO.P,J1,15,15*%
%TO.N,USB1_TX_N*%
X33820000Y-33240000D03*
%TO.P,J1,16,16*%
%TO.N,GND*%
X33320000Y-35940000D03*
%TO.P,J1,17,17*%
%TO.N,USB1_TX_P*%
X32820000Y-33240000D03*
%TO.P,J1,18,18*%
%TO.N,GND*%
X32320000Y-35940000D03*
%TO.P,J1,S1*%
X41820000Y-33240000D03*
%TO.P,J1,S2*%
X41820000Y-35940000D03*
%TO.P,J1,S3*%
X31320000Y-35940000D03*
%TO.P,J1,S4*%
X31320000Y-33240000D03*
%TD*%
D17*
%TO.P,R5,1*%
%TO.N,SBC_GPIO11*%
X68250000Y-26150000D03*
%TO.P,R5,2*%
%TO.N,3.3v*%
X66425000Y-26150000D03*
%TD*%
D18*
%TO.P,J5,1,1*%
%TO.N,SBC_RS232-0-Tx*%
X81800000Y-32550000D03*
%TO.P,J5,2,2*%
%TO.N,SBC_RS232-0-Rx*%
X82800000Y-32550000D03*
%TO.P,J5,3,3*%
%TO.N,SBC_RS232-1-Tx*%
X83800000Y-32550000D03*
%TO.P,J5,4,4*%
%TO.N,SBC_RS232-1-Rx*%
X84800000Y-32550000D03*
D19*
%TO.P,J5,MP1,MP1*%
%TO.N,unconnected-(J5-PadMP1)*%
X80700000Y-37700000D03*
%TO.P,J5,MP2,MP2*%
%TO.N,unconnected-(J5-PadMP2)*%
X85900000Y-37700000D03*
%TD*%
D14*
%TO.P,REF\u002A\u002A,1*%
%TO.N,GND*%
X22975000Y-25000000D03*
X23568109Y-23568109D03*
X23568109Y-26431891D03*
X25000000Y-22975000D03*
D15*
X25000000Y-25000000D03*
D14*
X25000000Y-27025000D03*
X26431891Y-23568109D03*
X26431891Y-26431891D03*
X27025000Y-25000000D03*
%TD*%
D16*
%TO.P,J3,1,1*%
%TO.N,USB0 VBUS*%
X55320000Y-33240000D03*
%TO.P,J3,2,2*%
X54820000Y-35940000D03*
%TO.P,J3,3,3*%
%TO.N,GND*%
X54320000Y-33240000D03*
%TO.P,J3,4,4*%
X53820000Y-35940000D03*
%TO.P,J3,5,5*%
%TO.N,USB0_D_N*%
X53320000Y-33240000D03*
%TO.P,J3,6,6*%
%TO.N,GND*%
X52820000Y-35940000D03*
%TO.P,J3,7,7*%
%TO.N,USB0_D_P*%
X52320000Y-33240000D03*
%TO.P,J3,8,8*%
%TO.N,GND*%
X51820000Y-35940000D03*
%TO.P,J3,9,9*%
%TO.N,unconnected-(J3-Pad9)*%
X51320000Y-33240000D03*
%TO.P,J3,10,10*%
%TO.N,GND*%
X50820000Y-35940000D03*
%TO.P,J3,11,11*%
%TO.N,USB0_RX_N*%
X50320000Y-33240000D03*
%TO.P,J3,12,12*%
%TO.N,GND*%
X49820000Y-35940000D03*
%TO.P,J3,13,13*%
%TO.N,USB0_RX_P*%
X49320000Y-33240000D03*
%TO.P,J3,14,14*%
%TO.N,GND*%
X48820000Y-35940000D03*
%TO.P,J3,15,15*%
%TO.N,USB0_TX_N*%
X48320000Y-33240000D03*
%TO.P,J3,16,16*%
%TO.N,GND*%
X47820000Y-35940000D03*
%TO.P,J3,17,17*%
%TO.N,USB0_TX_P*%
X47320000Y-33240000D03*
%TO.P,J3,18,18*%
%TO.N,GND*%
X46820000Y-35940000D03*
%TO.P,J3,S1*%
X56320000Y-33240000D03*
%TO.P,J3,S2*%
X56320000Y-35940000D03*
%TO.P,J3,S3*%
X45820000Y-35940000D03*
%TO.P,J3,S4*%
X45820000Y-33240000D03*
%TD*%
D13*
%TO.P,R6,1*%
%TO.N,SBC_GPIO10*%
X62875000Y-26150000D03*
%TO.P,R6,2*%
%TO.N,3.3v*%
X64700000Y-26150000D03*
%TD*%
D20*
%TO.P,J7,1,Pin_1*%
%TO.N,SBC_Debug-Rx*%
X96150000Y-28225000D03*
D21*
%TO.P,J7,2,Pin_2*%
%TO.N,SBC_Debug-Tx*%
X93610000Y-28225000D03*
%TO.P,J7,3,Pin_3*%
%TO.N,GND*%
X91070000Y-28225000D03*
%TD*%
D17*
%TO.P,R2,1*%
%TO.N,GND*%
X64812500Y-28730000D03*
%TO.P,R2,2*%
%TO.N,SBC_GPIO10*%
X62987500Y-28730000D03*
%TD*%
D22*
%TO.N,USB1 VBUS*%
X43440000Y-28450000D03*
D23*
%TO.N,GND*%
X34045500Y-31196505D03*
X35330000Y-37290000D03*
X56300000Y-37280000D03*
X34290000Y-37270000D03*
X45840000Y-37280000D03*
X42233494Y-27440000D03*
D22*
X67269000Y-21006000D03*
D23*
X46187001Y-21272463D03*
X47820000Y-37280000D03*
X38320000Y-37280000D03*
D22*
X58250000Y-35175000D03*
X37160000Y-25990000D03*
X49541000Y-21636000D03*
D23*
X31320000Y-37290000D03*
X52820000Y-37280000D03*
X48820000Y-37280000D03*
D22*
X41915000Y-21660000D03*
D23*
X41800000Y-37280000D03*
D22*
X29660000Y-35170000D03*
D23*
X32507568Y-31260267D03*
X47361899Y-19745907D03*
D22*
X71050000Y-21400000D03*
D23*
X46820000Y-37280000D03*
D22*
X66700000Y-33475000D03*
X72700000Y-33475000D03*
X68700000Y-33475000D03*
X63459000Y-21400000D03*
X70700000Y-33475000D03*
D23*
X36320000Y-37280000D03*
X50820000Y-37280000D03*
X44769760Y-21442120D03*
X33280000Y-37280000D03*
X40326515Y-27440000D03*
X51820000Y-37280000D03*
X39330000Y-37280000D03*
X37330000Y-37280000D03*
X53830000Y-37280000D03*
D22*
X87575000Y-27425000D03*
D23*
X32300000Y-37280000D03*
D22*
X43179000Y-27205000D03*
D23*
X37941139Y-31005202D03*
D22*
X65750000Y-29925000D03*
D23*
X38512046Y-30499459D03*
D22*
X46980000Y-27200000D03*
D23*
X49820000Y-37280000D03*
X42863034Y-21453048D03*
%TO.N,USB1_D_P*%
X38333000Y-31536284D03*
%TO.N,USB1_RX_N*%
X41573500Y-27436174D03*
%TO.N,USB1_D_N*%
X38895000Y-31037000D03*
%TO.N,USB1_TX_N*%
X33595500Y-31690000D03*
%TO.N,USB1_TX_P*%
X33008500Y-31690000D03*
%TO.N,USB1_RX_P*%
X40986500Y-27436174D03*
%TO.N,USB0_TX_N*%
X44110000Y-21460000D03*
%TO.N,USB0_D_P*%
X52506500Y-31360000D03*
D22*
%TO.N,USB0 VBUS*%
X38125000Y-20998000D03*
D23*
%TO.N,USB0_TX_P*%
X43523000Y-21460000D03*
%TO.N,USB0_D_N*%
X53093500Y-31360000D03*
%TO.N,USB0_RX_N*%
X46948000Y-20260000D03*
%TO.N,USB0_RX_P*%
X46579700Y-20742000D03*
D22*
%TO.N,SBC_RS232-1-Rx*%
X81275000Y-27400000D03*
%TO.N,SBC_RS232-0-Tx*%
X76100000Y-21400000D03*
%TO.N,SBC_RS232-0-Rx*%
X77425000Y-21375000D03*
%TO.N,SBC_RS232-1-Tx*%
X79961765Y-27438235D03*
%TO.N,Net-(J4-Pad5)*%
X75600000Y-28050000D03*
%TO.N,Net-(J4-Pad3)*%
X70575000Y-29050000D03*
%TO.N,Net-(J4-Pad4)*%
X64725000Y-21250000D03*
%TO.N,Net-(J4-Pad6)*%
X65999000Y-21226000D03*
%TO.N,3.3v*%
X67340000Y-27580000D03*
X69800000Y-27590000D03*
X69825000Y-21400000D03*
%TD*%
D24*
%TO.N,USB1 VBUS*%
X43440000Y-28450000D02*
X40820000Y-31070000D01*
X40820000Y-31070000D02*
X40820000Y-33240000D01*
X40820000Y-33240000D02*
X40820000Y-34180000D01*
D25*
X40820000Y-34180000D02*
X40320000Y-34680000D01*
X40320000Y-34680000D02*
X40320000Y-35940000D01*
%TO.N,GND*%
X39320000Y-37270000D02*
X39330000Y-37280000D01*
D26*
X45820000Y-35940000D02*
X45820000Y-37260000D01*
D25*
X52820000Y-35940000D02*
X52820000Y-37340000D01*
D27*
X70700001Y-33474999D02*
X70700000Y-33475000D01*
D25*
X53820000Y-37330000D02*
X53830000Y-37340000D01*
X32320000Y-37260000D02*
X32300000Y-37280000D01*
D27*
X65750000Y-29925000D02*
X65750000Y-28750000D01*
X68700000Y-32100000D02*
X68700000Y-33475000D01*
D26*
X56320000Y-33240000D02*
X56320000Y-35940000D01*
D25*
X37320000Y-35940000D02*
X37320000Y-37270000D01*
X39820000Y-33240000D02*
X39820000Y-34270000D01*
X56300000Y-37280000D02*
X56300000Y-35960000D01*
X34320000Y-37240000D02*
X34290000Y-37270000D01*
D27*
X66700000Y-32100000D02*
X66700000Y-33475000D01*
D25*
X54320000Y-34220000D02*
X53810000Y-34730000D01*
X32320000Y-35940000D02*
X32320000Y-37260000D01*
X41820000Y-35940000D02*
X41820000Y-37260000D01*
D27*
X66522500Y-28740000D02*
X66537500Y-28725000D01*
D25*
X38320000Y-37280000D02*
X38320000Y-35940000D01*
D26*
X45820000Y-37260000D02*
X45840000Y-37280000D01*
D25*
X54320000Y-33240000D02*
X54320000Y-34220000D01*
X53820000Y-35940000D02*
X53820000Y-37330000D01*
X41820000Y-33240000D02*
X41820000Y-35940000D01*
X39320000Y-35940000D02*
X39320000Y-37270000D01*
D27*
X65760000Y-28740000D02*
X66522500Y-28740000D01*
D25*
X53810000Y-34730000D02*
X53820000Y-34740000D01*
X47820000Y-37260000D02*
X47820000Y-35940000D01*
X53820000Y-34740000D02*
X53820000Y-35940000D01*
X39820000Y-34270000D02*
X39320000Y-34770000D01*
X34320000Y-35940000D02*
X34320000Y-37240000D01*
X46820000Y-35940000D02*
X46820000Y-37280000D01*
X35320000Y-35940000D02*
X35320000Y-37280000D01*
X35320000Y-37280000D02*
X35330000Y-37290000D01*
X48820000Y-35940000D02*
X48820000Y-37310000D01*
X50820000Y-37310000D02*
X50820000Y-35940000D01*
D27*
X66537500Y-28725000D02*
X66537500Y-29137500D01*
X64812500Y-28730000D02*
X64822500Y-28740000D01*
D25*
X33320000Y-35940000D02*
X33320000Y-37240000D01*
D26*
X45820000Y-33240000D02*
X45820000Y-35940000D01*
D27*
X65740000Y-28740000D02*
X65750000Y-28750000D01*
D25*
X39320000Y-34770000D02*
X39320000Y-35940000D01*
X37320000Y-37270000D02*
X37330000Y-37280000D01*
X49820000Y-37350000D02*
X49820000Y-35940000D01*
D27*
X70700001Y-32100000D02*
X70700001Y-33474999D01*
X64822500Y-28740000D02*
X65740000Y-28740000D01*
D26*
X31320000Y-33240000D02*
X31320000Y-35940000D01*
X31320000Y-35940000D02*
X31320000Y-37290000D01*
D25*
X33320000Y-37240000D02*
X33280000Y-37280000D01*
X51820000Y-37310000D02*
X51820000Y-35940000D01*
X36320000Y-35940000D02*
X36320000Y-37280000D01*
D27*
X65750000Y-28750000D02*
X65760000Y-28740000D01*
X72700000Y-32100000D02*
X72700000Y-33475000D01*
D25*
X41820000Y-37260000D02*
X41800000Y-37280000D01*
D28*
%TO.N,USB1_D_P*%
X38333000Y-31536284D02*
X38264161Y-31536284D01*
X37829000Y-33231000D02*
X37820000Y-33240000D01*
X37829000Y-31971445D02*
X37829000Y-33231000D01*
X38264161Y-31536284D02*
X37829000Y-31971445D01*
%TO.N,USB1_RX_N*%
X35508500Y-32178500D02*
X35820000Y-32490000D01*
X35820000Y-32490000D02*
X35820000Y-33240000D01*
X41021080Y-28636500D02*
X38260080Y-28636500D01*
X35508500Y-31388080D02*
X35508500Y-32178500D01*
X41573500Y-27436174D02*
X41468501Y-27541173D01*
X41468501Y-28189079D02*
X41021080Y-28636500D01*
X41468501Y-27541173D02*
X41468501Y-28189079D01*
X38260080Y-28636500D02*
X35508500Y-31388080D01*
%TO.N,USB1_D_N*%
X38845000Y-31037000D02*
X38815000Y-31067000D01*
X38815000Y-33235000D02*
X38820000Y-33240000D01*
X38815000Y-31067000D02*
X38815000Y-33235000D01*
X38895000Y-31037000D02*
X38845000Y-31037000D01*
%TO.N,USB1_TX_N*%
X33820000Y-31914500D02*
X33820000Y-33240000D01*
X33595500Y-31690000D02*
X33820000Y-31914500D01*
%TO.N,USB1_TX_P*%
X32820000Y-31878500D02*
X32820000Y-33240000D01*
X33008500Y-31690000D02*
X32820000Y-31878500D01*
%TO.N,USB1_RX_P*%
X35131500Y-32178500D02*
X34820000Y-32490000D01*
X34820000Y-32490000D02*
X34820000Y-33240000D01*
X40986500Y-27436174D02*
X41091499Y-27541173D01*
X41091499Y-28032921D02*
X40864920Y-28259500D01*
X40864920Y-28259500D02*
X38103920Y-28259500D01*
X41091499Y-27541173D02*
X41091499Y-28032921D01*
X35131500Y-31231920D02*
X35131500Y-32178500D01*
X38103920Y-28259500D02*
X35131500Y-31231920D01*
%TO.N,USB0_TX_N*%
X44006000Y-22546000D02*
X48029500Y-26569500D01*
X48029500Y-32026572D02*
X48027000Y-32029072D01*
X48027000Y-32132000D02*
X48320000Y-32425000D01*
X48027000Y-32029072D02*
X48027000Y-32132000D01*
X44006000Y-21564000D02*
X44006000Y-22546000D01*
X44110000Y-21460000D02*
X44006000Y-21564000D01*
X48320000Y-32425000D02*
X48320000Y-33240000D01*
X48029500Y-26569500D02*
X48029500Y-32026572D01*
%TO.N,USB0_D_P*%
X52610500Y-31560066D02*
X52611500Y-31561066D01*
X52506500Y-31413841D02*
X52610500Y-31517841D01*
X52506500Y-31360000D02*
X52506500Y-31413841D01*
X52610500Y-31517841D02*
X52610500Y-31560066D01*
X52611500Y-31561066D02*
X52611500Y-31998500D01*
X52320000Y-32290000D02*
X52320000Y-33240000D01*
X52611500Y-31998500D02*
X52320000Y-32290000D01*
D25*
%TO.N,USB0 VBUS*%
X54820000Y-34700000D02*
X54820000Y-35940000D01*
D24*
X55320000Y-33240000D02*
X55320000Y-34200000D01*
X38125000Y-20998000D02*
X38668000Y-20455000D01*
X48159000Y-19018000D02*
X55320000Y-26179000D01*
X55320000Y-26179000D02*
X55320000Y-33240000D01*
X45523000Y-19018000D02*
X48159000Y-19018000D01*
X44086000Y-20455000D02*
X45523000Y-19018000D01*
D25*
X55320000Y-34200000D02*
X54820000Y-34700000D01*
D24*
X38668000Y-20455000D02*
X44086000Y-20455000D01*
D28*
%TO.N,USB0_TX_P*%
X43628000Y-22702572D02*
X47651500Y-26726072D01*
X47649000Y-31872500D02*
X47649000Y-32161000D01*
X43627999Y-21661065D02*
X43628000Y-22702572D01*
X43627000Y-21564000D02*
X43627000Y-21660066D01*
X47649000Y-32161000D02*
X47320000Y-32490000D01*
X47651500Y-26726072D02*
X47651500Y-31870000D01*
X43627000Y-21660066D02*
X43627999Y-21661065D01*
X43523000Y-21460000D02*
X43627000Y-21564000D01*
X47651500Y-31870000D02*
X47649000Y-31872500D01*
X47320000Y-32490000D02*
X47320000Y-33240000D01*
%TO.N,USB0_D_N*%
X52989500Y-31464000D02*
X52989500Y-31969500D01*
X53093500Y-31360000D02*
X52989500Y-31464000D01*
X52989500Y-31969500D02*
X53320000Y-32300000D01*
X53320000Y-32300000D02*
X53320000Y-33240000D01*
%TO.N,USB0_RX_N*%
X49989500Y-23292500D02*
X49989500Y-31882500D01*
X50320000Y-32213000D02*
X50320000Y-33240000D01*
X46957000Y-20260000D02*
X49989500Y-23292500D01*
X46948000Y-20260000D02*
X46957000Y-20260000D01*
X50320000Y-32490000D02*
X50320000Y-33240000D01*
X49989500Y-31882500D02*
X50320000Y-32213000D01*
%TO.N,USB0_RX_P*%
X49140717Y-27998151D02*
X49371500Y-27998151D01*
X46747934Y-20743000D02*
X46746934Y-20742000D01*
X49611500Y-27638151D02*
X49611500Y-27440021D01*
X49611500Y-31885500D02*
X49611500Y-30038151D01*
X49320000Y-32177000D02*
X49611500Y-31885500D01*
X49371500Y-28598151D02*
X49140717Y-28598151D01*
X49611500Y-28958151D02*
X49611500Y-28838151D01*
X49320000Y-33240000D02*
X49320000Y-32177000D01*
X48900717Y-29558151D02*
X48900717Y-29438151D01*
X49371500Y-29798151D02*
X49140717Y-29798151D01*
X49611500Y-27440021D02*
X49611500Y-23449072D01*
X49611500Y-23449072D02*
X46905428Y-20743000D01*
X46905428Y-20743000D02*
X46747934Y-20743000D01*
X49140717Y-29198151D02*
X49371500Y-29198151D01*
X46746934Y-20742000D02*
X46579700Y-20742000D01*
X49611500Y-27758151D02*
X49611500Y-27638151D01*
X48900717Y-28358151D02*
X48900717Y-28238151D01*
X49611500Y-28838151D02*
G75*
G03*
X49371500Y-28598100I-240000J51D01*
G01*
X49371500Y-27998151D02*
G75*
G03*
X49611451Y-27758151I0J239951D01*
G01*
X49140717Y-28598151D02*
G75*
G02*
X48900749Y-28358151I-17J239951D01*
G01*
X49371500Y-29198151D02*
G75*
G03*
X49611451Y-28958151I0J239951D01*
G01*
X48900717Y-28238151D02*
G75*
G02*
X49140717Y-27998117I239983J51D01*
G01*
X49140717Y-29798151D02*
G75*
G02*
X48900749Y-29558151I-17J239951D01*
G01*
X49611500Y-30038151D02*
G75*
G03*
X49371500Y-29798100I-240000J51D01*
G01*
X48900717Y-29438151D02*
G75*
G02*
X49140717Y-29198117I239983J51D01*
G01*
D27*
%TO.N,SBC_RS232-1-Rx*%
X81275000Y-27400000D02*
X84800000Y-30925000D01*
X84800000Y-30925000D02*
X84800000Y-32550000D01*
%TO.N,SBC_RS232-0-Tx*%
X76100000Y-25150000D02*
X81800000Y-30850000D01*
X81800000Y-30850000D02*
X81800000Y-32550000D01*
X76100000Y-21400000D02*
X76100000Y-25150000D01*
%TO.N,SBC_RS232-0-Rx*%
X82800000Y-31125000D02*
X82800000Y-32550000D01*
X77425000Y-25750000D02*
X82800000Y-31125000D01*
X77425000Y-21375000D02*
X77425000Y-25750000D01*
%TO.N,SBC_RS232-1-Tx*%
X79961765Y-27438235D02*
X83800000Y-31276470D01*
X83800000Y-31276470D02*
X83800000Y-32550000D01*
%TO.N,SBC_GPIO11*%
X68037500Y-24137500D02*
X68250000Y-24350000D01*
X68250000Y-24350000D02*
X68250000Y-26150000D01*
X68250000Y-26150000D02*
X68250000Y-28612500D01*
X66700000Y-24137500D02*
X68037500Y-24137500D01*
X69700000Y-30062500D02*
X69700000Y-32100000D01*
X68250000Y-28612500D02*
X68362500Y-28725000D01*
X68362500Y-28725000D02*
X69700000Y-30062500D01*
%TO.N,Net-(J4-Pad5)*%
X75600000Y-28050000D02*
X75562500Y-28087500D01*
X75562500Y-28087500D02*
X74325000Y-28087500D01*
%TO.N,SBC_GPIO10*%
X64837500Y-30525000D02*
X67200000Y-30525000D01*
X62875000Y-25500000D02*
X62875000Y-26150000D01*
X67200000Y-30525000D02*
X67700000Y-31025000D01*
X64187500Y-24187500D02*
X62875000Y-25500000D01*
X62875000Y-28562500D02*
X62987500Y-28675000D01*
X62987500Y-28675000D02*
X64837500Y-30525000D01*
X67700000Y-31025000D02*
X67700000Y-32100000D01*
X64750000Y-24187500D02*
X64187500Y-24187500D01*
X62875000Y-26150000D02*
X62875000Y-28562500D01*
%TO.N,Net-(J4-Pad3)*%
X71537500Y-28087500D02*
X72175000Y-28087500D01*
X70575000Y-29050000D02*
X71537500Y-28087500D01*
%TO.N,SBC_GPIO13*%
X74325000Y-31475000D02*
X73700000Y-32100000D01*
X74325000Y-29912500D02*
X74325000Y-31475000D01*
%TO.N,Net-(J4-Pad4)*%
X64750000Y-21275000D02*
X64750000Y-22362500D01*
X64725000Y-21250000D02*
X64750000Y-21275000D01*
%TO.N,SBC_GPIO12*%
X71699999Y-30387501D02*
X71699999Y-32100000D01*
X72175000Y-29912500D02*
X71699999Y-30387501D01*
%TO.N,Net-(J4-Pad6)*%
X65999000Y-21611500D02*
X66700000Y-22312500D01*
X65999000Y-21226000D02*
X65999000Y-21611500D01*
%TO.N,3.3v*%
X64700000Y-26150000D02*
X64700000Y-26740000D01*
X66425000Y-26150000D02*
X66425000Y-26665000D01*
X66425000Y-26665000D02*
X67340000Y-27580000D01*
X65550000Y-26150000D02*
X66425000Y-26150000D01*
X69800000Y-27590000D02*
X69800000Y-21425000D01*
X69800000Y-21425000D02*
X69825000Y-21400000D01*
X65550000Y-26150000D02*
X64700000Y-26150000D01*
%TD*%
M02*
