%TF.GenerationSoftware,KiCad,Pcbnew,9.0.7*%
%TF.CreationDate,2026-06-23T11:25:12-07:00*%
%TF.ProjectId,hadron_io_breakouts,68616472-6f6e-45f6-996f-5f627265616b,rev?*%
%TF.SameCoordinates,Original*%
%TF.FileFunction,Copper,L4,Bot*%
%TF.FilePolarity,Positive*%
%FSLAX46Y46*%
G04 Gerber Fmt 4.6, Leading zero omitted, Abs format (unit mm)*
G04 Created by KiCad (PCBNEW 9.0.7) date 2026-06-23 11:25:12*
%MOMM*%
%LPD*%
G01*
G04 APERTURE LIST*
%TA.AperFunction,ComponentPad*%
%ADD10C,0.800000*%
%TD*%
%TA.AperFunction,ComponentPad*%
%ADD11C,5.400000*%
%TD*%
%TA.AperFunction,ComponentPad*%
%ADD12R,1.700000X1.700000*%
%TD*%
%TA.AperFunction,ComponentPad*%
%ADD13O,1.700000X1.700000*%
%TD*%
%TA.AperFunction,SMDPad,CuDef*%
%ADD14R,0.740000X2.220000*%
%TD*%
%TA.AperFunction,ViaPad*%
%ADD15C,0.600000*%
%TD*%
%TA.AperFunction,ViaPad*%
%ADD16C,0.460000*%
%TD*%
%TA.AperFunction,Conductor*%
%ADD17C,0.400000*%
%TD*%
%TA.AperFunction,Conductor*%
%ADD18C,0.500000*%
%TD*%
%TA.AperFunction,Conductor*%
%ADD19C,0.350000*%
%TD*%
%TA.AperFunction,Conductor*%
%ADD20C,0.420000*%
%TD*%
%TA.AperFunction,Conductor*%
%ADD21C,0.250000*%
%TD*%
%TA.AperFunction,Conductor*%
%ADD22C,0.200000*%
%TD*%
G04 APERTURE END LIST*
D10*
%TO.P,REF\u002A\u002A,1*%
%TO.N,GND*%
X98515000Y-25000000D03*
X99108109Y-23568109D03*
X99108109Y-26431891D03*
X100540000Y-22975000D03*
X100540000Y-27025000D03*
X101971891Y-23568109D03*
X101971891Y-26431891D03*
X102565000Y-25000000D03*
D11*
%TO.P,REF\u002A\u002A,2*%
X100540000Y-25000000D03*
%TD*%
D10*
%TO.P,REF\u002A\u002A,1*%
%TO.N,GND*%
X22975000Y-25000000D03*
X23568109Y-23568109D03*
X23568109Y-26431891D03*
X25000000Y-22975000D03*
D11*
X25000000Y-25000000D03*
D10*
X25000000Y-27025000D03*
X26431891Y-23568109D03*
X26431891Y-26431891D03*
X27025000Y-25000000D03*
%TD*%
D12*
%TO.P,J7,1,Pin_1*%
%TO.N,SBC_Debug-Rx*%
X96150000Y-28225000D03*
D13*
%TO.P,J7,2,Pin_2*%
%TO.N,SBC_Debug-Tx*%
X93610000Y-28225000D03*
%TO.P,J7,3,Pin_3*%
%TO.N,GND*%
X91070000Y-28225000D03*
%TD*%
D14*
%TO.P,J2,01,01*%
%TO.N,GND*%
X49535000Y-23048500D03*
%TO.P,J2,02,02*%
%TO.N,USB1_D_P*%
X49535000Y-25778500D03*
%TO.P,J2,03,03*%
%TO.N,USB0_D_P*%
X48265000Y-23048500D03*
%TO.P,J2,04,04*%
%TO.N,USB1_D_N*%
X48265000Y-25778500D03*
%TO.P,J2,05,05*%
%TO.N,USB0_D_N*%
X46995000Y-23048500D03*
%TO.P,J2,06,06*%
%TO.N,GND*%
X46995000Y-25778500D03*
%TO.P,J2,07,07*%
X45725000Y-23048500D03*
%TO.P,J2,08,08*%
%TO.N,USB1_TX_N*%
X45725000Y-25778500D03*
%TO.P,J2,09,09*%
%TO.N,USB0_TX_N*%
X44455000Y-23048500D03*
%TO.P,J2,10,10*%
%TO.N,USB1_TX_P*%
X44455000Y-25778500D03*
%TO.P,J2,11,11*%
%TO.N,USB0_TX_P*%
X43185000Y-23048500D03*
%TO.P,J2,12,12*%
%TO.N,GND*%
X43185000Y-25778500D03*
%TO.P,J2,13,13*%
X41915000Y-23048500D03*
%TO.P,J2,14,14*%
%TO.N,USB1_RX_N*%
X41915000Y-25778500D03*
%TO.P,J2,15,15*%
%TO.N,USB0_RX_P*%
X40645000Y-23048500D03*
%TO.P,J2,16,16*%
%TO.N,USB1_RX_P*%
X40645000Y-25778500D03*
%TO.P,J2,17,17*%
%TO.N,USB0_RX_N*%
X39375000Y-23048500D03*
%TO.P,J2,18,18*%
%TO.N,USB1 VBUS*%
X39375000Y-25778500D03*
%TO.P,J2,19,19*%
%TO.N,USB0 VBUS*%
X38105000Y-23048500D03*
%TO.P,J2,20,20*%
%TO.N,GND*%
X38105000Y-25778500D03*
%TD*%
%TO.P,J4,1,1*%
%TO.N,GND*%
X63459000Y-25778500D03*
%TO.P,J4,2,2*%
X63459000Y-23048500D03*
%TO.P,J4,3,3*%
%TO.N,Net-(J4-Pad3)*%
X64729000Y-25778500D03*
%TO.P,J4,4,4*%
%TO.N,Net-(J4-Pad4)*%
X64729000Y-23048500D03*
%TO.P,J4,5,5*%
%TO.N,Net-(J4-Pad5)*%
X65999000Y-25778500D03*
%TO.P,J4,6,6*%
%TO.N,Net-(J4-Pad6)*%
X65999000Y-23048500D03*
%TO.P,J4,7,7*%
%TO.N,GND*%
X67269000Y-25778500D03*
%TO.P,J4,8,8*%
X67269000Y-23048500D03*
%TO.P,J4,9,9*%
%TO.N,5v*%
X68539000Y-25778500D03*
%TO.P,J4,10,10*%
%TO.N,3.3v*%
X68539000Y-23048500D03*
%TO.P,J4,11,11*%
%TO.N,5v*%
X69809000Y-25778500D03*
%TO.P,J4,12,12*%
%TO.N,3.3v*%
X69809000Y-23048500D03*
%TO.P,J4,13,13*%
%TO.N,GND*%
X71079000Y-25778500D03*
%TO.P,J4,14,14*%
X71079000Y-23048500D03*
%TO.P,J4,15,15*%
%TO.N,unconnected-(J4-Pad15)*%
X72349000Y-25778500D03*
%TO.P,J4,16,16*%
%TO.N,unconnected-(J4-Pad16)*%
X72349000Y-23048500D03*
%TO.P,J4,17,17*%
%TO.N,unconnected-(J4-Pad17)*%
X73619000Y-25778500D03*
%TO.P,J4,18,18*%
%TO.N,unconnected-(J4-Pad18)*%
X73619000Y-23048500D03*
%TO.P,J4,19,19*%
%TO.N,unconnected-(J4-Pad19)*%
X74889000Y-25778500D03*
%TO.P,J4,20,20*%
%TO.N,unconnected-(J4-Pad20)*%
X74889000Y-23048500D03*
%TO.P,J4,21,21*%
%TO.N,unconnected-(J4-Pad21)*%
X76159000Y-25778500D03*
%TO.P,J4,22,22*%
%TO.N,SBC_RS232-0-Tx*%
X76159000Y-23048500D03*
%TO.P,J4,23,23*%
%TO.N,unconnected-(J4-Pad23)*%
X77429000Y-25778500D03*
%TO.P,J4,24,24*%
%TO.N,SBC_RS232-0-Rx*%
X77429000Y-23048500D03*
%TO.P,J4,25,25*%
%TO.N,unconnected-(J4-Pad25)*%
X78699000Y-25778500D03*
%TO.P,J4,26,26*%
%TO.N,unconnected-(J4-Pad26)*%
X78699000Y-23048500D03*
%TO.P,J4,27,27*%
%TO.N,SBC_RS232-1-Tx*%
X79969000Y-25778500D03*
%TO.P,J4,28,28*%
%TO.N,unconnected-(J4-Pad28)*%
X79969000Y-23048500D03*
%TO.P,J4,29,29*%
%TO.N,SBC_RS232-1-Rx*%
X81239000Y-25778500D03*
%TO.P,J4,30,30*%
%TO.N,unconnected-(J4-Pad30)*%
X81239000Y-23048500D03*
%TO.P,J4,31,31*%
%TO.N,unconnected-(J4-Pad31)*%
X82509000Y-25778500D03*
%TO.P,J4,32,32*%
%TO.N,unconnected-(J4-Pad32)*%
X82509000Y-23048500D03*
%TO.P,J4,33,33*%
%TO.N,unconnected-(J4-Pad33)*%
X83779000Y-25778500D03*
%TO.P,J4,34,34*%
%TO.N,unconnected-(J4-Pad34)*%
X83779000Y-23048500D03*
%TO.P,J4,35,35*%
%TO.N,unconnected-(J4-Pad35)*%
X85049000Y-25778500D03*
%TO.P,J4,36,36*%
%TO.N,unconnected-(J4-Pad36)*%
X85049000Y-23048500D03*
%TO.P,J4,37,37*%
%TO.N,SBC_Debug-Rx*%
X86319000Y-25778500D03*
%TO.P,J4,38,38*%
%TO.N,SBC_Debug-Tx*%
X86319000Y-23048500D03*
%TO.P,J4,39,39*%
%TO.N,GND*%
X87589000Y-25778500D03*
%TO.P,J4,40,40*%
X87589000Y-23048500D03*
%TD*%
D15*
%TO.N,USB1 VBUS*%
X43440000Y-28450000D03*
D16*
%TO.N,GND*%
X34045500Y-31196505D03*
X35330000Y-37290000D03*
X56300000Y-37280000D03*
X34290000Y-37270000D03*
X45840000Y-37280000D03*
X42233494Y-27440000D03*
D15*
X67269000Y-21006000D03*
D16*
X46187001Y-21272463D03*
X47820000Y-37280000D03*
X38320000Y-37280000D03*
D15*
X58250000Y-35175000D03*
X37160000Y-25990000D03*
X49541000Y-21636000D03*
D16*
X31320000Y-37290000D03*
X52820000Y-37280000D03*
X48820000Y-37280000D03*
D15*
X41915000Y-21660000D03*
D16*
X41800000Y-37280000D03*
D15*
X29660000Y-35170000D03*
D16*
X32507568Y-31260267D03*
X47361899Y-19745907D03*
D15*
X71050000Y-21400000D03*
D16*
X46820000Y-37280000D03*
D15*
X66700000Y-33475000D03*
X72700000Y-33475000D03*
X68700000Y-33475000D03*
X63459000Y-21400000D03*
X70700000Y-33475000D03*
D16*
X36320000Y-37280000D03*
X50820000Y-37280000D03*
X44769760Y-21442120D03*
X33280000Y-37280000D03*
X40326515Y-27440000D03*
X51820000Y-37280000D03*
X39330000Y-37280000D03*
X37330000Y-37280000D03*
X53830000Y-37280000D03*
D15*
X87575000Y-27425000D03*
D16*
X32300000Y-37280000D03*
D15*
X43179000Y-27205000D03*
D16*
X37941139Y-31005202D03*
D15*
X65750000Y-29925000D03*
D16*
X38512046Y-30499459D03*
D15*
X46980000Y-27200000D03*
D16*
X49820000Y-37280000D03*
X42863034Y-21453048D03*
%TO.N,USB1_D_P*%
X38333000Y-31536284D03*
%TO.N,USB1_RX_N*%
X41573500Y-27436174D03*
%TO.N,USB1_D_N*%
X38895000Y-31037000D03*
%TO.N,USB1_TX_N*%
X33595500Y-31690000D03*
%TO.N,USB1_TX_P*%
X33008500Y-31690000D03*
%TO.N,USB1_RX_P*%
X40986500Y-27436174D03*
%TO.N,USB0_TX_N*%
X44110000Y-21460000D03*
%TO.N,USB0_D_P*%
X52506500Y-31360000D03*
D15*
%TO.N,USB0 VBUS*%
X38125000Y-20998000D03*
D16*
%TO.N,USB0_TX_P*%
X43523000Y-21460000D03*
%TO.N,USB0_D_N*%
X53093500Y-31360000D03*
%TO.N,USB0_RX_N*%
X46948000Y-20260000D03*
%TO.N,USB0_RX_P*%
X46579700Y-20742000D03*
D15*
%TO.N,SBC_RS232-1-Rx*%
X81275000Y-27400000D03*
%TO.N,SBC_RS232-0-Tx*%
X76100000Y-21400000D03*
%TO.N,SBC_RS232-0-Rx*%
X77425000Y-21375000D03*
%TO.N,SBC_RS232-1-Tx*%
X79961765Y-27438235D03*
%TO.N,Net-(J4-Pad5)*%
X75600000Y-28050000D03*
%TO.N,Net-(J4-Pad3)*%
X70575000Y-29050000D03*
%TO.N,Net-(J4-Pad4)*%
X64725000Y-21250000D03*
%TO.N,Net-(J4-Pad6)*%
X65999000Y-21226000D03*
%TO.N,3.3v*%
X67340000Y-27580000D03*
X69800000Y-27590000D03*
X69825000Y-21400000D03*
%TD*%
D17*
%TO.N,USB1 VBUS*%
X43440000Y-28450000D02*
X43436000Y-28454000D01*
X39375000Y-28061000D02*
X39375000Y-25778500D01*
X39768000Y-28454000D02*
X39375000Y-28061000D01*
X43436000Y-28454000D02*
X39768000Y-28454000D01*
D18*
%TO.N,GND*%
X71079000Y-23048500D02*
X71079000Y-25778500D01*
X67269000Y-21006000D02*
X67269000Y-23048500D01*
X71079000Y-21429000D02*
X71050000Y-21400000D01*
X87589000Y-25778500D02*
X87589000Y-27411000D01*
D19*
X38105000Y-25778500D02*
X37371500Y-25778500D01*
D18*
X87589000Y-25778500D02*
X87589000Y-23048500D01*
X67269000Y-23048500D02*
X67269000Y-25778500D01*
D17*
X43185000Y-25778500D02*
X43185000Y-27199000D01*
D19*
X45725000Y-21665000D02*
X45725000Y-23048500D01*
D18*
X63459000Y-23048500D02*
X63459000Y-25778500D01*
D19*
X37371500Y-25778500D02*
X37160000Y-25990000D01*
X37160000Y-25990000D02*
X37150000Y-25990000D01*
X46117537Y-21272463D02*
X45725000Y-21665000D01*
X49541000Y-21636000D02*
X49541000Y-21675000D01*
D18*
X63459000Y-21400000D02*
X63459000Y-23048500D01*
D20*
X46995000Y-27185000D02*
X46995000Y-25778500D01*
X46980000Y-27200000D02*
X46995000Y-27185000D01*
D19*
X49541000Y-21675000D02*
X49535000Y-21681000D01*
X41915000Y-21660000D02*
X41915000Y-23048500D01*
D20*
X46997048Y-25780548D02*
X46995000Y-25778500D01*
D18*
X87589000Y-27411000D02*
X87575000Y-27425000D01*
D19*
X46187001Y-21272463D02*
X46117537Y-21272463D01*
D18*
X71079000Y-23048500D02*
X71079000Y-21429000D01*
D17*
X43185000Y-27199000D02*
X43179000Y-27205000D01*
D19*
X49535000Y-21681000D02*
X49535000Y-23048500D01*
D21*
%TO.N,USB1_D_P*%
X39465050Y-31519000D02*
X39465549Y-31518501D01*
X38350284Y-31519000D02*
X39465050Y-31519000D01*
X40191000Y-31518500D02*
X45485080Y-31518500D01*
X49535000Y-26518500D02*
X49535000Y-25778500D01*
X38333000Y-31536284D02*
X38350284Y-31519000D01*
X40190999Y-31518501D02*
X40191000Y-31518500D01*
X49088500Y-27915080D02*
X49088500Y-26965000D01*
X49088500Y-26965000D02*
X49535000Y-26518500D01*
X45485080Y-31518500D02*
X49088500Y-27915080D01*
X39465549Y-31518501D02*
X40190999Y-31518501D01*
%TO.N,USB1_RX_N*%
X41573500Y-27436174D02*
X41468501Y-27331175D01*
X41468501Y-26224999D02*
X41915000Y-25778500D01*
X41468501Y-27331175D02*
X41468501Y-26224999D01*
%TO.N,USB1_D_N*%
X48710500Y-26964000D02*
X48710500Y-27758508D01*
X39308977Y-31140501D02*
X39308477Y-31141000D01*
X48265000Y-26518500D02*
X48710500Y-26964000D01*
X40949518Y-30754426D02*
X40949518Y-30900501D01*
X41549518Y-30900501D02*
X41549518Y-30754426D01*
X38999000Y-31141000D02*
X38895000Y-31037000D01*
X40589518Y-31140501D02*
X39493495Y-31140501D01*
X41309518Y-30514426D02*
X41189518Y-30514426D01*
X39308477Y-31141000D02*
X38999000Y-31141000D01*
X48710500Y-27758508D02*
X45328508Y-31140500D01*
X39493495Y-31140501D02*
X39308977Y-31140501D01*
X48265000Y-25778500D02*
X48265000Y-26518500D01*
X45328508Y-31140500D02*
X41789518Y-31140501D01*
X40709518Y-31140501D02*
X40589518Y-31140501D01*
X41789518Y-31140501D02*
G75*
G02*
X41549499Y-30900501I-18J240001D01*
G01*
X41549518Y-30754426D02*
G75*
G03*
X41309518Y-30514382I-240018J26D01*
G01*
X41189518Y-30514426D02*
G75*
G03*
X40949526Y-30754426I-18J-239974D01*
G01*
X40949518Y-30900501D02*
G75*
G02*
X40709518Y-31140518I-240018J1D01*
G01*
%TO.N,USB1_TX_N*%
X33490500Y-31388000D02*
X33490501Y-31388001D01*
X45278500Y-26965000D02*
X45278500Y-29150215D01*
X45725000Y-25778500D02*
X45725000Y-26518500D01*
X33490500Y-30540080D02*
X33490500Y-31388000D01*
X44544215Y-29884500D02*
X34146080Y-29884500D01*
X33490501Y-31585001D02*
X33595500Y-31690000D01*
X33490501Y-31388001D02*
X33490501Y-31585001D01*
X45725000Y-26518500D02*
X45278500Y-26965000D01*
X45278500Y-29150215D02*
X44544215Y-29884500D01*
X34146080Y-29884500D02*
X33490500Y-30540080D01*
%TO.N,USB1_TX_P*%
X44901500Y-28994055D02*
X44388055Y-29507500D01*
X33113499Y-31388001D02*
X33113499Y-31585001D01*
X33113499Y-31585001D02*
X33008500Y-31690000D01*
X44901500Y-26965000D02*
X44901500Y-28994055D01*
X33113500Y-30383920D02*
X33113500Y-31388000D01*
X33989920Y-29507500D02*
X33113500Y-30383920D01*
X44455000Y-26518500D02*
X44901500Y-26965000D01*
X33113500Y-31388000D02*
X33113499Y-31388001D01*
X44455000Y-25778500D02*
X44455000Y-26518500D01*
X44388055Y-29507500D02*
X33989920Y-29507500D01*
%TO.N,USB1_RX_P*%
X41091499Y-26224999D02*
X40645000Y-25778500D01*
X41091499Y-27331175D02*
X41091499Y-26224999D01*
X40986500Y-27436174D02*
X41091499Y-27331175D01*
%TO.N,USB0_TX_N*%
X44455000Y-23048500D02*
X44008501Y-22602001D01*
X44008501Y-21561499D02*
X44110000Y-21460000D01*
X44008501Y-22602001D02*
X44008501Y-21561499D01*
%TO.N,USB0_D_P*%
X48348080Y-20878500D02*
X51151920Y-20878500D01*
X48265000Y-22308500D02*
X47818500Y-21862000D01*
X51772932Y-27843931D02*
X51772932Y-27963931D01*
X52611499Y-28834191D02*
X52611499Y-31255001D01*
X52611499Y-28563931D02*
X52611499Y-28834191D01*
X51151920Y-20878500D02*
X52611499Y-22338079D01*
X52611499Y-22338079D02*
X52611499Y-27363931D01*
X52012932Y-28203931D02*
X52371499Y-28203931D01*
X47818500Y-21862000D02*
X47818500Y-21408080D01*
X52611499Y-31255001D02*
X52506500Y-31360000D01*
X52371499Y-27603931D02*
X52012932Y-27603931D01*
X52611499Y-28443931D02*
X52611499Y-28563931D01*
X48265000Y-23048500D02*
X48265000Y-22308500D01*
X47818500Y-21408080D02*
X48348080Y-20878500D01*
X52611499Y-27363931D02*
G75*
G02*
X52371499Y-27603899I-239999J31D01*
G01*
X52012932Y-27603931D02*
G75*
G03*
X51772931Y-27843931I-32J-239969D01*
G01*
X52371499Y-28203931D02*
G75*
G02*
X52611469Y-28443931I1J-239969D01*
G01*
X51772932Y-27963931D02*
G75*
G03*
X52012932Y-28203868I239968J31D01*
G01*
D17*
%TO.N,USB0 VBUS*%
X38105000Y-23048500D02*
X38105000Y-21018000D01*
X38105000Y-21018000D02*
X38125000Y-20998000D01*
D21*
%TO.N,USB0_TX_P*%
X43631499Y-22602001D02*
X43631499Y-21568499D01*
X43185000Y-23048500D02*
X43631499Y-22602001D01*
X43631499Y-21568499D02*
X43523000Y-21460000D01*
%TO.N,USB0_D_N*%
X46995000Y-23048500D02*
X46995000Y-22308500D01*
X47441500Y-21862000D02*
X47441500Y-21251920D01*
X52988501Y-22181921D02*
X52988501Y-31255001D01*
X48191920Y-20501500D02*
X51308080Y-20501500D01*
X47441500Y-21251920D02*
X48191920Y-20501500D01*
X52988501Y-31255001D02*
X53093500Y-31360000D01*
X51308080Y-20501500D02*
X52988501Y-22181921D01*
X46995000Y-22308500D02*
X47441500Y-21862000D01*
%TO.N,USB0_RX_N*%
X46948000Y-20260000D02*
X46780766Y-20260000D01*
X39821500Y-21441920D02*
X39821500Y-21862000D01*
X46770766Y-20250000D02*
X41013420Y-20250000D01*
X41013420Y-20250000D02*
X39821500Y-21441920D01*
X39821500Y-21862000D02*
X39375000Y-22308500D01*
X39375000Y-22308500D02*
X39375000Y-23048500D01*
X46780766Y-20260000D02*
X46770766Y-20250000D01*
%TO.N,USB0_RX_P*%
X40645000Y-22308500D02*
X40645000Y-23048500D01*
X40199500Y-21598492D02*
X40199500Y-21863000D01*
X46579700Y-20742000D02*
X46465700Y-20628000D01*
X41169992Y-20628000D02*
X40199500Y-21598492D01*
X40199500Y-21863000D02*
X40645000Y-22308500D01*
X46465700Y-20628000D02*
X41169992Y-20628000D01*
D22*
%TO.N,SBC_RS232-1-Rx*%
X81239000Y-27364000D02*
X81275000Y-27400000D01*
X81239000Y-25778500D02*
X81239000Y-27364000D01*
%TO.N,SBC_RS232-0-Tx*%
X76159000Y-23048500D02*
X76159000Y-21459000D01*
X76159000Y-21459000D02*
X76100000Y-21400000D01*
%TO.N,SBC_RS232-0-Rx*%
X77429000Y-23048500D02*
X77429000Y-21379000D01*
X77429000Y-21379000D02*
X77425000Y-21375000D01*
%TO.N,SBC_RS232-1-Tx*%
X79969000Y-25778500D02*
X79969000Y-27431000D01*
X79969000Y-27431000D02*
X79961765Y-27438235D01*
%TO.N,Net-(J4-Pad5)*%
X75210000Y-28440000D02*
X67100000Y-28440000D01*
X75600000Y-28050000D02*
X75210000Y-28440000D01*
X65999000Y-27339000D02*
X65999000Y-25778500D01*
X67100000Y-28440000D02*
X65999000Y-27339000D01*
%TO.N,Net-(J4-Pad3)*%
X70575000Y-29050000D02*
X66600000Y-29050000D01*
X66600000Y-29050000D02*
X64729000Y-27179000D01*
X64729000Y-27179000D02*
X64729000Y-25778500D01*
%TO.N,Net-(J4-Pad4)*%
X64725000Y-21250000D02*
X64729000Y-21254000D01*
X64729000Y-21254000D02*
X64729000Y-23048500D01*
%TO.N,Net-(J4-Pad6)*%
X65999000Y-21226000D02*
X65999000Y-23048500D01*
%TO.N,SBC_Debug-Rx*%
X86319000Y-25778500D02*
X86319000Y-27969000D01*
X96150000Y-29400000D02*
X96150000Y-28225000D01*
X88300000Y-29950000D02*
X95600000Y-29950000D01*
X95600000Y-29950000D02*
X96150000Y-29400000D01*
X86319000Y-27969000D02*
X88300000Y-29950000D01*
%TO.N,SBC_Debug-Tx*%
X93610000Y-25510000D02*
X93610000Y-28225000D01*
X89425000Y-21325000D02*
X93610000Y-25510000D01*
X87302500Y-21325000D02*
X89425000Y-21325000D01*
X86319000Y-22308500D02*
X87302500Y-21325000D01*
X86319000Y-23048500D02*
X86319000Y-22308500D01*
D18*
%TO.N,3.3v*%
X69809000Y-23048500D02*
X69809000Y-21416000D01*
X69809000Y-23048500D02*
X69807500Y-23050000D01*
X69809000Y-21416000D02*
X69825000Y-21400000D01*
D22*
X67340000Y-27580000D02*
X69790000Y-27580000D01*
D18*
X69809000Y-23048500D02*
X68539000Y-23048500D01*
D22*
X69790000Y-27580000D02*
X69800000Y-27590000D01*
D18*
%TO.N,5v*%
X69809000Y-25778500D02*
X68539000Y-25778500D01*
%TD*%
M02*
