M48
; DRILL file {KiCad 9.0.7} date 2026-06-23T11:25:16-0700
; FORMAT={-:-/ absolute / metric / decimal}
; #@! TF.CreationDate,2026-06-23T11:25:16-07:00
; #@! TF.GenerationSoftware,Kicad,Pcbnew,9.0.7
; #@! TF.FileFunction,Plated,1,4,PTH
FMAT,2
METRIC
; #@! TA.AperFunction,Plated,PTH,ViaDrill
T1C0.254
; #@! TA.AperFunction,Plated,PTH,ViaDrill
T2C0.300
; #@! TA.AperFunction,Plated,PTH,ComponentDrill
T3C0.500
; #@! TA.AperFunction,Plated,PTH,ComponentDrill
T4C1.000
; #@! TA.AperFunction,Plated,PTH,ComponentDrill
T5C2.700
%
G90
G05
T1
X31.32Y-37.29
X32.3Y-37.28
X32.508Y-31.26
X33.008Y-31.69
X33.28Y-37.28
X33.596Y-31.69
X34.045Y-31.197
X34.29Y-37.27
X35.33Y-37.29
X36.32Y-37.28
X37.33Y-37.28
X37.941Y-31.005
X38.32Y-37.28
X38.333Y-31.536
X38.512Y-30.499
X38.895Y-31.037
X39.33Y-37.28
X40.327Y-27.44
X40.986Y-27.436
X41.573Y-27.436
X41.8Y-37.28
X42.233Y-27.44
X42.863Y-21.453
X43.523Y-21.46
X44.11Y-21.46
X44.77Y-21.442
X45.84Y-37.28
X46.187Y-21.272
X46.58Y-20.742
X46.82Y-37.28
X46.948Y-20.26
X47.362Y-19.746
X47.82Y-37.28
X48.82Y-37.28
X49.82Y-37.28
X50.82Y-37.28
X51.82Y-37.28
X52.506Y-31.36
X52.82Y-37.28
X53.093Y-31.36
X53.83Y-37.28
X56.3Y-37.28
T2
X29.66Y-35.17
X37.16Y-25.99
X38.125Y-20.998
X41.915Y-21.66
X43.179Y-27.205
X43.44Y-28.45
X46.98Y-27.2
X49.541Y-21.636
X58.25Y-35.175
X63.459Y-21.4
X64.725Y-21.25
X65.75Y-29.925
X65.999Y-21.226
X66.7Y-33.475
X67.269Y-21.006
X67.34Y-27.58
X68.7Y-33.475
X69.8Y-27.59
X69.825Y-21.4
X70.575Y-29.05
X70.7Y-33.475
X71.05Y-21.4
X72.7Y-33.475
X75.6Y-28.05
X76.1Y-21.4
X77.425Y-21.375
X79.962Y-27.438
X81.275Y-27.4
X87.575Y-27.425
T3
X22.975Y-25.0
X23.568Y-23.568
X23.568Y-26.432
X25.0Y-22.975
X25.0Y-27.025
X26.432Y-23.568
X26.432Y-26.432
X27.025Y-25.0
X98.515Y-25.0
X99.108Y-23.568
X99.108Y-26.432
X100.54Y-22.975
X100.54Y-27.025
X101.972Y-23.568
X101.972Y-26.432
X102.565Y-25.0
T4
X91.07Y-28.225
X93.61Y-28.225
X96.15Y-28.225
T5
X25.0Y-25.0
X100.54Y-25.0
M30
