  0
SECTION
  2
HEADER
  9
$ANGBASE
  50
0.0
  9
$ANGDIR
  70
1
  9
$MEASUREMENT
  70
0
  0
ENDSEC
  0
SECTION
  2
TABLES
  0
TABLE
  2
LTYPE
  70
4
  0
LTYPE
  5
40F
  2
CONTINUOUS
  70
0
  3
Solid line
  72
65
  73
0
  40
0.0
  0
LTYPE
  5
410
  2
DASHDOT
 70
0
  3
Dash Dot ____ _ ____ _
 72
65
 73
4
 40
2.0
 49
1.25
 49
-0.25
 49
0.25
 49
-0.25
  0
LTYPE
  5
411
  2
DASHED
 70
0
  3
Dashed __ __ __ __ __
 72
65
 73
2
 40
0.75
 49
0.5
 49
-0.25
  0
LTYPE
  5
43B
  2
DOTTED
 70
0
  3
Dotted .  .  .  .
 72
65
 73
2
 40
0.2
 49
0.0
 49
-0.2
  0
ENDTAB
  0
TABLE
  2
STYLE
  70
4
  0
STYLE
  2
KICAD
  70
0
  40
0
  41
1
  42
1
  50
0
  71
0
  3
isocp.shx
  0
STYLE
  2
KICADB
  70
0
  40
0
  41
1
  42
1
  50
0
  71
0
  3
isocp.shx
  0
STYLE
  2
KICADI
  70
0
  40
0
  41
1
  42
1
  50
15
  71
0
  3
isocp.shx
  0
STYLE
  2
KICADBI
  70
0
  40
0
  41
1
  42
1
  50
15
  71
0
  3
isocp.shx
  0
ENDTAB
  0
TABLE
  2
LAYER
  70
1
  0
LAYER
  2
BLACK
  70
0
  62
7
  6
CONTINUOUS
  0
ENDTAB
  0
ENDSEC
  0
SECTION
  2
ENTITIES
0
LINE
8
BLACK
6
CONTINUOUS
10
3.9763779527559056
20
-0.7864173228346456
11
3.984922440944882
21
-0.7870284251968503
0
LINE
8
BLACK
6
CONTINUOUS
10
3.984922440944882
20
-0.7870284251968503
11
3.9932929921259843
21
-0.7888493307086614
0
LINE
8
BLACK
6
CONTINUOUS
10
3.9932929921259843
20
-0.7888493307086614
11
4.0013192125984247
21
-0.7918429527559055
0
LINE
8
BLACK
6
CONTINUOUS
10
4.0013192125984247
20
-0.7918429527559055
11
4.0088376771653547
21
-0.7959483464566929
0
LINE
8
BLACK
6
CONTINUOUS
10
4.0088376771653547
20
-0.7959483464566929
11
4.0156953937007875
21
-0.801081968503937
0
LINE
8
BLACK
6
CONTINUOUS
10
4.0156953937007875
20
-0.801081968503937
11
4.0217526771653542
21
-0.8071392519685039
0
LINE
8
BLACK
6
CONTINUOUS
10
4.0217526771653542
20
-0.8071392519685039
11
4.026886299212598
21
-0.813996968503937
0
LINE
8
BLACK
6
CONTINUOUS
10
4.026886299212598
20
-0.813996968503937
11
4.0309916929133855
21
-0.8215154330708662
0
LINE
8
BLACK
6
CONTINUOUS
10
4.0309916929133855
20
-0.8215154330708662
11
4.0339853149606295
21
-0.8295416535433071
0
LINE
8
BLACK
6
CONTINUOUS
10
4.0339853149606295
20
-0.8295416535433071
11
4.0358062204724412
21
-0.8379122047244094
0
LINE
8
BLACK
6
CONTINUOUS
10
4.0358062204724412
20
-0.8379122047244094
11
4.0364173228346454
21
-0.8464566929133858
0
LINE
8
BLACK
6
CONTINUOUS
10
4.0364173228346454
20
-0.8464566929133858
11
4.0364173228346454
21
-3.0511811023622046
0
LINE
8
BLACK
6
CONTINUOUS
10
4.0364173228346454
20
-3.0511811023622046
11
4.0358062204724412
21
-3.0597255905511811
0
LINE
8
BLACK
6
CONTINUOUS
10
4.0358062204724412
20
-3.0597255905511811
11
4.0339853149606295
21
-3.0680961417322834
0
LINE
8
BLACK
6
CONTINUOUS
10
4.0339853149606295
20
-3.0680961417322834
11
4.0309916929133855
21
-3.0761223622047242
0
LINE
8
BLACK
6
CONTINUOUS
10
4.0309916929133855
20
-3.0761223622047242
11
4.026886299212598
21
-3.0836408267716533
0
LINE
8
BLACK
6
CONTINUOUS
10
4.026886299212598
20
-3.0836408267716533
11
4.0217526771653542
21
-3.0904985433070866
0
LINE
8
BLACK
6
CONTINUOUS
10
4.0217526771653542
20
-3.0904985433070866
11
4.0156953937007875
21
-3.0965558267716533
0
LINE
8
BLACK
6
CONTINUOUS
10
4.0156953937007875
20
-3.0965558267716533
11
4.0088376771653547
21
-3.1016894488188975
0
LINE
8
BLACK
6
CONTINUOUS
10
4.0088376771653547
20
-3.1016894488188975
11
4.0013192125984247
21
-3.1057948425196851
0
LINE
8
BLACK
6
CONTINUOUS
10
4.0013192125984247
20
-3.1057948425196851
11
3.9932929921259843
21
-3.108788464566929
0
LINE
8
BLACK
6
CONTINUOUS
10
3.9932929921259843
20
-3.108788464566929
11
3.984922440944882
21
-3.1106093700787403
0
LINE
8
BLACK
6
CONTINUOUS
10
3.984922440944882
20
-3.1106093700787403
11
3.9763779527559056
21
-3.1112204724409449
0
LINE
8
BLACK
6
CONTINUOUS
10
3.9763779527559056
20
-3.1112204724409449
11
0.8464566929133858
21
-3.1112204724409449
0
LINE
8
BLACK
6
CONTINUOUS
10
0.8464566929133858
20
-3.1112204724409449
11
0.8379122047244094
21
-3.1106093700787403
0
LINE
8
BLACK
6
CONTINUOUS
10
0.8379122047244094
20
-3.1106093700787403
11
0.8295416535433071
21
-3.108788464566929
0
LINE
8
BLACK
6
CONTINUOUS
10
0.8295416535433071
20
-3.108788464566929
11
0.8215154330708662
21
-3.1057948425196851
0
LINE
8
BLACK
6
CONTINUOUS
10
0.8215154330708662
20
-3.1057948425196851
11
0.813996968503937
21
-3.1016894488188975
0
LINE
8
BLACK
6
CONTINUOUS
10
0.813996968503937
20
-3.1016894488188975
11
0.8071392519685039
21
-3.0965558267716533
0
LINE
8
BLACK
6
CONTINUOUS
10
0.8071392519685039
20
-3.0965558267716533
11
0.801081968503937
21
-3.0904985433070866
0
LINE
8
BLACK
6
CONTINUOUS
10
0.801081968503937
20
-3.0904985433070866
11
0.7959483464566929
21
-3.0836408267716533
0
LINE
8
BLACK
6
CONTINUOUS
10
0.7959483464566929
20
-3.0836408267716533
11
0.7918429527559055
21
-3.0761223622047242
0
LINE
8
BLACK
6
CONTINUOUS
10
0.7918429527559055
20
-3.0761223622047242
11
0.7888493307086614
21
-3.0680961417322834
0
LINE
8
BLACK
6
CONTINUOUS
10
0.7888493307086614
20
-3.0680961417322834
11
0.7870284251968503
21
-3.0597255905511811
0
LINE
8
BLACK
6
CONTINUOUS
10
0.7870284251968503
20
-3.0597255905511811
11
0.7864173228346456
21
-3.0511811023622046
0
LINE
8
BLACK
6
CONTINUOUS
10
0.7864173228346456
20
-3.0511811023622046
11
0.7864173228346456
21
-0.8464566929133858
0
LINE
8
BLACK
6
CONTINUOUS
10
0.7864173228346456
20
-0.8464566929133858
11
0.7870284251968503
21
-0.8379122047244094
0
LINE
8
BLACK
6
CONTINUOUS
10
0.7870284251968503
20
-0.8379122047244094
11
0.7888493307086614
21
-0.8295416535433071
0
LINE
8
BLACK
6
CONTINUOUS
10
0.7888493307086614
20
-0.8295416535433071
11
0.7918429527559055
21
-0.8215154330708662
0
LINE
8
BLACK
6
CONTINUOUS
10
0.7918429527559055
20
-0.8215154330708662
11
0.7959483464566929
21
-0.813996968503937
0
LINE
8
BLACK
6
CONTINUOUS
10
0.7959483464566929
20
-0.813996968503937
11
0.801081968503937
21
-0.8071392519685039
0
LINE
8
BLACK
6
CONTINUOUS
10
0.801081968503937
20
-0.8071392519685039
11
0.8071392519685039
21
-0.801081968503937
0
LINE
8
BLACK
6
CONTINUOUS
10
0.8071392519685039
20
-0.801081968503937
11
0.813996968503937
21
-0.7959483464566929
0
LINE
8
BLACK
6
CONTINUOUS
10
0.813996968503937
20
-0.7959483464566929
11
0.8215154330708662
21
-0.7918429527559055
0
LINE
8
BLACK
6
CONTINUOUS
10
0.8215154330708662
20
-0.7918429527559055
11
0.8295416535433071
21
-0.7888493307086614
0
LINE
8
BLACK
6
CONTINUOUS
10
0.8295416535433071
20
-0.7888493307086614
11
0.8379122047244094
21
-0.7870284251968503
0
LINE
8
BLACK
6
CONTINUOUS
10
0.8379122047244094
20
-0.7870284251968503
11
0.8464566929133858
21
-0.7864173228346456
0
LINE
8
BLACK
6
CONTINUOUS
10
0.8464566929133858
20
-0.7864173228346456
11
3.9763779527559056
21
-0.7864173228346456
0
LINE
8
BLACK
6
CONTINUOUS
10
0.8464566929133858
20
-0.7883858267716535
11
0.8423033858267717
21
-0.7883858267716535
0
LINE
8
BLACK
6
CONTINUOUS
10
0.8423033858267717
20
-0.7883858267716535
11
0.8340812992125984
21
-0.7895679527559055
0
LINE
8
BLACK
6
CONTINUOUS
10
0.8340812992125984
20
-0.7895679527559055
11
0.8261111811023621
21
-0.7919082283464567
0
LINE
8
BLACK
6
CONTINUOUS
10
0.8261111811023621
20
-0.7919082283464567
11
0.8185551968503937
21
-0.7953588976377952
0
LINE
8
BLACK
6
CONTINUOUS
10
0.8185551968503937
20
-0.7953588976377952
11
0.8115672047244095
21
-0.7998498031496063
0
LINE
8
BLACK
6
CONTINUOUS
10
0.8115672047244095
20
-0.7998498031496063
11
0.8052894881889764
21
-0.8052894881889764
0
LINE
8
BLACK
6
CONTINUOUS
10
0.8052894881889764
20
-0.8052894881889764
11
0.7998498031496063
21
-0.8115672047244095
0
LINE
8
BLACK
6
CONTINUOUS
10
0.7998498031496063
20
-0.8115672047244095
11
0.7953588976377952
21
-0.8185551968503937
0
LINE
8
BLACK
6
CONTINUOUS
10
0.7953588976377952
20
-0.8185551968503937
11
0.7919082283464567
21
-0.8261111811023621
0
LINE
8
BLACK
6
CONTINUOUS
10
0.7919082283464567
20
-0.8261111811023621
11
0.7895679527559055
21
-0.8340812992125984
0
LINE
8
BLACK
6
CONTINUOUS
10
0.7895679527559055
20
-0.8340812992125984
11
0.7883858267716535
21
-0.8423033858267717
0
LINE
8
BLACK
6
CONTINUOUS
10
0.7883858267716535
20
-0.8423033858267717
11
0.7883858267716535
21
-0.8464566929133858
0
LINE
8
BLACK
6
CONTINUOUS
10
0.7883858267716535
20
-0.8464566929133858
11
0.7883858267716535
21
-3.0511811023622046
0
LINE
8
BLACK
6
CONTINUOUS
10
0.7883858267716535
20
-3.0511811023622046
11
0.7883858267716535
21
-3.0553344094488186
0
LINE
8
BLACK
6
CONTINUOUS
10
0.7883858267716535
20
-3.0553344094488186
11
0.7895679527559055
21
-3.0635564960629922
0
LINE
8
BLACK
6
CONTINUOUS
10
0.7895679527559055
20
-3.0635564960629922
11
0.7919082283464567
21
-3.0715266141732283
0
LINE
8
BLACK
6
CONTINUOUS
10
0.7919082283464567
20
-3.0715266141732283
11
0.7953588976377952
21
-3.0790825984251966
0
LINE
8
BLACK
6
CONTINUOUS
10
0.7953588976377952
20
-3.0790825984251966
11
0.7998498031496063
21
-3.0860705905511812
0
LINE
8
BLACK
6
CONTINUOUS
10
0.7998498031496063
20
-3.0860705905511812
11
0.8052894881889764
21
-3.0923483070866142
0
LINE
8
BLACK
6
CONTINUOUS
10
0.8052894881889764
20
-3.0923483070866142
11
0.8115672047244095
21
-3.0977879921259843
0
LINE
8
BLACK
6
CONTINUOUS
10
0.8115672047244095
20
-3.0977879921259843
11
0.8185551968503937
21
-3.1022788976377953
0
LINE
8
BLACK
6
CONTINUOUS
10
0.8185551968503937
20
-3.1022788976377953
11
0.8261111811023621
21
-3.1057295669291336
0
LINE
8
BLACK
6
CONTINUOUS
10
0.8261111811023621
20
-3.1057295669291336
11
0.8340812992125984
21
-3.1080698425196851
0
LINE
8
BLACK
6
CONTINUOUS
10
0.8340812992125984
20
-3.1080698425196851
11
0.8423033858267717
21
-3.109251968503937
0
LINE
8
BLACK
6
CONTINUOUS
10
0.8423033858267717
20
-3.109251968503937
11
0.8464566929133858
21
-3.109251968503937
0
LINE
8
BLACK
6
CONTINUOUS
10
0.8464566929133858
20
-3.109251968503937
11
3.9763779527559056
21
-3.109251968503937
0
LINE
8
BLACK
6
CONTINUOUS
10
3.9763779527559056
20
-3.109251968503937
11
3.9805312598425195
21
-3.109251968503937
0
LINE
8
BLACK
6
CONTINUOUS
10
3.9805312598425195
20
-3.109251968503937
11
3.9887533464566927
21
-3.1080698425196851
0
LINE
8
BLACK
6
CONTINUOUS
10
3.9887533464566927
20
-3.1080698425196851
11
3.9967234645669292
21
-3.1057295669291336
0
LINE
8
BLACK
6
CONTINUOUS
10
3.9967234645669292
20
-3.1057295669291336
11
4.004279448818898
21
-3.1022788976377953
0
LINE
8
BLACK
6
CONTINUOUS
10
4.004279448818898
20
-3.1022788976377953
11
4.0112674409448816
21
-3.0977879921259843
0
LINE
8
BLACK
6
CONTINUOUS
10
4.0112674409448816
20
-3.0977879921259843
11
4.0175451574803152
21
-3.0923483070866142
0
LINE
8
BLACK
6
CONTINUOUS
10
4.0175451574803152
20
-3.0923483070866142
11
4.0229848425196852
21
-3.0860705905511812
0
LINE
8
BLACK
6
CONTINUOUS
10
4.0229848425196852
20
-3.0860705905511812
11
4.0274757480314962
21
-3.0790825984251966
0
LINE
8
BLACK
6
CONTINUOUS
10
4.0274757480314962
20
-3.0790825984251966
11
4.030926417322835
21
-3.0715266141732283
0
LINE
8
BLACK
6
CONTINUOUS
10
4.030926417322835
20
-3.0715266141732283
11
4.0332666929133856
21
-3.0635564960629922
0
LINE
8
BLACK
6
CONTINUOUS
10
4.0332666929133856
20
-3.0635564960629922
11
4.034448818897638
21
-3.0553344094488186
0
LINE
8
BLACK
6
CONTINUOUS
10
4.034448818897638
20
-3.0553344094488186
11
4.034448818897638
21
-3.0511811023622046
0
LINE
8
BLACK
6
CONTINUOUS
10
4.034448818897638
20
-3.0511811023622046
11
4.034448818897638
21
-0.8464566929133858
0
LINE
8
BLACK
6
CONTINUOUS
10
4.034448818897638
20
-0.8464566929133858
11
4.034448818897638
21
-0.8423033858267717
0
LINE
8
BLACK
6
CONTINUOUS
10
4.034448818897638
20
-0.8423033858267717
11
4.0332666929133856
21
-0.8340812992125984
0
LINE
8
BLACK
6
CONTINUOUS
10
4.0332666929133856
20
-0.8340812992125984
11
4.030926417322835
21
-0.8261111811023621
0
LINE
8
BLACK
6
CONTINUOUS
10
4.030926417322835
20
-0.8261111811023621
11
4.0274757480314962
21
-0.8185551968503937
0
LINE
8
BLACK
6
CONTINUOUS
10
4.0274757480314962
20
-0.8185551968503937
11
4.0229848425196852
21
-0.8115672047244095
0
LINE
8
BLACK
6
CONTINUOUS
10
4.0229848425196852
20
-0.8115672047244095
11
4.0175451574803152
21
-0.8052894881889764
0
LINE
8
BLACK
6
CONTINUOUS
10
4.0175451574803152
20
-0.8052894881889764
11
4.0112674409448816
21
-0.7998498031496063
0
LINE
8
BLACK
6
CONTINUOUS
10
4.0112674409448816
20
-0.7998498031496063
11
4.004279448818898
21
-0.7953588976377952
0
LINE
8
BLACK
6
CONTINUOUS
10
4.004279448818898
20
-0.7953588976377952
11
3.9967234645669292
21
-0.7919082283464567
0
LINE
8
BLACK
6
CONTINUOUS
10
3.9967234645669292
20
-0.7919082283464567
11
3.9887533464566927
21
-0.7895679527559055
0
LINE
8
BLACK
6
CONTINUOUS
10
3.9887533464566927
20
-0.7895679527559055
11
3.9805312598425195
21
-0.7883858267716535
0
LINE
8
BLACK
6
CONTINUOUS
10
3.9805312598425195
20
-0.7883858267716535
11
3.9763779527559056
21
-0.7883858267716535
0
LINE
8
BLACK
6
CONTINUOUS
10
3.9763779527559056
20
-0.7883858267716535
11
0.8464566929133858
21
-0.7883858267716535
  0
ENDSEC
  0
EOF
