%TF.GenerationSoftware,KiCad,Pcbnew,9.0.4*%
%TF.CreationDate,2025-11-20T14:20:26-08:00*%
%TF.ProjectId,camera_controller,63616d65-7261-45f6-936f-6e74726f6c6c,1.0*%
%TF.SameCoordinates,Original*%
%TF.FileFunction,Copper,L2,Inr*%
%TF.FilePolarity,Positive*%
%FSLAX46Y46*%
G04 Gerber Fmt 4.6, Leading zero omitted, Abs format (unit mm)*
G04 Created by KiCad (PCBNEW 9.0.4) date 2025-11-20 14:20:26*
%MOMM*%
%LPD*%
G01*
G04 APERTURE LIST*
G04 Aperture macros list*
%AMRoundRect*
0 Rectangle with rounded corners*
0 $1 Rounding radius*
0 $2 $3 $4 $5 $6 $7 $8 $9 X,Y pos of 4 corners*
0 Add a 4 corners polygon primitive as box body*
4,1,4,$2,$3,$4,$5,$6,$7,$8,$9,$2,$3,0*
0 Add four circle primitives for the rounded corners*
1,1,$1+$1,$2,$3*
1,1,$1+$1,$4,$5*
1,1,$1+$1,$6,$7*
1,1,$1+$1,$8,$9*
0 Add four rect primitives between the rounded corners*
20,1,$1+$1,$2,$3,$4,$5,0*
20,1,$1+$1,$4,$5,$6,$7,0*
20,1,$1+$1,$6,$7,$8,$9,0*
20,1,$1+$1,$8,$9,$2,$3,0*%
G04 Aperture macros list end*
%TA.AperFunction,ComponentPad*%
%ADD10R,1.500000X2.300000*%
%TD*%
%TA.AperFunction,ComponentPad*%
%ADD11O,1.500000X2.300000*%
%TD*%
%TA.AperFunction,ComponentPad*%
%ADD12R,1.700000X1.700000*%
%TD*%
%TA.AperFunction,ComponentPad*%
%ADD13O,1.700000X1.700000*%
%TD*%
%TA.AperFunction,ComponentPad*%
%ADD14C,0.800000*%
%TD*%
%TA.AperFunction,ComponentPad*%
%ADD15C,5.400000*%
%TD*%
%TA.AperFunction,ComponentPad*%
%ADD16RoundRect,0.500000X1.750000X-1.250000X1.750000X1.250000X-1.750000X1.250000X-1.750000X-1.250000X0*%
%TD*%
%TA.AperFunction,ComponentPad*%
%ADD17C,1.700000*%
%TD*%
%TA.AperFunction,ComponentPad*%
%ADD18RoundRect,0.500000X-1.250000X-1.750000X1.250000X-1.750000X1.250000X1.750000X-1.250000X1.750000X0*%
%TD*%
%TA.AperFunction,ViaPad*%
%ADD19C,2.000000*%
%TD*%
%TA.AperFunction,ViaPad*%
%ADD20C,0.510000*%
%TD*%
%TA.AperFunction,ViaPad*%
%ADD21C,0.600000*%
%TD*%
G04 APERTURE END LIST*
D10*
%TO.N,VSS*%
%TO.C,U1*%
X45053000Y-44107500D03*
D11*
%TO.N,GND*%
X47593000Y-44107500D03*
%TO.N,+5V_MCU*%
X50133000Y-44107500D03*
%TD*%
D12*
%TO.N,+5V_MCU*%
%TO.C,J16*%
X25000000Y-31800000D03*
D13*
%TO.N,GND*%
X22460000Y-31800000D03*
%TD*%
D14*
%TO.N,N/C*%
%TO.C,*%
X96915000Y-23735000D03*
X97508109Y-22303109D03*
X97508109Y-25166891D03*
X98940000Y-21710000D03*
D15*
X98940000Y-23735000D03*
D14*
X98940000Y-25760000D03*
X100371891Y-22303109D03*
X100371891Y-25166891D03*
X100965000Y-23735000D03*
%TD*%
%TO.N,N/C*%
%TO.C,*%
X21375000Y-75415000D03*
X21968109Y-73983109D03*
X21968109Y-76846891D03*
X23400000Y-73390000D03*
D15*
X23400000Y-75415000D03*
D14*
X23400000Y-77440000D03*
X24831891Y-73983109D03*
X24831891Y-76846891D03*
X25425000Y-75415000D03*
%TD*%
%TO.N,N/C*%
%TO.C,*%
X96915000Y-75415000D03*
X97508109Y-73983109D03*
X97508109Y-76846891D03*
X98940000Y-73390000D03*
D15*
X98940000Y-75415000D03*
D14*
X98940000Y-77440000D03*
X100371891Y-73983109D03*
X100371891Y-76846891D03*
X100965000Y-75415000D03*
%TD*%
D16*
%TO.N,Vin SW*%
%TO.C,J12*%
X23062500Y-54000000D03*
%TO.N,GND*%
X23062500Y-49000000D03*
%TD*%
D12*
%TO.N,uCTx*%
%TO.C,U3*%
X71725000Y-73125000D03*
D13*
%TO.N,uCRx*%
X71725000Y-70585000D03*
%TO.N,unconnected-(U3-Pin_3-Pad3)*%
X71725000Y-68045000D03*
%TO.N,GND*%
X71725000Y-65505000D03*
%TO.N,ext_uCRx*%
X71725000Y-62965000D03*
%TO.N,ext_uCTx*%
X71725000Y-60425000D03*
%TO.N,CAM2 GPIO 1*%
X71725000Y-57885000D03*
%TO.N,CAM 2 GPIO 2*%
X71725000Y-55345000D03*
%TO.N,CAM1 GPIO 1*%
X71725000Y-52805000D03*
%TO.N,CAM 1 GPIO 2*%
X71725000Y-50265000D03*
%TO.N,Ext Trig In*%
X71725000Y-47725000D03*
%TO.N,Net-(U3-Pin_12)*%
X71725000Y-45185000D03*
%TO.N,Strobe Trig*%
X56485000Y-45055000D03*
%TO.N,Net-(U3-Pin_14)*%
X56485000Y-47595000D03*
%TO.N,Force On*%
X56485000Y-50135000D03*
%TO.N,P Switch*%
X56485000Y-52675000D03*
%TO.N,Status LED*%
X56485000Y-55215000D03*
%TO.N,5V EN*%
X56485000Y-57755000D03*
%TO.N,VSS SW EN*%
X56485000Y-60295000D03*
%TO.N,Strobe EN*%
X56485000Y-62835000D03*
%TO.N,+3.3V*%
X56485000Y-65375000D03*
%TO.N,GND*%
X56485000Y-67915000D03*
X56485000Y-70585000D03*
D17*
%TO.N,+5V_MCU*%
X56485000Y-72995000D03*
D13*
%TO.N,SDA*%
X59025000Y-61565000D03*
D17*
%TO.N,SCL*%
X59025000Y-64105000D03*
%TD*%
D14*
%TO.N,N/C*%
%TO.C,*%
X21375000Y-23735000D03*
X21968109Y-22303109D03*
X21968109Y-25166891D03*
X23400000Y-21710000D03*
D15*
X23400000Y-23735000D03*
D14*
X23400000Y-25760000D03*
X24831891Y-22303109D03*
X24831891Y-25166891D03*
X25425000Y-23735000D03*
%TD*%
D18*
%TO.N,VIN*%
%TO.C,J1*%
X30500000Y-74400000D03*
%TO.N,GND*%
X35500000Y-74400000D03*
%TD*%
D12*
%TO.N,MCU GPIO 2*%
%TO.C,J17*%
X76050000Y-54000000D03*
D13*
%TO.N,GND*%
X76050000Y-51460000D03*
%TD*%
D19*
%TO.N,GND*%
X30700000Y-52300000D03*
D20*
X34075000Y-65677500D03*
X95328600Y-33400000D03*
X62700000Y-26250000D03*
X93300000Y-62700000D03*
X92024999Y-70000000D03*
X64700000Y-26275000D03*
X79750000Y-30400000D03*
D19*
X42800000Y-26100000D03*
X22500000Y-36200000D03*
X41800000Y-75300000D03*
D20*
X44275000Y-53975000D03*
X37225000Y-47700000D03*
X83950000Y-32450000D03*
D19*
X47900000Y-26075000D03*
D20*
X95303600Y-69350002D03*
X61200000Y-36100000D03*
X67550000Y-40300000D03*
X78850000Y-37050000D03*
D19*
X35200000Y-26100000D03*
D20*
X45700000Y-61400000D03*
X79250000Y-61425000D03*
X61900000Y-30200000D03*
X35212500Y-41508731D03*
X44274997Y-53100000D03*
X85725000Y-72975000D03*
D21*
X48850000Y-50100000D03*
D20*
X84950000Y-38325000D03*
X73550000Y-39800000D03*
X75900000Y-26900000D03*
%TO.N,+3.3V*%
X73550000Y-37950000D03*
X58200000Y-31000000D03*
X60475000Y-54125000D03*
X66500000Y-39300000D03*
X74900000Y-59050000D03*
X60425000Y-57587500D03*
X51375000Y-54450000D03*
X63700000Y-27100000D03*
X59050000Y-69350000D03*
X85425000Y-33800000D03*
%TO.N,AIN 2*%
X76900000Y-26950000D03*
%TO.N,Net-(U5-AIN0)*%
X82191268Y-35583732D03*
%TO.N,VIN*%
X25925000Y-66700000D03*
X25925000Y-67500000D03*
X26625000Y-67500000D03*
X27325000Y-68300000D03*
X26625000Y-68300000D03*
X26625000Y-66700000D03*
X27325000Y-67500000D03*
X25925000Y-68300000D03*
X26625000Y-69100000D03*
X27325000Y-66700000D03*
X27325000Y-69100000D03*
X25925000Y-69100000D03*
%TO.N,Net-(D1-A)*%
X23655000Y-67420000D03*
%TO.N,Vin SW*%
X23425000Y-61700000D03*
X24425000Y-63600000D03*
X25425000Y-62600000D03*
X26425000Y-62600000D03*
X22325000Y-59900000D03*
X26425000Y-61700000D03*
X24425000Y-61700000D03*
X25425000Y-63600000D03*
X24425000Y-62600000D03*
X22325000Y-63600000D03*
X26425000Y-59000000D03*
X23425000Y-60800000D03*
X26425000Y-60800000D03*
X22325000Y-62600000D03*
X26425000Y-63600000D03*
X25425000Y-61700000D03*
X25425000Y-59000000D03*
X22325000Y-59000000D03*
X23425000Y-63600000D03*
X25425000Y-60800000D03*
X24425000Y-60800000D03*
X23425000Y-62600000D03*
X22325000Y-61700000D03*
X23425000Y-59000000D03*
X26425000Y-59900000D03*
X25425000Y-59900000D03*
X23425000Y-59900000D03*
X22325000Y-60800000D03*
X24425000Y-59900000D03*
X24425000Y-59000000D03*
%TO.N,Net-(D2-A)*%
X38725000Y-42300000D03*
%TO.N,SCL*%
X70650000Y-37300000D03*
X54025000Y-60657538D03*
X45600000Y-52200000D03*
%TO.N,SDA*%
X45950000Y-57650000D03*
X70650000Y-38300000D03*
X54800000Y-61575000D03*
%TO.N,Net-(U4-A1)*%
X49400000Y-58800000D03*
X43350000Y-58250000D03*
%TO.N,5V SW*%
X50400000Y-34400000D03*
%TO.N,Strobe Trig Out*%
X68850000Y-34550000D03*
%TO.N,Strobe EN OUT*%
X64700000Y-32750000D03*
%TO.N,P Switch*%
X60775000Y-26555000D03*
%TO.N,Status LED*%
X61725000Y-26000000D03*
%TO.N,Force On*%
X59700000Y-27250000D03*
%TO.N,CAM1 GPIO 1*%
X89825000Y-32400000D03*
%TO.N,CAM 1 GPIO 2*%
X89850000Y-30350000D03*
D21*
%TO.N,Net-(U6-G2)*%
X37281231Y-46356231D03*
D20*
%TO.N,+5V_MCU*%
X55800000Y-34575000D03*
X45325000Y-34400000D03*
%TO.N,PCTx1*%
X79046801Y-69138118D03*
%TO.N,PCRx1*%
X79700000Y-69600000D03*
%TO.N,ExtRx2*%
X85025000Y-67775000D03*
%TO.N,ExtTx2*%
X91025000Y-70250000D03*
%TO.N,ext_uCTx*%
X75625000Y-67775000D03*
%TO.N,ext_uCRx*%
X74725000Y-69025000D03*
%TO.N,MCU GPIO 2*%
X60400000Y-46400000D03*
%TD*%
%TA.AperFunction,Conductor*%
%TO.N,GND*%
G36*
X97830607Y-20520185D02*
G01*
X97876362Y-20572989D01*
X97886306Y-20642147D01*
X97857281Y-20705703D01*
X97804523Y-20741541D01*
X97713288Y-20773465D01*
X97389420Y-20929432D01*
X97085045Y-21120684D01*
X96803997Y-21344811D01*
X96549811Y-21598997D01*
X96325684Y-21880045D01*
X96134432Y-22184420D01*
X95978465Y-22508288D01*
X95859741Y-22847580D01*
X95859737Y-22847592D01*
X95779748Y-23198048D01*
X95779746Y-23198064D01*
X95739500Y-23555259D01*
X95739500Y-23914740D01*
X95779746Y-24271935D01*
X95779748Y-24271951D01*
X95859737Y-24622407D01*
X95859741Y-24622419D01*
X95978465Y-24961711D01*
X96134432Y-25285579D01*
X96134434Y-25285582D01*
X96325685Y-25589956D01*
X96549812Y-25871003D01*
X96803997Y-26125188D01*
X97085044Y-26349315D01*
X97389418Y-26540566D01*
X97389420Y-26540567D01*
X97439310Y-26564593D01*
X97713292Y-26696536D01*
X97921020Y-26769223D01*
X98052580Y-26815258D01*
X98052592Y-26815262D01*
X98403052Y-26895252D01*
X98760260Y-26935499D01*
X98760261Y-26935500D01*
X98760264Y-26935500D01*
X99119739Y-26935500D01*
X99119739Y-26935499D01*
X99476948Y-26895252D01*
X99827408Y-26815262D01*
X100166708Y-26696536D01*
X100490582Y-26540566D01*
X100794956Y-26349315D01*
X101076003Y-26125188D01*
X101330188Y-25871003D01*
X101554315Y-25589956D01*
X101745566Y-25285582D01*
X101763780Y-25247759D01*
X101810602Y-25195901D01*
X101878029Y-25177588D01*
X101944653Y-25198635D01*
X101989321Y-25252361D01*
X101999500Y-25301562D01*
X101999500Y-73848437D01*
X101979815Y-73915476D01*
X101927011Y-73961231D01*
X101857853Y-73971175D01*
X101794297Y-73942150D01*
X101763780Y-73902239D01*
X101745567Y-73864420D01*
X101735524Y-73848437D01*
X101554315Y-73560044D01*
X101330188Y-73278997D01*
X101076003Y-73024812D01*
X100794956Y-72800685D01*
X100490582Y-72609434D01*
X100490579Y-72609432D01*
X100166711Y-72453465D01*
X99827419Y-72334741D01*
X99827407Y-72334737D01*
X99476951Y-72254748D01*
X99476935Y-72254746D01*
X99119740Y-72214500D01*
X99119736Y-72214500D01*
X98760264Y-72214500D01*
X98760259Y-72214500D01*
X98403064Y-72254746D01*
X98403048Y-72254748D01*
X98052592Y-72334737D01*
X98052580Y-72334741D01*
X97713288Y-72453465D01*
X97389420Y-72609432D01*
X97085045Y-72800684D01*
X96803997Y-73024811D01*
X96549811Y-73278997D01*
X96325684Y-73560045D01*
X96134432Y-73864420D01*
X95978465Y-74188288D01*
X95859741Y-74527580D01*
X95859737Y-74527592D01*
X95779748Y-74878048D01*
X95779746Y-74878064D01*
X95739500Y-75235259D01*
X95739500Y-75594740D01*
X95779746Y-75951935D01*
X95779748Y-75951951D01*
X95859737Y-76302407D01*
X95859741Y-76302419D01*
X95978465Y-76641711D01*
X96134432Y-76965579D01*
X96134434Y-76965582D01*
X96325685Y-77269956D01*
X96456592Y-77434108D01*
X96509138Y-77500000D01*
X96549812Y-77551003D01*
X96803997Y-77805188D01*
X97085044Y-78029315D01*
X97265123Y-78142466D01*
X97389420Y-78220567D01*
X97479152Y-78263780D01*
X97531011Y-78310602D01*
X97549324Y-78378030D01*
X97528276Y-78444654D01*
X97474550Y-78489322D01*
X97425350Y-78499500D01*
X24914650Y-78499500D01*
X24847611Y-78479815D01*
X24801856Y-78427011D01*
X24791912Y-78357853D01*
X24820937Y-78294297D01*
X24860848Y-78263780D01*
X24892645Y-78248466D01*
X24950582Y-78220566D01*
X25254956Y-78029315D01*
X25536003Y-77805188D01*
X25790188Y-77551003D01*
X26014315Y-77269956D01*
X26205566Y-76965582D01*
X26361536Y-76641708D01*
X26480262Y-76302408D01*
X26560252Y-75951948D01*
X26600500Y-75594736D01*
X26600500Y-75235264D01*
X26560252Y-74878052D01*
X26480262Y-74527592D01*
X26361536Y-74188292D01*
X26205566Y-73864418D01*
X26014315Y-73560044D01*
X25790188Y-73278997D01*
X25536003Y-73024812D01*
X25254956Y-72800685D01*
X24950582Y-72609434D01*
X24950579Y-72609432D01*
X24914311Y-72591966D01*
X28249500Y-72591966D01*
X28249500Y-76208028D01*
X28249501Y-76208034D01*
X28260113Y-76327415D01*
X28316089Y-76523045D01*
X28316090Y-76523048D01*
X28316091Y-76523049D01*
X28410302Y-76703407D01*
X28410304Y-76703409D01*
X28538890Y-76861109D01*
X28620633Y-76927761D01*
X28696593Y-76989698D01*
X28876951Y-77083909D01*
X29072582Y-77139886D01*
X29191963Y-77150500D01*
X31808036Y-77150499D01*
X31927418Y-77139886D01*
X32123049Y-77083909D01*
X32303407Y-76989698D01*
X32461109Y-76861109D01*
X32589698Y-76703407D01*
X32683909Y-76523049D01*
X32739886Y-76327418D01*
X32750500Y-76208037D01*
X32750499Y-72888713D01*
X55134500Y-72888713D01*
X55134500Y-73101286D01*
X55167753Y-73311239D01*
X55233444Y-73513414D01*
X55329951Y-73702820D01*
X55454890Y-73874786D01*
X55605213Y-74025109D01*
X55777179Y-74150048D01*
X55777181Y-74150049D01*
X55777184Y-74150051D01*
X55966588Y-74246557D01*
X56168757Y-74312246D01*
X56378713Y-74345500D01*
X56378714Y-74345500D01*
X56591286Y-74345500D01*
X56591287Y-74345500D01*
X56801243Y-74312246D01*
X57003412Y-74246557D01*
X57192816Y-74150051D01*
X57285816Y-74082483D01*
X57364786Y-74025109D01*
X57364788Y-74025106D01*
X57364792Y-74025104D01*
X57515104Y-73874792D01*
X57515106Y-73874788D01*
X57515109Y-73874786D01*
X57640048Y-73702820D01*
X57640047Y-73702820D01*
X57640051Y-73702816D01*
X57736557Y-73513412D01*
X57802246Y-73311243D01*
X57835500Y-73101287D01*
X57835500Y-72888713D01*
X57802246Y-72678757D01*
X57736557Y-72476588D01*
X57640051Y-72287184D01*
X57640049Y-72287181D01*
X57640048Y-72287179D01*
X57515109Y-72115213D01*
X57364786Y-71964890D01*
X57192820Y-71839951D01*
X57003414Y-71743444D01*
X57003413Y-71743443D01*
X57003412Y-71743443D01*
X56801243Y-71677754D01*
X56801241Y-71677753D01*
X56801240Y-71677753D01*
X56639957Y-71652208D01*
X56591287Y-71644500D01*
X56378713Y-71644500D01*
X56330042Y-71652208D01*
X56168760Y-71677753D01*
X56168757Y-71677754D01*
X55977028Y-71740051D01*
X55966585Y-71743444D01*
X55777179Y-71839951D01*
X55605213Y-71964890D01*
X55454890Y-72115213D01*
X55329951Y-72287179D01*
X55233444Y-72476585D01*
X55167753Y-72678760D01*
X55134500Y-72888713D01*
X32750499Y-72888713D01*
X32750499Y-72591964D01*
X32739886Y-72472582D01*
X32683909Y-72276951D01*
X32589698Y-72096593D01*
X32537571Y-72032664D01*
X32461109Y-71938890D01*
X32303409Y-71810304D01*
X32303410Y-71810304D01*
X32303407Y-71810302D01*
X32123049Y-71716091D01*
X32123048Y-71716090D01*
X32123045Y-71716089D01*
X31989067Y-71677754D01*
X31927418Y-71660114D01*
X31927415Y-71660113D01*
X31927413Y-71660113D01*
X31861102Y-71654217D01*
X31808037Y-71649500D01*
X31808032Y-71649500D01*
X29191971Y-71649500D01*
X29191965Y-71649500D01*
X29191964Y-71649501D01*
X29180316Y-71650536D01*
X29072584Y-71660113D01*
X28876954Y-71716089D01*
X28824588Y-71743443D01*
X28696593Y-71810302D01*
X28696591Y-71810303D01*
X28696590Y-71810304D01*
X28538890Y-71938890D01*
X28410304Y-72096590D01*
X28410302Y-72096593D01*
X28363196Y-72186772D01*
X28316089Y-72276954D01*
X28260114Y-72472583D01*
X28260113Y-72472586D01*
X28249500Y-72591966D01*
X24914311Y-72591966D01*
X24626711Y-72453465D01*
X24287419Y-72334741D01*
X24287407Y-72334737D01*
X23936951Y-72254748D01*
X23936935Y-72254746D01*
X23579740Y-72214500D01*
X23579736Y-72214500D01*
X23220264Y-72214500D01*
X23220259Y-72214500D01*
X22863064Y-72254746D01*
X22863048Y-72254748D01*
X22512592Y-72334737D01*
X22512580Y-72334741D01*
X22173288Y-72453465D01*
X21849420Y-72609432D01*
X21545045Y-72800684D01*
X21263997Y-73024811D01*
X21009811Y-73278997D01*
X20785684Y-73560045D01*
X20729494Y-73649471D01*
X20677159Y-73695762D01*
X20608106Y-73706410D01*
X20544257Y-73678035D01*
X20505885Y-73619645D01*
X20500500Y-73583499D01*
X20500500Y-67345585D01*
X22899500Y-67345585D01*
X22899500Y-67494414D01*
X22928530Y-67640363D01*
X22928533Y-67640372D01*
X22985480Y-67777857D01*
X22985487Y-67777870D01*
X23068163Y-67901602D01*
X23068166Y-67901606D01*
X23173393Y-68006833D01*
X23173397Y-68006836D01*
X23297129Y-68089512D01*
X23297142Y-68089519D01*
X23400255Y-68132229D01*
X23434629Y-68146467D01*
X23434631Y-68146467D01*
X23434636Y-68146469D01*
X23580585Y-68175499D01*
X23580589Y-68175500D01*
X23580590Y-68175500D01*
X23729411Y-68175500D01*
X23729412Y-68175499D01*
X23778063Y-68165822D01*
X23875363Y-68146469D01*
X23875366Y-68146467D01*
X23875371Y-68146467D01*
X24012864Y-68089516D01*
X24136603Y-68006836D01*
X24241836Y-67901603D01*
X24324516Y-67777864D01*
X24381467Y-67640371D01*
X24394587Y-67574414D01*
X24410499Y-67494414D01*
X24410500Y-67494411D01*
X24410500Y-67345589D01*
X24410499Y-67345585D01*
X24381469Y-67199636D01*
X24381466Y-67199627D01*
X24324519Y-67062142D01*
X24324512Y-67062129D01*
X24241836Y-66938397D01*
X24241833Y-66938393D01*
X24136606Y-66833166D01*
X24136602Y-66833163D01*
X24012870Y-66750487D01*
X24012858Y-66750480D01*
X23973211Y-66734059D01*
X23875372Y-66693533D01*
X23875363Y-66693530D01*
X23729414Y-66664500D01*
X23729410Y-66664500D01*
X23580590Y-66664500D01*
X23580585Y-66664500D01*
X23434636Y-66693530D01*
X23434627Y-66693533D01*
X23297142Y-66750480D01*
X23297129Y-66750487D01*
X23173397Y-66833163D01*
X23173393Y-66833166D01*
X23068166Y-66938393D01*
X23068163Y-66938397D01*
X22985487Y-67062129D01*
X22985480Y-67062142D01*
X22928533Y-67199627D01*
X22928530Y-67199636D01*
X22899500Y-67345585D01*
X20500500Y-67345585D01*
X20500500Y-66625585D01*
X25169500Y-66625585D01*
X25169500Y-66774414D01*
X25192482Y-66889951D01*
X25198533Y-66920371D01*
X25250940Y-67046894D01*
X25253282Y-67052548D01*
X25260750Y-67122018D01*
X25253281Y-67147452D01*
X25198533Y-67279629D01*
X25198532Y-67279633D01*
X25198531Y-67279636D01*
X25198530Y-67279636D01*
X25169500Y-67425585D01*
X25169500Y-67574414D01*
X25182620Y-67640371D01*
X25198533Y-67720371D01*
X25222350Y-67777870D01*
X25253282Y-67852548D01*
X25260750Y-67922018D01*
X25253281Y-67947452D01*
X25198533Y-68079629D01*
X25198532Y-68079633D01*
X25198531Y-68079636D01*
X25198530Y-68079636D01*
X25169500Y-68225585D01*
X25169500Y-68374414D01*
X25194773Y-68501469D01*
X25198533Y-68520371D01*
X25241263Y-68623530D01*
X25253282Y-68652548D01*
X25260750Y-68722018D01*
X25253281Y-68747452D01*
X25198533Y-68879629D01*
X25198532Y-68879633D01*
X25198531Y-68879636D01*
X25198530Y-68879636D01*
X25169500Y-69025585D01*
X25169500Y-69174414D01*
X25198530Y-69320363D01*
X25198533Y-69320372D01*
X25255480Y-69457857D01*
X25255487Y-69457870D01*
X25338163Y-69581602D01*
X25338166Y-69581606D01*
X25443393Y-69686833D01*
X25443397Y-69686836D01*
X25567129Y-69769512D01*
X25567142Y-69769519D01*
X25659152Y-69807630D01*
X25704629Y-69826467D01*
X25704631Y-69826467D01*
X25704636Y-69826469D01*
X25850585Y-69855499D01*
X25850589Y-69855500D01*
X25850590Y-69855500D01*
X25999411Y-69855500D01*
X25999412Y-69855499D01*
X26145371Y-69826467D01*
X26227549Y-69792427D01*
X26297016Y-69784959D01*
X26322447Y-69792426D01*
X26404629Y-69826467D01*
X26550585Y-69855499D01*
X26550589Y-69855500D01*
X26550590Y-69855500D01*
X26699411Y-69855500D01*
X26699412Y-69855499D01*
X26845371Y-69826467D01*
X26927549Y-69792427D01*
X26997016Y-69784959D01*
X27022447Y-69792426D01*
X27104629Y-69826467D01*
X27250585Y-69855499D01*
X27250589Y-69855500D01*
X27250590Y-69855500D01*
X27399411Y-69855500D01*
X27399412Y-69855499D01*
X27448063Y-69845822D01*
X27545363Y-69826469D01*
X27545366Y-69826467D01*
X27545371Y-69826467D01*
X27682864Y-69769516D01*
X27806603Y-69686836D01*
X27911836Y-69581603D01*
X27994516Y-69457864D01*
X28051467Y-69320371D01*
X28060375Y-69275585D01*
X58294500Y-69275585D01*
X58294500Y-69424414D01*
X58323530Y-69570363D01*
X58323533Y-69570372D01*
X58380480Y-69707857D01*
X58380487Y-69707870D01*
X58463163Y-69831602D01*
X58463166Y-69831606D01*
X58568393Y-69936833D01*
X58568397Y-69936836D01*
X58692129Y-70019512D01*
X58692142Y-70019519D01*
X58795255Y-70062229D01*
X58829629Y-70076467D01*
X58829631Y-70076467D01*
X58829636Y-70076469D01*
X58975585Y-70105499D01*
X58975589Y-70105500D01*
X58975590Y-70105500D01*
X59124411Y-70105500D01*
X59124412Y-70105499D01*
X59173063Y-70095822D01*
X59270363Y-70076469D01*
X59270366Y-70076467D01*
X59270371Y-70076467D01*
X59407864Y-70019516D01*
X59531603Y-69936836D01*
X59636836Y-69831603D01*
X59719516Y-69707864D01*
X59776467Y-69570371D01*
X59779547Y-69554890D01*
X59805499Y-69424414D01*
X59805500Y-69424411D01*
X59805500Y-69275589D01*
X59805499Y-69275585D01*
X59776469Y-69129636D01*
X59776466Y-69129627D01*
X59771814Y-69118397D01*
X59728226Y-69013163D01*
X59719519Y-68992142D01*
X59719512Y-68992129D01*
X59636836Y-68868397D01*
X59636833Y-68868393D01*
X59531606Y-68763166D01*
X59531602Y-68763163D01*
X59407870Y-68680487D01*
X59407857Y-68680480D01*
X59270372Y-68623533D01*
X59270363Y-68623530D01*
X59124414Y-68594500D01*
X59124410Y-68594500D01*
X58975590Y-68594500D01*
X58975585Y-68594500D01*
X58829636Y-68623530D01*
X58829627Y-68623533D01*
X58692142Y-68680480D01*
X58692129Y-68680487D01*
X58568397Y-68763163D01*
X58568393Y-68763166D01*
X58463166Y-68868393D01*
X58463163Y-68868397D01*
X58380487Y-68992129D01*
X58380480Y-68992142D01*
X58323533Y-69129627D01*
X58323530Y-69129636D01*
X58294500Y-69275585D01*
X28060375Y-69275585D01*
X28080500Y-69174410D01*
X28080500Y-69025590D01*
X28065581Y-68950585D01*
X28051469Y-68879636D01*
X28051466Y-68879627D01*
X28046814Y-68868397D01*
X27996718Y-68747452D01*
X27989249Y-68677983D01*
X27996718Y-68652548D01*
X28020762Y-68594500D01*
X28051467Y-68520371D01*
X28055228Y-68501467D01*
X28080499Y-68374414D01*
X28080500Y-68374411D01*
X28080500Y-68225589D01*
X28080499Y-68225585D01*
X28051469Y-68079636D01*
X28051466Y-68079627D01*
X28010754Y-67981339D01*
X27996716Y-67947448D01*
X27995777Y-67938713D01*
X70374500Y-67938713D01*
X70374500Y-68151286D01*
X70397821Y-68298533D01*
X70407754Y-68361243D01*
X70469502Y-68551284D01*
X70473444Y-68563414D01*
X70569951Y-68752820D01*
X70694890Y-68924786D01*
X70845213Y-69075109D01*
X71017182Y-69200050D01*
X71025946Y-69204516D01*
X71076742Y-69252491D01*
X71093536Y-69320312D01*
X71070998Y-69386447D01*
X71025946Y-69425484D01*
X71017182Y-69429949D01*
X70845213Y-69554890D01*
X70694890Y-69705213D01*
X70569951Y-69877179D01*
X70473444Y-70066585D01*
X70407753Y-70268760D01*
X70375821Y-70470371D01*
X70374500Y-70478713D01*
X70374500Y-70691287D01*
X70407754Y-70901243D01*
X70441629Y-71005500D01*
X70473444Y-71103414D01*
X70569951Y-71292820D01*
X70694890Y-71464786D01*
X70808430Y-71578326D01*
X70841915Y-71639649D01*
X70836931Y-71709341D01*
X70795059Y-71765274D01*
X70764083Y-71782189D01*
X70632669Y-71831203D01*
X70632664Y-71831206D01*
X70517455Y-71917452D01*
X70517452Y-71917455D01*
X70431206Y-72032664D01*
X70431202Y-72032671D01*
X70380908Y-72167517D01*
X70374501Y-72227116D01*
X70374501Y-72227123D01*
X70374500Y-72227135D01*
X70374500Y-74022870D01*
X70374501Y-74022876D01*
X70380908Y-74082483D01*
X70431202Y-74217328D01*
X70431206Y-74217335D01*
X70517452Y-74332544D01*
X70517455Y-74332547D01*
X70632664Y-74418793D01*
X70632671Y-74418797D01*
X70767517Y-74469091D01*
X70767516Y-74469091D01*
X70774444Y-74469835D01*
X70827127Y-74475500D01*
X72622872Y-74475499D01*
X72682483Y-74469091D01*
X72817331Y-74418796D01*
X72932546Y-74332546D01*
X73018796Y-74217331D01*
X73069091Y-74082483D01*
X73075500Y-74022873D01*
X73075499Y-72227128D01*
X73069091Y-72167517D01*
X73018796Y-72032669D01*
X73018795Y-72032668D01*
X73018793Y-72032664D01*
X72932547Y-71917455D01*
X72932544Y-71917452D01*
X72817335Y-71831206D01*
X72817328Y-71831202D01*
X72685917Y-71782189D01*
X72629983Y-71740318D01*
X72605566Y-71674853D01*
X72620418Y-71606580D01*
X72641563Y-71578332D01*
X72755104Y-71464792D01*
X72880051Y-71292816D01*
X72976557Y-71103412D01*
X73042246Y-70901243D01*
X73075500Y-70691287D01*
X73075500Y-70478713D01*
X73042246Y-70268757D01*
X72976557Y-70066588D01*
X72880051Y-69877184D01*
X72880049Y-69877181D01*
X72880048Y-69877179D01*
X72755109Y-69705213D01*
X72604786Y-69554890D01*
X72432820Y-69429951D01*
X72432115Y-69429591D01*
X72424054Y-69425485D01*
X72373259Y-69377512D01*
X72356463Y-69309692D01*
X72378999Y-69243556D01*
X72424054Y-69204515D01*
X72432816Y-69200051D01*
X72529735Y-69129636D01*
X72604786Y-69075109D01*
X72604788Y-69075106D01*
X72604792Y-69075104D01*
X72729311Y-68950585D01*
X73969500Y-68950585D01*
X73969500Y-69099414D01*
X73998530Y-69245363D01*
X73998533Y-69245372D01*
X74055480Y-69382857D01*
X74055487Y-69382870D01*
X74138163Y-69506602D01*
X74138166Y-69506606D01*
X74243393Y-69611833D01*
X74243397Y-69611836D01*
X74367129Y-69694512D01*
X74367142Y-69694519D01*
X74440613Y-69724951D01*
X74504629Y-69751467D01*
X74504631Y-69751467D01*
X74504636Y-69751469D01*
X74650585Y-69780499D01*
X74650589Y-69780500D01*
X74650590Y-69780500D01*
X74799411Y-69780500D01*
X74799412Y-69780499D01*
X74860277Y-69768393D01*
X74945363Y-69751469D01*
X74945366Y-69751467D01*
X74945371Y-69751467D01*
X75082864Y-69694516D01*
X75206603Y-69611836D01*
X75311836Y-69506603D01*
X75394516Y-69382864D01*
X75451467Y-69245371D01*
X75452110Y-69242142D01*
X75474489Y-69129629D01*
X75480500Y-69099410D01*
X75480500Y-69063703D01*
X78291301Y-69063703D01*
X78291301Y-69212532D01*
X78320331Y-69358481D01*
X78320334Y-69358490D01*
X78377281Y-69495975D01*
X78377288Y-69495988D01*
X78459964Y-69619720D01*
X78459967Y-69619724D01*
X78565194Y-69724951D01*
X78565198Y-69724954D01*
X78688930Y-69807630D01*
X78688943Y-69807637D01*
X78734409Y-69826469D01*
X78826430Y-69864585D01*
X78941694Y-69887512D01*
X79003604Y-69919896D01*
X79026294Y-69953203D01*
X79027616Y-69952498D01*
X79030485Y-69957867D01*
X79113163Y-70081602D01*
X79113166Y-70081606D01*
X79218393Y-70186833D01*
X79218397Y-70186836D01*
X79342129Y-70269512D01*
X79342142Y-70269519D01*
X79445255Y-70312229D01*
X79479629Y-70326467D01*
X79479631Y-70326467D01*
X79479636Y-70326469D01*
X79625585Y-70355499D01*
X79625589Y-70355500D01*
X79625590Y-70355500D01*
X79774411Y-70355500D01*
X79774412Y-70355499D01*
X79823063Y-70345822D01*
X79920363Y-70326469D01*
X79920366Y-70326467D01*
X79920371Y-70326467D01*
X80057864Y-70269516D01*
X80181603Y-70186836D01*
X80192854Y-70175585D01*
X90269500Y-70175585D01*
X90269500Y-70324414D01*
X90298530Y-70470363D01*
X90298533Y-70470372D01*
X90355480Y-70607857D01*
X90355487Y-70607870D01*
X90438163Y-70731602D01*
X90438166Y-70731606D01*
X90543393Y-70836833D01*
X90543397Y-70836836D01*
X90667129Y-70919512D01*
X90667142Y-70919519D01*
X90770255Y-70962229D01*
X90804629Y-70976467D01*
X90804631Y-70976467D01*
X90804636Y-70976469D01*
X90950585Y-71005499D01*
X90950589Y-71005500D01*
X90950590Y-71005500D01*
X91099411Y-71005500D01*
X91099412Y-71005499D01*
X91148063Y-70995822D01*
X91245363Y-70976469D01*
X91245366Y-70976467D01*
X91245371Y-70976467D01*
X91382864Y-70919516D01*
X91506603Y-70836836D01*
X91611836Y-70731603D01*
X91694516Y-70607864D01*
X91751467Y-70470371D01*
X91780500Y-70324410D01*
X91780500Y-70175590D01*
X91780240Y-70174286D01*
X91751469Y-70029636D01*
X91751466Y-70029627D01*
X91694519Y-69892142D01*
X91694512Y-69892129D01*
X91611836Y-69768397D01*
X91611833Y-69768393D01*
X91506606Y-69663166D01*
X91506602Y-69663163D01*
X91382870Y-69580487D01*
X91382857Y-69580480D01*
X91245372Y-69523533D01*
X91245363Y-69523530D01*
X91099414Y-69494500D01*
X91099410Y-69494500D01*
X90950590Y-69494500D01*
X90950585Y-69494500D01*
X90804636Y-69523530D01*
X90804627Y-69523533D01*
X90667142Y-69580480D01*
X90667129Y-69580487D01*
X90543397Y-69663163D01*
X90543393Y-69663166D01*
X90438166Y-69768393D01*
X90438163Y-69768397D01*
X90355487Y-69892129D01*
X90355480Y-69892142D01*
X90298533Y-70029627D01*
X90298530Y-70029636D01*
X90269500Y-70175585D01*
X80192854Y-70175585D01*
X80286623Y-70081817D01*
X80286833Y-70081606D01*
X80286836Y-70081603D01*
X80369516Y-69957864D01*
X80426467Y-69820371D01*
X80429002Y-69807630D01*
X80451501Y-69694516D01*
X80455500Y-69674410D01*
X80455500Y-69525590D01*
X80442029Y-69457864D01*
X80426469Y-69379636D01*
X80426466Y-69379627D01*
X80369519Y-69242142D01*
X80369512Y-69242129D01*
X80286836Y-69118397D01*
X80286833Y-69118393D01*
X80181606Y-69013166D01*
X80181602Y-69013163D01*
X80057870Y-68930487D01*
X80057857Y-68930480D01*
X79920372Y-68873533D01*
X79920363Y-68873530D01*
X79805107Y-68850605D01*
X79743196Y-68818220D01*
X79720511Y-68784911D01*
X79719185Y-68785620D01*
X79716315Y-68780250D01*
X79633637Y-68656515D01*
X79633634Y-68656511D01*
X79528407Y-68551284D01*
X79528403Y-68551281D01*
X79404671Y-68468605D01*
X79404658Y-68468598D01*
X79267173Y-68411651D01*
X79267164Y-68411648D01*
X79121215Y-68382618D01*
X79121211Y-68382618D01*
X78972391Y-68382618D01*
X78972386Y-68382618D01*
X78826437Y-68411648D01*
X78826428Y-68411651D01*
X78688943Y-68468598D01*
X78688930Y-68468605D01*
X78565198Y-68551281D01*
X78565194Y-68551284D01*
X78459967Y-68656511D01*
X78459964Y-68656515D01*
X78377288Y-68780247D01*
X78377281Y-68780260D01*
X78320334Y-68917745D01*
X78320331Y-68917754D01*
X78291301Y-69063703D01*
X75480500Y-69063703D01*
X75480500Y-68950590D01*
X75464151Y-68868397D01*
X75451469Y-68804636D01*
X75451466Y-68804627D01*
X75443299Y-68784911D01*
X75407601Y-68698726D01*
X75400132Y-68629257D01*
X75431408Y-68566778D01*
X75491497Y-68531126D01*
X75546357Y-68529658D01*
X75550590Y-68530500D01*
X75550593Y-68530500D01*
X75699411Y-68530500D01*
X75699412Y-68530499D01*
X75750373Y-68520363D01*
X75845363Y-68501469D01*
X75845366Y-68501467D01*
X75845371Y-68501467D01*
X75982864Y-68444516D01*
X76106603Y-68361836D01*
X76211836Y-68256603D01*
X76294516Y-68132864D01*
X76351467Y-67995371D01*
X76354268Y-67981293D01*
X76380499Y-67849414D01*
X76380500Y-67849411D01*
X76380500Y-67700589D01*
X76380499Y-67700585D01*
X84269500Y-67700585D01*
X84269500Y-67849414D01*
X84298530Y-67995363D01*
X84298533Y-67995372D01*
X84355480Y-68132857D01*
X84355487Y-68132870D01*
X84438163Y-68256602D01*
X84438166Y-68256606D01*
X84543393Y-68361833D01*
X84543397Y-68361836D01*
X84667129Y-68444512D01*
X84667142Y-68444519D01*
X84725285Y-68468602D01*
X84804629Y-68501467D01*
X84804631Y-68501467D01*
X84804636Y-68501469D01*
X84950585Y-68530499D01*
X84950589Y-68530500D01*
X84950590Y-68530500D01*
X85099411Y-68530500D01*
X85099412Y-68530499D01*
X85150373Y-68520363D01*
X85245363Y-68501469D01*
X85245366Y-68501467D01*
X85245371Y-68501467D01*
X85382864Y-68444516D01*
X85506603Y-68361836D01*
X85611836Y-68256603D01*
X85694516Y-68132864D01*
X85751467Y-67995371D01*
X85754268Y-67981293D01*
X85780499Y-67849414D01*
X85780500Y-67849411D01*
X85780500Y-67700589D01*
X85780499Y-67700585D01*
X85751469Y-67554636D01*
X85751466Y-67554627D01*
X85694519Y-67417142D01*
X85694512Y-67417129D01*
X85611836Y-67293397D01*
X85611833Y-67293393D01*
X85506606Y-67188166D01*
X85506602Y-67188163D01*
X85382870Y-67105487D01*
X85382857Y-67105480D01*
X85245372Y-67048533D01*
X85245363Y-67048530D01*
X85099414Y-67019500D01*
X85099410Y-67019500D01*
X84950590Y-67019500D01*
X84950585Y-67019500D01*
X84804636Y-67048530D01*
X84804627Y-67048533D01*
X84667142Y-67105480D01*
X84667129Y-67105487D01*
X84543397Y-67188163D01*
X84543393Y-67188166D01*
X84438166Y-67293393D01*
X84438163Y-67293397D01*
X84355487Y-67417129D01*
X84355480Y-67417142D01*
X84298533Y-67554627D01*
X84298530Y-67554636D01*
X84269500Y-67700585D01*
X76380499Y-67700585D01*
X76351469Y-67554636D01*
X76351466Y-67554627D01*
X76294519Y-67417142D01*
X76294512Y-67417129D01*
X76211836Y-67293397D01*
X76211833Y-67293393D01*
X76106606Y-67188166D01*
X76106602Y-67188163D01*
X75982870Y-67105487D01*
X75982857Y-67105480D01*
X75845372Y-67048533D01*
X75845363Y-67048530D01*
X75699414Y-67019500D01*
X75699410Y-67019500D01*
X75550590Y-67019500D01*
X75550585Y-67019500D01*
X75404636Y-67048530D01*
X75404627Y-67048533D01*
X75267142Y-67105480D01*
X75267129Y-67105487D01*
X75143397Y-67188163D01*
X75143393Y-67188166D01*
X75038166Y-67293393D01*
X75038163Y-67293397D01*
X74955487Y-67417129D01*
X74955480Y-67417142D01*
X74898533Y-67554627D01*
X74898530Y-67554636D01*
X74869500Y-67700585D01*
X74869500Y-67849414D01*
X74898531Y-67995363D01*
X74898533Y-67995371D01*
X74937529Y-68089516D01*
X74942399Y-68101273D01*
X74949867Y-68170743D01*
X74918591Y-68233222D01*
X74858502Y-68268874D01*
X74803647Y-68270342D01*
X74799410Y-68269500D01*
X74650590Y-68269500D01*
X74650585Y-68269500D01*
X74504636Y-68298530D01*
X74504627Y-68298533D01*
X74367142Y-68355480D01*
X74367129Y-68355487D01*
X74243397Y-68438163D01*
X74243393Y-68438166D01*
X74138166Y-68543393D01*
X74138163Y-68543397D01*
X74055487Y-68667129D01*
X74055480Y-68667142D01*
X73998533Y-68804627D01*
X73998530Y-68804636D01*
X73969500Y-68950585D01*
X72729311Y-68950585D01*
X72755104Y-68924792D01*
X72760217Y-68917754D01*
X72793740Y-68871614D01*
X72793740Y-68871613D01*
X72880051Y-68752816D01*
X72976557Y-68563412D01*
X73042246Y-68361243D01*
X73075500Y-68151287D01*
X73075500Y-67938713D01*
X73042246Y-67728757D01*
X72976557Y-67526588D01*
X72880051Y-67337184D01*
X72880049Y-67337181D01*
X72880048Y-67337179D01*
X72755109Y-67165213D01*
X72604786Y-67014890D01*
X72432820Y-66889951D01*
X72243414Y-66793444D01*
X72243413Y-66793443D01*
X72243412Y-66793443D01*
X72041243Y-66727754D01*
X72041241Y-66727753D01*
X72041240Y-66727753D01*
X71879957Y-66702208D01*
X71831287Y-66694500D01*
X71618713Y-66694500D01*
X71570042Y-66702208D01*
X71408760Y-66727753D01*
X71206585Y-66793444D01*
X71017179Y-66889951D01*
X70845213Y-67014890D01*
X70694890Y-67165213D01*
X70569951Y-67337179D01*
X70473444Y-67526585D01*
X70407753Y-67728760D01*
X70374500Y-67938713D01*
X27995777Y-67938713D01*
X27989249Y-67877982D01*
X27996718Y-67852548D01*
X28027653Y-67777864D01*
X28051467Y-67720371D01*
X28080500Y-67574410D01*
X28080500Y-67425590D01*
X28078817Y-67417129D01*
X28051469Y-67279636D01*
X28051466Y-67279627D01*
X27996718Y-67147452D01*
X27989249Y-67077983D01*
X27996718Y-67052548D01*
X28044002Y-66938393D01*
X28051467Y-66920371D01*
X28068814Y-66833163D01*
X28080499Y-66774414D01*
X28080500Y-66774411D01*
X28080500Y-66625589D01*
X28080499Y-66625585D01*
X28051469Y-66479636D01*
X28051466Y-66479627D01*
X27994519Y-66342142D01*
X27994512Y-66342129D01*
X27911836Y-66218397D01*
X27911833Y-66218393D01*
X27806606Y-66113166D01*
X27806602Y-66113163D01*
X27682870Y-66030487D01*
X27682857Y-66030480D01*
X27545372Y-65973533D01*
X27545363Y-65973530D01*
X27399414Y-65944500D01*
X27399410Y-65944500D01*
X27250590Y-65944500D01*
X27250585Y-65944500D01*
X27104634Y-65973531D01*
X27104627Y-65973533D01*
X27022452Y-66007571D01*
X26952982Y-66015039D01*
X26927548Y-66007571D01*
X26845372Y-65973533D01*
X26845365Y-65973531D01*
X26699414Y-65944500D01*
X26699410Y-65944500D01*
X26550590Y-65944500D01*
X26550585Y-65944500D01*
X26404634Y-65973531D01*
X26404627Y-65973533D01*
X26322452Y-66007571D01*
X26252982Y-66015039D01*
X26227548Y-66007571D01*
X26145372Y-65973533D01*
X26145365Y-65973531D01*
X25999414Y-65944500D01*
X25999410Y-65944500D01*
X25850590Y-65944500D01*
X25850585Y-65944500D01*
X25704636Y-65973530D01*
X25704627Y-65973533D01*
X25567142Y-66030480D01*
X25567129Y-66030487D01*
X25443397Y-66113163D01*
X25443393Y-66113166D01*
X25338166Y-66218393D01*
X25338163Y-66218397D01*
X25255487Y-66342129D01*
X25255480Y-66342142D01*
X25198533Y-66479627D01*
X25198530Y-66479636D01*
X25169500Y-66625585D01*
X20500500Y-66625585D01*
X20500500Y-58925585D01*
X21569500Y-58925585D01*
X21569500Y-59074414D01*
X21598530Y-59220363D01*
X21598533Y-59220372D01*
X21655480Y-59357856D01*
X21655485Y-59357865D01*
X21671017Y-59381111D01*
X21691893Y-59447789D01*
X21673407Y-59515169D01*
X21671017Y-59518889D01*
X21655485Y-59542134D01*
X21655480Y-59542143D01*
X21598533Y-59679627D01*
X21598530Y-59679636D01*
X21569500Y-59825585D01*
X21569500Y-59974414D01*
X21598530Y-60120363D01*
X21598533Y-60120372D01*
X21655480Y-60257856D01*
X21655485Y-60257865D01*
X21671017Y-60281111D01*
X21691893Y-60347789D01*
X21673407Y-60415169D01*
X21671017Y-60418889D01*
X21655485Y-60442134D01*
X21655480Y-60442143D01*
X21598533Y-60579627D01*
X21598530Y-60579636D01*
X21569500Y-60725585D01*
X21569500Y-60874414D01*
X21598530Y-61020363D01*
X21598533Y-61020372D01*
X21655480Y-61157856D01*
X21655485Y-61157865D01*
X21671017Y-61181111D01*
X21691893Y-61247789D01*
X21673407Y-61315169D01*
X21671017Y-61318889D01*
X21655485Y-61342134D01*
X21655480Y-61342143D01*
X21598533Y-61479627D01*
X21598530Y-61479636D01*
X21569500Y-61625585D01*
X21569500Y-61774414D01*
X21598530Y-61920363D01*
X21598533Y-61920372D01*
X21655480Y-62057856D01*
X21655485Y-62057865D01*
X21671017Y-62081111D01*
X21691893Y-62147789D01*
X21673407Y-62215169D01*
X21671017Y-62218889D01*
X21655485Y-62242134D01*
X21655480Y-62242143D01*
X21598533Y-62379627D01*
X21598530Y-62379636D01*
X21569500Y-62525585D01*
X21569500Y-62674414D01*
X21598530Y-62820363D01*
X21598533Y-62820372D01*
X21655480Y-62957857D01*
X21655487Y-62957870D01*
X21704424Y-63031109D01*
X21725302Y-63097787D01*
X21706817Y-63165167D01*
X21704424Y-63168891D01*
X21655487Y-63242129D01*
X21655480Y-63242142D01*
X21598533Y-63379627D01*
X21598530Y-63379636D01*
X21569500Y-63525585D01*
X21569500Y-63674414D01*
X21598530Y-63820363D01*
X21598533Y-63820372D01*
X21655480Y-63957857D01*
X21655487Y-63957870D01*
X21738163Y-64081602D01*
X21738166Y-64081606D01*
X21843393Y-64186833D01*
X21843397Y-64186836D01*
X21967129Y-64269512D01*
X21967142Y-64269519D01*
X22070255Y-64312229D01*
X22104629Y-64326467D01*
X22104631Y-64326467D01*
X22104636Y-64326469D01*
X22250585Y-64355499D01*
X22250589Y-64355500D01*
X22250590Y-64355500D01*
X22399411Y-64355500D01*
X22399412Y-64355499D01*
X22452751Y-64344890D01*
X22545363Y-64326469D01*
X22545366Y-64326467D01*
X22545371Y-64326467D01*
X22682864Y-64269516D01*
X22806109Y-64187165D01*
X22872786Y-64166288D01*
X22940166Y-64184772D01*
X22943887Y-64187163D01*
X23067136Y-64269516D01*
X23067138Y-64269517D01*
X23067142Y-64269519D01*
X23170255Y-64312229D01*
X23204629Y-64326467D01*
X23204631Y-64326467D01*
X23204636Y-64326469D01*
X23350585Y-64355499D01*
X23350589Y-64355500D01*
X23350590Y-64355500D01*
X23499411Y-64355500D01*
X23499412Y-64355499D01*
X23552751Y-64344890D01*
X23645363Y-64326469D01*
X23645366Y-64326467D01*
X23645371Y-64326467D01*
X23782864Y-64269516D01*
X23856110Y-64220574D01*
X23922786Y-64199697D01*
X23990166Y-64218181D01*
X23993861Y-64220555D01*
X24067136Y-64269516D01*
X24067138Y-64269517D01*
X24067142Y-64269519D01*
X24170255Y-64312229D01*
X24204629Y-64326467D01*
X24204631Y-64326467D01*
X24204636Y-64326469D01*
X24350585Y-64355499D01*
X24350589Y-64355500D01*
X24350590Y-64355500D01*
X24499411Y-64355500D01*
X24499412Y-64355499D01*
X24552751Y-64344890D01*
X24645363Y-64326469D01*
X24645366Y-64326467D01*
X24645371Y-64326467D01*
X24782864Y-64269516D01*
X24856110Y-64220574D01*
X24922786Y-64199697D01*
X24990166Y-64218181D01*
X24993861Y-64220555D01*
X25067136Y-64269516D01*
X25067138Y-64269517D01*
X25067142Y-64269519D01*
X25170255Y-64312229D01*
X25204629Y-64326467D01*
X25204631Y-64326467D01*
X25204636Y-64326469D01*
X25350585Y-64355499D01*
X25350589Y-64355500D01*
X25350590Y-64355500D01*
X25499411Y-64355500D01*
X25499412Y-64355499D01*
X25552751Y-64344890D01*
X25645363Y-64326469D01*
X25645366Y-64326467D01*
X25645371Y-64326467D01*
X25782864Y-64269516D01*
X25856110Y-64220574D01*
X25922786Y-64199697D01*
X25990166Y-64218181D01*
X25993861Y-64220555D01*
X26067136Y-64269516D01*
X26067138Y-64269517D01*
X26067142Y-64269519D01*
X26170255Y-64312229D01*
X26204629Y-64326467D01*
X26204631Y-64326467D01*
X26204636Y-64326469D01*
X26350585Y-64355499D01*
X26350589Y-64355500D01*
X26350590Y-64355500D01*
X26499411Y-64355500D01*
X26499412Y-64355499D01*
X26552751Y-64344890D01*
X26645363Y-64326469D01*
X26645366Y-64326467D01*
X26645371Y-64326467D01*
X26782864Y-64269516D01*
X26906603Y-64186836D01*
X27011836Y-64081603D01*
X27094516Y-63957864D01*
X27151467Y-63820371D01*
X27157756Y-63788757D01*
X27180499Y-63674414D01*
X27180500Y-63674411D01*
X27180500Y-63525589D01*
X27180499Y-63525585D01*
X27151469Y-63379636D01*
X27151466Y-63379627D01*
X27094519Y-63242142D01*
X27094515Y-63242135D01*
X27056209Y-63184806D01*
X27045574Y-63168889D01*
X27024697Y-63102214D01*
X27043181Y-63034834D01*
X27045555Y-63031138D01*
X27094516Y-62957864D01*
X27097795Y-62949949D01*
X27143207Y-62840312D01*
X27151467Y-62820371D01*
X27180500Y-62674410D01*
X27180500Y-62525590D01*
X27169805Y-62471822D01*
X27151469Y-62379636D01*
X27151466Y-62379627D01*
X27119091Y-62301467D01*
X27094516Y-62242136D01*
X27078982Y-62218889D01*
X27058105Y-62152216D01*
X27076588Y-62084835D01*
X27078949Y-62081159D01*
X27094516Y-62057864D01*
X27151467Y-61920371D01*
X27180500Y-61774410D01*
X27180500Y-61625590D01*
X27168448Y-61565000D01*
X27151469Y-61479636D01*
X27151466Y-61479627D01*
X27141310Y-61455109D01*
X27094516Y-61342136D01*
X27078982Y-61318889D01*
X27058105Y-61252216D01*
X27076588Y-61184835D01*
X27078949Y-61181159D01*
X27094516Y-61157864D01*
X27151467Y-61020371D01*
X27152455Y-61015408D01*
X27179804Y-60877909D01*
X27180500Y-60874410D01*
X27180500Y-60725590D01*
X27152162Y-60583123D01*
X53269500Y-60583123D01*
X53269500Y-60731952D01*
X53298530Y-60877901D01*
X53298533Y-60877910D01*
X53355480Y-61015395D01*
X53355487Y-61015408D01*
X53438163Y-61139140D01*
X53438166Y-61139144D01*
X53543393Y-61244371D01*
X53543397Y-61244374D01*
X53667129Y-61327050D01*
X53667142Y-61327057D01*
X53703564Y-61342143D01*
X53804629Y-61384005D01*
X53877103Y-61398420D01*
X53944691Y-61411865D01*
X54006602Y-61444249D01*
X54041176Y-61504965D01*
X54044500Y-61533482D01*
X54044500Y-61649414D01*
X54073530Y-61795363D01*
X54073533Y-61795372D01*
X54130480Y-61932857D01*
X54130487Y-61932870D01*
X54213163Y-62056602D01*
X54213166Y-62056606D01*
X54318393Y-62161833D01*
X54318397Y-62161836D01*
X54442129Y-62244512D01*
X54442142Y-62244519D01*
X54510468Y-62272820D01*
X54579629Y-62301467D01*
X54579631Y-62301467D01*
X54579636Y-62301469D01*
X54725585Y-62330499D01*
X54725589Y-62330500D01*
X54725590Y-62330500D01*
X54874411Y-62330500D01*
X54874412Y-62330499D01*
X54923063Y-62320822D01*
X55020363Y-62301469D01*
X55020363Y-62301468D01*
X55020371Y-62301467D01*
X55023756Y-62300064D01*
X55025670Y-62299858D01*
X55026194Y-62299700D01*
X55026224Y-62299799D01*
X55093222Y-62292596D01*
X55155702Y-62323870D01*
X55191355Y-62383959D01*
X55189138Y-62452944D01*
X55167753Y-62518759D01*
X55143100Y-62674414D01*
X55134500Y-62728713D01*
X55134500Y-62941287D01*
X55137126Y-62957864D01*
X55162551Y-63118397D01*
X55167754Y-63151243D01*
X55209992Y-63281239D01*
X55233444Y-63353414D01*
X55329951Y-63542820D01*
X55454890Y-63714786D01*
X55605213Y-63865109D01*
X55777182Y-63990050D01*
X55785946Y-63994516D01*
X55836742Y-64042491D01*
X55853536Y-64110312D01*
X55830998Y-64176447D01*
X55785946Y-64215484D01*
X55777182Y-64219949D01*
X55605213Y-64344890D01*
X55454890Y-64495213D01*
X55329951Y-64667179D01*
X55233444Y-64856585D01*
X55167753Y-65058760D01*
X55134500Y-65268713D01*
X55134500Y-65481286D01*
X55167753Y-65691239D01*
X55233444Y-65893414D01*
X55329951Y-66082820D01*
X55454890Y-66254786D01*
X55605213Y-66405109D01*
X55777179Y-66530048D01*
X55777181Y-66530049D01*
X55777184Y-66530051D01*
X55966588Y-66626557D01*
X56168757Y-66692246D01*
X56378713Y-66725500D01*
X56378714Y-66725500D01*
X56591286Y-66725500D01*
X56591287Y-66725500D01*
X56801243Y-66692246D01*
X57003412Y-66626557D01*
X57192816Y-66530051D01*
X57262207Y-66479636D01*
X57364786Y-66405109D01*
X57364788Y-66405106D01*
X57364792Y-66405104D01*
X57515104Y-66254792D01*
X57515106Y-66254788D01*
X57515109Y-66254786D01*
X57640048Y-66082820D01*
X57640047Y-66082820D01*
X57640051Y-66082816D01*
X57736557Y-65893412D01*
X57802246Y-65691243D01*
X57835500Y-65481287D01*
X57835500Y-65268713D01*
X57811772Y-65118901D01*
X57820727Y-65049607D01*
X57865723Y-64996155D01*
X57932474Y-64975516D01*
X57999788Y-64994241D01*
X58021926Y-65011822D01*
X58145213Y-65135109D01*
X58317179Y-65260048D01*
X58317181Y-65260049D01*
X58317184Y-65260051D01*
X58506588Y-65356557D01*
X58708757Y-65422246D01*
X58918713Y-65455500D01*
X58918714Y-65455500D01*
X59131286Y-65455500D01*
X59131287Y-65455500D01*
X59341243Y-65422246D01*
X59543412Y-65356557D01*
X59732816Y-65260051D01*
X59754789Y-65244086D01*
X59904786Y-65135109D01*
X59904788Y-65135106D01*
X59904792Y-65135104D01*
X60055104Y-64984792D01*
X60055106Y-64984788D01*
X60055109Y-64984786D01*
X60180048Y-64812820D01*
X60180047Y-64812820D01*
X60180051Y-64812816D01*
X60276557Y-64623412D01*
X60342246Y-64421243D01*
X60375500Y-64211287D01*
X60375500Y-63998713D01*
X60342246Y-63788757D01*
X60276557Y-63586588D01*
X60180051Y-63397184D01*
X60180049Y-63397181D01*
X60180048Y-63397179D01*
X60055109Y-63225213D01*
X59904786Y-63074890D01*
X59732820Y-62949951D01*
X59732115Y-62949591D01*
X59724054Y-62945485D01*
X59673259Y-62897512D01*
X59656463Y-62829692D01*
X59678999Y-62763556D01*
X59724054Y-62724515D01*
X59732816Y-62720051D01*
X59754789Y-62704086D01*
X59904786Y-62595109D01*
X59904788Y-62595106D01*
X59904792Y-62595104D01*
X60055104Y-62444792D01*
X60055106Y-62444788D01*
X60055109Y-62444786D01*
X60180048Y-62272820D01*
X60180047Y-62272820D01*
X60180051Y-62272816D01*
X60276557Y-62083412D01*
X60342246Y-61881243D01*
X60375500Y-61671287D01*
X60375500Y-61458713D01*
X60342246Y-61248757D01*
X60276557Y-61046588D01*
X60180051Y-60857184D01*
X60180049Y-60857181D01*
X60180048Y-60857179D01*
X60055109Y-60685213D01*
X59904786Y-60534890D01*
X59732820Y-60409951D01*
X59543414Y-60313444D01*
X59543413Y-60313443D01*
X59543412Y-60313443D01*
X59341243Y-60247754D01*
X59341241Y-60247753D01*
X59341240Y-60247753D01*
X59179957Y-60222208D01*
X59131287Y-60214500D01*
X58918713Y-60214500D01*
X58870042Y-60222208D01*
X58708760Y-60247753D01*
X58506585Y-60313444D01*
X58317179Y-60409951D01*
X58145215Y-60534889D01*
X58021926Y-60658178D01*
X57960603Y-60691662D01*
X57890911Y-60686678D01*
X57834978Y-60644806D01*
X57810561Y-60579342D01*
X57811772Y-60551098D01*
X57835500Y-60401286D01*
X57835500Y-60188713D01*
X57833476Y-60175935D01*
X57802246Y-59978757D01*
X57736557Y-59776588D01*
X57640051Y-59587184D01*
X57640049Y-59587181D01*
X57640048Y-59587179D01*
X57515109Y-59415213D01*
X57364786Y-59264890D01*
X57192820Y-59139951D01*
X57192115Y-59139591D01*
X57184054Y-59135485D01*
X57133259Y-59087512D01*
X57116463Y-59019692D01*
X57138999Y-58953556D01*
X57184054Y-58914515D01*
X57192816Y-58910051D01*
X57231677Y-58881817D01*
X57364786Y-58785109D01*
X57364788Y-58785106D01*
X57364792Y-58785104D01*
X57515104Y-58634792D01*
X57515106Y-58634788D01*
X57515109Y-58634786D01*
X57640048Y-58462820D01*
X57640047Y-58462820D01*
X57640051Y-58462816D01*
X57736557Y-58273412D01*
X57802246Y-58071243D01*
X57835500Y-57861287D01*
X57835500Y-57648713D01*
X57824693Y-57580480D01*
X57816127Y-57526396D01*
X57814019Y-57513085D01*
X59669500Y-57513085D01*
X59669500Y-57661914D01*
X59698530Y-57807863D01*
X59698533Y-57807872D01*
X59755480Y-57945357D01*
X59755487Y-57945370D01*
X59838163Y-58069102D01*
X59838166Y-58069106D01*
X59943393Y-58174333D01*
X59943397Y-58174336D01*
X60067129Y-58257012D01*
X60067142Y-58257019D01*
X60132424Y-58284059D01*
X60204629Y-58313967D01*
X60204631Y-58313967D01*
X60204636Y-58313969D01*
X60350585Y-58342999D01*
X60350589Y-58343000D01*
X60350590Y-58343000D01*
X60499411Y-58343000D01*
X60499412Y-58342999D01*
X60562333Y-58330484D01*
X60645363Y-58313969D01*
X60645366Y-58313967D01*
X60645371Y-58313967D01*
X60782864Y-58257016D01*
X60906603Y-58174336D01*
X61011836Y-58069103D01*
X61094516Y-57945364D01*
X61151467Y-57807871D01*
X61180500Y-57661910D01*
X61180500Y-57513090D01*
X61165715Y-57438760D01*
X61151469Y-57367136D01*
X61151466Y-57367127D01*
X61094519Y-57229642D01*
X61094512Y-57229629D01*
X61011836Y-57105897D01*
X61011833Y-57105893D01*
X60906606Y-57000666D01*
X60906602Y-57000663D01*
X60782870Y-56917987D01*
X60782857Y-56917980D01*
X60645372Y-56861033D01*
X60645363Y-56861030D01*
X60499414Y-56832000D01*
X60499410Y-56832000D01*
X60350590Y-56832000D01*
X60350585Y-56832000D01*
X60204636Y-56861030D01*
X60204627Y-56861033D01*
X60067142Y-56917980D01*
X60067129Y-56917987D01*
X59943397Y-57000663D01*
X59943393Y-57000666D01*
X59838166Y-57105893D01*
X59838163Y-57105897D01*
X59755487Y-57229629D01*
X59755480Y-57229642D01*
X59698533Y-57367127D01*
X59698530Y-57367136D01*
X59669500Y-57513085D01*
X57814019Y-57513085D01*
X57802246Y-57438760D01*
X57802246Y-57438757D01*
X57736557Y-57236588D01*
X57640051Y-57047184D01*
X57640049Y-57047181D01*
X57640048Y-57047179D01*
X57515109Y-56875213D01*
X57364786Y-56724890D01*
X57192820Y-56599951D01*
X57192115Y-56599591D01*
X57184054Y-56595485D01*
X57133259Y-56547512D01*
X57116463Y-56479692D01*
X57138999Y-56413556D01*
X57184054Y-56374515D01*
X57192816Y-56370051D01*
X57214789Y-56354086D01*
X57364786Y-56245109D01*
X57364788Y-56245106D01*
X57364792Y-56245104D01*
X57515104Y-56094792D01*
X57515106Y-56094788D01*
X57515109Y-56094786D01*
X57640048Y-55922820D01*
X57640047Y-55922820D01*
X57640051Y-55922816D01*
X57736557Y-55733412D01*
X57802246Y-55531243D01*
X57835500Y-55321287D01*
X57835500Y-55108713D01*
X57802246Y-54898757D01*
X57736557Y-54696588D01*
X57640051Y-54507184D01*
X57640049Y-54507181D01*
X57640048Y-54507179D01*
X57515109Y-54335213D01*
X57364792Y-54184896D01*
X57310494Y-54145446D01*
X57310476Y-54145433D01*
X57192816Y-54059949D01*
X57176339Y-54051553D01*
X57174956Y-54050585D01*
X59719500Y-54050585D01*
X59719500Y-54199414D01*
X59748530Y-54345363D01*
X59748533Y-54345372D01*
X59805480Y-54482857D01*
X59805487Y-54482870D01*
X59888163Y-54606602D01*
X59888166Y-54606606D01*
X59993393Y-54711833D01*
X59993397Y-54711836D01*
X60117129Y-54794512D01*
X60117142Y-54794519D01*
X60194558Y-54826585D01*
X60254629Y-54851467D01*
X60254631Y-54851467D01*
X60254636Y-54851469D01*
X60400585Y-54880499D01*
X60400589Y-54880500D01*
X60400590Y-54880500D01*
X60549411Y-54880500D01*
X60549412Y-54880499D01*
X60598063Y-54870822D01*
X60695363Y-54851469D01*
X60695366Y-54851467D01*
X60695371Y-54851467D01*
X60832864Y-54794516D01*
X60956603Y-54711836D01*
X61061836Y-54606603D01*
X61144516Y-54482864D01*
X61201467Y-54345371D01*
X61230500Y-54199410D01*
X61230500Y-54050590D01*
X61222922Y-54012491D01*
X61201469Y-53904636D01*
X61201466Y-53904627D01*
X61144519Y-53767142D01*
X61144512Y-53767129D01*
X61061836Y-53643397D01*
X61061833Y-53643393D01*
X60956606Y-53538166D01*
X60956602Y-53538163D01*
X60832870Y-53455487D01*
X60832857Y-53455480D01*
X60695372Y-53398533D01*
X60695363Y-53398530D01*
X60549414Y-53369500D01*
X60549410Y-53369500D01*
X60400590Y-53369500D01*
X60400585Y-53369500D01*
X60254636Y-53398530D01*
X60254627Y-53398533D01*
X60117142Y-53455480D01*
X60117129Y-53455487D01*
X59993397Y-53538163D01*
X59993393Y-53538166D01*
X59888166Y-53643393D01*
X59888163Y-53643397D01*
X59805487Y-53767129D01*
X59805480Y-53767142D01*
X59748533Y-53904627D01*
X59748530Y-53904636D01*
X59719500Y-54050585D01*
X57174956Y-54050585D01*
X57169247Y-54046590D01*
X57152617Y-54025794D01*
X57133259Y-54007512D01*
X57131133Y-53998928D01*
X57125611Y-53992023D01*
X57122864Y-53965539D01*
X57116463Y-53939692D01*
X57119315Y-53931321D01*
X57118403Y-53922526D01*
X57130410Y-53898761D01*
X57138999Y-53873556D01*
X57146374Y-53867164D01*
X57149912Y-53860164D01*
X57164057Y-53851842D01*
X57184054Y-53834515D01*
X57192816Y-53830051D01*
X57214789Y-53814086D01*
X57364786Y-53705109D01*
X57364788Y-53705106D01*
X57364792Y-53705104D01*
X57515104Y-53554792D01*
X57515106Y-53554788D01*
X57515109Y-53554786D01*
X57640048Y-53382820D01*
X57640047Y-53382820D01*
X57640051Y-53382816D01*
X57736557Y-53193412D01*
X57802246Y-52991243D01*
X57835500Y-52781287D01*
X57835500Y-52568713D01*
X57802246Y-52358757D01*
X57736557Y-52156588D01*
X57640051Y-51967184D01*
X57640049Y-51967181D01*
X57640048Y-51967179D01*
X57515109Y-51795213D01*
X57364786Y-51644890D01*
X57192820Y-51519951D01*
X57192115Y-51519591D01*
X57184054Y-51515485D01*
X57133259Y-51467512D01*
X57116463Y-51399692D01*
X57138999Y-51333556D01*
X57184054Y-51294515D01*
X57192816Y-51290051D01*
X57302998Y-51210000D01*
X57364786Y-51165109D01*
X57364788Y-51165106D01*
X57364792Y-51165104D01*
X57515104Y-51014792D01*
X57515106Y-51014788D01*
X57515109Y-51014786D01*
X57640048Y-50842820D01*
X57640047Y-50842820D01*
X57640051Y-50842816D01*
X57736557Y-50653412D01*
X57802246Y-50451243D01*
X57835500Y-50241287D01*
X57835500Y-50028713D01*
X57802246Y-49818757D01*
X57736557Y-49616588D01*
X57640051Y-49427184D01*
X57640049Y-49427181D01*
X57640048Y-49427179D01*
X57515109Y-49255213D01*
X57364786Y-49104890D01*
X57192820Y-48979951D01*
X57192115Y-48979591D01*
X57184054Y-48975485D01*
X57133259Y-48927512D01*
X57116463Y-48859692D01*
X57138999Y-48793556D01*
X57184054Y-48754515D01*
X57192816Y-48750051D01*
X57214789Y-48734086D01*
X57364786Y-48625109D01*
X57364788Y-48625106D01*
X57364792Y-48625104D01*
X57515104Y-48474792D01*
X57515106Y-48474788D01*
X57515109Y-48474786D01*
X57640048Y-48302820D01*
X57640047Y-48302820D01*
X57640051Y-48302816D01*
X57736557Y-48113412D01*
X57802246Y-47911243D01*
X57835500Y-47701287D01*
X57835500Y-47488713D01*
X57802246Y-47278757D01*
X57736557Y-47076588D01*
X57640051Y-46887184D01*
X57640049Y-46887181D01*
X57640048Y-46887179D01*
X57515109Y-46715213D01*
X57364786Y-46564890D01*
X57192820Y-46439951D01*
X57192115Y-46439591D01*
X57184054Y-46435485D01*
X57174900Y-46426839D01*
X57163232Y-46422103D01*
X57149980Y-46403304D01*
X57133259Y-46387512D01*
X57130231Y-46375288D01*
X57122976Y-46364995D01*
X57121991Y-46342016D01*
X57117922Y-46325585D01*
X59644500Y-46325585D01*
X59644500Y-46474414D01*
X59673530Y-46620363D01*
X59673533Y-46620372D01*
X59730480Y-46757857D01*
X59730487Y-46757870D01*
X59813163Y-46881602D01*
X59813166Y-46881606D01*
X59918393Y-46986833D01*
X59918397Y-46986836D01*
X60042129Y-47069512D01*
X60042142Y-47069519D01*
X60145255Y-47112229D01*
X60179629Y-47126467D01*
X60179631Y-47126467D01*
X60179636Y-47126469D01*
X60325585Y-47155499D01*
X60325589Y-47155500D01*
X60325590Y-47155500D01*
X60474411Y-47155500D01*
X60474412Y-47155499D01*
X60523063Y-47145822D01*
X60620363Y-47126469D01*
X60620366Y-47126467D01*
X60620371Y-47126467D01*
X60757864Y-47069516D01*
X60881603Y-46986836D01*
X60986836Y-46881603D01*
X61069516Y-46757864D01*
X61126467Y-46620371D01*
X61132562Y-46589732D01*
X61155499Y-46474414D01*
X61155500Y-46474411D01*
X61155500Y-46325589D01*
X61155499Y-46325585D01*
X61126469Y-46179636D01*
X61126466Y-46179627D01*
X61069519Y-46042142D01*
X61069512Y-46042129D01*
X60986836Y-45918397D01*
X60986833Y-45918393D01*
X60881606Y-45813166D01*
X60881602Y-45813163D01*
X60757870Y-45730487D01*
X60757857Y-45730480D01*
X60620372Y-45673533D01*
X60620363Y-45673530D01*
X60474414Y-45644500D01*
X60474410Y-45644500D01*
X60325590Y-45644500D01*
X60325585Y-45644500D01*
X60179636Y-45673530D01*
X60179627Y-45673533D01*
X60042142Y-45730480D01*
X60042129Y-45730487D01*
X59918397Y-45813163D01*
X59918393Y-45813166D01*
X59813166Y-45918393D01*
X59813163Y-45918397D01*
X59730487Y-46042129D01*
X59730480Y-46042142D01*
X59673533Y-46179627D01*
X59673530Y-46179636D01*
X59644500Y-46325585D01*
X57117922Y-46325585D01*
X57116463Y-46319692D01*
X57120524Y-46307771D01*
X57119986Y-46295189D01*
X57131580Y-46275326D01*
X57138999Y-46253556D01*
X57149703Y-46244280D01*
X57155210Y-46234848D01*
X57184057Y-46214514D01*
X57185204Y-46213929D01*
X57192816Y-46210051D01*
X57312989Y-46122741D01*
X57364786Y-46085109D01*
X57364788Y-46085106D01*
X57364792Y-46085104D01*
X57515104Y-45934792D01*
X57515106Y-45934788D01*
X57515109Y-45934786D01*
X57640048Y-45762820D01*
X57640047Y-45762820D01*
X57640051Y-45762816D01*
X57736557Y-45573412D01*
X57802246Y-45371243D01*
X57835500Y-45161287D01*
X57835500Y-45078713D01*
X70374500Y-45078713D01*
X70374500Y-45291287D01*
X70376733Y-45305383D01*
X70401431Y-45461325D01*
X70407754Y-45501243D01*
X70472755Y-45701296D01*
X70473444Y-45703414D01*
X70569951Y-45892820D01*
X70694890Y-46064786D01*
X70845213Y-46215109D01*
X71017182Y-46340050D01*
X71025946Y-46344516D01*
X71076742Y-46392491D01*
X71093536Y-46460312D01*
X71070998Y-46526447D01*
X71025946Y-46565484D01*
X71017182Y-46569949D01*
X70845213Y-46694890D01*
X70694890Y-46845213D01*
X70569951Y-47017179D01*
X70473444Y-47206585D01*
X70407753Y-47408760D01*
X70395090Y-47488713D01*
X70374500Y-47618713D01*
X70374500Y-47831287D01*
X70407754Y-48041243D01*
X70431203Y-48113412D01*
X70473444Y-48243414D01*
X70569951Y-48432820D01*
X70694890Y-48604786D01*
X70845213Y-48755109D01*
X71017182Y-48880050D01*
X71025946Y-48884516D01*
X71076742Y-48932491D01*
X71093536Y-49000312D01*
X71070998Y-49066447D01*
X71025946Y-49105484D01*
X71017182Y-49109949D01*
X70845213Y-49234890D01*
X70694890Y-49385213D01*
X70569951Y-49557179D01*
X70473444Y-49746585D01*
X70407753Y-49948760D01*
X70374500Y-50158713D01*
X70374500Y-50371286D01*
X70407642Y-50580540D01*
X70407754Y-50581243D01*
X70463380Y-50752442D01*
X70473444Y-50783414D01*
X70569951Y-50972820D01*
X70694890Y-51144786D01*
X70845213Y-51295109D01*
X71017182Y-51420050D01*
X71025946Y-51424516D01*
X71076742Y-51472491D01*
X71093536Y-51540312D01*
X71070998Y-51606447D01*
X71025946Y-51645484D01*
X71017182Y-51649949D01*
X70845213Y-51774890D01*
X70694890Y-51925213D01*
X70569951Y-52097179D01*
X70473444Y-52286585D01*
X70407753Y-52488760D01*
X70374500Y-52698713D01*
X70374500Y-52911286D01*
X70404727Y-53102135D01*
X70407754Y-53121243D01*
X70431203Y-53193412D01*
X70473444Y-53323414D01*
X70569951Y-53512820D01*
X70694890Y-53684786D01*
X70845213Y-53835109D01*
X71017182Y-53960050D01*
X71025946Y-53964516D01*
X71076742Y-54012491D01*
X71093536Y-54080312D01*
X71070998Y-54146447D01*
X71025946Y-54185484D01*
X71017182Y-54189949D01*
X70845213Y-54314890D01*
X70694890Y-54465213D01*
X70569951Y-54637179D01*
X70473444Y-54826585D01*
X70407753Y-55028760D01*
X70374500Y-55238713D01*
X70374500Y-55451286D01*
X70401704Y-55623049D01*
X70407754Y-55661243D01*
X70431203Y-55733412D01*
X70473444Y-55863414D01*
X70569951Y-56052820D01*
X70694890Y-56224786D01*
X70845213Y-56375109D01*
X71017182Y-56500050D01*
X71025946Y-56504516D01*
X71076742Y-56552491D01*
X71093536Y-56620312D01*
X71070998Y-56686447D01*
X71025946Y-56725484D01*
X71017182Y-56729949D01*
X70845213Y-56854890D01*
X70694890Y-57005213D01*
X70569951Y-57177179D01*
X70473444Y-57366585D01*
X70407753Y-57568760D01*
X70383101Y-57724410D01*
X70374500Y-57778713D01*
X70374500Y-57991287D01*
X70377126Y-58007864D01*
X70403690Y-58175589D01*
X70407754Y-58201243D01*
X70472432Y-58400302D01*
X70473444Y-58403414D01*
X70569951Y-58592820D01*
X70694890Y-58764786D01*
X70845213Y-58915109D01*
X71017182Y-59040050D01*
X71025946Y-59044516D01*
X71076742Y-59092491D01*
X71093536Y-59160312D01*
X71070998Y-59226447D01*
X71025946Y-59265484D01*
X71017182Y-59269949D01*
X70845213Y-59394890D01*
X70694890Y-59545213D01*
X70569951Y-59717179D01*
X70473444Y-59906585D01*
X70407753Y-60108760D01*
X70374500Y-60318713D01*
X70374500Y-60531286D01*
X70406281Y-60731948D01*
X70407754Y-60741243D01*
X70461119Y-60905484D01*
X70473444Y-60943414D01*
X70569951Y-61132820D01*
X70694890Y-61304786D01*
X70845213Y-61455109D01*
X71017182Y-61580050D01*
X71025946Y-61584516D01*
X71076742Y-61632491D01*
X71093536Y-61700312D01*
X71070998Y-61766447D01*
X71025946Y-61805484D01*
X71017182Y-61809949D01*
X70845213Y-61934890D01*
X70694890Y-62085213D01*
X70569951Y-62257179D01*
X70473444Y-62446585D01*
X70473443Y-62446587D01*
X70473443Y-62446588D01*
X70469424Y-62458956D01*
X70407753Y-62648760D01*
X70374500Y-62858713D01*
X70374500Y-63071286D01*
X70399111Y-63226678D01*
X70407754Y-63281243D01*
X70431203Y-63353412D01*
X70473444Y-63483414D01*
X70569951Y-63672820D01*
X70694890Y-63844786D01*
X70845213Y-63995109D01*
X71017179Y-64120048D01*
X71017181Y-64120049D01*
X71017184Y-64120051D01*
X71206588Y-64216557D01*
X71408757Y-64282246D01*
X71618713Y-64315500D01*
X71618714Y-64315500D01*
X71831286Y-64315500D01*
X71831287Y-64315500D01*
X72041243Y-64282246D01*
X72243412Y-64216557D01*
X72432816Y-64120051D01*
X72478917Y-64086557D01*
X72604786Y-63995109D01*
X72604788Y-63995106D01*
X72604792Y-63995104D01*
X72755104Y-63844792D01*
X72755106Y-63844788D01*
X72755109Y-63844786D01*
X72880048Y-63672820D01*
X72880047Y-63672820D01*
X72880051Y-63672816D01*
X72976557Y-63483412D01*
X73042246Y-63281243D01*
X73075500Y-63071287D01*
X73075500Y-62858713D01*
X73042246Y-62648757D01*
X72976557Y-62446588D01*
X72880051Y-62257184D01*
X72880049Y-62257181D01*
X72880048Y-62257179D01*
X72755109Y-62085213D01*
X72604786Y-61934890D01*
X72432820Y-61809951D01*
X72432115Y-61809591D01*
X72424054Y-61805485D01*
X72373259Y-61757512D01*
X72356463Y-61689692D01*
X72378999Y-61623556D01*
X72424054Y-61584515D01*
X72432816Y-61580051D01*
X72536164Y-61504965D01*
X72604786Y-61455109D01*
X72604788Y-61455106D01*
X72604792Y-61455104D01*
X72755104Y-61304792D01*
X72755106Y-61304788D01*
X72755109Y-61304786D01*
X72880048Y-61132820D01*
X72880047Y-61132820D01*
X72880051Y-61132816D01*
X72976557Y-60943412D01*
X73042246Y-60741243D01*
X73075500Y-60531287D01*
X73075500Y-60318713D01*
X73042246Y-60108757D01*
X72976557Y-59906588D01*
X72880051Y-59717184D01*
X72880049Y-59717181D01*
X72880048Y-59717179D01*
X72755109Y-59545213D01*
X72604786Y-59394890D01*
X72432820Y-59269951D01*
X72432115Y-59269591D01*
X72424054Y-59265485D01*
X72373259Y-59217512D01*
X72356463Y-59149692D01*
X72378999Y-59083556D01*
X72424054Y-59044515D01*
X72432816Y-59040051D01*
X72520330Y-58976469D01*
X72521547Y-58975585D01*
X74144500Y-58975585D01*
X74144500Y-59124414D01*
X74173530Y-59270363D01*
X74173533Y-59270372D01*
X74230480Y-59407857D01*
X74230487Y-59407870D01*
X74313163Y-59531602D01*
X74313166Y-59531606D01*
X74418393Y-59636833D01*
X74418397Y-59636836D01*
X74542129Y-59719512D01*
X74542142Y-59719519D01*
X74645255Y-59762229D01*
X74679629Y-59776467D01*
X74679631Y-59776467D01*
X74679636Y-59776469D01*
X74825585Y-59805499D01*
X74825589Y-59805500D01*
X74825590Y-59805500D01*
X74974411Y-59805500D01*
X74974412Y-59805499D01*
X75023063Y-59795822D01*
X75120363Y-59776469D01*
X75120366Y-59776467D01*
X75120371Y-59776467D01*
X75257864Y-59719516D01*
X75381603Y-59636836D01*
X75486836Y-59531603D01*
X75569516Y-59407864D01*
X75574888Y-59394896D01*
X75590226Y-59357865D01*
X75626467Y-59270371D01*
X75627558Y-59264890D01*
X75655499Y-59124414D01*
X75655500Y-59124411D01*
X75655500Y-58975589D01*
X75655499Y-58975585D01*
X75626469Y-58829636D01*
X75626466Y-58829627D01*
X75569519Y-58692142D01*
X75569512Y-58692129D01*
X75486836Y-58568397D01*
X75486833Y-58568393D01*
X75381606Y-58463166D01*
X75381602Y-58463163D01*
X75257870Y-58380487D01*
X75257857Y-58380480D01*
X75120372Y-58323533D01*
X75120363Y-58323530D01*
X74974414Y-58294500D01*
X74974410Y-58294500D01*
X74825590Y-58294500D01*
X74825585Y-58294500D01*
X74679636Y-58323530D01*
X74679627Y-58323533D01*
X74542142Y-58380480D01*
X74542129Y-58380487D01*
X74418397Y-58463163D01*
X74418393Y-58463166D01*
X74313166Y-58568393D01*
X74313163Y-58568397D01*
X74230487Y-58692129D01*
X74230480Y-58692142D01*
X74173533Y-58829627D01*
X74173530Y-58829636D01*
X74144500Y-58975585D01*
X72521547Y-58975585D01*
X72604786Y-58915109D01*
X72604788Y-58915106D01*
X72604792Y-58915104D01*
X72755104Y-58764792D01*
X72755106Y-58764788D01*
X72755109Y-58764786D01*
X72880048Y-58592820D01*
X72880047Y-58592820D01*
X72880051Y-58592816D01*
X72976557Y-58403412D01*
X73042246Y-58201243D01*
X73075500Y-57991287D01*
X73075500Y-57778713D01*
X73042246Y-57568757D01*
X72976557Y-57366588D01*
X72880051Y-57177184D01*
X72880049Y-57177181D01*
X72880048Y-57177179D01*
X72755109Y-57005213D01*
X72604786Y-56854890D01*
X72432820Y-56729951D01*
X72432115Y-56729591D01*
X72424054Y-56725485D01*
X72373259Y-56677512D01*
X72356463Y-56609692D01*
X72378999Y-56543556D01*
X72424054Y-56504515D01*
X72432816Y-56500051D01*
X72539569Y-56422491D01*
X72604786Y-56375109D01*
X72604788Y-56375106D01*
X72604792Y-56375104D01*
X72755104Y-56224792D01*
X72755106Y-56224788D01*
X72755109Y-56224786D01*
X72880048Y-56052820D01*
X72880047Y-56052820D01*
X72880051Y-56052816D01*
X72976557Y-55863412D01*
X73042246Y-55661243D01*
X73075500Y-55451287D01*
X73075500Y-55238713D01*
X73042246Y-55028757D01*
X72976557Y-54826588D01*
X72880051Y-54637184D01*
X72880049Y-54637181D01*
X72880048Y-54637179D01*
X72755109Y-54465213D01*
X72604786Y-54314890D01*
X72432820Y-54189951D01*
X72432115Y-54189591D01*
X72424054Y-54185485D01*
X72373259Y-54137512D01*
X72356463Y-54069692D01*
X72378999Y-54003556D01*
X72424054Y-53964515D01*
X72432816Y-53960051D01*
X72509089Y-53904636D01*
X72604786Y-53835109D01*
X72604788Y-53835106D01*
X72604792Y-53835104D01*
X72755104Y-53684792D01*
X72755106Y-53684788D01*
X72755109Y-53684786D01*
X72880048Y-53512820D01*
X72880047Y-53512820D01*
X72880051Y-53512816D01*
X72976557Y-53323412D01*
X73042246Y-53121243D01*
X73045273Y-53102135D01*
X74699500Y-53102135D01*
X74699500Y-54897870D01*
X74699501Y-54897876D01*
X74705908Y-54957483D01*
X74756202Y-55092328D01*
X74756206Y-55092335D01*
X74842452Y-55207544D01*
X74842455Y-55207547D01*
X74957664Y-55293793D01*
X74957671Y-55293797D01*
X75092517Y-55344091D01*
X75092516Y-55344091D01*
X75099444Y-55344835D01*
X75152127Y-55350500D01*
X76947872Y-55350499D01*
X77007483Y-55344091D01*
X77142331Y-55293796D01*
X77257546Y-55207546D01*
X77343796Y-55092331D01*
X77394091Y-54957483D01*
X77400500Y-54897873D01*
X77400499Y-53102128D01*
X77394091Y-53042517D01*
X77361635Y-52955499D01*
X77343797Y-52907671D01*
X77343793Y-52907664D01*
X77257547Y-52792455D01*
X77257544Y-52792452D01*
X77142335Y-52706206D01*
X77142328Y-52706202D01*
X77010401Y-52656997D01*
X76954467Y-52615126D01*
X76930050Y-52549662D01*
X76944902Y-52481389D01*
X76966053Y-52453133D01*
X77079728Y-52339458D01*
X77204620Y-52167557D01*
X77301095Y-51978217D01*
X77366757Y-51776129D01*
X77366757Y-51776126D01*
X77377231Y-51710000D01*
X76483012Y-51710000D01*
X76515925Y-51652993D01*
X76550000Y-51525826D01*
X76550000Y-51394174D01*
X76515925Y-51267007D01*
X76483012Y-51210000D01*
X77377231Y-51210000D01*
X77366757Y-51143873D01*
X77366757Y-51143870D01*
X77301095Y-50941782D01*
X77204620Y-50752442D01*
X77079727Y-50580540D01*
X77079723Y-50580535D01*
X76929464Y-50430276D01*
X76929459Y-50430272D01*
X76757557Y-50305379D01*
X76568215Y-50208903D01*
X76366124Y-50143241D01*
X76300000Y-50132768D01*
X76300000Y-51026988D01*
X76242993Y-50994075D01*
X76115826Y-50960000D01*
X75984174Y-50960000D01*
X75857007Y-50994075D01*
X75800000Y-51026988D01*
X75800000Y-50132768D01*
X75799999Y-50132768D01*
X75733875Y-50143241D01*
X75531784Y-50208903D01*
X75342442Y-50305379D01*
X75170540Y-50430272D01*
X75170535Y-50430276D01*
X75020276Y-50580535D01*
X75020272Y-50580540D01*
X74895379Y-50752442D01*
X74798904Y-50941782D01*
X74733242Y-51143870D01*
X74733242Y-51143873D01*
X74722769Y-51210000D01*
X75616988Y-51210000D01*
X75584075Y-51267007D01*
X75550000Y-51394174D01*
X75550000Y-51525826D01*
X75584075Y-51652993D01*
X75616988Y-51710000D01*
X74722769Y-51710000D01*
X74733242Y-51776126D01*
X74733242Y-51776129D01*
X74798904Y-51978217D01*
X74895379Y-52167557D01*
X75020272Y-52339459D01*
X75020276Y-52339464D01*
X75133946Y-52453134D01*
X75167431Y-52514457D01*
X75162447Y-52584149D01*
X75120575Y-52640082D01*
X75089598Y-52656997D01*
X74957671Y-52706202D01*
X74957664Y-52706206D01*
X74842455Y-52792452D01*
X74842452Y-52792455D01*
X74756206Y-52907664D01*
X74756202Y-52907671D01*
X74705908Y-53042517D01*
X74699501Y-53102116D01*
X74699501Y-53102123D01*
X74699500Y-53102135D01*
X73045273Y-53102135D01*
X73048872Y-53079409D01*
X73048872Y-53079408D01*
X73075500Y-52911286D01*
X73075500Y-52698713D01*
X73068720Y-52655909D01*
X73042246Y-52488757D01*
X72976557Y-52286588D01*
X72880051Y-52097184D01*
X72880049Y-52097181D01*
X72880048Y-52097179D01*
X72755109Y-51925213D01*
X72604786Y-51774890D01*
X72432820Y-51649951D01*
X72432115Y-51649591D01*
X72424054Y-51645485D01*
X72373259Y-51597512D01*
X72356463Y-51529692D01*
X72378999Y-51463556D01*
X72424054Y-51424515D01*
X72432816Y-51420051D01*
X72539569Y-51342491D01*
X72604786Y-51295109D01*
X72604788Y-51295106D01*
X72604792Y-51295104D01*
X72755104Y-51144792D01*
X72755106Y-51144788D01*
X72755109Y-51144786D01*
X72880048Y-50972820D01*
X72880047Y-50972820D01*
X72880051Y-50972816D01*
X72976557Y-50783412D01*
X73042246Y-50581243D01*
X73075500Y-50371287D01*
X73075500Y-50158713D01*
X73042246Y-49948757D01*
X72976557Y-49746588D01*
X72880051Y-49557184D01*
X72880049Y-49557181D01*
X72880048Y-49557179D01*
X72755109Y-49385213D01*
X72604786Y-49234890D01*
X72432820Y-49109951D01*
X72432115Y-49109591D01*
X72424054Y-49105485D01*
X72373259Y-49057512D01*
X72356463Y-48989692D01*
X72378999Y-48923556D01*
X72424054Y-48884515D01*
X72432816Y-48880051D01*
X72539569Y-48802491D01*
X72604786Y-48755109D01*
X72604788Y-48755106D01*
X72604792Y-48755104D01*
X72755104Y-48604792D01*
X72755106Y-48604788D01*
X72755109Y-48604786D01*
X72880048Y-48432820D01*
X72880047Y-48432820D01*
X72880051Y-48432816D01*
X72976557Y-48243412D01*
X73042246Y-48041243D01*
X73075500Y-47831287D01*
X73075500Y-47618713D01*
X73042246Y-47408757D01*
X72976557Y-47206588D01*
X72880051Y-47017184D01*
X72880049Y-47017181D01*
X72880048Y-47017179D01*
X72755109Y-46845213D01*
X72604786Y-46694890D01*
X72432820Y-46569951D01*
X72432115Y-46569591D01*
X72424054Y-46565485D01*
X72373259Y-46517512D01*
X72356463Y-46449692D01*
X72378999Y-46383556D01*
X72424054Y-46344515D01*
X72432816Y-46340051D01*
X72494564Y-46295189D01*
X72604786Y-46215109D01*
X72604788Y-46215106D01*
X72604792Y-46215104D01*
X72755104Y-46064792D01*
X72755106Y-46064788D01*
X72755109Y-46064786D01*
X72880048Y-45892820D01*
X72880047Y-45892820D01*
X72880051Y-45892816D01*
X72976557Y-45703412D01*
X73042246Y-45501243D01*
X73075500Y-45291287D01*
X73075500Y-45078713D01*
X73042246Y-44868757D01*
X72976557Y-44666588D01*
X72880051Y-44477184D01*
X72880049Y-44477181D01*
X72880048Y-44477179D01*
X72755109Y-44305213D01*
X72604786Y-44154890D01*
X72432820Y-44029951D01*
X72243414Y-43933444D01*
X72243413Y-43933443D01*
X72243412Y-43933443D01*
X72041243Y-43867754D01*
X72041241Y-43867753D01*
X72041240Y-43867753D01*
X71879957Y-43842208D01*
X71831287Y-43834500D01*
X71618713Y-43834500D01*
X71570042Y-43842208D01*
X71408760Y-43867753D01*
X71206585Y-43933444D01*
X71017179Y-44029951D01*
X70845213Y-44154890D01*
X70694890Y-44305213D01*
X70569951Y-44477179D01*
X70473444Y-44666585D01*
X70407753Y-44868760D01*
X70395090Y-44948713D01*
X70374500Y-45078713D01*
X57835500Y-45078713D01*
X57835500Y-44948713D01*
X57802246Y-44738757D01*
X57736557Y-44536588D01*
X57640051Y-44347184D01*
X57640049Y-44347181D01*
X57640048Y-44347179D01*
X57515109Y-44175213D01*
X57364786Y-44024890D01*
X57192820Y-43899951D01*
X57003414Y-43803444D01*
X57003413Y-43803443D01*
X57003412Y-43803443D01*
X56801243Y-43737754D01*
X56801241Y-43737753D01*
X56801240Y-43737753D01*
X56639957Y-43712208D01*
X56591287Y-43704500D01*
X56378713Y-43704500D01*
X56330042Y-43712208D01*
X56168760Y-43737753D01*
X55966585Y-43803444D01*
X55777179Y-43899951D01*
X55605213Y-44024890D01*
X55454890Y-44175213D01*
X55329951Y-44347179D01*
X55233444Y-44536585D01*
X55167753Y-44738760D01*
X55134500Y-44948713D01*
X55134500Y-45161286D01*
X55166762Y-45364983D01*
X55167754Y-45371243D01*
X55209992Y-45501239D01*
X55233444Y-45573414D01*
X55329951Y-45762820D01*
X55454890Y-45934786D01*
X55605213Y-46085109D01*
X55777182Y-46210050D01*
X55785946Y-46214516D01*
X55836742Y-46262491D01*
X55853536Y-46330312D01*
X55830998Y-46396447D01*
X55785946Y-46435484D01*
X55777182Y-46439949D01*
X55605213Y-46564890D01*
X55454890Y-46715213D01*
X55329951Y-46887179D01*
X55233444Y-47076585D01*
X55167753Y-47278760D01*
X55147164Y-47408757D01*
X55134500Y-47488713D01*
X55134500Y-47701287D01*
X55167754Y-47911243D01*
X55209992Y-48041239D01*
X55233444Y-48113414D01*
X55329951Y-48302820D01*
X55454890Y-48474786D01*
X55605213Y-48625109D01*
X55777182Y-48750050D01*
X55785946Y-48754516D01*
X55836742Y-48802491D01*
X55853536Y-48870312D01*
X55830998Y-48936447D01*
X55785946Y-48975484D01*
X55777182Y-48979949D01*
X55605213Y-49104890D01*
X55454890Y-49255213D01*
X55329951Y-49427179D01*
X55233444Y-49616585D01*
X55167753Y-49818760D01*
X55147164Y-49948757D01*
X55134500Y-50028713D01*
X55134500Y-50241287D01*
X55167754Y-50451243D01*
X55209992Y-50581239D01*
X55233444Y-50653414D01*
X55329951Y-50842820D01*
X55454890Y-51014786D01*
X55605213Y-51165109D01*
X55777182Y-51290050D01*
X55785946Y-51294516D01*
X55836742Y-51342491D01*
X55853536Y-51410312D01*
X55830998Y-51476447D01*
X55785946Y-51515484D01*
X55777182Y-51519949D01*
X55605213Y-51644890D01*
X55454890Y-51795213D01*
X55329951Y-51967179D01*
X55233444Y-52156585D01*
X55167753Y-52358760D01*
X55157996Y-52420363D01*
X55134500Y-52568713D01*
X55134500Y-52781287D01*
X55136269Y-52792454D01*
X55162092Y-52955499D01*
X55167754Y-52991243D01*
X55209992Y-53121239D01*
X55233444Y-53193414D01*
X55329951Y-53382820D01*
X55454890Y-53554786D01*
X55605213Y-53705109D01*
X55777182Y-53830050D01*
X55785946Y-53834516D01*
X55836742Y-53882491D01*
X55853536Y-53950312D01*
X55830998Y-54016447D01*
X55785946Y-54055484D01*
X55777182Y-54059949D01*
X55605213Y-54184890D01*
X55454890Y-54335213D01*
X55329951Y-54507179D01*
X55233444Y-54696585D01*
X55167753Y-54898760D01*
X55147164Y-55028757D01*
X55134500Y-55108713D01*
X55134500Y-55321287D01*
X55167754Y-55531243D01*
X55209992Y-55661239D01*
X55233444Y-55733414D01*
X55329951Y-55922820D01*
X55454890Y-56094786D01*
X55605213Y-56245109D01*
X55777182Y-56370050D01*
X55785946Y-56374516D01*
X55836742Y-56422491D01*
X55853536Y-56490312D01*
X55830998Y-56556447D01*
X55785946Y-56595484D01*
X55777182Y-56599949D01*
X55605213Y-56724890D01*
X55454890Y-56875213D01*
X55329951Y-57047179D01*
X55233444Y-57236585D01*
X55167753Y-57438760D01*
X55134500Y-57648713D01*
X55134500Y-57861286D01*
X55167415Y-58069106D01*
X55167754Y-58071243D01*
X55228114Y-58257012D01*
X55233444Y-58273414D01*
X55329951Y-58462820D01*
X55454890Y-58634786D01*
X55605213Y-58785109D01*
X55777182Y-58910050D01*
X55785946Y-58914516D01*
X55836742Y-58962491D01*
X55853536Y-59030312D01*
X55830998Y-59096447D01*
X55785946Y-59135484D01*
X55777182Y-59139949D01*
X55605213Y-59264890D01*
X55454890Y-59415213D01*
X55329951Y-59587179D01*
X55233444Y-59776585D01*
X55167753Y-59978760D01*
X55134500Y-60188713D01*
X55134500Y-60401286D01*
X55167753Y-60611240D01*
X55196647Y-60700166D01*
X55198642Y-60770007D01*
X55162562Y-60829840D01*
X55099861Y-60860668D01*
X55051344Y-60859425D01*
X55041032Y-60857091D01*
X55020371Y-60848533D01*
X54878756Y-60820364D01*
X54877128Y-60819996D01*
X54847977Y-60803760D01*
X54818397Y-60788287D01*
X54817561Y-60786819D01*
X54816088Y-60785999D01*
X54800343Y-60756582D01*
X54783823Y-60727571D01*
X54783546Y-60725201D01*
X54783117Y-60724398D01*
X54783253Y-60722686D01*
X54780500Y-60699055D01*
X54780500Y-60583127D01*
X54780499Y-60583123D01*
X54751469Y-60437174D01*
X54751466Y-60437165D01*
X54694519Y-60299680D01*
X54694512Y-60299667D01*
X54611836Y-60175935D01*
X54611833Y-60175931D01*
X54506606Y-60070704D01*
X54506602Y-60070701D01*
X54382870Y-59988025D01*
X54382857Y-59988018D01*
X54245372Y-59931071D01*
X54245363Y-59931068D01*
X54099414Y-59902038D01*
X54099410Y-59902038D01*
X53950590Y-59902038D01*
X53950585Y-59902038D01*
X53804636Y-59931068D01*
X53804627Y-59931071D01*
X53667142Y-59988018D01*
X53667129Y-59988025D01*
X53543397Y-60070701D01*
X53543393Y-60070704D01*
X53438166Y-60175931D01*
X53438163Y-60175935D01*
X53355487Y-60299667D01*
X53355480Y-60299680D01*
X53298533Y-60437165D01*
X53298530Y-60437174D01*
X53269500Y-60583123D01*
X27152162Y-60583123D01*
X27151467Y-60579629D01*
X27094516Y-60442136D01*
X27072360Y-60408977D01*
X27067749Y-60397992D01*
X27065127Y-60374641D01*
X27058105Y-60352216D01*
X27061301Y-60340564D01*
X27059953Y-60328558D01*
X27070371Y-60307496D01*
X27076588Y-60284835D01*
X27078949Y-60281159D01*
X27094516Y-60257864D01*
X27151467Y-60120371D01*
X27180500Y-59974410D01*
X27180500Y-59825590D01*
X27170753Y-59776588D01*
X27151469Y-59679636D01*
X27151466Y-59679627D01*
X27100051Y-59555500D01*
X27094516Y-59542136D01*
X27078982Y-59518889D01*
X27058105Y-59452216D01*
X27076588Y-59384835D01*
X27078949Y-59381159D01*
X27094516Y-59357864D01*
X27151467Y-59220371D01*
X27160802Y-59173443D01*
X27176117Y-59096447D01*
X27180500Y-59074410D01*
X27180500Y-58925590D01*
X27162846Y-58836836D01*
X27151469Y-58779636D01*
X27151466Y-58779627D01*
X27145320Y-58764790D01*
X27131574Y-58731602D01*
X27094519Y-58642142D01*
X27094512Y-58642129D01*
X27011836Y-58518397D01*
X27011833Y-58518393D01*
X26906606Y-58413166D01*
X26906602Y-58413163D01*
X26782870Y-58330487D01*
X26782858Y-58330480D01*
X26670783Y-58284059D01*
X26645372Y-58273533D01*
X26645363Y-58273530D01*
X26499414Y-58244500D01*
X26499410Y-58244500D01*
X26350590Y-58244500D01*
X26350585Y-58244500D01*
X26204636Y-58273530D01*
X26204627Y-58273533D01*
X26067142Y-58330480D01*
X26067129Y-58330487D01*
X25993891Y-58379424D01*
X25927213Y-58400302D01*
X25859833Y-58381817D01*
X25856109Y-58379424D01*
X25782870Y-58330487D01*
X25782857Y-58330480D01*
X25645372Y-58273533D01*
X25645363Y-58273530D01*
X25499414Y-58244500D01*
X25499410Y-58244500D01*
X25350590Y-58244500D01*
X25350585Y-58244500D01*
X25204636Y-58273530D01*
X25204627Y-58273533D01*
X25067142Y-58330480D01*
X25067129Y-58330487D01*
X24993891Y-58379424D01*
X24927213Y-58400302D01*
X24859833Y-58381817D01*
X24856109Y-58379424D01*
X24782870Y-58330487D01*
X24782857Y-58330480D01*
X24645372Y-58273533D01*
X24645363Y-58273530D01*
X24499414Y-58244500D01*
X24499410Y-58244500D01*
X24350590Y-58244500D01*
X24350585Y-58244500D01*
X24204636Y-58273530D01*
X24204627Y-58273533D01*
X24067142Y-58330480D01*
X24067129Y-58330487D01*
X23993891Y-58379424D01*
X23927213Y-58400302D01*
X23859833Y-58381817D01*
X23856109Y-58379424D01*
X23782870Y-58330487D01*
X23782857Y-58330480D01*
X23645372Y-58273533D01*
X23645363Y-58273530D01*
X23499414Y-58244500D01*
X23499410Y-58244500D01*
X23350590Y-58244500D01*
X23350585Y-58244500D01*
X23204636Y-58273530D01*
X23204627Y-58273533D01*
X23067142Y-58330480D01*
X23067129Y-58330487D01*
X22943891Y-58412833D01*
X22877213Y-58433711D01*
X22809833Y-58415226D01*
X22806109Y-58412833D01*
X22682870Y-58330487D01*
X22682857Y-58330480D01*
X22545372Y-58273533D01*
X22545363Y-58273530D01*
X22399414Y-58244500D01*
X22399410Y-58244500D01*
X22250590Y-58244500D01*
X22250585Y-58244500D01*
X22104636Y-58273530D01*
X22104627Y-58273533D01*
X21967142Y-58330480D01*
X21967129Y-58330487D01*
X21843397Y-58413163D01*
X21843393Y-58413166D01*
X21738166Y-58518393D01*
X21738163Y-58518397D01*
X21655487Y-58642129D01*
X21655480Y-58642142D01*
X21598533Y-58779627D01*
X21598530Y-58779636D01*
X21569500Y-58925585D01*
X20500500Y-58925585D01*
X20500500Y-58175585D01*
X42594500Y-58175585D01*
X42594500Y-58324414D01*
X42623530Y-58470363D01*
X42623533Y-58470372D01*
X42680480Y-58607857D01*
X42680487Y-58607870D01*
X42763163Y-58731602D01*
X42763166Y-58731606D01*
X42868393Y-58836833D01*
X42868397Y-58836836D01*
X42992129Y-58919512D01*
X42992142Y-58919519D01*
X43095255Y-58962229D01*
X43129629Y-58976467D01*
X43129631Y-58976467D01*
X43129636Y-58976469D01*
X43275585Y-59005499D01*
X43275589Y-59005500D01*
X43275590Y-59005500D01*
X43424411Y-59005500D01*
X43424412Y-59005499D01*
X43473063Y-58995822D01*
X43570363Y-58976469D01*
X43570366Y-58976467D01*
X43570371Y-58976467D01*
X43707864Y-58919516D01*
X43831603Y-58836836D01*
X43936836Y-58731603D01*
X43940857Y-58725585D01*
X48644500Y-58725585D01*
X48644500Y-58874414D01*
X48673530Y-59020363D01*
X48673533Y-59020372D01*
X48730480Y-59157857D01*
X48730487Y-59157870D01*
X48813163Y-59281602D01*
X48813166Y-59281606D01*
X48918393Y-59386833D01*
X48918397Y-59386836D01*
X49042129Y-59469512D01*
X49042142Y-59469519D01*
X49145255Y-59512229D01*
X49179629Y-59526467D01*
X49179631Y-59526467D01*
X49179636Y-59526469D01*
X49325585Y-59555499D01*
X49325589Y-59555500D01*
X49325590Y-59555500D01*
X49474411Y-59555500D01*
X49474412Y-59555499D01*
X49526152Y-59545208D01*
X49620363Y-59526469D01*
X49620366Y-59526467D01*
X49620371Y-59526467D01*
X49757864Y-59469516D01*
X49881603Y-59386836D01*
X49986836Y-59281603D01*
X50069516Y-59157864D01*
X50126467Y-59020371D01*
X50129426Y-59005499D01*
X50155499Y-58874414D01*
X50155500Y-58874411D01*
X50155500Y-58725589D01*
X50155499Y-58725585D01*
X50126469Y-58579636D01*
X50126466Y-58579627D01*
X50121814Y-58568397D01*
X50101104Y-58518397D01*
X50069519Y-58442142D01*
X50069512Y-58442129D01*
X49986836Y-58318397D01*
X49986833Y-58318393D01*
X49881606Y-58213166D01*
X49881602Y-58213163D01*
X49757870Y-58130487D01*
X49757857Y-58130480D01*
X49620372Y-58073533D01*
X49620363Y-58073530D01*
X49474414Y-58044500D01*
X49474410Y-58044500D01*
X49325590Y-58044500D01*
X49325585Y-58044500D01*
X49179636Y-58073530D01*
X49179627Y-58073533D01*
X49042142Y-58130480D01*
X49042129Y-58130487D01*
X48918397Y-58213163D01*
X48918393Y-58213166D01*
X48813166Y-58318393D01*
X48813163Y-58318397D01*
X48730487Y-58442129D01*
X48730480Y-58442142D01*
X48673533Y-58579627D01*
X48673530Y-58579636D01*
X48644500Y-58725585D01*
X43940857Y-58725585D01*
X43963212Y-58692129D01*
X43990957Y-58650607D01*
X44019513Y-58607868D01*
X44019516Y-58607864D01*
X44076467Y-58470371D01*
X44077901Y-58463166D01*
X44104292Y-58330484D01*
X44105500Y-58324410D01*
X44105500Y-58175590D01*
X44096751Y-58131603D01*
X44076469Y-58029636D01*
X44076466Y-58029627D01*
X44019519Y-57892142D01*
X44019512Y-57892129D01*
X43936836Y-57768397D01*
X43936833Y-57768393D01*
X43831608Y-57663168D01*
X43831601Y-57663163D01*
X43809976Y-57648713D01*
X43707870Y-57580487D01*
X43707857Y-57580480D01*
X43696039Y-57575585D01*
X45194500Y-57575585D01*
X45194500Y-57724414D01*
X45223530Y-57870363D01*
X45223533Y-57870372D01*
X45280480Y-58007857D01*
X45280487Y-58007870D01*
X45363163Y-58131602D01*
X45363166Y-58131606D01*
X45468393Y-58236833D01*
X45468397Y-58236836D01*
X45592129Y-58319512D01*
X45592142Y-58319519D01*
X45695255Y-58362229D01*
X45729629Y-58376467D01*
X45729631Y-58376467D01*
X45729636Y-58376469D01*
X45875585Y-58405499D01*
X45875589Y-58405500D01*
X45875590Y-58405500D01*
X46024411Y-58405500D01*
X46024412Y-58405499D01*
X46073063Y-58395822D01*
X46170363Y-58376469D01*
X46170366Y-58376467D01*
X46170371Y-58376467D01*
X46307864Y-58319516D01*
X46431603Y-58236836D01*
X46536836Y-58131603D01*
X46619516Y-58007864D01*
X46676467Y-57870371D01*
X46688901Y-57807863D01*
X46705499Y-57724414D01*
X46705500Y-57724411D01*
X46705500Y-57575589D01*
X46705499Y-57575585D01*
X46676469Y-57429636D01*
X46676466Y-57429627D01*
X46619519Y-57292142D01*
X46619512Y-57292129D01*
X46536836Y-57168397D01*
X46536833Y-57168393D01*
X46431606Y-57063166D01*
X46431602Y-57063163D01*
X46307870Y-56980487D01*
X46307857Y-56980480D01*
X46170372Y-56923533D01*
X46170363Y-56923530D01*
X46024414Y-56894500D01*
X46024410Y-56894500D01*
X45875590Y-56894500D01*
X45875585Y-56894500D01*
X45729636Y-56923530D01*
X45729627Y-56923533D01*
X45592142Y-56980480D01*
X45592129Y-56980487D01*
X45468397Y-57063163D01*
X45468393Y-57063166D01*
X45363166Y-57168393D01*
X45363163Y-57168397D01*
X45280487Y-57292129D01*
X45280480Y-57292142D01*
X45223533Y-57429627D01*
X45223530Y-57429636D01*
X45194500Y-57575585D01*
X43696039Y-57575585D01*
X43570372Y-57523533D01*
X43570363Y-57523530D01*
X43424414Y-57494500D01*
X43424410Y-57494500D01*
X43275590Y-57494500D01*
X43275585Y-57494500D01*
X43129636Y-57523530D01*
X43129627Y-57523533D01*
X42992142Y-57580480D01*
X42992129Y-57580487D01*
X42868397Y-57663163D01*
X42868393Y-57663166D01*
X42763166Y-57768393D01*
X42763163Y-57768397D01*
X42680487Y-57892129D01*
X42680480Y-57892142D01*
X42623533Y-58029627D01*
X42623530Y-58029636D01*
X42594500Y-58175585D01*
X20500500Y-58175585D01*
X20500500Y-56139948D01*
X20520185Y-56072909D01*
X20572989Y-56027154D01*
X20642147Y-56017210D01*
X20702861Y-56043847D01*
X20759087Y-56089693D01*
X20759087Y-56089694D01*
X20759090Y-56089695D01*
X20759093Y-56089698D01*
X20939451Y-56183909D01*
X21135082Y-56239886D01*
X21254463Y-56250500D01*
X24870536Y-56250499D01*
X24989918Y-56239886D01*
X25185549Y-56183909D01*
X25365907Y-56089698D01*
X25523609Y-55961109D01*
X25652198Y-55803407D01*
X25746409Y-55623049D01*
X25802386Y-55427418D01*
X25813000Y-55308037D01*
X25812999Y-54375585D01*
X50619500Y-54375585D01*
X50619500Y-54524414D01*
X50648530Y-54670363D01*
X50648533Y-54670372D01*
X50705480Y-54807857D01*
X50705487Y-54807870D01*
X50788163Y-54931602D01*
X50788166Y-54931606D01*
X50893393Y-55036833D01*
X50893397Y-55036836D01*
X51017129Y-55119512D01*
X51017142Y-55119519D01*
X51120255Y-55162229D01*
X51154629Y-55176467D01*
X51154631Y-55176467D01*
X51154636Y-55176469D01*
X51300585Y-55205499D01*
X51300589Y-55205500D01*
X51300590Y-55205500D01*
X51449411Y-55205500D01*
X51449412Y-55205499D01*
X51498063Y-55195822D01*
X51595363Y-55176469D01*
X51595366Y-55176467D01*
X51595371Y-55176467D01*
X51732864Y-55119516D01*
X51856603Y-55036836D01*
X51961836Y-54931603D01*
X52044516Y-54807864D01*
X52101467Y-54670371D01*
X52114151Y-54606606D01*
X52130499Y-54524414D01*
X52130500Y-54524411D01*
X52130500Y-54375589D01*
X52130499Y-54375585D01*
X52101469Y-54229636D01*
X52101466Y-54229627D01*
X52044519Y-54092142D01*
X52044512Y-54092129D01*
X51961836Y-53968397D01*
X51961833Y-53968393D01*
X51856606Y-53863166D01*
X51856602Y-53863163D01*
X51732870Y-53780487D01*
X51732857Y-53780480D01*
X51595372Y-53723533D01*
X51595363Y-53723530D01*
X51449414Y-53694500D01*
X51449410Y-53694500D01*
X51300590Y-53694500D01*
X51300585Y-53694500D01*
X51154636Y-53723530D01*
X51154627Y-53723533D01*
X51017142Y-53780480D01*
X51017129Y-53780487D01*
X50893397Y-53863163D01*
X50893393Y-53863166D01*
X50788166Y-53968393D01*
X50788163Y-53968397D01*
X50705487Y-54092129D01*
X50705480Y-54092142D01*
X50648533Y-54229627D01*
X50648530Y-54229636D01*
X50619500Y-54375585D01*
X25812999Y-54375585D01*
X25812999Y-53998928D01*
X25812999Y-52691971D01*
X25812999Y-52691964D01*
X25802386Y-52572582D01*
X25746409Y-52376951D01*
X25652198Y-52196593D01*
X25594299Y-52125585D01*
X44844500Y-52125585D01*
X44844500Y-52274414D01*
X44873530Y-52420363D01*
X44873533Y-52420372D01*
X44930480Y-52557857D01*
X44930487Y-52557870D01*
X45013163Y-52681602D01*
X45013166Y-52681606D01*
X45118393Y-52786833D01*
X45118397Y-52786836D01*
X45242129Y-52869512D01*
X45242142Y-52869519D01*
X45342981Y-52911287D01*
X45379629Y-52926467D01*
X45379631Y-52926467D01*
X45379636Y-52926469D01*
X45525585Y-52955499D01*
X45525589Y-52955500D01*
X45525590Y-52955500D01*
X45674411Y-52955500D01*
X45674412Y-52955499D01*
X45723063Y-52945822D01*
X45820363Y-52926469D01*
X45820366Y-52926467D01*
X45820371Y-52926467D01*
X45957864Y-52869516D01*
X46081603Y-52786836D01*
X46186836Y-52681603D01*
X46269516Y-52557864D01*
X46326467Y-52420371D01*
X46355500Y-52274410D01*
X46355500Y-52125590D01*
X46327190Y-51983262D01*
X46326469Y-51979636D01*
X46326466Y-51979627D01*
X46269519Y-51842142D01*
X46269512Y-51842129D01*
X46186836Y-51718397D01*
X46186833Y-51718393D01*
X46081606Y-51613166D01*
X46081602Y-51613163D01*
X45957870Y-51530487D01*
X45957857Y-51530480D01*
X45820372Y-51473533D01*
X45820363Y-51473530D01*
X45674414Y-51444500D01*
X45674410Y-51444500D01*
X45525590Y-51444500D01*
X45525585Y-51444500D01*
X45379636Y-51473530D01*
X45379627Y-51473533D01*
X45242142Y-51530480D01*
X45242129Y-51530487D01*
X45118397Y-51613163D01*
X45118393Y-51613166D01*
X45013166Y-51718393D01*
X45013163Y-51718397D01*
X44930487Y-51842129D01*
X44930480Y-51842142D01*
X44873533Y-51979627D01*
X44873530Y-51979636D01*
X44844500Y-52125585D01*
X25594299Y-52125585D01*
X25571137Y-52097179D01*
X25523609Y-52038890D01*
X25382629Y-51923937D01*
X25365907Y-51910302D01*
X25185549Y-51816091D01*
X25185548Y-51816090D01*
X25185545Y-51816089D01*
X25068329Y-51782550D01*
X24989918Y-51760114D01*
X24989915Y-51760113D01*
X24989913Y-51760113D01*
X24923602Y-51754217D01*
X24870537Y-51749500D01*
X24870532Y-51749500D01*
X21254471Y-51749500D01*
X21254465Y-51749500D01*
X21254464Y-51749501D01*
X21242816Y-51750536D01*
X21135084Y-51760113D01*
X20939454Y-51816089D01*
X20759087Y-51910305D01*
X20702860Y-51956153D01*
X20638464Y-51983262D01*
X20569634Y-51971252D01*
X20518224Y-51923937D01*
X20500500Y-51860051D01*
X20500500Y-46277384D01*
X36480731Y-46277384D01*
X36480731Y-46435077D01*
X36511492Y-46589720D01*
X36511495Y-46589732D01*
X36571833Y-46735403D01*
X36571840Y-46735416D01*
X36659441Y-46866519D01*
X36659444Y-46866523D01*
X36770938Y-46978017D01*
X36770942Y-46978020D01*
X36902045Y-47065621D01*
X36902058Y-47065628D01*
X37047729Y-47125966D01*
X37047734Y-47125968D01*
X37196195Y-47155499D01*
X37202384Y-47156730D01*
X37202387Y-47156731D01*
X37202389Y-47156731D01*
X37360075Y-47156731D01*
X37360076Y-47156730D01*
X37514728Y-47125968D01*
X37660410Y-47065625D01*
X37791520Y-46978020D01*
X37903020Y-46866520D01*
X37990625Y-46735410D01*
X38050968Y-46589728D01*
X38081731Y-46435073D01*
X38081731Y-46277389D01*
X38081731Y-46277386D01*
X38081730Y-46277384D01*
X38073269Y-46234848D01*
X38050968Y-46122734D01*
X38050966Y-46122729D01*
X37990628Y-45977058D01*
X37990621Y-45977045D01*
X37903020Y-45845942D01*
X37903017Y-45845938D01*
X37791523Y-45734444D01*
X37791519Y-45734441D01*
X37660416Y-45646840D01*
X37660403Y-45646833D01*
X37514732Y-45586495D01*
X37514720Y-45586492D01*
X37360076Y-45555731D01*
X37360073Y-45555731D01*
X37202389Y-45555731D01*
X37202386Y-45555731D01*
X37047741Y-45586492D01*
X37047729Y-45586495D01*
X36902058Y-45646833D01*
X36902045Y-45646840D01*
X36770942Y-45734441D01*
X36770938Y-45734444D01*
X36659444Y-45845938D01*
X36659441Y-45845942D01*
X36571840Y-45977045D01*
X36571833Y-45977058D01*
X36511495Y-46122729D01*
X36511492Y-46122741D01*
X36480731Y-46277384D01*
X20500500Y-46277384D01*
X20500500Y-42225585D01*
X37969500Y-42225585D01*
X37969500Y-42374414D01*
X37998530Y-42520363D01*
X37998533Y-42520372D01*
X38055480Y-42657857D01*
X38055487Y-42657870D01*
X38138163Y-42781602D01*
X38138166Y-42781606D01*
X38243393Y-42886833D01*
X38243397Y-42886836D01*
X38367129Y-42969512D01*
X38367142Y-42969519D01*
X38470255Y-43012229D01*
X38504629Y-43026467D01*
X38504631Y-43026467D01*
X38504636Y-43026469D01*
X38650585Y-43055499D01*
X38650589Y-43055500D01*
X38650590Y-43055500D01*
X38799411Y-43055500D01*
X38799412Y-43055499D01*
X38848063Y-43045822D01*
X38945363Y-43026469D01*
X38945366Y-43026467D01*
X38945371Y-43026467D01*
X39082864Y-42969516D01*
X39172482Y-42909635D01*
X43802500Y-42909635D01*
X43802500Y-45305370D01*
X43802501Y-45305376D01*
X43808908Y-45364983D01*
X43859202Y-45499828D01*
X43859206Y-45499835D01*
X43945452Y-45615044D01*
X43945455Y-45615047D01*
X44060664Y-45701293D01*
X44060671Y-45701297D01*
X44195517Y-45751591D01*
X44195516Y-45751591D01*
X44202444Y-45752335D01*
X44255127Y-45758000D01*
X45850872Y-45757999D01*
X45910483Y-45751591D01*
X46045331Y-45701296D01*
X46160546Y-45615046D01*
X46246796Y-45499831D01*
X46297091Y-45364983D01*
X46303500Y-45305373D01*
X46303499Y-43609077D01*
X48882500Y-43609077D01*
X48882500Y-44605922D01*
X48913290Y-44800326D01*
X48974117Y-44987529D01*
X49020578Y-45078713D01*
X49063476Y-45162905D01*
X49179172Y-45322146D01*
X49318354Y-45461328D01*
X49477595Y-45577024D01*
X49552214Y-45615044D01*
X49652970Y-45666382D01*
X49652972Y-45666382D01*
X49652975Y-45666384D01*
X49753317Y-45698987D01*
X49840173Y-45727209D01*
X50034578Y-45758000D01*
X50034583Y-45758000D01*
X50231422Y-45758000D01*
X50425826Y-45727209D01*
X50613025Y-45666384D01*
X50788405Y-45577024D01*
X50947646Y-45461328D01*
X51086828Y-45322146D01*
X51202524Y-45162905D01*
X51291884Y-44987525D01*
X51352709Y-44800326D01*
X51362460Y-44738760D01*
X51383500Y-44605922D01*
X51383500Y-43609077D01*
X51352709Y-43414673D01*
X51291882Y-43227470D01*
X51244743Y-43134955D01*
X51202524Y-43052095D01*
X51086828Y-42892854D01*
X50947646Y-42753672D01*
X50788405Y-42637976D01*
X50613029Y-42548617D01*
X50425826Y-42487790D01*
X50231422Y-42457000D01*
X50231417Y-42457000D01*
X50034583Y-42457000D01*
X50034578Y-42457000D01*
X49840173Y-42487790D01*
X49652970Y-42548617D01*
X49477594Y-42637976D01*
X49450213Y-42657870D01*
X49318354Y-42753672D01*
X49318352Y-42753674D01*
X49318351Y-42753674D01*
X49179174Y-42892851D01*
X49179174Y-42892852D01*
X49179172Y-42892854D01*
X49166980Y-42909635D01*
X49063476Y-43052094D01*
X48974117Y-43227470D01*
X48913290Y-43414673D01*
X48882500Y-43609077D01*
X46303499Y-43609077D01*
X46303499Y-42909628D01*
X46297091Y-42850017D01*
X46271575Y-42781606D01*
X46246797Y-42715171D01*
X46246793Y-42715164D01*
X46160547Y-42599955D01*
X46160544Y-42599952D01*
X46045335Y-42513706D01*
X46045328Y-42513702D01*
X45910482Y-42463408D01*
X45910483Y-42463408D01*
X45850883Y-42457001D01*
X45850881Y-42457000D01*
X45850873Y-42457000D01*
X45850864Y-42457000D01*
X44255129Y-42457000D01*
X44255123Y-42457001D01*
X44195516Y-42463408D01*
X44060671Y-42513702D01*
X44060664Y-42513706D01*
X43945455Y-42599952D01*
X43945452Y-42599955D01*
X43859206Y-42715164D01*
X43859202Y-42715171D01*
X43808908Y-42850017D01*
X43804303Y-42892854D01*
X43802501Y-42909623D01*
X43802500Y-42909635D01*
X39172482Y-42909635D01*
X39206603Y-42886836D01*
X39206606Y-42886833D01*
X39274815Y-42818625D01*
X39311833Y-42781606D01*
X39311836Y-42781603D01*
X39394516Y-42657864D01*
X39451467Y-42520371D01*
X39452794Y-42513704D01*
X39480499Y-42374414D01*
X39480500Y-42374411D01*
X39480500Y-42225589D01*
X39480499Y-42225585D01*
X39451469Y-42079636D01*
X39451466Y-42079627D01*
X39394519Y-41942142D01*
X39394512Y-41942129D01*
X39311836Y-41818397D01*
X39311833Y-41818393D01*
X39206606Y-41713166D01*
X39206602Y-41713163D01*
X39082870Y-41630487D01*
X39082857Y-41630480D01*
X38945372Y-41573533D01*
X38945363Y-41573530D01*
X38799414Y-41544500D01*
X38799410Y-41544500D01*
X38650590Y-41544500D01*
X38650585Y-41544500D01*
X38504636Y-41573530D01*
X38504627Y-41573533D01*
X38367142Y-41630480D01*
X38367129Y-41630487D01*
X38243397Y-41713163D01*
X38243393Y-41713166D01*
X38138166Y-41818393D01*
X38138163Y-41818397D01*
X38055487Y-41942129D01*
X38055480Y-41942142D01*
X37998533Y-42079627D01*
X37998530Y-42079636D01*
X37969500Y-42225585D01*
X20500500Y-42225585D01*
X20500500Y-39225585D01*
X65744500Y-39225585D01*
X65744500Y-39374414D01*
X65773530Y-39520363D01*
X65773533Y-39520372D01*
X65830480Y-39657857D01*
X65830487Y-39657870D01*
X65913163Y-39781602D01*
X65913166Y-39781606D01*
X66018393Y-39886833D01*
X66018397Y-39886836D01*
X66142129Y-39969512D01*
X66142142Y-39969519D01*
X66245255Y-40012229D01*
X66279629Y-40026467D01*
X66279631Y-40026467D01*
X66279636Y-40026469D01*
X66425585Y-40055499D01*
X66425589Y-40055500D01*
X66425590Y-40055500D01*
X66574411Y-40055500D01*
X66574412Y-40055499D01*
X66623063Y-40045822D01*
X66720363Y-40026469D01*
X66720366Y-40026467D01*
X66720371Y-40026467D01*
X66857864Y-39969516D01*
X66981603Y-39886836D01*
X67086836Y-39781603D01*
X67169516Y-39657864D01*
X67226467Y-39520371D01*
X67255500Y-39374410D01*
X67255500Y-39225590D01*
X67255240Y-39224286D01*
X67226469Y-39079636D01*
X67226466Y-39079627D01*
X67216472Y-39055500D01*
X67204446Y-39026466D01*
X67169519Y-38942142D01*
X67169512Y-38942129D01*
X67086836Y-38818397D01*
X67086833Y-38818393D01*
X66981606Y-38713166D01*
X66981602Y-38713163D01*
X66857870Y-38630487D01*
X66857857Y-38630480D01*
X66720372Y-38573533D01*
X66720363Y-38573530D01*
X66574414Y-38544500D01*
X66574410Y-38544500D01*
X66425590Y-38544500D01*
X66425585Y-38544500D01*
X66279636Y-38573530D01*
X66279627Y-38573533D01*
X66142142Y-38630480D01*
X66142129Y-38630487D01*
X66018397Y-38713163D01*
X66018393Y-38713166D01*
X65913166Y-38818393D01*
X65913163Y-38818397D01*
X65830487Y-38942129D01*
X65830480Y-38942142D01*
X65773533Y-39079627D01*
X65773530Y-39079636D01*
X65744500Y-39225585D01*
X20500500Y-39225585D01*
X20500500Y-37225585D01*
X69894500Y-37225585D01*
X69894500Y-37374414D01*
X69923530Y-37520363D01*
X69923533Y-37520372D01*
X69980480Y-37657857D01*
X69980487Y-37657870D01*
X70029424Y-37731109D01*
X70050302Y-37797787D01*
X70031817Y-37865167D01*
X70029424Y-37868891D01*
X69980487Y-37942129D01*
X69980480Y-37942142D01*
X69923533Y-38079627D01*
X69923530Y-38079636D01*
X69894500Y-38225585D01*
X69894500Y-38374414D01*
X69923530Y-38520363D01*
X69923533Y-38520372D01*
X69980480Y-38657857D01*
X69980487Y-38657870D01*
X70063163Y-38781602D01*
X70063166Y-38781606D01*
X70168393Y-38886833D01*
X70168397Y-38886836D01*
X70292129Y-38969512D01*
X70292142Y-38969519D01*
X70395255Y-39012229D01*
X70429629Y-39026467D01*
X70429631Y-39026467D01*
X70429636Y-39026469D01*
X70575585Y-39055499D01*
X70575589Y-39055500D01*
X70575590Y-39055500D01*
X70724411Y-39055500D01*
X70724412Y-39055499D01*
X70773063Y-39045822D01*
X70870363Y-39026469D01*
X70870366Y-39026467D01*
X70870371Y-39026467D01*
X71007864Y-38969516D01*
X71131603Y-38886836D01*
X71236836Y-38781603D01*
X71319516Y-38657864D01*
X71376467Y-38520371D01*
X71405500Y-38374410D01*
X71405500Y-38225590D01*
X71394517Y-38170372D01*
X71376469Y-38079636D01*
X71376466Y-38079627D01*
X71319519Y-37942142D01*
X71319512Y-37942129D01*
X71317014Y-37938391D01*
X71317013Y-37938390D01*
X71275051Y-37875590D01*
X71275048Y-37875585D01*
X72794500Y-37875585D01*
X72794500Y-38024414D01*
X72823530Y-38170363D01*
X72823533Y-38170372D01*
X72880480Y-38307857D01*
X72880487Y-38307870D01*
X72963163Y-38431602D01*
X72963166Y-38431606D01*
X73068393Y-38536833D01*
X73068397Y-38536836D01*
X73192129Y-38619512D01*
X73192142Y-38619519D01*
X73295255Y-38662229D01*
X73329629Y-38676467D01*
X73329631Y-38676467D01*
X73329636Y-38676469D01*
X73475585Y-38705499D01*
X73475589Y-38705500D01*
X73475590Y-38705500D01*
X73624411Y-38705500D01*
X73624412Y-38705499D01*
X73673063Y-38695822D01*
X73770363Y-38676469D01*
X73770366Y-38676467D01*
X73770371Y-38676467D01*
X73907864Y-38619516D01*
X74031603Y-38536836D01*
X74136836Y-38431603D01*
X74219516Y-38307864D01*
X74276467Y-38170371D01*
X74305500Y-38024410D01*
X74305500Y-37875590D01*
X74290905Y-37802214D01*
X74276469Y-37729636D01*
X74276466Y-37729627D01*
X74219519Y-37592142D01*
X74219512Y-37592129D01*
X74136836Y-37468397D01*
X74136833Y-37468393D01*
X74031606Y-37363166D01*
X74031602Y-37363163D01*
X73907870Y-37280487D01*
X73907857Y-37280480D01*
X73770372Y-37223533D01*
X73770363Y-37223530D01*
X73624414Y-37194500D01*
X73624410Y-37194500D01*
X73475590Y-37194500D01*
X73475585Y-37194500D01*
X73329636Y-37223530D01*
X73329627Y-37223533D01*
X73192142Y-37280480D01*
X73192129Y-37280487D01*
X73068397Y-37363163D01*
X73068393Y-37363166D01*
X72963166Y-37468393D01*
X72963163Y-37468397D01*
X72880487Y-37592129D01*
X72880480Y-37592142D01*
X72823533Y-37729627D01*
X72823530Y-37729636D01*
X72794500Y-37875585D01*
X71275048Y-37875585D01*
X71270574Y-37868889D01*
X71249697Y-37802214D01*
X71268181Y-37734834D01*
X71270555Y-37731138D01*
X71319516Y-37657864D01*
X71376467Y-37520371D01*
X71405500Y-37374410D01*
X71405500Y-37225590D01*
X71399316Y-37194500D01*
X71376469Y-37079636D01*
X71376466Y-37079627D01*
X71319519Y-36942142D01*
X71319512Y-36942129D01*
X71236836Y-36818397D01*
X71236833Y-36818393D01*
X71131606Y-36713166D01*
X71131602Y-36713163D01*
X71007870Y-36630487D01*
X71007857Y-36630480D01*
X70870372Y-36573533D01*
X70870363Y-36573530D01*
X70724414Y-36544500D01*
X70724410Y-36544500D01*
X70575590Y-36544500D01*
X70575585Y-36544500D01*
X70429636Y-36573530D01*
X70429627Y-36573533D01*
X70292142Y-36630480D01*
X70292129Y-36630487D01*
X70168397Y-36713163D01*
X70168393Y-36713166D01*
X70063166Y-36818393D01*
X70063163Y-36818397D01*
X69980487Y-36942129D01*
X69980480Y-36942142D01*
X69923533Y-37079627D01*
X69923530Y-37079636D01*
X69894500Y-37225585D01*
X20500500Y-37225585D01*
X20500500Y-35509317D01*
X81435768Y-35509317D01*
X81435768Y-35658146D01*
X81464798Y-35804095D01*
X81464801Y-35804104D01*
X81521748Y-35941589D01*
X81521755Y-35941602D01*
X81604431Y-36065334D01*
X81604434Y-36065338D01*
X81709661Y-36170565D01*
X81709665Y-36170568D01*
X81833397Y-36253244D01*
X81833410Y-36253251D01*
X81936523Y-36295961D01*
X81970897Y-36310199D01*
X81970899Y-36310199D01*
X81970904Y-36310201D01*
X82116853Y-36339231D01*
X82116857Y-36339232D01*
X82116858Y-36339232D01*
X82265679Y-36339232D01*
X82265680Y-36339231D01*
X82314331Y-36329554D01*
X82411631Y-36310201D01*
X82411634Y-36310199D01*
X82411639Y-36310199D01*
X82549132Y-36253248D01*
X82672871Y-36170568D01*
X82778104Y-36065335D01*
X82860784Y-35941596D01*
X82917735Y-35804103D01*
X82946768Y-35658142D01*
X82946768Y-35509322D01*
X82946508Y-35508018D01*
X82917737Y-35363368D01*
X82917734Y-35363359D01*
X82860787Y-35225874D01*
X82860780Y-35225861D01*
X82778104Y-35102129D01*
X82778101Y-35102125D01*
X82672874Y-34996898D01*
X82672870Y-34996895D01*
X82549138Y-34914219D01*
X82549125Y-34914212D01*
X82411640Y-34857265D01*
X82411631Y-34857262D01*
X82265682Y-34828232D01*
X82265678Y-34828232D01*
X82116858Y-34828232D01*
X82116853Y-34828232D01*
X81970904Y-34857262D01*
X81970895Y-34857265D01*
X81833410Y-34914212D01*
X81833397Y-34914219D01*
X81709665Y-34996895D01*
X81709661Y-34996898D01*
X81604434Y-35102125D01*
X81604431Y-35102129D01*
X81521755Y-35225861D01*
X81521748Y-35225874D01*
X81464801Y-35363359D01*
X81464798Y-35363368D01*
X81435768Y-35509317D01*
X20500500Y-35509317D01*
X20500500Y-34325585D01*
X44569500Y-34325585D01*
X44569500Y-34474414D01*
X44598530Y-34620363D01*
X44598533Y-34620372D01*
X44655480Y-34757857D01*
X44655487Y-34757870D01*
X44738163Y-34881602D01*
X44738166Y-34881606D01*
X44843393Y-34986833D01*
X44843397Y-34986836D01*
X44967129Y-35069512D01*
X44967142Y-35069519D01*
X45045871Y-35102129D01*
X45104629Y-35126467D01*
X45104631Y-35126467D01*
X45104636Y-35126469D01*
X45250585Y-35155499D01*
X45250589Y-35155500D01*
X45250590Y-35155500D01*
X45399411Y-35155500D01*
X45399412Y-35155499D01*
X45448063Y-35145822D01*
X45545363Y-35126469D01*
X45545366Y-35126467D01*
X45545371Y-35126467D01*
X45682864Y-35069516D01*
X45806603Y-34986836D01*
X45911836Y-34881603D01*
X45994516Y-34757864D01*
X46051467Y-34620371D01*
X46064371Y-34555500D01*
X46070822Y-34523063D01*
X46080500Y-34474410D01*
X46080500Y-34325590D01*
X46080499Y-34325585D01*
X49644500Y-34325585D01*
X49644500Y-34474414D01*
X49673530Y-34620363D01*
X49673533Y-34620372D01*
X49730480Y-34757857D01*
X49730487Y-34757870D01*
X49813163Y-34881602D01*
X49813166Y-34881606D01*
X49918393Y-34986833D01*
X49918397Y-34986836D01*
X50042129Y-35069512D01*
X50042142Y-35069519D01*
X50120871Y-35102129D01*
X50179629Y-35126467D01*
X50179631Y-35126467D01*
X50179636Y-35126469D01*
X50325585Y-35155499D01*
X50325589Y-35155500D01*
X50325590Y-35155500D01*
X50474411Y-35155500D01*
X50474412Y-35155499D01*
X50523063Y-35145822D01*
X50620363Y-35126469D01*
X50620366Y-35126467D01*
X50620371Y-35126467D01*
X50757864Y-35069516D01*
X50881603Y-34986836D01*
X50986836Y-34881603D01*
X51069516Y-34757864D01*
X51126467Y-34620371D01*
X51139371Y-34555500D01*
X51150294Y-34500585D01*
X55044500Y-34500585D01*
X55044500Y-34649414D01*
X55073530Y-34795363D01*
X55073533Y-34795372D01*
X55130480Y-34932857D01*
X55130487Y-34932870D01*
X55213163Y-35056602D01*
X55213166Y-35056606D01*
X55318393Y-35161833D01*
X55318397Y-35161836D01*
X55442129Y-35244512D01*
X55442142Y-35244519D01*
X55519273Y-35276467D01*
X55579629Y-35301467D01*
X55579631Y-35301467D01*
X55579636Y-35301469D01*
X55725585Y-35330499D01*
X55725589Y-35330500D01*
X55725590Y-35330500D01*
X55874411Y-35330500D01*
X55874412Y-35330499D01*
X55923063Y-35320822D01*
X56020363Y-35301469D01*
X56020366Y-35301467D01*
X56020371Y-35301467D01*
X56157864Y-35244516D01*
X56281603Y-35161836D01*
X56386836Y-35056603D01*
X56469516Y-34932864D01*
X56526467Y-34795371D01*
X56531442Y-34770363D01*
X56555499Y-34649414D01*
X56555500Y-34649411D01*
X56555500Y-34500590D01*
X56554127Y-34493687D01*
X56554127Y-34493684D01*
X56550527Y-34475585D01*
X68094500Y-34475585D01*
X68094500Y-34624414D01*
X68123530Y-34770363D01*
X68123533Y-34770372D01*
X68180480Y-34907857D01*
X68180487Y-34907870D01*
X68263163Y-35031602D01*
X68263166Y-35031606D01*
X68368393Y-35136833D01*
X68368397Y-35136836D01*
X68492129Y-35219512D01*
X68492142Y-35219519D01*
X68552499Y-35244519D01*
X68629629Y-35276467D01*
X68629631Y-35276467D01*
X68629636Y-35276469D01*
X68775585Y-35305499D01*
X68775589Y-35305500D01*
X68775590Y-35305500D01*
X68924411Y-35305500D01*
X68924412Y-35305499D01*
X68973063Y-35295822D01*
X69070363Y-35276469D01*
X69070366Y-35276467D01*
X69070371Y-35276467D01*
X69207864Y-35219516D01*
X69331603Y-35136836D01*
X69436836Y-35031603D01*
X69519516Y-34907864D01*
X69576467Y-34770371D01*
X69578957Y-34757857D01*
X69605499Y-34624414D01*
X69605500Y-34624411D01*
X69605500Y-34475589D01*
X69605499Y-34475585D01*
X69576469Y-34329636D01*
X69576466Y-34329627D01*
X69574793Y-34325589D01*
X69529874Y-34217142D01*
X69519519Y-34192142D01*
X69519512Y-34192129D01*
X69436836Y-34068397D01*
X69436833Y-34068393D01*
X69331606Y-33963166D01*
X69331602Y-33963163D01*
X69207870Y-33880487D01*
X69207858Y-33880480D01*
X69095783Y-33834059D01*
X69070372Y-33823533D01*
X69070363Y-33823530D01*
X68924414Y-33794500D01*
X68924410Y-33794500D01*
X68775590Y-33794500D01*
X68775585Y-33794500D01*
X68629636Y-33823530D01*
X68629627Y-33823533D01*
X68492142Y-33880480D01*
X68492129Y-33880487D01*
X68368397Y-33963163D01*
X68368393Y-33963166D01*
X68263166Y-34068393D01*
X68263163Y-34068397D01*
X68180487Y-34192129D01*
X68180480Y-34192142D01*
X68123533Y-34329627D01*
X68123530Y-34329636D01*
X68094500Y-34475585D01*
X56550527Y-34475585D01*
X56526469Y-34354636D01*
X56526466Y-34354627D01*
X56469519Y-34217142D01*
X56469512Y-34217129D01*
X56386836Y-34093397D01*
X56386833Y-34093393D01*
X56281606Y-33988166D01*
X56281602Y-33988163D01*
X56157870Y-33905487D01*
X56157857Y-33905480D01*
X56020372Y-33848533D01*
X56020363Y-33848530D01*
X55874414Y-33819500D01*
X55874410Y-33819500D01*
X55725590Y-33819500D01*
X55725585Y-33819500D01*
X55579636Y-33848530D01*
X55579627Y-33848533D01*
X55442142Y-33905480D01*
X55442129Y-33905487D01*
X55318397Y-33988163D01*
X55318393Y-33988166D01*
X55213166Y-34093393D01*
X55213163Y-34093397D01*
X55130487Y-34217129D01*
X55130480Y-34217142D01*
X55073533Y-34354627D01*
X55073530Y-34354636D01*
X55044500Y-34500585D01*
X51150294Y-34500585D01*
X51155499Y-34474417D01*
X51155500Y-34474411D01*
X51155500Y-34325589D01*
X51155499Y-34325585D01*
X51126469Y-34179636D01*
X51126466Y-34179627D01*
X51069519Y-34042142D01*
X51069512Y-34042129D01*
X50986836Y-33918397D01*
X50986833Y-33918393D01*
X50881606Y-33813166D01*
X50881602Y-33813163D01*
X50757870Y-33730487D01*
X50757857Y-33730480D01*
X50746039Y-33725585D01*
X84669500Y-33725585D01*
X84669500Y-33874414D01*
X84698530Y-34020363D01*
X84698533Y-34020372D01*
X84755480Y-34157857D01*
X84755487Y-34157870D01*
X84838163Y-34281602D01*
X84838166Y-34281606D01*
X84943393Y-34386833D01*
X84943397Y-34386836D01*
X85067129Y-34469512D01*
X85067142Y-34469519D01*
X85142156Y-34500590D01*
X85204629Y-34526467D01*
X85204631Y-34526467D01*
X85204636Y-34526469D01*
X85350585Y-34555499D01*
X85350589Y-34555500D01*
X85350590Y-34555500D01*
X85499411Y-34555500D01*
X85499412Y-34555499D01*
X85548063Y-34545822D01*
X85645363Y-34526469D01*
X85645366Y-34526467D01*
X85645371Y-34526467D01*
X85782864Y-34469516D01*
X85906603Y-34386836D01*
X86011836Y-34281603D01*
X86094516Y-34157864D01*
X86151467Y-34020371D01*
X86157874Y-33988164D01*
X86179292Y-33880484D01*
X86180500Y-33874410D01*
X86180500Y-33725590D01*
X86180240Y-33724286D01*
X86151469Y-33579636D01*
X86151466Y-33579627D01*
X86094519Y-33442142D01*
X86094512Y-33442129D01*
X86011836Y-33318397D01*
X86011833Y-33318393D01*
X85906606Y-33213166D01*
X85906602Y-33213163D01*
X85782870Y-33130487D01*
X85782857Y-33130480D01*
X85645372Y-33073533D01*
X85645363Y-33073530D01*
X85499414Y-33044500D01*
X85499410Y-33044500D01*
X85350590Y-33044500D01*
X85350585Y-33044500D01*
X85204636Y-33073530D01*
X85204627Y-33073533D01*
X85067142Y-33130480D01*
X85067129Y-33130487D01*
X84943397Y-33213163D01*
X84943393Y-33213166D01*
X84838166Y-33318393D01*
X84838163Y-33318397D01*
X84755487Y-33442129D01*
X84755480Y-33442142D01*
X84698533Y-33579627D01*
X84698530Y-33579636D01*
X84669500Y-33725585D01*
X50746039Y-33725585D01*
X50620372Y-33673533D01*
X50620363Y-33673530D01*
X50474414Y-33644500D01*
X50474410Y-33644500D01*
X50325590Y-33644500D01*
X50325585Y-33644500D01*
X50179636Y-33673530D01*
X50179627Y-33673533D01*
X50042142Y-33730480D01*
X50042129Y-33730487D01*
X49918397Y-33813163D01*
X49918393Y-33813166D01*
X49813166Y-33918393D01*
X49813163Y-33918397D01*
X49730487Y-34042129D01*
X49730480Y-34042142D01*
X49673533Y-34179627D01*
X49673530Y-34179636D01*
X49644500Y-34325585D01*
X46080499Y-34325585D01*
X46071751Y-34281603D01*
X46051469Y-34179636D01*
X46051466Y-34179627D01*
X45994519Y-34042142D01*
X45994512Y-34042129D01*
X45911836Y-33918397D01*
X45911833Y-33918393D01*
X45806606Y-33813166D01*
X45806602Y-33813163D01*
X45682870Y-33730487D01*
X45682857Y-33730480D01*
X45545372Y-33673533D01*
X45545363Y-33673530D01*
X45399414Y-33644500D01*
X45399410Y-33644500D01*
X45250590Y-33644500D01*
X45250585Y-33644500D01*
X45104636Y-33673530D01*
X45104627Y-33673533D01*
X44967142Y-33730480D01*
X44967129Y-33730487D01*
X44843397Y-33813163D01*
X44843393Y-33813166D01*
X44738166Y-33918393D01*
X44738163Y-33918397D01*
X44655487Y-34042129D01*
X44655480Y-34042142D01*
X44598533Y-34179627D01*
X44598530Y-34179636D01*
X44569500Y-34325585D01*
X20500500Y-34325585D01*
X20500500Y-30902135D01*
X23649500Y-30902135D01*
X23649500Y-32697870D01*
X23649501Y-32697876D01*
X23655908Y-32757483D01*
X23706202Y-32892328D01*
X23706206Y-32892335D01*
X23792452Y-33007544D01*
X23792455Y-33007547D01*
X23907664Y-33093793D01*
X23907671Y-33093797D01*
X24042517Y-33144091D01*
X24042516Y-33144091D01*
X24049444Y-33144835D01*
X24102127Y-33150500D01*
X25897872Y-33150499D01*
X25957483Y-33144091D01*
X26092331Y-33093796D01*
X26207546Y-33007546D01*
X26293796Y-32892331D01*
X26344091Y-32757483D01*
X26350500Y-32697873D01*
X26350500Y-32675585D01*
X63944500Y-32675585D01*
X63944500Y-32824414D01*
X63973530Y-32970363D01*
X63973533Y-32970372D01*
X64030480Y-33107857D01*
X64030487Y-33107870D01*
X64113163Y-33231602D01*
X64113166Y-33231606D01*
X64218393Y-33336833D01*
X64218397Y-33336836D01*
X64342129Y-33419512D01*
X64342142Y-33419519D01*
X64396760Y-33442142D01*
X64479629Y-33476467D01*
X64479631Y-33476467D01*
X64479636Y-33476469D01*
X64625585Y-33505499D01*
X64625589Y-33505500D01*
X64625590Y-33505500D01*
X64774411Y-33505500D01*
X64774412Y-33505499D01*
X64823063Y-33495822D01*
X64920363Y-33476469D01*
X64920366Y-33476467D01*
X64920371Y-33476467D01*
X65057864Y-33419516D01*
X65181603Y-33336836D01*
X65286836Y-33231603D01*
X65369516Y-33107864D01*
X65426467Y-32970371D01*
X65441991Y-32892328D01*
X65455499Y-32824414D01*
X65455500Y-32824411D01*
X65455500Y-32675589D01*
X65455499Y-32675585D01*
X65426469Y-32529636D01*
X65426466Y-32529627D01*
X65369519Y-32392142D01*
X65369512Y-32392129D01*
X65367013Y-32388389D01*
X65325048Y-32325585D01*
X89069500Y-32325585D01*
X89069500Y-32474414D01*
X89098530Y-32620363D01*
X89098533Y-32620372D01*
X89155480Y-32757857D01*
X89155487Y-32757870D01*
X89238163Y-32881602D01*
X89238166Y-32881606D01*
X89343393Y-32986833D01*
X89343397Y-32986836D01*
X89467129Y-33069512D01*
X89467142Y-33069519D01*
X89570255Y-33112229D01*
X89604629Y-33126467D01*
X89604631Y-33126467D01*
X89604636Y-33126469D01*
X89750585Y-33155499D01*
X89750589Y-33155500D01*
X89750590Y-33155500D01*
X89899411Y-33155500D01*
X89899412Y-33155499D01*
X89956768Y-33144091D01*
X90045363Y-33126469D01*
X90045366Y-33126467D01*
X90045371Y-33126467D01*
X90182864Y-33069516D01*
X90306603Y-32986836D01*
X90411836Y-32881603D01*
X90494516Y-32757864D01*
X90551467Y-32620371D01*
X90580500Y-32474410D01*
X90580500Y-32325590D01*
X90569123Y-32268393D01*
X90551469Y-32179636D01*
X90551466Y-32179627D01*
X90494519Y-32042142D01*
X90494512Y-32042129D01*
X90411836Y-31918397D01*
X90411833Y-31918393D01*
X90306606Y-31813166D01*
X90306602Y-31813163D01*
X90182870Y-31730487D01*
X90182857Y-31730480D01*
X90045372Y-31673533D01*
X90045363Y-31673530D01*
X89899414Y-31644500D01*
X89899410Y-31644500D01*
X89750590Y-31644500D01*
X89750585Y-31644500D01*
X89604636Y-31673530D01*
X89604627Y-31673533D01*
X89467142Y-31730480D01*
X89467129Y-31730487D01*
X89343397Y-31813163D01*
X89343393Y-31813166D01*
X89238166Y-31918393D01*
X89238163Y-31918397D01*
X89155487Y-32042129D01*
X89155480Y-32042142D01*
X89098533Y-32179627D01*
X89098530Y-32179636D01*
X89069500Y-32325585D01*
X65325048Y-32325585D01*
X65286836Y-32268397D01*
X65286833Y-32268393D01*
X65181606Y-32163166D01*
X65181602Y-32163163D01*
X65057870Y-32080487D01*
X65057857Y-32080480D01*
X64920372Y-32023533D01*
X64920363Y-32023530D01*
X64774414Y-31994500D01*
X64774410Y-31994500D01*
X64625590Y-31994500D01*
X64625585Y-31994500D01*
X64479636Y-32023530D01*
X64479627Y-32023533D01*
X64342142Y-32080480D01*
X64342129Y-32080487D01*
X64218397Y-32163163D01*
X64218393Y-32163166D01*
X64113166Y-32268393D01*
X64113163Y-32268397D01*
X64030487Y-32392129D01*
X64030480Y-32392142D01*
X63973533Y-32529627D01*
X63973530Y-32529636D01*
X63944500Y-32675585D01*
X26350500Y-32675585D01*
X26350499Y-30925585D01*
X57444500Y-30925585D01*
X57444500Y-31074414D01*
X57473530Y-31220363D01*
X57473533Y-31220372D01*
X57530480Y-31357857D01*
X57530487Y-31357870D01*
X57613163Y-31481602D01*
X57613166Y-31481606D01*
X57718393Y-31586833D01*
X57718397Y-31586836D01*
X57842129Y-31669512D01*
X57842142Y-31669519D01*
X57945255Y-31712229D01*
X57979629Y-31726467D01*
X57979631Y-31726467D01*
X57979636Y-31726469D01*
X58125585Y-31755499D01*
X58125589Y-31755500D01*
X58125590Y-31755500D01*
X58274411Y-31755500D01*
X58274412Y-31755499D01*
X58323063Y-31745822D01*
X58420363Y-31726469D01*
X58420366Y-31726467D01*
X58420371Y-31726467D01*
X58557864Y-31669516D01*
X58681603Y-31586836D01*
X58786836Y-31481603D01*
X58869516Y-31357864D01*
X58926467Y-31220371D01*
X58955500Y-31074410D01*
X58955500Y-30925590D01*
X58936806Y-30831606D01*
X58926469Y-30779636D01*
X58926466Y-30779627D01*
X58869519Y-30642142D01*
X58869512Y-30642129D01*
X58786836Y-30518397D01*
X58786833Y-30518393D01*
X58681606Y-30413166D01*
X58681602Y-30413163D01*
X58620896Y-30372600D01*
X58557870Y-30330487D01*
X58557857Y-30330480D01*
X58425326Y-30275585D01*
X89094500Y-30275585D01*
X89094500Y-30424414D01*
X89123530Y-30570363D01*
X89123533Y-30570372D01*
X89180480Y-30707857D01*
X89180487Y-30707870D01*
X89263163Y-30831602D01*
X89263166Y-30831606D01*
X89368393Y-30936833D01*
X89368397Y-30936836D01*
X89492129Y-31019512D01*
X89492142Y-31019519D01*
X89595255Y-31062229D01*
X89629629Y-31076467D01*
X89629631Y-31076467D01*
X89629636Y-31076469D01*
X89775585Y-31105499D01*
X89775589Y-31105500D01*
X89775590Y-31105500D01*
X89924411Y-31105500D01*
X89924412Y-31105499D01*
X89973063Y-31095822D01*
X90070363Y-31076469D01*
X90070366Y-31076467D01*
X90070371Y-31076467D01*
X90207864Y-31019516D01*
X90331603Y-30936836D01*
X90436836Y-30831603D01*
X90519516Y-30707864D01*
X90576467Y-30570371D01*
X90589231Y-30506204D01*
X90595822Y-30473063D01*
X90605500Y-30424410D01*
X90605500Y-30275590D01*
X90599316Y-30244500D01*
X90576469Y-30129636D01*
X90576466Y-30129627D01*
X90519519Y-29992142D01*
X90519512Y-29992129D01*
X90436836Y-29868397D01*
X90436833Y-29868393D01*
X90331606Y-29763166D01*
X90331602Y-29763163D01*
X90207870Y-29680487D01*
X90207857Y-29680480D01*
X90070372Y-29623533D01*
X90070363Y-29623530D01*
X89924414Y-29594500D01*
X89924410Y-29594500D01*
X89775590Y-29594500D01*
X89775585Y-29594500D01*
X89629636Y-29623530D01*
X89629627Y-29623533D01*
X89492142Y-29680480D01*
X89492129Y-29680487D01*
X89368397Y-29763163D01*
X89368393Y-29763166D01*
X89263166Y-29868393D01*
X89263163Y-29868397D01*
X89180487Y-29992129D01*
X89180480Y-29992142D01*
X89123533Y-30129627D01*
X89123530Y-30129636D01*
X89094500Y-30275585D01*
X58425326Y-30275585D01*
X58420372Y-30273533D01*
X58420363Y-30273530D01*
X58274414Y-30244500D01*
X58274410Y-30244500D01*
X58125590Y-30244500D01*
X58125585Y-30244500D01*
X57979636Y-30273530D01*
X57979627Y-30273533D01*
X57842142Y-30330480D01*
X57842129Y-30330487D01*
X57718397Y-30413163D01*
X57718393Y-30413166D01*
X57613166Y-30518393D01*
X57613163Y-30518397D01*
X57530487Y-30642129D01*
X57530480Y-30642142D01*
X57473533Y-30779627D01*
X57473530Y-30779636D01*
X57444500Y-30925585D01*
X26350499Y-30925585D01*
X26350499Y-30902128D01*
X26344091Y-30842517D01*
X26340021Y-30831606D01*
X26293797Y-30707671D01*
X26293793Y-30707664D01*
X26207547Y-30592455D01*
X26207544Y-30592452D01*
X26092335Y-30506206D01*
X26092328Y-30506202D01*
X25957482Y-30455908D01*
X25957483Y-30455908D01*
X25897883Y-30449501D01*
X25897881Y-30449500D01*
X25897873Y-30449500D01*
X25897864Y-30449500D01*
X24102129Y-30449500D01*
X24102123Y-30449501D01*
X24042516Y-30455908D01*
X23907671Y-30506202D01*
X23907664Y-30506206D01*
X23792455Y-30592452D01*
X23792452Y-30592455D01*
X23706206Y-30707664D01*
X23706202Y-30707671D01*
X23655908Y-30842517D01*
X23649501Y-30902116D01*
X23649501Y-30902123D01*
X23649500Y-30902135D01*
X20500500Y-30902135D01*
X20500500Y-27175585D01*
X58944500Y-27175585D01*
X58944500Y-27324414D01*
X58973530Y-27470363D01*
X58973533Y-27470372D01*
X59030480Y-27607857D01*
X59030487Y-27607870D01*
X59113163Y-27731602D01*
X59113166Y-27731606D01*
X59218393Y-27836833D01*
X59218397Y-27836836D01*
X59342129Y-27919512D01*
X59342142Y-27919519D01*
X59445255Y-27962229D01*
X59479629Y-27976467D01*
X59479631Y-27976467D01*
X59479636Y-27976469D01*
X59625585Y-28005499D01*
X59625589Y-28005500D01*
X59625590Y-28005500D01*
X59774411Y-28005500D01*
X59774412Y-28005499D01*
X59823063Y-27995822D01*
X59920363Y-27976469D01*
X59920366Y-27976467D01*
X59920371Y-27976467D01*
X60057864Y-27919516D01*
X60181603Y-27836836D01*
X60286836Y-27731603D01*
X60369516Y-27607864D01*
X60426467Y-27470371D01*
X60443299Y-27385751D01*
X60475683Y-27323840D01*
X60536399Y-27289266D01*
X60589107Y-27288325D01*
X60700587Y-27310499D01*
X60700589Y-27310500D01*
X60700590Y-27310500D01*
X60849411Y-27310500D01*
X60849412Y-27310499D01*
X60898063Y-27300822D01*
X60995363Y-27281469D01*
X60995366Y-27281467D01*
X60995371Y-27281467D01*
X61132864Y-27224516D01*
X61256603Y-27141836D01*
X61361836Y-27036603D01*
X61369198Y-27025585D01*
X62944500Y-27025585D01*
X62944500Y-27174414D01*
X62973530Y-27320363D01*
X62973533Y-27320372D01*
X63030480Y-27457857D01*
X63030487Y-27457870D01*
X63113163Y-27581602D01*
X63113166Y-27581606D01*
X63218393Y-27686833D01*
X63218397Y-27686836D01*
X63342129Y-27769512D01*
X63342142Y-27769519D01*
X63445255Y-27812229D01*
X63479629Y-27826467D01*
X63479631Y-27826467D01*
X63479636Y-27826469D01*
X63625585Y-27855499D01*
X63625589Y-27855500D01*
X63625590Y-27855500D01*
X63774411Y-27855500D01*
X63774412Y-27855499D01*
X63823063Y-27845822D01*
X63920363Y-27826469D01*
X63920366Y-27826467D01*
X63920371Y-27826467D01*
X64057864Y-27769516D01*
X64181603Y-27686836D01*
X64286836Y-27581603D01*
X64369516Y-27457864D01*
X64426467Y-27320371D01*
X64428431Y-27310500D01*
X64455499Y-27174414D01*
X64455500Y-27174411D01*
X64455500Y-27025589D01*
X64455499Y-27025585D01*
X64429265Y-26893694D01*
X64429263Y-26893688D01*
X64426467Y-26879629D01*
X64424792Y-26875585D01*
X76144500Y-26875585D01*
X76144500Y-27024414D01*
X76173530Y-27170363D01*
X76173533Y-27170372D01*
X76230480Y-27307857D01*
X76230487Y-27307870D01*
X76313163Y-27431602D01*
X76313166Y-27431606D01*
X76418393Y-27536833D01*
X76418397Y-27536836D01*
X76542129Y-27619512D01*
X76542142Y-27619519D01*
X76645255Y-27662229D01*
X76679629Y-27676467D01*
X76679631Y-27676467D01*
X76679636Y-27676469D01*
X76825585Y-27705499D01*
X76825589Y-27705500D01*
X76825590Y-27705500D01*
X76974411Y-27705500D01*
X76974412Y-27705499D01*
X77023063Y-27695822D01*
X77120363Y-27676469D01*
X77120366Y-27676467D01*
X77120371Y-27676467D01*
X77257864Y-27619516D01*
X77381603Y-27536836D01*
X77486836Y-27431603D01*
X77569516Y-27307864D01*
X77626467Y-27170371D01*
X77632144Y-27141833D01*
X77653075Y-27036602D01*
X77655500Y-27024410D01*
X77655500Y-26875590D01*
X77643500Y-26815262D01*
X77626469Y-26729636D01*
X77626466Y-26729627D01*
X77625677Y-26727723D01*
X77601566Y-26669512D01*
X77569519Y-26592142D01*
X77569512Y-26592129D01*
X77486836Y-26468397D01*
X77486833Y-26468393D01*
X77381606Y-26363166D01*
X77381602Y-26363163D01*
X77257870Y-26280487D01*
X77257857Y-26280480D01*
X77120372Y-26223533D01*
X77120363Y-26223530D01*
X76974414Y-26194500D01*
X76974410Y-26194500D01*
X76825590Y-26194500D01*
X76825585Y-26194500D01*
X76679636Y-26223530D01*
X76679627Y-26223533D01*
X76542142Y-26280480D01*
X76542129Y-26280487D01*
X76418397Y-26363163D01*
X76418393Y-26363166D01*
X76313166Y-26468393D01*
X76313163Y-26468397D01*
X76230487Y-26592129D01*
X76230480Y-26592142D01*
X76173533Y-26729627D01*
X76173530Y-26729636D01*
X76144500Y-26875585D01*
X64424792Y-26875585D01*
X64390699Y-26793276D01*
X64369519Y-26742142D01*
X64369512Y-26742129D01*
X64286836Y-26618397D01*
X64286833Y-26618393D01*
X64181606Y-26513166D01*
X64181602Y-26513163D01*
X64057870Y-26430487D01*
X64057857Y-26430480D01*
X63920372Y-26373533D01*
X63920363Y-26373530D01*
X63774414Y-26344500D01*
X63774410Y-26344500D01*
X63625590Y-26344500D01*
X63625585Y-26344500D01*
X63479636Y-26373530D01*
X63479627Y-26373533D01*
X63342142Y-26430480D01*
X63342129Y-26430487D01*
X63218397Y-26513163D01*
X63218393Y-26513166D01*
X63113166Y-26618393D01*
X63113163Y-26618397D01*
X63030487Y-26742129D01*
X63030480Y-26742142D01*
X62973533Y-26879627D01*
X62973530Y-26879636D01*
X62944500Y-27025585D01*
X61369198Y-27025585D01*
X61444516Y-26912864D01*
X61483096Y-26819722D01*
X61484961Y-26815964D01*
X61505935Y-26793276D01*
X61525319Y-26769223D01*
X61529440Y-26767851D01*
X61532391Y-26764660D01*
X61562302Y-26756913D01*
X61591613Y-26747157D01*
X61597989Y-26747670D01*
X61600029Y-26747142D01*
X61602816Y-26748058D01*
X61620226Y-26749460D01*
X61650590Y-26755500D01*
X61650591Y-26755500D01*
X61799411Y-26755500D01*
X61799412Y-26755499D01*
X61848063Y-26745822D01*
X61945363Y-26726469D01*
X61945366Y-26726467D01*
X61945371Y-26726467D01*
X62082864Y-26669516D01*
X62206603Y-26586836D01*
X62311836Y-26481603D01*
X62394516Y-26357864D01*
X62451467Y-26220371D01*
X62456088Y-26197142D01*
X62480499Y-26074414D01*
X62480500Y-26074411D01*
X62480500Y-25925589D01*
X62480499Y-25925585D01*
X62451469Y-25779636D01*
X62451466Y-25779627D01*
X62394519Y-25642142D01*
X62394512Y-25642129D01*
X62311836Y-25518397D01*
X62311833Y-25518393D01*
X62206606Y-25413166D01*
X62206602Y-25413163D01*
X62082870Y-25330487D01*
X62082857Y-25330480D01*
X61945372Y-25273533D01*
X61945363Y-25273530D01*
X61799414Y-25244500D01*
X61799410Y-25244500D01*
X61650590Y-25244500D01*
X61650585Y-25244500D01*
X61504636Y-25273530D01*
X61504627Y-25273533D01*
X61367142Y-25330480D01*
X61367129Y-25330487D01*
X61243397Y-25413163D01*
X61243393Y-25413166D01*
X61138166Y-25518393D01*
X61138163Y-25518397D01*
X61055487Y-25642129D01*
X61055482Y-25642139D01*
X61018520Y-25731373D01*
X60974678Y-25785777D01*
X60908384Y-25807841D01*
X60879771Y-25805538D01*
X60849411Y-25799500D01*
X60849410Y-25799500D01*
X60700590Y-25799500D01*
X60700585Y-25799500D01*
X60554636Y-25828530D01*
X60554627Y-25828533D01*
X60417142Y-25885480D01*
X60417129Y-25885487D01*
X60293397Y-25968163D01*
X60293393Y-25968166D01*
X60188166Y-26073393D01*
X60188163Y-26073397D01*
X60105487Y-26197129D01*
X60105480Y-26197142D01*
X60048533Y-26334627D01*
X60048531Y-26334635D01*
X60031700Y-26419249D01*
X59999315Y-26481160D01*
X59938599Y-26515734D01*
X59885892Y-26516674D01*
X59774410Y-26494500D01*
X59625590Y-26494500D01*
X59625585Y-26494500D01*
X59479636Y-26523530D01*
X59479627Y-26523533D01*
X59342142Y-26580480D01*
X59342129Y-26580487D01*
X59218397Y-26663163D01*
X59218393Y-26663166D01*
X59113166Y-26768393D01*
X59113163Y-26768397D01*
X59030487Y-26892129D01*
X59030480Y-26892142D01*
X58973533Y-27029627D01*
X58973530Y-27029636D01*
X58944500Y-27175585D01*
X20500500Y-27175585D01*
X20500500Y-25566500D01*
X20520185Y-25499461D01*
X20572989Y-25453706D01*
X20642147Y-25443762D01*
X20705703Y-25472787D01*
X20729492Y-25500526D01*
X20785685Y-25589956D01*
X21009812Y-25871003D01*
X21263997Y-26125188D01*
X21545044Y-26349315D01*
X21849418Y-26540566D01*
X21849420Y-26540567D01*
X21899310Y-26564593D01*
X22173292Y-26696536D01*
X22381020Y-26769223D01*
X22512580Y-26815258D01*
X22512592Y-26815262D01*
X22863052Y-26895252D01*
X23220260Y-26935499D01*
X23220261Y-26935500D01*
X23220264Y-26935500D01*
X23579739Y-26935500D01*
X23579739Y-26935499D01*
X23936948Y-26895252D01*
X24287408Y-26815262D01*
X24626708Y-26696536D01*
X24950582Y-26540566D01*
X25254956Y-26349315D01*
X25536003Y-26125188D01*
X25599386Y-26061805D01*
X30742499Y-26061805D01*
X30766613Y-26183029D01*
X30766616Y-26183039D01*
X30813913Y-26297226D01*
X30813920Y-26297239D01*
X30882588Y-26400007D01*
X30882591Y-26400011D01*
X30969988Y-26487408D01*
X30969992Y-26487411D01*
X31072760Y-26556079D01*
X31072773Y-26556086D01*
X31186960Y-26603383D01*
X31186965Y-26603385D01*
X31186969Y-26603385D01*
X31186970Y-26603386D01*
X31308194Y-26627500D01*
X31308197Y-26627500D01*
X31431805Y-26627500D01*
X31513361Y-26611276D01*
X31553035Y-26603385D01*
X31667233Y-26556083D01*
X31770008Y-26487411D01*
X31857411Y-26400008D01*
X31926083Y-26297233D01*
X31973385Y-26183035D01*
X31984892Y-26125188D01*
X31997500Y-26061805D01*
X31997500Y-25938194D01*
X31973386Y-25816970D01*
X31973385Y-25816969D01*
X31973385Y-25816965D01*
X31968652Y-25805538D01*
X31926086Y-25702773D01*
X31926079Y-25702760D01*
X31857411Y-25599992D01*
X31857408Y-25599988D01*
X31770011Y-25512591D01*
X31770007Y-25512588D01*
X31694006Y-25461805D01*
X51062499Y-25461805D01*
X51086613Y-25583029D01*
X51086616Y-25583039D01*
X51133913Y-25697226D01*
X51133920Y-25697239D01*
X51202588Y-25800007D01*
X51202591Y-25800011D01*
X51289988Y-25887408D01*
X51289992Y-25887411D01*
X51392760Y-25956079D01*
X51392773Y-25956086D01*
X51506960Y-26003383D01*
X51506965Y-26003385D01*
X51506969Y-26003385D01*
X51506970Y-26003386D01*
X51628194Y-26027500D01*
X51628197Y-26027500D01*
X51751805Y-26027500D01*
X51833361Y-26011276D01*
X51873035Y-26003385D01*
X51987233Y-25956083D01*
X52090008Y-25887411D01*
X52177411Y-25800008D01*
X52246083Y-25697233D01*
X52293385Y-25583035D01*
X52306243Y-25518393D01*
X52317500Y-25461805D01*
X52317500Y-25338194D01*
X52293386Y-25216970D01*
X52293385Y-25216969D01*
X52293385Y-25216965D01*
X52277075Y-25177588D01*
X52246086Y-25102773D01*
X52246079Y-25102760D01*
X52177411Y-24999992D01*
X52177408Y-24999988D01*
X52090011Y-24912591D01*
X52090007Y-24912588D01*
X51987239Y-24843920D01*
X51987226Y-24843913D01*
X51873039Y-24796616D01*
X51873029Y-24796613D01*
X51751805Y-24772500D01*
X51751803Y-24772500D01*
X51628197Y-24772500D01*
X51628195Y-24772500D01*
X51506970Y-24796613D01*
X51506960Y-24796616D01*
X51392773Y-24843913D01*
X51392760Y-24843920D01*
X51289992Y-24912588D01*
X51289988Y-24912591D01*
X51202591Y-24999988D01*
X51202588Y-24999992D01*
X51133920Y-25102760D01*
X51133913Y-25102773D01*
X51086616Y-25216960D01*
X51086613Y-25216970D01*
X51062500Y-25338194D01*
X51062500Y-25338197D01*
X51062500Y-25461803D01*
X51062500Y-25461805D01*
X51062499Y-25461805D01*
X31694006Y-25461805D01*
X31667235Y-25443917D01*
X31667231Y-25443915D01*
X31553039Y-25396616D01*
X31553029Y-25396613D01*
X31431805Y-25372500D01*
X31431803Y-25372500D01*
X31308197Y-25372500D01*
X31308195Y-25372500D01*
X31186970Y-25396613D01*
X31186960Y-25396616D01*
X31072773Y-25443913D01*
X31072760Y-25443920D01*
X30969992Y-25512588D01*
X30969988Y-25512591D01*
X30882591Y-25599988D01*
X30882588Y-25599992D01*
X30813920Y-25702760D01*
X30813913Y-25702773D01*
X30766616Y-25816960D01*
X30766613Y-25816970D01*
X30742500Y-25938194D01*
X30742500Y-25938197D01*
X30742500Y-26061803D01*
X30742500Y-26061805D01*
X30742499Y-26061805D01*
X25599386Y-26061805D01*
X25790188Y-25871003D01*
X26014315Y-25589956D01*
X26205566Y-25285582D01*
X26361536Y-24961708D01*
X26480262Y-24622408D01*
X26560252Y-24271948D01*
X26600500Y-23914736D01*
X26600500Y-23555264D01*
X26560252Y-23198052D01*
X26480262Y-22847592D01*
X26361536Y-22508292D01*
X26205566Y-22184418D01*
X26014315Y-21880044D01*
X25790188Y-21598997D01*
X25536003Y-21344812D01*
X25254956Y-21120685D01*
X24950582Y-20929434D01*
X24950579Y-20929432D01*
X24626711Y-20773465D01*
X24535477Y-20741541D01*
X24478701Y-20700820D01*
X24452954Y-20635867D01*
X24466410Y-20567305D01*
X24514798Y-20516903D01*
X24576432Y-20500500D01*
X97763568Y-20500500D01*
X97830607Y-20520185D01*
G37*
%TD.AperFunction*%
%TD*%
M02*
