%TF.GenerationSoftware,KiCad,Pcbnew,8.0.4*%
%TF.CreationDate,2024-10-19T12:15:14-07:00*%
%TF.ProjectId,camera_controller,63616d65-7261-45f6-936f-6e74726f6c6c,1.0*%
%TF.SameCoordinates,Original*%
%TF.FileFunction,Copper,L2,Inr*%
%TF.FilePolarity,Positive*%
%FSLAX46Y46*%
G04 Gerber Fmt 4.6, Leading zero omitted, Abs format (unit mm)*
G04 Created by KiCad (PCBNEW 8.0.4) date 2024-10-19 12:15:14*
%MOMM*%
%LPD*%
G01*
G04 APERTURE LIST*
G04 Aperture macros list*
%AMRoundRect*
0 Rectangle with rounded corners*
0 $1 Rounding radius*
0 $2 $3 $4 $5 $6 $7 $8 $9 X,Y pos of 4 corners*
0 Add a 4 corners polygon primitive as box body*
4,1,4,$2,$3,$4,$5,$6,$7,$8,$9,$2,$3,0*
0 Add four circle primitives for the rounded corners*
1,1,$1+$1,$2,$3*
1,1,$1+$1,$4,$5*
1,1,$1+$1,$6,$7*
1,1,$1+$1,$8,$9*
0 Add four rect primitives between the rounded corners*
20,1,$1+$1,$2,$3,$4,$5,0*
20,1,$1+$1,$4,$5,$6,$7,0*
20,1,$1+$1,$6,$7,$8,$9,0*
20,1,$1+$1,$8,$9,$2,$3,0*%
G04 Aperture macros list end*
%TA.AperFunction,ComponentPad*%
%ADD10R,1.500000X2.300000*%
%TD*%
%TA.AperFunction,ComponentPad*%
%ADD11O,1.500000X2.300000*%
%TD*%
%TA.AperFunction,ComponentPad*%
%ADD12R,1.700000X1.700000*%
%TD*%
%TA.AperFunction,ComponentPad*%
%ADD13O,1.700000X1.700000*%
%TD*%
%TA.AperFunction,ComponentPad*%
%ADD14C,0.800000*%
%TD*%
%TA.AperFunction,ComponentPad*%
%ADD15C,5.400000*%
%TD*%
%TA.AperFunction,ComponentPad*%
%ADD16RoundRect,0.500000X1.750000X-1.250000X1.750000X1.250000X-1.750000X1.250000X-1.750000X-1.250000X0*%
%TD*%
%TA.AperFunction,ComponentPad*%
%ADD17C,1.700000*%
%TD*%
%TA.AperFunction,ComponentPad*%
%ADD18RoundRect,0.500000X-1.250000X-1.750000X1.250000X-1.750000X1.250000X1.750000X-1.250000X1.750000X0*%
%TD*%
%TA.AperFunction,ViaPad*%
%ADD19C,2.000000*%
%TD*%
%TA.AperFunction,ViaPad*%
%ADD20C,0.600000*%
%TD*%
%TA.AperFunction,ViaPad*%
%ADD21C,0.510000*%
%TD*%
G04 APERTURE END LIST*
D10*
%TO.N,VSS*%
%TO.C,U1*%
X45053000Y-44107500D03*
D11*
%TO.N,GND*%
X47593000Y-44107500D03*
%TO.N,+5V_MCU*%
X50133000Y-44107500D03*
%TD*%
D12*
%TO.N,+5V_MCU*%
%TO.C,J16*%
X25000000Y-31800000D03*
D13*
%TO.N,GND*%
X22460000Y-31800000D03*
%TD*%
D14*
%TO.N,N/C*%
%TO.C,*%
X96915000Y-23735000D03*
X97508109Y-22303109D03*
X97508109Y-25166891D03*
X98940000Y-21710000D03*
D15*
X98940000Y-23735000D03*
D14*
X98940000Y-25760000D03*
X100371891Y-22303109D03*
X100371891Y-25166891D03*
X100965000Y-23735000D03*
%TD*%
%TO.N,N/C*%
%TO.C,*%
X21375000Y-75415000D03*
X21968109Y-73983109D03*
X21968109Y-76846891D03*
X23400000Y-73390000D03*
D15*
X23400000Y-75415000D03*
D14*
X23400000Y-77440000D03*
X24831891Y-73983109D03*
X24831891Y-76846891D03*
X25425000Y-75415000D03*
%TD*%
%TO.N,N/C*%
%TO.C,*%
X96915000Y-75415000D03*
X97508109Y-73983109D03*
X97508109Y-76846891D03*
X98940000Y-73390000D03*
D15*
X98940000Y-75415000D03*
D14*
X98940000Y-77440000D03*
X100371891Y-73983109D03*
X100371891Y-76846891D03*
X100965000Y-75415000D03*
%TD*%
D16*
%TO.N,Vin SW*%
%TO.C,J12*%
X23062500Y-54000000D03*
%TO.N,GND*%
X23062500Y-49000000D03*
%TD*%
D12*
%TO.N,uCTx*%
%TO.C,U3*%
X71725000Y-73125000D03*
D13*
%TO.N,uCRx*%
X71725000Y-70585000D03*
%TO.N,unconnected-(U3-Pin_3-Pad3)*%
X71725000Y-68045000D03*
%TO.N,GND*%
X71725000Y-65505000D03*
%TO.N,ext_uCRx*%
X71725000Y-62965000D03*
%TO.N,ext_uCTx*%
X71725000Y-60425000D03*
%TO.N,CAM2 GPIO 1*%
X71725000Y-57885000D03*
%TO.N,CAM 2 GPIO 2*%
X71725000Y-55345000D03*
%TO.N,CAM1 GPIO 1*%
X71725000Y-52805000D03*
%TO.N,CAM 1 GPIO 2*%
X71725000Y-50265000D03*
%TO.N,Ext Trig In*%
X71725000Y-47725000D03*
%TO.N,Net-(U3-Pin_12)*%
X71725000Y-45185000D03*
%TO.N,Strobe Trig*%
X56485000Y-45055000D03*
%TO.N,Net-(U3-Pin_14)*%
X56485000Y-47595000D03*
%TO.N,Force On*%
X56485000Y-50135000D03*
%TO.N,P Switch*%
X56485000Y-52675000D03*
%TO.N,Status LED*%
X56485000Y-55215000D03*
%TO.N,5V EN*%
X56485000Y-57755000D03*
%TO.N,VSS SW EN*%
X56485000Y-60295000D03*
%TO.N,Strobe EN*%
X56485000Y-62835000D03*
%TO.N,+3.3V*%
X56485000Y-65375000D03*
%TO.N,GND*%
X56485000Y-67915000D03*
X56485000Y-70585000D03*
D17*
%TO.N,+5V_MCU*%
X56485000Y-72995000D03*
D13*
%TO.N,SDA*%
X59025000Y-61565000D03*
D17*
%TO.N,SCL*%
X59025000Y-64105000D03*
%TD*%
D14*
%TO.N,N/C*%
%TO.C,*%
X21375000Y-23735000D03*
X21968109Y-22303109D03*
X21968109Y-25166891D03*
X23400000Y-21710000D03*
D15*
X23400000Y-23735000D03*
D14*
X23400000Y-25760000D03*
X24831891Y-22303109D03*
X24831891Y-25166891D03*
X25425000Y-23735000D03*
%TD*%
D18*
%TO.N,VIN*%
%TO.C,J1*%
X30500000Y-74400000D03*
%TO.N,GND*%
X35500000Y-74400000D03*
%TD*%
D12*
%TO.N,MCU GPIO 2*%
%TO.C,J17*%
X76050000Y-54000000D03*
D13*
%TO.N,GND*%
X76050000Y-51460000D03*
%TD*%
D19*
%TO.N,GND*%
X42800000Y-26100000D03*
X35200000Y-26100000D03*
D20*
X48850000Y-50100000D03*
D21*
X44275000Y-53975000D03*
D19*
X30700000Y-52300000D03*
D21*
X33362500Y-65650000D03*
X95328600Y-33400000D03*
X62700000Y-26250000D03*
X93300000Y-62700000D03*
X92024999Y-70000000D03*
X64700000Y-26275000D03*
X79750000Y-30400000D03*
D19*
X22500000Y-36200000D03*
X41800000Y-75300000D03*
D21*
X83950000Y-32450000D03*
D19*
X47900000Y-26075000D03*
D21*
X95303600Y-69350002D03*
X61200000Y-36100000D03*
X67550000Y-40300000D03*
X78850000Y-37050000D03*
X45700000Y-61400000D03*
X79250000Y-61425000D03*
X61900000Y-30200000D03*
X35212500Y-41508731D03*
X44274997Y-53100000D03*
X85725000Y-72975000D03*
X84950000Y-38325000D03*
X73550000Y-39800000D03*
X75900000Y-26900000D03*
%TO.N,+3.3V*%
X73550000Y-37950000D03*
X58200000Y-31000000D03*
X60475000Y-54125000D03*
X66500000Y-39300000D03*
X74900000Y-59050000D03*
X60425000Y-57587500D03*
X51375000Y-54450000D03*
X63700000Y-27100000D03*
X59050000Y-69350000D03*
X85425000Y-33800000D03*
%TO.N,AIN 2*%
X76900000Y-26950000D03*
%TO.N,Net-(U5-AIN0)*%
X82191268Y-35583732D03*
%TO.N,VIN*%
X25100000Y-66200000D03*
X24100000Y-66200000D03*
X26000000Y-64900000D03*
X23200000Y-64900000D03*
X25100000Y-62400000D03*
X22300000Y-63700000D03*
X24100000Y-64900000D03*
X24100000Y-63700000D03*
X22300000Y-67500000D03*
X23200000Y-67500000D03*
X22300000Y-62400000D03*
X22300000Y-66200000D03*
X25100000Y-64900000D03*
X26000000Y-62400000D03*
X23200000Y-62400000D03*
X26000000Y-67500000D03*
X25100000Y-67500000D03*
X24100000Y-67500000D03*
X26000000Y-66200000D03*
X23200000Y-66200000D03*
X26000000Y-63700000D03*
X25100000Y-63700000D03*
X24100000Y-62400000D03*
X23200000Y-63700000D03*
X22300000Y-64900000D03*
%TO.N,Net-(D1-A)*%
X28125000Y-61200000D03*
%TO.N,Vin SW*%
X22500000Y-56300000D03*
X23300000Y-58900000D03*
X20800000Y-57100000D03*
X21800000Y-58100000D03*
X21800000Y-59300000D03*
X23300000Y-56300000D03*
X20800000Y-56300000D03*
X23300000Y-59700000D03*
X23300000Y-57100000D03*
X22500000Y-57100000D03*
X21600000Y-56300000D03*
X20800000Y-58900000D03*
X23300000Y-58000000D03*
X20800000Y-58000000D03*
X21600000Y-57100000D03*
X20800000Y-59700000D03*
%TO.N,Net-(D2-A)*%
X37457537Y-44421231D03*
%TO.N,SCL*%
X70650000Y-37300000D03*
X54025000Y-60657538D03*
X45600000Y-52200000D03*
%TO.N,SDA*%
X45950000Y-57650000D03*
X70650000Y-38300000D03*
X54800000Y-61575000D03*
%TO.N,Net-(U4-A1)*%
X49400000Y-58800000D03*
X43350000Y-58250000D03*
%TO.N,5V SW*%
X50400000Y-34400000D03*
%TO.N,Strobe Trig Out*%
X68850000Y-34550000D03*
%TO.N,Strobe EN OUT*%
X64700000Y-32750000D03*
%TO.N,P Switch*%
X60775000Y-26555000D03*
%TO.N,Status LED*%
X61725000Y-26000000D03*
%TO.N,Force On*%
X59700000Y-27250000D03*
%TO.N,CAM1 GPIO 1*%
X89825000Y-32400000D03*
%TO.N,CAM 1 GPIO 2*%
X89850000Y-30350000D03*
%TO.N,Net-(U6-G2)*%
X36300000Y-44421231D03*
%TO.N,+5V_MCU*%
X55800000Y-34575000D03*
X45325000Y-34400000D03*
%TO.N,PCTx1*%
X79046801Y-69138118D03*
%TO.N,PCRx1*%
X79700000Y-69600000D03*
%TO.N,ExtRx2*%
X85025000Y-67775000D03*
%TO.N,ExtTx2*%
X91025000Y-70250000D03*
%TO.N,ext_uCTx*%
X75625000Y-67775000D03*
%TO.N,ext_uCRx*%
X74725000Y-69025000D03*
%TO.N,MCU GPIO 2*%
X60400000Y-46400000D03*
%TD*%
%TA.AperFunction,Conductor*%
%TO.N,GND*%
G36*
X97829112Y-20520185D02*
G01*
X97874867Y-20572989D01*
X97884811Y-20642147D01*
X97855786Y-20705703D01*
X97809526Y-20739061D01*
X97549168Y-20846905D01*
X97234545Y-21020790D01*
X96941377Y-21228805D01*
X96673339Y-21468339D01*
X96433805Y-21736377D01*
X96225790Y-22029545D01*
X96051905Y-22344168D01*
X95914339Y-22676281D01*
X95814828Y-23021694D01*
X95814826Y-23021703D01*
X95754614Y-23376085D01*
X95754612Y-23376097D01*
X95734457Y-23735000D01*
X95754612Y-24093902D01*
X95754614Y-24093914D01*
X95814826Y-24448296D01*
X95814828Y-24448305D01*
X95914339Y-24793718D01*
X95914341Y-24793724D01*
X96051906Y-25125833D01*
X96085862Y-25187272D01*
X96225790Y-25440454D01*
X96427960Y-25725384D01*
X96433806Y-25733623D01*
X96673339Y-26001661D01*
X96905106Y-26208780D01*
X96941377Y-26241194D01*
X97172265Y-26405019D01*
X97234548Y-26449211D01*
X97549167Y-26623094D01*
X97881276Y-26760659D01*
X98226700Y-26860173D01*
X98581093Y-26920387D01*
X98940000Y-26940543D01*
X99298907Y-26920387D01*
X99653300Y-26860173D01*
X99998724Y-26760659D01*
X100330833Y-26623094D01*
X100645452Y-26449211D01*
X100938623Y-26241194D01*
X101206661Y-26001661D01*
X101446194Y-25733623D01*
X101654211Y-25440452D01*
X101766972Y-25236424D01*
X101816629Y-25187272D01*
X101884976Y-25172769D01*
X101950315Y-25197519D01*
X101991901Y-25253665D01*
X101999500Y-25296406D01*
X101999500Y-73853593D01*
X101979815Y-73920632D01*
X101927011Y-73966387D01*
X101857853Y-73976331D01*
X101794297Y-73947306D01*
X101766972Y-73913574D01*
X101654209Y-73709545D01*
X101446194Y-73416377D01*
X101206661Y-73148339D01*
X100938623Y-72908806D01*
X100938622Y-72908805D01*
X100645454Y-72700790D01*
X100330831Y-72526905D01*
X100199689Y-72472584D01*
X99998724Y-72389341D01*
X99998720Y-72389339D01*
X99998718Y-72389339D01*
X99653305Y-72289828D01*
X99653296Y-72289826D01*
X99298914Y-72229614D01*
X99298902Y-72229612D01*
X98940000Y-72209457D01*
X98581097Y-72229612D01*
X98581085Y-72229614D01*
X98226703Y-72289826D01*
X98226694Y-72289828D01*
X97881281Y-72389339D01*
X97549168Y-72526905D01*
X97234545Y-72700790D01*
X96941377Y-72908805D01*
X96673339Y-73148339D01*
X96433805Y-73416377D01*
X96225790Y-73709545D01*
X96051905Y-74024168D01*
X95914339Y-74356281D01*
X95814828Y-74701694D01*
X95814826Y-74701703D01*
X95754614Y-75056085D01*
X95754612Y-75056097D01*
X95734457Y-75415000D01*
X95754612Y-75773902D01*
X95754614Y-75773914D01*
X95814826Y-76128296D01*
X95814828Y-76128305D01*
X95872191Y-76327418D01*
X95914341Y-76473724D01*
X96051906Y-76805833D01*
X96082456Y-76861109D01*
X96225790Y-77120454D01*
X96265629Y-77176601D01*
X96433806Y-77413623D01*
X96673339Y-77681661D01*
X96941377Y-77921194D01*
X97234548Y-78129211D01*
X97467550Y-78257986D01*
X97483809Y-78266972D01*
X97532962Y-78316629D01*
X97547465Y-78384977D01*
X97522715Y-78450316D01*
X97466569Y-78491901D01*
X97423828Y-78499500D01*
X24916172Y-78499500D01*
X24849133Y-78479815D01*
X24803378Y-78427011D01*
X24793434Y-78357853D01*
X24822459Y-78294297D01*
X24856191Y-78266972D01*
X24872450Y-78257986D01*
X25105452Y-78129211D01*
X25398623Y-77921194D01*
X25666661Y-77681661D01*
X25906194Y-77413623D01*
X26114211Y-77120452D01*
X26288094Y-76805833D01*
X26425659Y-76473724D01*
X26525173Y-76128300D01*
X26585387Y-75773907D01*
X26605543Y-75415000D01*
X26585387Y-75056093D01*
X26525173Y-74701700D01*
X26425659Y-74356276D01*
X26288094Y-74024167D01*
X26114211Y-73709548D01*
X25906194Y-73416377D01*
X25666661Y-73148339D01*
X25398623Y-72908806D01*
X25398622Y-72908805D01*
X25105454Y-72700790D01*
X24908551Y-72591966D01*
X28249500Y-72591966D01*
X28249500Y-76208028D01*
X28249501Y-76208034D01*
X28260113Y-76327415D01*
X28316089Y-76523045D01*
X28316090Y-76523048D01*
X28316091Y-76523049D01*
X28410302Y-76703407D01*
X28410304Y-76703409D01*
X28538890Y-76861109D01*
X28627874Y-76933665D01*
X28696593Y-76989698D01*
X28876951Y-77083909D01*
X29072582Y-77139886D01*
X29191963Y-77150500D01*
X31808036Y-77150499D01*
X31927418Y-77139886D01*
X32123049Y-77083909D01*
X32303407Y-76989698D01*
X32461109Y-76861109D01*
X32589698Y-76703407D01*
X32683909Y-76523049D01*
X32739886Y-76327418D01*
X32750500Y-76208037D01*
X32750499Y-72994999D01*
X55129341Y-72994999D01*
X55129341Y-72995000D01*
X55149936Y-73230403D01*
X55149938Y-73230413D01*
X55211094Y-73458655D01*
X55211096Y-73458659D01*
X55211097Y-73458663D01*
X55301904Y-73653398D01*
X55310965Y-73672830D01*
X55310967Y-73672834D01*
X55336673Y-73709545D01*
X55446505Y-73866401D01*
X55613599Y-74033495D01*
X55639603Y-74051703D01*
X55807165Y-74169032D01*
X55807167Y-74169033D01*
X55807170Y-74169035D01*
X56021337Y-74268903D01*
X56249592Y-74330063D01*
X56437918Y-74346539D01*
X56484999Y-74350659D01*
X56485000Y-74350659D01*
X56485001Y-74350659D01*
X56524234Y-74347226D01*
X56720408Y-74330063D01*
X56948663Y-74268903D01*
X57162830Y-74169035D01*
X57356401Y-74033495D01*
X57523495Y-73866401D01*
X57659035Y-73672830D01*
X57758903Y-73458663D01*
X57820063Y-73230408D01*
X57840659Y-72995000D01*
X57820063Y-72759592D01*
X57758903Y-72531337D01*
X57659035Y-72317171D01*
X57639890Y-72289828D01*
X57523494Y-72123597D01*
X57356402Y-71956506D01*
X57356395Y-71956501D01*
X57162834Y-71820967D01*
X57162830Y-71820965D01*
X57139963Y-71810302D01*
X56948663Y-71721097D01*
X56948659Y-71721096D01*
X56948655Y-71721094D01*
X56720413Y-71659938D01*
X56720403Y-71659936D01*
X56485001Y-71639341D01*
X56484999Y-71639341D01*
X56249596Y-71659936D01*
X56249586Y-71659938D01*
X56021344Y-71721094D01*
X56021335Y-71721098D01*
X55807171Y-71820964D01*
X55807169Y-71820965D01*
X55613597Y-71956505D01*
X55446505Y-72123597D01*
X55310965Y-72317169D01*
X55310964Y-72317171D01*
X55211098Y-72531335D01*
X55211094Y-72531344D01*
X55149938Y-72759586D01*
X55149936Y-72759596D01*
X55129341Y-72994999D01*
X32750499Y-72994999D01*
X32750499Y-72591964D01*
X32739886Y-72472582D01*
X32683909Y-72276951D01*
X32589698Y-72096593D01*
X32537571Y-72032664D01*
X32461109Y-71938890D01*
X32329039Y-71831202D01*
X32303407Y-71810302D01*
X32123049Y-71716091D01*
X32123048Y-71716090D01*
X32123045Y-71716089D01*
X32005829Y-71682550D01*
X31927418Y-71660114D01*
X31927415Y-71660113D01*
X31927413Y-71660113D01*
X31861102Y-71654217D01*
X31808037Y-71649500D01*
X31808032Y-71649500D01*
X29191971Y-71649500D01*
X29191965Y-71649500D01*
X29191964Y-71649501D01*
X29180316Y-71650536D01*
X29072584Y-71660113D01*
X28876954Y-71716089D01*
X28794739Y-71759035D01*
X28696593Y-71810302D01*
X28696591Y-71810303D01*
X28696590Y-71810304D01*
X28538890Y-71938890D01*
X28410304Y-72096590D01*
X28410302Y-72096593D01*
X28363196Y-72186772D01*
X28316089Y-72276954D01*
X28260114Y-72472583D01*
X28260113Y-72472586D01*
X28249500Y-72591966D01*
X24908551Y-72591966D01*
X24790831Y-72526905D01*
X24659689Y-72472584D01*
X24458724Y-72389341D01*
X24458720Y-72389339D01*
X24458718Y-72389339D01*
X24113305Y-72289828D01*
X24113296Y-72289826D01*
X23758914Y-72229614D01*
X23758902Y-72229612D01*
X23400000Y-72209457D01*
X23041097Y-72229612D01*
X23041085Y-72229614D01*
X22686703Y-72289826D01*
X22686694Y-72289828D01*
X22341281Y-72389339D01*
X22009168Y-72526905D01*
X21694545Y-72700790D01*
X21401377Y-72908805D01*
X21133339Y-73148339D01*
X20893805Y-73416377D01*
X20725629Y-73653398D01*
X20670781Y-73696681D01*
X20601239Y-73703441D01*
X20539082Y-73671530D01*
X20504045Y-73611080D01*
X20500500Y-73581642D01*
X20500500Y-69349996D01*
X58289720Y-69349996D01*
X58289720Y-69350003D01*
X58308780Y-69519172D01*
X58308781Y-69519176D01*
X58365011Y-69679874D01*
X58455010Y-69823106D01*
X58455589Y-69824027D01*
X58575973Y-69944411D01*
X58720127Y-70034989D01*
X58880822Y-70091218D01*
X58880823Y-70091218D01*
X58880827Y-70091219D01*
X59049996Y-70110280D01*
X59050000Y-70110280D01*
X59050004Y-70110280D01*
X59219172Y-70091219D01*
X59219174Y-70091218D01*
X59219178Y-70091218D01*
X59379873Y-70034989D01*
X59524027Y-69944411D01*
X59644411Y-69824027D01*
X59734989Y-69679873D01*
X59791218Y-69519178D01*
X59791219Y-69519172D01*
X59810280Y-69350003D01*
X59810280Y-69349996D01*
X59791219Y-69180827D01*
X59791218Y-69180823D01*
X59772025Y-69125973D01*
X59734989Y-69020127D01*
X59644411Y-68875973D01*
X59524027Y-68755589D01*
X59471898Y-68722834D01*
X59379874Y-68665011D01*
X59219176Y-68608781D01*
X59219172Y-68608780D01*
X59050004Y-68589720D01*
X59049996Y-68589720D01*
X58880827Y-68608780D01*
X58880823Y-68608781D01*
X58720125Y-68665011D01*
X58575972Y-68755589D01*
X58455589Y-68875972D01*
X58365011Y-69020125D01*
X58308781Y-69180823D01*
X58308780Y-69180827D01*
X58289720Y-69349996D01*
X20500500Y-69349996D01*
X20500500Y-62399996D01*
X21539720Y-62399996D01*
X21539720Y-62400003D01*
X21558780Y-62569172D01*
X21558781Y-62569176D01*
X21615011Y-62729874D01*
X21705589Y-62874027D01*
X21793881Y-62962319D01*
X21827366Y-63023642D01*
X21822382Y-63093334D01*
X21793881Y-63137681D01*
X21705589Y-63225972D01*
X21615011Y-63370125D01*
X21558781Y-63530823D01*
X21558780Y-63530827D01*
X21539720Y-63699996D01*
X21539720Y-63700003D01*
X21558780Y-63869172D01*
X21558781Y-63869176D01*
X21615011Y-64029874D01*
X21705589Y-64174027D01*
X21743881Y-64212319D01*
X21777366Y-64273642D01*
X21772382Y-64343334D01*
X21743881Y-64387681D01*
X21705589Y-64425972D01*
X21615011Y-64570125D01*
X21558781Y-64730823D01*
X21558780Y-64730827D01*
X21539720Y-64899996D01*
X21539720Y-64900003D01*
X21558780Y-65069172D01*
X21558781Y-65069176D01*
X21615011Y-65229874D01*
X21705589Y-65374027D01*
X21793881Y-65462319D01*
X21827366Y-65523642D01*
X21822382Y-65593334D01*
X21793881Y-65637681D01*
X21705589Y-65725972D01*
X21615011Y-65870125D01*
X21558781Y-66030823D01*
X21558780Y-66030827D01*
X21539720Y-66199996D01*
X21539720Y-66200003D01*
X21558780Y-66369172D01*
X21558781Y-66369176D01*
X21615011Y-66529874D01*
X21705589Y-66674027D01*
X21793881Y-66762319D01*
X21827366Y-66823642D01*
X21822382Y-66893334D01*
X21793881Y-66937681D01*
X21705589Y-67025972D01*
X21615011Y-67170125D01*
X21558781Y-67330823D01*
X21558780Y-67330827D01*
X21539720Y-67499996D01*
X21539720Y-67500003D01*
X21558780Y-67669172D01*
X21558781Y-67669176D01*
X21615011Y-67829874D01*
X21705589Y-67974027D01*
X21825973Y-68094411D01*
X21911237Y-68147986D01*
X21970123Y-68184987D01*
X21970127Y-68184989D01*
X22130822Y-68241218D01*
X22130823Y-68241218D01*
X22130827Y-68241219D01*
X22299996Y-68260280D01*
X22300000Y-68260280D01*
X22300004Y-68260280D01*
X22469172Y-68241219D01*
X22469174Y-68241218D01*
X22469178Y-68241218D01*
X22629873Y-68184989D01*
X22684027Y-68150962D01*
X22751264Y-68131961D01*
X22815973Y-68150962D01*
X22870127Y-68184989D01*
X23030822Y-68241218D01*
X23030823Y-68241218D01*
X23030827Y-68241219D01*
X23199996Y-68260280D01*
X23200000Y-68260280D01*
X23200004Y-68260280D01*
X23369172Y-68241219D01*
X23369174Y-68241218D01*
X23369178Y-68241218D01*
X23529873Y-68184989D01*
X23584027Y-68150962D01*
X23651264Y-68131961D01*
X23715973Y-68150962D01*
X23770127Y-68184989D01*
X23930822Y-68241218D01*
X23930823Y-68241218D01*
X23930827Y-68241219D01*
X24099996Y-68260280D01*
X24100000Y-68260280D01*
X24100004Y-68260280D01*
X24269172Y-68241219D01*
X24269174Y-68241218D01*
X24269178Y-68241218D01*
X24429873Y-68184989D01*
X24534028Y-68119543D01*
X24601264Y-68100543D01*
X24665970Y-68119543D01*
X24770127Y-68184989D01*
X24930822Y-68241218D01*
X24930823Y-68241218D01*
X24930827Y-68241219D01*
X25099996Y-68260280D01*
X25100000Y-68260280D01*
X25100004Y-68260280D01*
X25269172Y-68241219D01*
X25269174Y-68241218D01*
X25269178Y-68241218D01*
X25429873Y-68184989D01*
X25484027Y-68150962D01*
X25551264Y-68131961D01*
X25615973Y-68150962D01*
X25670127Y-68184989D01*
X25830822Y-68241218D01*
X25830823Y-68241218D01*
X25830827Y-68241219D01*
X25999996Y-68260280D01*
X26000000Y-68260280D01*
X26000004Y-68260280D01*
X26169172Y-68241219D01*
X26169174Y-68241218D01*
X26169178Y-68241218D01*
X26329873Y-68184989D01*
X26474027Y-68094411D01*
X26523439Y-68044999D01*
X70369341Y-68044999D01*
X70369341Y-68045000D01*
X70389936Y-68280403D01*
X70389938Y-68280413D01*
X70451094Y-68508655D01*
X70451096Y-68508659D01*
X70451097Y-68508663D01*
X70535548Y-68689769D01*
X70550965Y-68722830D01*
X70550967Y-68722834D01*
X70686501Y-68916395D01*
X70686506Y-68916402D01*
X70853597Y-69083493D01*
X70853603Y-69083498D01*
X71039158Y-69213425D01*
X71082783Y-69268002D01*
X71089977Y-69337500D01*
X71058454Y-69399855D01*
X71039158Y-69416575D01*
X70853597Y-69546505D01*
X70686505Y-69713597D01*
X70550965Y-69907169D01*
X70550964Y-69907171D01*
X70451098Y-70121335D01*
X70451094Y-70121344D01*
X70389938Y-70349586D01*
X70389936Y-70349596D01*
X70369341Y-70584999D01*
X70369341Y-70585000D01*
X70389936Y-70820403D01*
X70389938Y-70820413D01*
X70451094Y-71048655D01*
X70451096Y-71048659D01*
X70451097Y-71048663D01*
X70550965Y-71262830D01*
X70550967Y-71262834D01*
X70659281Y-71417521D01*
X70686501Y-71456396D01*
X70686506Y-71456402D01*
X70808430Y-71578326D01*
X70841915Y-71639649D01*
X70836931Y-71709341D01*
X70795059Y-71765274D01*
X70764083Y-71782189D01*
X70632669Y-71831203D01*
X70632664Y-71831206D01*
X70517455Y-71917452D01*
X70517452Y-71917455D01*
X70431206Y-72032664D01*
X70431202Y-72032671D01*
X70380908Y-72167517D01*
X70374501Y-72227116D01*
X70374501Y-72227123D01*
X70374500Y-72227135D01*
X70374500Y-74022870D01*
X70374501Y-74022876D01*
X70380908Y-74082483D01*
X70431202Y-74217328D01*
X70431206Y-74217335D01*
X70517452Y-74332544D01*
X70517455Y-74332547D01*
X70632664Y-74418793D01*
X70632671Y-74418797D01*
X70767517Y-74469091D01*
X70767516Y-74469091D01*
X70774444Y-74469835D01*
X70827127Y-74475500D01*
X72622872Y-74475499D01*
X72682483Y-74469091D01*
X72817331Y-74418796D01*
X72932546Y-74332546D01*
X73018796Y-74217331D01*
X73069091Y-74082483D01*
X73075500Y-74022873D01*
X73075499Y-72227128D01*
X73069091Y-72167517D01*
X73018796Y-72032669D01*
X73018795Y-72032668D01*
X73018793Y-72032664D01*
X72932547Y-71917455D01*
X72932544Y-71917452D01*
X72817335Y-71831206D01*
X72817328Y-71831202D01*
X72685917Y-71782189D01*
X72629983Y-71740318D01*
X72605566Y-71674853D01*
X72620418Y-71606580D01*
X72641563Y-71578332D01*
X72763495Y-71456401D01*
X72899035Y-71262830D01*
X72998903Y-71048663D01*
X73060063Y-70820408D01*
X73080659Y-70585000D01*
X73080210Y-70579873D01*
X73066151Y-70419176D01*
X73060063Y-70349592D01*
X72998903Y-70121337D01*
X72899035Y-69907171D01*
X72889377Y-69893377D01*
X72763494Y-69713597D01*
X72596402Y-69546506D01*
X72596396Y-69546501D01*
X72410842Y-69416575D01*
X72367217Y-69361998D01*
X72360023Y-69292500D01*
X72391546Y-69230145D01*
X72410842Y-69213425D01*
X72535736Y-69125973D01*
X72596401Y-69083495D01*
X72654900Y-69024996D01*
X73964720Y-69024996D01*
X73964720Y-69025003D01*
X73983780Y-69194172D01*
X73983781Y-69194176D01*
X74040011Y-69354874D01*
X74087736Y-69430827D01*
X74130589Y-69499027D01*
X74250973Y-69619411D01*
X74395127Y-69709989D01*
X74555822Y-69766218D01*
X74555823Y-69766218D01*
X74555827Y-69766219D01*
X74724996Y-69785280D01*
X74725000Y-69785280D01*
X74725004Y-69785280D01*
X74894172Y-69766219D01*
X74894174Y-69766218D01*
X74894178Y-69766218D01*
X75054873Y-69709989D01*
X75199027Y-69619411D01*
X75319411Y-69499027D01*
X75409989Y-69354873D01*
X75466218Y-69194178D01*
X75466219Y-69194172D01*
X75472535Y-69138114D01*
X78286521Y-69138114D01*
X78286521Y-69138121D01*
X78305581Y-69307290D01*
X78305582Y-69307294D01*
X78361812Y-69467992D01*
X78411146Y-69546506D01*
X78452390Y-69612145D01*
X78572774Y-69732529D01*
X78716928Y-69823107D01*
X78877623Y-69879336D01*
X78904877Y-69882406D01*
X78931964Y-69885459D01*
X78996378Y-69912525D01*
X79023075Y-69942707D01*
X79105589Y-70074027D01*
X79225973Y-70194411D01*
X79370127Y-70284989D01*
X79530822Y-70341218D01*
X79530823Y-70341218D01*
X79530827Y-70341219D01*
X79699996Y-70360280D01*
X79700000Y-70360280D01*
X79700004Y-70360280D01*
X79869172Y-70341219D01*
X79869174Y-70341218D01*
X79869178Y-70341218D01*
X80029873Y-70284989D01*
X80085564Y-70249996D01*
X90264720Y-70249996D01*
X90264720Y-70250003D01*
X90283780Y-70419172D01*
X90283781Y-70419176D01*
X90340011Y-70579874D01*
X90430589Y-70724027D01*
X90550973Y-70844411D01*
X90695127Y-70934989D01*
X90855822Y-70991218D01*
X90855823Y-70991218D01*
X90855827Y-70991219D01*
X91024996Y-71010280D01*
X91025000Y-71010280D01*
X91025004Y-71010280D01*
X91194172Y-70991219D01*
X91194174Y-70991218D01*
X91194178Y-70991218D01*
X91354873Y-70934989D01*
X91499027Y-70844411D01*
X91619411Y-70724027D01*
X91709989Y-70579873D01*
X91766218Y-70419178D01*
X91766219Y-70419172D01*
X91785280Y-70250003D01*
X91785280Y-70249996D01*
X91766219Y-70080827D01*
X91766218Y-70080823D01*
X91750180Y-70034989D01*
X91709989Y-69920127D01*
X91705212Y-69912525D01*
X91649027Y-69823107D01*
X91619411Y-69775973D01*
X91499027Y-69655589D01*
X91441450Y-69619411D01*
X91354874Y-69565011D01*
X91194176Y-69508781D01*
X91194172Y-69508780D01*
X91025004Y-69489720D01*
X91024996Y-69489720D01*
X90855827Y-69508780D01*
X90855823Y-69508781D01*
X90695125Y-69565011D01*
X90550972Y-69655589D01*
X90430589Y-69775972D01*
X90340011Y-69920125D01*
X90283781Y-70080823D01*
X90283780Y-70080827D01*
X90264720Y-70249996D01*
X80085564Y-70249996D01*
X80174027Y-70194411D01*
X80294411Y-70074027D01*
X80384989Y-69929873D01*
X80441218Y-69769178D01*
X80441219Y-69769172D01*
X80460280Y-69600003D01*
X80460280Y-69599996D01*
X80441219Y-69430827D01*
X80441218Y-69430823D01*
X80436232Y-69416575D01*
X80384989Y-69270127D01*
X80294411Y-69125973D01*
X80174027Y-69005589D01*
X80029874Y-68915011D01*
X79869176Y-68858781D01*
X79814835Y-68852658D01*
X79750421Y-68825591D01*
X79723725Y-68795410D01*
X79698704Y-68755589D01*
X79641212Y-68664091D01*
X79520828Y-68543707D01*
X79507417Y-68535280D01*
X79376675Y-68453129D01*
X79215977Y-68396899D01*
X79215973Y-68396898D01*
X79046805Y-68377838D01*
X79046797Y-68377838D01*
X78877628Y-68396898D01*
X78877624Y-68396899D01*
X78716926Y-68453129D01*
X78572773Y-68543707D01*
X78452390Y-68664090D01*
X78361812Y-68808243D01*
X78305582Y-68968941D01*
X78305581Y-68968945D01*
X78286521Y-69138114D01*
X75472535Y-69138114D01*
X75485280Y-69025003D01*
X75485280Y-69024996D01*
X75466219Y-68855827D01*
X75466218Y-68855823D01*
X75449569Y-68808243D01*
X75409989Y-68695127D01*
X75409988Y-68695125D01*
X75408114Y-68689769D01*
X75404553Y-68619990D01*
X75439282Y-68559363D01*
X75501275Y-68527136D01*
X75539040Y-68525595D01*
X75624997Y-68535280D01*
X75625000Y-68535280D01*
X75625004Y-68535280D01*
X75794172Y-68516219D01*
X75794174Y-68516218D01*
X75794178Y-68516218D01*
X75954873Y-68459989D01*
X76099027Y-68369411D01*
X76219411Y-68249027D01*
X76309989Y-68104873D01*
X76366218Y-67944178D01*
X76379097Y-67829874D01*
X76385280Y-67775003D01*
X76385280Y-67774996D01*
X84264720Y-67774996D01*
X84264720Y-67775003D01*
X84283780Y-67944172D01*
X84283781Y-67944176D01*
X84340011Y-68104874D01*
X84390351Y-68184989D01*
X84430589Y-68249027D01*
X84550973Y-68369411D01*
X84695127Y-68459989D01*
X84855822Y-68516218D01*
X84855823Y-68516218D01*
X84855827Y-68516219D01*
X85024996Y-68535280D01*
X85025000Y-68535280D01*
X85025004Y-68535280D01*
X85194172Y-68516219D01*
X85194174Y-68516218D01*
X85194178Y-68516218D01*
X85354873Y-68459989D01*
X85499027Y-68369411D01*
X85619411Y-68249027D01*
X85709989Y-68104873D01*
X85766218Y-67944178D01*
X85779097Y-67829874D01*
X85785280Y-67775003D01*
X85785280Y-67774996D01*
X85766219Y-67605827D01*
X85766218Y-67605823D01*
X85757649Y-67581335D01*
X85709989Y-67445127D01*
X85619411Y-67300973D01*
X85499027Y-67180589D01*
X85354874Y-67090011D01*
X85194176Y-67033781D01*
X85194172Y-67033780D01*
X85025004Y-67014720D01*
X85024996Y-67014720D01*
X84855827Y-67033780D01*
X84855823Y-67033781D01*
X84695125Y-67090011D01*
X84550972Y-67180589D01*
X84430589Y-67300972D01*
X84340011Y-67445125D01*
X84283781Y-67605823D01*
X84283780Y-67605827D01*
X84264720Y-67774996D01*
X76385280Y-67774996D01*
X76366219Y-67605827D01*
X76366218Y-67605823D01*
X76357649Y-67581335D01*
X76309989Y-67445127D01*
X76219411Y-67300973D01*
X76099027Y-67180589D01*
X75954874Y-67090011D01*
X75794176Y-67033781D01*
X75794172Y-67033780D01*
X75625004Y-67014720D01*
X75624996Y-67014720D01*
X75455827Y-67033780D01*
X75455823Y-67033781D01*
X75295125Y-67090011D01*
X75150972Y-67180589D01*
X75030589Y-67300972D01*
X74940011Y-67445125D01*
X74883781Y-67605823D01*
X74883780Y-67605827D01*
X74864720Y-67774996D01*
X74864720Y-67775003D01*
X74883780Y-67944172D01*
X74883781Y-67944177D01*
X74941885Y-68110230D01*
X74945446Y-68180009D01*
X74910717Y-68240636D01*
X74848723Y-68272863D01*
X74810961Y-68274404D01*
X74725005Y-68264720D01*
X74724996Y-68264720D01*
X74555827Y-68283780D01*
X74555823Y-68283781D01*
X74395125Y-68340011D01*
X74250972Y-68430589D01*
X74130589Y-68550972D01*
X74040011Y-68695125D01*
X73983781Y-68855823D01*
X73983780Y-68855827D01*
X73964720Y-69024996D01*
X72654900Y-69024996D01*
X72763495Y-68916401D01*
X72899035Y-68722830D01*
X72998903Y-68508663D01*
X73060063Y-68280408D01*
X73080659Y-68045000D01*
X73060063Y-67809592D01*
X72998903Y-67581337D01*
X72899035Y-67367171D01*
X72873584Y-67330822D01*
X72763494Y-67173597D01*
X72596402Y-67006506D01*
X72596395Y-67006501D01*
X72402834Y-66870967D01*
X72402830Y-66870965D01*
X72402828Y-66870964D01*
X72188663Y-66771097D01*
X72188659Y-66771096D01*
X72188655Y-66771094D01*
X71960413Y-66709938D01*
X71960403Y-66709936D01*
X71725001Y-66689341D01*
X71724999Y-66689341D01*
X71489596Y-66709936D01*
X71489586Y-66709938D01*
X71261344Y-66771094D01*
X71261335Y-66771098D01*
X71047171Y-66870964D01*
X71047169Y-66870965D01*
X70853597Y-67006505D01*
X70686505Y-67173597D01*
X70550965Y-67367169D01*
X70550964Y-67367171D01*
X70451098Y-67581335D01*
X70451094Y-67581344D01*
X70389938Y-67809586D01*
X70389936Y-67809596D01*
X70369341Y-68044999D01*
X26523439Y-68044999D01*
X26594411Y-67974027D01*
X26684989Y-67829873D01*
X26741218Y-67669178D01*
X26748356Y-67605827D01*
X26760280Y-67500003D01*
X26760280Y-67499996D01*
X26741219Y-67330827D01*
X26741218Y-67330823D01*
X26688649Y-67180589D01*
X26684989Y-67170127D01*
X26594411Y-67025973D01*
X26506119Y-66937681D01*
X26472634Y-66876358D01*
X26477618Y-66806666D01*
X26506119Y-66762319D01*
X26537779Y-66730659D01*
X26594411Y-66674027D01*
X26684989Y-66529873D01*
X26741218Y-66369178D01*
X26755052Y-66246401D01*
X26760280Y-66200003D01*
X26760280Y-66199996D01*
X26741219Y-66030827D01*
X26741218Y-66030823D01*
X26684988Y-65870125D01*
X26594410Y-65725972D01*
X26506119Y-65637681D01*
X26472634Y-65576358D01*
X26477618Y-65506666D01*
X26506119Y-65462319D01*
X26528377Y-65440061D01*
X26594411Y-65374027D01*
X26684989Y-65229873D01*
X26741218Y-65069178D01*
X26751143Y-64981093D01*
X26760280Y-64900003D01*
X26760280Y-64899996D01*
X26741219Y-64730827D01*
X26741218Y-64730823D01*
X26684988Y-64570125D01*
X26632956Y-64487317D01*
X26594411Y-64425973D01*
X26556119Y-64387681D01*
X26522634Y-64326358D01*
X26527618Y-64256666D01*
X26556119Y-64212319D01*
X26567473Y-64200965D01*
X26594411Y-64174027D01*
X26684989Y-64029873D01*
X26741218Y-63869178D01*
X26741219Y-63869172D01*
X26760280Y-63700003D01*
X26760280Y-63699996D01*
X26741219Y-63530827D01*
X26741218Y-63530823D01*
X26734923Y-63512834D01*
X26684989Y-63370127D01*
X26594411Y-63225973D01*
X26506119Y-63137681D01*
X26472634Y-63076358D01*
X26477618Y-63006666D01*
X26506119Y-62962319D01*
X26548583Y-62919855D01*
X26594411Y-62874027D01*
X26684989Y-62729873D01*
X26741218Y-62569178D01*
X26748862Y-62501335D01*
X26760280Y-62400003D01*
X26760280Y-62399996D01*
X26741219Y-62230827D01*
X26741218Y-62230823D01*
X26719729Y-62169411D01*
X26684989Y-62070127D01*
X26658935Y-62028663D01*
X26618053Y-61963599D01*
X26594411Y-61925973D01*
X26474027Y-61805589D01*
X26471008Y-61803692D01*
X26329874Y-61715011D01*
X26169176Y-61658781D01*
X26169172Y-61658780D01*
X26000004Y-61639720D01*
X25999996Y-61639720D01*
X25830827Y-61658780D01*
X25830823Y-61658781D01*
X25670129Y-61715010D01*
X25615971Y-61749039D01*
X25548733Y-61768038D01*
X25484029Y-61749039D01*
X25477997Y-61745249D01*
X25429873Y-61715011D01*
X25372684Y-61695000D01*
X25269176Y-61658781D01*
X25269172Y-61658780D01*
X25100004Y-61639720D01*
X25099996Y-61639720D01*
X24930827Y-61658780D01*
X24930823Y-61658781D01*
X24770125Y-61715011D01*
X24665972Y-61780456D01*
X24598736Y-61799456D01*
X24534028Y-61780456D01*
X24429874Y-61715011D01*
X24269176Y-61658781D01*
X24269172Y-61658780D01*
X24100004Y-61639720D01*
X24099996Y-61639720D01*
X23930827Y-61658780D01*
X23930823Y-61658781D01*
X23770129Y-61715010D01*
X23715971Y-61749039D01*
X23648733Y-61768038D01*
X23584029Y-61749039D01*
X23577997Y-61745249D01*
X23529873Y-61715011D01*
X23472684Y-61695000D01*
X23369176Y-61658781D01*
X23369172Y-61658780D01*
X23200004Y-61639720D01*
X23199996Y-61639720D01*
X23030827Y-61658780D01*
X23030823Y-61658781D01*
X22870129Y-61715010D01*
X22815971Y-61749039D01*
X22748733Y-61768038D01*
X22684029Y-61749039D01*
X22677997Y-61745249D01*
X22629873Y-61715011D01*
X22572684Y-61695000D01*
X22469176Y-61658781D01*
X22469172Y-61658780D01*
X22300004Y-61639720D01*
X22299996Y-61639720D01*
X22130827Y-61658780D01*
X22130823Y-61658781D01*
X21970125Y-61715011D01*
X21825972Y-61805589D01*
X21705589Y-61925972D01*
X21615011Y-62070125D01*
X21558781Y-62230823D01*
X21558780Y-62230827D01*
X21539720Y-62399996D01*
X20500500Y-62399996D01*
X20500500Y-61199996D01*
X27364720Y-61199996D01*
X27364720Y-61200003D01*
X27383780Y-61369172D01*
X27383781Y-61369176D01*
X27440011Y-61529874D01*
X27509032Y-61639720D01*
X27530589Y-61674027D01*
X27650973Y-61794411D01*
X27795127Y-61884989D01*
X27955822Y-61941218D01*
X27955823Y-61941218D01*
X27955827Y-61941219D01*
X28124996Y-61960280D01*
X28125000Y-61960280D01*
X28125004Y-61960280D01*
X28294172Y-61941219D01*
X28294174Y-61941218D01*
X28294178Y-61941218D01*
X28454873Y-61884989D01*
X28599027Y-61794411D01*
X28719411Y-61674027D01*
X28809989Y-61529873D01*
X28866218Y-61369178D01*
X28869221Y-61342526D01*
X28885280Y-61200003D01*
X28885280Y-61199996D01*
X28866219Y-61030827D01*
X28866218Y-61030823D01*
X28816946Y-60890011D01*
X28809989Y-60870127D01*
X28805858Y-60863553D01*
X28739951Y-60758663D01*
X28719411Y-60725973D01*
X28650972Y-60657534D01*
X53264720Y-60657534D01*
X53264720Y-60657541D01*
X53283780Y-60826710D01*
X53283781Y-60826714D01*
X53340011Y-60987412D01*
X53412536Y-61102834D01*
X53430589Y-61131565D01*
X53550973Y-61251949D01*
X53604161Y-61285369D01*
X53680752Y-61333495D01*
X53695127Y-61342527D01*
X53855822Y-61398756D01*
X53855823Y-61398756D01*
X53855827Y-61398757D01*
X53907411Y-61404568D01*
X53933801Y-61407542D01*
X53998215Y-61434608D01*
X54037771Y-61492202D01*
X54043140Y-61544643D01*
X54039720Y-61575002D01*
X54039720Y-61575003D01*
X54058780Y-61744172D01*
X54058781Y-61744176D01*
X54115011Y-61904874D01*
X54151911Y-61963599D01*
X54205589Y-62049027D01*
X54325973Y-62169411D01*
X54411237Y-62222986D01*
X54442818Y-62242830D01*
X54470127Y-62259989D01*
X54630822Y-62316218D01*
X54630823Y-62316218D01*
X54630827Y-62316219D01*
X54799996Y-62335280D01*
X54800000Y-62335280D01*
X54800004Y-62335280D01*
X54969172Y-62316219D01*
X54969173Y-62316219D01*
X54969174Y-62316218D01*
X54969178Y-62316218D01*
X55030971Y-62294595D01*
X55100748Y-62291035D01*
X55161376Y-62325764D01*
X55193603Y-62387757D01*
X55191699Y-62443731D01*
X55149938Y-62599586D01*
X55149936Y-62599596D01*
X55129341Y-62834999D01*
X55129341Y-62835000D01*
X55149936Y-63070403D01*
X55149938Y-63070413D01*
X55211094Y-63298655D01*
X55211096Y-63298659D01*
X55211097Y-63298663D01*
X55271717Y-63428663D01*
X55310965Y-63512830D01*
X55310967Y-63512834D01*
X55446501Y-63706395D01*
X55446506Y-63706402D01*
X55613597Y-63873493D01*
X55613603Y-63873498D01*
X55799158Y-64003425D01*
X55842783Y-64058002D01*
X55849977Y-64127500D01*
X55818454Y-64189855D01*
X55799158Y-64206575D01*
X55613597Y-64336505D01*
X55446505Y-64503597D01*
X55310965Y-64697169D01*
X55310964Y-64697171D01*
X55211098Y-64911335D01*
X55211094Y-64911344D01*
X55149938Y-65139586D01*
X55149936Y-65139596D01*
X55129341Y-65374999D01*
X55129341Y-65375000D01*
X55149936Y-65610403D01*
X55149938Y-65610413D01*
X55211094Y-65838655D01*
X55211096Y-65838659D01*
X55211097Y-65838663D01*
X55300703Y-66030823D01*
X55310965Y-66052830D01*
X55310967Y-66052834D01*
X55414012Y-66199996D01*
X55446505Y-66246401D01*
X55613599Y-66413495D01*
X55710384Y-66481265D01*
X55807165Y-66549032D01*
X55807167Y-66549033D01*
X55807170Y-66549035D01*
X56021337Y-66648903D01*
X56249592Y-66710063D01*
X56437918Y-66726539D01*
X56484999Y-66730659D01*
X56485000Y-66730659D01*
X56485001Y-66730659D01*
X56524234Y-66727226D01*
X56720408Y-66710063D01*
X56948663Y-66648903D01*
X57162830Y-66549035D01*
X57356401Y-66413495D01*
X57523495Y-66246401D01*
X57659035Y-66052830D01*
X57758903Y-65838663D01*
X57820063Y-65610408D01*
X57840659Y-65375000D01*
X57820063Y-65139592D01*
X57819184Y-65136311D01*
X57819219Y-65134811D01*
X57819122Y-65134258D01*
X57819233Y-65134238D01*
X57820845Y-65066462D01*
X57860006Y-65008599D01*
X57924234Y-64981093D01*
X57993136Y-64992678D01*
X58026639Y-65016535D01*
X58153599Y-65143495D01*
X58250384Y-65211265D01*
X58347165Y-65279032D01*
X58347167Y-65279033D01*
X58347170Y-65279035D01*
X58561337Y-65378903D01*
X58789592Y-65440063D01*
X58977918Y-65456539D01*
X59024999Y-65460659D01*
X59025000Y-65460659D01*
X59025001Y-65460659D01*
X59064234Y-65457226D01*
X59260408Y-65440063D01*
X59488663Y-65378903D01*
X59702830Y-65279035D01*
X59896401Y-65143495D01*
X60063495Y-64976401D01*
X60199035Y-64782830D01*
X60298903Y-64568663D01*
X60360063Y-64340408D01*
X60380659Y-64105000D01*
X60378690Y-64082500D01*
X60372263Y-64009035D01*
X60360063Y-63869592D01*
X60298903Y-63641337D01*
X60199035Y-63427171D01*
X60159092Y-63370125D01*
X60063494Y-63233597D01*
X59896402Y-63066506D01*
X59896396Y-63066501D01*
X59710842Y-62936575D01*
X59667217Y-62881998D01*
X59660023Y-62812500D01*
X59691546Y-62750145D01*
X59710842Y-62733425D01*
X59733026Y-62717891D01*
X59896401Y-62603495D01*
X60063495Y-62436401D01*
X60199035Y-62242830D01*
X60298903Y-62028663D01*
X60360063Y-61800408D01*
X60380659Y-61565000D01*
X60378690Y-61542500D01*
X60372263Y-61469035D01*
X60360063Y-61329592D01*
X60313626Y-61156285D01*
X60298905Y-61101344D01*
X60298904Y-61101343D01*
X60298903Y-61101337D01*
X60199035Y-60887171D01*
X60187100Y-60870125D01*
X60063494Y-60693597D01*
X59896402Y-60526506D01*
X59896395Y-60526501D01*
X59702834Y-60390967D01*
X59702830Y-60390965D01*
X59690012Y-60384988D01*
X59488663Y-60291097D01*
X59488659Y-60291096D01*
X59488655Y-60291094D01*
X59260413Y-60229938D01*
X59260403Y-60229936D01*
X59025001Y-60209341D01*
X59024999Y-60209341D01*
X58789596Y-60229936D01*
X58789586Y-60229938D01*
X58561344Y-60291094D01*
X58561335Y-60291098D01*
X58347171Y-60390964D01*
X58347169Y-60390965D01*
X58153600Y-60526503D01*
X58026639Y-60653464D01*
X57965316Y-60686948D01*
X57895624Y-60681964D01*
X57839691Y-60640092D01*
X57815274Y-60574628D01*
X57819185Y-60533682D01*
X57820063Y-60530408D01*
X57840659Y-60295000D01*
X57840607Y-60294411D01*
X57834967Y-60229937D01*
X57820063Y-60059592D01*
X57758903Y-59831337D01*
X57659035Y-59617171D01*
X57614521Y-59553597D01*
X57523494Y-59423597D01*
X57356402Y-59256506D01*
X57356396Y-59256501D01*
X57170842Y-59126575D01*
X57127217Y-59071998D01*
X57120023Y-59002500D01*
X57151546Y-58940145D01*
X57170842Y-58923425D01*
X57283687Y-58844410D01*
X57356401Y-58793495D01*
X57523495Y-58626401D01*
X57659035Y-58432830D01*
X57758903Y-58218663D01*
X57820063Y-57990408D01*
X57840659Y-57755000D01*
X57826004Y-57587496D01*
X59664720Y-57587496D01*
X59664720Y-57587503D01*
X59683780Y-57756672D01*
X59683781Y-57756676D01*
X59740011Y-57917374D01*
X59785902Y-57990408D01*
X59830589Y-58061527D01*
X59950973Y-58181911D01*
X60009465Y-58218664D01*
X60089857Y-58269178D01*
X60095127Y-58272489D01*
X60255822Y-58328718D01*
X60255823Y-58328718D01*
X60255827Y-58328719D01*
X60424996Y-58347780D01*
X60425000Y-58347780D01*
X60425004Y-58347780D01*
X60594172Y-58328719D01*
X60594174Y-58328718D01*
X60594178Y-58328718D01*
X60754873Y-58272489D01*
X60899027Y-58181911D01*
X61019411Y-58061527D01*
X61109989Y-57917373D01*
X61166218Y-57756678D01*
X61166407Y-57755000D01*
X61185280Y-57587503D01*
X61185280Y-57587496D01*
X61166219Y-57418327D01*
X61166218Y-57418323D01*
X61131857Y-57320125D01*
X61109989Y-57257627D01*
X61019411Y-57113473D01*
X60899027Y-56993089D01*
X60799938Y-56930827D01*
X60754874Y-56902511D01*
X60594176Y-56846281D01*
X60594172Y-56846280D01*
X60425004Y-56827220D01*
X60424996Y-56827220D01*
X60255827Y-56846280D01*
X60255823Y-56846281D01*
X60095125Y-56902511D01*
X59950972Y-56993089D01*
X59830589Y-57113472D01*
X59740011Y-57257625D01*
X59683781Y-57418323D01*
X59683780Y-57418327D01*
X59664720Y-57587496D01*
X57826004Y-57587496D01*
X57820063Y-57519592D01*
X57758903Y-57291337D01*
X57659035Y-57077171D01*
X57643924Y-57055589D01*
X57523494Y-56883597D01*
X57356402Y-56716506D01*
X57356396Y-56716501D01*
X57170842Y-56586575D01*
X57127217Y-56531998D01*
X57120023Y-56462500D01*
X57151546Y-56400145D01*
X57170842Y-56383425D01*
X57289985Y-56300000D01*
X57356401Y-56253495D01*
X57523495Y-56086401D01*
X57659035Y-55892830D01*
X57758903Y-55678663D01*
X57820063Y-55450408D01*
X57840659Y-55215000D01*
X57820063Y-54979592D01*
X57758903Y-54751337D01*
X57659035Y-54537171D01*
X57614521Y-54473597D01*
X57523494Y-54343597D01*
X57356402Y-54176506D01*
X57356396Y-54176501D01*
X57282839Y-54124996D01*
X59714720Y-54124996D01*
X59714720Y-54125003D01*
X59733780Y-54294172D01*
X59733781Y-54294176D01*
X59790011Y-54454874D01*
X59801776Y-54473597D01*
X59880589Y-54599027D01*
X60000973Y-54719411D01*
X60145127Y-54809989D01*
X60305822Y-54866218D01*
X60305823Y-54866218D01*
X60305827Y-54866219D01*
X60474996Y-54885280D01*
X60475000Y-54885280D01*
X60475004Y-54885280D01*
X60644172Y-54866219D01*
X60644174Y-54866218D01*
X60644178Y-54866218D01*
X60804873Y-54809989D01*
X60949027Y-54719411D01*
X61069411Y-54599027D01*
X61159989Y-54454873D01*
X61216218Y-54294178D01*
X61216219Y-54294172D01*
X61235280Y-54125003D01*
X61235280Y-54124996D01*
X61216219Y-53955827D01*
X61216218Y-53955823D01*
X61182739Y-53860145D01*
X61159989Y-53795127D01*
X61069411Y-53650973D01*
X60949027Y-53530589D01*
X60804874Y-53440011D01*
X60644176Y-53383781D01*
X60644172Y-53383780D01*
X60475004Y-53364720D01*
X60474996Y-53364720D01*
X60305827Y-53383780D01*
X60305823Y-53383781D01*
X60145125Y-53440011D01*
X60000972Y-53530589D01*
X59880589Y-53650972D01*
X59790011Y-53795125D01*
X59733781Y-53955823D01*
X59733780Y-53955827D01*
X59714720Y-54124996D01*
X57282839Y-54124996D01*
X57170842Y-54046575D01*
X57127217Y-53991998D01*
X57120023Y-53922500D01*
X57151546Y-53860145D01*
X57170842Y-53843425D01*
X57193026Y-53827891D01*
X57356401Y-53713495D01*
X57523495Y-53546401D01*
X57659035Y-53352830D01*
X57758903Y-53138663D01*
X57820063Y-52910408D01*
X57840659Y-52675000D01*
X57820063Y-52439592D01*
X57758903Y-52211337D01*
X57659035Y-51997171D01*
X57640887Y-51971252D01*
X57523494Y-51803597D01*
X57356402Y-51636506D01*
X57356396Y-51636501D01*
X57170842Y-51506575D01*
X57127217Y-51451998D01*
X57120023Y-51382500D01*
X57151546Y-51320145D01*
X57170842Y-51303425D01*
X57222852Y-51267007D01*
X57356401Y-51173495D01*
X57523495Y-51006401D01*
X57659035Y-50812830D01*
X57758903Y-50598663D01*
X57820063Y-50370408D01*
X57840659Y-50135000D01*
X57820063Y-49899592D01*
X57758903Y-49671337D01*
X57659035Y-49457171D01*
X57614521Y-49393597D01*
X57523494Y-49263597D01*
X57356402Y-49096506D01*
X57356396Y-49096501D01*
X57170842Y-48966575D01*
X57127217Y-48911998D01*
X57120023Y-48842500D01*
X57151546Y-48780145D01*
X57170842Y-48763425D01*
X57193026Y-48747891D01*
X57356401Y-48633495D01*
X57523495Y-48466401D01*
X57659035Y-48272830D01*
X57758903Y-48058663D01*
X57820063Y-47830408D01*
X57840659Y-47595000D01*
X57820063Y-47359592D01*
X57758903Y-47131337D01*
X57659035Y-46917171D01*
X57628826Y-46874027D01*
X57523494Y-46723597D01*
X57356402Y-46556506D01*
X57356396Y-46556501D01*
X57170842Y-46426575D01*
X57149597Y-46399996D01*
X59639720Y-46399996D01*
X59639720Y-46400003D01*
X59658780Y-46569172D01*
X59658781Y-46569176D01*
X59715011Y-46729874D01*
X59792752Y-46853597D01*
X59805589Y-46874027D01*
X59925973Y-46994411D01*
X60070127Y-47084989D01*
X60230822Y-47141218D01*
X60230823Y-47141218D01*
X60230827Y-47141219D01*
X60399996Y-47160280D01*
X60400000Y-47160280D01*
X60400004Y-47160280D01*
X60569172Y-47141219D01*
X60569174Y-47141218D01*
X60569178Y-47141218D01*
X60729873Y-47084989D01*
X60874027Y-46994411D01*
X60994411Y-46874027D01*
X61084989Y-46729873D01*
X61141218Y-46569178D01*
X61142646Y-46556505D01*
X61160280Y-46400003D01*
X61160280Y-46399996D01*
X61141219Y-46230827D01*
X61141218Y-46230823D01*
X61140592Y-46229035D01*
X61084989Y-46070127D01*
X61076364Y-46056401D01*
X61047986Y-46011237D01*
X60994411Y-45925973D01*
X60874027Y-45805589D01*
X60798290Y-45758000D01*
X60729874Y-45715011D01*
X60569176Y-45658781D01*
X60569172Y-45658780D01*
X60400004Y-45639720D01*
X60399996Y-45639720D01*
X60230827Y-45658780D01*
X60230823Y-45658781D01*
X60070125Y-45715011D01*
X59925972Y-45805589D01*
X59805589Y-45925972D01*
X59715011Y-46070125D01*
X59658781Y-46230823D01*
X59658780Y-46230827D01*
X59639720Y-46399996D01*
X57149597Y-46399996D01*
X57127217Y-46371998D01*
X57120023Y-46302500D01*
X57151546Y-46240145D01*
X57170842Y-46223425D01*
X57193026Y-46207891D01*
X57356401Y-46093495D01*
X57523495Y-45926401D01*
X57659035Y-45732830D01*
X57758903Y-45518663D01*
X57820063Y-45290408D01*
X57829285Y-45184999D01*
X70369341Y-45184999D01*
X70369341Y-45185000D01*
X70389936Y-45420403D01*
X70389938Y-45420413D01*
X70451094Y-45648655D01*
X70451096Y-45648659D01*
X70451097Y-45648663D01*
X70502082Y-45758000D01*
X70550965Y-45862830D01*
X70550967Y-45862834D01*
X70686501Y-46056395D01*
X70686506Y-46056402D01*
X70853597Y-46223493D01*
X70853603Y-46223498D01*
X71039158Y-46353425D01*
X71082783Y-46408002D01*
X71089977Y-46477500D01*
X71058454Y-46539855D01*
X71039158Y-46556575D01*
X70853597Y-46686505D01*
X70686505Y-46853597D01*
X70550965Y-47047169D01*
X70550964Y-47047171D01*
X70451098Y-47261335D01*
X70451094Y-47261344D01*
X70389938Y-47489586D01*
X70389936Y-47489596D01*
X70369341Y-47724999D01*
X70369341Y-47725000D01*
X70389936Y-47960403D01*
X70389938Y-47960413D01*
X70451094Y-48188655D01*
X70451096Y-48188659D01*
X70451097Y-48188663D01*
X70490345Y-48272830D01*
X70550965Y-48402830D01*
X70550967Y-48402834D01*
X70686501Y-48596395D01*
X70686506Y-48596402D01*
X70853597Y-48763493D01*
X70853603Y-48763498D01*
X71039158Y-48893425D01*
X71082783Y-48948002D01*
X71089977Y-49017500D01*
X71058454Y-49079855D01*
X71039158Y-49096575D01*
X70853597Y-49226505D01*
X70686505Y-49393597D01*
X70550965Y-49587169D01*
X70550964Y-49587171D01*
X70451098Y-49801335D01*
X70451094Y-49801344D01*
X70389938Y-50029586D01*
X70389936Y-50029596D01*
X70369341Y-50264999D01*
X70369341Y-50265000D01*
X70389936Y-50500403D01*
X70389938Y-50500413D01*
X70451094Y-50728655D01*
X70451096Y-50728659D01*
X70451097Y-50728663D01*
X70490345Y-50812830D01*
X70550965Y-50942830D01*
X70550967Y-50942834D01*
X70686501Y-51136395D01*
X70686506Y-51136402D01*
X70853597Y-51303493D01*
X70853603Y-51303498D01*
X71039158Y-51433425D01*
X71082783Y-51488002D01*
X71089977Y-51557500D01*
X71058454Y-51619855D01*
X71039158Y-51636575D01*
X70853597Y-51766505D01*
X70686505Y-51933597D01*
X70550965Y-52127169D01*
X70550964Y-52127171D01*
X70451098Y-52341335D01*
X70451094Y-52341344D01*
X70389938Y-52569586D01*
X70389936Y-52569596D01*
X70369341Y-52804999D01*
X70369341Y-52805000D01*
X70389936Y-53040403D01*
X70389938Y-53040413D01*
X70451094Y-53268655D01*
X70451096Y-53268659D01*
X70451097Y-53268663D01*
X70504777Y-53383780D01*
X70550965Y-53482830D01*
X70550967Y-53482834D01*
X70686501Y-53676395D01*
X70686506Y-53676402D01*
X70853597Y-53843493D01*
X70853603Y-53843498D01*
X71039158Y-53973425D01*
X71082783Y-54028002D01*
X71089977Y-54097500D01*
X71058454Y-54159855D01*
X71039158Y-54176575D01*
X70853597Y-54306505D01*
X70686505Y-54473597D01*
X70550965Y-54667169D01*
X70550964Y-54667171D01*
X70451098Y-54881335D01*
X70451094Y-54881344D01*
X70389938Y-55109586D01*
X70389936Y-55109596D01*
X70369341Y-55344999D01*
X70369341Y-55345000D01*
X70389936Y-55580403D01*
X70389938Y-55580413D01*
X70451094Y-55808655D01*
X70451096Y-55808660D01*
X70550965Y-56022830D01*
X70550967Y-56022834D01*
X70686501Y-56216395D01*
X70686506Y-56216402D01*
X70853597Y-56383493D01*
X70853603Y-56383498D01*
X71039158Y-56513425D01*
X71082783Y-56568002D01*
X71089977Y-56637500D01*
X71058454Y-56699855D01*
X71039158Y-56716575D01*
X70853597Y-56846505D01*
X70686505Y-57013597D01*
X70550965Y-57207169D01*
X70550964Y-57207171D01*
X70522053Y-57269172D01*
X70452503Y-57418323D01*
X70451098Y-57421335D01*
X70451094Y-57421344D01*
X70389938Y-57649586D01*
X70389936Y-57649596D01*
X70369341Y-57884999D01*
X70369341Y-57885000D01*
X70389936Y-58120403D01*
X70389938Y-58120413D01*
X70451094Y-58348655D01*
X70451096Y-58348659D01*
X70451097Y-58348663D01*
X70500958Y-58455589D01*
X70550965Y-58562830D01*
X70550967Y-58562834D01*
X70686501Y-58756395D01*
X70686506Y-58756402D01*
X70853597Y-58923493D01*
X70853603Y-58923498D01*
X71039158Y-59053425D01*
X71082783Y-59108002D01*
X71089977Y-59177500D01*
X71058454Y-59239855D01*
X71039158Y-59256575D01*
X70853597Y-59386505D01*
X70686505Y-59553597D01*
X70550965Y-59747169D01*
X70550964Y-59747171D01*
X70451098Y-59961335D01*
X70451094Y-59961344D01*
X70389938Y-60189586D01*
X70389936Y-60189596D01*
X70369341Y-60424999D01*
X70369341Y-60425000D01*
X70389936Y-60660403D01*
X70389938Y-60660413D01*
X70451094Y-60888655D01*
X70451096Y-60888659D01*
X70451097Y-60888663D01*
X70550099Y-61100973D01*
X70550965Y-61102830D01*
X70550967Y-61102834D01*
X70686501Y-61296395D01*
X70686506Y-61296402D01*
X70853597Y-61463493D01*
X70853603Y-61463498D01*
X71039158Y-61593425D01*
X71082783Y-61648002D01*
X71089977Y-61717500D01*
X71058454Y-61779855D01*
X71039158Y-61796575D01*
X70853597Y-61926505D01*
X70686505Y-62093597D01*
X70550965Y-62287169D01*
X70550964Y-62287171D01*
X70451098Y-62501335D01*
X70451094Y-62501344D01*
X70389938Y-62729586D01*
X70389936Y-62729596D01*
X70369341Y-62964999D01*
X70369341Y-62965000D01*
X70389936Y-63200403D01*
X70389938Y-63200413D01*
X70451094Y-63428655D01*
X70451096Y-63428659D01*
X70451097Y-63428663D01*
X70490345Y-63512830D01*
X70550965Y-63642830D01*
X70550967Y-63642834D01*
X70603623Y-63718034D01*
X70686505Y-63836401D01*
X70853599Y-64003495D01*
X70931443Y-64058002D01*
X71047165Y-64139032D01*
X71047167Y-64139033D01*
X71047170Y-64139035D01*
X71261337Y-64238903D01*
X71489592Y-64300063D01*
X71677918Y-64316539D01*
X71724999Y-64320659D01*
X71725000Y-64320659D01*
X71725001Y-64320659D01*
X71764234Y-64317226D01*
X71960408Y-64300063D01*
X72188663Y-64238903D01*
X72402830Y-64139035D01*
X72596401Y-64003495D01*
X72763495Y-63836401D01*
X72899035Y-63642830D01*
X72998903Y-63428663D01*
X73060063Y-63200408D01*
X73080659Y-62965000D01*
X73080424Y-62962319D01*
X73069285Y-62834999D01*
X73060063Y-62729592D01*
X72998903Y-62501337D01*
X72899035Y-62287171D01*
X72880002Y-62259988D01*
X72763494Y-62093597D01*
X72596402Y-61926506D01*
X72596396Y-61926501D01*
X72410842Y-61796575D01*
X72367217Y-61741998D01*
X72360023Y-61672500D01*
X72391546Y-61610145D01*
X72410842Y-61593425D01*
X72437153Y-61575002D01*
X72596401Y-61463495D01*
X72763495Y-61296401D01*
X72899035Y-61102830D01*
X72998903Y-60888663D01*
X73060063Y-60660408D01*
X73080659Y-60425000D01*
X73060063Y-60189592D01*
X73007794Y-59994518D01*
X72998905Y-59961344D01*
X72998904Y-59961343D01*
X72998903Y-59961337D01*
X72899035Y-59747171D01*
X72890506Y-59734989D01*
X72763494Y-59553597D01*
X72596402Y-59386506D01*
X72596396Y-59386501D01*
X72410842Y-59256575D01*
X72367217Y-59201998D01*
X72360023Y-59132500D01*
X72391546Y-59070145D01*
X72410842Y-59053425D01*
X72415739Y-59049996D01*
X74139720Y-59049996D01*
X74139720Y-59050003D01*
X74158780Y-59219172D01*
X74158781Y-59219176D01*
X74215011Y-59379874D01*
X74271125Y-59469178D01*
X74305589Y-59524027D01*
X74425973Y-59644411D01*
X74570127Y-59734989D01*
X74730822Y-59791218D01*
X74730823Y-59791218D01*
X74730827Y-59791219D01*
X74899996Y-59810280D01*
X74900000Y-59810280D01*
X74900004Y-59810280D01*
X75069172Y-59791219D01*
X75069174Y-59791218D01*
X75069178Y-59791218D01*
X75229873Y-59734989D01*
X75374027Y-59644411D01*
X75494411Y-59524027D01*
X75584989Y-59379873D01*
X75641218Y-59219178D01*
X75645914Y-59177500D01*
X75660280Y-59050003D01*
X75660280Y-59049996D01*
X75641219Y-58880827D01*
X75641218Y-58880823D01*
X75622025Y-58825973D01*
X75584989Y-58720127D01*
X75572342Y-58700000D01*
X75528878Y-58630827D01*
X75494411Y-58575973D01*
X75374027Y-58455589D01*
X75337813Y-58432834D01*
X75229874Y-58365011D01*
X75069176Y-58308781D01*
X75069172Y-58308780D01*
X74900004Y-58289720D01*
X74899996Y-58289720D01*
X74730827Y-58308780D01*
X74730823Y-58308781D01*
X74570125Y-58365011D01*
X74425972Y-58455589D01*
X74305589Y-58575972D01*
X74215011Y-58720125D01*
X74158781Y-58880823D01*
X74158780Y-58880827D01*
X74139720Y-59049996D01*
X72415739Y-59049996D01*
X72499681Y-58991219D01*
X72596401Y-58923495D01*
X72763495Y-58756401D01*
X72899035Y-58562830D01*
X72998903Y-58348663D01*
X73060063Y-58120408D01*
X73080659Y-57885000D01*
X73060063Y-57649592D01*
X73001191Y-57429875D01*
X72998905Y-57421344D01*
X72998904Y-57421343D01*
X72998903Y-57421337D01*
X72899035Y-57207171D01*
X72877190Y-57175972D01*
X72763494Y-57013597D01*
X72596402Y-56846506D01*
X72596396Y-56846501D01*
X72410842Y-56716575D01*
X72367217Y-56661998D01*
X72360023Y-56592500D01*
X72391546Y-56530145D01*
X72410842Y-56513425D01*
X72572622Y-56400145D01*
X72596401Y-56383495D01*
X72763495Y-56216401D01*
X72899035Y-56022830D01*
X72998903Y-55808663D01*
X73060063Y-55580408D01*
X73080659Y-55345000D01*
X73080579Y-55344091D01*
X73068633Y-55207544D01*
X73060063Y-55109592D01*
X73010342Y-54924027D01*
X72998905Y-54881344D01*
X72998904Y-54881343D01*
X72998903Y-54881337D01*
X72899035Y-54667171D01*
X72851321Y-54599027D01*
X72763494Y-54473597D01*
X72596402Y-54306506D01*
X72596396Y-54306501D01*
X72410842Y-54176575D01*
X72367217Y-54121998D01*
X72360023Y-54052500D01*
X72391546Y-53990145D01*
X72410842Y-53973425D01*
X72572622Y-53860145D01*
X72596401Y-53843495D01*
X72763495Y-53676401D01*
X72899035Y-53482830D01*
X72998903Y-53268663D01*
X73043524Y-53102135D01*
X74699500Y-53102135D01*
X74699500Y-54897870D01*
X74699501Y-54897876D01*
X74705908Y-54957483D01*
X74756202Y-55092328D01*
X74756206Y-55092335D01*
X74842452Y-55207544D01*
X74842455Y-55207547D01*
X74957664Y-55293793D01*
X74957671Y-55293797D01*
X75092517Y-55344091D01*
X75092516Y-55344091D01*
X75099444Y-55344835D01*
X75152127Y-55350500D01*
X76947872Y-55350499D01*
X77007483Y-55344091D01*
X77142331Y-55293796D01*
X77257546Y-55207546D01*
X77343796Y-55092331D01*
X77394091Y-54957483D01*
X77400500Y-54897873D01*
X77400499Y-53102128D01*
X77394091Y-53042517D01*
X77393306Y-53040413D01*
X77343797Y-52907671D01*
X77343793Y-52907664D01*
X77257547Y-52792455D01*
X77257544Y-52792452D01*
X77142335Y-52706206D01*
X77142328Y-52706202D01*
X77010401Y-52656997D01*
X76954467Y-52615126D01*
X76930050Y-52549662D01*
X76944902Y-52481389D01*
X76966053Y-52453133D01*
X77088108Y-52331078D01*
X77223600Y-52137578D01*
X77323429Y-51923492D01*
X77323432Y-51923486D01*
X77380636Y-51710000D01*
X76483012Y-51710000D01*
X76515925Y-51652993D01*
X76550000Y-51525826D01*
X76550000Y-51394174D01*
X76515925Y-51267007D01*
X76483012Y-51210000D01*
X77380636Y-51210000D01*
X77380635Y-51209999D01*
X77323432Y-50996513D01*
X77323429Y-50996507D01*
X77223600Y-50782422D01*
X77223599Y-50782420D01*
X77088113Y-50588926D01*
X77088108Y-50588920D01*
X76921082Y-50421894D01*
X76727578Y-50286399D01*
X76513492Y-50186570D01*
X76513486Y-50186567D01*
X76300000Y-50129364D01*
X76300000Y-51026988D01*
X76242993Y-50994075D01*
X76115826Y-50960000D01*
X75984174Y-50960000D01*
X75857007Y-50994075D01*
X75800000Y-51026988D01*
X75800000Y-50129364D01*
X75799999Y-50129364D01*
X75586513Y-50186567D01*
X75586507Y-50186570D01*
X75372422Y-50286399D01*
X75372420Y-50286400D01*
X75178926Y-50421886D01*
X75178920Y-50421891D01*
X75011891Y-50588920D01*
X75011886Y-50588926D01*
X74876400Y-50782420D01*
X74876399Y-50782422D01*
X74776570Y-50996507D01*
X74776567Y-50996513D01*
X74719364Y-51209999D01*
X74719364Y-51210000D01*
X75616988Y-51210000D01*
X75584075Y-51267007D01*
X75550000Y-51394174D01*
X75550000Y-51525826D01*
X75584075Y-51652993D01*
X75616988Y-51710000D01*
X74719364Y-51710000D01*
X74776567Y-51923486D01*
X74776570Y-51923492D01*
X74876399Y-52137578D01*
X75011894Y-52331082D01*
X75133946Y-52453134D01*
X75167431Y-52514457D01*
X75162447Y-52584149D01*
X75120575Y-52640082D01*
X75089598Y-52656997D01*
X74957671Y-52706202D01*
X74957664Y-52706206D01*
X74842455Y-52792452D01*
X74842452Y-52792455D01*
X74756206Y-52907664D01*
X74756202Y-52907671D01*
X74705908Y-53042517D01*
X74699501Y-53102116D01*
X74699501Y-53102123D01*
X74699500Y-53102135D01*
X73043524Y-53102135D01*
X73060063Y-53040408D01*
X73080659Y-52805000D01*
X73079732Y-52794410D01*
X73064047Y-52615126D01*
X73060063Y-52569592D01*
X72998903Y-52341337D01*
X72899035Y-52127171D01*
X72837221Y-52038890D01*
X72763494Y-51933597D01*
X72596402Y-51766506D01*
X72596396Y-51766501D01*
X72410842Y-51636575D01*
X72367217Y-51581998D01*
X72360023Y-51512500D01*
X72391546Y-51450145D01*
X72410842Y-51433425D01*
X72572622Y-51320145D01*
X72596401Y-51303495D01*
X72763495Y-51136401D01*
X72899035Y-50942830D01*
X72998903Y-50728663D01*
X73060063Y-50500408D01*
X73080659Y-50265000D01*
X73060063Y-50029592D01*
X72998903Y-49801337D01*
X72899035Y-49587171D01*
X72808009Y-49457171D01*
X72763494Y-49393597D01*
X72596402Y-49226506D01*
X72596396Y-49226501D01*
X72410842Y-49096575D01*
X72367217Y-49041998D01*
X72360023Y-48972500D01*
X72391546Y-48910145D01*
X72410842Y-48893425D01*
X72572622Y-48780145D01*
X72596401Y-48763495D01*
X72763495Y-48596401D01*
X72899035Y-48402830D01*
X72998903Y-48188663D01*
X73060063Y-47960408D01*
X73080659Y-47725000D01*
X73060063Y-47489592D01*
X72998903Y-47261337D01*
X72899035Y-47047171D01*
X72862093Y-46994411D01*
X72763494Y-46853597D01*
X72596402Y-46686506D01*
X72596396Y-46686501D01*
X72410842Y-46556575D01*
X72367217Y-46501998D01*
X72360023Y-46432500D01*
X72391546Y-46370145D01*
X72410842Y-46353425D01*
X72572622Y-46240145D01*
X72596401Y-46223495D01*
X72763495Y-46056401D01*
X72899035Y-45862830D01*
X72998903Y-45648663D01*
X73060063Y-45420408D01*
X73080659Y-45185000D01*
X73060063Y-44949592D01*
X72998903Y-44721337D01*
X72899035Y-44507171D01*
X72838860Y-44421231D01*
X72763494Y-44313597D01*
X72596402Y-44146506D01*
X72596395Y-44146501D01*
X72402834Y-44010967D01*
X72402830Y-44010965D01*
X72266092Y-43947203D01*
X72188663Y-43911097D01*
X72188659Y-43911096D01*
X72188655Y-43911094D01*
X71960413Y-43849938D01*
X71960403Y-43849936D01*
X71725001Y-43829341D01*
X71724999Y-43829341D01*
X71489596Y-43849936D01*
X71489586Y-43849938D01*
X71261344Y-43911094D01*
X71261335Y-43911098D01*
X71047171Y-44010964D01*
X71047169Y-44010965D01*
X70853597Y-44146505D01*
X70686505Y-44313597D01*
X70550965Y-44507169D01*
X70550964Y-44507171D01*
X70451098Y-44721335D01*
X70451094Y-44721344D01*
X70389938Y-44949586D01*
X70389936Y-44949596D01*
X70369341Y-45184999D01*
X57829285Y-45184999D01*
X57840659Y-45055000D01*
X57820063Y-44819592D01*
X57758903Y-44591337D01*
X57659035Y-44377171D01*
X57614521Y-44313597D01*
X57523494Y-44183597D01*
X57356402Y-44016506D01*
X57356395Y-44016501D01*
X57348487Y-44010964D01*
X57235089Y-43931561D01*
X57162834Y-43880967D01*
X57162830Y-43880965D01*
X57144415Y-43872378D01*
X56948663Y-43781097D01*
X56948659Y-43781096D01*
X56948655Y-43781094D01*
X56720413Y-43719938D01*
X56720403Y-43719936D01*
X56485001Y-43699341D01*
X56484999Y-43699341D01*
X56249596Y-43719936D01*
X56249586Y-43719938D01*
X56021344Y-43781094D01*
X56021335Y-43781098D01*
X55807171Y-43880964D01*
X55807169Y-43880965D01*
X55613597Y-44016505D01*
X55446505Y-44183597D01*
X55310965Y-44377169D01*
X55310964Y-44377171D01*
X55211098Y-44591335D01*
X55211094Y-44591344D01*
X55149938Y-44819586D01*
X55149936Y-44819596D01*
X55129341Y-45054999D01*
X55129341Y-45055000D01*
X55149936Y-45290403D01*
X55149938Y-45290413D01*
X55211094Y-45518655D01*
X55211096Y-45518659D01*
X55211097Y-45518663D01*
X55271717Y-45648663D01*
X55310965Y-45732830D01*
X55310967Y-45732834D01*
X55328589Y-45758000D01*
X55446205Y-45925973D01*
X55446501Y-45926395D01*
X55446506Y-45926402D01*
X55613597Y-46093493D01*
X55613603Y-46093498D01*
X55799158Y-46223425D01*
X55842783Y-46278002D01*
X55849977Y-46347500D01*
X55818454Y-46409855D01*
X55799158Y-46426575D01*
X55613597Y-46556505D01*
X55446505Y-46723597D01*
X55310965Y-46917169D01*
X55310964Y-46917171D01*
X55211098Y-47131335D01*
X55211094Y-47131344D01*
X55149938Y-47359586D01*
X55149936Y-47359596D01*
X55129341Y-47594999D01*
X55129341Y-47595000D01*
X55149936Y-47830403D01*
X55149938Y-47830413D01*
X55211094Y-48058655D01*
X55211096Y-48058659D01*
X55211097Y-48058663D01*
X55271717Y-48188663D01*
X55310965Y-48272830D01*
X55310967Y-48272834D01*
X55446501Y-48466395D01*
X55446506Y-48466402D01*
X55613597Y-48633493D01*
X55613603Y-48633498D01*
X55799158Y-48763425D01*
X55842783Y-48818002D01*
X55849977Y-48887500D01*
X55818454Y-48949855D01*
X55799158Y-48966575D01*
X55613597Y-49096505D01*
X55446505Y-49263597D01*
X55310965Y-49457169D01*
X55310964Y-49457171D01*
X55211098Y-49671335D01*
X55211094Y-49671344D01*
X55149938Y-49899586D01*
X55149936Y-49899596D01*
X55129341Y-50134999D01*
X55129341Y-50135000D01*
X55149936Y-50370403D01*
X55149938Y-50370413D01*
X55211094Y-50598655D01*
X55211096Y-50598659D01*
X55211097Y-50598663D01*
X55310965Y-50812830D01*
X55310967Y-50812834D01*
X55446501Y-51006395D01*
X55446506Y-51006402D01*
X55613597Y-51173493D01*
X55613603Y-51173498D01*
X55799158Y-51303425D01*
X55842783Y-51358002D01*
X55849977Y-51427500D01*
X55818454Y-51489855D01*
X55799158Y-51506575D01*
X55613597Y-51636505D01*
X55446505Y-51803597D01*
X55310965Y-51997169D01*
X55310964Y-51997171D01*
X55211098Y-52211335D01*
X55211094Y-52211344D01*
X55149938Y-52439586D01*
X55149936Y-52439596D01*
X55129341Y-52674999D01*
X55129341Y-52675000D01*
X55149936Y-52910403D01*
X55149938Y-52910413D01*
X55211094Y-53138655D01*
X55211096Y-53138659D01*
X55211097Y-53138663D01*
X55271717Y-53268663D01*
X55310965Y-53352830D01*
X55310967Y-53352834D01*
X55446501Y-53546395D01*
X55446506Y-53546402D01*
X55613597Y-53713493D01*
X55613603Y-53713498D01*
X55799158Y-53843425D01*
X55842783Y-53898002D01*
X55849977Y-53967500D01*
X55818454Y-54029855D01*
X55799158Y-54046575D01*
X55613597Y-54176505D01*
X55446505Y-54343597D01*
X55310965Y-54537169D01*
X55310964Y-54537171D01*
X55211098Y-54751335D01*
X55211094Y-54751344D01*
X55149938Y-54979586D01*
X55149936Y-54979596D01*
X55129341Y-55214999D01*
X55129341Y-55215000D01*
X55149936Y-55450403D01*
X55149938Y-55450413D01*
X55211094Y-55678655D01*
X55211096Y-55678659D01*
X55211097Y-55678663D01*
X55271716Y-55808660D01*
X55310965Y-55892830D01*
X55310967Y-55892834D01*
X55446501Y-56086395D01*
X55446506Y-56086402D01*
X55613597Y-56253493D01*
X55613603Y-56253498D01*
X55799158Y-56383425D01*
X55842783Y-56438002D01*
X55849977Y-56507500D01*
X55818454Y-56569855D01*
X55799158Y-56586575D01*
X55613597Y-56716505D01*
X55446505Y-56883597D01*
X55310965Y-57077169D01*
X55310964Y-57077171D01*
X55211098Y-57291335D01*
X55211094Y-57291344D01*
X55149938Y-57519586D01*
X55149936Y-57519596D01*
X55129341Y-57754999D01*
X55129341Y-57755000D01*
X55149936Y-57990403D01*
X55149938Y-57990413D01*
X55211094Y-58218655D01*
X55211096Y-58218659D01*
X55211097Y-58218663D01*
X55300450Y-58410280D01*
X55310965Y-58432830D01*
X55310967Y-58432834D01*
X55446501Y-58626395D01*
X55446506Y-58626402D01*
X55613597Y-58793493D01*
X55613603Y-58793498D01*
X55799158Y-58923425D01*
X55842783Y-58978002D01*
X55849977Y-59047500D01*
X55818454Y-59109855D01*
X55799158Y-59126575D01*
X55613597Y-59256505D01*
X55446505Y-59423597D01*
X55310965Y-59617169D01*
X55310964Y-59617171D01*
X55211098Y-59831335D01*
X55211094Y-59831344D01*
X55149938Y-60059586D01*
X55149936Y-60059596D01*
X55129341Y-60294999D01*
X55129341Y-60295000D01*
X55149936Y-60530403D01*
X55149938Y-60530413D01*
X55197612Y-60708337D01*
X55195949Y-60778187D01*
X55156786Y-60836049D01*
X55092558Y-60863553D01*
X55036884Y-60857472D01*
X54969180Y-60833782D01*
X54969173Y-60833780D01*
X54891195Y-60824994D01*
X54826782Y-60797927D01*
X54787227Y-60740331D01*
X54781860Y-60687889D01*
X54785280Y-60657538D01*
X54785280Y-60657534D01*
X54766219Y-60488365D01*
X54766218Y-60488361D01*
X54755867Y-60458780D01*
X54709989Y-60327665D01*
X54689093Y-60294410D01*
X54619410Y-60183510D01*
X54499027Y-60063127D01*
X54354874Y-59972549D01*
X54194176Y-59916319D01*
X54194172Y-59916318D01*
X54025004Y-59897258D01*
X54024996Y-59897258D01*
X53855827Y-59916318D01*
X53855823Y-59916319D01*
X53695125Y-59972549D01*
X53550972Y-60063127D01*
X53430589Y-60183510D01*
X53340011Y-60327663D01*
X53283781Y-60488361D01*
X53283780Y-60488365D01*
X53264720Y-60657534D01*
X28650972Y-60657534D01*
X28599027Y-60605589D01*
X28534892Y-60565290D01*
X28454874Y-60515011D01*
X28294176Y-60458781D01*
X28294172Y-60458780D01*
X28125004Y-60439720D01*
X28124996Y-60439720D01*
X27955827Y-60458780D01*
X27955823Y-60458781D01*
X27795125Y-60515011D01*
X27650972Y-60605589D01*
X27530589Y-60725972D01*
X27440011Y-60870125D01*
X27383781Y-61030823D01*
X27383780Y-61030827D01*
X27364720Y-61199996D01*
X20500500Y-61199996D01*
X20500500Y-60565290D01*
X20520185Y-60498251D01*
X20572989Y-60452496D01*
X20638384Y-60442070D01*
X20799998Y-60460280D01*
X20800000Y-60460280D01*
X20800004Y-60460280D01*
X20969172Y-60441219D01*
X20969174Y-60441218D01*
X20969178Y-60441218D01*
X21129873Y-60384989D01*
X21274027Y-60294411D01*
X21394411Y-60174027D01*
X21452819Y-60081070D01*
X21505152Y-60034780D01*
X21574205Y-60024131D01*
X21598768Y-60030002D01*
X21630822Y-60041218D01*
X21799996Y-60060280D01*
X21800000Y-60060280D01*
X21800004Y-60060280D01*
X21969172Y-60041219D01*
X21969174Y-60041218D01*
X21969178Y-60041218D01*
X22129873Y-59984989D01*
X22274027Y-59894411D01*
X22351969Y-59816468D01*
X22413288Y-59782986D01*
X22482980Y-59787970D01*
X22538914Y-59829841D01*
X22556689Y-59863197D01*
X22578580Y-59925760D01*
X22591029Y-59961337D01*
X22615012Y-60029875D01*
X22633687Y-60059596D01*
X22705589Y-60174027D01*
X22825973Y-60294411D01*
X22970127Y-60384989D01*
X23130822Y-60441218D01*
X23130823Y-60441218D01*
X23130827Y-60441219D01*
X23299996Y-60460280D01*
X23300000Y-60460280D01*
X23300004Y-60460280D01*
X23469172Y-60441219D01*
X23469174Y-60441218D01*
X23469178Y-60441218D01*
X23629873Y-60384989D01*
X23774027Y-60294411D01*
X23894411Y-60174027D01*
X23984989Y-60029873D01*
X24041218Y-59869178D01*
X24045482Y-59831335D01*
X24060280Y-59700003D01*
X24060280Y-59699996D01*
X24041219Y-59530827D01*
X24041218Y-59530823D01*
X24025180Y-59484989D01*
X23984989Y-59370127D01*
X23982381Y-59365976D01*
X23963378Y-59298740D01*
X23982381Y-59234024D01*
X23984988Y-59229874D01*
X23984989Y-59229873D01*
X24041218Y-59069178D01*
X24043379Y-59050000D01*
X24060280Y-58900003D01*
X24060280Y-58899996D01*
X24041219Y-58730827D01*
X24041218Y-58730823D01*
X24037475Y-58720127D01*
X23984989Y-58570127D01*
X23950962Y-58515973D01*
X23931961Y-58448736D01*
X23950962Y-58384027D01*
X23962910Y-58365011D01*
X23984989Y-58329873D01*
X24012939Y-58249996D01*
X42589720Y-58249996D01*
X42589720Y-58250003D01*
X42608780Y-58419172D01*
X42608781Y-58419176D01*
X42665011Y-58579874D01*
X42736980Y-58694411D01*
X42755589Y-58724027D01*
X42875973Y-58844411D01*
X43020127Y-58934989D01*
X43180822Y-58991218D01*
X43180823Y-58991218D01*
X43180827Y-58991219D01*
X43349996Y-59010280D01*
X43350000Y-59010280D01*
X43350004Y-59010280D01*
X43519172Y-58991219D01*
X43519174Y-58991218D01*
X43519178Y-58991218D01*
X43679873Y-58934989D01*
X43824027Y-58844411D01*
X43868442Y-58799996D01*
X48639720Y-58799996D01*
X48639720Y-58800003D01*
X48658780Y-58969172D01*
X48658781Y-58969176D01*
X48715011Y-59129874D01*
X48730799Y-59155000D01*
X48805589Y-59274027D01*
X48925973Y-59394411D01*
X49070127Y-59484989D01*
X49230822Y-59541218D01*
X49230823Y-59541218D01*
X49230827Y-59541219D01*
X49399996Y-59560280D01*
X49400000Y-59560280D01*
X49400004Y-59560280D01*
X49569172Y-59541219D01*
X49569174Y-59541218D01*
X49569178Y-59541218D01*
X49729873Y-59484989D01*
X49874027Y-59394411D01*
X49994411Y-59274027D01*
X50084989Y-59129873D01*
X50141218Y-58969178D01*
X50141219Y-58969172D01*
X50160280Y-58800003D01*
X50160280Y-58799996D01*
X50141219Y-58630827D01*
X50141218Y-58630823D01*
X50123390Y-58579874D01*
X50084989Y-58470127D01*
X50072342Y-58450000D01*
X50018940Y-58365011D01*
X49994411Y-58325973D01*
X49874027Y-58205589D01*
X49836342Y-58181910D01*
X49729874Y-58115011D01*
X49569176Y-58058781D01*
X49569172Y-58058780D01*
X49400004Y-58039720D01*
X49399996Y-58039720D01*
X49230827Y-58058780D01*
X49230823Y-58058781D01*
X49070125Y-58115011D01*
X48925972Y-58205589D01*
X48805589Y-58325972D01*
X48715011Y-58470125D01*
X48658781Y-58630823D01*
X48658780Y-58630827D01*
X48639720Y-58799996D01*
X43868442Y-58799996D01*
X43944411Y-58724027D01*
X44034989Y-58579873D01*
X44091218Y-58419178D01*
X44092221Y-58410280D01*
X44110280Y-58250003D01*
X44110280Y-58249996D01*
X44091219Y-58080827D01*
X44091218Y-58080823D01*
X44083505Y-58058781D01*
X44034989Y-57920127D01*
X43944411Y-57775973D01*
X43824027Y-57655589D01*
X43815126Y-57649996D01*
X45189720Y-57649996D01*
X45189720Y-57650003D01*
X45208780Y-57819172D01*
X45208781Y-57819176D01*
X45265011Y-57979874D01*
X45349924Y-58115011D01*
X45355589Y-58124027D01*
X45475973Y-58244411D01*
X45520659Y-58272489D01*
X45611986Y-58329874D01*
X45620127Y-58334989D01*
X45780822Y-58391218D01*
X45780823Y-58391218D01*
X45780827Y-58391219D01*
X45949996Y-58410280D01*
X45950000Y-58410280D01*
X45950004Y-58410280D01*
X46119172Y-58391219D01*
X46119174Y-58391218D01*
X46119178Y-58391218D01*
X46279873Y-58334989D01*
X46424027Y-58244411D01*
X46544411Y-58124027D01*
X46634989Y-57979873D01*
X46691218Y-57819178D01*
X46696086Y-57775973D01*
X46710280Y-57650003D01*
X46710280Y-57649996D01*
X46691219Y-57480827D01*
X46691218Y-57480823D01*
X46673390Y-57429874D01*
X46634989Y-57320127D01*
X46616903Y-57291344D01*
X46544410Y-57175972D01*
X46424027Y-57055589D01*
X46279874Y-56965011D01*
X46119176Y-56908781D01*
X46119172Y-56908780D01*
X45950004Y-56889720D01*
X45949996Y-56889720D01*
X45780827Y-56908780D01*
X45780823Y-56908781D01*
X45620125Y-56965011D01*
X45475972Y-57055589D01*
X45355589Y-57175972D01*
X45265011Y-57320125D01*
X45208781Y-57480823D01*
X45208780Y-57480827D01*
X45189720Y-57649996D01*
X43815126Y-57649996D01*
X43760979Y-57615973D01*
X43679874Y-57565011D01*
X43519176Y-57508781D01*
X43519172Y-57508780D01*
X43350004Y-57489720D01*
X43349996Y-57489720D01*
X43180827Y-57508780D01*
X43180823Y-57508781D01*
X43020125Y-57565011D01*
X42875972Y-57655589D01*
X42755589Y-57775972D01*
X42665011Y-57920125D01*
X42608781Y-58080823D01*
X42608780Y-58080827D01*
X42589720Y-58249996D01*
X24012939Y-58249996D01*
X24041218Y-58169178D01*
X24041219Y-58169172D01*
X24060280Y-58000003D01*
X24060280Y-57999996D01*
X24041219Y-57830827D01*
X24041218Y-57830823D01*
X24037143Y-57819178D01*
X23984989Y-57670127D01*
X23972340Y-57649996D01*
X23950962Y-57615973D01*
X23931961Y-57548736D01*
X23950962Y-57484027D01*
X23960862Y-57468269D01*
X23984989Y-57429873D01*
X24041218Y-57269178D01*
X24041219Y-57269172D01*
X24060280Y-57100003D01*
X24060280Y-57099996D01*
X24041219Y-56930827D01*
X24041218Y-56930823D01*
X24033505Y-56908781D01*
X23984989Y-56770127D01*
X23982381Y-56765976D01*
X23963378Y-56698740D01*
X23982381Y-56634024D01*
X23984988Y-56629874D01*
X23984989Y-56629873D01*
X24041218Y-56469178D01*
X24041219Y-56469173D01*
X24053451Y-56360615D01*
X24080518Y-56296201D01*
X24138113Y-56256646D01*
X24176671Y-56250499D01*
X24870528Y-56250499D01*
X24870536Y-56250499D01*
X24989918Y-56239886D01*
X25185549Y-56183909D01*
X25365907Y-56089698D01*
X25523609Y-55961109D01*
X25652198Y-55803407D01*
X25746409Y-55623049D01*
X25802386Y-55427418D01*
X25813000Y-55308037D01*
X25813000Y-54449996D01*
X50614720Y-54449996D01*
X50614720Y-54450003D01*
X50633780Y-54619172D01*
X50633781Y-54619176D01*
X50690011Y-54779874D01*
X50764150Y-54897864D01*
X50780589Y-54924027D01*
X50900973Y-55044411D01*
X51045127Y-55134989D01*
X51205822Y-55191218D01*
X51205823Y-55191218D01*
X51205827Y-55191219D01*
X51374996Y-55210280D01*
X51375000Y-55210280D01*
X51375004Y-55210280D01*
X51544172Y-55191219D01*
X51544174Y-55191218D01*
X51544178Y-55191218D01*
X51704873Y-55134989D01*
X51849027Y-55044411D01*
X51969411Y-54924027D01*
X52059989Y-54779873D01*
X52116218Y-54619178D01*
X52116219Y-54619172D01*
X52135280Y-54450003D01*
X52135280Y-54449996D01*
X52116219Y-54280827D01*
X52116218Y-54280823D01*
X52079740Y-54176575D01*
X52059989Y-54120127D01*
X51969411Y-53975973D01*
X51849027Y-53855589D01*
X51829668Y-53843425D01*
X51704874Y-53765011D01*
X51544176Y-53708781D01*
X51544172Y-53708780D01*
X51375004Y-53689720D01*
X51374996Y-53689720D01*
X51205827Y-53708780D01*
X51205823Y-53708781D01*
X51045125Y-53765011D01*
X50900972Y-53855589D01*
X50780589Y-53975972D01*
X50690011Y-54120125D01*
X50633781Y-54280823D01*
X50633780Y-54280827D01*
X50614720Y-54449996D01*
X25813000Y-54449996D01*
X25812999Y-52691964D01*
X25802386Y-52572582D01*
X25746409Y-52376951D01*
X25653976Y-52199996D01*
X44839720Y-52199996D01*
X44839720Y-52200003D01*
X44858780Y-52369172D01*
X44858781Y-52369176D01*
X44915011Y-52529874D01*
X44968579Y-52615126D01*
X45005589Y-52674027D01*
X45125973Y-52794411D01*
X45270127Y-52884989D01*
X45430822Y-52941218D01*
X45430823Y-52941218D01*
X45430827Y-52941219D01*
X45599996Y-52960280D01*
X45600000Y-52960280D01*
X45600004Y-52960280D01*
X45769172Y-52941219D01*
X45769174Y-52941218D01*
X45769178Y-52941218D01*
X45929873Y-52884989D01*
X46074027Y-52794411D01*
X46194411Y-52674027D01*
X46284989Y-52529873D01*
X46341218Y-52369178D01*
X46341219Y-52369172D01*
X46360280Y-52200003D01*
X46360280Y-52199996D01*
X46341219Y-52030827D01*
X46341218Y-52030823D01*
X46320373Y-51971252D01*
X46284989Y-51870127D01*
X46194411Y-51725973D01*
X46074027Y-51605589D01*
X45997494Y-51557500D01*
X45929874Y-51515011D01*
X45769176Y-51458781D01*
X45769172Y-51458780D01*
X45600004Y-51439720D01*
X45599996Y-51439720D01*
X45430827Y-51458780D01*
X45430823Y-51458781D01*
X45270125Y-51515011D01*
X45125972Y-51605589D01*
X45005589Y-51725972D01*
X44915011Y-51870125D01*
X44858781Y-52030823D01*
X44858780Y-52030827D01*
X44839720Y-52199996D01*
X25653976Y-52199996D01*
X25652198Y-52196593D01*
X25595590Y-52127169D01*
X25523609Y-52038890D01*
X25408433Y-51944977D01*
X25365907Y-51910302D01*
X25185549Y-51816091D01*
X25185548Y-51816090D01*
X25185545Y-51816089D01*
X25068329Y-51782550D01*
X24989918Y-51760114D01*
X24989915Y-51760113D01*
X24989913Y-51760113D01*
X24923602Y-51754217D01*
X24870537Y-51749500D01*
X24870532Y-51749500D01*
X21254471Y-51749500D01*
X21254465Y-51749500D01*
X21254464Y-51749501D01*
X21242816Y-51750536D01*
X21135084Y-51760113D01*
X20939454Y-51816089D01*
X20759087Y-51910305D01*
X20702860Y-51956153D01*
X20638464Y-51983262D01*
X20569634Y-51971252D01*
X20518224Y-51923937D01*
X20500500Y-51860051D01*
X20500500Y-44421227D01*
X35539720Y-44421227D01*
X35539720Y-44421234D01*
X35558780Y-44590403D01*
X35558781Y-44590407D01*
X35615011Y-44751105D01*
X35645939Y-44800326D01*
X35705589Y-44895258D01*
X35825973Y-45015642D01*
X35970127Y-45106220D01*
X36130822Y-45162449D01*
X36130823Y-45162449D01*
X36130827Y-45162450D01*
X36299996Y-45181511D01*
X36300000Y-45181511D01*
X36300004Y-45181511D01*
X36469172Y-45162450D01*
X36469174Y-45162449D01*
X36469178Y-45162449D01*
X36629873Y-45106220D01*
X36774027Y-45015642D01*
X36791084Y-44998583D01*
X36852404Y-44965097D01*
X36922096Y-44970078D01*
X36966449Y-44998581D01*
X36983510Y-45015642D01*
X37127664Y-45106220D01*
X37288359Y-45162449D01*
X37288360Y-45162449D01*
X37288364Y-45162450D01*
X37457533Y-45181511D01*
X37457537Y-45181511D01*
X37457541Y-45181511D01*
X37626709Y-45162450D01*
X37626711Y-45162449D01*
X37626715Y-45162449D01*
X37787410Y-45106220D01*
X37931564Y-45015642D01*
X38051948Y-44895258D01*
X38142526Y-44751104D01*
X38198755Y-44590409D01*
X38217817Y-44421231D01*
X38212852Y-44377169D01*
X38198756Y-44252058D01*
X38198755Y-44252054D01*
X38161822Y-44146505D01*
X38142526Y-44091358D01*
X38051948Y-43947204D01*
X37931564Y-43826820D01*
X37858798Y-43781098D01*
X37787411Y-43736242D01*
X37626713Y-43680012D01*
X37626709Y-43680011D01*
X37457541Y-43660951D01*
X37457533Y-43660951D01*
X37288364Y-43680011D01*
X37288360Y-43680012D01*
X37127662Y-43736242D01*
X36983506Y-43826822D01*
X36983504Y-43826824D01*
X36966444Y-43843883D01*
X36905120Y-43877365D01*
X36835428Y-43872378D01*
X36791086Y-43843879D01*
X36774027Y-43826820D01*
X36629874Y-43736242D01*
X36469176Y-43680012D01*
X36469172Y-43680011D01*
X36300004Y-43660951D01*
X36299996Y-43660951D01*
X36130827Y-43680011D01*
X36130823Y-43680012D01*
X35970125Y-43736242D01*
X35825972Y-43826820D01*
X35705589Y-43947203D01*
X35615011Y-44091356D01*
X35558781Y-44252054D01*
X35558780Y-44252058D01*
X35539720Y-44421227D01*
X20500500Y-44421227D01*
X20500500Y-42909635D01*
X43802500Y-42909635D01*
X43802500Y-45305370D01*
X43802501Y-45305376D01*
X43808908Y-45364983D01*
X43859202Y-45499828D01*
X43859206Y-45499835D01*
X43945452Y-45615044D01*
X43945455Y-45615047D01*
X44060664Y-45701293D01*
X44060671Y-45701297D01*
X44195517Y-45751591D01*
X44195516Y-45751591D01*
X44202444Y-45752335D01*
X44255127Y-45758000D01*
X45850872Y-45757999D01*
X45910483Y-45751591D01*
X46045331Y-45701296D01*
X46160546Y-45615046D01*
X46246796Y-45499831D01*
X46297091Y-45364983D01*
X46303500Y-45305373D01*
X46303499Y-43609077D01*
X48882500Y-43609077D01*
X48882500Y-44605922D01*
X48913290Y-44800326D01*
X48974117Y-44987529D01*
X49063244Y-45162449D01*
X49063476Y-45162905D01*
X49179172Y-45322146D01*
X49318354Y-45461328D01*
X49477595Y-45577024D01*
X49552214Y-45615044D01*
X49652970Y-45666382D01*
X49652972Y-45666382D01*
X49652975Y-45666384D01*
X49753317Y-45698987D01*
X49840173Y-45727209D01*
X50034578Y-45758000D01*
X50034583Y-45758000D01*
X50231422Y-45758000D01*
X50425826Y-45727209D01*
X50505574Y-45701297D01*
X50613025Y-45666384D01*
X50788405Y-45577024D01*
X50947646Y-45461328D01*
X51086828Y-45322146D01*
X51202524Y-45162905D01*
X51291884Y-44987525D01*
X51352709Y-44800326D01*
X51360505Y-44751104D01*
X51383500Y-44605922D01*
X51383500Y-43609077D01*
X51352709Y-43414673D01*
X51291882Y-43227470D01*
X51202523Y-43052094D01*
X51086828Y-42892854D01*
X50947646Y-42753672D01*
X50788405Y-42637976D01*
X50613029Y-42548617D01*
X50425826Y-42487790D01*
X50231422Y-42457000D01*
X50231417Y-42457000D01*
X50034583Y-42457000D01*
X50034578Y-42457000D01*
X49840173Y-42487790D01*
X49652970Y-42548617D01*
X49477594Y-42637976D01*
X49386741Y-42703985D01*
X49318354Y-42753672D01*
X49318352Y-42753674D01*
X49318351Y-42753674D01*
X49179174Y-42892851D01*
X49179174Y-42892852D01*
X49179172Y-42892854D01*
X49166980Y-42909635D01*
X49063476Y-43052094D01*
X48974117Y-43227470D01*
X48913290Y-43414673D01*
X48882500Y-43609077D01*
X46303499Y-43609077D01*
X46303499Y-42909628D01*
X46297091Y-42850017D01*
X46261157Y-42753674D01*
X46246797Y-42715171D01*
X46246793Y-42715164D01*
X46160547Y-42599955D01*
X46160544Y-42599952D01*
X46045335Y-42513706D01*
X46045328Y-42513702D01*
X45910482Y-42463408D01*
X45910483Y-42463408D01*
X45850883Y-42457001D01*
X45850881Y-42457000D01*
X45850873Y-42457000D01*
X45850864Y-42457000D01*
X44255129Y-42457000D01*
X44255123Y-42457001D01*
X44195516Y-42463408D01*
X44060671Y-42513702D01*
X44060664Y-42513706D01*
X43945455Y-42599952D01*
X43945452Y-42599955D01*
X43859206Y-42715164D01*
X43859202Y-42715171D01*
X43808908Y-42850017D01*
X43804303Y-42892854D01*
X43802501Y-42909623D01*
X43802500Y-42909635D01*
X20500500Y-42909635D01*
X20500500Y-39299996D01*
X65739720Y-39299996D01*
X65739720Y-39300003D01*
X65758780Y-39469172D01*
X65758781Y-39469176D01*
X65815011Y-39629874D01*
X65905589Y-39774027D01*
X66025973Y-39894411D01*
X66170127Y-39984989D01*
X66330822Y-40041218D01*
X66330823Y-40041218D01*
X66330827Y-40041219D01*
X66499996Y-40060280D01*
X66500000Y-40060280D01*
X66500004Y-40060280D01*
X66669172Y-40041219D01*
X66669174Y-40041218D01*
X66669178Y-40041218D01*
X66829873Y-39984989D01*
X66974027Y-39894411D01*
X67094411Y-39774027D01*
X67184989Y-39629873D01*
X67241218Y-39469178D01*
X67260280Y-39300000D01*
X67241218Y-39130822D01*
X67184989Y-38970127D01*
X67094411Y-38825973D01*
X66974027Y-38705589D01*
X66951156Y-38691218D01*
X66829874Y-38615011D01*
X66669176Y-38558781D01*
X66669172Y-38558780D01*
X66500004Y-38539720D01*
X66499996Y-38539720D01*
X66330827Y-38558780D01*
X66330823Y-38558781D01*
X66170125Y-38615011D01*
X66025972Y-38705589D01*
X65905589Y-38825972D01*
X65815011Y-38970125D01*
X65758781Y-39130823D01*
X65758780Y-39130827D01*
X65739720Y-39299996D01*
X20500500Y-39299996D01*
X20500500Y-37299996D01*
X69889720Y-37299996D01*
X69889720Y-37300003D01*
X69908780Y-37469172D01*
X69908781Y-37469176D01*
X69965011Y-37629874D01*
X70030456Y-37734028D01*
X70049456Y-37801264D01*
X70030456Y-37865972D01*
X69965011Y-37970125D01*
X69908781Y-38130823D01*
X69908780Y-38130827D01*
X69889720Y-38299996D01*
X69889720Y-38300003D01*
X69908780Y-38469172D01*
X69908781Y-38469176D01*
X69965011Y-38629874D01*
X70015534Y-38710280D01*
X70055589Y-38774027D01*
X70175973Y-38894411D01*
X70320127Y-38984989D01*
X70480822Y-39041218D01*
X70480823Y-39041218D01*
X70480827Y-39041219D01*
X70649996Y-39060280D01*
X70650000Y-39060280D01*
X70650004Y-39060280D01*
X70819172Y-39041219D01*
X70819174Y-39041218D01*
X70819178Y-39041218D01*
X70979873Y-38984989D01*
X71124027Y-38894411D01*
X71244411Y-38774027D01*
X71334989Y-38629873D01*
X71391218Y-38469178D01*
X71391219Y-38469172D01*
X71410280Y-38300003D01*
X71410280Y-38299996D01*
X71391219Y-38130827D01*
X71391218Y-38130823D01*
X71387143Y-38119178D01*
X71334989Y-37970127D01*
X71322340Y-37949996D01*
X72789720Y-37949996D01*
X72789720Y-37950003D01*
X72808780Y-38119172D01*
X72808781Y-38119176D01*
X72865011Y-38279874D01*
X72955589Y-38424027D01*
X73075973Y-38544411D01*
X73161237Y-38597986D01*
X73211986Y-38629874D01*
X73220127Y-38634989D01*
X73380822Y-38691218D01*
X73380823Y-38691218D01*
X73380827Y-38691219D01*
X73549996Y-38710280D01*
X73550000Y-38710280D01*
X73550004Y-38710280D01*
X73719172Y-38691219D01*
X73719174Y-38691218D01*
X73719178Y-38691218D01*
X73879873Y-38634989D01*
X74024027Y-38544411D01*
X74144411Y-38424027D01*
X74234989Y-38279873D01*
X74291218Y-38119178D01*
X74291219Y-38119172D01*
X74310280Y-37950003D01*
X74310280Y-37949996D01*
X74291219Y-37780827D01*
X74291218Y-37780823D01*
X74238399Y-37629874D01*
X74234989Y-37620127D01*
X74144411Y-37475973D01*
X74024027Y-37355589D01*
X73879874Y-37265011D01*
X73719176Y-37208781D01*
X73719172Y-37208780D01*
X73550004Y-37189720D01*
X73549996Y-37189720D01*
X73380827Y-37208780D01*
X73380823Y-37208781D01*
X73220125Y-37265011D01*
X73075972Y-37355589D01*
X72955589Y-37475972D01*
X72865011Y-37620125D01*
X72808781Y-37780823D01*
X72808780Y-37780827D01*
X72789720Y-37949996D01*
X71322340Y-37949996D01*
X71269543Y-37865971D01*
X71250543Y-37798736D01*
X71269544Y-37734028D01*
X71334989Y-37629873D01*
X71391218Y-37469178D01*
X71410280Y-37300000D01*
X71400002Y-37208782D01*
X71391219Y-37130827D01*
X71391218Y-37130823D01*
X71334988Y-36970125D01*
X71244410Y-36825972D01*
X71124027Y-36705589D01*
X70979874Y-36615011D01*
X70819176Y-36558781D01*
X70819172Y-36558780D01*
X70650004Y-36539720D01*
X70649996Y-36539720D01*
X70480827Y-36558780D01*
X70480823Y-36558781D01*
X70320125Y-36615011D01*
X70175972Y-36705589D01*
X70055589Y-36825972D01*
X69965011Y-36970125D01*
X69908781Y-37130823D01*
X69908780Y-37130827D01*
X69889720Y-37299996D01*
X20500500Y-37299996D01*
X20500500Y-35583728D01*
X81430988Y-35583728D01*
X81430988Y-35583735D01*
X81450048Y-35752904D01*
X81450049Y-35752908D01*
X81506279Y-35913606D01*
X81596857Y-36057759D01*
X81717241Y-36178143D01*
X81861395Y-36268721D01*
X82022090Y-36324950D01*
X82022091Y-36324950D01*
X82022095Y-36324951D01*
X82191264Y-36344012D01*
X82191268Y-36344012D01*
X82191272Y-36344012D01*
X82360440Y-36324951D01*
X82360442Y-36324950D01*
X82360446Y-36324950D01*
X82521141Y-36268721D01*
X82665295Y-36178143D01*
X82785679Y-36057759D01*
X82876257Y-35913605D01*
X82932486Y-35752910D01*
X82951548Y-35583732D01*
X82932486Y-35414554D01*
X82876257Y-35253859D01*
X82785679Y-35109705D01*
X82665295Y-34989321D01*
X82521142Y-34898743D01*
X82360444Y-34842513D01*
X82360440Y-34842512D01*
X82191272Y-34823452D01*
X82191264Y-34823452D01*
X82022095Y-34842512D01*
X82022091Y-34842513D01*
X81861393Y-34898743D01*
X81717240Y-34989321D01*
X81596857Y-35109704D01*
X81506279Y-35253857D01*
X81450049Y-35414555D01*
X81450048Y-35414559D01*
X81430988Y-35583728D01*
X20500500Y-35583728D01*
X20500500Y-34399996D01*
X44564720Y-34399996D01*
X44564720Y-34400003D01*
X44583780Y-34569172D01*
X44583781Y-34569176D01*
X44640011Y-34729874D01*
X44710787Y-34842512D01*
X44730589Y-34874027D01*
X44850973Y-34994411D01*
X44995127Y-35084989D01*
X45155822Y-35141218D01*
X45155823Y-35141218D01*
X45155827Y-35141219D01*
X45324996Y-35160280D01*
X45325000Y-35160280D01*
X45325004Y-35160280D01*
X45494172Y-35141219D01*
X45494174Y-35141218D01*
X45494178Y-35141218D01*
X45654873Y-35084989D01*
X45799027Y-34994411D01*
X45919411Y-34874027D01*
X46009989Y-34729873D01*
X46066218Y-34569178D01*
X46068379Y-34550000D01*
X46085280Y-34400003D01*
X46085280Y-34399996D01*
X49639720Y-34399996D01*
X49639720Y-34400003D01*
X49658780Y-34569172D01*
X49658781Y-34569176D01*
X49715011Y-34729874D01*
X49785787Y-34842512D01*
X49805589Y-34874027D01*
X49925973Y-34994411D01*
X50070127Y-35084989D01*
X50230822Y-35141218D01*
X50230823Y-35141218D01*
X50230827Y-35141219D01*
X50399996Y-35160280D01*
X50400000Y-35160280D01*
X50400004Y-35160280D01*
X50569172Y-35141219D01*
X50569174Y-35141218D01*
X50569178Y-35141218D01*
X50729873Y-35084989D01*
X50874027Y-34994411D01*
X50994411Y-34874027D01*
X51084989Y-34729873D01*
X51139182Y-34574996D01*
X55039720Y-34574996D01*
X55039720Y-34575003D01*
X55058780Y-34744172D01*
X55058781Y-34744176D01*
X55115011Y-34904874D01*
X55168073Y-34989321D01*
X55205589Y-35049027D01*
X55325973Y-35169411D01*
X55470127Y-35259989D01*
X55630822Y-35316218D01*
X55630823Y-35316218D01*
X55630827Y-35316219D01*
X55799996Y-35335280D01*
X55800000Y-35335280D01*
X55800004Y-35335280D01*
X55969172Y-35316219D01*
X55969174Y-35316218D01*
X55969178Y-35316218D01*
X56129873Y-35259989D01*
X56274027Y-35169411D01*
X56394411Y-35049027D01*
X56484989Y-34904873D01*
X56541218Y-34744178D01*
X56560280Y-34575000D01*
X56559623Y-34569172D01*
X56557462Y-34549996D01*
X68089720Y-34549996D01*
X68089720Y-34550003D01*
X68108780Y-34719172D01*
X68108781Y-34719176D01*
X68165011Y-34879874D01*
X68180720Y-34904874D01*
X68255589Y-35024027D01*
X68375973Y-35144411D01*
X68520127Y-35234989D01*
X68680822Y-35291218D01*
X68680823Y-35291218D01*
X68680827Y-35291219D01*
X68849996Y-35310280D01*
X68850000Y-35310280D01*
X68850004Y-35310280D01*
X69019172Y-35291219D01*
X69019174Y-35291218D01*
X69019178Y-35291218D01*
X69179873Y-35234989D01*
X69324027Y-35144411D01*
X69444411Y-35024027D01*
X69534989Y-34879873D01*
X69591218Y-34719178D01*
X69608119Y-34569178D01*
X69610280Y-34550003D01*
X69610280Y-34549996D01*
X69591219Y-34380827D01*
X69591218Y-34380823D01*
X69543736Y-34245127D01*
X69534989Y-34220127D01*
X69444411Y-34075973D01*
X69324027Y-33955589D01*
X69179874Y-33865011D01*
X69019176Y-33808781D01*
X69019172Y-33808780D01*
X68941209Y-33799996D01*
X84664720Y-33799996D01*
X84664720Y-33800003D01*
X84683780Y-33969172D01*
X84683781Y-33969176D01*
X84740011Y-34129874D01*
X84812429Y-34245125D01*
X84830589Y-34274027D01*
X84950973Y-34394411D01*
X85095127Y-34484989D01*
X85255822Y-34541218D01*
X85255823Y-34541218D01*
X85255827Y-34541219D01*
X85424996Y-34560280D01*
X85425000Y-34560280D01*
X85425004Y-34560280D01*
X85594172Y-34541219D01*
X85594174Y-34541218D01*
X85594178Y-34541218D01*
X85754873Y-34484989D01*
X85899027Y-34394411D01*
X86019411Y-34274027D01*
X86109989Y-34129873D01*
X86166218Y-33969178D01*
X86171086Y-33925973D01*
X86185280Y-33800003D01*
X86185280Y-33799996D01*
X86166219Y-33630827D01*
X86166218Y-33630823D01*
X86109988Y-33470125D01*
X86030996Y-33344411D01*
X86019411Y-33325973D01*
X85899027Y-33205589D01*
X85754874Y-33115011D01*
X85594176Y-33058781D01*
X85594172Y-33058780D01*
X85425004Y-33039720D01*
X85424996Y-33039720D01*
X85255827Y-33058780D01*
X85255823Y-33058781D01*
X85095125Y-33115011D01*
X84950972Y-33205589D01*
X84830589Y-33325972D01*
X84740011Y-33470125D01*
X84683781Y-33630823D01*
X84683780Y-33630827D01*
X84664720Y-33799996D01*
X68941209Y-33799996D01*
X68850004Y-33789720D01*
X68849996Y-33789720D01*
X68680827Y-33808780D01*
X68680823Y-33808781D01*
X68520125Y-33865011D01*
X68375972Y-33955589D01*
X68255589Y-34075972D01*
X68165011Y-34220125D01*
X68108781Y-34380823D01*
X68108780Y-34380827D01*
X68089720Y-34549996D01*
X56557462Y-34549996D01*
X56541219Y-34405827D01*
X56541218Y-34405823D01*
X56539180Y-34400000D01*
X56484989Y-34245127D01*
X56469280Y-34220127D01*
X56447986Y-34186237D01*
X56394411Y-34100973D01*
X56274027Y-33980589D01*
X56234240Y-33955589D01*
X56129874Y-33890011D01*
X55969176Y-33833781D01*
X55969172Y-33833780D01*
X55800004Y-33814720D01*
X55799996Y-33814720D01*
X55630827Y-33833780D01*
X55630823Y-33833781D01*
X55470125Y-33890011D01*
X55325972Y-33980589D01*
X55205589Y-34100972D01*
X55115011Y-34245125D01*
X55058781Y-34405823D01*
X55058780Y-34405827D01*
X55039720Y-34574996D01*
X51139182Y-34574996D01*
X51141218Y-34569178D01*
X51143379Y-34550000D01*
X51160280Y-34400003D01*
X51160280Y-34399996D01*
X51141219Y-34230827D01*
X51141218Y-34230823D01*
X51137475Y-34220127D01*
X51084989Y-34070127D01*
X50994411Y-33925973D01*
X50874027Y-33805589D01*
X50848772Y-33789720D01*
X50729874Y-33715011D01*
X50569176Y-33658781D01*
X50569172Y-33658780D01*
X50400004Y-33639720D01*
X50399996Y-33639720D01*
X50230827Y-33658780D01*
X50230823Y-33658781D01*
X50070125Y-33715011D01*
X49925972Y-33805589D01*
X49805589Y-33925972D01*
X49715011Y-34070125D01*
X49658781Y-34230823D01*
X49658780Y-34230827D01*
X49639720Y-34399996D01*
X46085280Y-34399996D01*
X46066219Y-34230827D01*
X46066218Y-34230823D01*
X46062475Y-34220127D01*
X46009989Y-34070127D01*
X45919411Y-33925973D01*
X45799027Y-33805589D01*
X45773772Y-33789720D01*
X45654874Y-33715011D01*
X45494176Y-33658781D01*
X45494172Y-33658780D01*
X45325004Y-33639720D01*
X45324996Y-33639720D01*
X45155827Y-33658780D01*
X45155823Y-33658781D01*
X44995125Y-33715011D01*
X44850972Y-33805589D01*
X44730589Y-33925972D01*
X44640011Y-34070125D01*
X44583781Y-34230823D01*
X44583780Y-34230827D01*
X44564720Y-34399996D01*
X20500500Y-34399996D01*
X20500500Y-30902135D01*
X23649500Y-30902135D01*
X23649500Y-32697870D01*
X23649501Y-32697876D01*
X23655908Y-32757483D01*
X23706202Y-32892328D01*
X23706206Y-32892335D01*
X23792452Y-33007544D01*
X23792455Y-33007547D01*
X23907664Y-33093793D01*
X23907671Y-33093797D01*
X24042517Y-33144091D01*
X24042516Y-33144091D01*
X24049444Y-33144835D01*
X24102127Y-33150500D01*
X25897872Y-33150499D01*
X25957483Y-33144091D01*
X26092331Y-33093796D01*
X26207546Y-33007546D01*
X26293796Y-32892331D01*
X26344091Y-32757483D01*
X26344896Y-32749996D01*
X63939720Y-32749996D01*
X63939720Y-32750003D01*
X63958780Y-32919172D01*
X63958781Y-32919176D01*
X64015011Y-33079874D01*
X64059388Y-33150499D01*
X64105589Y-33224027D01*
X64225973Y-33344411D01*
X64370127Y-33434989D01*
X64530822Y-33491218D01*
X64530823Y-33491218D01*
X64530827Y-33491219D01*
X64699996Y-33510280D01*
X64700000Y-33510280D01*
X64700004Y-33510280D01*
X64869172Y-33491219D01*
X64869174Y-33491218D01*
X64869178Y-33491218D01*
X65029873Y-33434989D01*
X65174027Y-33344411D01*
X65294411Y-33224027D01*
X65384989Y-33079873D01*
X65441218Y-32919178D01*
X65444243Y-32892331D01*
X65460280Y-32750003D01*
X65460280Y-32749996D01*
X65441219Y-32580827D01*
X65441218Y-32580823D01*
X65437143Y-32569178D01*
X65384989Y-32420127D01*
X65372342Y-32400000D01*
X65372339Y-32399996D01*
X89064720Y-32399996D01*
X89064720Y-32400003D01*
X89083780Y-32569172D01*
X89083781Y-32569176D01*
X89140011Y-32729874D01*
X89230589Y-32874027D01*
X89350973Y-32994411D01*
X89371879Y-33007547D01*
X89486986Y-33079874D01*
X89495127Y-33084989D01*
X89655822Y-33141218D01*
X89655823Y-33141218D01*
X89655827Y-33141219D01*
X89824996Y-33160280D01*
X89825000Y-33160280D01*
X89825004Y-33160280D01*
X89994172Y-33141219D01*
X89994174Y-33141218D01*
X89994178Y-33141218D01*
X90154873Y-33084989D01*
X90299027Y-32994411D01*
X90419411Y-32874027D01*
X90509989Y-32729873D01*
X90566218Y-32569178D01*
X90566219Y-32569172D01*
X90585280Y-32400003D01*
X90585280Y-32399996D01*
X90566219Y-32230827D01*
X90566218Y-32230823D01*
X90509988Y-32070125D01*
X90419410Y-31925972D01*
X90299027Y-31805589D01*
X90154874Y-31715011D01*
X89994176Y-31658781D01*
X89994172Y-31658780D01*
X89825004Y-31639720D01*
X89824996Y-31639720D01*
X89655827Y-31658780D01*
X89655823Y-31658781D01*
X89495125Y-31715011D01*
X89350972Y-31805589D01*
X89230589Y-31925972D01*
X89140011Y-32070125D01*
X89083781Y-32230823D01*
X89083780Y-32230827D01*
X89064720Y-32399996D01*
X65372339Y-32399996D01*
X65294410Y-32275972D01*
X65174027Y-32155589D01*
X65029874Y-32065011D01*
X64869176Y-32008781D01*
X64869172Y-32008780D01*
X64700004Y-31989720D01*
X64699996Y-31989720D01*
X64530827Y-32008780D01*
X64530823Y-32008781D01*
X64370125Y-32065011D01*
X64225972Y-32155589D01*
X64105589Y-32275972D01*
X64015011Y-32420125D01*
X63958781Y-32580823D01*
X63958780Y-32580827D01*
X63939720Y-32749996D01*
X26344896Y-32749996D01*
X26350500Y-32697873D01*
X26350499Y-30999996D01*
X57439720Y-30999996D01*
X57439720Y-31000003D01*
X57458780Y-31169172D01*
X57458781Y-31169176D01*
X57515011Y-31329874D01*
X57605589Y-31474027D01*
X57725973Y-31594411D01*
X57870127Y-31684989D01*
X58030822Y-31741218D01*
X58030823Y-31741218D01*
X58030827Y-31741219D01*
X58199996Y-31760280D01*
X58200000Y-31760280D01*
X58200004Y-31760280D01*
X58369172Y-31741219D01*
X58369174Y-31741218D01*
X58369178Y-31741218D01*
X58529873Y-31684989D01*
X58674027Y-31594411D01*
X58794411Y-31474027D01*
X58884989Y-31329873D01*
X58941218Y-31169178D01*
X58941219Y-31169172D01*
X58960280Y-31000003D01*
X58960280Y-30999996D01*
X58941219Y-30830827D01*
X58941218Y-30830823D01*
X58898123Y-30707664D01*
X58884989Y-30670127D01*
X58794411Y-30525973D01*
X58674027Y-30405589D01*
X58585552Y-30349996D01*
X89089720Y-30349996D01*
X89089720Y-30350003D01*
X89108780Y-30519172D01*
X89108781Y-30519176D01*
X89165011Y-30679874D01*
X89255589Y-30824027D01*
X89375973Y-30944411D01*
X89520127Y-31034989D01*
X89680822Y-31091218D01*
X89680823Y-31091218D01*
X89680827Y-31091219D01*
X89849996Y-31110280D01*
X89850000Y-31110280D01*
X89850004Y-31110280D01*
X90019172Y-31091219D01*
X90019174Y-31091218D01*
X90019178Y-31091218D01*
X90179873Y-31034989D01*
X90324027Y-30944411D01*
X90444411Y-30824027D01*
X90534989Y-30679873D01*
X90591218Y-30519178D01*
X90610280Y-30350000D01*
X90600002Y-30258782D01*
X90591219Y-30180827D01*
X90591218Y-30180823D01*
X90534988Y-30020125D01*
X90444410Y-29875972D01*
X90324027Y-29755589D01*
X90179874Y-29665011D01*
X90019176Y-29608781D01*
X90019172Y-29608780D01*
X89850004Y-29589720D01*
X89849996Y-29589720D01*
X89680827Y-29608780D01*
X89680823Y-29608781D01*
X89520125Y-29665011D01*
X89375972Y-29755589D01*
X89255589Y-29875972D01*
X89165011Y-30020125D01*
X89108781Y-30180823D01*
X89108780Y-30180827D01*
X89089720Y-30349996D01*
X58585552Y-30349996D01*
X58529874Y-30315011D01*
X58369176Y-30258781D01*
X58369172Y-30258780D01*
X58200004Y-30239720D01*
X58199996Y-30239720D01*
X58030827Y-30258780D01*
X58030823Y-30258781D01*
X57870125Y-30315011D01*
X57725972Y-30405589D01*
X57605589Y-30525972D01*
X57515011Y-30670125D01*
X57458781Y-30830823D01*
X57458780Y-30830827D01*
X57439720Y-30999996D01*
X26350499Y-30999996D01*
X26350499Y-30902128D01*
X26344091Y-30842517D01*
X26339729Y-30830823D01*
X26293797Y-30707671D01*
X26293793Y-30707664D01*
X26207547Y-30592455D01*
X26207544Y-30592452D01*
X26092335Y-30506206D01*
X26092328Y-30506202D01*
X25957482Y-30455908D01*
X25957483Y-30455908D01*
X25897883Y-30449501D01*
X25897881Y-30449500D01*
X25897873Y-30449500D01*
X25897864Y-30449500D01*
X24102129Y-30449500D01*
X24102123Y-30449501D01*
X24042516Y-30455908D01*
X23907671Y-30506202D01*
X23907664Y-30506206D01*
X23792455Y-30592452D01*
X23792452Y-30592455D01*
X23706206Y-30707664D01*
X23706202Y-30707671D01*
X23655908Y-30842517D01*
X23649501Y-30902116D01*
X23649501Y-30902123D01*
X23649500Y-30902135D01*
X20500500Y-30902135D01*
X20500500Y-27249996D01*
X58939720Y-27249996D01*
X58939720Y-27250003D01*
X58958780Y-27419172D01*
X58958781Y-27419176D01*
X59015011Y-27579874D01*
X59084974Y-27691218D01*
X59105589Y-27724027D01*
X59225973Y-27844411D01*
X59370127Y-27934989D01*
X59530822Y-27991218D01*
X59530823Y-27991218D01*
X59530827Y-27991219D01*
X59699996Y-28010280D01*
X59700000Y-28010280D01*
X59700004Y-28010280D01*
X59869172Y-27991219D01*
X59869174Y-27991218D01*
X59869178Y-27991218D01*
X60029873Y-27934989D01*
X60174027Y-27844411D01*
X60294411Y-27724027D01*
X60384989Y-27579873D01*
X60441218Y-27419178D01*
X60443380Y-27399983D01*
X60470446Y-27335570D01*
X60528039Y-27296013D01*
X60597876Y-27293874D01*
X60604811Y-27295987D01*
X60605825Y-27296219D01*
X60774996Y-27315280D01*
X60775000Y-27315280D01*
X60775004Y-27315280D01*
X60944172Y-27296219D01*
X60944174Y-27296218D01*
X60944178Y-27296218D01*
X61104873Y-27239989D01*
X61249027Y-27149411D01*
X61298442Y-27099996D01*
X62939720Y-27099996D01*
X62939720Y-27100003D01*
X62958780Y-27269172D01*
X62958781Y-27269176D01*
X63015011Y-27429874D01*
X63086979Y-27544410D01*
X63105589Y-27574027D01*
X63225973Y-27694411D01*
X63370127Y-27784989D01*
X63530822Y-27841218D01*
X63530823Y-27841218D01*
X63530827Y-27841219D01*
X63699996Y-27860280D01*
X63700000Y-27860280D01*
X63700004Y-27860280D01*
X63869172Y-27841219D01*
X63869174Y-27841218D01*
X63869178Y-27841218D01*
X64029873Y-27784989D01*
X64174027Y-27694411D01*
X64294411Y-27574027D01*
X64384989Y-27429873D01*
X64441218Y-27269178D01*
X64443379Y-27250000D01*
X64460280Y-27100003D01*
X64460280Y-27099996D01*
X64443379Y-26949996D01*
X76139720Y-26949996D01*
X76139720Y-26950003D01*
X76158780Y-27119172D01*
X76158781Y-27119176D01*
X76215011Y-27279874D01*
X76290482Y-27399985D01*
X76305589Y-27424027D01*
X76425973Y-27544411D01*
X76570127Y-27634989D01*
X76730822Y-27691218D01*
X76730823Y-27691218D01*
X76730827Y-27691219D01*
X76899996Y-27710280D01*
X76900000Y-27710280D01*
X76900004Y-27710280D01*
X77069172Y-27691219D01*
X77069174Y-27691218D01*
X77069178Y-27691218D01*
X77229873Y-27634989D01*
X77374027Y-27544411D01*
X77494411Y-27424027D01*
X77584989Y-27279873D01*
X77641218Y-27119178D01*
X77643379Y-27100000D01*
X77660280Y-26950003D01*
X77660280Y-26949996D01*
X77641219Y-26780827D01*
X77641218Y-26780823D01*
X77637475Y-26770127D01*
X77584989Y-26620127D01*
X77494411Y-26475973D01*
X77374027Y-26355589D01*
X77333102Y-26329874D01*
X77229874Y-26265011D01*
X77069176Y-26208781D01*
X77069172Y-26208780D01*
X76900004Y-26189720D01*
X76899996Y-26189720D01*
X76730827Y-26208780D01*
X76730823Y-26208781D01*
X76570125Y-26265011D01*
X76425972Y-26355589D01*
X76305589Y-26475972D01*
X76215011Y-26620125D01*
X76158781Y-26780823D01*
X76158780Y-26780827D01*
X76139720Y-26949996D01*
X64443379Y-26949996D01*
X64441219Y-26930827D01*
X64441218Y-26930823D01*
X64437566Y-26920387D01*
X64384989Y-26770127D01*
X64379040Y-26760660D01*
X64331493Y-26684989D01*
X64294411Y-26625973D01*
X64174027Y-26505589D01*
X64145092Y-26487408D01*
X64029874Y-26415011D01*
X63869176Y-26358781D01*
X63869172Y-26358780D01*
X63700004Y-26339720D01*
X63699996Y-26339720D01*
X63530827Y-26358780D01*
X63530823Y-26358781D01*
X63370125Y-26415011D01*
X63225972Y-26505589D01*
X63105589Y-26625972D01*
X63015011Y-26770125D01*
X62958781Y-26930823D01*
X62958780Y-26930827D01*
X62939720Y-27099996D01*
X61298442Y-27099996D01*
X61369411Y-27029027D01*
X61459989Y-26884873D01*
X61479323Y-26829617D01*
X61520044Y-26772841D01*
X61584996Y-26747093D01*
X61610249Y-26747351D01*
X61724997Y-26760280D01*
X61725000Y-26760280D01*
X61725004Y-26760280D01*
X61894172Y-26741219D01*
X61894174Y-26741218D01*
X61894178Y-26741218D01*
X62054873Y-26684989D01*
X62199027Y-26594411D01*
X62319411Y-26474027D01*
X62409989Y-26329873D01*
X62466218Y-26169178D01*
X62466219Y-26169172D01*
X62485280Y-26000003D01*
X62485280Y-25999996D01*
X62466219Y-25830827D01*
X62466218Y-25830823D01*
X62465225Y-25827986D01*
X62409989Y-25670127D01*
X62319411Y-25525973D01*
X62199027Y-25405589D01*
X62184742Y-25396613D01*
X62054874Y-25315011D01*
X61894176Y-25258781D01*
X61894172Y-25258780D01*
X61725004Y-25239720D01*
X61724996Y-25239720D01*
X61555827Y-25258780D01*
X61555823Y-25258781D01*
X61395125Y-25315011D01*
X61250972Y-25405589D01*
X61130589Y-25525972D01*
X61040012Y-25670124D01*
X61040011Y-25670126D01*
X61020675Y-25725384D01*
X60979952Y-25782160D01*
X60914999Y-25807906D01*
X60889751Y-25807648D01*
X60775004Y-25794720D01*
X60774996Y-25794720D01*
X60605827Y-25813780D01*
X60605823Y-25813781D01*
X60445125Y-25870011D01*
X60300972Y-25960589D01*
X60180589Y-26080972D01*
X60090011Y-26225125D01*
X60033781Y-26385823D01*
X60033780Y-26385825D01*
X60031618Y-26405019D01*
X60004550Y-26469433D01*
X59946954Y-26508986D01*
X59877117Y-26511123D01*
X59870207Y-26509016D01*
X59869172Y-26508780D01*
X59700004Y-26489720D01*
X59699996Y-26489720D01*
X59530827Y-26508780D01*
X59530823Y-26508781D01*
X59370125Y-26565011D01*
X59225972Y-26655589D01*
X59105589Y-26775972D01*
X59015011Y-26920125D01*
X58958781Y-27080823D01*
X58958780Y-27080827D01*
X58939720Y-27249996D01*
X20500500Y-27249996D01*
X20500500Y-25568357D01*
X20520185Y-25501318D01*
X20572989Y-25455563D01*
X20642147Y-25445619D01*
X20705703Y-25474644D01*
X20725629Y-25496601D01*
X20871916Y-25702773D01*
X20893806Y-25733623D01*
X21133339Y-26001661D01*
X21365106Y-26208780D01*
X21401377Y-26241194D01*
X21632265Y-26405019D01*
X21694548Y-26449211D01*
X22009167Y-26623094D01*
X22341276Y-26760659D01*
X22686700Y-26860173D01*
X23041093Y-26920387D01*
X23400000Y-26940543D01*
X23758907Y-26920387D01*
X24113300Y-26860173D01*
X24458724Y-26760659D01*
X24790833Y-26623094D01*
X25105452Y-26449211D01*
X25398623Y-26241194D01*
X25599360Y-26061805D01*
X30742499Y-26061805D01*
X30766613Y-26183029D01*
X30766616Y-26183039D01*
X30813913Y-26297226D01*
X30813920Y-26297239D01*
X30882588Y-26400007D01*
X30882591Y-26400011D01*
X30969988Y-26487408D01*
X30969992Y-26487411D01*
X31072760Y-26556079D01*
X31072773Y-26556086D01*
X31186960Y-26603383D01*
X31186965Y-26603385D01*
X31186969Y-26603385D01*
X31186970Y-26603386D01*
X31308194Y-26627500D01*
X31308197Y-26627500D01*
X31431805Y-26627500D01*
X31513361Y-26611276D01*
X31553035Y-26603385D01*
X31667233Y-26556083D01*
X31770008Y-26487411D01*
X31857411Y-26400008D01*
X31926083Y-26297233D01*
X31973385Y-26183035D01*
X31997500Y-26061803D01*
X31997500Y-25938197D01*
X31997500Y-25938194D01*
X31973386Y-25816970D01*
X31973385Y-25816969D01*
X31973385Y-25816965D01*
X31969526Y-25807648D01*
X31926086Y-25702773D01*
X31926079Y-25702760D01*
X31857411Y-25599992D01*
X31857408Y-25599988D01*
X31770011Y-25512591D01*
X31770007Y-25512588D01*
X31694006Y-25461805D01*
X51062499Y-25461805D01*
X51086613Y-25583029D01*
X51086616Y-25583039D01*
X51133913Y-25697226D01*
X51133920Y-25697239D01*
X51202588Y-25800007D01*
X51202591Y-25800011D01*
X51289988Y-25887408D01*
X51289992Y-25887411D01*
X51392760Y-25956079D01*
X51392773Y-25956086D01*
X51498783Y-25999996D01*
X51506965Y-26003385D01*
X51506969Y-26003385D01*
X51506970Y-26003386D01*
X51628194Y-26027500D01*
X51628197Y-26027500D01*
X51751805Y-26027500D01*
X51833361Y-26011276D01*
X51873035Y-26003385D01*
X51961354Y-25966802D01*
X51987226Y-25956086D01*
X51987226Y-25956085D01*
X51987233Y-25956083D01*
X52090008Y-25887411D01*
X52177411Y-25800008D01*
X52246083Y-25697233D01*
X52293385Y-25583035D01*
X52304736Y-25525972D01*
X52317500Y-25461805D01*
X52317500Y-25338194D01*
X52293386Y-25216970D01*
X52293385Y-25216969D01*
X52293385Y-25216965D01*
X52275079Y-25172769D01*
X52246086Y-25102773D01*
X52246079Y-25102760D01*
X52177411Y-24999992D01*
X52177408Y-24999988D01*
X52090011Y-24912591D01*
X52090007Y-24912588D01*
X51987239Y-24843920D01*
X51987226Y-24843913D01*
X51873039Y-24796616D01*
X51873029Y-24796613D01*
X51751805Y-24772500D01*
X51751803Y-24772500D01*
X51628197Y-24772500D01*
X51628195Y-24772500D01*
X51506970Y-24796613D01*
X51506960Y-24796616D01*
X51392773Y-24843913D01*
X51392760Y-24843920D01*
X51289992Y-24912588D01*
X51289988Y-24912591D01*
X51202591Y-24999988D01*
X51202588Y-24999992D01*
X51133920Y-25102760D01*
X51133913Y-25102773D01*
X51086616Y-25216960D01*
X51086613Y-25216970D01*
X51062500Y-25338194D01*
X51062500Y-25338197D01*
X51062500Y-25461803D01*
X51062500Y-25461805D01*
X51062499Y-25461805D01*
X31694006Y-25461805D01*
X31667239Y-25443920D01*
X31667226Y-25443913D01*
X31553039Y-25396616D01*
X31553029Y-25396613D01*
X31431805Y-25372500D01*
X31431803Y-25372500D01*
X31308197Y-25372500D01*
X31308195Y-25372500D01*
X31186970Y-25396613D01*
X31186960Y-25396616D01*
X31072773Y-25443913D01*
X31072760Y-25443920D01*
X30969992Y-25512588D01*
X30969988Y-25512591D01*
X30882591Y-25599988D01*
X30882588Y-25599992D01*
X30813920Y-25702760D01*
X30813913Y-25702773D01*
X30766616Y-25816960D01*
X30766613Y-25816970D01*
X30742500Y-25938194D01*
X30742500Y-25938197D01*
X30742500Y-26061803D01*
X30742500Y-26061805D01*
X30742499Y-26061805D01*
X25599360Y-26061805D01*
X25666661Y-26001661D01*
X25906194Y-25733623D01*
X26114211Y-25440452D01*
X26288094Y-25125833D01*
X26425659Y-24793724D01*
X26525173Y-24448300D01*
X26585387Y-24093907D01*
X26605543Y-23735000D01*
X26585387Y-23376093D01*
X26525173Y-23021700D01*
X26425659Y-22676276D01*
X26288094Y-22344167D01*
X26114211Y-22029548D01*
X25906194Y-21736377D01*
X25666661Y-21468339D01*
X25398623Y-21228806D01*
X25398622Y-21228805D01*
X25105454Y-21020790D01*
X24790831Y-20846905D01*
X24530474Y-20739061D01*
X24476071Y-20695220D01*
X24454006Y-20628926D01*
X24471285Y-20561226D01*
X24522423Y-20513616D01*
X24577927Y-20500500D01*
X97762073Y-20500500D01*
X97829112Y-20520185D01*
G37*
%TD.AperFunction*%
%TD*%
M02*
