%TF.GenerationSoftware,KiCad,Pcbnew,8.0.4*%
%TF.CreationDate,2024-10-19T12:15:15-07:00*%
%TF.ProjectId,camera_controller,63616d65-7261-45f6-936f-6e74726f6c6c,1.0*%
%TF.SameCoordinates,Original*%
%TF.FileFunction,Paste,Bot*%
%TF.FilePolarity,Positive*%
%FSLAX46Y46*%
G04 Gerber Fmt 4.6, Leading zero omitted, Abs format (unit mm)*
G04 Created by KiCad (PCBNEW 8.0.4) date 2024-10-19 12:15:15*
%MOMM*%
%LPD*%
G01*
G04 APERTURE LIST*
G04 Aperture macros list*
%AMRoundRect*
0 Rectangle with rounded corners*
0 $1 Rounding radius*
0 $2 $3 $4 $5 $6 $7 $8 $9 X,Y pos of 4 corners*
0 Add a 4 corners polygon primitive as box body*
4,1,4,$2,$3,$4,$5,$6,$7,$8,$9,$2,$3,0*
0 Add four circle primitives for the rounded corners*
1,1,$1+$1,$2,$3*
1,1,$1+$1,$4,$5*
1,1,$1+$1,$6,$7*
1,1,$1+$1,$8,$9*
0 Add four rect primitives between the rounded corners*
20,1,$1+$1,$2,$3,$4,$5,0*
20,1,$1+$1,$4,$5,$6,$7,0*
20,1,$1+$1,$6,$7,$8,$9,0*
20,1,$1+$1,$8,$9,$2,$3,0*%
G04 Aperture macros list end*
%ADD10RoundRect,0.150000X-0.150000X0.587500X-0.150000X-0.587500X0.150000X-0.587500X0.150000X0.587500X0*%
%ADD11RoundRect,0.250000X-0.450000X0.262500X-0.450000X-0.262500X0.450000X-0.262500X0.450000X0.262500X0*%
%ADD12RoundRect,0.250000X-0.262500X-0.450000X0.262500X-0.450000X0.262500X0.450000X-0.262500X0.450000X0*%
%ADD13RoundRect,0.250000X0.262500X0.450000X-0.262500X0.450000X-0.262500X-0.450000X0.262500X-0.450000X0*%
%ADD14RoundRect,0.150000X0.587500X0.150000X-0.587500X0.150000X-0.587500X-0.150000X0.587500X-0.150000X0*%
%ADD15RoundRect,0.250000X0.250000X0.475000X-0.250000X0.475000X-0.250000X-0.475000X0.250000X-0.475000X0*%
%ADD16R,1.150000X0.600000*%
%ADD17R,0.600000X1.150000*%
%ADD18RoundRect,0.250000X0.450000X-0.262500X0.450000X0.262500X-0.450000X0.262500X-0.450000X-0.262500X0*%
%ADD19RoundRect,0.250000X-0.475000X0.250000X-0.475000X-0.250000X0.475000X-0.250000X0.475000X0.250000X0*%
%ADD20RoundRect,0.250000X0.475000X-0.250000X0.475000X0.250000X-0.475000X0.250000X-0.475000X-0.250000X0*%
%ADD21RoundRect,0.150000X0.875000X0.150000X-0.875000X0.150000X-0.875000X-0.150000X0.875000X-0.150000X0*%
%ADD22R,1.100000X0.250000*%
%ADD23RoundRect,0.150000X-0.587500X-0.150000X0.587500X-0.150000X0.587500X0.150000X-0.587500X0.150000X0*%
G04 APERTURE END LIST*
D10*
%TO.C,D1*%
X29987500Y-66362500D03*
X31887500Y-66362500D03*
X30937500Y-68237500D03*
%TD*%
D11*
%TO.C,R7*%
X59050000Y-66337500D03*
X59050000Y-68162500D03*
%TD*%
D12*
%TO.C,R13*%
X63137500Y-40750000D03*
X64962500Y-40750000D03*
%TD*%
D13*
%TO.C,R10*%
X65712500Y-28800000D03*
X63887500Y-28800000D03*
%TD*%
D14*
%TO.C,Q2*%
X30000000Y-62700000D03*
X30000000Y-64600000D03*
X28125000Y-63650000D03*
%TD*%
D15*
%TO.C,C19*%
X93250000Y-61400000D03*
X91350000Y-61400000D03*
%TD*%
%TO.C,C12*%
X82650000Y-32450000D03*
X80750000Y-32450000D03*
%TD*%
D13*
%TO.C,R23*%
X82612500Y-28350000D03*
X80787500Y-28350000D03*
%TD*%
D16*
%TO.C,Q5*%
X64750000Y-36800000D03*
X64750000Y-37750000D03*
X64750000Y-38700000D03*
X62150000Y-38700000D03*
X62150000Y-37750000D03*
X62150000Y-36800000D03*
%TD*%
D17*
%TO.C,Q3*%
X48550000Y-35800000D03*
X49500000Y-35800000D03*
X50450000Y-35800000D03*
X50450000Y-38400000D03*
X49500000Y-38400000D03*
X48550000Y-38400000D03*
%TD*%
D11*
%TO.C,R11*%
X67750000Y-30887500D03*
X67750000Y-32712500D03*
%TD*%
D18*
%TO.C,R14*%
X60100000Y-39262500D03*
X60100000Y-37437500D03*
%TD*%
D13*
%TO.C,R24*%
X82612500Y-30350000D03*
X80787500Y-30350000D03*
%TD*%
D12*
%TO.C,R29*%
X58662500Y-52675000D03*
X60487500Y-52675000D03*
%TD*%
D19*
%TO.C,C15*%
X89300000Y-60450000D03*
X89300000Y-62350000D03*
%TD*%
D13*
%TO.C,R33*%
X50612500Y-40500000D03*
X48787500Y-40500000D03*
%TD*%
D18*
%TO.C,R31*%
X36300000Y-48433731D03*
X36300000Y-46608731D03*
%TD*%
D16*
%TO.C,Q4*%
X65700000Y-30850000D03*
X65700000Y-31800000D03*
X65700000Y-32750000D03*
X63100000Y-32750000D03*
X63100000Y-31800000D03*
X63100000Y-30850000D03*
%TD*%
D12*
%TO.C,R22*%
X58637500Y-50150000D03*
X60462500Y-50150000D03*
%TD*%
D11*
%TO.C,R6*%
X52500000Y-37087500D03*
X52500000Y-38912500D03*
%TD*%
D19*
%TO.C,C21*%
X74900000Y-60050000D03*
X74900000Y-61950000D03*
%TD*%
D11*
%TO.C,R32*%
X36300000Y-41508731D03*
X36300000Y-43333731D03*
%TD*%
D20*
%TO.C,C14*%
X89300000Y-69150000D03*
X89300000Y-67250000D03*
%TD*%
D11*
%TO.C,R8*%
X59000000Y-57587500D03*
X59000000Y-59412500D03*
%TD*%
%TO.C,R4*%
X32162500Y-62737500D03*
X32162500Y-64562500D03*
%TD*%
D18*
%TO.C,R1*%
X28162500Y-67962500D03*
X28162500Y-66137500D03*
%TD*%
D13*
%TO.C,R2*%
X40825000Y-40921231D03*
X39000000Y-40921231D03*
%TD*%
D19*
%TO.C,C10*%
X74800000Y-37900000D03*
X74800000Y-39800000D03*
%TD*%
D21*
%TO.C,U8*%
X86550000Y-60155000D03*
X86550000Y-61425000D03*
X86550000Y-62695000D03*
X86550000Y-63965000D03*
X86550000Y-65235000D03*
X86550000Y-66505000D03*
X86550000Y-67775000D03*
X86550000Y-69045000D03*
X77250000Y-69045000D03*
X77250000Y-67775000D03*
X77250000Y-66505000D03*
X77250000Y-65235000D03*
X77250000Y-63965000D03*
X77250000Y-62695000D03*
X77250000Y-61425000D03*
X77250000Y-60155000D03*
%TD*%
D11*
%TO.C,R5*%
X46600000Y-35287500D03*
X46600000Y-37112500D03*
%TD*%
D13*
%TO.C,R12*%
X64712500Y-34800000D03*
X62887500Y-34800000D03*
%TD*%
D18*
%TO.C,R3*%
X34162500Y-64562500D03*
X34162500Y-62737500D03*
%TD*%
D19*
%TO.C,C18*%
X89300000Y-63850000D03*
X89300000Y-65750000D03*
%TD*%
D13*
%TO.C,R30*%
X60400000Y-47675000D03*
X58575000Y-47675000D03*
%TD*%
D22*
%TO.C,U5*%
X81050000Y-36350000D03*
X81050000Y-36850000D03*
X81050000Y-37350000D03*
X81050000Y-37850000D03*
X81050000Y-38350000D03*
X76750000Y-38350000D03*
X76750000Y-37850000D03*
X76750000Y-37350000D03*
X76750000Y-36850000D03*
X76750000Y-36350000D03*
%TD*%
D23*
%TO.C,D2*%
X40483731Y-44671231D03*
X40483731Y-42771231D03*
X42358731Y-43721231D03*
%TD*%
D18*
%TO.C,R9*%
X61000000Y-33212500D03*
X61000000Y-31387500D03*
%TD*%
M02*
