M48
; DRILL file {KiCad 8.0.4} date 2024-10-19T12:16:05-0700
; FORMAT={-:-/ absolute / inch / decimal}
; #@! TF.CreationDate,2024-10-19T12:16:05-07:00
; #@! TF.GenerationSoftware,Kicad,Pcbnew,8.0.4
; #@! TF.FileFunction,Plated,1,4,PTH
FMAT,2
INCH
; #@! TA.AperFunction,Plated,PTH,ViaDrill
T1C0.0100
; #@! TA.AperFunction,Plated,PTH,ViaDrill
T2C0.0118
; #@! TA.AperFunction,Plated,PTH,ComponentDrill
T3C0.0197
; #@! TA.AperFunction,Plated,PTH,ViaDrill
T4C0.0394
; #@! TA.AperFunction,Plated,PTH,ComponentDrill
T5C0.0394
; #@! TA.AperFunction,Plated,PTH,ComponentDrill
T6C0.0984
; #@! TA.AperFunction,Plated,PTH,ComponentDrill
T7C0.1063
%
G90
G05
T1
X0.8189Y-2.2165
X0.8189Y-2.248
X0.8189Y-2.2835
X0.8189Y-2.3189
X0.8189Y-2.3504
X0.8504Y-2.2165
X0.8504Y-2.248
X0.8583Y-2.2874
X0.8583Y-2.3346
X0.878Y-2.4567
X0.878Y-2.5079
X0.878Y-2.5551
X0.878Y-2.6063
X0.878Y-2.6575
X0.8858Y-2.2165
X0.8858Y-2.248
X0.9134Y-2.4567
X0.9134Y-2.5079
X0.9134Y-2.5551
X0.9134Y-2.6063
X0.9134Y-2.6575
X0.9173Y-2.2165
X0.9173Y-2.248
X0.9173Y-2.2835
X0.9173Y-2.3189
X0.9173Y-2.3504
X0.9488Y-2.4567
X0.9488Y-2.5079
X0.9488Y-2.5551
X0.9488Y-2.6063
X0.9488Y-2.6575
X0.9882Y-2.4567
X0.9882Y-2.5079
X0.9882Y-2.5551
X0.9882Y-2.6063
X0.9882Y-2.6575
X1.0236Y-2.4567
X1.0236Y-2.5079
X1.0236Y-2.5551
X1.0236Y-2.6063
X1.0236Y-2.6575
X1.1073Y-2.4094
X1.3135Y-2.5846
X1.3863Y-1.6342
X1.4291Y-1.7489
X1.4747Y-1.7489
X1.7067Y-2.2933
X1.7431Y-2.0906
X1.7431Y-2.125
X1.7844Y-1.3543
X1.7953Y-2.0551
X1.7992Y-2.4173
X1.8091Y-2.2697
X1.9449Y-2.315
X1.9843Y-1.3543
X2.0226Y-2.1437
X2.127Y-2.3881
X2.1575Y-2.4242
X2.1969Y-1.3612
X2.2913Y-1.2205
X2.3248Y-2.7303
X2.3504Y-1.0728
X2.378Y-1.8268
X2.3789Y-2.2672
X2.3809Y-2.1309
X2.3927Y-1.0455
X2.4094Y-1.4213
X2.4301Y-1.0236
X2.437Y-1.189
X2.4685Y-1.0335
X2.5079Y-1.0669
X2.5472Y-1.0344
X2.5472Y-1.2894
X2.6181Y-1.5472
X2.6594Y-1.5866
X2.7106Y-1.3602
X2.7815Y-1.4685
X2.7815Y-1.5079
X2.8957Y-1.4941
X2.8957Y-1.5669
X2.9419Y-2.7175
X2.9488Y-2.3248
X2.9774Y-2.6683
X2.9882Y-1.0591
X3.0276Y-1.061
X3.1043Y-1.4587
X3.1121Y-2.722
X3.1201Y-2.4183
X3.1378Y-2.7402
X3.1398Y-1.1969
X3.2359Y-1.4009
X3.3051Y-1.2776
X3.3445Y-1.5089
X3.3474Y-2.6683
X3.3632Y-1.3307
X3.375Y-2.873
X3.5364Y-1.2756
X3.5374Y-1.1949
X3.5837Y-2.7657
X3.623Y-2.7559
X3.6732Y-2.4685
X3.7521Y-2.7303
X3.7531Y-1.315
T2
X1.9232Y-1.9724
T3
X0.8415Y-0.9344
X0.8415Y-2.9691
X0.8649Y-0.8781
X0.8649Y-0.9908
X0.8649Y-2.9127
X0.8649Y-3.0255
X0.9213Y-0.8547
X0.9213Y-1.0142
X0.9213Y-2.8894
X0.9213Y-3.0488
X0.9776Y-0.8781
X0.9776Y-0.9908
X0.9776Y-2.9127
X0.9776Y-3.0255
X1.001Y-0.9344
X1.001Y-2.9691
X3.8156Y-0.9344
X3.8156Y-2.9691
X3.8389Y-0.8781
X3.8389Y-0.9908
X3.8389Y-2.9127
X3.8389Y-3.0255
X3.8953Y-0.8547
X3.8953Y-1.0142
X3.8953Y-2.8894
X3.8953Y-3.0488
X3.9516Y-0.8781
X3.9516Y-0.9908
X3.9516Y-2.9127
X3.9516Y-3.0255
X3.975Y-0.9344
X3.975Y-2.9691
T4
X0.8858Y-1.4252
X1.2087Y-2.0591
X1.3858Y-1.0276
X1.6457Y-2.9646
X1.685Y-1.0276
X1.8858Y-1.0266
T5
X0.8843Y-1.252
X0.9843Y-1.252
X1.7737Y-1.7365
X1.8737Y-1.7365
X1.9737Y-1.7365
X2.2238Y-1.7738
X2.2238Y-1.8738
X2.2238Y-1.9738
X2.2238Y-2.0738
X2.2238Y-2.1738
X2.2238Y-2.2738
X2.2238Y-2.3738
X2.2238Y-2.4738
X2.2238Y-2.5738
X2.2238Y-2.6738
X2.2238Y-2.7789
X2.2238Y-2.8738
X2.3238Y-2.4238
X2.3238Y-2.5238
X2.8238Y-1.7789
X2.8238Y-1.8789
X2.8238Y-1.9789
X2.8238Y-2.0789
X2.8238Y-2.1789
X2.8238Y-2.2789
X2.8238Y-2.3789
X2.8238Y-2.4789
X2.8238Y-2.5789
X2.8238Y-2.6789
X2.8238Y-2.7789
X2.8238Y-2.8789
X2.9941Y-2.026
X2.9941Y-2.126
T6
X0.908Y-1.9291
X0.908Y-2.126
X1.2008Y-2.9291
X1.3976Y-2.9291
T7
X0.9213Y-0.9344
X0.9213Y-2.9691
X3.8953Y-0.9344
X3.8953Y-2.9691
M30
