%TF.GenerationSoftware,KiCad,Pcbnew,9.0.4*%
%TF.CreationDate,2025-11-20T14:20:26-08:00*%
%TF.ProjectId,camera_controller,63616d65-7261-45f6-936f-6e74726f6c6c,1.0*%
%TF.SameCoordinates,Original*%
%TF.FileFunction,Copper,L4,Bot*%
%TF.FilePolarity,Positive*%
%FSLAX46Y46*%
G04 Gerber Fmt 4.6, Leading zero omitted, Abs format (unit mm)*
G04 Created by KiCad (PCBNEW 9.0.4) date 2025-11-20 14:20:26*
%MOMM*%
%LPD*%
G01*
G04 APERTURE LIST*
G04 Aperture macros list*
%AMRoundRect*
0 Rectangle with rounded corners*
0 $1 Rounding radius*
0 $2 $3 $4 $5 $6 $7 $8 $9 X,Y pos of 4 corners*
0 Add a 4 corners polygon primitive as box body*
4,1,4,$2,$3,$4,$5,$6,$7,$8,$9,$2,$3,0*
0 Add four circle primitives for the rounded corners*
1,1,$1+$1,$2,$3*
1,1,$1+$1,$4,$5*
1,1,$1+$1,$6,$7*
1,1,$1+$1,$8,$9*
0 Add four rect primitives between the rounded corners*
20,1,$1+$1,$2,$3,$4,$5,0*
20,1,$1+$1,$4,$5,$6,$7,0*
20,1,$1+$1,$6,$7,$8,$9,0*
20,1,$1+$1,$8,$9,$2,$3,0*%
%AMFreePoly0*
4,1,23,0.550000,-0.750000,0.000000,-0.750000,0.000000,-0.745722,-0.065263,-0.745722,-0.191342,-0.711940,-0.304381,-0.646677,-0.396677,-0.554381,-0.461940,-0.441342,-0.495722,-0.315263,-0.495722,-0.250000,-0.500000,-0.250000,-0.500000,0.250000,-0.495722,0.250000,-0.495722,0.315263,-0.461940,0.441342,-0.396677,0.554381,-0.304381,0.646677,-0.191342,0.711940,-0.065263,0.745722,0.000000,0.745722,
0.000000,0.750000,0.550000,0.750000,0.550000,-0.750000,0.550000,-0.750000,$1*%
%AMFreePoly1*
4,1,23,0.000000,0.745722,0.065263,0.745722,0.191342,0.711940,0.304381,0.646677,0.396677,0.554381,0.461940,0.441342,0.495722,0.315263,0.495722,0.250000,0.500000,0.250000,0.500000,-0.250000,0.495722,-0.250000,0.495722,-0.315263,0.461940,-0.441342,0.396677,-0.554381,0.304381,-0.646677,0.191342,-0.711940,0.065263,-0.745722,0.000000,-0.745722,0.000000,-0.750000,-0.550000,-0.750000,
-0.550000,0.750000,0.000000,0.750000,0.000000,0.745722,0.000000,0.745722,$1*%
G04 Aperture macros list end*
%TA.AperFunction,EtchedComponent*%
%ADD10C,0.000000*%
%TD*%
%TA.AperFunction,ComponentPad*%
%ADD11R,1.500000X2.300000*%
%TD*%
%TA.AperFunction,ComponentPad*%
%ADD12O,1.500000X2.300000*%
%TD*%
%TA.AperFunction,ComponentPad*%
%ADD13R,1.700000X1.700000*%
%TD*%
%TA.AperFunction,ComponentPad*%
%ADD14O,1.700000X1.700000*%
%TD*%
%TA.AperFunction,ComponentPad*%
%ADD15C,0.800000*%
%TD*%
%TA.AperFunction,ComponentPad*%
%ADD16C,5.400000*%
%TD*%
%TA.AperFunction,ComponentPad*%
%ADD17RoundRect,0.500000X1.750000X-1.250000X1.750000X1.250000X-1.750000X1.250000X-1.750000X-1.250000X0*%
%TD*%
%TA.AperFunction,ComponentPad*%
%ADD18C,1.700000*%
%TD*%
%TA.AperFunction,ComponentPad*%
%ADD19RoundRect,0.500000X-1.250000X-1.750000X1.250000X-1.750000X1.250000X1.750000X-1.250000X1.750000X0*%
%TD*%
%TA.AperFunction,SMDPad,CuDef*%
%ADD20RoundRect,0.150000X-0.150000X0.587500X-0.150000X-0.587500X0.150000X-0.587500X0.150000X0.587500X0*%
%TD*%
%TA.AperFunction,SMDPad,CuDef*%
%ADD21RoundRect,0.250000X-0.450000X0.262500X-0.450000X-0.262500X0.450000X-0.262500X0.450000X0.262500X0*%
%TD*%
%TA.AperFunction,SMDPad,CuDef*%
%ADD22RoundRect,0.250000X-0.262500X-0.450000X0.262500X-0.450000X0.262500X0.450000X-0.262500X0.450000X0*%
%TD*%
%TA.AperFunction,SMDPad,CuDef*%
%ADD23RoundRect,0.250000X0.262500X0.450000X-0.262500X0.450000X-0.262500X-0.450000X0.262500X-0.450000X0*%
%TD*%
%TA.AperFunction,SMDPad,CuDef*%
%ADD24RoundRect,0.150000X0.587500X0.150000X-0.587500X0.150000X-0.587500X-0.150000X0.587500X-0.150000X0*%
%TD*%
%TA.AperFunction,SMDPad,CuDef*%
%ADD25RoundRect,0.250000X0.250000X0.475000X-0.250000X0.475000X-0.250000X-0.475000X0.250000X-0.475000X0*%
%TD*%
%TA.AperFunction,SMDPad,CuDef*%
%ADD26R,1.150000X0.600000*%
%TD*%
%TA.AperFunction,SMDPad,CuDef*%
%ADD27R,0.600000X1.150000*%
%TD*%
%TA.AperFunction,SMDPad,CuDef*%
%ADD28RoundRect,0.250000X0.450000X-0.262500X0.450000X0.262500X-0.450000X0.262500X-0.450000X-0.262500X0*%
%TD*%
%TA.AperFunction,SMDPad,CuDef*%
%ADD29RoundRect,0.250000X-0.475000X0.250000X-0.475000X-0.250000X0.475000X-0.250000X0.475000X0.250000X0*%
%TD*%
%TA.AperFunction,SMDPad,CuDef*%
%ADD30FreePoly0,90.000000*%
%TD*%
%TA.AperFunction,SMDPad,CuDef*%
%ADD31R,1.500000X1.000000*%
%TD*%
%TA.AperFunction,SMDPad,CuDef*%
%ADD32FreePoly1,90.000000*%
%TD*%
%TA.AperFunction,SMDPad,CuDef*%
%ADD33RoundRect,0.250000X0.475000X-0.250000X0.475000X0.250000X-0.475000X0.250000X-0.475000X-0.250000X0*%
%TD*%
%TA.AperFunction,SMDPad,CuDef*%
%ADD34RoundRect,0.150000X0.875000X0.150000X-0.875000X0.150000X-0.875000X-0.150000X0.875000X-0.150000X0*%
%TD*%
%TA.AperFunction,SMDPad,CuDef*%
%ADD35R,1.100000X0.250000*%
%TD*%
%TA.AperFunction,SMDPad,CuDef*%
%ADD36RoundRect,0.150000X-0.587500X-0.150000X0.587500X-0.150000X0.587500X0.150000X-0.587500X0.150000X0*%
%TD*%
%TA.AperFunction,ViaPad*%
%ADD37C,2.000000*%
%TD*%
%TA.AperFunction,ViaPad*%
%ADD38C,0.510000*%
%TD*%
%TA.AperFunction,ViaPad*%
%ADD39C,0.600000*%
%TD*%
%TA.AperFunction,Conductor*%
%ADD40C,0.200000*%
%TD*%
%TA.AperFunction,Conductor*%
%ADD41C,0.800000*%
%TD*%
%TA.AperFunction,Conductor*%
%ADD42C,0.250000*%
%TD*%
G04 APERTURE END LIST*
D10*
%TA.AperFunction,EtchedComponent*%
%TO.C,JP1*%
G36*
X58517500Y-34175000D02*
G01*
X57917500Y-34175000D01*
X57917500Y-33675000D01*
X58517500Y-33675000D01*
X58517500Y-34175000D01*
G37*
%TD.AperFunction*%
%TD*%
D11*
%TO.P,U1,1,IN*%
%TO.N,VSS*%
X45053000Y-44107500D03*
D12*
%TO.P,U1,2,GND*%
%TO.N,GND*%
X47593000Y-44107500D03*
%TO.P,U1,3,OUT*%
%TO.N,+5V_MCU*%
X50133000Y-44107500D03*
%TD*%
D13*
%TO.P,J16,1,Pin_1*%
%TO.N,+5V_MCU*%
X25000000Y-31800000D03*
D14*
%TO.P,J16,2,Pin_2*%
%TO.N,GND*%
X22460000Y-31800000D03*
%TD*%
D15*
%TO.P,,1*%
%TO.N,N/C*%
X96915000Y-23735000D03*
X97508109Y-22303109D03*
X97508109Y-25166891D03*
X98940000Y-21710000D03*
D16*
X98940000Y-23735000D03*
D15*
X98940000Y-25760000D03*
X100371891Y-22303109D03*
X100371891Y-25166891D03*
X100965000Y-23735000D03*
%TD*%
%TO.P,,1*%
%TO.N,N/C*%
X21375000Y-75415000D03*
X21968109Y-73983109D03*
X21968109Y-76846891D03*
X23400000Y-73390000D03*
D16*
X23400000Y-75415000D03*
D15*
X23400000Y-77440000D03*
X24831891Y-73983109D03*
X24831891Y-76846891D03*
X25425000Y-75415000D03*
%TD*%
%TO.P,,1*%
%TO.N,N/C*%
X96915000Y-75415000D03*
X97508109Y-73983109D03*
X97508109Y-76846891D03*
X98940000Y-73390000D03*
D16*
X98940000Y-75415000D03*
D15*
X98940000Y-77440000D03*
X100371891Y-73983109D03*
X100371891Y-76846891D03*
X100965000Y-75415000D03*
%TD*%
D17*
%TO.P,J12,1,Pin_1*%
%TO.N,Vin SW*%
X23062500Y-54000000D03*
%TO.P,J12,2,Pin_2*%
%TO.N,GND*%
X23062500Y-49000000D03*
%TD*%
D13*
%TO.P,U3,1,Pin_1*%
%TO.N,uCTx*%
X71725000Y-73125000D03*
D14*
%TO.P,U3,2,Pin_2*%
%TO.N,uCRx*%
X71725000Y-70585000D03*
%TO.P,U3,3,Pin_3*%
%TO.N,unconnected-(U3-Pin_3-Pad3)*%
X71725000Y-68045000D03*
%TO.P,U3,4,Pin_4*%
%TO.N,GND*%
X71725000Y-65505000D03*
%TO.P,U3,5,Pin_5*%
%TO.N,ext_uCRx*%
X71725000Y-62965000D03*
%TO.P,U3,6,Pin_6*%
%TO.N,ext_uCTx*%
X71725000Y-60425000D03*
%TO.P,U3,7,Pin_7*%
%TO.N,CAM2 GPIO 1*%
X71725000Y-57885000D03*
%TO.P,U3,8,Pin_8*%
%TO.N,CAM 2 GPIO 2*%
X71725000Y-55345000D03*
%TO.P,U3,9,Pin_9*%
%TO.N,CAM1 GPIO 1*%
X71725000Y-52805000D03*
%TO.P,U3,10,Pin_10*%
%TO.N,CAM 1 GPIO 2*%
X71725000Y-50265000D03*
%TO.P,U3,11,Pin_11*%
%TO.N,Ext Trig In*%
X71725000Y-47725000D03*
%TO.P,U3,12,Pin_12*%
%TO.N,Net-(U3-Pin_12)*%
X71725000Y-45185000D03*
%TO.P,U3,13,Pin_13*%
%TO.N,Strobe Trig*%
X56485000Y-45055000D03*
%TO.P,U3,14,Pin_14*%
%TO.N,Net-(U3-Pin_14)*%
X56485000Y-47595000D03*
%TO.P,U3,15,Pin_15*%
%TO.N,Force On*%
X56485000Y-50135000D03*
%TO.P,U3,16,Pin_16*%
%TO.N,P Switch*%
X56485000Y-52675000D03*
%TO.P,U3,17,Pin_17*%
%TO.N,Status LED*%
X56485000Y-55215000D03*
%TO.P,U3,18,Pin_18*%
%TO.N,5V EN*%
X56485000Y-57755000D03*
%TO.P,U3,19,Pin_19*%
%TO.N,VSS SW EN*%
X56485000Y-60295000D03*
%TO.P,U3,20,Pin_20*%
%TO.N,Strobe EN*%
X56485000Y-62835000D03*
%TO.P,U3,21,Pin_21*%
%TO.N,+3.3V*%
X56485000Y-65375000D03*
%TO.P,U3,22,Pin_22*%
%TO.N,GND*%
X56485000Y-67915000D03*
%TO.P,U3,23,Pin_23*%
X56485000Y-70585000D03*
D18*
%TO.P,U3,24,Pin_24*%
%TO.N,+5V_MCU*%
X56485000Y-72995000D03*
D14*
%TO.P,U3,25,Pin_25*%
%TO.N,SDA*%
X59025000Y-61565000D03*
D18*
%TO.P,U3,26,Pin_26*%
%TO.N,SCL*%
X59025000Y-64105000D03*
%TD*%
D15*
%TO.P,,1*%
%TO.N,N/C*%
X21375000Y-23735000D03*
X21968109Y-22303109D03*
X21968109Y-25166891D03*
X23400000Y-21710000D03*
D16*
X23400000Y-23735000D03*
D15*
X23400000Y-25760000D03*
X24831891Y-22303109D03*
X24831891Y-25166891D03*
X25425000Y-23735000D03*
%TD*%
D19*
%TO.P,J1,1,Pin_1*%
%TO.N,VIN*%
X30500000Y-74400000D03*
%TO.P,J1,2,Pin_2*%
%TO.N,GND*%
X35500000Y-74400000D03*
%TD*%
D13*
%TO.P,J17,1,Pin_1*%
%TO.N,MCU GPIO 2*%
X76050000Y-54000000D03*
D14*
%TO.P,J17,2,Pin_2*%
%TO.N,GND*%
X76050000Y-51460000D03*
%TD*%
D20*
%TO.P,D1,1,A*%
%TO.N,Net-(D1-A)*%
X30700000Y-66390000D03*
%TO.P,D1,2,NC*%
%TO.N,unconnected-(D1-NC-Pad2)*%
X32600000Y-66390000D03*
%TO.P,D1,3,K*%
%TO.N,VIN*%
X31650000Y-68265000D03*
%TD*%
D21*
%TO.P,R7,1*%
%TO.N,SCL*%
X59050000Y-66337500D03*
%TO.P,R7,2*%
%TO.N,+3.3V*%
X59050000Y-68162500D03*
%TD*%
D22*
%TO.P,R13,1*%
%TO.N,Net-(Q5-B1)*%
X63137500Y-40750000D03*
%TO.P,R13,2*%
%TO.N,Strobe Trig*%
X64962500Y-40750000D03*
%TD*%
D23*
%TO.P,R10,1*%
%TO.N,Net-(Q4-C1)*%
X65712500Y-28800000D03*
%TO.P,R10,2*%
%TO.N,Net-(Q4-B2)*%
X63887500Y-28800000D03*
%TD*%
D24*
%TO.P,Q2,1,G*%
%TO.N,Net-(Q2-G)*%
X30712500Y-62727500D03*
%TO.P,Q2,2,S*%
%TO.N,GND*%
X30712500Y-64627500D03*
%TO.P,Q2,3,D*%
%TO.N,Net-(D1-A)*%
X28837500Y-63677500D03*
%TD*%
D25*
%TO.P,C19,1*%
%TO.N,GND*%
X93250000Y-61400000D03*
%TO.P,C19,2*%
%TO.N,Net-(U8-V+)*%
X91350000Y-61400000D03*
%TD*%
%TO.P,C12,1*%
%TO.N,GND*%
X82650000Y-32450000D03*
%TO.P,C12,2*%
%TO.N,Net-(U5-AIN1)*%
X80750000Y-32450000D03*
%TD*%
D23*
%TO.P,R23,1*%
%TO.N,AIN 2*%
X82612500Y-28350000D03*
%TO.P,R23,2*%
%TO.N,Net-(U5-AIN1)*%
X80787500Y-28350000D03*
%TD*%
D26*
%TO.P,Q5,1,C1*%
%TO.N,Net-(Q5-C1)*%
X64750000Y-36800000D03*
%TO.P,Q5,2,B1*%
%TO.N,Net-(Q5-B1)*%
X64750000Y-37750000D03*
%TO.P,Q5,3,C2*%
%TO.N,Strobe Trig Out*%
X64750000Y-38700000D03*
%TO.P,Q5,4,E2*%
%TO.N,+V Strobe GPIO*%
X62150000Y-38700000D03*
%TO.P,Q5,5,B2*%
%TO.N,Net-(Q5-B2)*%
X62150000Y-37750000D03*
%TO.P,Q5,6,E1*%
%TO.N,GND*%
X62150000Y-36800000D03*
%TD*%
D27*
%TO.P,Q3,1,C1*%
%TO.N,Net-(Q3-C1)*%
X48550000Y-35800000D03*
%TO.P,Q3,2,B1*%
%TO.N,Net-(Q3-B1)*%
X49500000Y-35800000D03*
%TO.P,Q3,3,C2*%
%TO.N,5V SW*%
X50450000Y-35800000D03*
%TO.P,Q3,4,E2*%
%TO.N,+5V_MCU*%
X50450000Y-38400000D03*
%TO.P,Q3,5,B2*%
%TO.N,Net-(Q3-B2)*%
X49500000Y-38400000D03*
%TO.P,Q3,6,E1*%
%TO.N,GND*%
X48550000Y-38400000D03*
%TD*%
D21*
%TO.P,R11,1*%
%TO.N,Net-(Q4-B1)*%
X67750000Y-30887500D03*
%TO.P,R11,2*%
%TO.N,Strobe EN*%
X67750000Y-32712500D03*
%TD*%
D28*
%TO.P,R14,1*%
%TO.N,+V Strobe GPIO*%
X60100000Y-39262500D03*
%TO.P,R14,2*%
%TO.N,Net-(Q5-B2)*%
X60100000Y-37437500D03*
%TD*%
D23*
%TO.P,R24,1*%
%TO.N,GND*%
X82612500Y-30350000D03*
%TO.P,R24,2*%
%TO.N,Net-(U5-AIN1)*%
X80787500Y-30350000D03*
%TD*%
D22*
%TO.P,R29,1*%
%TO.N,P Switch*%
X58662500Y-52675000D03*
%TO.P,R29,2*%
%TO.N,+3.3V*%
X60487500Y-52675000D03*
%TD*%
D29*
%TO.P,C15,1*%
%TO.N,Net-(U8-C1+)*%
X89300000Y-60450000D03*
%TO.P,C15,2*%
%TO.N,Net-(U8-C1-)*%
X89300000Y-62350000D03*
%TD*%
D23*
%TO.P,R33,1*%
%TO.N,+5V_MCU*%
X50612500Y-40500000D03*
%TO.P,R33,2*%
%TO.N,Net-(Q3-B2)*%
X48787500Y-40500000D03*
%TD*%
D28*
%TO.P,R31,1*%
%TO.N,VSS SW EN*%
X35625000Y-48433731D03*
%TO.P,R31,2*%
%TO.N,Net-(U6-G2)*%
X35625000Y-46608731D03*
%TD*%
D30*
%TO.P,JP1,1,A*%
%TO.N,+5V_MCU*%
X58217500Y-34575000D03*
D31*
%TO.P,JP1,2,C*%
%TO.N,+V Strobe GPIO*%
X58217500Y-33275000D03*
D32*
%TO.P,JP1,3,B*%
%TO.N,+3.3V*%
X58217500Y-31975000D03*
%TD*%
D26*
%TO.P,Q4,1,C1*%
%TO.N,Net-(Q4-C1)*%
X65700000Y-30850000D03*
%TO.P,Q4,2,B1*%
%TO.N,Net-(Q4-B1)*%
X65700000Y-31800000D03*
%TO.P,Q4,3,C2*%
%TO.N,Strobe EN OUT*%
X65700000Y-32750000D03*
%TO.P,Q4,4,E2*%
%TO.N,+V Strobe GPIO*%
X63100000Y-32750000D03*
%TO.P,Q4,5,B2*%
%TO.N,Net-(Q4-B2)*%
X63100000Y-31800000D03*
%TO.P,Q4,6,E1*%
%TO.N,GND*%
X63100000Y-30850000D03*
%TD*%
D22*
%TO.P,R22,1*%
%TO.N,Force On*%
X58637500Y-50150000D03*
%TO.P,R22,2*%
%TO.N,+3.3V*%
X60462500Y-50150000D03*
%TD*%
D21*
%TO.P,R6,1*%
%TO.N,Net-(Q3-B1)*%
X52500000Y-37087500D03*
%TO.P,R6,2*%
%TO.N,5V EN*%
X52500000Y-38912500D03*
%TD*%
D29*
%TO.P,C21,1*%
%TO.N,+3.3V*%
X74900000Y-60050000D03*
%TO.P,C21,2*%
%TO.N,GND*%
X74900000Y-61950000D03*
%TD*%
D21*
%TO.P,R32,1*%
%TO.N,GND*%
X36300000Y-41508731D03*
%TO.P,R32,2*%
%TO.N,Net-(U6-G2)*%
X36300000Y-43333731D03*
%TD*%
D33*
%TO.P,C14,1*%
%TO.N,GND*%
X89300000Y-69150000D03*
%TO.P,C14,2*%
%TO.N,Net-(U8-V-)*%
X89300000Y-67250000D03*
%TD*%
D21*
%TO.P,R8,1*%
%TO.N,+3.3V*%
X59000000Y-57587500D03*
%TO.P,R8,2*%
%TO.N,SDA*%
X59000000Y-59412500D03*
%TD*%
%TO.P,R4,1*%
%TO.N,Net-(Q2-G)*%
X32875000Y-62765000D03*
%TO.P,R4,2*%
%TO.N,GND*%
X32875000Y-64590000D03*
%TD*%
D28*
%TO.P,R1,1*%
%TO.N,VIN*%
X28875000Y-67990000D03*
%TO.P,R1,2*%
%TO.N,Net-(D1-A)*%
X28875000Y-66165000D03*
%TD*%
D23*
%TO.P,R2,1*%
%TO.N,VSS*%
X40637500Y-40921231D03*
%TO.P,R2,2*%
%TO.N,Net-(D2-A)*%
X38812500Y-40921231D03*
%TD*%
D29*
%TO.P,C10,1*%
%TO.N,+3.3V*%
X74800000Y-37900000D03*
%TO.P,C10,2*%
%TO.N,GND*%
X74800000Y-39800000D03*
%TD*%
D34*
%TO.P,U8,1,C1+*%
%TO.N,Net-(U8-C1+)*%
X86550000Y-60155000D03*
%TO.P,U8,2,V+*%
%TO.N,Net-(U8-V+)*%
X86550000Y-61425000D03*
%TO.P,U8,3,C1-*%
%TO.N,Net-(U8-C1-)*%
X86550000Y-62695000D03*
%TO.P,U8,4,C2+*%
%TO.N,Net-(U8-C2+)*%
X86550000Y-63965000D03*
%TO.P,U8,5,C2-*%
%TO.N,Net-(U8-C2-)*%
X86550000Y-65235000D03*
%TO.P,U8,6,V-*%
%TO.N,Net-(U8-V-)*%
X86550000Y-66505000D03*
%TO.P,U8,7,DOUT2*%
%TO.N,ExtRx2*%
X86550000Y-67775000D03*
%TO.P,U8,8,RIN2*%
%TO.N,ExtTx2*%
X86550000Y-69045000D03*
%TO.P,U8,9,ROUT2*%
%TO.N,ext_uCRx*%
X77250000Y-69045000D03*
%TO.P,U8,10,DIN2*%
%TO.N,ext_uCTx*%
X77250000Y-67775000D03*
%TO.P,U8,11,DIN1*%
%TO.N,uCTx*%
X77250000Y-66505000D03*
%TO.P,U8,12,ROUT1*%
%TO.N,uCRx*%
X77250000Y-65235000D03*
%TO.P,U8,13,RIN1*%
%TO.N,PCTx1*%
X77250000Y-63965000D03*
%TO.P,U8,14,DOUT1*%
%TO.N,PCRx1*%
X77250000Y-62695000D03*
%TO.P,U8,15,GND*%
%TO.N,GND*%
X77250000Y-61425000D03*
%TO.P,U8,16,VCC*%
%TO.N,+3.3V*%
X77250000Y-60155000D03*
%TD*%
D21*
%TO.P,R5,1*%
%TO.N,Net-(Q3-C1)*%
X46600000Y-35287500D03*
%TO.P,R5,2*%
%TO.N,Net-(Q3-B2)*%
X46600000Y-37112500D03*
%TD*%
D23*
%TO.P,R12,1*%
%TO.N,Net-(Q5-C1)*%
X64712500Y-34800000D03*
%TO.P,R12,2*%
%TO.N,Net-(Q5-B2)*%
X62887500Y-34800000D03*
%TD*%
D28*
%TO.P,R3,1*%
%TO.N,Strobe EN*%
X34875000Y-64590000D03*
%TO.P,R3,2*%
%TO.N,Net-(Q2-G)*%
X34875000Y-62765000D03*
%TD*%
D29*
%TO.P,C18,1*%
%TO.N,Net-(U8-C2+)*%
X89300000Y-63850000D03*
%TO.P,C18,2*%
%TO.N,Net-(U8-C2-)*%
X89300000Y-65750000D03*
%TD*%
D23*
%TO.P,R30,1*%
%TO.N,MCU GPIO 2*%
X60400000Y-47675000D03*
%TO.P,R30,2*%
%TO.N,Net-(U3-Pin_14)*%
X58575000Y-47675000D03*
%TD*%
D35*
%TO.P,U5,1,ADDR*%
%TO.N,GND*%
X81050000Y-36350000D03*
%TO.P,U5,2,ALERT/RDY*%
%TO.N,unconnected-(U5-ALERT{slash}RDY-Pad2)*%
X81050000Y-36850000D03*
%TO.P,U5,3,GND*%
%TO.N,GND*%
X81050000Y-37350000D03*
%TO.P,U5,4,AIN0*%
%TO.N,Net-(U5-AIN0)*%
X81050000Y-37850000D03*
%TO.P,U5,5,AIN1*%
%TO.N,Net-(U5-AIN1)*%
X81050000Y-38350000D03*
%TO.P,U5,6,AIN2*%
%TO.N,GND*%
X76750000Y-38350000D03*
%TO.P,U5,7,AIN3*%
X76750000Y-37850000D03*
%TO.P,U5,8,VDD*%
%TO.N,+3.3V*%
X76750000Y-37350000D03*
%TO.P,U5,9,SDA*%
%TO.N,SDA*%
X76750000Y-36850000D03*
%TO.P,U5,10,SCL*%
%TO.N,SCL*%
X76750000Y-36350000D03*
%TD*%
D36*
%TO.P,D2,1,A*%
%TO.N,Net-(D2-A)*%
X40483731Y-44671231D03*
%TO.P,D2,2,NC*%
%TO.N,unconnected-(D2-NC-Pad2)*%
X40483731Y-42771231D03*
%TO.P,D2,3,K*%
%TO.N,VSS*%
X42358731Y-43721231D03*
%TD*%
D28*
%TO.P,R9,1*%
%TO.N,+V Strobe GPIO*%
X61000000Y-33212500D03*
%TO.P,R9,2*%
%TO.N,Net-(Q4-B2)*%
X61000000Y-31387500D03*
%TD*%
D37*
%TO.N,GND*%
X30700000Y-52300000D03*
D38*
X34075000Y-65677500D03*
X95328600Y-33400000D03*
X62700000Y-26250000D03*
X93300000Y-62700000D03*
X92024999Y-70000000D03*
X64700000Y-26275000D03*
X79750000Y-30400000D03*
D37*
X42800000Y-26100000D03*
X22500000Y-36200000D03*
X41800000Y-75300000D03*
D38*
X44275000Y-53975000D03*
X37225000Y-47700000D03*
X83950000Y-32450000D03*
D37*
X47900000Y-26075000D03*
D38*
X95303600Y-69350002D03*
X61200000Y-36100000D03*
X67550000Y-40300000D03*
X78850000Y-37050000D03*
D37*
X35200000Y-26100000D03*
D38*
X45700000Y-61400000D03*
X79250000Y-61425000D03*
X61900000Y-30200000D03*
X35212500Y-41508731D03*
X44274997Y-53100000D03*
X85725000Y-72975000D03*
D39*
X48850000Y-50100000D03*
D38*
X84950000Y-38325000D03*
X73550000Y-39800000D03*
X75900000Y-26900000D03*
%TO.N,+3.3V*%
X73550000Y-37950000D03*
X58200000Y-31000000D03*
X60475000Y-54125000D03*
X66500000Y-39300000D03*
X74900000Y-59050000D03*
X60425000Y-57587500D03*
X51375000Y-54450000D03*
X63700000Y-27100000D03*
X59050000Y-69350000D03*
X85425000Y-33800000D03*
%TO.N,AIN 2*%
X76900000Y-26950000D03*
%TO.N,Net-(U5-AIN0)*%
X82191268Y-35583732D03*
%TO.N,VIN*%
X25925000Y-66700000D03*
X25925000Y-67500000D03*
X26625000Y-67500000D03*
X27325000Y-68300000D03*
X26625000Y-68300000D03*
X26625000Y-66700000D03*
X27325000Y-67500000D03*
X25925000Y-68300000D03*
X26625000Y-69100000D03*
X27325000Y-66700000D03*
X27325000Y-69100000D03*
X25925000Y-69100000D03*
%TO.N,Net-(D1-A)*%
X23655000Y-67420000D03*
%TO.N,Vin SW*%
X23425000Y-61700000D03*
X24425000Y-63600000D03*
X25425000Y-62600000D03*
X26425000Y-62600000D03*
X22325000Y-59900000D03*
X26425000Y-61700000D03*
X24425000Y-61700000D03*
X25425000Y-63600000D03*
X24425000Y-62600000D03*
X22325000Y-63600000D03*
X26425000Y-59000000D03*
X23425000Y-60800000D03*
X26425000Y-60800000D03*
X22325000Y-62600000D03*
X26425000Y-63600000D03*
X25425000Y-61700000D03*
X25425000Y-59000000D03*
X22325000Y-59000000D03*
X23425000Y-63600000D03*
X25425000Y-60800000D03*
X24425000Y-60800000D03*
X23425000Y-62600000D03*
X22325000Y-61700000D03*
X23425000Y-59000000D03*
X26425000Y-59900000D03*
X25425000Y-59900000D03*
X23425000Y-59900000D03*
X22325000Y-60800000D03*
X24425000Y-59900000D03*
X24425000Y-59000000D03*
%TO.N,Net-(D2-A)*%
X38725000Y-42300000D03*
%TO.N,SCL*%
X70650000Y-37300000D03*
X54025000Y-60657538D03*
X45600000Y-52200000D03*
%TO.N,SDA*%
X45950000Y-57650000D03*
X70650000Y-38300000D03*
X54800000Y-61575000D03*
%TO.N,Net-(U4-A1)*%
X49400000Y-58800000D03*
X43350000Y-58250000D03*
%TO.N,5V SW*%
X50400000Y-34400000D03*
%TO.N,Strobe Trig Out*%
X68850000Y-34550000D03*
%TO.N,Strobe EN OUT*%
X64700000Y-32750000D03*
%TO.N,P Switch*%
X60775000Y-26555000D03*
%TO.N,Status LED*%
X61725000Y-26000000D03*
%TO.N,Force On*%
X59700000Y-27250000D03*
%TO.N,CAM1 GPIO 1*%
X89825000Y-32400000D03*
%TO.N,CAM 1 GPIO 2*%
X89850000Y-30350000D03*
D39*
%TO.N,Net-(U6-G2)*%
X37281231Y-46356231D03*
D38*
%TO.N,+5V_MCU*%
X55800000Y-34575000D03*
X45325000Y-34400000D03*
%TO.N,PCTx1*%
X79046801Y-69138118D03*
%TO.N,PCRx1*%
X79700000Y-69600000D03*
%TO.N,ExtRx2*%
X85025000Y-67775000D03*
%TO.N,ExtTx2*%
X91025000Y-70250000D03*
%TO.N,ext_uCTx*%
X75625000Y-67775000D03*
%TO.N,ext_uCRx*%
X74725000Y-69025000D03*
%TO.N,MCU GPIO 2*%
X60400000Y-46400000D03*
%TD*%
D40*
%TO.N,GND*%
X92024999Y-70000000D02*
X91174999Y-69150000D01*
D41*
X47593000Y-39357000D02*
X48550000Y-38400000D01*
D40*
X78050000Y-37850000D02*
X76750000Y-37850000D01*
D42*
X75575000Y-61950000D02*
X74900000Y-61950000D01*
D40*
X82612500Y-30350000D02*
X82650000Y-30387500D01*
X76750000Y-37850000D02*
X76750000Y-38350000D01*
X30712500Y-64627500D02*
X32837500Y-64627500D01*
D42*
X76100000Y-61425000D02*
X75575000Y-61950000D01*
D40*
X79150000Y-37350000D02*
X81050000Y-37350000D01*
X32837500Y-64627500D02*
X32875000Y-64590000D01*
X35212500Y-41508731D02*
X36300000Y-41508731D01*
D41*
X47593000Y-44107500D02*
X47593000Y-39357000D01*
D40*
X82650000Y-30387500D02*
X82650000Y-32450000D01*
X79550000Y-36350000D02*
X81050000Y-36350000D01*
X78850000Y-37050000D02*
X79550000Y-36350000D01*
D42*
X77250000Y-61425000D02*
X76100000Y-61425000D01*
D40*
X91174999Y-69150000D02*
X89300000Y-69150000D01*
X78850000Y-37050000D02*
X79150000Y-37350000D01*
X93300000Y-62700000D02*
X93300000Y-61450000D01*
X33962500Y-65677500D02*
X32875000Y-64590000D01*
X78850000Y-37050000D02*
X78050000Y-37850000D01*
X61200000Y-36125000D02*
X61200000Y-36100000D01*
X93300000Y-61450000D02*
X93250000Y-61400000D01*
X62550000Y-30850000D02*
X61900000Y-30200000D01*
D42*
X74800000Y-39800000D02*
X73550000Y-39800000D01*
D40*
X61875000Y-36800000D02*
X61200000Y-36125000D01*
X82650000Y-32450000D02*
X83950000Y-32450000D01*
X63100000Y-30850000D02*
X62550000Y-30850000D01*
X34075000Y-65677500D02*
X33962500Y-65677500D01*
X62150000Y-36800000D02*
X61875000Y-36800000D01*
D42*
X77250000Y-61425000D02*
X79250000Y-61425000D01*
D40*
%TO.N,VSS*%
X42358731Y-43721231D02*
X42358731Y-41258731D01*
X42021231Y-40921231D02*
X40825000Y-40921231D01*
X42358731Y-41258731D02*
X42021231Y-40921231D01*
X45053000Y-44107500D02*
X42745000Y-44107500D01*
X42745000Y-44107500D02*
X42358731Y-43721231D01*
D42*
%TO.N,+3.3V*%
X75005000Y-60155000D02*
X74900000Y-60050000D01*
X74900000Y-59050000D02*
X74900000Y-60050000D01*
X58217500Y-31975000D02*
X58217500Y-31017500D01*
X77250000Y-60155000D02*
X75005000Y-60155000D01*
D40*
X60425000Y-57587500D02*
X59000000Y-57587500D01*
X60487500Y-52675000D02*
X60487500Y-54112500D01*
X60462500Y-52650000D02*
X60487500Y-52675000D01*
D42*
X74800000Y-37900000D02*
X75350000Y-37350000D01*
D40*
X60487500Y-54112500D02*
X60475000Y-54125000D01*
X60462500Y-50150000D02*
X60462500Y-52650000D01*
D42*
X74800000Y-37900000D02*
X73600000Y-37900000D01*
X75350000Y-37350000D02*
X76750000Y-37350000D01*
X58217500Y-31017500D02*
X58200000Y-31000000D01*
X73600000Y-37900000D02*
X73550000Y-37950000D01*
D40*
X59050000Y-68162500D02*
X59050000Y-69350000D01*
%TO.N,Net-(U5-AIN1)*%
X83100000Y-37692463D02*
X83100000Y-35325000D01*
X83100000Y-35325000D02*
X80750000Y-32975000D01*
X80787500Y-30350000D02*
X80787500Y-30487500D01*
X80787500Y-30487500D02*
X80750000Y-30525000D01*
X82417463Y-38375000D02*
X83100000Y-37692463D01*
X80750000Y-32975000D02*
X80750000Y-32450000D01*
X81075000Y-38375000D02*
X82417463Y-38375000D01*
X80787500Y-28350000D02*
X80787500Y-30350000D01*
X81050000Y-38350000D02*
X81075000Y-38375000D01*
X80750000Y-30525000D02*
X80750000Y-32450000D01*
%TO.N,AIN 2*%
X76900000Y-26950000D02*
X82000000Y-26950000D01*
X82000000Y-26950000D02*
X82612500Y-27562500D01*
X82612500Y-27562500D02*
X82612500Y-28350000D01*
%TO.N,Net-(U5-AIN0)*%
X82191268Y-37483732D02*
X82191268Y-35583732D01*
X81825000Y-37850000D02*
X82191268Y-37483732D01*
X81050000Y-37850000D02*
X81825000Y-37850000D01*
%TO.N,VIN*%
X31375000Y-67990000D02*
X31650000Y-68265000D01*
X30500000Y-69615000D02*
X28875000Y-67990000D01*
X30500000Y-74400000D02*
X30500000Y-69615000D01*
X28875000Y-67990000D02*
X31375000Y-67990000D01*
%TO.N,Net-(D1-A)*%
X28460000Y-65750000D02*
X25325000Y-65750000D01*
X28875000Y-66165000D02*
X28875000Y-63715000D01*
X28875000Y-63715000D02*
X28837500Y-63677500D01*
X30700000Y-66390000D02*
X29100000Y-66390000D01*
X28875000Y-66165000D02*
X28460000Y-65750000D01*
X29100000Y-66390000D02*
X28875000Y-66165000D01*
X25325000Y-65750000D02*
X23655000Y-67420000D01*
%TO.N,Net-(Q2-G)*%
X32837500Y-62727500D02*
X32875000Y-62765000D01*
X30712500Y-62727500D02*
X32837500Y-62727500D01*
X32875000Y-62765000D02*
X34875000Y-62765000D01*
%TO.N,Net-(D2-A)*%
X38725000Y-42300000D02*
X38725000Y-42912500D01*
X38812500Y-40921231D02*
X38812500Y-42212500D01*
X38812500Y-42212500D02*
X38725000Y-42300000D01*
X38725000Y-42912500D02*
X40483731Y-44671231D01*
%TO.N,Net-(Q4-B2)*%
X64450000Y-29362500D02*
X64450000Y-31225000D01*
X63887500Y-28800000D02*
X64450000Y-29362500D01*
X64450000Y-31225000D02*
X63875000Y-31800000D01*
X63875000Y-31800000D02*
X63100000Y-31800000D01*
X63100000Y-31800000D02*
X61412500Y-31800000D01*
X61412500Y-31800000D02*
X61000000Y-31387500D01*
%TO.N,Net-(Q4-B1)*%
X67750000Y-30887500D02*
X66837500Y-31800000D01*
X66837500Y-31800000D02*
X65700000Y-31800000D01*
%TO.N,Strobe EN*%
X34875000Y-64590000D02*
X49310000Y-64590000D01*
X51065000Y-62835000D02*
X56485000Y-62835000D01*
X65900000Y-41309744D02*
X61750000Y-45459744D01*
X49310000Y-64590000D02*
X49337500Y-64562500D01*
X61750000Y-45459744D02*
X61750000Y-60466346D01*
X59381346Y-62835000D02*
X56485000Y-62835000D01*
X61750000Y-60466346D02*
X59381346Y-62835000D01*
X69575000Y-35215686D02*
X65900000Y-38890686D01*
X67750000Y-32712500D02*
X68887500Y-32712500D01*
X68887500Y-32712500D02*
X69575000Y-33400000D01*
X65900000Y-38890686D02*
X65900000Y-41309744D01*
X69575000Y-33400000D02*
X69575000Y-35215686D01*
X49337500Y-64562500D02*
X51065000Y-62835000D01*
%TO.N,Net-(Q4-C1)*%
X65712500Y-28800000D02*
X65712500Y-30837500D01*
X65712500Y-30837500D02*
X65700000Y-30850000D01*
%TO.N,Net-(Q5-C1)*%
X64712500Y-36762500D02*
X64750000Y-36800000D01*
X64712500Y-34800000D02*
X64712500Y-36762500D01*
%TO.N,Net-(Q5-B2)*%
X63350000Y-35262500D02*
X62887500Y-34800000D01*
X61837500Y-37437500D02*
X62150000Y-37750000D01*
X62925000Y-37750000D02*
X63350000Y-37325000D01*
X60100000Y-37437500D02*
X61837500Y-37437500D01*
X63350000Y-37325000D02*
X63350000Y-35262500D01*
X62150000Y-37750000D02*
X62925000Y-37750000D01*
%TO.N,Strobe Trig*%
X64962500Y-40750000D02*
X60657500Y-45055000D01*
X60657500Y-45055000D02*
X56485000Y-45055000D01*
%TO.N,Net-(Q5-B1)*%
X63975000Y-37750000D02*
X63450000Y-38275000D01*
X64750000Y-37750000D02*
X63975000Y-37750000D01*
X63450000Y-40437500D02*
X63137500Y-40750000D01*
X63450000Y-38275000D02*
X63450000Y-40437500D01*
D42*
%TO.N,SCL*%
X70650000Y-37300000D02*
X71600000Y-36350000D01*
D40*
X54025000Y-60657538D02*
X54025000Y-60625000D01*
X59025000Y-64105000D02*
X59025000Y-66312500D01*
D42*
X71600000Y-36350000D02*
X76750000Y-36350000D01*
D40*
X50275000Y-56875000D02*
X46825000Y-56875000D01*
X46825000Y-56875000D02*
X45625000Y-55675000D01*
X45625000Y-55675000D02*
X45625000Y-52225000D01*
X45625000Y-52225000D02*
X45600000Y-52200000D01*
X59025000Y-66312500D02*
X59050000Y-66337500D01*
X54025000Y-60625000D02*
X50275000Y-56875000D01*
D42*
%TO.N,SDA*%
X70650000Y-38300000D02*
X72100000Y-36850000D01*
X72100000Y-36850000D02*
X76750000Y-36850000D01*
D40*
X53875000Y-61575000D02*
X49950000Y-57650000D01*
X59000000Y-59412500D02*
X59000000Y-61540000D01*
X54800000Y-61575000D02*
X53875000Y-61575000D01*
X59000000Y-61540000D02*
X59025000Y-61565000D01*
X49950000Y-57650000D02*
X45950000Y-57650000D01*
%TO.N,Net-(U4-A1)*%
X43350000Y-58250000D02*
X43900000Y-58800000D01*
X43900000Y-58800000D02*
X49400000Y-58800000D01*
%TO.N,Net-(U8-V-)*%
X89300000Y-67250000D02*
X88150000Y-67250000D01*
X87405000Y-66505000D02*
X86550000Y-66505000D01*
X88150000Y-67250000D02*
X87405000Y-66505000D01*
%TO.N,Net-(U8-C1+)*%
X89005000Y-60155000D02*
X89300000Y-60450000D01*
X86550000Y-60155000D02*
X89005000Y-60155000D01*
%TO.N,Net-(U8-C1-)*%
X87795000Y-62695000D02*
X86550000Y-62695000D01*
X88140000Y-62350000D02*
X87795000Y-62695000D01*
X89300000Y-62350000D02*
X88140000Y-62350000D01*
D41*
%TO.N,5V SW*%
X50400000Y-34400000D02*
X50450000Y-34450000D01*
X50450000Y-34450000D02*
X50450000Y-35800000D01*
D40*
%TO.N,Strobe Trig Out*%
X68850000Y-34550000D02*
X68850000Y-35375000D01*
X68850000Y-35375000D02*
X65525000Y-38700000D01*
X65525000Y-38700000D02*
X64750000Y-38700000D01*
D42*
%TO.N,Strobe EN OUT*%
X65700000Y-32750000D02*
X64700000Y-32750000D01*
D40*
%TO.N,P Switch*%
X56479314Y-26555000D02*
X54725000Y-28309314D01*
X56485000Y-52675000D02*
X58662500Y-52675000D01*
X54725000Y-50915000D02*
X56485000Y-52675000D01*
X60775000Y-26555000D02*
X56479314Y-26555000D01*
X54725000Y-28309314D02*
X54725000Y-50915000D01*
%TO.N,Status LED*%
X61725000Y-26000000D02*
X56468628Y-26000000D01*
X54275000Y-53005000D02*
X56485000Y-55215000D01*
X56468628Y-26000000D02*
X54275000Y-28193628D01*
X54275000Y-28193628D02*
X54275000Y-53005000D01*
%TO.N,Force On*%
X55125000Y-48775000D02*
X56485000Y-50135000D01*
X56485000Y-50135000D02*
X58622500Y-50135000D01*
X58622500Y-50135000D02*
X58637500Y-50150000D01*
X56350000Y-27250000D02*
X55125000Y-28475000D01*
X59700000Y-27250000D02*
X56350000Y-27250000D01*
X55125000Y-28475000D02*
X55125000Y-48775000D01*
%TO.N,Net-(Q3-B1)*%
X49500000Y-36575000D02*
X49500000Y-35800000D01*
X50012500Y-37087500D02*
X49500000Y-36575000D01*
X52500000Y-37087500D02*
X50012500Y-37087500D01*
%TO.N,Net-(Q3-B2)*%
X49500000Y-39787500D02*
X49500000Y-38400000D01*
X48712500Y-37112500D02*
X46600000Y-37112500D01*
X48787500Y-40500000D02*
X49500000Y-39787500D01*
X49500000Y-37900000D02*
X48712500Y-37112500D01*
X49500000Y-38400000D02*
X49500000Y-37900000D01*
%TO.N,Net-(Q3-C1)*%
X48037500Y-35287500D02*
X48550000Y-35800000D01*
X46600000Y-35287500D02*
X48037500Y-35287500D01*
%TO.N,5V EN*%
X50625000Y-51250000D02*
X52500000Y-49375000D01*
X53205000Y-57755000D02*
X50625000Y-55175000D01*
X50625000Y-55175000D02*
X50625000Y-51250000D01*
X56485000Y-57755000D02*
X53205000Y-57755000D01*
X52500000Y-49375000D02*
X52500000Y-38912500D01*
D42*
%TO.N,CAM1 GPIO 1*%
X79050000Y-39250000D02*
X74200000Y-44100000D01*
X82975000Y-39250000D02*
X79050000Y-39250000D01*
X74200000Y-50330000D02*
X71725000Y-52805000D01*
X89825000Y-32400000D02*
X82975000Y-39250000D01*
X74200000Y-44100000D02*
X74200000Y-50330000D01*
%TO.N,CAM 1 GPIO 2*%
X82621752Y-38800000D02*
X78825000Y-38800000D01*
X89850000Y-31571752D02*
X89601752Y-31820000D01*
X78825000Y-38800000D02*
X73625000Y-44000000D01*
X89584756Y-31820000D02*
X89245000Y-32159756D01*
X73625000Y-44000000D02*
X73625000Y-47486701D01*
X73625000Y-47486701D02*
X71725000Y-49386701D01*
X89245000Y-32176752D02*
X82621752Y-38800000D01*
X89850000Y-30350000D02*
X89850000Y-31571752D01*
X89245000Y-32159756D02*
X89245000Y-32176752D01*
X71725000Y-49386701D02*
X71725000Y-50265000D01*
X89601752Y-31820000D02*
X89584756Y-31820000D01*
D40*
%TO.N,VSS SW EN*%
X56485000Y-60295000D02*
X54870000Y-60295000D01*
X43008731Y-48433731D02*
X35625000Y-48433731D01*
X54870000Y-60295000D02*
X43008731Y-48433731D01*
%TO.N,Net-(U6-G2)*%
X35877500Y-46356231D02*
X35625000Y-46608731D01*
X35625000Y-46608731D02*
X35625000Y-44008731D01*
X35625000Y-44008731D02*
X36300000Y-43333731D01*
X37281231Y-46356231D02*
X35877500Y-46356231D01*
D41*
%TO.N,+5V_MCU*%
X50133000Y-44107500D02*
X50192500Y-44107500D01*
X50900000Y-40787500D02*
X50612500Y-40500000D01*
X50192500Y-44107500D02*
X50900000Y-43400000D01*
D42*
X55800000Y-34575000D02*
X58217500Y-34575000D01*
D41*
X50450000Y-38400000D02*
X50450000Y-40337500D01*
X50900000Y-43400000D02*
X50900000Y-40787500D01*
X50450000Y-40337500D02*
X50612500Y-40500000D01*
D40*
%TO.N,Net-(U8-C2-)*%
X88750000Y-65200000D02*
X86585000Y-65200000D01*
X89300000Y-65750000D02*
X88750000Y-65200000D01*
X86585000Y-65200000D02*
X86550000Y-65235000D01*
%TO.N,Net-(U8-C2+)*%
X89300000Y-63850000D02*
X86665000Y-63850000D01*
X86665000Y-63850000D02*
X86550000Y-63965000D01*
%TO.N,Net-(U8-V+)*%
X91325000Y-61425000D02*
X91350000Y-61400000D01*
X86550000Y-61425000D02*
X91325000Y-61425000D01*
%TO.N,PCTx1*%
X79046801Y-69138118D02*
X79046801Y-64471801D01*
X79046801Y-64471801D02*
X78540000Y-63965000D01*
X78540000Y-63965000D02*
X77250000Y-63965000D01*
%TO.N,PCRx1*%
X79700000Y-64151471D02*
X78243529Y-62695000D01*
X79700000Y-69600000D02*
X79700000Y-64151471D01*
X78243529Y-62695000D02*
X77250000Y-62695000D01*
%TO.N,uCTx*%
X77250000Y-66505000D02*
X75070000Y-66505000D01*
X74625000Y-66950000D02*
X74625000Y-67950000D01*
X75070000Y-66505000D02*
X74625000Y-66950000D01*
X71725000Y-73050000D02*
X71725000Y-73125000D01*
X73625000Y-71150000D02*
X71725000Y-73050000D01*
X74625000Y-67950000D02*
X73625000Y-68950000D01*
X73625000Y-68950000D02*
X73625000Y-71150000D01*
%TO.N,uCRx*%
X75465000Y-65235000D02*
X74000000Y-66700000D01*
X77250000Y-65235000D02*
X75465000Y-65235000D01*
X74000000Y-67950000D02*
X71725000Y-70225000D01*
X71725000Y-70225000D02*
X71725000Y-70585000D01*
X74000000Y-66700000D02*
X74000000Y-67950000D01*
D42*
%TO.N,+V Strobe GPIO*%
X58825000Y-37987500D02*
X60100000Y-39262500D01*
X58217500Y-33275000D02*
X60887500Y-33275000D01*
D40*
X61000000Y-33212500D02*
X62637500Y-33212500D01*
D42*
X60887500Y-33275000D02*
X60912500Y-33300000D01*
D40*
X61437500Y-39262500D02*
X60100000Y-39262500D01*
X62150000Y-38700000D02*
X62000000Y-38700000D01*
X62000000Y-38700000D02*
X61437500Y-39262500D01*
D42*
X59675000Y-33275000D02*
X59675000Y-35275000D01*
X59675000Y-35275000D02*
X58825000Y-36125000D01*
D40*
X62637500Y-33212500D02*
X63100000Y-32750000D01*
D42*
X58825000Y-36125000D02*
X58825000Y-37987500D01*
D40*
%TO.N,ExtRx2*%
X85025000Y-67775000D02*
X86550000Y-67775000D01*
%TO.N,ExtTx2*%
X91025000Y-70250000D02*
X87755000Y-70250000D01*
X87755000Y-70250000D02*
X86550000Y-69045000D01*
%TO.N,ext_uCTx*%
X77250000Y-67775000D02*
X75625000Y-67775000D01*
%TO.N,ext_uCRx*%
X74745000Y-69045000D02*
X77250000Y-69045000D01*
X74725000Y-69025000D02*
X74745000Y-69045000D01*
%TO.N,MCU GPIO 2*%
X60400000Y-47675000D02*
X60400000Y-46400000D01*
%TO.N,Net-(U3-Pin_14)*%
X56485000Y-47595000D02*
X58495000Y-47595000D01*
X58495000Y-47595000D02*
X58575000Y-47675000D01*
%TD*%
M02*
