%TF.GenerationSoftware,KiCad,Pcbnew,8.0.4*%
%TF.CreationDate,2024-11-07T09:22:51-08:00*%
%TF.ProjectId,hadron_io_breakouts,68616472-6f6e-45f6-996f-5f627265616b,rev?*%
%TF.SameCoordinates,Original*%
%TF.FileFunction,Soldermask,Bot*%
%TF.FilePolarity,Negative*%
%FSLAX46Y46*%
G04 Gerber Fmt 4.6, Leading zero omitted, Abs format (unit mm)*
G04 Created by KiCad (PCBNEW 8.0.4) date 2024-11-07 09:22:51*
%MOMM*%
%LPD*%
G01*
G04 APERTURE LIST*
G04 Aperture macros list*
%AMRoundRect*
0 Rectangle with rounded corners*
0 $1 Rounding radius*
0 $2 $3 $4 $5 $6 $7 $8 $9 X,Y pos of 4 corners*
0 Add a 4 corners polygon primitive as box body*
4,1,4,$2,$3,$4,$5,$6,$7,$8,$9,$2,$3,0*
0 Add four circle primitives for the rounded corners*
1,1,$1+$1,$2,$3*
1,1,$1+$1,$4,$5*
1,1,$1+$1,$6,$7*
1,1,$1+$1,$8,$9*
0 Add four rect primitives between the rounded corners*
20,1,$1+$1,$2,$3,$4,$5,0*
20,1,$1+$1,$4,$5,$6,$7,0*
20,1,$1+$1,$6,$7,$8,$9,0*
20,1,$1+$1,$8,$9,$2,$3,0*%
G04 Aperture macros list end*
%ADD10C,0.751000*%
%ADD11C,0.010000*%
%ADD12C,0.800000*%
%ADD13C,5.400000*%
%ADD14R,1.700000X1.700000*%
%ADD15O,1.700000X1.700000*%
%ADD16C,1.420000*%
%ADD17RoundRect,0.102000X-0.370000X-1.110000X0.370000X-1.110000X0.370000X1.110000X-0.370000X1.110000X0*%
%ADD18C,1.400000*%
G04 APERTURE END LIST*
%TO.C,J4*%
D10*
X62247500Y-24413500D02*
G75*
G02*
X61496500Y-24413500I-375500J0D01*
G01*
X61496500Y-24413500D02*
G75*
G02*
X62247500Y-24413500I375500J0D01*
G01*
X89551500Y-24413500D02*
G75*
G02*
X88800500Y-24413500I-375500J0D01*
G01*
X88800500Y-24413500D02*
G75*
G02*
X89551500Y-24413500I375500J0D01*
G01*
D11*
X63880000Y-24209500D02*
X63038000Y-24209500D01*
X63038000Y-21887500D01*
X63880000Y-21887500D01*
X63880000Y-24209500D01*
G36*
X63880000Y-24209500D02*
G01*
X63038000Y-24209500D01*
X63038000Y-21887500D01*
X63880000Y-21887500D01*
X63880000Y-24209500D01*
G37*
X63880000Y-26939500D02*
X63038000Y-26939500D01*
X63038000Y-24617500D01*
X63880000Y-24617500D01*
X63880000Y-26939500D01*
G36*
X63880000Y-26939500D02*
G01*
X63038000Y-26939500D01*
X63038000Y-24617500D01*
X63880000Y-24617500D01*
X63880000Y-26939500D01*
G37*
X65150000Y-24209500D02*
X64308000Y-24209500D01*
X64308000Y-21887500D01*
X65150000Y-21887500D01*
X65150000Y-24209500D01*
G36*
X65150000Y-24209500D02*
G01*
X64308000Y-24209500D01*
X64308000Y-21887500D01*
X65150000Y-21887500D01*
X65150000Y-24209500D01*
G37*
X65150000Y-26939500D02*
X64308000Y-26939500D01*
X64308000Y-24617500D01*
X65150000Y-24617500D01*
X65150000Y-26939500D01*
G36*
X65150000Y-26939500D02*
G01*
X64308000Y-26939500D01*
X64308000Y-24617500D01*
X65150000Y-24617500D01*
X65150000Y-26939500D01*
G37*
X66420000Y-24209500D02*
X65578000Y-24209500D01*
X65578000Y-21887500D01*
X66420000Y-21887500D01*
X66420000Y-24209500D01*
G36*
X66420000Y-24209500D02*
G01*
X65578000Y-24209500D01*
X65578000Y-21887500D01*
X66420000Y-21887500D01*
X66420000Y-24209500D01*
G37*
X66420000Y-26939500D02*
X65578000Y-26939500D01*
X65578000Y-24617500D01*
X66420000Y-24617500D01*
X66420000Y-26939500D01*
G36*
X66420000Y-26939500D02*
G01*
X65578000Y-26939500D01*
X65578000Y-24617500D01*
X66420000Y-24617500D01*
X66420000Y-26939500D01*
G37*
X67690000Y-24209500D02*
X66848000Y-24209500D01*
X66848000Y-21887500D01*
X67690000Y-21887500D01*
X67690000Y-24209500D01*
G36*
X67690000Y-24209500D02*
G01*
X66848000Y-24209500D01*
X66848000Y-21887500D01*
X67690000Y-21887500D01*
X67690000Y-24209500D01*
G37*
X67690000Y-26939500D02*
X66848000Y-26939500D01*
X66848000Y-24617500D01*
X67690000Y-24617500D01*
X67690000Y-26939500D01*
G36*
X67690000Y-26939500D02*
G01*
X66848000Y-26939500D01*
X66848000Y-24617500D01*
X67690000Y-24617500D01*
X67690000Y-26939500D01*
G37*
X68960000Y-24209500D02*
X68118000Y-24209500D01*
X68118000Y-21887500D01*
X68960000Y-21887500D01*
X68960000Y-24209500D01*
G36*
X68960000Y-24209500D02*
G01*
X68118000Y-24209500D01*
X68118000Y-21887500D01*
X68960000Y-21887500D01*
X68960000Y-24209500D01*
G37*
X68960000Y-26939500D02*
X68118000Y-26939500D01*
X68118000Y-24617500D01*
X68960000Y-24617500D01*
X68960000Y-26939500D01*
G36*
X68960000Y-26939500D02*
G01*
X68118000Y-26939500D01*
X68118000Y-24617500D01*
X68960000Y-24617500D01*
X68960000Y-26939500D01*
G37*
X70230000Y-24209500D02*
X69388000Y-24209500D01*
X69388000Y-21887500D01*
X70230000Y-21887500D01*
X70230000Y-24209500D01*
G36*
X70230000Y-24209500D02*
G01*
X69388000Y-24209500D01*
X69388000Y-21887500D01*
X70230000Y-21887500D01*
X70230000Y-24209500D01*
G37*
X70230000Y-26939500D02*
X69388000Y-26939500D01*
X69388000Y-24617500D01*
X70230000Y-24617500D01*
X70230000Y-26939500D01*
G36*
X70230000Y-26939500D02*
G01*
X69388000Y-26939500D01*
X69388000Y-24617500D01*
X70230000Y-24617500D01*
X70230000Y-26939500D01*
G37*
X71500000Y-24209500D02*
X70658000Y-24209500D01*
X70658000Y-21887500D01*
X71500000Y-21887500D01*
X71500000Y-24209500D01*
G36*
X71500000Y-24209500D02*
G01*
X70658000Y-24209500D01*
X70658000Y-21887500D01*
X71500000Y-21887500D01*
X71500000Y-24209500D01*
G37*
X71500000Y-26939500D02*
X70658000Y-26939500D01*
X70658000Y-24617500D01*
X71500000Y-24617500D01*
X71500000Y-26939500D01*
G36*
X71500000Y-26939500D02*
G01*
X70658000Y-26939500D01*
X70658000Y-24617500D01*
X71500000Y-24617500D01*
X71500000Y-26939500D01*
G37*
X72770000Y-24209500D02*
X71928000Y-24209500D01*
X71928000Y-21887500D01*
X72770000Y-21887500D01*
X72770000Y-24209500D01*
G36*
X72770000Y-24209500D02*
G01*
X71928000Y-24209500D01*
X71928000Y-21887500D01*
X72770000Y-21887500D01*
X72770000Y-24209500D01*
G37*
X72770000Y-26939500D02*
X71928000Y-26939500D01*
X71928000Y-24617500D01*
X72770000Y-24617500D01*
X72770000Y-26939500D01*
G36*
X72770000Y-26939500D02*
G01*
X71928000Y-26939500D01*
X71928000Y-24617500D01*
X72770000Y-24617500D01*
X72770000Y-26939500D01*
G37*
X74040000Y-24209500D02*
X73198000Y-24209500D01*
X73198000Y-21887500D01*
X74040000Y-21887500D01*
X74040000Y-24209500D01*
G36*
X74040000Y-24209500D02*
G01*
X73198000Y-24209500D01*
X73198000Y-21887500D01*
X74040000Y-21887500D01*
X74040000Y-24209500D01*
G37*
X74040000Y-26939500D02*
X73198000Y-26939500D01*
X73198000Y-24617500D01*
X74040000Y-24617500D01*
X74040000Y-26939500D01*
G36*
X74040000Y-26939500D02*
G01*
X73198000Y-26939500D01*
X73198000Y-24617500D01*
X74040000Y-24617500D01*
X74040000Y-26939500D01*
G37*
X75310000Y-24209500D02*
X74468000Y-24209500D01*
X74468000Y-21887500D01*
X75310000Y-21887500D01*
X75310000Y-24209500D01*
G36*
X75310000Y-24209500D02*
G01*
X74468000Y-24209500D01*
X74468000Y-21887500D01*
X75310000Y-21887500D01*
X75310000Y-24209500D01*
G37*
X75310000Y-26939500D02*
X74468000Y-26939500D01*
X74468000Y-24617500D01*
X75310000Y-24617500D01*
X75310000Y-26939500D01*
G36*
X75310000Y-26939500D02*
G01*
X74468000Y-26939500D01*
X74468000Y-24617500D01*
X75310000Y-24617500D01*
X75310000Y-26939500D01*
G37*
X76580000Y-24209500D02*
X75738000Y-24209500D01*
X75738000Y-21887500D01*
X76580000Y-21887500D01*
X76580000Y-24209500D01*
G36*
X76580000Y-24209500D02*
G01*
X75738000Y-24209500D01*
X75738000Y-21887500D01*
X76580000Y-21887500D01*
X76580000Y-24209500D01*
G37*
X76580000Y-26939500D02*
X75738000Y-26939500D01*
X75738000Y-24617500D01*
X76580000Y-24617500D01*
X76580000Y-26939500D01*
G36*
X76580000Y-26939500D02*
G01*
X75738000Y-26939500D01*
X75738000Y-24617500D01*
X76580000Y-24617500D01*
X76580000Y-26939500D01*
G37*
X77850000Y-24209500D02*
X77008000Y-24209500D01*
X77008000Y-21887500D01*
X77850000Y-21887500D01*
X77850000Y-24209500D01*
G36*
X77850000Y-24209500D02*
G01*
X77008000Y-24209500D01*
X77008000Y-21887500D01*
X77850000Y-21887500D01*
X77850000Y-24209500D01*
G37*
X77850000Y-26939500D02*
X77008000Y-26939500D01*
X77008000Y-24617500D01*
X77850000Y-24617500D01*
X77850000Y-26939500D01*
G36*
X77850000Y-26939500D02*
G01*
X77008000Y-26939500D01*
X77008000Y-24617500D01*
X77850000Y-24617500D01*
X77850000Y-26939500D01*
G37*
X79120000Y-24209500D02*
X78278000Y-24209500D01*
X78278000Y-21887500D01*
X79120000Y-21887500D01*
X79120000Y-24209500D01*
G36*
X79120000Y-24209500D02*
G01*
X78278000Y-24209500D01*
X78278000Y-21887500D01*
X79120000Y-21887500D01*
X79120000Y-24209500D01*
G37*
X79120000Y-26939500D02*
X78278000Y-26939500D01*
X78278000Y-24617500D01*
X79120000Y-24617500D01*
X79120000Y-26939500D01*
G36*
X79120000Y-26939500D02*
G01*
X78278000Y-26939500D01*
X78278000Y-24617500D01*
X79120000Y-24617500D01*
X79120000Y-26939500D01*
G37*
X80390000Y-24209500D02*
X79548000Y-24209500D01*
X79548000Y-21887500D01*
X80390000Y-21887500D01*
X80390000Y-24209500D01*
G36*
X80390000Y-24209500D02*
G01*
X79548000Y-24209500D01*
X79548000Y-21887500D01*
X80390000Y-21887500D01*
X80390000Y-24209500D01*
G37*
X80390000Y-26939500D02*
X79548000Y-26939500D01*
X79548000Y-24617500D01*
X80390000Y-24617500D01*
X80390000Y-26939500D01*
G36*
X80390000Y-26939500D02*
G01*
X79548000Y-26939500D01*
X79548000Y-24617500D01*
X80390000Y-24617500D01*
X80390000Y-26939500D01*
G37*
X81660000Y-24209500D02*
X80818000Y-24209500D01*
X80818000Y-21887500D01*
X81660000Y-21887500D01*
X81660000Y-24209500D01*
G36*
X81660000Y-24209500D02*
G01*
X80818000Y-24209500D01*
X80818000Y-21887500D01*
X81660000Y-21887500D01*
X81660000Y-24209500D01*
G37*
X81660000Y-26939500D02*
X80818000Y-26939500D01*
X80818000Y-24617500D01*
X81660000Y-24617500D01*
X81660000Y-26939500D01*
G36*
X81660000Y-26939500D02*
G01*
X80818000Y-26939500D01*
X80818000Y-24617500D01*
X81660000Y-24617500D01*
X81660000Y-26939500D01*
G37*
X82930000Y-24209500D02*
X82088000Y-24209500D01*
X82088000Y-21887500D01*
X82930000Y-21887500D01*
X82930000Y-24209500D01*
G36*
X82930000Y-24209500D02*
G01*
X82088000Y-24209500D01*
X82088000Y-21887500D01*
X82930000Y-21887500D01*
X82930000Y-24209500D01*
G37*
X82930000Y-26939500D02*
X82088000Y-26939500D01*
X82088000Y-24617500D01*
X82930000Y-24617500D01*
X82930000Y-26939500D01*
G36*
X82930000Y-26939500D02*
G01*
X82088000Y-26939500D01*
X82088000Y-24617500D01*
X82930000Y-24617500D01*
X82930000Y-26939500D01*
G37*
X84200000Y-24209500D02*
X83358000Y-24209500D01*
X83358000Y-21887500D01*
X84200000Y-21887500D01*
X84200000Y-24209500D01*
G36*
X84200000Y-24209500D02*
G01*
X83358000Y-24209500D01*
X83358000Y-21887500D01*
X84200000Y-21887500D01*
X84200000Y-24209500D01*
G37*
X84200000Y-26939500D02*
X83358000Y-26939500D01*
X83358000Y-24617500D01*
X84200000Y-24617500D01*
X84200000Y-26939500D01*
G36*
X84200000Y-26939500D02*
G01*
X83358000Y-26939500D01*
X83358000Y-24617500D01*
X84200000Y-24617500D01*
X84200000Y-26939500D01*
G37*
X85470000Y-24209500D02*
X84628000Y-24209500D01*
X84628000Y-21887500D01*
X85470000Y-21887500D01*
X85470000Y-24209500D01*
G36*
X85470000Y-24209500D02*
G01*
X84628000Y-24209500D01*
X84628000Y-21887500D01*
X85470000Y-21887500D01*
X85470000Y-24209500D01*
G37*
X85470000Y-26939500D02*
X84628000Y-26939500D01*
X84628000Y-24617500D01*
X85470000Y-24617500D01*
X85470000Y-26939500D01*
G36*
X85470000Y-26939500D02*
G01*
X84628000Y-26939500D01*
X84628000Y-24617500D01*
X85470000Y-24617500D01*
X85470000Y-26939500D01*
G37*
X86740000Y-24209500D02*
X85898000Y-24209500D01*
X85898000Y-21887500D01*
X86740000Y-21887500D01*
X86740000Y-24209500D01*
G36*
X86740000Y-24209500D02*
G01*
X85898000Y-24209500D01*
X85898000Y-21887500D01*
X86740000Y-21887500D01*
X86740000Y-24209500D01*
G37*
X86740000Y-26939500D02*
X85898000Y-26939500D01*
X85898000Y-24617500D01*
X86740000Y-24617500D01*
X86740000Y-26939500D01*
G36*
X86740000Y-26939500D02*
G01*
X85898000Y-26939500D01*
X85898000Y-24617500D01*
X86740000Y-24617500D01*
X86740000Y-26939500D01*
G37*
X88010000Y-24209500D02*
X87168000Y-24209500D01*
X87168000Y-21887500D01*
X88010000Y-21887500D01*
X88010000Y-24209500D01*
G36*
X88010000Y-24209500D02*
G01*
X87168000Y-24209500D01*
X87168000Y-21887500D01*
X88010000Y-21887500D01*
X88010000Y-24209500D01*
G37*
X88010000Y-26939500D02*
X87168000Y-26939500D01*
X87168000Y-24617500D01*
X88010000Y-24617500D01*
X88010000Y-26939500D01*
G36*
X88010000Y-26939500D02*
G01*
X87168000Y-26939500D01*
X87168000Y-24617500D01*
X88010000Y-24617500D01*
X88010000Y-26939500D01*
G37*
%TD*%
D12*
%TO.C,REF\u002A\u002A*%
X98515000Y-25000000D03*
X99108109Y-23568109D03*
X99108109Y-26431891D03*
X100540000Y-22975000D03*
D13*
X100540000Y-25000000D03*
D12*
X100540000Y-27025000D03*
X101971891Y-23568109D03*
X101971891Y-26431891D03*
X102565000Y-25000000D03*
%TD*%
%TO.C,REF\u002A\u002A*%
X22975000Y-25000000D03*
X23568109Y-23568109D03*
X23568109Y-26431891D03*
X25000000Y-22975000D03*
D13*
X25000000Y-25000000D03*
D12*
X25000000Y-27025000D03*
X26431891Y-23568109D03*
X26431891Y-26431891D03*
X27025000Y-25000000D03*
%TD*%
D14*
%TO.C,J7*%
X96150000Y-28225000D03*
D15*
X93610000Y-28225000D03*
X91070000Y-28225000D03*
%TD*%
D16*
%TO.C,J2*%
X36515000Y-24413500D03*
X51125000Y-24413500D03*
D17*
X49535000Y-23048500D03*
X49535000Y-25778500D03*
X48265000Y-23048500D03*
X48265000Y-25778500D03*
X46995000Y-23048500D03*
X46995000Y-25778500D03*
X45725000Y-23048500D03*
X45725000Y-25778500D03*
X44455000Y-23048500D03*
X44455000Y-25778500D03*
X43185000Y-23048500D03*
X43185000Y-25778500D03*
X41915000Y-23048500D03*
X41915000Y-25778500D03*
X40645000Y-23048500D03*
X40645000Y-25778500D03*
X39375000Y-23048500D03*
X39375000Y-25778500D03*
X38105000Y-23048500D03*
X38105000Y-25778500D03*
%TD*%
D18*
%TO.C,J4*%
X61872000Y-24413500D03*
X89176000Y-24413500D03*
%TD*%
M02*
