%TF.GenerationSoftware,KiCad,Pcbnew,9.0.7*%
%TF.CreationDate,2026-03-24T12:36:22-07:00*%
%TF.ProjectId,hadron_io_breakouts,68616472-6f6e-45f6-996f-5f627265616b,rev?*%
%TF.SameCoordinates,Original*%
%TF.FileFunction,Paste,Top*%
%TF.FilePolarity,Positive*%
%FSLAX46Y46*%
G04 Gerber Fmt 4.6, Leading zero omitted, Abs format (unit mm)*
G04 Created by KiCad (PCBNEW 9.0.7) date 2026-03-24 12:36:22*
%MOMM*%
%LPD*%
G01*
G04 APERTURE LIST*
G04 Aperture macros list*
%AMRoundRect*
0 Rectangle with rounded corners*
0 $1 Rounding radius*
0 $2 $3 $4 $5 $6 $7 $8 $9 X,Y pos of 4 corners*
0 Add a 4 corners polygon primitive as box body*
4,1,4,$2,$3,$4,$5,$6,$7,$8,$9,$2,$3,0*
0 Add four circle primitives for the rounded corners*
1,1,$1+$1,$2,$3*
1,1,$1+$1,$4,$5*
1,1,$1+$1,$6,$7*
1,1,$1+$1,$8,$9*
0 Add four rect primitives between the rounded corners*
20,1,$1+$1,$2,$3,$4,$5,0*
20,1,$1+$1,$4,$5,$6,$7,0*
20,1,$1+$1,$6,$7,$8,$9,0*
20,1,$1+$1,$8,$9,$2,$3,0*%
G04 Aperture macros list end*
%ADD10R,1.092200X2.895600*%
%ADD11R,0.660400X1.701800*%
%ADD12RoundRect,0.250000X0.450000X-0.262500X0.450000X0.262500X-0.450000X0.262500X-0.450000X-0.262500X0*%
%ADD13RoundRect,0.250000X-0.262500X-0.450000X0.262500X-0.450000X0.262500X0.450000X-0.262500X0.450000X0*%
%ADD14RoundRect,0.250000X0.262500X0.450000X-0.262500X0.450000X-0.262500X-0.450000X0.262500X-0.450000X0*%
%ADD15R,0.600000X1.700000*%
%ADD16R,1.000000X2.800000*%
%ADD17R,0.300000X1.800000*%
G04 APERTURE END LIST*
D10*
%TO.C,J6*%
X74800000Y-37708574D03*
X65600000Y-37733340D03*
D11*
X73700000Y-32100000D03*
X72700000Y-32100000D03*
X71699999Y-32100000D03*
X70700001Y-32100000D03*
X69700000Y-32100000D03*
X68700000Y-32100000D03*
X67700000Y-32100000D03*
X66700000Y-32100000D03*
%TD*%
D12*
%TO.C,R4*%
X74325000Y-29912500D03*
X74325000Y-28087500D03*
%TD*%
%TO.C,R3*%
X72175000Y-29912500D03*
X72175000Y-28087500D03*
%TD*%
D13*
%TO.C,R1*%
X66537500Y-28725000D03*
X68362500Y-28725000D03*
%TD*%
D12*
%TO.C,R7*%
X66700000Y-24137500D03*
X66700000Y-22312500D03*
%TD*%
%TO.C,R8*%
X64750000Y-24187500D03*
X64750000Y-22362500D03*
%TD*%
D14*
%TO.C,R5*%
X68250000Y-26150000D03*
X66425000Y-26150000D03*
%TD*%
D15*
%TO.C,J5*%
X81800000Y-32550000D03*
X82800000Y-32550000D03*
X83800000Y-32550000D03*
X84800000Y-32550000D03*
D16*
X80700000Y-37700000D03*
X85900000Y-37700000D03*
%TD*%
D17*
%TO.C,J3*%
X55320000Y-33240000D03*
X54820000Y-35940000D03*
X54320000Y-33240000D03*
X53820000Y-35940000D03*
X53320000Y-33240000D03*
X52820000Y-35940000D03*
X52320000Y-33240000D03*
X51820000Y-35940000D03*
X51320000Y-33240000D03*
X50820000Y-35940000D03*
X50320000Y-33240000D03*
X49820000Y-35940000D03*
X49320000Y-33240000D03*
X48820000Y-35940000D03*
X48320000Y-33240000D03*
X47820000Y-35940000D03*
X47320000Y-33240000D03*
X46820000Y-35940000D03*
X56320000Y-33240000D03*
X56320000Y-35940000D03*
X45820000Y-35940000D03*
X45820000Y-33240000D03*
%TD*%
D13*
%TO.C,R6*%
X62875000Y-26150000D03*
X64700000Y-26150000D03*
%TD*%
D14*
%TO.C,R2*%
X64812500Y-28730000D03*
X62987500Y-28730000D03*
%TD*%
D17*
%TO.C,J1*%
X40820000Y-33240000D03*
X40320000Y-35940000D03*
X39820000Y-33240000D03*
X39320000Y-35940000D03*
X38820000Y-33240000D03*
X38320000Y-35940000D03*
X37820000Y-33240000D03*
X37320000Y-35940000D03*
X36820000Y-33240000D03*
X36320000Y-35940000D03*
X35820000Y-33240000D03*
X35320000Y-35940000D03*
X34820000Y-33240000D03*
X34320000Y-35940000D03*
X33820000Y-33240000D03*
X33320000Y-35940000D03*
X32820000Y-33240000D03*
X32320000Y-35940000D03*
X41820000Y-33240000D03*
X41820000Y-35940000D03*
X31320000Y-35940000D03*
X31320000Y-33240000D03*
%TD*%
M02*
