%TF.GenerationSoftware,KiCad,Pcbnew,8.0.4*%
%TF.CreationDate,2024-11-07T09:22:51-08:00*%
%TF.ProjectId,hadron_io_breakouts,68616472-6f6e-45f6-996f-5f627265616b,rev?*%
%TF.SameCoordinates,Original*%
%TF.FileFunction,Copper,L3,Inr*%
%TF.FilePolarity,Positive*%
%FSLAX46Y46*%
G04 Gerber Fmt 4.6, Leading zero omitted, Abs format (unit mm)*
G04 Created by KiCad (PCBNEW 8.0.4) date 2024-11-07 09:22:51*
%MOMM*%
%LPD*%
G01*
G04 APERTURE LIST*
%TA.AperFunction,ComponentPad*%
%ADD10C,0.800000*%
%TD*%
%TA.AperFunction,ComponentPad*%
%ADD11C,5.400000*%
%TD*%
%TA.AperFunction,ComponentPad*%
%ADD12R,1.700000X1.700000*%
%TD*%
%TA.AperFunction,ComponentPad*%
%ADD13O,1.700000X1.700000*%
%TD*%
%TA.AperFunction,ViaPad*%
%ADD14C,0.600000*%
%TD*%
G04 APERTURE END LIST*
D10*
%TO.N,N/C*%
%TO.C,REF\u002A\u002A*%
X98515000Y-25000000D03*
X99108109Y-23568109D03*
X99108109Y-26431891D03*
X100540000Y-22975000D03*
D11*
X100540000Y-25000000D03*
D10*
X100540000Y-27025000D03*
X101971891Y-23568109D03*
X101971891Y-26431891D03*
X102565000Y-25000000D03*
%TD*%
%TO.N,N/C*%
%TO.C,REF\u002A\u002A*%
X22975000Y-25000000D03*
X23568109Y-23568109D03*
X23568109Y-26431891D03*
X25000000Y-22975000D03*
D11*
X25000000Y-25000000D03*
D10*
X25000000Y-27025000D03*
X26431891Y-23568109D03*
X26431891Y-26431891D03*
X27025000Y-25000000D03*
%TD*%
D12*
%TO.N,SBC_Debug-Rx*%
%TO.C,J7*%
X96150000Y-28225000D03*
D13*
%TO.N,SBC_Debug-Tx*%
X93610000Y-28225000D03*
%TO.N,GND*%
X91070000Y-28225000D03*
%TD*%
D14*
%TO.N,GND*%
X51250000Y-27350000D03*
X44350000Y-30125000D03*
X36975000Y-29125000D03*
X47450000Y-34625000D03*
X53475000Y-26125000D03*
X53450000Y-29200000D03*
X59600000Y-21350000D03*
X30050000Y-38350000D03*
X30025000Y-33875000D03*
X30050000Y-30125000D03*
X30050000Y-26200000D03*
X30050000Y-21675000D03*
%TO.N,USB1 VBUS*%
X39050000Y-27400000D03*
%TO.N,GND*%
X42150000Y-37650000D03*
X50975000Y-22350000D03*
X51100000Y-37625000D03*
X67269000Y-21006000D03*
X46975000Y-29050735D03*
X41900000Y-21450000D03*
X43185754Y-27446415D03*
X71050000Y-21400000D03*
X66700000Y-33475000D03*
X72700000Y-33475000D03*
X68700000Y-33475000D03*
X63459000Y-21400000D03*
X70700000Y-33475000D03*
X87575000Y-27425000D03*
X58100000Y-37700000D03*
X65750000Y-29925000D03*
X35150000Y-37750000D03*
X38100000Y-27300000D03*
X45725000Y-21450000D03*
%TO.N,USB0 VBUS*%
X59625000Y-30575000D03*
%TO.N,SBC_RS232-1-Rx*%
X81275000Y-27400000D03*
%TO.N,SBC_RS232-0-Tx*%
X76100000Y-21400000D03*
%TO.N,SBC_RS232-0-Rx*%
X77425000Y-21375000D03*
%TO.N,SBC_RS232-1-Tx*%
X79961765Y-27438235D03*
%TO.N,Net-(J4-Pad5)*%
X75600000Y-28050000D03*
%TO.N,Net-(J4-Pad3)*%
X70850000Y-28775000D03*
%TO.N,Net-(J4-Pad4)*%
X64725000Y-21250000D03*
%TO.N,Net-(J4-Pad6)*%
X65999000Y-21226000D03*
%TO.N,3.3v*%
X65675000Y-27425000D03*
X69825000Y-21400000D03*
%TD*%
%TA.AperFunction,Conductor*%
%TO.N,3.3v*%
G36*
X102830394Y-20100972D02*
G01*
X102860721Y-20103625D01*
X102987755Y-20114739D01*
X103009035Y-20118491D01*
X103105195Y-20144257D01*
X103156369Y-20157969D01*
X103176681Y-20165362D01*
X103314915Y-20229822D01*
X103333633Y-20240629D01*
X103458582Y-20328119D01*
X103475140Y-20342013D01*
X103582986Y-20449859D01*
X103596880Y-20466417D01*
X103684370Y-20591366D01*
X103695177Y-20610084D01*
X103759637Y-20748318D01*
X103767030Y-20768630D01*
X103806507Y-20915961D01*
X103810260Y-20937246D01*
X103824028Y-21094605D01*
X103824500Y-21105413D01*
X103824500Y-23961399D01*
X103804815Y-24028438D01*
X103752011Y-24074193D01*
X103682853Y-24084137D01*
X103619297Y-24055112D01*
X103581523Y-23996334D01*
X103581346Y-23995726D01*
X103574149Y-23970745D01*
X103565659Y-23941276D01*
X103428094Y-23609167D01*
X103254211Y-23294548D01*
X103046194Y-23001377D01*
X102806661Y-22733339D01*
X102538623Y-22493806D01*
X102538622Y-22493805D01*
X102245454Y-22285790D01*
X101974028Y-22135779D01*
X101930833Y-22111906D01*
X101903994Y-22100789D01*
X101844086Y-22075974D01*
X101598724Y-21974341D01*
X101598720Y-21974339D01*
X101598718Y-21974339D01*
X101253305Y-21874828D01*
X101253296Y-21874826D01*
X100898914Y-21814614D01*
X100898902Y-21814612D01*
X100540000Y-21794457D01*
X100181097Y-21814612D01*
X100181085Y-21814614D01*
X99826703Y-21874826D01*
X99826694Y-21874828D01*
X99481281Y-21974339D01*
X99149168Y-22111905D01*
X98834545Y-22285790D01*
X98541377Y-22493805D01*
X98273339Y-22733339D01*
X98033805Y-23001377D01*
X97825790Y-23294545D01*
X97651905Y-23609168D01*
X97514339Y-23941281D01*
X97414828Y-24286694D01*
X97414826Y-24286703D01*
X97354614Y-24641085D01*
X97354612Y-24641097D01*
X97334457Y-25000000D01*
X97354612Y-25358902D01*
X97354614Y-25358914D01*
X97414826Y-25713296D01*
X97414828Y-25713305D01*
X97514339Y-26058718D01*
X97651905Y-26390831D01*
X97825790Y-26705454D01*
X97989353Y-26935973D01*
X98033806Y-26998623D01*
X98273339Y-27266661D01*
X98465331Y-27438235D01*
X98541377Y-27506194D01*
X98649318Y-27582783D01*
X98834548Y-27714211D01*
X99149167Y-27888094D01*
X99481276Y-28025659D01*
X99826700Y-28125173D01*
X100181093Y-28185387D01*
X100540000Y-28205543D01*
X100898907Y-28185387D01*
X101253300Y-28125173D01*
X101598724Y-28025659D01*
X101930833Y-27888094D01*
X102245452Y-27714211D01*
X102538623Y-27506194D01*
X102806661Y-27266661D01*
X103046194Y-26998623D01*
X103254211Y-26705452D01*
X103428094Y-26390833D01*
X103565659Y-26058724D01*
X103581346Y-26004273D01*
X103618820Y-25945303D01*
X103682226Y-25915954D01*
X103751435Y-25925544D01*
X103804472Y-25971029D01*
X103824498Y-26037967D01*
X103824500Y-26038600D01*
X103824500Y-38494586D01*
X103824028Y-38505394D01*
X103810260Y-38662753D01*
X103806507Y-38684038D01*
X103767030Y-38831369D01*
X103759637Y-38851681D01*
X103695177Y-38989915D01*
X103684370Y-39008633D01*
X103596880Y-39133582D01*
X103582986Y-39150140D01*
X103475140Y-39257986D01*
X103458582Y-39271880D01*
X103333633Y-39359370D01*
X103314915Y-39370177D01*
X103176681Y-39434637D01*
X103156369Y-39442030D01*
X103009038Y-39481507D01*
X102987753Y-39485260D01*
X102830395Y-39499028D01*
X102819587Y-39499500D01*
X62999000Y-39499500D01*
X62931961Y-39479815D01*
X62886206Y-39427011D01*
X62875000Y-39375500D01*
X62875000Y-33474996D01*
X65894435Y-33474996D01*
X65894435Y-33475003D01*
X65914630Y-33654249D01*
X65914631Y-33654254D01*
X65974211Y-33824523D01*
X66070184Y-33977262D01*
X66197738Y-34104816D01*
X66350478Y-34200789D01*
X66520745Y-34260368D01*
X66520750Y-34260369D01*
X66699996Y-34280565D01*
X66700000Y-34280565D01*
X66700004Y-34280565D01*
X66879249Y-34260369D01*
X66879252Y-34260368D01*
X66879255Y-34260368D01*
X67049522Y-34200789D01*
X67202262Y-34104816D01*
X67329816Y-33977262D01*
X67425789Y-33824522D01*
X67485368Y-33654255D01*
X67505565Y-33475000D01*
X67505565Y-33474996D01*
X67894435Y-33474996D01*
X67894435Y-33475003D01*
X67914630Y-33654249D01*
X67914631Y-33654254D01*
X67974211Y-33824523D01*
X68070184Y-33977262D01*
X68197738Y-34104816D01*
X68350478Y-34200789D01*
X68520745Y-34260368D01*
X68520750Y-34260369D01*
X68699996Y-34280565D01*
X68700000Y-34280565D01*
X68700004Y-34280565D01*
X68879249Y-34260369D01*
X68879252Y-34260368D01*
X68879255Y-34260368D01*
X69049522Y-34200789D01*
X69202262Y-34104816D01*
X69329816Y-33977262D01*
X69425789Y-33824522D01*
X69485368Y-33654255D01*
X69505565Y-33475000D01*
X69505565Y-33474996D01*
X69894435Y-33474996D01*
X69894435Y-33475003D01*
X69914630Y-33654249D01*
X69914631Y-33654254D01*
X69974211Y-33824523D01*
X70070184Y-33977262D01*
X70197738Y-34104816D01*
X70350478Y-34200789D01*
X70520745Y-34260368D01*
X70520750Y-34260369D01*
X70699996Y-34280565D01*
X70700000Y-34280565D01*
X70700004Y-34280565D01*
X70879249Y-34260369D01*
X70879252Y-34260368D01*
X70879255Y-34260368D01*
X71049522Y-34200789D01*
X71202262Y-34104816D01*
X71329816Y-33977262D01*
X71425789Y-33824522D01*
X71485368Y-33654255D01*
X71505565Y-33475000D01*
X71505565Y-33474996D01*
X71894435Y-33474996D01*
X71894435Y-33475003D01*
X71914630Y-33654249D01*
X71914631Y-33654254D01*
X71974211Y-33824523D01*
X72070184Y-33977262D01*
X72197738Y-34104816D01*
X72350478Y-34200789D01*
X72520745Y-34260368D01*
X72520750Y-34260369D01*
X72699996Y-34280565D01*
X72700000Y-34280565D01*
X72700004Y-34280565D01*
X72879249Y-34260369D01*
X72879252Y-34260368D01*
X72879255Y-34260368D01*
X73049522Y-34200789D01*
X73202262Y-34104816D01*
X73329816Y-33977262D01*
X73425789Y-33824522D01*
X73485368Y-33654255D01*
X73505565Y-33475000D01*
X73485368Y-33295745D01*
X73425789Y-33125478D01*
X73329816Y-32972738D01*
X73202262Y-32845184D01*
X73049523Y-32749211D01*
X72879254Y-32689631D01*
X72879249Y-32689630D01*
X72700004Y-32669435D01*
X72699996Y-32669435D01*
X72520750Y-32689630D01*
X72520745Y-32689631D01*
X72350476Y-32749211D01*
X72197737Y-32845184D01*
X72070184Y-32972737D01*
X71974211Y-33125476D01*
X71914631Y-33295745D01*
X71914630Y-33295750D01*
X71894435Y-33474996D01*
X71505565Y-33474996D01*
X71485368Y-33295745D01*
X71425789Y-33125478D01*
X71329816Y-32972738D01*
X71202262Y-32845184D01*
X71049523Y-32749211D01*
X70879254Y-32689631D01*
X70879249Y-32689630D01*
X70700004Y-32669435D01*
X70699996Y-32669435D01*
X70520750Y-32689630D01*
X70520745Y-32689631D01*
X70350476Y-32749211D01*
X70197737Y-32845184D01*
X70070184Y-32972737D01*
X69974211Y-33125476D01*
X69914631Y-33295745D01*
X69914630Y-33295750D01*
X69894435Y-33474996D01*
X69505565Y-33474996D01*
X69485368Y-33295745D01*
X69425789Y-33125478D01*
X69329816Y-32972738D01*
X69202262Y-32845184D01*
X69049523Y-32749211D01*
X68879254Y-32689631D01*
X68879249Y-32689630D01*
X68700004Y-32669435D01*
X68699996Y-32669435D01*
X68520750Y-32689630D01*
X68520745Y-32689631D01*
X68350476Y-32749211D01*
X68197737Y-32845184D01*
X68070184Y-32972737D01*
X67974211Y-33125476D01*
X67914631Y-33295745D01*
X67914630Y-33295750D01*
X67894435Y-33474996D01*
X67505565Y-33474996D01*
X67485368Y-33295745D01*
X67425789Y-33125478D01*
X67329816Y-32972738D01*
X67202262Y-32845184D01*
X67049523Y-32749211D01*
X66879254Y-32689631D01*
X66879249Y-32689630D01*
X66700004Y-32669435D01*
X66699996Y-32669435D01*
X66520750Y-32689630D01*
X66520745Y-32689631D01*
X66350476Y-32749211D01*
X66197737Y-32845184D01*
X66070184Y-32972737D01*
X65974211Y-33125476D01*
X65914631Y-33295745D01*
X65914630Y-33295750D01*
X65894435Y-33474996D01*
X62875000Y-33474996D01*
X62875000Y-29924996D01*
X64944435Y-29924996D01*
X64944435Y-29925003D01*
X64964630Y-30104249D01*
X64964631Y-30104254D01*
X65024211Y-30274523D01*
X65120184Y-30427262D01*
X65247738Y-30554816D01*
X65400478Y-30650789D01*
X65570745Y-30710368D01*
X65570750Y-30710369D01*
X65749996Y-30730565D01*
X65750000Y-30730565D01*
X65750004Y-30730565D01*
X65929249Y-30710369D01*
X65929252Y-30710368D01*
X65929255Y-30710368D01*
X66099522Y-30650789D01*
X66252262Y-30554816D01*
X66379816Y-30427262D01*
X66475789Y-30274522D01*
X66535368Y-30104255D01*
X66555565Y-29925000D01*
X66535368Y-29745745D01*
X66475789Y-29575478D01*
X66466295Y-29560369D01*
X66385979Y-29432547D01*
X66379816Y-29422738D01*
X66252262Y-29295184D01*
X66099523Y-29199211D01*
X65929254Y-29139631D01*
X65929249Y-29139630D01*
X65750004Y-29119435D01*
X65749996Y-29119435D01*
X65570750Y-29139630D01*
X65570745Y-29139631D01*
X65400476Y-29199211D01*
X65247737Y-29295184D01*
X65120184Y-29422737D01*
X65024211Y-29575476D01*
X64964631Y-29745745D01*
X64964630Y-29745750D01*
X64944435Y-29924996D01*
X62875000Y-29924996D01*
X62875000Y-28774996D01*
X70044435Y-28774996D01*
X70044435Y-28775003D01*
X70064630Y-28954249D01*
X70064631Y-28954254D01*
X70124211Y-29124523D01*
X70160630Y-29182483D01*
X70220184Y-29277262D01*
X70347738Y-29404816D01*
X70376259Y-29422737D01*
X70497479Y-29498905D01*
X70500478Y-29500789D01*
X70669868Y-29560061D01*
X70670745Y-29560368D01*
X70670750Y-29560369D01*
X70849996Y-29580565D01*
X70850000Y-29580565D01*
X70850004Y-29580565D01*
X71029249Y-29560369D01*
X71029252Y-29560368D01*
X71029255Y-29560368D01*
X71199522Y-29500789D01*
X71352262Y-29404816D01*
X71479816Y-29277262D01*
X71575789Y-29124522D01*
X71635368Y-28954255D01*
X71635369Y-28954249D01*
X71655565Y-28775003D01*
X71655565Y-28774996D01*
X71635369Y-28595750D01*
X71635368Y-28595745D01*
X71588013Y-28460413D01*
X71575789Y-28425478D01*
X71559480Y-28399523D01*
X71479815Y-28272737D01*
X71352262Y-28145184D01*
X71200772Y-28049996D01*
X74794435Y-28049996D01*
X74794435Y-28050003D01*
X74814630Y-28229249D01*
X74814631Y-28229254D01*
X74874211Y-28399523D01*
X74890520Y-28425478D01*
X74970184Y-28552262D01*
X75097738Y-28679816D01*
X75250478Y-28775789D01*
X75420745Y-28835368D01*
X75420750Y-28835369D01*
X75599996Y-28855565D01*
X75600000Y-28855565D01*
X75600004Y-28855565D01*
X75779249Y-28835369D01*
X75779252Y-28835368D01*
X75779255Y-28835368D01*
X75949522Y-28775789D01*
X76102262Y-28679816D01*
X76229816Y-28552262D01*
X76325789Y-28399522D01*
X76385368Y-28229255D01*
X76385369Y-28229249D01*
X76405565Y-28050003D01*
X76405565Y-28049996D01*
X76385369Y-27870750D01*
X76385368Y-27870745D01*
X76325789Y-27700478D01*
X76229816Y-27547738D01*
X76120309Y-27438231D01*
X79156200Y-27438231D01*
X79156200Y-27438238D01*
X79176395Y-27617484D01*
X79176396Y-27617489D01*
X79235976Y-27787758D01*
X79288121Y-27870745D01*
X79331949Y-27940497D01*
X79459503Y-28068051D01*
X79549845Y-28124817D01*
X79591179Y-28150789D01*
X79612243Y-28164024D01*
X79782510Y-28223603D01*
X79782515Y-28223604D01*
X79961761Y-28243800D01*
X79961765Y-28243800D01*
X79961769Y-28243800D01*
X80141014Y-28223604D01*
X80141017Y-28223603D01*
X80141020Y-28223603D01*
X80311287Y-28164024D01*
X80464027Y-28068051D01*
X80549819Y-27982259D01*
X80611142Y-27948774D01*
X80680834Y-27953758D01*
X80725181Y-27982259D01*
X80772738Y-28029816D01*
X80833587Y-28068050D01*
X80924497Y-28125173D01*
X80925478Y-28125789D01*
X81095745Y-28185368D01*
X81095750Y-28185369D01*
X81274996Y-28205565D01*
X81275000Y-28205565D01*
X81275004Y-28205565D01*
X81454249Y-28185369D01*
X81454252Y-28185368D01*
X81454255Y-28185368D01*
X81624522Y-28125789D01*
X81777262Y-28029816D01*
X81904816Y-27902262D01*
X82000789Y-27749522D01*
X82060368Y-27579255D01*
X82063919Y-27547738D01*
X82077749Y-27424996D01*
X86769435Y-27424996D01*
X86769435Y-27425003D01*
X86789630Y-27604249D01*
X86789631Y-27604254D01*
X86849211Y-27774523D01*
X86909672Y-27870745D01*
X86945184Y-27927262D01*
X87072738Y-28054816D01*
X87163080Y-28111582D01*
X87216557Y-28145184D01*
X87225478Y-28150789D01*
X87381953Y-28205542D01*
X87395745Y-28210368D01*
X87395750Y-28210369D01*
X87574996Y-28230565D01*
X87575000Y-28230565D01*
X87575004Y-28230565D01*
X87624404Y-28224999D01*
X89714341Y-28224999D01*
X89714341Y-28225000D01*
X89734936Y-28460403D01*
X89734938Y-28460413D01*
X89796094Y-28688655D01*
X89796096Y-28688659D01*
X89796097Y-28688663D01*
X89800000Y-28697032D01*
X89895965Y-28902830D01*
X89895967Y-28902834D01*
X89931973Y-28954255D01*
X90031505Y-29096401D01*
X90198599Y-29263495D01*
X90295384Y-29331265D01*
X90392165Y-29399032D01*
X90392167Y-29399033D01*
X90392170Y-29399035D01*
X90606337Y-29498903D01*
X90606343Y-29498904D01*
X90606344Y-29498905D01*
X90661285Y-29513626D01*
X90834592Y-29560063D01*
X91011034Y-29575500D01*
X91069999Y-29580659D01*
X91070000Y-29580659D01*
X91070001Y-29580659D01*
X91128966Y-29575500D01*
X91305408Y-29560063D01*
X91533663Y-29498903D01*
X91747830Y-29399035D01*
X91941401Y-29263495D01*
X92108495Y-29096401D01*
X92238425Y-28910842D01*
X92293002Y-28867217D01*
X92362500Y-28860023D01*
X92424855Y-28891546D01*
X92441575Y-28910842D01*
X92571500Y-29096395D01*
X92571505Y-29096401D01*
X92738599Y-29263495D01*
X92835384Y-29331265D01*
X92932165Y-29399032D01*
X92932167Y-29399033D01*
X92932170Y-29399035D01*
X93146337Y-29498903D01*
X93146343Y-29498904D01*
X93146344Y-29498905D01*
X93201285Y-29513626D01*
X93374592Y-29560063D01*
X93551034Y-29575500D01*
X93609999Y-29580659D01*
X93610000Y-29580659D01*
X93610001Y-29580659D01*
X93668966Y-29575500D01*
X93845408Y-29560063D01*
X94073663Y-29498903D01*
X94287830Y-29399035D01*
X94481401Y-29263495D01*
X94603329Y-29141566D01*
X94664648Y-29108084D01*
X94734340Y-29113068D01*
X94790274Y-29154939D01*
X94807189Y-29185917D01*
X94856202Y-29317328D01*
X94856206Y-29317335D01*
X94942452Y-29432544D01*
X94942455Y-29432547D01*
X95057664Y-29518793D01*
X95057671Y-29518797D01*
X95192517Y-29569091D01*
X95192516Y-29569091D01*
X95199444Y-29569835D01*
X95252127Y-29575500D01*
X97047872Y-29575499D01*
X97107483Y-29569091D01*
X97242331Y-29518796D01*
X97357546Y-29432546D01*
X97443796Y-29317331D01*
X97494091Y-29182483D01*
X97500500Y-29122873D01*
X97500499Y-27327128D01*
X97494091Y-27267517D01*
X97493771Y-27266660D01*
X97443797Y-27132671D01*
X97443793Y-27132664D01*
X97357547Y-27017455D01*
X97357544Y-27017452D01*
X97242335Y-26931206D01*
X97242328Y-26931202D01*
X97107482Y-26880908D01*
X97107483Y-26880908D01*
X97047883Y-26874501D01*
X97047881Y-26874500D01*
X97047873Y-26874500D01*
X97047864Y-26874500D01*
X95252129Y-26874500D01*
X95252123Y-26874501D01*
X95192516Y-26880908D01*
X95057671Y-26931202D01*
X95057664Y-26931206D01*
X94942455Y-27017452D01*
X94942452Y-27017455D01*
X94856206Y-27132664D01*
X94856203Y-27132669D01*
X94807189Y-27264083D01*
X94765317Y-27320016D01*
X94699853Y-27344433D01*
X94631580Y-27329581D01*
X94603326Y-27308430D01*
X94481402Y-27186506D01*
X94481395Y-27186501D01*
X94287834Y-27050967D01*
X94287830Y-27050965D01*
X94286781Y-27050476D01*
X94073663Y-26951097D01*
X94073659Y-26951096D01*
X94073655Y-26951094D01*
X93845413Y-26889938D01*
X93845403Y-26889936D01*
X93610001Y-26869341D01*
X93609999Y-26869341D01*
X93374596Y-26889936D01*
X93374586Y-26889938D01*
X93146344Y-26951094D01*
X93146335Y-26951098D01*
X92932171Y-27050964D01*
X92932169Y-27050965D01*
X92738597Y-27186505D01*
X92571505Y-27353597D01*
X92441575Y-27539158D01*
X92386998Y-27582783D01*
X92317500Y-27589977D01*
X92255145Y-27558454D01*
X92238425Y-27539158D01*
X92108494Y-27353597D01*
X91941402Y-27186506D01*
X91941395Y-27186501D01*
X91747834Y-27050967D01*
X91747830Y-27050965D01*
X91746781Y-27050476D01*
X91533663Y-26951097D01*
X91533659Y-26951096D01*
X91533655Y-26951094D01*
X91305413Y-26889938D01*
X91305403Y-26889936D01*
X91070001Y-26869341D01*
X91069999Y-26869341D01*
X90834596Y-26889936D01*
X90834586Y-26889938D01*
X90606344Y-26951094D01*
X90606335Y-26951098D01*
X90392171Y-27050964D01*
X90392169Y-27050965D01*
X90198597Y-27186505D01*
X90031505Y-27353597D01*
X89895965Y-27547169D01*
X89895964Y-27547171D01*
X89796098Y-27761335D01*
X89796094Y-27761344D01*
X89734938Y-27989586D01*
X89734936Y-27989596D01*
X89714341Y-28224999D01*
X87624404Y-28224999D01*
X87754249Y-28210369D01*
X87754252Y-28210368D01*
X87754255Y-28210368D01*
X87924522Y-28150789D01*
X88077262Y-28054816D01*
X88204816Y-27927262D01*
X88300789Y-27774522D01*
X88360368Y-27604255D01*
X88361977Y-27589977D01*
X88380565Y-27425003D01*
X88380565Y-27424996D01*
X88360369Y-27245750D01*
X88360368Y-27245745D01*
X88339638Y-27186501D01*
X88300789Y-27075478D01*
X88285386Y-27050965D01*
X88213131Y-26935972D01*
X88204816Y-26922738D01*
X88077262Y-26795184D01*
X88037475Y-26770184D01*
X87924523Y-26699211D01*
X87754254Y-26639631D01*
X87754249Y-26639630D01*
X87575004Y-26619435D01*
X87574996Y-26619435D01*
X87395750Y-26639630D01*
X87395745Y-26639631D01*
X87225476Y-26699211D01*
X87072737Y-26795184D01*
X86945184Y-26922737D01*
X86849211Y-27075476D01*
X86789631Y-27245745D01*
X86789630Y-27245750D01*
X86769435Y-27424996D01*
X82077749Y-27424996D01*
X82080565Y-27400003D01*
X82080565Y-27399996D01*
X82060369Y-27220750D01*
X82060368Y-27220745D01*
X82048387Y-27186505D01*
X82000789Y-27050478D01*
X81904816Y-26897738D01*
X81777262Y-26770184D01*
X81685373Y-26712446D01*
X81624523Y-26674211D01*
X81454254Y-26614631D01*
X81454249Y-26614630D01*
X81275004Y-26594435D01*
X81274996Y-26594435D01*
X81095750Y-26614630D01*
X81095745Y-26614631D01*
X80925476Y-26674211D01*
X80772737Y-26770184D01*
X80686946Y-26855976D01*
X80625623Y-26889461D01*
X80555931Y-26884477D01*
X80511584Y-26855976D01*
X80464027Y-26808419D01*
X80311288Y-26712446D01*
X80141019Y-26652866D01*
X80141014Y-26652865D01*
X79961769Y-26632670D01*
X79961761Y-26632670D01*
X79782515Y-26652865D01*
X79782510Y-26652866D01*
X79612241Y-26712446D01*
X79459502Y-26808419D01*
X79331949Y-26935972D01*
X79235976Y-27088711D01*
X79176396Y-27258980D01*
X79176395Y-27258985D01*
X79156200Y-27438231D01*
X76120309Y-27438231D01*
X76102262Y-27420184D01*
X76070144Y-27400003D01*
X75949523Y-27324211D01*
X75779254Y-27264631D01*
X75779249Y-27264630D01*
X75600004Y-27244435D01*
X75599996Y-27244435D01*
X75420750Y-27264630D01*
X75420745Y-27264631D01*
X75250476Y-27324211D01*
X75097737Y-27420184D01*
X74970184Y-27547737D01*
X74874211Y-27700476D01*
X74814631Y-27870745D01*
X74814630Y-27870750D01*
X74794435Y-28049996D01*
X71200772Y-28049996D01*
X71199523Y-28049211D01*
X71029254Y-27989631D01*
X71029249Y-27989630D01*
X70850004Y-27969435D01*
X70849996Y-27969435D01*
X70670750Y-27989630D01*
X70670745Y-27989631D01*
X70500476Y-28049211D01*
X70347737Y-28145184D01*
X70220184Y-28272737D01*
X70124211Y-28425476D01*
X70064631Y-28595745D01*
X70064630Y-28595750D01*
X70044435Y-28774996D01*
X62875000Y-28774996D01*
X62875000Y-24319879D01*
X88225500Y-24319879D01*
X88225500Y-24507120D01*
X88262025Y-24690743D01*
X88262027Y-24690751D01*
X88333676Y-24863728D01*
X88333681Y-24863737D01*
X88437697Y-25019407D01*
X88437700Y-25019411D01*
X88570088Y-25151799D01*
X88570092Y-25151802D01*
X88725762Y-25255818D01*
X88725768Y-25255821D01*
X88725769Y-25255822D01*
X88898749Y-25327473D01*
X89056780Y-25358907D01*
X89082379Y-25363999D01*
X89082383Y-25364000D01*
X89082384Y-25364000D01*
X89269617Y-25364000D01*
X89269618Y-25363999D01*
X89453251Y-25327473D01*
X89626231Y-25255822D01*
X89781908Y-25151802D01*
X89914302Y-25019408D01*
X90018322Y-24863731D01*
X90089973Y-24690751D01*
X90126500Y-24507116D01*
X90126500Y-24319884D01*
X90089973Y-24136249D01*
X90018322Y-23963269D01*
X90018321Y-23963268D01*
X90018318Y-23963262D01*
X89914302Y-23807592D01*
X89914299Y-23807588D01*
X89781911Y-23675200D01*
X89781907Y-23675197D01*
X89626237Y-23571181D01*
X89626228Y-23571176D01*
X89453251Y-23499527D01*
X89453243Y-23499525D01*
X89269620Y-23463000D01*
X89269616Y-23463000D01*
X89082384Y-23463000D01*
X89082379Y-23463000D01*
X88898756Y-23499525D01*
X88898748Y-23499527D01*
X88725771Y-23571176D01*
X88725762Y-23571181D01*
X88570092Y-23675197D01*
X88570088Y-23675200D01*
X88437700Y-23807588D01*
X88437697Y-23807592D01*
X88333681Y-23963262D01*
X88333676Y-23963271D01*
X88262027Y-24136248D01*
X88262025Y-24136256D01*
X88225500Y-24319879D01*
X62875000Y-24319879D01*
X62875000Y-22202818D01*
X62894685Y-22135779D01*
X62947489Y-22090024D01*
X63016647Y-22080080D01*
X63064972Y-22097825D01*
X63109473Y-22125787D01*
X63109477Y-22125788D01*
X63109478Y-22125789D01*
X63138028Y-22135779D01*
X63279745Y-22185368D01*
X63279750Y-22185369D01*
X63458996Y-22205565D01*
X63459000Y-22205565D01*
X63459004Y-22205565D01*
X63638249Y-22185369D01*
X63638252Y-22185368D01*
X63638255Y-22185368D01*
X63808522Y-22125789D01*
X63961262Y-22029816D01*
X64084357Y-21906720D01*
X64145676Y-21873238D01*
X64215368Y-21878222D01*
X64238007Y-21889410D01*
X64373173Y-21974341D01*
X64375478Y-21975789D01*
X64529878Y-22029816D01*
X64545745Y-22035368D01*
X64545750Y-22035369D01*
X64724996Y-22055565D01*
X64725000Y-22055565D01*
X64725004Y-22055565D01*
X64904249Y-22035369D01*
X64904252Y-22035368D01*
X64904255Y-22035368D01*
X65074522Y-21975789D01*
X65227262Y-21879816D01*
X65286319Y-21820759D01*
X65347642Y-21787274D01*
X65417334Y-21792258D01*
X65461681Y-21820759D01*
X65496738Y-21855816D01*
X65570656Y-21902262D01*
X65638289Y-21944759D01*
X65649478Y-21951789D01*
X65819745Y-22011368D01*
X65819750Y-22011369D01*
X65998996Y-22031565D01*
X65999000Y-22031565D01*
X65999004Y-22031565D01*
X66178249Y-22011369D01*
X66178252Y-22011368D01*
X66178255Y-22011368D01*
X66348522Y-21951789D01*
X66501262Y-21855816D01*
X66628816Y-21728262D01*
X66643529Y-21704845D01*
X66695862Y-21658555D01*
X66764915Y-21647905D01*
X66814494Y-21665823D01*
X66845483Y-21685295D01*
X66919475Y-21731788D01*
X67089745Y-21791368D01*
X67089750Y-21791369D01*
X67268996Y-21811565D01*
X67269000Y-21811565D01*
X67269004Y-21811565D01*
X67448249Y-21791369D01*
X67448252Y-21791368D01*
X67448255Y-21791368D01*
X67618522Y-21731789D01*
X67771262Y-21635816D01*
X67898816Y-21508262D01*
X67966844Y-21399996D01*
X70244435Y-21399996D01*
X70244435Y-21400003D01*
X70264630Y-21579249D01*
X70264631Y-21579254D01*
X70324211Y-21749523D01*
X70420184Y-21902262D01*
X70547738Y-22029816D01*
X70627733Y-22080080D01*
X70700474Y-22125787D01*
X70700478Y-22125789D01*
X70729028Y-22135779D01*
X70870745Y-22185368D01*
X70870750Y-22185369D01*
X71049996Y-22205565D01*
X71050000Y-22205565D01*
X71050004Y-22205565D01*
X71229249Y-22185369D01*
X71229252Y-22185368D01*
X71229255Y-22185368D01*
X71399522Y-22125789D01*
X71552262Y-22029816D01*
X71679816Y-21902262D01*
X71775789Y-21749522D01*
X71835368Y-21579255D01*
X71838185Y-21554254D01*
X71855565Y-21400003D01*
X71855565Y-21399996D01*
X75294435Y-21399996D01*
X75294435Y-21400003D01*
X75314630Y-21579249D01*
X75314631Y-21579254D01*
X75374211Y-21749523D01*
X75470184Y-21902262D01*
X75597738Y-22029816D01*
X75677733Y-22080080D01*
X75750474Y-22125787D01*
X75750478Y-22125789D01*
X75779028Y-22135779D01*
X75920745Y-22185368D01*
X75920750Y-22185369D01*
X76099996Y-22205565D01*
X76100000Y-22205565D01*
X76100004Y-22205565D01*
X76279249Y-22185369D01*
X76279252Y-22185368D01*
X76279255Y-22185368D01*
X76449522Y-22125789D01*
X76602262Y-22029816D01*
X76687319Y-21944759D01*
X76748642Y-21911274D01*
X76818334Y-21916258D01*
X76862681Y-21944759D01*
X76922738Y-22004816D01*
X77013080Y-22061582D01*
X77070760Y-22097825D01*
X77075478Y-22100789D01*
X77146924Y-22125789D01*
X77245745Y-22160368D01*
X77245750Y-22160369D01*
X77424996Y-22180565D01*
X77425000Y-22180565D01*
X77425004Y-22180565D01*
X77604249Y-22160369D01*
X77604252Y-22160368D01*
X77604255Y-22160368D01*
X77774522Y-22100789D01*
X77927262Y-22004816D01*
X78054816Y-21877262D01*
X78150789Y-21724522D01*
X78210368Y-21554255D01*
X78227748Y-21400003D01*
X78230565Y-21375003D01*
X78230565Y-21374996D01*
X78210369Y-21195750D01*
X78210368Y-21195745D01*
X78176865Y-21100000D01*
X78150789Y-21025478D01*
X78054816Y-20872738D01*
X77927262Y-20745184D01*
X77858814Y-20702175D01*
X77774523Y-20649211D01*
X77604254Y-20589631D01*
X77604249Y-20589630D01*
X77425004Y-20569435D01*
X77424996Y-20569435D01*
X77245750Y-20589630D01*
X77245745Y-20589631D01*
X77075476Y-20649211D01*
X76922739Y-20745183D01*
X76837681Y-20830241D01*
X76776357Y-20863725D01*
X76706666Y-20858741D01*
X76662319Y-20830241D01*
X76658823Y-20826745D01*
X76602262Y-20770184D01*
X76504704Y-20708884D01*
X76449523Y-20674211D01*
X76279254Y-20614631D01*
X76279249Y-20614630D01*
X76100004Y-20594435D01*
X76099996Y-20594435D01*
X75920750Y-20614630D01*
X75920745Y-20614631D01*
X75750476Y-20674211D01*
X75597737Y-20770184D01*
X75470184Y-20897737D01*
X75374211Y-21050476D01*
X75314631Y-21220745D01*
X75314630Y-21220750D01*
X75294435Y-21399996D01*
X71855565Y-21399996D01*
X71835369Y-21220750D01*
X71835368Y-21220745D01*
X71826620Y-21195745D01*
X71775789Y-21050478D01*
X71760080Y-21025478D01*
X71736582Y-20988080D01*
X71679816Y-20897738D01*
X71552262Y-20770184D01*
X71533112Y-20758151D01*
X71399523Y-20674211D01*
X71229254Y-20614631D01*
X71229249Y-20614630D01*
X71050004Y-20594435D01*
X71049996Y-20594435D01*
X70870750Y-20614630D01*
X70870745Y-20614631D01*
X70700476Y-20674211D01*
X70547737Y-20770184D01*
X70420184Y-20897737D01*
X70324211Y-21050476D01*
X70264631Y-21220745D01*
X70264630Y-21220750D01*
X70244435Y-21399996D01*
X67966844Y-21399996D01*
X67994789Y-21355522D01*
X68054368Y-21185255D01*
X68071398Y-21034108D01*
X68074565Y-21006003D01*
X68074565Y-21005996D01*
X68054369Y-20826750D01*
X68054368Y-20826745D01*
X68026569Y-20747300D01*
X67994789Y-20656478D01*
X67994012Y-20655242D01*
X67898815Y-20503737D01*
X67771262Y-20376184D01*
X67696955Y-20329494D01*
X67650664Y-20277159D01*
X67640016Y-20208106D01*
X67668391Y-20144257D01*
X67726781Y-20105885D01*
X67762927Y-20100500D01*
X102759108Y-20100500D01*
X102819587Y-20100500D01*
X102830394Y-20100972D01*
G37*
%TD.AperFunction*%
%TD*%
%TA.AperFunction,Conductor*%
%TO.N,GND*%
G36*
X61418039Y-20120185D02*
G01*
X61463794Y-20172989D01*
X61475000Y-20224500D01*
X61475000Y-23469331D01*
X61455315Y-23536370D01*
X61419890Y-23572433D01*
X61266096Y-23675194D01*
X61266088Y-23675200D01*
X61133700Y-23807588D01*
X61133697Y-23807592D01*
X61029681Y-23963262D01*
X61029676Y-23963271D01*
X60958027Y-24136248D01*
X60958025Y-24136256D01*
X60921500Y-24319879D01*
X60921500Y-24507120D01*
X60958025Y-24690743D01*
X60958027Y-24690751D01*
X61029676Y-24863728D01*
X61029681Y-24863737D01*
X61133697Y-25019407D01*
X61133700Y-25019411D01*
X61266088Y-25151799D01*
X61266096Y-25151805D01*
X61419890Y-25254567D01*
X61464696Y-25308179D01*
X61475000Y-25357669D01*
X61475000Y-39375500D01*
X61455315Y-39442539D01*
X61402511Y-39488294D01*
X61351000Y-39499500D01*
X22655413Y-39499500D01*
X22644605Y-39499028D01*
X22487246Y-39485260D01*
X22465961Y-39481507D01*
X22318630Y-39442030D01*
X22298318Y-39434637D01*
X22160084Y-39370177D01*
X22141366Y-39359370D01*
X22016417Y-39271880D01*
X21999859Y-39257986D01*
X21892013Y-39150140D01*
X21878119Y-39133582D01*
X21790629Y-39008633D01*
X21779822Y-38989915D01*
X21715362Y-38851681D01*
X21707969Y-38831369D01*
X21668492Y-38684038D01*
X21664739Y-38662752D01*
X21650972Y-38505393D01*
X21650500Y-38494586D01*
X21650500Y-32124999D01*
X34994722Y-32124999D01*
X34994722Y-32125000D01*
X35013762Y-32281818D01*
X35051688Y-32381818D01*
X35069780Y-32429523D01*
X35159517Y-32559530D01*
X35277760Y-32664283D01*
X35277762Y-32664284D01*
X35417634Y-32737696D01*
X35571014Y-32775500D01*
X35571015Y-32775500D01*
X35728985Y-32775500D01*
X35882365Y-32737696D01*
X36022238Y-32664284D01*
X36022237Y-32664284D01*
X36022240Y-32664283D01*
X36081882Y-32611444D01*
X36145115Y-32581723D01*
X36214378Y-32590907D01*
X36246335Y-32611444D01*
X36277759Y-32639282D01*
X36277761Y-32639284D01*
X36417634Y-32712696D01*
X36571014Y-32750500D01*
X36571015Y-32750500D01*
X36728985Y-32750500D01*
X36882365Y-32712696D01*
X37022233Y-32639287D01*
X37022238Y-32639284D01*
X37022237Y-32639284D01*
X37022240Y-32639283D01*
X37027051Y-32635020D01*
X37090283Y-32605298D01*
X37159546Y-32614479D01*
X37191506Y-32635018D01*
X37252759Y-32689282D01*
X37252761Y-32689284D01*
X37392634Y-32762696D01*
X37546014Y-32800500D01*
X37546015Y-32800500D01*
X37703985Y-32800500D01*
X37857365Y-32762696D01*
X37997238Y-32689284D01*
X37997237Y-32689284D01*
X37997240Y-32689283D01*
X38041163Y-32650370D01*
X38104396Y-32620649D01*
X38173659Y-32629833D01*
X38205614Y-32650368D01*
X38241007Y-32681723D01*
X38277762Y-32714285D01*
X38417634Y-32787696D01*
X38571014Y-32825500D01*
X38571015Y-32825500D01*
X38728985Y-32825500D01*
X38882365Y-32787696D01*
X38953235Y-32750500D01*
X39022240Y-32714283D01*
X39140483Y-32609530D01*
X39230220Y-32479523D01*
X39286237Y-32331818D01*
X39299207Y-32224999D01*
X39994722Y-32224999D01*
X39994722Y-32225000D01*
X40013762Y-32381818D01*
X40050818Y-32479524D01*
X40069780Y-32529523D01*
X40159517Y-32659530D01*
X40277760Y-32764283D01*
X40277762Y-32764284D01*
X40417634Y-32837696D01*
X40571014Y-32875500D01*
X40571015Y-32875500D01*
X40728985Y-32875500D01*
X40882365Y-32837696D01*
X41022238Y-32764284D01*
X41022237Y-32764284D01*
X41022240Y-32764283D01*
X41081882Y-32711444D01*
X41145115Y-32681723D01*
X41214378Y-32690907D01*
X41246335Y-32711444D01*
X41277759Y-32739282D01*
X41277761Y-32739284D01*
X41417634Y-32812696D01*
X41571014Y-32850500D01*
X41571015Y-32850500D01*
X41728985Y-32850500D01*
X41882365Y-32812696D01*
X41953235Y-32775500D01*
X42022240Y-32739283D01*
X42140483Y-32634530D01*
X42230220Y-32504523D01*
X42286237Y-32356818D01*
X42305278Y-32200000D01*
X42302243Y-32175000D01*
X42286237Y-32043181D01*
X42239701Y-31920477D01*
X42230220Y-31895477D01*
X42140483Y-31765470D01*
X42022240Y-31660717D01*
X42022238Y-31660716D01*
X42022237Y-31660715D01*
X41882365Y-31587303D01*
X41728986Y-31549500D01*
X41728985Y-31549500D01*
X41571015Y-31549500D01*
X41571014Y-31549500D01*
X41417634Y-31587303D01*
X41277762Y-31660714D01*
X41218116Y-31713556D01*
X41154882Y-31743276D01*
X41085619Y-31734092D01*
X41053664Y-31713555D01*
X41022240Y-31685717D01*
X41022238Y-31685715D01*
X40882365Y-31612303D01*
X40728986Y-31574500D01*
X40728985Y-31574500D01*
X40571015Y-31574500D01*
X40571014Y-31574500D01*
X40417634Y-31612303D01*
X40277762Y-31685715D01*
X40277760Y-31685717D01*
X40187737Y-31765470D01*
X40159516Y-31790471D01*
X40069781Y-31920475D01*
X40069780Y-31920476D01*
X40013762Y-32068181D01*
X39994722Y-32224999D01*
X39299207Y-32224999D01*
X39305278Y-32175000D01*
X39289273Y-32043181D01*
X39286237Y-32018181D01*
X39249182Y-31920476D01*
X39230220Y-31870477D01*
X39140483Y-31740470D01*
X39022240Y-31635717D01*
X39022238Y-31635716D01*
X39022237Y-31635715D01*
X38882365Y-31562303D01*
X38728986Y-31524500D01*
X38728985Y-31524500D01*
X38571015Y-31524500D01*
X38571014Y-31524500D01*
X38417634Y-31562303D01*
X38277761Y-31635715D01*
X38277759Y-31635717D01*
X38233834Y-31674630D01*
X38170601Y-31704350D01*
X38101337Y-31695165D01*
X38069383Y-31674630D01*
X37997240Y-31610717D01*
X37997238Y-31610716D01*
X37997237Y-31610715D01*
X37857365Y-31537303D01*
X37703986Y-31499500D01*
X37703985Y-31499500D01*
X37546015Y-31499500D01*
X37546014Y-31499500D01*
X37392634Y-31537303D01*
X37252764Y-31610714D01*
X37252756Y-31610719D01*
X37247940Y-31614986D01*
X37184705Y-31644703D01*
X37115442Y-31635515D01*
X37083493Y-31614981D01*
X37022240Y-31560717D01*
X37022238Y-31560715D01*
X36882365Y-31487303D01*
X36728986Y-31449500D01*
X36728985Y-31449500D01*
X36571015Y-31449500D01*
X36571014Y-31449500D01*
X36417634Y-31487303D01*
X36277762Y-31560714D01*
X36218116Y-31613556D01*
X36154882Y-31643276D01*
X36085619Y-31634092D01*
X36053664Y-31613555D01*
X36022240Y-31585717D01*
X36022238Y-31585715D01*
X35882365Y-31512303D01*
X35728986Y-31474500D01*
X35728985Y-31474500D01*
X35571015Y-31474500D01*
X35571014Y-31474500D01*
X35417634Y-31512303D01*
X35277762Y-31585715D01*
X35249538Y-31610719D01*
X35187737Y-31665470D01*
X35159516Y-31690471D01*
X35069781Y-31820475D01*
X35069780Y-31820476D01*
X35013762Y-31968181D01*
X34994722Y-32124999D01*
X21650500Y-32124999D01*
X21650500Y-30574996D01*
X58819435Y-30574996D01*
X58819435Y-30575003D01*
X58839630Y-30754249D01*
X58839631Y-30754254D01*
X58899211Y-30924523D01*
X58995184Y-31077262D01*
X59122738Y-31204816D01*
X59275478Y-31300789D01*
X59445745Y-31360368D01*
X59445750Y-31360369D01*
X59624996Y-31380565D01*
X59625000Y-31380565D01*
X59625004Y-31380565D01*
X59804249Y-31360369D01*
X59804252Y-31360368D01*
X59804255Y-31360368D01*
X59974522Y-31300789D01*
X60127262Y-31204816D01*
X60254816Y-31077262D01*
X60350789Y-30924522D01*
X60410368Y-30754255D01*
X60430565Y-30575000D01*
X60410368Y-30395745D01*
X60350789Y-30225478D01*
X60254816Y-30072738D01*
X60127262Y-29945184D01*
X59974523Y-29849211D01*
X59804254Y-29789631D01*
X59804249Y-29789630D01*
X59625004Y-29769435D01*
X59624996Y-29769435D01*
X59445750Y-29789630D01*
X59445745Y-29789631D01*
X59275476Y-29849211D01*
X59122737Y-29945184D01*
X58995184Y-30072737D01*
X58899211Y-30225476D01*
X58839631Y-30395745D01*
X58839630Y-30395750D01*
X58819435Y-30574996D01*
X21650500Y-30574996D01*
X21650500Y-25812977D01*
X21670185Y-25745938D01*
X21722989Y-25700183D01*
X21792147Y-25690239D01*
X21855703Y-25719264D01*
X21893477Y-25778042D01*
X21893637Y-25778594D01*
X21974341Y-26058724D01*
X22111906Y-26390833D01*
X22285789Y-26705452D01*
X22493806Y-26998623D01*
X22733339Y-27266661D01*
X23001377Y-27506194D01*
X23294548Y-27714211D01*
X23609167Y-27888094D01*
X23941276Y-28025659D01*
X24286700Y-28125173D01*
X24641093Y-28185387D01*
X25000000Y-28205543D01*
X25358907Y-28185387D01*
X25713300Y-28125173D01*
X26058724Y-28025659D01*
X26390833Y-27888094D01*
X26705452Y-27714211D01*
X26998623Y-27506194D01*
X27117459Y-27399996D01*
X38244435Y-27399996D01*
X38244435Y-27400003D01*
X38264630Y-27579249D01*
X38264631Y-27579254D01*
X38324211Y-27749523D01*
X38411282Y-27888094D01*
X38420184Y-27902262D01*
X38547738Y-28029816D01*
X38638080Y-28086582D01*
X38699497Y-28125173D01*
X38700478Y-28125789D01*
X38870745Y-28185368D01*
X38870750Y-28185369D01*
X39049996Y-28205565D01*
X39050000Y-28205565D01*
X39050004Y-28205565D01*
X39229249Y-28185369D01*
X39229252Y-28185368D01*
X39229255Y-28185368D01*
X39399522Y-28125789D01*
X39552262Y-28029816D01*
X39679816Y-27902262D01*
X39775789Y-27749522D01*
X39835368Y-27579255D01*
X39855565Y-27400000D01*
X39840541Y-27266661D01*
X39835369Y-27220750D01*
X39835368Y-27220745D01*
X39775788Y-27050476D01*
X39679815Y-26897737D01*
X39552262Y-26770184D01*
X39399523Y-26674211D01*
X39229254Y-26614631D01*
X39229249Y-26614630D01*
X39050004Y-26594435D01*
X39049996Y-26594435D01*
X38870750Y-26614630D01*
X38870745Y-26614631D01*
X38700476Y-26674211D01*
X38547737Y-26770184D01*
X38420184Y-26897737D01*
X38324211Y-27050476D01*
X38264631Y-27220745D01*
X38264630Y-27220750D01*
X38244435Y-27399996D01*
X27117459Y-27399996D01*
X27266661Y-27266661D01*
X27506194Y-26998623D01*
X27714211Y-26705452D01*
X27888094Y-26390833D01*
X28025659Y-26058724D01*
X28125173Y-25713300D01*
X28185387Y-25358907D01*
X28205543Y-25000000D01*
X28185387Y-24641093D01*
X28162791Y-24508103D01*
X35554499Y-24508103D01*
X35591410Y-24693661D01*
X35591413Y-24693671D01*
X35663814Y-24868465D01*
X35663816Y-24868468D01*
X35768927Y-25025778D01*
X35768933Y-25025786D01*
X35902713Y-25159566D01*
X35902721Y-25159572D01*
X36060031Y-25264683D01*
X36060034Y-25264685D01*
X36211620Y-25327473D01*
X36234833Y-25337088D01*
X36234837Y-25337088D01*
X36234838Y-25337089D01*
X36420396Y-25374000D01*
X36420399Y-25374000D01*
X36609603Y-25374000D01*
X36734442Y-25349167D01*
X36795167Y-25337088D01*
X36969967Y-25264684D01*
X37127283Y-25159569D01*
X37261069Y-25025783D01*
X37366184Y-24868467D01*
X37438588Y-24693667D01*
X37475500Y-24508103D01*
X50164499Y-24508103D01*
X50201410Y-24693661D01*
X50201413Y-24693671D01*
X50273814Y-24868465D01*
X50273816Y-24868468D01*
X50378927Y-25025778D01*
X50378933Y-25025786D01*
X50512713Y-25159566D01*
X50512721Y-25159572D01*
X50670031Y-25264683D01*
X50670034Y-25264685D01*
X50821620Y-25327473D01*
X50844833Y-25337088D01*
X50844837Y-25337088D01*
X50844838Y-25337089D01*
X51030396Y-25374000D01*
X51030399Y-25374000D01*
X51219603Y-25374000D01*
X51344442Y-25349167D01*
X51405167Y-25337088D01*
X51579967Y-25264684D01*
X51737283Y-25159569D01*
X51871069Y-25025783D01*
X51976184Y-24868467D01*
X52048588Y-24693667D01*
X52085500Y-24508101D01*
X52085500Y-24318899D01*
X52085500Y-24318896D01*
X52048589Y-24133338D01*
X52048588Y-24133337D01*
X52048588Y-24133333D01*
X51978143Y-23963262D01*
X51976185Y-23958534D01*
X51976183Y-23958531D01*
X51871072Y-23801221D01*
X51871066Y-23801213D01*
X51737286Y-23667433D01*
X51737278Y-23667427D01*
X51579968Y-23562316D01*
X51579965Y-23562314D01*
X51405171Y-23489913D01*
X51405161Y-23489910D01*
X51219603Y-23453000D01*
X51219601Y-23453000D01*
X51030399Y-23453000D01*
X51030397Y-23453000D01*
X50844838Y-23489910D01*
X50844828Y-23489913D01*
X50670034Y-23562314D01*
X50670031Y-23562316D01*
X50512721Y-23667427D01*
X50512713Y-23667433D01*
X50378933Y-23801213D01*
X50378927Y-23801221D01*
X50273816Y-23958531D01*
X50273814Y-23958534D01*
X50201413Y-24133328D01*
X50201410Y-24133338D01*
X50164500Y-24318896D01*
X50164500Y-24318899D01*
X50164500Y-24508101D01*
X50164500Y-24508103D01*
X50164499Y-24508103D01*
X37475500Y-24508103D01*
X37475500Y-24508101D01*
X37475500Y-24318899D01*
X37475500Y-24318896D01*
X37438589Y-24133338D01*
X37438588Y-24133337D01*
X37438588Y-24133333D01*
X37368143Y-23963262D01*
X37366185Y-23958534D01*
X37366183Y-23958531D01*
X37261072Y-23801221D01*
X37261066Y-23801213D01*
X37127286Y-23667433D01*
X37127278Y-23667427D01*
X36969968Y-23562316D01*
X36969965Y-23562314D01*
X36795171Y-23489913D01*
X36795161Y-23489910D01*
X36609603Y-23453000D01*
X36609601Y-23453000D01*
X36420399Y-23453000D01*
X36420397Y-23453000D01*
X36234838Y-23489910D01*
X36234828Y-23489913D01*
X36060034Y-23562314D01*
X36060031Y-23562316D01*
X35902721Y-23667427D01*
X35902713Y-23667433D01*
X35768933Y-23801213D01*
X35768927Y-23801221D01*
X35663816Y-23958531D01*
X35663814Y-23958534D01*
X35591413Y-24133328D01*
X35591410Y-24133338D01*
X35554500Y-24318896D01*
X35554500Y-24318899D01*
X35554500Y-24508101D01*
X35554500Y-24508103D01*
X35554499Y-24508103D01*
X28162791Y-24508103D01*
X28125173Y-24286700D01*
X28025659Y-23941276D01*
X27888094Y-23609167D01*
X27714211Y-23294548D01*
X27506194Y-23001377D01*
X27266661Y-22733339D01*
X26998623Y-22493806D01*
X26998622Y-22493805D01*
X26705454Y-22285790D01*
X26390831Y-22111905D01*
X26211675Y-22037696D01*
X26058724Y-21974341D01*
X26058720Y-21974339D01*
X26058718Y-21974339D01*
X25713305Y-21874828D01*
X25713296Y-21874826D01*
X25358914Y-21814614D01*
X25358902Y-21814612D01*
X25000000Y-21794457D01*
X24641097Y-21814612D01*
X24641085Y-21814614D01*
X24286703Y-21874826D01*
X24286694Y-21874828D01*
X23941281Y-21974339D01*
X23609168Y-22111905D01*
X23294545Y-22285790D01*
X23001377Y-22493805D01*
X22733339Y-22733339D01*
X22493805Y-23001377D01*
X22285790Y-23294545D01*
X22111905Y-23609168D01*
X21974339Y-23941281D01*
X21893654Y-24221349D01*
X21856180Y-24280319D01*
X21792773Y-24309668D01*
X21723565Y-24300078D01*
X21670528Y-24254593D01*
X21650502Y-24187655D01*
X21650500Y-24187022D01*
X21650500Y-21374999D01*
X38719722Y-21374999D01*
X38719722Y-21375000D01*
X38738762Y-21531818D01*
X38757725Y-21581818D01*
X38794780Y-21679523D01*
X38884517Y-21809530D01*
X39002760Y-21914283D01*
X39002762Y-21914284D01*
X39142634Y-21987696D01*
X39296014Y-22025500D01*
X39296015Y-22025500D01*
X39453985Y-22025500D01*
X39607365Y-21987696D01*
X39747240Y-21914283D01*
X39865483Y-21809530D01*
X39910450Y-21744384D01*
X39964732Y-21700393D01*
X40034181Y-21692733D01*
X40096746Y-21723836D01*
X40114550Y-21744384D01*
X40159514Y-21809527D01*
X40159516Y-21809529D01*
X40159517Y-21809530D01*
X40277760Y-21914283D01*
X40277762Y-21914284D01*
X40417634Y-21987696D01*
X40571014Y-22025500D01*
X40571015Y-22025500D01*
X40728985Y-22025500D01*
X40882365Y-21987696D01*
X41022240Y-21914283D01*
X41140483Y-21809530D01*
X41230220Y-21679523D01*
X41286237Y-21531818D01*
X41305278Y-21375000D01*
X41305278Y-21374999D01*
X42544722Y-21374999D01*
X42544722Y-21375000D01*
X42563762Y-21531818D01*
X42582725Y-21581818D01*
X42619780Y-21679523D01*
X42709517Y-21809530D01*
X42827760Y-21914283D01*
X42827762Y-21914284D01*
X42967634Y-21987696D01*
X43121014Y-22025500D01*
X43121015Y-22025500D01*
X43278985Y-22025500D01*
X43432365Y-21987696D01*
X43572240Y-21914283D01*
X43690483Y-21809530D01*
X43730695Y-21751272D01*
X43784974Y-21707284D01*
X43854423Y-21699624D01*
X43916988Y-21730726D01*
X43934793Y-21751274D01*
X43975003Y-21809528D01*
X44009517Y-21859530D01*
X44127760Y-21964283D01*
X44127762Y-21964284D01*
X44267634Y-22037696D01*
X44421014Y-22075500D01*
X44421015Y-22075500D01*
X44578985Y-22075500D01*
X44732365Y-22037696D01*
X44755602Y-22025500D01*
X44872240Y-21964283D01*
X44990483Y-21859530D01*
X45080220Y-21729523D01*
X45136237Y-21581818D01*
X45155278Y-21425000D01*
X45155278Y-21424999D01*
X46319722Y-21424999D01*
X46319722Y-21425000D01*
X46338762Y-21581818D01*
X46375818Y-21679524D01*
X46394780Y-21729523D01*
X46484517Y-21859530D01*
X46602760Y-21964283D01*
X46602762Y-21964284D01*
X46742634Y-22037696D01*
X46896014Y-22075500D01*
X46896015Y-22075500D01*
X47053985Y-22075500D01*
X47207365Y-22037696D01*
X47230602Y-22025500D01*
X47347240Y-21964283D01*
X47465483Y-21859530D01*
X47499997Y-21809528D01*
X47510450Y-21794384D01*
X47564732Y-21750393D01*
X47634181Y-21742733D01*
X47696746Y-21773836D01*
X47714550Y-21794384D01*
X47759514Y-21859527D01*
X47759516Y-21859529D01*
X47759517Y-21859530D01*
X47877760Y-21964283D01*
X47877762Y-21964284D01*
X48017634Y-22037696D01*
X48171014Y-22075500D01*
X48171015Y-22075500D01*
X48328985Y-22075500D01*
X48482365Y-22037696D01*
X48505602Y-22025500D01*
X48622240Y-21964283D01*
X48740483Y-21859530D01*
X48830220Y-21729523D01*
X48886237Y-21581818D01*
X48905278Y-21425000D01*
X48896965Y-21356531D01*
X48886237Y-21268181D01*
X48864992Y-21212164D01*
X48830220Y-21120477D01*
X48740483Y-20990470D01*
X48622240Y-20885717D01*
X48622238Y-20885716D01*
X48622237Y-20885715D01*
X48482365Y-20812303D01*
X48328986Y-20774500D01*
X48328985Y-20774500D01*
X48171015Y-20774500D01*
X48171014Y-20774500D01*
X48017634Y-20812303D01*
X47877762Y-20885715D01*
X47759516Y-20990471D01*
X47714550Y-21055616D01*
X47660267Y-21099606D01*
X47590819Y-21107266D01*
X47528254Y-21076163D01*
X47510450Y-21055616D01*
X47475937Y-21005616D01*
X47465483Y-20990470D01*
X47347240Y-20885717D01*
X47347238Y-20885716D01*
X47347237Y-20885715D01*
X47207365Y-20812303D01*
X47053986Y-20774500D01*
X47053985Y-20774500D01*
X46896015Y-20774500D01*
X46896014Y-20774500D01*
X46742634Y-20812303D01*
X46602762Y-20885715D01*
X46484516Y-20990471D01*
X46394781Y-21120475D01*
X46394780Y-21120476D01*
X46338762Y-21268181D01*
X46319722Y-21424999D01*
X45155278Y-21424999D01*
X45146965Y-21356531D01*
X45136237Y-21268181D01*
X45114992Y-21212164D01*
X45080220Y-21120477D01*
X44990483Y-20990470D01*
X44872240Y-20885717D01*
X44872238Y-20885716D01*
X44872237Y-20885715D01*
X44732365Y-20812303D01*
X44578986Y-20774500D01*
X44578985Y-20774500D01*
X44421015Y-20774500D01*
X44421014Y-20774500D01*
X44267634Y-20812303D01*
X44127762Y-20885715D01*
X44009517Y-20990469D01*
X43969306Y-21048726D01*
X43915022Y-21092716D01*
X43845574Y-21100375D01*
X43783009Y-21069271D01*
X43765206Y-21048725D01*
X43724995Y-20990470D01*
X43690483Y-20940470D01*
X43572240Y-20835717D01*
X43572238Y-20835716D01*
X43572237Y-20835715D01*
X43432365Y-20762303D01*
X43278986Y-20724500D01*
X43278985Y-20724500D01*
X43121015Y-20724500D01*
X43121014Y-20724500D01*
X42967634Y-20762303D01*
X42827762Y-20835715D01*
X42709516Y-20940471D01*
X42619781Y-21070475D01*
X42619780Y-21070476D01*
X42563762Y-21218181D01*
X42544722Y-21374999D01*
X41305278Y-21374999D01*
X41303036Y-21356531D01*
X41286237Y-21218181D01*
X41249182Y-21120476D01*
X41230220Y-21070477D01*
X41140483Y-20940470D01*
X41022240Y-20835717D01*
X41022238Y-20835716D01*
X41022237Y-20835715D01*
X40882365Y-20762303D01*
X40728986Y-20724500D01*
X40728985Y-20724500D01*
X40571015Y-20724500D01*
X40571014Y-20724500D01*
X40417634Y-20762303D01*
X40277762Y-20835715D01*
X40159516Y-20940471D01*
X40114550Y-21005616D01*
X40060267Y-21049606D01*
X39990819Y-21057266D01*
X39928254Y-21026163D01*
X39910450Y-21005616D01*
X39885093Y-20968880D01*
X39865483Y-20940470D01*
X39747240Y-20835717D01*
X39747238Y-20835716D01*
X39747237Y-20835715D01*
X39607365Y-20762303D01*
X39453986Y-20724500D01*
X39453985Y-20724500D01*
X39296015Y-20724500D01*
X39296014Y-20724500D01*
X39142634Y-20762303D01*
X39002762Y-20835715D01*
X38884516Y-20940471D01*
X38794781Y-21070475D01*
X38794780Y-21070476D01*
X38738762Y-21218181D01*
X38719722Y-21374999D01*
X21650500Y-21374999D01*
X21650500Y-21105413D01*
X21650972Y-21094606D01*
X21660083Y-20990469D01*
X21664739Y-20937242D01*
X21668490Y-20915966D01*
X21707969Y-20768627D01*
X21715362Y-20748318D01*
X21726469Y-20724500D01*
X21779823Y-20610081D01*
X21790629Y-20591366D01*
X21878119Y-20466417D01*
X21892007Y-20449865D01*
X21999865Y-20342007D01*
X22016417Y-20328119D01*
X22141366Y-20240629D01*
X22160081Y-20229823D01*
X22298320Y-20165361D01*
X22318627Y-20157969D01*
X22465966Y-20118490D01*
X22487242Y-20114739D01*
X22619885Y-20103134D01*
X22644606Y-20100972D01*
X22655413Y-20100500D01*
X61351000Y-20100500D01*
X61418039Y-20120185D01*
G37*
%TD.AperFunction*%
%TD*%
M02*
