%TF.GenerationSoftware,KiCad,Pcbnew,8.0.4*%
%TF.CreationDate,2024-11-07T09:22:51-08:00*%
%TF.ProjectId,hadron_io_breakouts,68616472-6f6e-45f6-996f-5f627265616b,rev?*%
%TF.SameCoordinates,Original*%
%TF.FileFunction,Copper,L4,Bot*%
%TF.FilePolarity,Positive*%
%FSLAX46Y46*%
G04 Gerber Fmt 4.6, Leading zero omitted, Abs format (unit mm)*
G04 Created by KiCad (PCBNEW 8.0.4) date 2024-11-07 09:22:51*
%MOMM*%
%LPD*%
G01*
G04 APERTURE LIST*
%TA.AperFunction,ComponentPad*%
%ADD10C,0.800000*%
%TD*%
%TA.AperFunction,ComponentPad*%
%ADD11C,5.400000*%
%TD*%
%TA.AperFunction,ComponentPad*%
%ADD12R,1.700000X1.700000*%
%TD*%
%TA.AperFunction,ComponentPad*%
%ADD13O,1.700000X1.700000*%
%TD*%
%TA.AperFunction,SMDPad,CuDef*%
%ADD14R,0.740000X2.220000*%
%TD*%
%TA.AperFunction,ViaPad*%
%ADD15C,0.600000*%
%TD*%
%TA.AperFunction,Conductor*%
%ADD16C,0.500000*%
%TD*%
%TA.AperFunction,Conductor*%
%ADD17C,0.200000*%
%TD*%
%TA.AperFunction,Conductor*%
%ADD18C,0.420000*%
%TD*%
%TA.AperFunction,Conductor*%
%ADD19C,0.425600*%
%TD*%
G04 APERTURE END LIST*
D10*
%TO.P,REF\u002A\u002A,1*%
%TO.N,N/C*%
X98515000Y-25000000D03*
X99108109Y-23568109D03*
X99108109Y-26431891D03*
X100540000Y-22975000D03*
D11*
X100540000Y-25000000D03*
D10*
X100540000Y-27025000D03*
X101971891Y-23568109D03*
X101971891Y-26431891D03*
X102565000Y-25000000D03*
%TD*%
%TO.P,REF\u002A\u002A,1*%
%TO.N,N/C*%
X22975000Y-25000000D03*
X23568109Y-23568109D03*
X23568109Y-26431891D03*
X25000000Y-22975000D03*
D11*
X25000000Y-25000000D03*
D10*
X25000000Y-27025000D03*
X26431891Y-23568109D03*
X26431891Y-26431891D03*
X27025000Y-25000000D03*
%TD*%
D12*
%TO.P,J7,1,Pin_1*%
%TO.N,SBC_Debug-Rx*%
X96150000Y-28225000D03*
D13*
%TO.P,J7,2,Pin_2*%
%TO.N,SBC_Debug-Tx*%
X93610000Y-28225000D03*
%TO.P,J7,3,Pin_3*%
%TO.N,GND*%
X91070000Y-28225000D03*
%TD*%
D14*
%TO.P,J2,01,01*%
%TO.N,GND*%
X49535000Y-23048500D03*
%TO.P,J2,02,02*%
%TO.N,USB1_D_P*%
X49535000Y-25778500D03*
%TO.P,J2,03,03*%
%TO.N,USB0_D_P*%
X48265000Y-23048500D03*
%TO.P,J2,04,04*%
%TO.N,USB1_D_N*%
X48265000Y-25778500D03*
%TO.P,J2,05,05*%
%TO.N,USB0_D_N*%
X46995000Y-23048500D03*
%TO.P,J2,06,06*%
%TO.N,GND*%
X46995000Y-25778500D03*
%TO.P,J2,07,07*%
X45725000Y-23048500D03*
%TO.P,J2,08,08*%
%TO.N,USB1_TX_N*%
X45725000Y-25778500D03*
%TO.P,J2,09,09*%
%TO.N,USB0_TX_N*%
X44455000Y-23048500D03*
%TO.P,J2,10,10*%
%TO.N,USB1_TX_P*%
X44455000Y-25778500D03*
%TO.P,J2,11,11*%
%TO.N,USB0_TX_P*%
X43185000Y-23048500D03*
%TO.P,J2,12,12*%
%TO.N,GND*%
X43185000Y-25778500D03*
%TO.P,J2,13,13*%
X41915000Y-23048500D03*
%TO.P,J2,14,14*%
%TO.N,USB1_RX_N*%
X41915000Y-25778500D03*
%TO.P,J2,15,15*%
%TO.N,USB0_RX_N*%
X40645000Y-23048500D03*
%TO.P,J2,16,16*%
%TO.N,USB1_RX_P*%
X40645000Y-25778500D03*
%TO.P,J2,17,17*%
%TO.N,USB0_RX_P*%
X39375000Y-23048500D03*
%TO.P,J2,18,18*%
%TO.N,USB1 VBUS*%
X39375000Y-25778500D03*
%TO.P,J2,19,19*%
%TO.N,USB0 VBUS*%
X38105000Y-23048500D03*
%TO.P,J2,20,20*%
%TO.N,GND*%
X38105000Y-25778500D03*
%TD*%
%TO.P,J4,1,1*%
%TO.N,GND*%
X63459000Y-25778500D03*
%TO.P,J4,2,2*%
X63459000Y-23048500D03*
%TO.P,J4,3,3*%
%TO.N,Net-(J4-Pad3)*%
X64729000Y-25778500D03*
%TO.P,J4,4,4*%
%TO.N,Net-(J4-Pad4)*%
X64729000Y-23048500D03*
%TO.P,J4,5,5*%
%TO.N,Net-(J4-Pad5)*%
X65999000Y-25778500D03*
%TO.P,J4,6,6*%
%TO.N,Net-(J4-Pad6)*%
X65999000Y-23048500D03*
%TO.P,J4,7,7*%
%TO.N,GND*%
X67269000Y-25778500D03*
%TO.P,J4,8,8*%
X67269000Y-23048500D03*
%TO.P,J4,9,9*%
%TO.N,5v*%
X68539000Y-25778500D03*
%TO.P,J4,10,10*%
%TO.N,3.3v*%
X68539000Y-23048500D03*
%TO.P,J4,11,11*%
%TO.N,5v*%
X69809000Y-25778500D03*
%TO.P,J4,12,12*%
%TO.N,3.3v*%
X69809000Y-23048500D03*
%TO.P,J4,13,13*%
%TO.N,GND*%
X71079000Y-25778500D03*
%TO.P,J4,14,14*%
X71079000Y-23048500D03*
%TO.P,J4,15,15*%
%TO.N,unconnected-(J4-Pad15)*%
X72349000Y-25778500D03*
%TO.P,J4,16,16*%
%TO.N,unconnected-(J4-Pad16)*%
X72349000Y-23048500D03*
%TO.P,J4,17,17*%
%TO.N,unconnected-(J4-Pad17)*%
X73619000Y-25778500D03*
%TO.P,J4,18,18*%
%TO.N,unconnected-(J4-Pad18)*%
X73619000Y-23048500D03*
%TO.P,J4,19,19*%
%TO.N,unconnected-(J4-Pad19)*%
X74889000Y-25778500D03*
%TO.P,J4,20,20*%
%TO.N,unconnected-(J4-Pad20)*%
X74889000Y-23048500D03*
%TO.P,J4,21,21*%
%TO.N,unconnected-(J4-Pad21)*%
X76159000Y-25778500D03*
%TO.P,J4,22,22*%
%TO.N,SBC_RS232-0-Tx*%
X76159000Y-23048500D03*
%TO.P,J4,23,23*%
%TO.N,unconnected-(J4-Pad23)*%
X77429000Y-25778500D03*
%TO.P,J4,24,24*%
%TO.N,SBC_RS232-0-Rx*%
X77429000Y-23048500D03*
%TO.P,J4,25,25*%
%TO.N,unconnected-(J4-Pad25)*%
X78699000Y-25778500D03*
%TO.P,J4,26,26*%
%TO.N,unconnected-(J4-Pad26)*%
X78699000Y-23048500D03*
%TO.P,J4,27,27*%
%TO.N,SBC_RS232-1-Tx*%
X79969000Y-25778500D03*
%TO.P,J4,28,28*%
%TO.N,unconnected-(J4-Pad28)*%
X79969000Y-23048500D03*
%TO.P,J4,29,29*%
%TO.N,SBC_RS232-1-Rx*%
X81239000Y-25778500D03*
%TO.P,J4,30,30*%
%TO.N,unconnected-(J4-Pad30)*%
X81239000Y-23048500D03*
%TO.P,J4,31,31*%
%TO.N,unconnected-(J4-Pad31)*%
X82509000Y-25778500D03*
%TO.P,J4,32,32*%
%TO.N,unconnected-(J4-Pad32)*%
X82509000Y-23048500D03*
%TO.P,J4,33,33*%
%TO.N,unconnected-(J4-Pad33)*%
X83779000Y-25778500D03*
%TO.P,J4,34,34*%
%TO.N,unconnected-(J4-Pad34)*%
X83779000Y-23048500D03*
%TO.P,J4,35,35*%
%TO.N,unconnected-(J4-Pad35)*%
X85049000Y-25778500D03*
%TO.P,J4,36,36*%
%TO.N,unconnected-(J4-Pad36)*%
X85049000Y-23048500D03*
%TO.P,J4,37,37*%
%TO.N,SBC_Debug-Rx*%
X86319000Y-25778500D03*
%TO.P,J4,38,38*%
%TO.N,SBC_Debug-Tx*%
X86319000Y-23048500D03*
%TO.P,J4,39,39*%
%TO.N,GND*%
X87589000Y-25778500D03*
%TO.P,J4,40,40*%
X87589000Y-23048500D03*
%TD*%
D15*
%TO.N,GND*%
X51250000Y-27350000D03*
X44350000Y-30125000D03*
X36975000Y-29125000D03*
X47450000Y-34625000D03*
X53475000Y-26125000D03*
X53450000Y-29200000D03*
X59600000Y-21350000D03*
X30050000Y-38350000D03*
X30025000Y-33875000D03*
X30050000Y-30125000D03*
X30050000Y-26200000D03*
X30050000Y-21675000D03*
%TO.N,USB1 VBUS*%
X39050000Y-27400000D03*
%TO.N,GND*%
X42150000Y-37650000D03*
X50975000Y-22350000D03*
X51100000Y-37625000D03*
X67269000Y-21006000D03*
X46975000Y-29050735D03*
X41900000Y-21450000D03*
X43185754Y-27446415D03*
X71050000Y-21400000D03*
X66700000Y-33475000D03*
X72700000Y-33475000D03*
X68700000Y-33475000D03*
X63459000Y-21400000D03*
X70700000Y-33475000D03*
X87575000Y-27425000D03*
X58100000Y-37700000D03*
X65750000Y-29925000D03*
X35150000Y-37750000D03*
X38100000Y-27300000D03*
X45725000Y-21450000D03*
%TO.N,USB1_D_P*%
X40650000Y-32225000D03*
%TO.N,USB1_RX_N*%
X36650000Y-32100000D03*
%TO.N,USB1_D_N*%
X41650000Y-32200000D03*
%TO.N,USB1_TX_N*%
X38650000Y-32175000D03*
%TO.N,USB1_TX_P*%
X37625000Y-32150000D03*
%TO.N,USB1_RX_P*%
X35650000Y-32125000D03*
%TO.N,USB0_TX_N*%
X44500000Y-21425000D03*
%TO.N,USB0_D_P*%
X48250000Y-21425000D03*
%TO.N,USB0 VBUS*%
X59625000Y-30575000D03*
%TO.N,USB0_TX_P*%
X43200000Y-21375000D03*
%TO.N,USB0_D_N*%
X46975000Y-21425000D03*
%TO.N,USB0_RX_N*%
X40650000Y-21375000D03*
%TO.N,USB0_RX_P*%
X39375000Y-21375000D03*
%TO.N,SBC_RS232-1-Rx*%
X81275000Y-27400000D03*
%TO.N,SBC_RS232-0-Tx*%
X76100000Y-21400000D03*
%TO.N,SBC_RS232-0-Rx*%
X77425000Y-21375000D03*
%TO.N,SBC_RS232-1-Tx*%
X79961765Y-27438235D03*
%TO.N,Net-(J4-Pad5)*%
X75600000Y-28050000D03*
%TO.N,Net-(J4-Pad3)*%
X70850000Y-28775000D03*
%TO.N,Net-(J4-Pad4)*%
X64725000Y-21250000D03*
%TO.N,Net-(J4-Pad6)*%
X65999000Y-21226000D03*
%TO.N,3.3v*%
X65675000Y-27425000D03*
X69825000Y-21400000D03*
%TD*%
D16*
%TO.N,USB1 VBUS*%
X39375000Y-25778500D02*
X39375000Y-27075000D01*
X39375000Y-27075000D02*
X39050000Y-27400000D01*
%TO.N,GND*%
X71079000Y-23048500D02*
X71079000Y-25778500D01*
D17*
X41915000Y-21465000D02*
X41900000Y-21450000D01*
D16*
X67269000Y-21006000D02*
X67269000Y-23048500D01*
D18*
X50233500Y-22350000D02*
X49535000Y-23048500D01*
D16*
X71079000Y-21429000D02*
X71050000Y-21400000D01*
D17*
X43185000Y-25100000D02*
X43185000Y-25778500D01*
D16*
X87589000Y-25778500D02*
X87589000Y-27411000D01*
D18*
X46997048Y-25780548D02*
X46995000Y-25778500D01*
D17*
X45725000Y-23048500D02*
X45725000Y-23788500D01*
D18*
X46975000Y-29050735D02*
X46997048Y-29028687D01*
X46997048Y-29028687D02*
X46997048Y-25780548D01*
D16*
X87589000Y-25778500D02*
X87589000Y-23048500D01*
D18*
X45725000Y-23788500D02*
X45725000Y-21450000D01*
D16*
X67269000Y-23048500D02*
X67269000Y-25778500D01*
D17*
X38100000Y-27300000D02*
X38105000Y-27295000D01*
X43185754Y-27446415D02*
X43185753Y-27446415D01*
D16*
X63459000Y-23048500D02*
X63459000Y-25778500D01*
D17*
X41915000Y-23048500D02*
X41915000Y-23830000D01*
D16*
X63459000Y-21400000D02*
X63459000Y-23048500D01*
D18*
X50975000Y-22350000D02*
X50233500Y-22350000D01*
X38105000Y-27295000D02*
X38105000Y-25778500D01*
D17*
X43185753Y-27446415D02*
X43185000Y-27445662D01*
D16*
X87589000Y-27411000D02*
X87575000Y-27425000D01*
D17*
X41915000Y-23048500D02*
X41915000Y-23788500D01*
D18*
X43185000Y-27445662D02*
X43185000Y-25778500D01*
X41915000Y-23788500D02*
X41915000Y-21465000D01*
D16*
X71079000Y-23048500D02*
X71079000Y-21429000D01*
D19*
%TO.N,USB1_D_P*%
X45044630Y-32925000D02*
X41350000Y-32925000D01*
X49535000Y-27443501D02*
X49214400Y-27764101D01*
X49214400Y-27764101D02*
X49214400Y-28755230D01*
X41350000Y-32925000D02*
X40650000Y-32225000D01*
X49535000Y-25778500D02*
X49535000Y-27443501D01*
X49214400Y-28755230D02*
X45044630Y-32925000D01*
%TO.N,USB1_RX_N*%
X36650000Y-32014258D02*
X36650000Y-32100000D01*
X41594400Y-27175230D02*
X37277165Y-31492465D01*
X37277165Y-31492465D02*
X37171793Y-31492465D01*
X37171793Y-31492465D02*
X36650000Y-32014258D01*
X41915000Y-26518500D02*
X41594400Y-26839100D01*
X41915000Y-25778500D02*
X41915000Y-26518500D01*
X41594400Y-26839100D02*
X41594400Y-27175230D01*
%TO.N,USB1_D_N*%
X45435274Y-30735612D02*
X45346800Y-30824085D01*
X44881455Y-32198915D02*
X44880370Y-32200000D01*
X48265000Y-27443501D02*
X48585600Y-27764101D01*
X46332381Y-30747986D02*
X46243909Y-30836460D01*
X46320031Y-29850903D02*
X46231557Y-29939376D01*
X45447648Y-31632719D02*
X45359176Y-31721193D01*
D17*
X48265000Y-25778500D02*
X48265000Y-26412103D01*
D19*
X45346800Y-31177978D02*
X45447648Y-31278826D01*
X45890016Y-30836461D02*
X45789167Y-30735612D01*
X48585600Y-27764101D02*
X48585600Y-28494770D01*
X46231557Y-30293269D02*
X46332381Y-30394093D01*
X45359176Y-31721193D02*
X44881455Y-32198915D01*
X48585600Y-28494770D02*
X47128642Y-29951728D01*
X44228500Y-32200000D02*
X41650000Y-32200000D01*
X46774749Y-29951728D02*
X46673924Y-29850903D01*
X44880370Y-32200000D02*
X44228500Y-32200000D01*
X46243909Y-30836460D02*
X46243909Y-30836461D01*
X48265000Y-25778500D02*
X48265000Y-27443501D01*
X45789167Y-30735612D02*
G75*
G03*
X45435275Y-30735612I-176946J-176945D01*
G01*
X45346800Y-30824085D02*
G75*
G03*
X45346831Y-31177946I176900J-176915D01*
G01*
X46673924Y-29850903D02*
G75*
G03*
X46320032Y-29850903I-176946J-176945D01*
G01*
X45447648Y-31278826D02*
G75*
G02*
X45447676Y-31632746I-176948J-176974D01*
G01*
X46243909Y-30836461D02*
G75*
G02*
X45890017Y-30836461I-176946J176945D01*
G01*
X46231557Y-29939376D02*
G75*
G03*
X46231579Y-30293246I176943J-176924D01*
G01*
X46332381Y-30394093D02*
G75*
G02*
X46332342Y-30747947I-176981J-176907D01*
G01*
X47128642Y-29951728D02*
G75*
G02*
X46774750Y-29951728I-176946J176945D01*
G01*
%TO.N,USB1_TX_N*%
X45725000Y-25778500D02*
X45725000Y-26518500D01*
X45404400Y-26839100D02*
X45404400Y-27165230D01*
X45725000Y-26518500D02*
X45404400Y-26839100D01*
X38650000Y-31914400D02*
X39350000Y-31214400D01*
X45404400Y-27165230D02*
X41355230Y-31214400D01*
X38650000Y-32175000D02*
X38650000Y-31914400D01*
X41355230Y-31214400D02*
X39350000Y-31214400D01*
%TO.N,USB1_TX_P*%
X44775600Y-26904770D02*
X41094770Y-30585600D01*
X41094770Y-30585600D02*
X39094068Y-30585600D01*
X37625000Y-32054668D02*
X37625000Y-32150000D01*
X44455000Y-26518500D02*
X44775600Y-26839100D01*
X44455000Y-25778500D02*
X44455000Y-26518500D01*
X39094068Y-30585600D02*
X37625000Y-32054668D01*
X44775600Y-26839100D02*
X44775600Y-26904770D01*
%TO.N,USB1_RX_P*%
X40645000Y-26518500D02*
X40965600Y-26839100D01*
X35937200Y-31837800D02*
X35650000Y-32125000D01*
X36354748Y-31387200D02*
X35937200Y-31804748D01*
X35937200Y-31804748D02*
X35937200Y-31837800D01*
X40965600Y-26914770D02*
X37002685Y-30877685D01*
X37002685Y-30877685D02*
X36897315Y-30877685D01*
X40645000Y-25778500D02*
X40645000Y-26518500D01*
X36387800Y-31387200D02*
X36354748Y-31387200D01*
X36897315Y-30877685D02*
X36387800Y-31387200D01*
X40965600Y-26839100D02*
X40965600Y-26914770D01*
D18*
%TO.N,USB0_TX_N*%
X44500000Y-21425000D02*
X44500000Y-23003500D01*
D17*
X44500000Y-23003500D02*
X44455000Y-23048500D01*
%TO.N,USB0_D_P*%
X48265000Y-21440000D02*
X48250000Y-21425000D01*
D18*
X48265000Y-23048500D02*
X48265000Y-21440000D01*
D16*
%TO.N,USB0 VBUS*%
X54050000Y-20550000D02*
X59625000Y-26125000D01*
X38105000Y-23048500D02*
X38105000Y-21170000D01*
X59625000Y-26125000D02*
X59625000Y-30575000D01*
X38105000Y-21170000D02*
X38725000Y-20550000D01*
X38725000Y-20550000D02*
X54050000Y-20550000D01*
D17*
%TO.N,USB0_TX_P*%
X43185000Y-21390000D02*
X43200000Y-21375000D01*
D18*
X43185000Y-23048500D02*
X43185000Y-21390000D01*
%TO.N,USB0_D_N*%
X46995000Y-23048500D02*
X46995000Y-21445000D01*
D17*
X46995000Y-21445000D02*
X46975000Y-21425000D01*
%TO.N,USB0_RX_N*%
X40650000Y-21375000D02*
X40645000Y-21380000D01*
D18*
X40645000Y-21380000D02*
X40645000Y-23048500D01*
%TO.N,USB0_RX_P*%
X39375000Y-23048500D02*
X39375000Y-21525000D01*
D17*
%TO.N,SBC_RS232-1-Rx*%
X81239000Y-27364000D02*
X81275000Y-27400000D01*
X81239000Y-25778500D02*
X81239000Y-27364000D01*
%TO.N,SBC_RS232-0-Tx*%
X76159000Y-23048500D02*
X76159000Y-21459000D01*
X76159000Y-21459000D02*
X76100000Y-21400000D01*
%TO.N,SBC_RS232-0-Rx*%
X77429000Y-23048500D02*
X77429000Y-21379000D01*
X77429000Y-21379000D02*
X77425000Y-21375000D01*
%TO.N,SBC_RS232-1-Tx*%
X79969000Y-25778500D02*
X79969000Y-27431000D01*
X79969000Y-27431000D02*
X79961765Y-27438235D01*
%TO.N,Net-(J4-Pad5)*%
X65999000Y-26518500D02*
X65999000Y-25778500D01*
X67555500Y-28075000D02*
X65999000Y-26518500D01*
X75575000Y-28075000D02*
X67555500Y-28075000D01*
X75600000Y-28050000D02*
X75575000Y-28075000D01*
%TO.N,Net-(J4-Pad3)*%
X64729000Y-28079000D02*
X64729000Y-25778500D01*
X65425000Y-28775000D02*
X64729000Y-28079000D01*
X70850000Y-28775000D02*
X65425000Y-28775000D01*
%TO.N,Net-(J4-Pad4)*%
X64725000Y-21250000D02*
X64729000Y-21254000D01*
X64729000Y-21254000D02*
X64729000Y-23048500D01*
%TO.N,Net-(J4-Pad6)*%
X65999000Y-21226000D02*
X65999000Y-23048500D01*
%TO.N,SBC_Debug-Rx*%
X86319000Y-25778500D02*
X86319000Y-27969000D01*
X96150000Y-29400000D02*
X96150000Y-28225000D01*
X88300000Y-29950000D02*
X95600000Y-29950000D01*
X95600000Y-29950000D02*
X96150000Y-29400000D01*
X86319000Y-27969000D02*
X88300000Y-29950000D01*
%TO.N,SBC_Debug-Tx*%
X93610000Y-25510000D02*
X93610000Y-28225000D01*
X89425000Y-21325000D02*
X93610000Y-25510000D01*
X87302500Y-21325000D02*
X89425000Y-21325000D01*
X86319000Y-22308500D02*
X87302500Y-21325000D01*
X86319000Y-23048500D02*
X86319000Y-22308500D01*
D16*
%TO.N,3.3v*%
X69809000Y-23048500D02*
X69809000Y-21416000D01*
X69809000Y-23048500D02*
X69807500Y-23050000D01*
X69809000Y-21416000D02*
X69825000Y-21400000D01*
X69809000Y-23048500D02*
X68539000Y-23048500D01*
%TO.N,5v*%
X69809000Y-25778500D02*
X68539000Y-25778500D01*
%TD*%
M02*
