%TF.GenerationSoftware,KiCad,Pcbnew,9.0.7*%
%TF.CreationDate,2026-03-24T12:36:22-07:00*%
%TF.ProjectId,hadron_io_breakouts,68616472-6f6e-45f6-996f-5f627265616b,rev?*%
%TF.SameCoordinates,Original*%
%TF.FileFunction,Copper,L1,Top*%
%TF.FilePolarity,Positive*%
%FSLAX46Y46*%
G04 Gerber Fmt 4.6, Leading zero omitted, Abs format (unit mm)*
G04 Created by KiCad (PCBNEW 9.0.7) date 2026-03-24 12:36:22*
%MOMM*%
%LPD*%
G01*
G04 APERTURE LIST*
G04 Aperture macros list*
%AMRoundRect*
0 Rectangle with rounded corners*
0 $1 Rounding radius*
0 $2 $3 $4 $5 $6 $7 $8 $9 X,Y pos of 4 corners*
0 Add a 4 corners polygon primitive as box body*
4,1,4,$2,$3,$4,$5,$6,$7,$8,$9,$2,$3,0*
0 Add four circle primitives for the rounded corners*
1,1,$1+$1,$2,$3*
1,1,$1+$1,$4,$5*
1,1,$1+$1,$6,$7*
1,1,$1+$1,$8,$9*
0 Add four rect primitives between the rounded corners*
20,1,$1+$1,$2,$3,$4,$5,0*
20,1,$1+$1,$4,$5,$6,$7,0*
20,1,$1+$1,$6,$7,$8,$9,0*
20,1,$1+$1,$8,$9,$2,$3,0*%
G04 Aperture macros list end*
%TA.AperFunction,SMDPad,CuDef*%
%ADD10R,1.092200X2.895600*%
%TD*%
%TA.AperFunction,SMDPad,CuDef*%
%ADD11R,0.660400X1.701800*%
%TD*%
%TA.AperFunction,SMDPad,CuDef*%
%ADD12RoundRect,0.250000X0.450000X-0.262500X0.450000X0.262500X-0.450000X0.262500X-0.450000X-0.262500X0*%
%TD*%
%TA.AperFunction,SMDPad,CuDef*%
%ADD13RoundRect,0.250000X-0.262500X-0.450000X0.262500X-0.450000X0.262500X0.450000X-0.262500X0.450000X0*%
%TD*%
%TA.AperFunction,ComponentPad*%
%ADD14C,0.800000*%
%TD*%
%TA.AperFunction,ComponentPad*%
%ADD15C,5.400000*%
%TD*%
%TA.AperFunction,SMDPad,CuDef*%
%ADD16RoundRect,0.250000X0.262500X0.450000X-0.262500X0.450000X-0.262500X-0.450000X0.262500X-0.450000X0*%
%TD*%
%TA.AperFunction,SMDPad,CuDef*%
%ADD17R,0.600000X1.700000*%
%TD*%
%TA.AperFunction,SMDPad,CuDef*%
%ADD18R,1.000000X2.800000*%
%TD*%
%TA.AperFunction,SMDPad,CuDef*%
%ADD19R,0.300000X1.800000*%
%TD*%
%TA.AperFunction,ComponentPad*%
%ADD20R,1.700000X1.700000*%
%TD*%
%TA.AperFunction,ComponentPad*%
%ADD21O,1.700000X1.700000*%
%TD*%
%TA.AperFunction,ViaPad*%
%ADD22C,0.600000*%
%TD*%
%TA.AperFunction,ViaPad*%
%ADD23C,0.460000*%
%TD*%
%TA.AperFunction,Conductor*%
%ADD24C,0.340000*%
%TD*%
%TA.AperFunction,Conductor*%
%ADD25C,0.350000*%
%TD*%
%TA.AperFunction,Conductor*%
%ADD26C,0.200000*%
%TD*%
%TA.AperFunction,Conductor*%
%ADD27C,0.315000*%
%TD*%
G04 APERTURE END LIST*
D10*
%TO.P,J6,*%
%TO.N,*%
X74800000Y-37708574D03*
X65600000Y-37733340D03*
D11*
%TO.P,J6,1,1*%
%TO.N,SBC_GPIO13*%
X73700000Y-32100000D03*
%TO.P,J6,2,2*%
%TO.N,GND*%
X72700000Y-32100000D03*
%TO.P,J6,3,3*%
%TO.N,SBC_GPIO12*%
X71699999Y-32100000D03*
%TO.P,J6,4,4*%
%TO.N,GND*%
X70700001Y-32100000D03*
%TO.P,J6,5,5*%
%TO.N,SBC_GPIO11*%
X69700000Y-32100000D03*
%TO.P,J6,6,6*%
%TO.N,GND*%
X68700000Y-32100000D03*
%TO.P,J6,7,7*%
%TO.N,SBC_GPIO10*%
X67700000Y-32100000D03*
%TO.P,J6,8,8*%
%TO.N,GND*%
X66700000Y-32100000D03*
%TD*%
D12*
%TO.P,R4,1*%
%TO.N,SBC_GPIO13*%
X74325000Y-29912500D03*
%TO.P,R4,2*%
%TO.N,Net-(J4-Pad5)*%
X74325000Y-28087500D03*
%TD*%
%TO.P,R3,1*%
%TO.N,SBC_GPIO12*%
X72175000Y-29912500D03*
%TO.P,R3,2*%
%TO.N,Net-(J4-Pad3)*%
X72175000Y-28087500D03*
%TD*%
D13*
%TO.P,R1,1*%
%TO.N,GND*%
X66537500Y-28725000D03*
%TO.P,R1,2*%
%TO.N,SBC_GPIO11*%
X68362500Y-28725000D03*
%TD*%
D12*
%TO.P,R7,1*%
%TO.N,SBC_GPIO11*%
X66700000Y-24137500D03*
%TO.P,R7,2*%
%TO.N,Net-(J4-Pad6)*%
X66700000Y-22312500D03*
%TD*%
%TO.P,R8,1*%
%TO.N,SBC_GPIO10*%
X64750000Y-24187500D03*
%TO.P,R8,2*%
%TO.N,Net-(J4-Pad4)*%
X64750000Y-22362500D03*
%TD*%
D14*
%TO.P,REF\u002A\u002A,1*%
%TO.N,GND*%
X98515000Y-25000000D03*
X99108109Y-23568109D03*
X99108109Y-26431891D03*
X100540000Y-22975000D03*
D15*
%TO.P,REF\u002A\u002A,2*%
X100540000Y-25000000D03*
D14*
%TO.P,REF\u002A\u002A,1*%
X100540000Y-27025000D03*
X101971891Y-23568109D03*
X101971891Y-26431891D03*
X102565000Y-25000000D03*
%TD*%
D16*
%TO.P,R5,1*%
%TO.N,SBC_GPIO11*%
X68250000Y-26150000D03*
%TO.P,R5,2*%
%TO.N,3.3v*%
X66425000Y-26150000D03*
%TD*%
D17*
%TO.P,J5,1,1*%
%TO.N,SBC_RS232-0-Tx*%
X81800000Y-32550000D03*
%TO.P,J5,2,2*%
%TO.N,SBC_RS232-0-Rx*%
X82800000Y-32550000D03*
%TO.P,J5,3,3*%
%TO.N,SBC_RS232-1-Tx*%
X83800000Y-32550000D03*
%TO.P,J5,4,4*%
%TO.N,SBC_RS232-1-Rx*%
X84800000Y-32550000D03*
D18*
%TO.P,J5,MP1,MP1*%
%TO.N,unconnected-(J5-PadMP1)*%
X80700000Y-37700000D03*
%TO.P,J5,MP2,MP2*%
%TO.N,unconnected-(J5-PadMP2)*%
X85900000Y-37700000D03*
%TD*%
D14*
%TO.P,REF\u002A\u002A,1*%
%TO.N,GND*%
X22975000Y-25000000D03*
X23568109Y-23568109D03*
X23568109Y-26431891D03*
X25000000Y-22975000D03*
D15*
X25000000Y-25000000D03*
D14*
X25000000Y-27025000D03*
X26431891Y-23568109D03*
X26431891Y-26431891D03*
X27025000Y-25000000D03*
%TD*%
D19*
%TO.P,J3,1,1*%
%TO.N,USB0 VBUS*%
X55320000Y-33240000D03*
%TO.P,J3,2,2*%
X54820000Y-35940000D03*
%TO.P,J3,3,3*%
%TO.N,GND*%
X54320000Y-33240000D03*
%TO.P,J3,4,4*%
X53820000Y-35940000D03*
%TO.P,J3,5,5*%
%TO.N,USB0_D_N*%
X53320000Y-33240000D03*
%TO.P,J3,6,6*%
%TO.N,GND*%
X52820000Y-35940000D03*
%TO.P,J3,7,7*%
%TO.N,USB0_D_P*%
X52320000Y-33240000D03*
%TO.P,J3,8,8*%
%TO.N,GND*%
X51820000Y-35940000D03*
%TO.P,J3,9,9*%
%TO.N,unconnected-(J3-Pad9)*%
X51320000Y-33240000D03*
%TO.P,J3,10,10*%
%TO.N,GND*%
X50820000Y-35940000D03*
%TO.P,J3,11,11*%
%TO.N,USB0_TX_N*%
X50320000Y-33240000D03*
%TO.P,J3,12,12*%
%TO.N,GND*%
X49820000Y-35940000D03*
%TO.P,J3,13,13*%
%TO.N,USB0_TX_P*%
X49320000Y-33240000D03*
%TO.P,J3,14,14*%
%TO.N,GND*%
X48820000Y-35940000D03*
%TO.P,J3,15,15*%
%TO.N,USB0_RX_N*%
X48320000Y-33240000D03*
%TO.P,J3,16,16*%
%TO.N,GND*%
X47820000Y-35940000D03*
%TO.P,J3,17,17*%
%TO.N,USB0_RX_P*%
X47320000Y-33240000D03*
%TO.P,J3,18,18*%
%TO.N,GND*%
X46820000Y-35940000D03*
%TO.P,J3,S1*%
X56320000Y-33240000D03*
%TO.P,J3,S2*%
X56320000Y-35940000D03*
%TO.P,J3,S3*%
X45820000Y-35940000D03*
%TO.P,J3,S4*%
X45820000Y-33240000D03*
%TD*%
D13*
%TO.P,R6,1*%
%TO.N,SBC_GPIO10*%
X62875000Y-26150000D03*
%TO.P,R6,2*%
%TO.N,3.3v*%
X64700000Y-26150000D03*
%TD*%
D20*
%TO.P,J7,1,Pin_1*%
%TO.N,SBC_Debug-Rx*%
X96150000Y-28225000D03*
D21*
%TO.P,J7,2,Pin_2*%
%TO.N,SBC_Debug-Tx*%
X93610000Y-28225000D03*
%TO.P,J7,3,Pin_3*%
%TO.N,GND*%
X91070000Y-28225000D03*
%TD*%
D16*
%TO.P,R2,1*%
%TO.N,GND*%
X64812500Y-28730000D03*
%TO.P,R2,2*%
%TO.N,SBC_GPIO10*%
X62987500Y-28730000D03*
%TD*%
D19*
%TO.P,J1,1,1*%
%TO.N,USB1 VBUS*%
X40820000Y-33240000D03*
%TO.P,J1,2,2*%
X40320000Y-35940000D03*
%TO.P,J1,3,3*%
%TO.N,GND*%
X39820000Y-33240000D03*
%TO.P,J1,4,4*%
X39320000Y-35940000D03*
%TO.P,J1,5,5*%
%TO.N,USB1_D_N*%
X38820000Y-33240000D03*
%TO.P,J1,6,6*%
%TO.N,GND*%
X38320000Y-35940000D03*
%TO.P,J1,7,7*%
%TO.N,USB1_D_P*%
X37820000Y-33240000D03*
%TO.P,J1,8,8*%
%TO.N,GND*%
X37320000Y-35940000D03*
%TO.P,J1,9,9*%
%TO.N,unconnected-(J1-Pad9)*%
X36820000Y-33240000D03*
%TO.P,J1,10,10*%
%TO.N,GND*%
X36320000Y-35940000D03*
%TO.P,J1,11,11*%
%TO.N,USB1_TX_N*%
X35820000Y-33240000D03*
%TO.P,J1,12,12*%
%TO.N,GND*%
X35320000Y-35940000D03*
%TO.P,J1,13,13*%
%TO.N,USB1_TX_P*%
X34820000Y-33240000D03*
%TO.P,J1,14,14*%
%TO.N,GND*%
X34320000Y-35940000D03*
%TO.P,J1,15,15*%
%TO.N,USB1_RX_N*%
X33820000Y-33240000D03*
%TO.P,J1,16,16*%
%TO.N,GND*%
X33320000Y-35940000D03*
%TO.P,J1,17,17*%
%TO.N,USB1_RX_P*%
X32820000Y-33240000D03*
%TO.P,J1,18,18*%
%TO.N,GND*%
X32320000Y-35940000D03*
%TO.P,J1,S1*%
X41820000Y-33240000D03*
%TO.P,J1,S2*%
X41820000Y-35940000D03*
%TO.P,J1,S3*%
X31320000Y-35940000D03*
%TO.P,J1,S4*%
X31320000Y-33240000D03*
%TD*%
D22*
%TO.N,GND*%
X46980000Y-27200000D03*
X50480000Y-22740000D03*
X45720000Y-21660000D03*
X41915000Y-21660000D03*
X42410000Y-28030000D03*
X57220000Y-35950000D03*
X30370000Y-35940000D03*
X44010000Y-35900000D03*
%TO.N,USB0 VBUS*%
X55320000Y-31390000D03*
%TO.N,GND*%
X37160000Y-25990000D03*
%TO.N,USB1 VBUS*%
X39370000Y-27190000D03*
D23*
%TO.N,USB1_TX_N*%
X35625000Y-30753524D03*
%TO.N,USB1_TX_P*%
X35015000Y-30489136D03*
%TO.N,USB1_RX_N*%
X33655000Y-31638181D03*
%TO.N,USB1_RX_P*%
X32995000Y-31638181D03*
%TO.N,USB1_D_P*%
X37995000Y-31736485D03*
%TO.N,USB1_D_N*%
X38620000Y-31110000D03*
D22*
%TO.N,3.3v*%
X69800000Y-27590000D03*
X67340000Y-27580000D03*
D23*
%TO.N,USB0_D_N*%
X47305000Y-21475164D03*
%TO.N,USB0_D_P*%
X47965000Y-21475164D03*
%TO.N,USB0_TX_N*%
X44145000Y-21444011D03*
%TO.N,USB0_TX_P*%
X43485000Y-21444011D03*
%TO.N,USB0_RX_P*%
X39685000Y-21370000D03*
%TO.N,USB0_RX_N*%
X40345000Y-21370000D03*
D22*
%TO.N,GND*%
X67269000Y-21006000D03*
X71050000Y-21400000D03*
X66700000Y-33475000D03*
X72700000Y-33475000D03*
X68700000Y-33475000D03*
X63459000Y-21400000D03*
X70700000Y-33475000D03*
X87575000Y-27425000D03*
X65750000Y-29925000D03*
%TO.N,SBC_RS232-1-Rx*%
X81275000Y-27400000D03*
%TO.N,SBC_RS232-0-Tx*%
X76100000Y-21400000D03*
%TO.N,SBC_RS232-0-Rx*%
X77425000Y-21375000D03*
%TO.N,SBC_RS232-1-Tx*%
X79961765Y-27438235D03*
%TO.N,Net-(J4-Pad5)*%
X75600000Y-28050000D03*
%TO.N,Net-(J4-Pad3)*%
X70575000Y-29050000D03*
%TO.N,Net-(J4-Pad4)*%
X64725000Y-21250000D03*
%TO.N,Net-(J4-Pad6)*%
X65999000Y-21226000D03*
%TO.N,3.3v*%
X69825000Y-21400000D03*
%TD*%
D24*
%TO.N,USB0_TX_N*%
X50320000Y-31889999D02*
X50320000Y-33240000D01*
X50115000Y-31684999D02*
X50320000Y-31889999D01*
X50115000Y-27487806D02*
X50115000Y-31684999D01*
X44115001Y-21487807D02*
X50115000Y-27487806D01*
X44145000Y-21444011D02*
X44115001Y-21474010D01*
%TO.N,USB0_TX_P*%
X49320000Y-31889999D02*
X49320000Y-33240000D01*
X43524999Y-21732193D02*
X49525000Y-27732194D01*
X43495000Y-21444011D02*
X43524999Y-21474010D01*
%TO.N,USB0_TX_N*%
X44115001Y-21474010D02*
X44115001Y-21487807D01*
%TO.N,USB0_TX_P*%
X49525000Y-27732194D02*
X49525000Y-31684999D01*
X49525000Y-31684999D02*
X49320000Y-31889999D01*
X43524999Y-21474010D02*
X43524999Y-21732193D01*
D25*
%TO.N,USB1 VBUS*%
X40820000Y-28760000D02*
X40820000Y-33240000D01*
X39370000Y-27190000D02*
X39370000Y-27310000D01*
X39370000Y-27310000D02*
X40820000Y-28760000D01*
%TO.N,GND*%
X45820000Y-33240000D02*
X45820000Y-35940000D01*
X57210000Y-35940000D02*
X57220000Y-35950000D01*
X56320000Y-35940000D02*
X57210000Y-35940000D01*
X31320000Y-35940000D02*
X30370000Y-35940000D01*
X31320000Y-33240000D02*
X31320000Y-35940000D01*
X31320000Y-35940000D02*
X32320000Y-35940000D01*
X50820000Y-35940000D02*
X51820000Y-35940000D01*
X52820000Y-35940000D02*
X51820000Y-35940000D01*
X53820000Y-35940000D02*
X52820000Y-35940000D01*
X56320000Y-33240000D02*
X56320000Y-35940000D01*
X54320000Y-34260000D02*
X54320000Y-33240000D01*
X53820000Y-34760000D02*
X54320000Y-34260000D01*
X53820000Y-35940000D02*
X53820000Y-34760000D01*
X49820000Y-35940000D02*
X50820000Y-35940000D01*
X48820000Y-35940000D02*
X49820000Y-35940000D01*
X47820000Y-35940000D02*
X48820000Y-35940000D01*
X46820000Y-35940000D02*
X47820000Y-35940000D01*
X45820000Y-35940000D02*
X46820000Y-35940000D01*
X44050000Y-35940000D02*
X44010000Y-35900000D01*
X45820000Y-35940000D02*
X44050000Y-35940000D01*
X43970000Y-35940000D02*
X44010000Y-35900000D01*
X41820000Y-35940000D02*
X43970000Y-35940000D01*
X41820000Y-33240000D02*
X41820000Y-35940000D01*
X39820000Y-34380000D02*
X39820000Y-33240000D01*
X39320000Y-34880000D02*
X39820000Y-34380000D01*
X39320000Y-35940000D02*
X39320000Y-34880000D01*
X38320000Y-35940000D02*
X39320000Y-35940000D01*
X37320000Y-35940000D02*
X38320000Y-35940000D01*
X36320000Y-35940000D02*
X37320000Y-35940000D01*
X35320000Y-35940000D02*
X36320000Y-35940000D01*
X34320000Y-35940000D02*
X35320000Y-35940000D01*
X33320000Y-35940000D02*
X34320000Y-35940000D01*
X32320000Y-35940000D02*
X33320000Y-35940000D01*
D24*
%TO.N,USB0_RX_N*%
X48320000Y-32675334D02*
X48320000Y-33240000D01*
X48083588Y-31416394D02*
X48083588Y-32438922D01*
X40305001Y-23637807D02*
X48083588Y-31416394D01*
X40305001Y-21399999D02*
X40305001Y-23637807D01*
X40335000Y-21370000D02*
X40305001Y-21399999D01*
X48083588Y-32438922D02*
X48320000Y-32675334D01*
%TO.N,USB0_RX_P*%
X39714999Y-21399999D02*
X39685000Y-21370000D01*
X39714999Y-23882193D02*
X39714999Y-21399999D01*
X44527449Y-28694643D02*
X39714999Y-23882193D01*
D25*
%TO.N,USB0 VBUS*%
X55320000Y-31390000D02*
X55320000Y-33240000D01*
X54820000Y-34670000D02*
X54820000Y-35940000D01*
X55320000Y-34170000D02*
X54820000Y-34670000D01*
X55320000Y-33240000D02*
X55320000Y-34170000D01*
D24*
%TO.N,USB1_TX_N*%
X35615001Y-31669999D02*
X35615001Y-33035001D01*
X35615000Y-31669998D02*
X35615001Y-31669999D01*
X35615000Y-30743524D02*
X35615000Y-31669998D01*
X35615001Y-33035001D02*
X35820000Y-33240000D01*
%TO.N,USB1_TX_P*%
X35024999Y-33035001D02*
X34820000Y-33240000D01*
X35024999Y-31669999D02*
X35024999Y-33035001D01*
X35025000Y-31669998D02*
X35024999Y-31669999D01*
X35025000Y-30499136D02*
X35025000Y-31669998D01*
D25*
%TO.N,USB1 VBUS*%
X40320000Y-34890000D02*
X40320000Y-35940000D01*
X40820000Y-34390000D02*
X40320000Y-34890000D01*
X40820000Y-33240000D02*
X40820000Y-34390000D01*
D24*
%TO.N,USB1_RX_N*%
X33615001Y-31668180D02*
X33645000Y-31638181D01*
%TO.N,USB1_RX_P*%
X33024999Y-31668180D02*
X32995000Y-31638181D01*
X33024999Y-33035001D02*
X33024999Y-31668180D01*
X32820000Y-33240000D02*
X33024999Y-33035001D01*
%TO.N,USB1_RX_N*%
X33820000Y-33240000D02*
X33615001Y-33035001D01*
X33615001Y-33035001D02*
X33615001Y-31668180D01*
%TO.N,USB1_D_N*%
X38615001Y-33035001D02*
X38820000Y-33240000D01*
X38615001Y-31766484D02*
X38615001Y-33035001D01*
X38620000Y-31110000D02*
X38620000Y-31761485D01*
X38620000Y-31761485D02*
X38615001Y-31766484D01*
%TO.N,USB1_D_P*%
X38024999Y-33035001D02*
X38024999Y-31766484D01*
X38024999Y-31766484D02*
X37995000Y-31736485D01*
X37820000Y-33240000D02*
X38024999Y-33035001D01*
D26*
%TO.N,GND*%
X65760000Y-28740000D02*
X66522500Y-28740000D01*
X66522500Y-28740000D02*
X66537500Y-28725000D01*
X65750000Y-28750000D02*
X65760000Y-28740000D01*
X65740000Y-28740000D02*
X65750000Y-28750000D01*
X64822500Y-28740000D02*
X65740000Y-28740000D01*
X64812500Y-28730000D02*
X64822500Y-28740000D01*
%TO.N,3.3v*%
X69800000Y-21425000D02*
X69825000Y-21400000D01*
X69800000Y-27590000D02*
X69800000Y-21425000D01*
X66425000Y-26665000D02*
X67340000Y-27580000D01*
X66425000Y-26150000D02*
X66425000Y-26665000D01*
%TO.N,Net-(J4-Pad3)*%
X70575000Y-29050000D02*
X71537500Y-28087500D01*
X71537500Y-28087500D02*
X72175000Y-28087500D01*
%TO.N,3.3v*%
X64700000Y-26150000D02*
X64700000Y-26740000D01*
D24*
%TO.N,USB0_D_P*%
X52525000Y-23272194D02*
X52525000Y-28059662D01*
X52525000Y-31114357D02*
X52525000Y-31684999D01*
X51832986Y-28539662D02*
X51832986Y-28659662D01*
X52525000Y-29139662D02*
X52525000Y-29259662D01*
X47955000Y-21475164D02*
X47925001Y-21445165D01*
X52525000Y-30459662D02*
X52525000Y-31114357D01*
X52072986Y-28899662D02*
X52285000Y-28899662D01*
X52525000Y-30339662D02*
X52525000Y-30459662D01*
X52072966Y-30099662D02*
X52285000Y-30099662D01*
X48271458Y-20890000D02*
X50142806Y-20890000D01*
X50142806Y-20890000D02*
X52525000Y-23272194D01*
X51832966Y-29739662D02*
X51832966Y-29859662D01*
X52525000Y-31684999D02*
X52320000Y-31889999D01*
X47925001Y-21445165D02*
X47925001Y-21236457D01*
X52285000Y-28299662D02*
X52072986Y-28299662D01*
X47925001Y-21236457D02*
X48271458Y-20890000D01*
X52320000Y-31889999D02*
X52320000Y-33240000D01*
X52285000Y-29499662D02*
X52072966Y-29499662D01*
X52525000Y-29259662D02*
G75*
G02*
X52285000Y-29499700I-240000J-38D01*
G01*
X52072966Y-29499662D02*
G75*
G03*
X51832962Y-29739662I34J-240038D01*
G01*
X51832986Y-28659662D02*
G75*
G03*
X52072986Y-28899714I240014J-38D01*
G01*
X52072986Y-28299662D02*
G75*
G03*
X51832962Y-28539662I14J-240038D01*
G01*
X51832966Y-29859662D02*
G75*
G03*
X52072966Y-30099734I240034J-38D01*
G01*
X52525000Y-28059662D02*
G75*
G02*
X52285000Y-28299700I-240000J-38D01*
G01*
X52285000Y-28899662D02*
G75*
G02*
X52525038Y-29139662I0J-240038D01*
G01*
X52285000Y-30099662D02*
G75*
G02*
X52525038Y-30339662I0J-240038D01*
G01*
%TO.N,USB0_D_N*%
X47334999Y-20992071D02*
X47334999Y-21445165D01*
X48013952Y-20313118D02*
X47334999Y-20992071D01*
X50400312Y-20313118D02*
X48013952Y-20313118D01*
X53115000Y-31684999D02*
X53115000Y-23027806D01*
X53320000Y-31889999D02*
X53115000Y-31684999D01*
X53115000Y-23027806D02*
X50400312Y-20313118D01*
X53320000Y-33240000D02*
X53320000Y-31889999D01*
X47334999Y-21445165D02*
X47305000Y-21475164D01*
%TO.N,USB0_RX_P*%
X44630995Y-28798189D02*
X44546143Y-28713337D01*
X47320000Y-32838291D02*
X47493588Y-32664703D01*
X47493588Y-31660782D02*
X45394672Y-29561866D01*
X44546143Y-28713337D02*
X44527449Y-28694643D01*
X44602680Y-29165916D02*
X44630994Y-29137599D01*
X47320000Y-33240000D02*
X47320000Y-32838291D01*
X47493588Y-32664703D02*
X47493588Y-31660782D01*
X44687533Y-29590181D02*
X44602680Y-29505328D01*
X45055260Y-29561866D02*
X45026943Y-29590180D01*
X44602680Y-29505328D02*
G75*
G02*
X44602658Y-29165894I169720J169728D01*
G01*
X45394672Y-29561866D02*
G75*
G03*
X45055260Y-29561866I-169706J-169701D01*
G01*
X44630994Y-29137599D02*
G75*
G03*
X44630989Y-28798196I-169694J169699D01*
G01*
X45026943Y-29590180D02*
G75*
G02*
X44687495Y-29590219I-169743J169680D01*
G01*
D26*
%TO.N,GND*%
X70700001Y-33474999D02*
X70700000Y-33475000D01*
X65750000Y-29925000D02*
X65750000Y-28750000D01*
X68700000Y-32100000D02*
X68700000Y-33475000D01*
X66700000Y-32100000D02*
X66700000Y-33475000D01*
X66537500Y-28725000D02*
X66537500Y-29137500D01*
X70700001Y-32100000D02*
X70700001Y-33474999D01*
X72700000Y-32100000D02*
X72700000Y-33475000D01*
D27*
%TO.N,USB0_RX_N*%
X48320000Y-32680000D02*
X48320000Y-33240000D01*
D26*
%TO.N,SBC_RS232-1-Rx*%
X81275000Y-27400000D02*
X84800000Y-30925000D01*
X84800000Y-30925000D02*
X84800000Y-32550000D01*
%TO.N,SBC_RS232-0-Tx*%
X76100000Y-25150000D02*
X81800000Y-30850000D01*
X81800000Y-30850000D02*
X81800000Y-32550000D01*
X76100000Y-21400000D02*
X76100000Y-25150000D01*
%TO.N,SBC_RS232-0-Rx*%
X82800000Y-31125000D02*
X82800000Y-32550000D01*
X77425000Y-25750000D02*
X82800000Y-31125000D01*
X77425000Y-21375000D02*
X77425000Y-25750000D01*
%TO.N,SBC_RS232-1-Tx*%
X79961765Y-27438235D02*
X83800000Y-31276470D01*
X83800000Y-31276470D02*
X83800000Y-32550000D01*
%TO.N,SBC_GPIO11*%
X68037500Y-24137500D02*
X68250000Y-24350000D01*
X68250000Y-24350000D02*
X68250000Y-26150000D01*
X68250000Y-26150000D02*
X68250000Y-28612500D01*
X66700000Y-24137500D02*
X68037500Y-24137500D01*
X69700000Y-30062500D02*
X69700000Y-32100000D01*
X68250000Y-28612500D02*
X68362500Y-28725000D01*
X68362500Y-28725000D02*
X69700000Y-30062500D01*
%TO.N,Net-(J4-Pad5)*%
X75600000Y-28050000D02*
X75562500Y-28087500D01*
X75562500Y-28087500D02*
X74325000Y-28087500D01*
%TO.N,SBC_GPIO10*%
X64837500Y-30525000D02*
X67200000Y-30525000D01*
X62875000Y-25500000D02*
X62875000Y-26150000D01*
X67200000Y-30525000D02*
X67700000Y-31025000D01*
X64187500Y-24187500D02*
X62875000Y-25500000D01*
X62875000Y-28562500D02*
X62987500Y-28675000D01*
X62987500Y-28675000D02*
X64837500Y-30525000D01*
X67700000Y-31025000D02*
X67700000Y-32100000D01*
X64750000Y-24187500D02*
X64187500Y-24187500D01*
X62875000Y-26150000D02*
X62875000Y-28562500D01*
%TO.N,SBC_GPIO13*%
X74325000Y-31475000D02*
X73700000Y-32100000D01*
X74325000Y-29912500D02*
X74325000Y-31475000D01*
%TO.N,Net-(J4-Pad4)*%
X64750000Y-21275000D02*
X64750000Y-22362500D01*
X64725000Y-21250000D02*
X64750000Y-21275000D01*
%TO.N,SBC_GPIO12*%
X71699999Y-30387501D02*
X71699999Y-32100000D01*
X72175000Y-29912500D02*
X71699999Y-30387501D01*
%TO.N,Net-(J4-Pad6)*%
X65999000Y-21611500D02*
X66700000Y-22312500D01*
X65999000Y-21226000D02*
X65999000Y-21611500D01*
%TO.N,3.3v*%
X65550000Y-26150000D02*
X66425000Y-26150000D01*
X65550000Y-26150000D02*
X64700000Y-26150000D01*
%TD*%
M02*
