M48
; DRILL file {KiCad 9.0.7} date 2026-03-24T12:37:27-0700
; FORMAT={-:-/ absolute / metric / decimal}
; #@! TF.CreationDate,2026-03-24T12:37:27-07:00
; #@! TF.GenerationSoftware,Kicad,Pcbnew,9.0.7
; #@! TF.FileFunction,Plated,1,4,PTH
FMAT,2
METRIC
; #@! TA.AperFunction,Plated,PTH,ViaDrill
T1C0.254
; #@! TA.AperFunction,Plated,PTH,ViaDrill
T2C0.300
; #@! TA.AperFunction,Plated,PTH,ComponentDrill
T3C0.500
; #@! TA.AperFunction,Plated,PTH,ComponentDrill
T4C1.000
; #@! TA.AperFunction,Plated,PTH,ComponentDrill
T5C2.700
%
G90
G05
T1
X32.995Y-31.638
X33.655Y-31.638
X35.015Y-30.489
X35.625Y-30.754
X37.995Y-31.736
X38.62Y-31.11
X39.685Y-21.37
X40.345Y-21.37
X43.485Y-21.444
X44.145Y-21.444
X47.305Y-21.475
X47.965Y-21.475
T2
X30.37Y-35.94
X37.16Y-25.99
X39.37Y-27.19
X41.915Y-21.66
X42.41Y-28.03
X44.01Y-35.9
X45.72Y-21.66
X46.98Y-27.2
X50.48Y-22.74
X55.32Y-31.39
X57.22Y-35.95
X63.459Y-21.4
X64.725Y-21.25
X65.75Y-29.925
X65.999Y-21.226
X66.7Y-33.475
X67.269Y-21.006
X67.34Y-27.58
X68.7Y-33.475
X69.8Y-27.59
X69.825Y-21.4
X70.575Y-29.05
X70.7Y-33.475
X71.05Y-21.4
X72.7Y-33.475
X75.6Y-28.05
X76.1Y-21.4
X77.425Y-21.375
X79.962Y-27.438
X81.275Y-27.4
X87.575Y-27.425
T3
X22.975Y-25.0
X23.568Y-23.568
X23.568Y-26.432
X25.0Y-22.975
X25.0Y-27.025
X26.432Y-23.568
X26.432Y-26.432
X27.025Y-25.0
X98.515Y-25.0
X99.108Y-23.568
X99.108Y-26.432
X100.54Y-22.975
X100.54Y-27.025
X101.972Y-23.568
X101.972Y-26.432
X102.565Y-25.0
T4
X91.07Y-28.225
X93.61Y-28.225
X96.15Y-28.225
T5
X25.0Y-25.0
X100.54Y-25.0
M30
