%TF.GenerationSoftware,KiCad,Pcbnew,8.0.4*%
%TF.CreationDate,2024-11-07T09:22:51-08:00*%
%TF.ProjectId,hadron_io_breakouts,68616472-6f6e-45f6-996f-5f627265616b,rev?*%
%TF.SameCoordinates,Original*%
%TF.FileFunction,Paste,Bot*%
%TF.FilePolarity,Positive*%
%FSLAX46Y46*%
G04 Gerber Fmt 4.6, Leading zero omitted, Abs format (unit mm)*
G04 Created by KiCad (PCBNEW 8.0.4) date 2024-11-07 09:22:51*
%MOMM*%
%LPD*%
G01*
G04 APERTURE LIST*
%ADD10C,0.010000*%
%ADD11R,0.740000X2.220000*%
G04 APERTURE END LIST*
D10*
%TO.C,J4*%
X63829000Y-24158500D02*
X63089000Y-24158500D01*
X63089000Y-21938500D01*
X63829000Y-21938500D01*
X63829000Y-24158500D01*
G36*
X63829000Y-24158500D02*
G01*
X63089000Y-24158500D01*
X63089000Y-21938500D01*
X63829000Y-21938500D01*
X63829000Y-24158500D01*
G37*
X63829000Y-26888500D02*
X63089000Y-26888500D01*
X63089000Y-24668500D01*
X63829000Y-24668500D01*
X63829000Y-26888500D01*
G36*
X63829000Y-26888500D02*
G01*
X63089000Y-26888500D01*
X63089000Y-24668500D01*
X63829000Y-24668500D01*
X63829000Y-26888500D01*
G37*
X65099000Y-24158500D02*
X64359000Y-24158500D01*
X64359000Y-21938500D01*
X65099000Y-21938500D01*
X65099000Y-24158500D01*
G36*
X65099000Y-24158500D02*
G01*
X64359000Y-24158500D01*
X64359000Y-21938500D01*
X65099000Y-21938500D01*
X65099000Y-24158500D01*
G37*
X65099000Y-26888500D02*
X64359000Y-26888500D01*
X64359000Y-24668500D01*
X65099000Y-24668500D01*
X65099000Y-26888500D01*
G36*
X65099000Y-26888500D02*
G01*
X64359000Y-26888500D01*
X64359000Y-24668500D01*
X65099000Y-24668500D01*
X65099000Y-26888500D01*
G37*
X66369000Y-24158500D02*
X65629000Y-24158500D01*
X65629000Y-21938500D01*
X66369000Y-21938500D01*
X66369000Y-24158500D01*
G36*
X66369000Y-24158500D02*
G01*
X65629000Y-24158500D01*
X65629000Y-21938500D01*
X66369000Y-21938500D01*
X66369000Y-24158500D01*
G37*
X66369000Y-26888500D02*
X65629000Y-26888500D01*
X65629000Y-24668500D01*
X66369000Y-24668500D01*
X66369000Y-26888500D01*
G36*
X66369000Y-26888500D02*
G01*
X65629000Y-26888500D01*
X65629000Y-24668500D01*
X66369000Y-24668500D01*
X66369000Y-26888500D01*
G37*
X67639000Y-24158500D02*
X66899000Y-24158500D01*
X66899000Y-21938500D01*
X67639000Y-21938500D01*
X67639000Y-24158500D01*
G36*
X67639000Y-24158500D02*
G01*
X66899000Y-24158500D01*
X66899000Y-21938500D01*
X67639000Y-21938500D01*
X67639000Y-24158500D01*
G37*
X67639000Y-26888500D02*
X66899000Y-26888500D01*
X66899000Y-24668500D01*
X67639000Y-24668500D01*
X67639000Y-26888500D01*
G36*
X67639000Y-26888500D02*
G01*
X66899000Y-26888500D01*
X66899000Y-24668500D01*
X67639000Y-24668500D01*
X67639000Y-26888500D01*
G37*
X68909000Y-24158500D02*
X68169000Y-24158500D01*
X68169000Y-21938500D01*
X68909000Y-21938500D01*
X68909000Y-24158500D01*
G36*
X68909000Y-24158500D02*
G01*
X68169000Y-24158500D01*
X68169000Y-21938500D01*
X68909000Y-21938500D01*
X68909000Y-24158500D01*
G37*
X68909000Y-26888500D02*
X68169000Y-26888500D01*
X68169000Y-24668500D01*
X68909000Y-24668500D01*
X68909000Y-26888500D01*
G36*
X68909000Y-26888500D02*
G01*
X68169000Y-26888500D01*
X68169000Y-24668500D01*
X68909000Y-24668500D01*
X68909000Y-26888500D01*
G37*
X70179000Y-24158500D02*
X69439000Y-24158500D01*
X69439000Y-21938500D01*
X70179000Y-21938500D01*
X70179000Y-24158500D01*
G36*
X70179000Y-24158500D02*
G01*
X69439000Y-24158500D01*
X69439000Y-21938500D01*
X70179000Y-21938500D01*
X70179000Y-24158500D01*
G37*
X70179000Y-26888500D02*
X69439000Y-26888500D01*
X69439000Y-24668500D01*
X70179000Y-24668500D01*
X70179000Y-26888500D01*
G36*
X70179000Y-26888500D02*
G01*
X69439000Y-26888500D01*
X69439000Y-24668500D01*
X70179000Y-24668500D01*
X70179000Y-26888500D01*
G37*
X71449000Y-24158500D02*
X70709000Y-24158500D01*
X70709000Y-21938500D01*
X71449000Y-21938500D01*
X71449000Y-24158500D01*
G36*
X71449000Y-24158500D02*
G01*
X70709000Y-24158500D01*
X70709000Y-21938500D01*
X71449000Y-21938500D01*
X71449000Y-24158500D01*
G37*
X71449000Y-26888500D02*
X70709000Y-26888500D01*
X70709000Y-24668500D01*
X71449000Y-24668500D01*
X71449000Y-26888500D01*
G36*
X71449000Y-26888500D02*
G01*
X70709000Y-26888500D01*
X70709000Y-24668500D01*
X71449000Y-24668500D01*
X71449000Y-26888500D01*
G37*
X72719000Y-24158500D02*
X71979000Y-24158500D01*
X71979000Y-21938500D01*
X72719000Y-21938500D01*
X72719000Y-24158500D01*
G36*
X72719000Y-24158500D02*
G01*
X71979000Y-24158500D01*
X71979000Y-21938500D01*
X72719000Y-21938500D01*
X72719000Y-24158500D01*
G37*
X72719000Y-26888500D02*
X71979000Y-26888500D01*
X71979000Y-24668500D01*
X72719000Y-24668500D01*
X72719000Y-26888500D01*
G36*
X72719000Y-26888500D02*
G01*
X71979000Y-26888500D01*
X71979000Y-24668500D01*
X72719000Y-24668500D01*
X72719000Y-26888500D01*
G37*
X73989000Y-24158500D02*
X73249000Y-24158500D01*
X73249000Y-21938500D01*
X73989000Y-21938500D01*
X73989000Y-24158500D01*
G36*
X73989000Y-24158500D02*
G01*
X73249000Y-24158500D01*
X73249000Y-21938500D01*
X73989000Y-21938500D01*
X73989000Y-24158500D01*
G37*
X73989000Y-26888500D02*
X73249000Y-26888500D01*
X73249000Y-24668500D01*
X73989000Y-24668500D01*
X73989000Y-26888500D01*
G36*
X73989000Y-26888500D02*
G01*
X73249000Y-26888500D01*
X73249000Y-24668500D01*
X73989000Y-24668500D01*
X73989000Y-26888500D01*
G37*
X75259000Y-24158500D02*
X74519000Y-24158500D01*
X74519000Y-21938500D01*
X75259000Y-21938500D01*
X75259000Y-24158500D01*
G36*
X75259000Y-24158500D02*
G01*
X74519000Y-24158500D01*
X74519000Y-21938500D01*
X75259000Y-21938500D01*
X75259000Y-24158500D01*
G37*
X75259000Y-26888500D02*
X74519000Y-26888500D01*
X74519000Y-24668500D01*
X75259000Y-24668500D01*
X75259000Y-26888500D01*
G36*
X75259000Y-26888500D02*
G01*
X74519000Y-26888500D01*
X74519000Y-24668500D01*
X75259000Y-24668500D01*
X75259000Y-26888500D01*
G37*
X76529000Y-24158500D02*
X75789000Y-24158500D01*
X75789000Y-21938500D01*
X76529000Y-21938500D01*
X76529000Y-24158500D01*
G36*
X76529000Y-24158500D02*
G01*
X75789000Y-24158500D01*
X75789000Y-21938500D01*
X76529000Y-21938500D01*
X76529000Y-24158500D01*
G37*
X76529000Y-26888500D02*
X75789000Y-26888500D01*
X75789000Y-24668500D01*
X76529000Y-24668500D01*
X76529000Y-26888500D01*
G36*
X76529000Y-26888500D02*
G01*
X75789000Y-26888500D01*
X75789000Y-24668500D01*
X76529000Y-24668500D01*
X76529000Y-26888500D01*
G37*
X77799000Y-24158500D02*
X77059000Y-24158500D01*
X77059000Y-21938500D01*
X77799000Y-21938500D01*
X77799000Y-24158500D01*
G36*
X77799000Y-24158500D02*
G01*
X77059000Y-24158500D01*
X77059000Y-21938500D01*
X77799000Y-21938500D01*
X77799000Y-24158500D01*
G37*
X77799000Y-26888500D02*
X77059000Y-26888500D01*
X77059000Y-24668500D01*
X77799000Y-24668500D01*
X77799000Y-26888500D01*
G36*
X77799000Y-26888500D02*
G01*
X77059000Y-26888500D01*
X77059000Y-24668500D01*
X77799000Y-24668500D01*
X77799000Y-26888500D01*
G37*
X79069000Y-24158500D02*
X78329000Y-24158500D01*
X78329000Y-21938500D01*
X79069000Y-21938500D01*
X79069000Y-24158500D01*
G36*
X79069000Y-24158500D02*
G01*
X78329000Y-24158500D01*
X78329000Y-21938500D01*
X79069000Y-21938500D01*
X79069000Y-24158500D01*
G37*
X79069000Y-26888500D02*
X78329000Y-26888500D01*
X78329000Y-24668500D01*
X79069000Y-24668500D01*
X79069000Y-26888500D01*
G36*
X79069000Y-26888500D02*
G01*
X78329000Y-26888500D01*
X78329000Y-24668500D01*
X79069000Y-24668500D01*
X79069000Y-26888500D01*
G37*
X80339000Y-24158500D02*
X79599000Y-24158500D01*
X79599000Y-21938500D01*
X80339000Y-21938500D01*
X80339000Y-24158500D01*
G36*
X80339000Y-24158500D02*
G01*
X79599000Y-24158500D01*
X79599000Y-21938500D01*
X80339000Y-21938500D01*
X80339000Y-24158500D01*
G37*
X80339000Y-26888500D02*
X79599000Y-26888500D01*
X79599000Y-24668500D01*
X80339000Y-24668500D01*
X80339000Y-26888500D01*
G36*
X80339000Y-26888500D02*
G01*
X79599000Y-26888500D01*
X79599000Y-24668500D01*
X80339000Y-24668500D01*
X80339000Y-26888500D01*
G37*
X81609000Y-24158500D02*
X80869000Y-24158500D01*
X80869000Y-21938500D01*
X81609000Y-21938500D01*
X81609000Y-24158500D01*
G36*
X81609000Y-24158500D02*
G01*
X80869000Y-24158500D01*
X80869000Y-21938500D01*
X81609000Y-21938500D01*
X81609000Y-24158500D01*
G37*
X81609000Y-26888500D02*
X80869000Y-26888500D01*
X80869000Y-24668500D01*
X81609000Y-24668500D01*
X81609000Y-26888500D01*
G36*
X81609000Y-26888500D02*
G01*
X80869000Y-26888500D01*
X80869000Y-24668500D01*
X81609000Y-24668500D01*
X81609000Y-26888500D01*
G37*
X82879000Y-24158500D02*
X82139000Y-24158500D01*
X82139000Y-21938500D01*
X82879000Y-21938500D01*
X82879000Y-24158500D01*
G36*
X82879000Y-24158500D02*
G01*
X82139000Y-24158500D01*
X82139000Y-21938500D01*
X82879000Y-21938500D01*
X82879000Y-24158500D01*
G37*
X82879000Y-26888500D02*
X82139000Y-26888500D01*
X82139000Y-24668500D01*
X82879000Y-24668500D01*
X82879000Y-26888500D01*
G36*
X82879000Y-26888500D02*
G01*
X82139000Y-26888500D01*
X82139000Y-24668500D01*
X82879000Y-24668500D01*
X82879000Y-26888500D01*
G37*
X84149000Y-24158500D02*
X83409000Y-24158500D01*
X83409000Y-21938500D01*
X84149000Y-21938500D01*
X84149000Y-24158500D01*
G36*
X84149000Y-24158500D02*
G01*
X83409000Y-24158500D01*
X83409000Y-21938500D01*
X84149000Y-21938500D01*
X84149000Y-24158500D01*
G37*
X84149000Y-26888500D02*
X83409000Y-26888500D01*
X83409000Y-24668500D01*
X84149000Y-24668500D01*
X84149000Y-26888500D01*
G36*
X84149000Y-26888500D02*
G01*
X83409000Y-26888500D01*
X83409000Y-24668500D01*
X84149000Y-24668500D01*
X84149000Y-26888500D01*
G37*
X85419000Y-24158500D02*
X84679000Y-24158500D01*
X84679000Y-21938500D01*
X85419000Y-21938500D01*
X85419000Y-24158500D01*
G36*
X85419000Y-24158500D02*
G01*
X84679000Y-24158500D01*
X84679000Y-21938500D01*
X85419000Y-21938500D01*
X85419000Y-24158500D01*
G37*
X85419000Y-26888500D02*
X84679000Y-26888500D01*
X84679000Y-24668500D01*
X85419000Y-24668500D01*
X85419000Y-26888500D01*
G36*
X85419000Y-26888500D02*
G01*
X84679000Y-26888500D01*
X84679000Y-24668500D01*
X85419000Y-24668500D01*
X85419000Y-26888500D01*
G37*
X86689000Y-24158500D02*
X85949000Y-24158500D01*
X85949000Y-21938500D01*
X86689000Y-21938500D01*
X86689000Y-24158500D01*
G36*
X86689000Y-24158500D02*
G01*
X85949000Y-24158500D01*
X85949000Y-21938500D01*
X86689000Y-21938500D01*
X86689000Y-24158500D01*
G37*
X86689000Y-26888500D02*
X85949000Y-26888500D01*
X85949000Y-24668500D01*
X86689000Y-24668500D01*
X86689000Y-26888500D01*
G36*
X86689000Y-26888500D02*
G01*
X85949000Y-26888500D01*
X85949000Y-24668500D01*
X86689000Y-24668500D01*
X86689000Y-26888500D01*
G37*
X87959000Y-24158500D02*
X87219000Y-24158500D01*
X87219000Y-21938500D01*
X87959000Y-21938500D01*
X87959000Y-24158500D01*
G36*
X87959000Y-24158500D02*
G01*
X87219000Y-24158500D01*
X87219000Y-21938500D01*
X87959000Y-21938500D01*
X87959000Y-24158500D01*
G37*
X87959000Y-26888500D02*
X87219000Y-26888500D01*
X87219000Y-24668500D01*
X87959000Y-24668500D01*
X87959000Y-26888500D01*
G36*
X87959000Y-26888500D02*
G01*
X87219000Y-26888500D01*
X87219000Y-24668500D01*
X87959000Y-24668500D01*
X87959000Y-26888500D01*
G37*
%TD*%
D11*
%TO.C,J2*%
X49535000Y-23048500D03*
X49535000Y-25778500D03*
X48265000Y-23048500D03*
X48265000Y-25778500D03*
X46995000Y-23048500D03*
X46995000Y-25778500D03*
X45725000Y-23048500D03*
X45725000Y-25778500D03*
X44455000Y-23048500D03*
X44455000Y-25778500D03*
X43185000Y-23048500D03*
X43185000Y-25778500D03*
X41915000Y-23048500D03*
X41915000Y-25778500D03*
X40645000Y-23048500D03*
X40645000Y-25778500D03*
X39375000Y-23048500D03*
X39375000Y-25778500D03*
X38105000Y-23048500D03*
X38105000Y-25778500D03*
%TD*%
%TO.C,J4*%
X63459000Y-25778500D03*
X63459000Y-23048500D03*
X64729000Y-25778500D03*
X64729000Y-23048500D03*
X65999000Y-25778500D03*
X65999000Y-23048500D03*
X67269000Y-25778500D03*
X67269000Y-23048500D03*
X68539000Y-25778500D03*
X68539000Y-23048500D03*
X69809000Y-25778500D03*
X69809000Y-23048500D03*
X71079000Y-25778500D03*
X71079000Y-23048500D03*
X72349000Y-25778500D03*
X72349000Y-23048500D03*
X73619000Y-25778500D03*
X73619000Y-23048500D03*
X74889000Y-25778500D03*
X74889000Y-23048500D03*
X76159000Y-25778500D03*
X76159000Y-23048500D03*
X77429000Y-25778500D03*
X77429000Y-23048500D03*
X78699000Y-25778500D03*
X78699000Y-23048500D03*
X79969000Y-25778500D03*
X79969000Y-23048500D03*
X81239000Y-25778500D03*
X81239000Y-23048500D03*
X82509000Y-25778500D03*
X82509000Y-23048500D03*
X83779000Y-25778500D03*
X83779000Y-23048500D03*
X85049000Y-25778500D03*
X85049000Y-23048500D03*
X86319000Y-25778500D03*
X86319000Y-23048500D03*
X87589000Y-25778500D03*
X87589000Y-23048500D03*
%TD*%
M02*
