M48
; DRILL file {KiCad 9.0.7} date 2026-06-10T15:35:55-0700
; FORMAT={-:-/ absolute / metric / decimal}
; #@! TF.CreationDate,2026-06-10T15:35:55-07:00
; #@! TF.GenerationSoftware,Kicad,Pcbnew,9.0.7
; #@! TF.FileFunction,Plated,1,6,PTH
FMAT,2
METRIC
; #@! TA.AperFunction,Plated,PTH,ViaDrill
T1C0.203
; #@! TA.AperFunction,Plated,PTH,ViaDrill
T2C0.300
; #@! TA.AperFunction,Plated,PTH,ComponentDrill
T3C0.500
; #@! TA.AperFunction,Plated,PTH,ComponentDrill
T4C1.000
; #@! TA.AperFunction,Plated,PTH,ComponentDrill
T5C2.800
%
G90
G05
T1
X32.37Y-31.096
X33.027Y-31.11
X33.612Y-31.11
X34.27Y-31.097
X34.854Y-29.948
X35.263Y-30.463
X35.677Y-30.877
X36.256Y-31.189
X38.568Y-31.493
X38.572Y-30.835
X39.02Y-21.03
X39.5Y-30.5
X39.718Y-21.025
X39.782Y-31.107
X40.302Y-21.025
X40.96Y-21.041
X42.87Y-20.591
X43.527Y-20.606
X44.112Y-20.606
X44.77Y-20.594
X49.5Y-19.324
X49.5Y-19.982
X49.5Y-20.567
X49.5Y-21.226
T2
X31.32Y-37.33
X32.32Y-37.33
X33.32Y-37.33
X34.32Y-37.33
X35.32Y-37.33
X36.32Y-37.33
X37.18Y-22.88
X37.32Y-37.33
X38.11Y-27.23
X38.32Y-37.33
X39.32Y-37.33
X39.38Y-27.25
X40.32Y-37.42
X41.82Y-37.33
X41.915Y-21.66
X42.41Y-28.03
X45.72Y-21.66
X45.82Y-37.33
X46.82Y-37.33
X46.98Y-27.2
X47.82Y-37.33
X48.82Y-37.33
X49.82Y-37.33
X50.82Y-37.33
X51.82Y-37.33
X52.82Y-37.33
X53.82Y-37.33
X55.32Y-31.39
X56.32Y-37.33
X63.459Y-21.4
X64.725Y-21.25
X65.75Y-29.925
X65.999Y-21.226
X66.7Y-33.475
X67.269Y-21.006
X67.34Y-27.58
X68.7Y-33.475
X69.8Y-27.59
X69.825Y-21.4
X70.575Y-29.05
X70.7Y-33.475
X71.05Y-21.4
X72.7Y-33.475
X75.6Y-28.05
X76.1Y-21.4
X77.425Y-21.375
X79.962Y-27.438
X81.275Y-27.4
X87.575Y-27.425
T3
X22.975Y-25.0
X23.568Y-23.568
X23.568Y-26.432
X25.0Y-22.975
X25.0Y-27.025
X26.432Y-23.568
X26.432Y-26.432
X27.025Y-25.0
X98.515Y-25.0
X99.108Y-23.568
X99.108Y-26.432
X100.54Y-22.975
X100.54Y-27.025
X101.972Y-23.568
X101.972Y-26.432
X102.565Y-25.0
T4
X91.07Y-28.225
X93.61Y-28.225
X96.15Y-28.225
T5
X25.0Y-25.0
X100.54Y-25.0
M30
