%TF.GenerationSoftware,KiCad,Pcbnew,9.0.7*%
%TF.CreationDate,2026-06-10T15:35:53-07:00*%
%TF.ProjectId,hadron_io_breakout_6_layer,68616472-6f6e-45f6-996f-5f627265616b,rev?*%
%TF.SameCoordinates,Original*%
%TF.FileFunction,Copper,L4,Inr*%
%TF.FilePolarity,Positive*%
%FSLAX46Y46*%
G04 Gerber Fmt 4.6, Leading zero omitted, Abs format (unit mm)*
G04 Created by KiCad (PCBNEW 9.0.7) date 2026-06-10 15:35:53*
%MOMM*%
%LPD*%
G01*
G04 APERTURE LIST*
%TA.AperFunction,ComponentPad*%
%ADD10C,0.800000*%
%TD*%
%TA.AperFunction,ComponentPad*%
%ADD11C,5.400000*%
%TD*%
%TA.AperFunction,ComponentPad*%
%ADD12R,1.700000X1.700000*%
%TD*%
%TA.AperFunction,ComponentPad*%
%ADD13O,1.700000X1.700000*%
%TD*%
%TA.AperFunction,ViaPad*%
%ADD14C,0.600000*%
%TD*%
%TA.AperFunction,ViaPad*%
%ADD15C,0.458000*%
%TD*%
%TA.AperFunction,Conductor*%
%ADD16C,0.500000*%
%TD*%
G04 APERTURE END LIST*
D10*
%TO.N,GND*%
%TO.C,REF\u002A\u002A*%
X98515000Y-25000000D03*
X99108109Y-23568109D03*
X99108109Y-26431891D03*
X100540000Y-22975000D03*
X100540000Y-27025000D03*
X101971891Y-23568109D03*
X101971891Y-26431891D03*
X102565000Y-25000000D03*
D11*
X100540000Y-25000000D03*
%TD*%
D10*
%TO.N,GND*%
%TO.C,REF\u002A\u002A*%
X22975000Y-25000000D03*
X23568109Y-23568109D03*
X23568109Y-26431891D03*
X25000000Y-22975000D03*
D11*
X25000000Y-25000000D03*
D10*
X25000000Y-27025000D03*
X26431891Y-23568109D03*
X26431891Y-26431891D03*
X27025000Y-25000000D03*
%TD*%
D12*
%TO.N,SBC_Debug-Rx*%
%TO.C,J7*%
X96150000Y-28225000D03*
D13*
%TO.N,SBC_Debug-Tx*%
X93610000Y-28225000D03*
%TO.N,GND*%
X91070000Y-28225000D03*
%TD*%
D14*
%TO.N,USB1 VBUS*%
X39380000Y-27250000D03*
X40320000Y-37420000D03*
D15*
%TO.N,GND*%
X39500000Y-30500000D03*
X38571518Y-30835177D03*
D14*
X67269000Y-21006000D03*
D15*
X49500000Y-19324497D03*
D14*
X32320000Y-37330000D03*
D15*
X42869671Y-20590698D03*
D14*
X45720000Y-21660000D03*
X41820000Y-37330000D03*
X38110000Y-27230000D03*
X46820000Y-37330000D03*
X35320000Y-37330000D03*
X41915000Y-21660000D03*
X31320000Y-37330000D03*
X37320000Y-37330000D03*
D15*
X40960308Y-21040979D03*
D14*
X71050000Y-21400000D03*
X48820000Y-37330000D03*
X53820000Y-37330000D03*
D15*
X32369654Y-31095621D03*
D14*
X34320000Y-37330000D03*
X66700000Y-33475000D03*
X72700000Y-33475000D03*
X68700000Y-33475000D03*
X63459000Y-21400000D03*
X70700000Y-33475000D03*
X39320000Y-37330000D03*
D15*
X34270365Y-31096505D03*
X36256241Y-31188677D03*
D14*
X52820000Y-37330000D03*
X36320000Y-37330000D03*
D15*
X44770389Y-20593595D03*
D14*
X47820000Y-37330000D03*
X87575000Y-27425000D03*
X38320000Y-37330000D03*
X45820000Y-37330000D03*
X42410000Y-28030000D03*
D15*
X34853758Y-29948051D03*
D14*
X56320000Y-37330000D03*
X33320000Y-37330000D03*
X65750000Y-29925000D03*
X46980000Y-27200000D03*
X49820000Y-37330000D03*
X50820000Y-37330000D03*
D15*
X49500000Y-21225503D03*
X39020000Y-21030000D03*
D14*
X51820000Y-37330000D03*
D15*
%TO.N,USB1_D_P*%
X38568171Y-31493171D03*
%TO.N,USB1_RX_N*%
X33612500Y-31110000D03*
%TO.N,USB1_D_N*%
X39781829Y-31106829D03*
%TO.N,USB1_TX_N*%
X35676829Y-30876829D03*
%TO.N,USB1_TX_P*%
X35263171Y-30463171D03*
%TO.N,USB1_RX_P*%
X33027500Y-31110000D03*
%TO.N,USB0_TX_N*%
X44112500Y-20605795D03*
%TO.N,USB0_D_P*%
X49500000Y-20567500D03*
D14*
%TO.N,USB0 VBUS*%
X55320000Y-31390000D03*
X37180000Y-22880000D03*
D15*
%TO.N,USB0_TX_P*%
X43527500Y-20605795D03*
%TO.N,USB0_D_N*%
X49500000Y-19982500D03*
%TO.N,USB0_RX_N*%
X40302500Y-21025000D03*
%TO.N,USB0_RX_P*%
X39717500Y-21025000D03*
D14*
%TO.N,SBC_RS232-1-Rx*%
X81275000Y-27400000D03*
%TO.N,SBC_RS232-0-Tx*%
X76100000Y-21400000D03*
%TO.N,SBC_RS232-0-Rx*%
X77425000Y-21375000D03*
%TO.N,SBC_RS232-1-Tx*%
X79961765Y-27438235D03*
%TO.N,Net-(J4-Pad5)*%
X75600000Y-28050000D03*
%TO.N,Net-(J4-Pad3)*%
X70575000Y-29050000D03*
%TO.N,Net-(J4-Pad4)*%
X64725000Y-21250000D03*
%TO.N,Net-(J4-Pad6)*%
X65999000Y-21226000D03*
%TO.N,3.3v*%
X67340000Y-27580000D03*
X69800000Y-27590000D03*
X69825000Y-21400000D03*
%TD*%
D16*
%TO.N,USB1 VBUS*%
X40320000Y-37420000D02*
X40350000Y-37450000D01*
X39380000Y-27360000D02*
X39380000Y-27250000D01*
X40810000Y-37210000D02*
X40810000Y-28790000D01*
X40570000Y-37450000D02*
X40810000Y-37210000D01*
X40350000Y-37450000D02*
X40570000Y-37450000D01*
X40810000Y-28790000D02*
X39380000Y-27360000D01*
%TO.N,USB0 VBUS*%
X37180000Y-22880000D02*
X53810000Y-22880000D01*
X53810000Y-22880000D02*
X55320000Y-24390000D01*
X55320000Y-24390000D02*
X55320000Y-31390000D01*
%TD*%
%TA.AperFunction,Conductor*%
%TO.N,GND*%
G36*
X36873965Y-18590185D02*
G01*
X36909188Y-18624368D01*
X37009905Y-18771231D01*
X37044122Y-18812013D01*
X37243817Y-19050023D01*
X37243821Y-19050027D01*
X37503630Y-19304869D01*
X37503634Y-19304872D01*
X37503639Y-19304877D01*
X37786903Y-19533373D01*
X37786908Y-19533376D01*
X37786909Y-19533377D01*
X38090941Y-19733364D01*
X38090946Y-19733367D01*
X38090957Y-19733374D01*
X38159950Y-19769720D01*
X38412939Y-19902998D01*
X38749827Y-20040653D01*
X38749833Y-20040654D01*
X38749841Y-20040658D01*
X39098481Y-20145054D01*
X39285105Y-20181716D01*
X39347093Y-20213953D01*
X39381811Y-20274587D01*
X39378237Y-20344365D01*
X39337506Y-20401134D01*
X39330095Y-20406491D01*
X39252473Y-20458357D01*
X39252467Y-20458362D01*
X39150862Y-20559967D01*
X39150859Y-20559971D01*
X39071028Y-20679445D01*
X39071021Y-20679458D01*
X39016034Y-20812211D01*
X39016031Y-20812220D01*
X38988000Y-20953145D01*
X38988000Y-21096854D01*
X39016031Y-21237779D01*
X39016034Y-21237788D01*
X39071021Y-21370541D01*
X39071028Y-21370554D01*
X39150859Y-21490028D01*
X39150862Y-21490032D01*
X39252467Y-21591637D01*
X39252471Y-21591640D01*
X39371945Y-21671471D01*
X39371958Y-21671478D01*
X39454420Y-21705634D01*
X39504713Y-21726466D01*
X39504715Y-21726466D01*
X39504720Y-21726468D01*
X39645645Y-21754499D01*
X39645649Y-21754500D01*
X39645650Y-21754500D01*
X39789351Y-21754500D01*
X39789352Y-21754499D01*
X39930287Y-21726466D01*
X39962548Y-21713102D01*
X40032016Y-21705634D01*
X40057448Y-21713101D01*
X40089713Y-21726466D01*
X40230645Y-21754499D01*
X40230649Y-21754500D01*
X40230650Y-21754500D01*
X40374351Y-21754500D01*
X40374352Y-21754499D01*
X40421329Y-21745155D01*
X40515279Y-21726468D01*
X40515282Y-21726466D01*
X40515287Y-21726466D01*
X40648048Y-21671475D01*
X40767529Y-21591640D01*
X40869140Y-21490029D01*
X40948975Y-21370548D01*
X41003966Y-21237787D01*
X41008703Y-21213975D01*
X41031999Y-21096854D01*
X41032000Y-21096851D01*
X41032000Y-20953149D01*
X41031999Y-20953145D01*
X41003968Y-20812220D01*
X41003965Y-20812211D01*
X40948978Y-20679458D01*
X40948976Y-20679454D01*
X40948975Y-20679452D01*
X40869140Y-20559971D01*
X40869138Y-20559968D01*
X40843110Y-20533940D01*
X42798000Y-20533940D01*
X42798000Y-20677649D01*
X42826031Y-20818574D01*
X42826034Y-20818583D01*
X42881021Y-20951336D01*
X42881028Y-20951349D01*
X42960859Y-21070823D01*
X42960862Y-21070827D01*
X43062467Y-21172432D01*
X43062471Y-21172435D01*
X43181945Y-21252266D01*
X43181958Y-21252273D01*
X43264420Y-21286429D01*
X43314713Y-21307261D01*
X43314715Y-21307261D01*
X43314720Y-21307263D01*
X43455645Y-21335294D01*
X43455649Y-21335295D01*
X43455650Y-21335295D01*
X43599351Y-21335295D01*
X43599352Y-21335294D01*
X43740287Y-21307261D01*
X43772548Y-21293897D01*
X43842016Y-21286429D01*
X43867448Y-21293896D01*
X43899713Y-21307261D01*
X44040645Y-21335294D01*
X44040649Y-21335295D01*
X44040650Y-21335295D01*
X44184351Y-21335295D01*
X44184352Y-21335294D01*
X44231329Y-21325950D01*
X44325279Y-21307263D01*
X44325282Y-21307261D01*
X44325287Y-21307261D01*
X44458048Y-21252270D01*
X44577529Y-21172435D01*
X44679140Y-21070824D01*
X44758975Y-20951343D01*
X44813966Y-20818582D01*
X44815232Y-20812220D01*
X44841639Y-20679458D01*
X44842000Y-20677645D01*
X44842000Y-20533945D01*
X44834383Y-20495650D01*
X44813968Y-20393015D01*
X44813965Y-20393006D01*
X44758978Y-20260253D01*
X44758971Y-20260240D01*
X44679140Y-20140766D01*
X44679137Y-20140762D01*
X44577532Y-20039157D01*
X44577528Y-20039154D01*
X44530394Y-20007660D01*
X44458053Y-19959323D01*
X44458041Y-19959316D01*
X44340536Y-19910645D01*
X48770500Y-19910645D01*
X48770500Y-20054353D01*
X48798532Y-20195280D01*
X48798537Y-20195297D01*
X48811896Y-20227550D01*
X48819363Y-20297020D01*
X48811896Y-20322450D01*
X48798537Y-20354702D01*
X48798532Y-20354719D01*
X48770500Y-20495646D01*
X48770500Y-20639354D01*
X48798531Y-20780279D01*
X48798534Y-20780288D01*
X48853521Y-20913041D01*
X48853528Y-20913054D01*
X48933359Y-21032528D01*
X48933362Y-21032532D01*
X49034967Y-21134137D01*
X49034971Y-21134140D01*
X49154445Y-21213971D01*
X49154458Y-21213978D01*
X49211942Y-21237788D01*
X49287213Y-21268966D01*
X49287215Y-21268966D01*
X49287220Y-21268968D01*
X49428145Y-21296999D01*
X49428149Y-21297000D01*
X49428150Y-21297000D01*
X49571851Y-21297000D01*
X49571852Y-21296999D01*
X49624994Y-21286429D01*
X49712779Y-21268968D01*
X49712782Y-21268966D01*
X49712787Y-21268966D01*
X49845548Y-21213975D01*
X49965029Y-21134140D01*
X50066640Y-21032529D01*
X50146475Y-20913048D01*
X50201466Y-20780287D01*
X50229500Y-20639350D01*
X50229500Y-20495650D01*
X50201466Y-20354713D01*
X50188102Y-20322451D01*
X50180634Y-20252984D01*
X50188102Y-20227550D01*
X50201466Y-20195287D01*
X50229500Y-20054350D01*
X50229500Y-19910650D01*
X50227978Y-19902998D01*
X50201468Y-19769720D01*
X50201465Y-19769711D01*
X50146478Y-19636958D01*
X50146471Y-19636945D01*
X50066640Y-19517471D01*
X50066637Y-19517467D01*
X49965032Y-19415862D01*
X49965028Y-19415859D01*
X49845554Y-19336028D01*
X49845541Y-19336021D01*
X49712788Y-19281034D01*
X49712779Y-19281031D01*
X49571854Y-19253000D01*
X49571850Y-19253000D01*
X49428150Y-19253000D01*
X49428145Y-19253000D01*
X49287220Y-19281031D01*
X49287211Y-19281034D01*
X49154458Y-19336021D01*
X49154445Y-19336028D01*
X49034971Y-19415859D01*
X49034967Y-19415862D01*
X48933362Y-19517467D01*
X48933359Y-19517471D01*
X48853528Y-19636945D01*
X48853521Y-19636958D01*
X48798534Y-19769711D01*
X48798531Y-19769720D01*
X48770500Y-19910645D01*
X44340536Y-19910645D01*
X44325288Y-19904329D01*
X44325279Y-19904326D01*
X44184354Y-19876295D01*
X44184350Y-19876295D01*
X44040650Y-19876295D01*
X44040646Y-19876295D01*
X43899719Y-19904327D01*
X43899702Y-19904332D01*
X43867450Y-19917691D01*
X43797980Y-19925158D01*
X43772550Y-19917691D01*
X43740297Y-19904332D01*
X43740280Y-19904327D01*
X43599353Y-19876295D01*
X43599350Y-19876295D01*
X43455650Y-19876295D01*
X43455645Y-19876295D01*
X43314720Y-19904326D01*
X43314711Y-19904329D01*
X43181958Y-19959316D01*
X43181945Y-19959323D01*
X43062471Y-20039154D01*
X43062467Y-20039157D01*
X42960862Y-20140762D01*
X42960859Y-20140766D01*
X42881028Y-20260240D01*
X42881021Y-20260253D01*
X42826034Y-20393006D01*
X42826031Y-20393015D01*
X42798000Y-20533940D01*
X40843110Y-20533940D01*
X40767532Y-20458362D01*
X40767528Y-20458359D01*
X40685361Y-20403456D01*
X40640556Y-20349843D01*
X40631849Y-20280518D01*
X40662004Y-20217491D01*
X40721447Y-20180772D01*
X40730342Y-20178682D01*
X40901096Y-20145158D01*
X41249749Y-20040802D01*
X41586661Y-19903184D01*
X41908668Y-19733595D01*
X42212745Y-19533630D01*
X42496036Y-19305167D01*
X42755878Y-19050351D01*
X42989831Y-18771577D01*
X43090820Y-18624355D01*
X43144973Y-18580209D01*
X43193073Y-18570500D01*
X50874008Y-18570500D01*
X50941047Y-18590185D01*
X50986802Y-18642989D01*
X50998006Y-18693737D01*
X51002160Y-19369064D01*
X51002161Y-19369331D01*
X51002635Y-19487904D01*
X51002635Y-19487908D01*
X51002636Y-19487910D01*
X51018127Y-19564606D01*
X51037564Y-19660840D01*
X51037564Y-19660842D01*
X51105208Y-19823775D01*
X51105210Y-19823778D01*
X51203025Y-19970588D01*
X51203030Y-19970595D01*
X51327347Y-20095774D01*
X51473485Y-20194607D01*
X51635951Y-20263378D01*
X51808634Y-20299500D01*
X51832627Y-20299761D01*
X51834219Y-20299779D01*
X51836908Y-20300500D01*
X51899824Y-20300500D01*
X51900001Y-20300501D01*
X51900462Y-20300507D01*
X51900465Y-20300508D01*
X51900588Y-20300509D01*
X51904130Y-20300551D01*
X51962727Y-20301255D01*
X51962727Y-20301254D01*
X51963571Y-20301265D01*
X51976429Y-20300500D01*
X59126000Y-20300500D01*
X59193039Y-20320185D01*
X59238794Y-20372989D01*
X59250000Y-20424500D01*
X59250000Y-39375500D01*
X59230315Y-39442539D01*
X59177511Y-39488294D01*
X59126000Y-39499500D01*
X22655413Y-39499500D01*
X22644605Y-39499028D01*
X22487246Y-39485260D01*
X22465961Y-39481507D01*
X22318630Y-39442030D01*
X22298318Y-39434637D01*
X22160084Y-39370177D01*
X22141366Y-39359370D01*
X22016417Y-39271880D01*
X21999859Y-39257986D01*
X21892013Y-39150140D01*
X21878119Y-39133582D01*
X21790629Y-39008633D01*
X21779822Y-38989915D01*
X21715362Y-38851681D01*
X21707969Y-38831369D01*
X21668492Y-38684038D01*
X21664739Y-38662752D01*
X21650972Y-38505393D01*
X21650500Y-38494586D01*
X21650500Y-31038145D01*
X32298000Y-31038145D01*
X32298000Y-31181854D01*
X32326031Y-31322779D01*
X32326034Y-31322788D01*
X32381021Y-31455541D01*
X32381028Y-31455554D01*
X32460859Y-31575028D01*
X32460862Y-31575032D01*
X32562467Y-31676637D01*
X32562471Y-31676640D01*
X32681945Y-31756471D01*
X32681958Y-31756478D01*
X32764420Y-31790634D01*
X32814713Y-31811466D01*
X32814715Y-31811466D01*
X32814720Y-31811468D01*
X32955645Y-31839499D01*
X32955649Y-31839500D01*
X32955650Y-31839500D01*
X33099351Y-31839500D01*
X33099352Y-31839499D01*
X33240287Y-31811466D01*
X33272548Y-31798102D01*
X33342016Y-31790634D01*
X33367448Y-31798101D01*
X33399713Y-31811466D01*
X33536719Y-31838718D01*
X33540645Y-31839499D01*
X33540649Y-31839500D01*
X33540650Y-31839500D01*
X33684351Y-31839500D01*
X33684352Y-31839499D01*
X33731329Y-31830155D01*
X33825279Y-31811468D01*
X33825282Y-31811466D01*
X33825287Y-31811466D01*
X33958048Y-31756475D01*
X34077529Y-31676640D01*
X34179140Y-31575029D01*
X34258975Y-31455548D01*
X34263980Y-31443466D01*
X34306065Y-31341861D01*
X34313966Y-31322787D01*
X34316280Y-31311158D01*
X34332655Y-31228829D01*
X34342000Y-31181850D01*
X34342000Y-31038150D01*
X34340009Y-31028142D01*
X34313968Y-30897220D01*
X34313965Y-30897211D01*
X34312652Y-30894042D01*
X34298646Y-30860226D01*
X34258978Y-30764458D01*
X34258971Y-30764445D01*
X34179140Y-30644971D01*
X34179137Y-30644967D01*
X34077532Y-30543362D01*
X34077528Y-30543359D01*
X33995221Y-30488363D01*
X33995200Y-30488349D01*
X33958048Y-30463525D01*
X33958041Y-30463521D01*
X33825288Y-30408534D01*
X33825279Y-30408531D01*
X33738731Y-30391316D01*
X34533671Y-30391316D01*
X34533671Y-30535025D01*
X34561702Y-30675950D01*
X34561705Y-30675959D01*
X34616692Y-30808712D01*
X34616699Y-30808725D01*
X34696530Y-30928199D01*
X34696533Y-30928203D01*
X34798138Y-31029808D01*
X34798142Y-31029811D01*
X34917623Y-31109646D01*
X34917629Y-31109648D01*
X34917630Y-31109649D01*
X34949882Y-31123008D01*
X35004286Y-31166848D01*
X35016991Y-31190116D01*
X35030355Y-31222380D01*
X35110188Y-31341857D01*
X35110191Y-31341861D01*
X35211796Y-31443466D01*
X35211800Y-31443469D01*
X35331274Y-31523300D01*
X35331287Y-31523307D01*
X35430851Y-31564547D01*
X35464042Y-31578295D01*
X35464044Y-31578295D01*
X35464049Y-31578297D01*
X35604974Y-31606328D01*
X35604978Y-31606329D01*
X35604979Y-31606329D01*
X35748680Y-31606329D01*
X35748681Y-31606328D01*
X35795658Y-31596984D01*
X35889608Y-31578297D01*
X35889611Y-31578295D01*
X35889616Y-31578295D01*
X36022377Y-31523304D01*
X36141858Y-31443469D01*
X36164011Y-31421316D01*
X37838671Y-31421316D01*
X37838671Y-31565025D01*
X37866702Y-31705950D01*
X37866705Y-31705959D01*
X37921692Y-31838712D01*
X37921699Y-31838725D01*
X38001530Y-31958199D01*
X38001533Y-31958203D01*
X38103138Y-32059808D01*
X38103142Y-32059811D01*
X38222616Y-32139642D01*
X38222629Y-32139649D01*
X38322193Y-32180889D01*
X38355384Y-32194637D01*
X38355386Y-32194637D01*
X38355391Y-32194639D01*
X38496316Y-32222670D01*
X38496320Y-32222671D01*
X38496321Y-32222671D01*
X38640022Y-32222671D01*
X38640023Y-32222670D01*
X38687000Y-32213326D01*
X38780950Y-32194639D01*
X38780953Y-32194637D01*
X38780958Y-32194637D01*
X38913719Y-32139646D01*
X39033200Y-32059811D01*
X39134811Y-31958200D01*
X39214646Y-31838719D01*
X39232579Y-31795422D01*
X39276418Y-31741021D01*
X39342712Y-31718955D01*
X39410412Y-31736233D01*
X39416031Y-31739774D01*
X39436274Y-31753300D01*
X39436287Y-31753307D01*
X39474621Y-31769185D01*
X39569042Y-31808295D01*
X39569044Y-31808295D01*
X39569049Y-31808297D01*
X39709974Y-31836328D01*
X39709978Y-31836329D01*
X39709979Y-31836329D01*
X39853680Y-31836329D01*
X39853680Y-31836328D01*
X39911308Y-31824866D01*
X39980900Y-31831093D01*
X40036077Y-31873956D01*
X40059322Y-31939846D01*
X40059500Y-31946483D01*
X40059500Y-36578593D01*
X40039815Y-36645632D01*
X39987011Y-36691387D01*
X39982953Y-36693154D01*
X39940824Y-36710604D01*
X39940814Y-36710609D01*
X39809711Y-36798210D01*
X39809707Y-36798213D01*
X39698213Y-36909707D01*
X39698210Y-36909711D01*
X39610609Y-37040814D01*
X39610602Y-37040827D01*
X39550264Y-37186498D01*
X39550261Y-37186510D01*
X39519500Y-37341153D01*
X39519500Y-37498846D01*
X39550261Y-37653489D01*
X39550264Y-37653501D01*
X39610602Y-37799172D01*
X39610609Y-37799185D01*
X39698210Y-37930288D01*
X39698213Y-37930292D01*
X39809707Y-38041786D01*
X39809711Y-38041789D01*
X39940814Y-38129390D01*
X39940827Y-38129397D01*
X40086498Y-38189735D01*
X40086503Y-38189737D01*
X40241153Y-38220499D01*
X40241156Y-38220500D01*
X40241158Y-38220500D01*
X40398843Y-38220500D01*
X40444398Y-38211438D01*
X40487408Y-38202882D01*
X40511599Y-38200500D01*
X40643920Y-38200500D01*
X40741462Y-38181096D01*
X40788913Y-38171658D01*
X40925495Y-38115084D01*
X40992220Y-38070500D01*
X41048416Y-38032952D01*
X41392951Y-37688416D01*
X41475084Y-37565495D01*
X41531658Y-37428913D01*
X41560500Y-37283918D01*
X41560500Y-37136083D01*
X41560500Y-28716082D01*
X41560500Y-28716079D01*
X41531659Y-28571092D01*
X41531658Y-28571091D01*
X41531658Y-28571087D01*
X41531656Y-28571082D01*
X41475087Y-28434511D01*
X41475080Y-28434498D01*
X41392952Y-28311585D01*
X41392951Y-28311584D01*
X41288416Y-28207049D01*
X40744233Y-27662866D01*
X40189213Y-27107845D01*
X40155728Y-27046522D01*
X40155292Y-27044431D01*
X40149737Y-27016503D01*
X40125599Y-26958230D01*
X40089397Y-26870827D01*
X40089390Y-26870814D01*
X40001789Y-26739711D01*
X40001786Y-26739707D01*
X39890292Y-26628213D01*
X39890288Y-26628210D01*
X39759185Y-26540609D01*
X39759172Y-26540602D01*
X39613501Y-26480264D01*
X39613489Y-26480261D01*
X39458845Y-26449500D01*
X39458842Y-26449500D01*
X39301158Y-26449500D01*
X39301155Y-26449500D01*
X39146510Y-26480261D01*
X39146498Y-26480264D01*
X39000827Y-26540602D01*
X39000814Y-26540609D01*
X38869711Y-26628210D01*
X38869707Y-26628213D01*
X38758213Y-26739707D01*
X38758210Y-26739711D01*
X38670609Y-26870814D01*
X38670602Y-26870827D01*
X38610264Y-27016498D01*
X38610261Y-27016510D01*
X38579500Y-27171153D01*
X38579500Y-27328846D01*
X38610261Y-27483489D01*
X38610264Y-27483501D01*
X38670602Y-27629171D01*
X38670604Y-27629175D01*
X38670606Y-27629179D01*
X38670609Y-27629184D01*
X38670610Y-27629185D01*
X38686333Y-27652718D01*
X38692434Y-27662866D01*
X38695400Y-27668380D01*
X38714916Y-27715495D01*
X38741497Y-27755276D01*
X38744792Y-27760208D01*
X38744794Y-27760211D01*
X38797051Y-27838420D01*
X38797052Y-27838421D01*
X40023181Y-29064548D01*
X40056666Y-29125871D01*
X40059500Y-29152229D01*
X40059500Y-30267174D01*
X40039815Y-30334213D01*
X39987011Y-30379968D01*
X39917853Y-30389912D01*
X39911310Y-30388792D01*
X39866946Y-30379968D01*
X39853679Y-30377329D01*
X39709979Y-30377329D01*
X39709974Y-30377329D01*
X39569049Y-30405360D01*
X39569040Y-30405363D01*
X39436287Y-30460350D01*
X39436274Y-30460357D01*
X39316800Y-30540188D01*
X39316796Y-30540191D01*
X39215191Y-30641796D01*
X39215188Y-30641800D01*
X39135357Y-30761274D01*
X39135354Y-30761280D01*
X39117420Y-30804577D01*
X39073578Y-30858980D01*
X39007284Y-30881044D01*
X38939585Y-30863764D01*
X38933969Y-30860226D01*
X38913723Y-30846698D01*
X38913712Y-30846692D01*
X38780959Y-30791705D01*
X38780950Y-30791702D01*
X38640025Y-30763671D01*
X38640021Y-30763671D01*
X38496321Y-30763671D01*
X38496316Y-30763671D01*
X38355391Y-30791702D01*
X38355382Y-30791705D01*
X38222629Y-30846692D01*
X38222616Y-30846699D01*
X38103142Y-30926530D01*
X38103138Y-30926533D01*
X38001533Y-31028138D01*
X38001530Y-31028142D01*
X37921699Y-31147616D01*
X37921692Y-31147629D01*
X37866705Y-31280382D01*
X37866702Y-31280391D01*
X37838671Y-31421316D01*
X36164011Y-31421316D01*
X36243469Y-31341858D01*
X36256212Y-31322788D01*
X36323300Y-31222383D01*
X36323302Y-31222380D01*
X36323304Y-31222377D01*
X36378295Y-31089616D01*
X36379135Y-31085396D01*
X36406328Y-30948683D01*
X36406329Y-30948680D01*
X36406329Y-30804978D01*
X36406328Y-30804974D01*
X36378297Y-30664049D01*
X36378294Y-30664040D01*
X36323307Y-30531287D01*
X36323300Y-30531274D01*
X36243469Y-30411800D01*
X36243466Y-30411796D01*
X36141861Y-30310191D01*
X36141857Y-30310188D01*
X36022380Y-30230355D01*
X35990116Y-30216991D01*
X35935712Y-30173149D01*
X35923008Y-30149882D01*
X35909649Y-30117630D01*
X35909648Y-30117629D01*
X35909646Y-30117623D01*
X35829811Y-29998142D01*
X35829808Y-29998138D01*
X35728203Y-29896533D01*
X35728199Y-29896530D01*
X35608725Y-29816699D01*
X35608712Y-29816692D01*
X35475959Y-29761705D01*
X35475950Y-29761702D01*
X35335025Y-29733671D01*
X35335021Y-29733671D01*
X35191321Y-29733671D01*
X35191316Y-29733671D01*
X35050391Y-29761702D01*
X35050382Y-29761705D01*
X34917629Y-29816692D01*
X34917616Y-29816699D01*
X34798142Y-29896530D01*
X34798138Y-29896533D01*
X34696533Y-29998138D01*
X34696530Y-29998142D01*
X34616699Y-30117616D01*
X34616692Y-30117629D01*
X34561705Y-30250382D01*
X34561702Y-30250391D01*
X34533671Y-30391316D01*
X33738731Y-30391316D01*
X33684354Y-30380500D01*
X33684350Y-30380500D01*
X33540650Y-30380500D01*
X33540646Y-30380500D01*
X33399719Y-30408532D01*
X33399702Y-30408537D01*
X33367450Y-30421896D01*
X33297980Y-30429363D01*
X33272550Y-30421896D01*
X33240297Y-30408537D01*
X33240280Y-30408532D01*
X33099353Y-30380500D01*
X33099350Y-30380500D01*
X32955650Y-30380500D01*
X32955645Y-30380500D01*
X32814720Y-30408531D01*
X32814711Y-30408534D01*
X32681958Y-30463521D01*
X32681945Y-30463528D01*
X32562471Y-30543359D01*
X32562467Y-30543362D01*
X32460862Y-30644967D01*
X32460859Y-30644971D01*
X32381028Y-30764445D01*
X32381021Y-30764458D01*
X32326034Y-30897211D01*
X32326031Y-30897220D01*
X32298000Y-31038145D01*
X21650500Y-31038145D01*
X21650500Y-24343517D01*
X35804500Y-24343517D01*
X35804500Y-24483482D01*
X35831802Y-24620737D01*
X35831805Y-24620749D01*
X35885361Y-24750046D01*
X35885363Y-24750050D01*
X35963114Y-24866412D01*
X35963120Y-24866420D01*
X36062079Y-24965379D01*
X36062087Y-24965385D01*
X36178449Y-25043136D01*
X36178453Y-25043138D01*
X36307750Y-25096694D01*
X36307755Y-25096696D01*
X36445017Y-25123999D01*
X36445021Y-25124000D01*
X36445022Y-25124000D01*
X36584979Y-25124000D01*
X36584980Y-25123999D01*
X36722245Y-25096696D01*
X36851548Y-25043137D01*
X36851550Y-25043136D01*
X36909341Y-25004520D01*
X36967917Y-24965382D01*
X37066882Y-24866417D01*
X37144637Y-24750048D01*
X37154652Y-24725871D01*
X37198194Y-24620749D01*
X37198196Y-24620745D01*
X37225500Y-24483478D01*
X37225500Y-24343522D01*
X37198196Y-24206255D01*
X37183627Y-24171082D01*
X37144638Y-24076953D01*
X37144636Y-24076949D01*
X37066885Y-23960587D01*
X37066879Y-23960579D01*
X36997508Y-23891208D01*
X36964023Y-23829885D01*
X36969007Y-23760193D01*
X37010879Y-23704260D01*
X37076343Y-23679843D01*
X37097346Y-23680124D01*
X37101153Y-23680499D01*
X37101158Y-23680500D01*
X37101163Y-23680500D01*
X37258844Y-23680500D01*
X37258845Y-23680499D01*
X37335152Y-23665320D01*
X37413488Y-23649739D01*
X37413489Y-23649738D01*
X37413497Y-23649737D01*
X37437155Y-23639937D01*
X37484604Y-23630500D01*
X50609202Y-23630500D01*
X50676241Y-23650185D01*
X50721996Y-23702989D01*
X50731940Y-23772147D01*
X50702915Y-23835703D01*
X50678092Y-23857603D01*
X50672080Y-23861619D01*
X50573120Y-23960579D01*
X50573114Y-23960587D01*
X50495363Y-24076949D01*
X50495361Y-24076953D01*
X50441805Y-24206250D01*
X50441802Y-24206262D01*
X50414500Y-24343517D01*
X50414500Y-24483482D01*
X50441802Y-24620737D01*
X50441805Y-24620749D01*
X50495361Y-24750046D01*
X50495363Y-24750050D01*
X50573114Y-24866412D01*
X50573120Y-24866420D01*
X50672079Y-24965379D01*
X50672087Y-24965385D01*
X50788449Y-25043136D01*
X50788453Y-25043138D01*
X50917750Y-25096694D01*
X50917755Y-25096696D01*
X51055017Y-25123999D01*
X51055021Y-25124000D01*
X51055022Y-25124000D01*
X51194979Y-25124000D01*
X51194980Y-25123999D01*
X51332245Y-25096696D01*
X51461548Y-25043137D01*
X51461550Y-25043136D01*
X51519341Y-25004520D01*
X51577917Y-24965382D01*
X51676882Y-24866417D01*
X51754637Y-24750048D01*
X51764652Y-24725871D01*
X51808194Y-24620749D01*
X51808196Y-24620745D01*
X51835500Y-24483478D01*
X51835500Y-24343522D01*
X51808196Y-24206255D01*
X51793627Y-24171082D01*
X51754638Y-24076953D01*
X51754636Y-24076949D01*
X51676885Y-23960587D01*
X51676879Y-23960579D01*
X51577919Y-23861619D01*
X51571908Y-23857603D01*
X51527102Y-23803991D01*
X51518395Y-23734666D01*
X51548549Y-23671638D01*
X51607992Y-23634918D01*
X51640798Y-23630500D01*
X53447770Y-23630500D01*
X53514809Y-23650185D01*
X53535451Y-23666819D01*
X54533181Y-24664548D01*
X54566666Y-24725871D01*
X54569500Y-24752229D01*
X54569500Y-31085396D01*
X54560062Y-31132844D01*
X54553939Y-31147629D01*
X54550262Y-31156506D01*
X54550260Y-31156511D01*
X54519500Y-31311153D01*
X54519500Y-31468846D01*
X54550261Y-31623489D01*
X54550264Y-31623501D01*
X54610602Y-31769172D01*
X54610609Y-31769185D01*
X54698210Y-31900288D01*
X54698213Y-31900292D01*
X54809707Y-32011786D01*
X54809711Y-32011789D01*
X54940814Y-32099390D01*
X54940827Y-32099397D01*
X55086498Y-32159735D01*
X55086503Y-32159737D01*
X55241153Y-32190499D01*
X55241156Y-32190500D01*
X55241158Y-32190500D01*
X55398844Y-32190500D01*
X55398845Y-32190499D01*
X55553497Y-32159737D01*
X55699179Y-32099394D01*
X55830289Y-32011789D01*
X55941789Y-31900289D01*
X56029394Y-31769179D01*
X56089737Y-31623497D01*
X56120500Y-31468842D01*
X56120500Y-31311158D01*
X56120500Y-31311155D01*
X56120499Y-31311153D01*
X56089739Y-31156511D01*
X56089738Y-31156508D01*
X56089737Y-31156503D01*
X56079937Y-31132844D01*
X56070500Y-31085396D01*
X56070500Y-24316079D01*
X56041659Y-24171092D01*
X56041658Y-24171091D01*
X56041658Y-24171087D01*
X56002665Y-24076949D01*
X55985087Y-24034511D01*
X55985080Y-24034498D01*
X55902952Y-23911585D01*
X55852981Y-23861614D01*
X55798416Y-23807049D01*
X55482686Y-23491319D01*
X54288421Y-22297052D01*
X54288414Y-22297046D01*
X54214729Y-22247812D01*
X54214729Y-22247813D01*
X54165491Y-22214913D01*
X54028917Y-22158343D01*
X54028907Y-22158340D01*
X53883920Y-22129500D01*
X53883918Y-22129500D01*
X37484604Y-22129500D01*
X37437155Y-22120062D01*
X37413497Y-22110263D01*
X37413493Y-22110262D01*
X37413488Y-22110260D01*
X37258845Y-22079500D01*
X37258842Y-22079500D01*
X37101158Y-22079500D01*
X37101155Y-22079500D01*
X36946510Y-22110261D01*
X36946498Y-22110264D01*
X36800827Y-22170602D01*
X36800814Y-22170609D01*
X36669711Y-22258210D01*
X36669707Y-22258213D01*
X36558213Y-22369707D01*
X36558210Y-22369711D01*
X36470609Y-22500814D01*
X36470602Y-22500827D01*
X36410264Y-22646498D01*
X36410261Y-22646510D01*
X36379500Y-22801153D01*
X36379500Y-22958846D01*
X36410261Y-23113489D01*
X36410264Y-23113501D01*
X36470602Y-23259172D01*
X36470609Y-23259185D01*
X36558210Y-23390288D01*
X36558213Y-23390292D01*
X36659240Y-23491319D01*
X36692725Y-23552642D01*
X36687741Y-23622334D01*
X36645869Y-23678267D01*
X36580405Y-23702684D01*
X36571559Y-23703000D01*
X36445017Y-23703000D01*
X36307762Y-23730302D01*
X36307750Y-23730305D01*
X36178453Y-23783861D01*
X36178449Y-23783863D01*
X36062087Y-23861614D01*
X36062079Y-23861620D01*
X35963120Y-23960579D01*
X35963114Y-23960587D01*
X35885363Y-24076949D01*
X35885361Y-24076953D01*
X35831805Y-24206250D01*
X35831802Y-24206262D01*
X35804500Y-24343517D01*
X21650500Y-24343517D01*
X21650500Y-19575413D01*
X21650972Y-19564606D01*
X21657682Y-19487909D01*
X21664739Y-19407242D01*
X21668490Y-19385966D01*
X21707969Y-19238627D01*
X21715362Y-19218318D01*
X21779823Y-19080081D01*
X21790629Y-19061366D01*
X21878119Y-18936417D01*
X21892007Y-18919865D01*
X21999865Y-18812007D01*
X22016417Y-18798119D01*
X22141366Y-18710629D01*
X22160081Y-18699823D01*
X22298320Y-18635361D01*
X22318627Y-18627969D01*
X22465966Y-18588490D01*
X22487242Y-18584739D01*
X22619885Y-18573134D01*
X22644606Y-18570972D01*
X22655413Y-18570500D01*
X22715892Y-18570500D01*
X36806926Y-18570500D01*
X36873965Y-18590185D01*
G37*
%TD.AperFunction*%
%TD*%
%TA.AperFunction,Conductor*%
%TO.N,3.3v*%
G36*
X102830394Y-18570972D02*
G01*
X102860721Y-18573625D01*
X102987755Y-18584739D01*
X103009035Y-18588491D01*
X103126188Y-18619882D01*
X103156369Y-18627969D01*
X103176681Y-18635362D01*
X103314915Y-18699822D01*
X103333633Y-18710629D01*
X103458582Y-18798119D01*
X103475140Y-18812013D01*
X103582986Y-18919859D01*
X103596880Y-18936417D01*
X103684370Y-19061366D01*
X103695177Y-19080084D01*
X103759637Y-19218318D01*
X103767030Y-19238630D01*
X103806507Y-19385961D01*
X103810260Y-19407246D01*
X103824028Y-19564605D01*
X103824500Y-19575413D01*
X103824500Y-23966458D01*
X103804815Y-24033497D01*
X103752011Y-24079252D01*
X103682853Y-24089196D01*
X103619297Y-24060171D01*
X103583459Y-24007413D01*
X103535160Y-23869385D01*
X103501536Y-23773292D01*
X103345566Y-23449418D01*
X103154315Y-23145044D01*
X102930188Y-22863997D01*
X102676003Y-22609812D01*
X102394956Y-22385685D01*
X102100236Y-22200500D01*
X102090579Y-22194432D01*
X101766711Y-22038465D01*
X101427419Y-21919741D01*
X101427407Y-21919737D01*
X101076951Y-21839748D01*
X101076935Y-21839746D01*
X100719740Y-21799500D01*
X100719736Y-21799500D01*
X100360264Y-21799500D01*
X100360259Y-21799500D01*
X100003064Y-21839746D01*
X100003048Y-21839748D01*
X99652592Y-21919737D01*
X99652580Y-21919741D01*
X99313288Y-22038465D01*
X98989420Y-22194432D01*
X98685045Y-22385684D01*
X98403997Y-22609811D01*
X98149811Y-22863997D01*
X97925684Y-23145045D01*
X97734432Y-23449420D01*
X97578465Y-23773288D01*
X97459741Y-24112580D01*
X97459737Y-24112592D01*
X97379748Y-24463048D01*
X97379746Y-24463064D01*
X97339500Y-24820259D01*
X97339500Y-25179740D01*
X97379746Y-25536935D01*
X97379748Y-25536951D01*
X97459737Y-25887407D01*
X97459741Y-25887419D01*
X97578465Y-26226711D01*
X97734432Y-26550579D01*
X97734434Y-26550582D01*
X97925685Y-26854956D01*
X98149812Y-27136003D01*
X98403997Y-27390188D01*
X98685044Y-27614315D01*
X98989418Y-27805566D01*
X98989420Y-27805567D01*
X99014033Y-27817420D01*
X99313292Y-27961536D01*
X99568119Y-28050703D01*
X99652580Y-28080258D01*
X99652592Y-28080262D01*
X100003052Y-28160252D01*
X100360260Y-28200499D01*
X100360261Y-28200500D01*
X100360264Y-28200500D01*
X100719739Y-28200500D01*
X100719739Y-28200499D01*
X101076948Y-28160252D01*
X101427408Y-28080262D01*
X101766708Y-27961536D01*
X102090582Y-27805566D01*
X102394956Y-27614315D01*
X102676003Y-27390188D01*
X102930188Y-27136003D01*
X103154315Y-26854956D01*
X103345566Y-26550582D01*
X103501536Y-26226708D01*
X103583459Y-25992586D01*
X103624180Y-25935810D01*
X103689133Y-25910063D01*
X103757695Y-25923519D01*
X103808097Y-25971907D01*
X103824500Y-26033541D01*
X103824500Y-38494586D01*
X103824028Y-38505394D01*
X103810260Y-38662753D01*
X103806507Y-38684038D01*
X103767030Y-38831369D01*
X103759637Y-38851681D01*
X103695177Y-38989915D01*
X103684370Y-39008633D01*
X103596880Y-39133582D01*
X103582986Y-39150140D01*
X103475140Y-39257986D01*
X103458582Y-39271880D01*
X103333633Y-39359370D01*
X103314915Y-39370177D01*
X103176681Y-39434637D01*
X103156369Y-39442030D01*
X103009038Y-39481507D01*
X102987753Y-39485260D01*
X102830395Y-39499028D01*
X102819587Y-39499500D01*
X60624000Y-39499500D01*
X60556961Y-39479815D01*
X60511206Y-39427011D01*
X60500000Y-39375500D01*
X60500000Y-33396153D01*
X65899500Y-33396153D01*
X65899500Y-33553846D01*
X65930261Y-33708489D01*
X65930264Y-33708501D01*
X65990602Y-33854172D01*
X65990609Y-33854185D01*
X66078210Y-33985288D01*
X66078213Y-33985292D01*
X66189707Y-34096786D01*
X66189711Y-34096789D01*
X66320814Y-34184390D01*
X66320827Y-34184397D01*
X66466498Y-34244735D01*
X66466503Y-34244737D01*
X66621153Y-34275499D01*
X66621156Y-34275500D01*
X66621158Y-34275500D01*
X66778844Y-34275500D01*
X66778845Y-34275499D01*
X66933497Y-34244737D01*
X67079179Y-34184394D01*
X67210289Y-34096789D01*
X67321789Y-33985289D01*
X67409394Y-33854179D01*
X67469737Y-33708497D01*
X67500500Y-33553842D01*
X67500500Y-33396158D01*
X67500500Y-33396155D01*
X67500499Y-33396153D01*
X67899500Y-33396153D01*
X67899500Y-33553846D01*
X67930261Y-33708489D01*
X67930264Y-33708501D01*
X67990602Y-33854172D01*
X67990609Y-33854185D01*
X68078210Y-33985288D01*
X68078213Y-33985292D01*
X68189707Y-34096786D01*
X68189711Y-34096789D01*
X68320814Y-34184390D01*
X68320827Y-34184397D01*
X68466498Y-34244735D01*
X68466503Y-34244737D01*
X68621153Y-34275499D01*
X68621156Y-34275500D01*
X68621158Y-34275500D01*
X68778844Y-34275500D01*
X68778845Y-34275499D01*
X68933497Y-34244737D01*
X69079179Y-34184394D01*
X69210289Y-34096789D01*
X69321789Y-33985289D01*
X69409394Y-33854179D01*
X69469737Y-33708497D01*
X69500500Y-33553842D01*
X69500500Y-33396158D01*
X69500500Y-33396155D01*
X69500499Y-33396153D01*
X69899500Y-33396153D01*
X69899500Y-33553846D01*
X69930261Y-33708489D01*
X69930264Y-33708501D01*
X69990602Y-33854172D01*
X69990609Y-33854185D01*
X70078210Y-33985288D01*
X70078213Y-33985292D01*
X70189707Y-34096786D01*
X70189711Y-34096789D01*
X70320814Y-34184390D01*
X70320827Y-34184397D01*
X70466498Y-34244735D01*
X70466503Y-34244737D01*
X70621153Y-34275499D01*
X70621156Y-34275500D01*
X70621158Y-34275500D01*
X70778844Y-34275500D01*
X70778845Y-34275499D01*
X70933497Y-34244737D01*
X71079179Y-34184394D01*
X71210289Y-34096789D01*
X71321789Y-33985289D01*
X71409394Y-33854179D01*
X71469737Y-33708497D01*
X71500500Y-33553842D01*
X71500500Y-33396158D01*
X71500500Y-33396155D01*
X71500499Y-33396153D01*
X71899500Y-33396153D01*
X71899500Y-33553846D01*
X71930261Y-33708489D01*
X71930264Y-33708501D01*
X71990602Y-33854172D01*
X71990609Y-33854185D01*
X72078210Y-33985288D01*
X72078213Y-33985292D01*
X72189707Y-34096786D01*
X72189711Y-34096789D01*
X72320814Y-34184390D01*
X72320827Y-34184397D01*
X72466498Y-34244735D01*
X72466503Y-34244737D01*
X72621153Y-34275499D01*
X72621156Y-34275500D01*
X72621158Y-34275500D01*
X72778844Y-34275500D01*
X72778845Y-34275499D01*
X72933497Y-34244737D01*
X73079179Y-34184394D01*
X73210289Y-34096789D01*
X73321789Y-33985289D01*
X73409394Y-33854179D01*
X73469737Y-33708497D01*
X73500500Y-33553842D01*
X73500500Y-33396158D01*
X73500500Y-33396155D01*
X73500499Y-33396153D01*
X73469738Y-33241510D01*
X73469737Y-33241503D01*
X73469735Y-33241498D01*
X73409397Y-33095827D01*
X73409390Y-33095814D01*
X73321789Y-32964711D01*
X73321786Y-32964707D01*
X73210292Y-32853213D01*
X73210288Y-32853210D01*
X73079185Y-32765609D01*
X73079172Y-32765602D01*
X72933501Y-32705264D01*
X72933489Y-32705261D01*
X72778845Y-32674500D01*
X72778842Y-32674500D01*
X72621158Y-32674500D01*
X72621155Y-32674500D01*
X72466510Y-32705261D01*
X72466498Y-32705264D01*
X72320827Y-32765602D01*
X72320814Y-32765609D01*
X72189711Y-32853210D01*
X72189707Y-32853213D01*
X72078213Y-32964707D01*
X72078210Y-32964711D01*
X71990609Y-33095814D01*
X71990602Y-33095827D01*
X71930264Y-33241498D01*
X71930261Y-33241510D01*
X71899500Y-33396153D01*
X71500499Y-33396153D01*
X71469738Y-33241510D01*
X71469737Y-33241503D01*
X71469735Y-33241498D01*
X71409397Y-33095827D01*
X71409390Y-33095814D01*
X71321789Y-32964711D01*
X71321786Y-32964707D01*
X71210292Y-32853213D01*
X71210288Y-32853210D01*
X71079185Y-32765609D01*
X71079172Y-32765602D01*
X70933501Y-32705264D01*
X70933489Y-32705261D01*
X70778845Y-32674500D01*
X70778842Y-32674500D01*
X70621158Y-32674500D01*
X70621155Y-32674500D01*
X70466510Y-32705261D01*
X70466498Y-32705264D01*
X70320827Y-32765602D01*
X70320814Y-32765609D01*
X70189711Y-32853210D01*
X70189707Y-32853213D01*
X70078213Y-32964707D01*
X70078210Y-32964711D01*
X69990609Y-33095814D01*
X69990602Y-33095827D01*
X69930264Y-33241498D01*
X69930261Y-33241510D01*
X69899500Y-33396153D01*
X69500499Y-33396153D01*
X69469738Y-33241510D01*
X69469737Y-33241503D01*
X69469735Y-33241498D01*
X69409397Y-33095827D01*
X69409390Y-33095814D01*
X69321789Y-32964711D01*
X69321786Y-32964707D01*
X69210292Y-32853213D01*
X69210288Y-32853210D01*
X69079185Y-32765609D01*
X69079172Y-32765602D01*
X68933501Y-32705264D01*
X68933489Y-32705261D01*
X68778845Y-32674500D01*
X68778842Y-32674500D01*
X68621158Y-32674500D01*
X68621155Y-32674500D01*
X68466510Y-32705261D01*
X68466498Y-32705264D01*
X68320827Y-32765602D01*
X68320814Y-32765609D01*
X68189711Y-32853210D01*
X68189707Y-32853213D01*
X68078213Y-32964707D01*
X68078210Y-32964711D01*
X67990609Y-33095814D01*
X67990602Y-33095827D01*
X67930264Y-33241498D01*
X67930261Y-33241510D01*
X67899500Y-33396153D01*
X67500499Y-33396153D01*
X67469738Y-33241510D01*
X67469737Y-33241503D01*
X67469735Y-33241498D01*
X67409397Y-33095827D01*
X67409390Y-33095814D01*
X67321789Y-32964711D01*
X67321786Y-32964707D01*
X67210292Y-32853213D01*
X67210288Y-32853210D01*
X67079185Y-32765609D01*
X67079172Y-32765602D01*
X66933501Y-32705264D01*
X66933489Y-32705261D01*
X66778845Y-32674500D01*
X66778842Y-32674500D01*
X66621158Y-32674500D01*
X66621155Y-32674500D01*
X66466510Y-32705261D01*
X66466498Y-32705264D01*
X66320827Y-32765602D01*
X66320814Y-32765609D01*
X66189711Y-32853210D01*
X66189707Y-32853213D01*
X66078213Y-32964707D01*
X66078210Y-32964711D01*
X65990609Y-33095814D01*
X65990602Y-33095827D01*
X65930264Y-33241498D01*
X65930261Y-33241510D01*
X65899500Y-33396153D01*
X60500000Y-33396153D01*
X60500000Y-29846153D01*
X64949500Y-29846153D01*
X64949500Y-30003846D01*
X64980261Y-30158489D01*
X64980264Y-30158501D01*
X65040602Y-30304172D01*
X65040609Y-30304185D01*
X65128210Y-30435288D01*
X65128213Y-30435292D01*
X65239707Y-30546786D01*
X65239711Y-30546789D01*
X65370814Y-30634390D01*
X65370827Y-30634397D01*
X65516498Y-30694735D01*
X65516503Y-30694737D01*
X65671153Y-30725499D01*
X65671156Y-30725500D01*
X65671158Y-30725500D01*
X65828844Y-30725500D01*
X65828845Y-30725499D01*
X65983497Y-30694737D01*
X66129179Y-30634394D01*
X66260289Y-30546789D01*
X66371789Y-30435289D01*
X66459394Y-30304179D01*
X66519737Y-30158497D01*
X66550500Y-30003842D01*
X66550500Y-29846158D01*
X66550500Y-29846155D01*
X66550499Y-29846153D01*
X66545245Y-29819738D01*
X66519737Y-29691503D01*
X66511570Y-29671786D01*
X66459397Y-29545827D01*
X66459390Y-29545814D01*
X66371789Y-29414711D01*
X66371786Y-29414707D01*
X66260292Y-29303213D01*
X66260288Y-29303210D01*
X66129185Y-29215609D01*
X66129172Y-29215602D01*
X65983501Y-29155264D01*
X65983489Y-29155261D01*
X65828845Y-29124500D01*
X65828842Y-29124500D01*
X65671158Y-29124500D01*
X65671155Y-29124500D01*
X65516510Y-29155261D01*
X65516498Y-29155264D01*
X65370827Y-29215602D01*
X65370814Y-29215609D01*
X65239711Y-29303210D01*
X65239707Y-29303213D01*
X65128213Y-29414707D01*
X65128210Y-29414711D01*
X65040609Y-29545814D01*
X65040602Y-29545827D01*
X64980264Y-29691498D01*
X64980261Y-29691510D01*
X64949500Y-29846153D01*
X60500000Y-29846153D01*
X60500000Y-28971153D01*
X69774500Y-28971153D01*
X69774500Y-29128846D01*
X69805261Y-29283489D01*
X69805264Y-29283501D01*
X69865602Y-29429172D01*
X69865609Y-29429185D01*
X69953210Y-29560288D01*
X69953213Y-29560292D01*
X70064707Y-29671786D01*
X70064711Y-29671789D01*
X70195814Y-29759390D01*
X70195827Y-29759397D01*
X70341498Y-29819735D01*
X70341503Y-29819737D01*
X70496153Y-29850499D01*
X70496156Y-29850500D01*
X70496158Y-29850500D01*
X70653844Y-29850500D01*
X70653845Y-29850499D01*
X70808497Y-29819737D01*
X70954179Y-29759394D01*
X71085289Y-29671789D01*
X71196789Y-29560289D01*
X71284394Y-29429179D01*
X71290389Y-29414707D01*
X71330721Y-29317335D01*
X71344737Y-29283497D01*
X71375500Y-29128842D01*
X71375500Y-28971158D01*
X71375500Y-28971155D01*
X71375499Y-28971153D01*
X71357168Y-28878999D01*
X71344737Y-28816503D01*
X71284794Y-28671786D01*
X71284397Y-28670827D01*
X71284390Y-28670814D01*
X71196789Y-28539711D01*
X71196786Y-28539707D01*
X71085292Y-28428213D01*
X71085288Y-28428210D01*
X70954185Y-28340609D01*
X70954172Y-28340602D01*
X70808501Y-28280264D01*
X70808489Y-28280261D01*
X70653845Y-28249500D01*
X70653842Y-28249500D01*
X70496158Y-28249500D01*
X70496155Y-28249500D01*
X70341510Y-28280261D01*
X70341498Y-28280264D01*
X70195827Y-28340602D01*
X70195814Y-28340609D01*
X70064711Y-28428210D01*
X70064707Y-28428213D01*
X69953213Y-28539707D01*
X69953210Y-28539711D01*
X69865609Y-28670814D01*
X69865602Y-28670827D01*
X69805264Y-28816498D01*
X69805261Y-28816510D01*
X69774500Y-28971153D01*
X60500000Y-28971153D01*
X60500000Y-27971153D01*
X74799500Y-27971153D01*
X74799500Y-28128846D01*
X74830261Y-28283489D01*
X74830264Y-28283501D01*
X74890602Y-28429172D01*
X74890609Y-28429185D01*
X74978210Y-28560288D01*
X74978213Y-28560292D01*
X75089707Y-28671786D01*
X75089711Y-28671789D01*
X75220814Y-28759390D01*
X75220827Y-28759397D01*
X75358683Y-28816498D01*
X75366503Y-28819737D01*
X75521153Y-28850499D01*
X75521156Y-28850500D01*
X75521158Y-28850500D01*
X75678844Y-28850500D01*
X75678845Y-28850499D01*
X75833497Y-28819737D01*
X75979179Y-28759394D01*
X76110289Y-28671789D01*
X76221789Y-28560289D01*
X76309394Y-28429179D01*
X76369737Y-28283497D01*
X76400500Y-28128842D01*
X76400500Y-27971158D01*
X76400500Y-27971155D01*
X76400499Y-27971153D01*
X76388088Y-27908760D01*
X76369737Y-27816503D01*
X76364629Y-27804172D01*
X76309397Y-27670827D01*
X76309390Y-27670814D01*
X76221789Y-27539711D01*
X76221786Y-27539707D01*
X76110292Y-27428213D01*
X76110288Y-27428210D01*
X76007290Y-27359388D01*
X79161265Y-27359388D01*
X79161265Y-27517081D01*
X79192026Y-27671724D01*
X79192029Y-27671736D01*
X79252367Y-27817407D01*
X79252374Y-27817420D01*
X79339975Y-27948523D01*
X79339978Y-27948527D01*
X79451472Y-28060021D01*
X79451476Y-28060024D01*
X79582579Y-28147625D01*
X79582592Y-28147632D01*
X79696318Y-28194738D01*
X79728268Y-28207972D01*
X79816382Y-28225499D01*
X79882918Y-28238734D01*
X79882921Y-28238735D01*
X79882923Y-28238735D01*
X80040609Y-28238735D01*
X80040610Y-28238734D01*
X80195262Y-28207972D01*
X80340944Y-28147629D01*
X80472054Y-28060024D01*
X80510292Y-28021786D01*
X80549819Y-27982260D01*
X80611142Y-27948775D01*
X80680834Y-27953759D01*
X80725181Y-27982260D01*
X80764707Y-28021786D01*
X80764711Y-28021789D01*
X80895814Y-28109390D01*
X80895827Y-28109397D01*
X81018604Y-28160252D01*
X81041503Y-28169737D01*
X81167176Y-28194735D01*
X81196153Y-28200499D01*
X81196156Y-28200500D01*
X81196158Y-28200500D01*
X81353844Y-28200500D01*
X81353845Y-28200499D01*
X81508497Y-28169737D01*
X81654179Y-28109394D01*
X81785289Y-28021789D01*
X81896789Y-27910289D01*
X81984394Y-27779179D01*
X82044737Y-27633497D01*
X82075500Y-27478842D01*
X82075500Y-27346153D01*
X86774500Y-27346153D01*
X86774500Y-27503846D01*
X86805261Y-27658489D01*
X86805264Y-27658501D01*
X86865602Y-27804172D01*
X86865609Y-27804185D01*
X86953210Y-27935288D01*
X86953213Y-27935292D01*
X87064707Y-28046786D01*
X87064711Y-28046789D01*
X87195814Y-28134390D01*
X87195827Y-28134397D01*
X87341498Y-28194735D01*
X87341503Y-28194737D01*
X87496153Y-28225499D01*
X87496156Y-28225500D01*
X87496158Y-28225500D01*
X87653844Y-28225500D01*
X87653845Y-28225499D01*
X87808497Y-28194737D01*
X87954179Y-28134394D01*
X87977647Y-28118713D01*
X89719500Y-28118713D01*
X89719500Y-28331287D01*
X89729534Y-28394644D01*
X89752510Y-28539707D01*
X89752754Y-28541243D01*
X89795170Y-28671786D01*
X89818444Y-28743414D01*
X89914951Y-28932820D01*
X90039890Y-29104786D01*
X90190213Y-29255109D01*
X90362179Y-29380048D01*
X90362181Y-29380049D01*
X90362184Y-29380051D01*
X90551588Y-29476557D01*
X90753757Y-29542246D01*
X90963713Y-29575500D01*
X90963714Y-29575500D01*
X91176286Y-29575500D01*
X91176287Y-29575500D01*
X91386243Y-29542246D01*
X91588412Y-29476557D01*
X91777816Y-29380051D01*
X91864138Y-29317335D01*
X91949786Y-29255109D01*
X91949788Y-29255106D01*
X91949792Y-29255104D01*
X92100104Y-29104792D01*
X92100106Y-29104788D01*
X92100109Y-29104786D01*
X92225048Y-28932820D01*
X92225047Y-28932820D01*
X92225051Y-28932816D01*
X92229514Y-28924054D01*
X92277488Y-28873259D01*
X92345308Y-28856463D01*
X92411444Y-28878999D01*
X92450486Y-28924056D01*
X92454951Y-28932820D01*
X92579890Y-29104786D01*
X92730213Y-29255109D01*
X92902179Y-29380048D01*
X92902181Y-29380049D01*
X92902184Y-29380051D01*
X93091588Y-29476557D01*
X93293757Y-29542246D01*
X93503713Y-29575500D01*
X93503714Y-29575500D01*
X93716286Y-29575500D01*
X93716287Y-29575500D01*
X93926243Y-29542246D01*
X94128412Y-29476557D01*
X94317816Y-29380051D01*
X94489792Y-29255104D01*
X94603329Y-29141566D01*
X94664648Y-29108084D01*
X94734340Y-29113068D01*
X94790274Y-29154939D01*
X94807189Y-29185917D01*
X94856202Y-29317328D01*
X94856206Y-29317335D01*
X94942452Y-29432544D01*
X94942455Y-29432547D01*
X95057664Y-29518793D01*
X95057671Y-29518797D01*
X95192517Y-29569091D01*
X95192516Y-29569091D01*
X95199444Y-29569835D01*
X95252127Y-29575500D01*
X97047872Y-29575499D01*
X97107483Y-29569091D01*
X97242331Y-29518796D01*
X97357546Y-29432546D01*
X97443796Y-29317331D01*
X97494091Y-29182483D01*
X97500500Y-29122873D01*
X97500499Y-27327128D01*
X97494091Y-27267517D01*
X97492810Y-27264083D01*
X97443797Y-27132671D01*
X97443793Y-27132664D01*
X97357547Y-27017455D01*
X97357544Y-27017452D01*
X97242335Y-26931206D01*
X97242328Y-26931202D01*
X97107482Y-26880908D01*
X97107483Y-26880908D01*
X97047883Y-26874501D01*
X97047881Y-26874500D01*
X97047873Y-26874500D01*
X97047864Y-26874500D01*
X95252129Y-26874500D01*
X95252123Y-26874501D01*
X95192516Y-26880908D01*
X95057671Y-26931202D01*
X95057664Y-26931206D01*
X94942455Y-27017452D01*
X94942452Y-27017455D01*
X94856206Y-27132664D01*
X94856203Y-27132669D01*
X94807189Y-27264083D01*
X94765317Y-27320016D01*
X94699853Y-27344433D01*
X94631580Y-27329581D01*
X94603326Y-27308430D01*
X94489786Y-27194890D01*
X94317820Y-27069951D01*
X94128414Y-26973444D01*
X94128413Y-26973443D01*
X94128412Y-26973443D01*
X93926243Y-26907754D01*
X93926241Y-26907753D01*
X93926240Y-26907753D01*
X93764957Y-26882208D01*
X93716287Y-26874500D01*
X93503713Y-26874500D01*
X93455042Y-26882208D01*
X93293760Y-26907753D01*
X93091585Y-26973444D01*
X92902179Y-27069951D01*
X92730213Y-27194890D01*
X92579890Y-27345213D01*
X92454949Y-27517182D01*
X92450484Y-27525946D01*
X92402509Y-27576742D01*
X92334688Y-27593536D01*
X92268553Y-27570998D01*
X92229516Y-27525946D01*
X92225050Y-27517182D01*
X92100109Y-27345213D01*
X91949786Y-27194890D01*
X91777820Y-27069951D01*
X91588414Y-26973444D01*
X91588413Y-26973443D01*
X91588412Y-26973443D01*
X91386243Y-26907754D01*
X91386241Y-26907753D01*
X91386240Y-26907753D01*
X91224957Y-26882208D01*
X91176287Y-26874500D01*
X90963713Y-26874500D01*
X90915042Y-26882208D01*
X90753760Y-26907753D01*
X90551585Y-26973444D01*
X90362179Y-27069951D01*
X90190213Y-27194890D01*
X90039890Y-27345213D01*
X89914951Y-27517179D01*
X89818444Y-27706585D01*
X89752753Y-27908760D01*
X89719500Y-28118713D01*
X87977647Y-28118713D01*
X88085289Y-28046789D01*
X88085292Y-28046786D01*
X88105919Y-28026160D01*
X88196786Y-27935292D01*
X88196789Y-27935289D01*
X88284394Y-27804179D01*
X88344737Y-27658497D01*
X88375500Y-27503842D01*
X88375500Y-27346158D01*
X88375500Y-27346155D01*
X88375499Y-27346153D01*
X88370527Y-27321158D01*
X88344737Y-27191503D01*
X88334380Y-27166498D01*
X88284397Y-27045827D01*
X88284390Y-27045814D01*
X88196789Y-26914711D01*
X88196786Y-26914707D01*
X88085292Y-26803213D01*
X88085288Y-26803210D01*
X87954185Y-26715609D01*
X87954172Y-26715602D01*
X87808501Y-26655264D01*
X87808489Y-26655261D01*
X87653845Y-26624500D01*
X87653842Y-26624500D01*
X87496158Y-26624500D01*
X87496155Y-26624500D01*
X87341510Y-26655261D01*
X87341498Y-26655264D01*
X87195827Y-26715602D01*
X87195814Y-26715609D01*
X87064711Y-26803210D01*
X87064707Y-26803213D01*
X86953213Y-26914707D01*
X86953210Y-26914711D01*
X86865609Y-27045814D01*
X86865602Y-27045827D01*
X86805264Y-27191498D01*
X86805261Y-27191510D01*
X86774500Y-27346153D01*
X82075500Y-27346153D01*
X82075500Y-27321158D01*
X82075500Y-27321155D01*
X82075499Y-27321153D01*
X82052341Y-27204733D01*
X82044737Y-27166503D01*
X82032103Y-27136002D01*
X81984397Y-27020827D01*
X81984390Y-27020814D01*
X81896789Y-26889711D01*
X81896786Y-26889707D01*
X81785292Y-26778213D01*
X81785288Y-26778210D01*
X81654185Y-26690609D01*
X81654172Y-26690602D01*
X81508501Y-26630264D01*
X81508489Y-26630261D01*
X81353845Y-26599500D01*
X81353842Y-26599500D01*
X81196158Y-26599500D01*
X81196155Y-26599500D01*
X81041510Y-26630261D01*
X81041498Y-26630264D01*
X80895827Y-26690602D01*
X80895814Y-26690609D01*
X80764711Y-26778210D01*
X80764707Y-26778213D01*
X80686946Y-26855975D01*
X80625623Y-26889460D01*
X80555931Y-26884476D01*
X80511584Y-26855975D01*
X80472057Y-26816448D01*
X80472053Y-26816445D01*
X80340950Y-26728844D01*
X80340937Y-26728837D01*
X80195266Y-26668499D01*
X80195254Y-26668496D01*
X80040610Y-26637735D01*
X80040607Y-26637735D01*
X79882923Y-26637735D01*
X79882920Y-26637735D01*
X79728275Y-26668496D01*
X79728263Y-26668499D01*
X79582592Y-26728837D01*
X79582579Y-26728844D01*
X79451476Y-26816445D01*
X79451472Y-26816448D01*
X79339978Y-26927942D01*
X79339975Y-26927946D01*
X79252374Y-27059049D01*
X79252367Y-27059062D01*
X79192029Y-27204733D01*
X79192026Y-27204745D01*
X79161265Y-27359388D01*
X76007290Y-27359388D01*
X75979185Y-27340609D01*
X75979172Y-27340602D01*
X75833501Y-27280264D01*
X75833489Y-27280261D01*
X75678845Y-27249500D01*
X75678842Y-27249500D01*
X75521158Y-27249500D01*
X75521155Y-27249500D01*
X75366510Y-27280261D01*
X75366498Y-27280264D01*
X75220827Y-27340602D01*
X75220814Y-27340609D01*
X75089711Y-27428210D01*
X75089707Y-27428213D01*
X74978213Y-27539707D01*
X74978210Y-27539711D01*
X74890609Y-27670814D01*
X74890602Y-27670827D01*
X74830264Y-27816498D01*
X74830261Y-27816510D01*
X74799500Y-27971153D01*
X60500000Y-27971153D01*
X60500000Y-24482495D01*
X61171499Y-24482495D01*
X61198418Y-24617822D01*
X61198421Y-24617832D01*
X61251221Y-24745304D01*
X61251228Y-24745317D01*
X61327885Y-24860041D01*
X61327888Y-24860045D01*
X61425454Y-24957611D01*
X61425458Y-24957614D01*
X61540182Y-25034271D01*
X61540195Y-25034278D01*
X61667667Y-25087078D01*
X61667672Y-25087080D01*
X61667676Y-25087080D01*
X61667677Y-25087081D01*
X61803004Y-25114000D01*
X61803007Y-25114000D01*
X61940995Y-25114000D01*
X62032041Y-25095889D01*
X62076328Y-25087080D01*
X62203811Y-25034275D01*
X62318542Y-24957614D01*
X62416114Y-24860042D01*
X62492775Y-24745311D01*
X62545580Y-24617828D01*
X62572500Y-24482495D01*
X88475499Y-24482495D01*
X88502418Y-24617822D01*
X88502421Y-24617832D01*
X88555221Y-24745304D01*
X88555228Y-24745317D01*
X88631885Y-24860041D01*
X88631888Y-24860045D01*
X88729454Y-24957611D01*
X88729458Y-24957614D01*
X88844182Y-25034271D01*
X88844195Y-25034278D01*
X88971667Y-25087078D01*
X88971672Y-25087080D01*
X88971676Y-25087080D01*
X88971677Y-25087081D01*
X89107004Y-25114000D01*
X89107007Y-25114000D01*
X89244995Y-25114000D01*
X89336041Y-25095889D01*
X89380328Y-25087080D01*
X89507811Y-25034275D01*
X89622542Y-24957614D01*
X89720114Y-24860042D01*
X89796775Y-24745311D01*
X89849580Y-24617828D01*
X89876500Y-24482493D01*
X89876500Y-24344507D01*
X89876500Y-24344504D01*
X89849581Y-24209177D01*
X89849580Y-24209176D01*
X89849580Y-24209172D01*
X89849578Y-24209167D01*
X89796778Y-24081695D01*
X89796771Y-24081682D01*
X89720114Y-23966958D01*
X89720111Y-23966954D01*
X89622545Y-23869388D01*
X89622541Y-23869385D01*
X89507817Y-23792728D01*
X89507804Y-23792721D01*
X89380332Y-23739921D01*
X89380322Y-23739918D01*
X89244995Y-23713000D01*
X89244993Y-23713000D01*
X89107007Y-23713000D01*
X89107005Y-23713000D01*
X88971677Y-23739918D01*
X88971667Y-23739921D01*
X88844195Y-23792721D01*
X88844182Y-23792728D01*
X88729458Y-23869385D01*
X88729454Y-23869388D01*
X88631888Y-23966954D01*
X88631885Y-23966958D01*
X88555228Y-24081682D01*
X88555221Y-24081695D01*
X88502421Y-24209167D01*
X88502418Y-24209177D01*
X88475500Y-24344504D01*
X88475500Y-24344507D01*
X88475500Y-24482493D01*
X88475500Y-24482495D01*
X88475499Y-24482495D01*
X62572500Y-24482495D01*
X62572500Y-24482493D01*
X62572500Y-24344507D01*
X62572500Y-24344504D01*
X62545581Y-24209177D01*
X62545580Y-24209176D01*
X62545580Y-24209172D01*
X62545578Y-24209167D01*
X62492778Y-24081695D01*
X62492771Y-24081682D01*
X62416114Y-23966958D01*
X62416111Y-23966954D01*
X62318545Y-23869388D01*
X62318541Y-23869385D01*
X62203817Y-23792728D01*
X62203804Y-23792721D01*
X62076332Y-23739921D01*
X62076322Y-23739918D01*
X61940995Y-23713000D01*
X61940993Y-23713000D01*
X61803007Y-23713000D01*
X61803005Y-23713000D01*
X61667677Y-23739918D01*
X61667667Y-23739921D01*
X61540195Y-23792721D01*
X61540182Y-23792728D01*
X61425458Y-23869385D01*
X61425454Y-23869388D01*
X61327888Y-23966954D01*
X61327885Y-23966958D01*
X61251228Y-24081682D01*
X61251221Y-24081695D01*
X61198421Y-24209167D01*
X61198418Y-24209177D01*
X61171500Y-24344504D01*
X61171500Y-24344507D01*
X61171500Y-24482493D01*
X61171500Y-24482495D01*
X61171499Y-24482495D01*
X60500000Y-24482495D01*
X60500000Y-21321153D01*
X62658500Y-21321153D01*
X62658500Y-21478846D01*
X62689261Y-21633489D01*
X62689264Y-21633501D01*
X62749602Y-21779172D01*
X62749609Y-21779185D01*
X62837210Y-21910288D01*
X62837213Y-21910292D01*
X62948707Y-22021786D01*
X62948711Y-22021789D01*
X63079814Y-22109390D01*
X63079827Y-22109397D01*
X63225498Y-22169735D01*
X63225503Y-22169737D01*
X63380153Y-22200499D01*
X63380156Y-22200500D01*
X63380158Y-22200500D01*
X63537844Y-22200500D01*
X63537845Y-22200499D01*
X63692497Y-22169737D01*
X63838179Y-22109394D01*
X63969289Y-22021789D01*
X63995343Y-21995735D01*
X64085097Y-21905982D01*
X64087039Y-21907924D01*
X64134935Y-21875217D01*
X64204778Y-21873265D01*
X64242069Y-21890069D01*
X64345821Y-21959394D01*
X64345823Y-21959395D01*
X64345827Y-21959397D01*
X64436101Y-21996789D01*
X64491503Y-22019737D01*
X64646153Y-22050499D01*
X64646156Y-22050500D01*
X64646158Y-22050500D01*
X64803844Y-22050500D01*
X64803845Y-22050499D01*
X64958497Y-22019737D01*
X65104179Y-21959394D01*
X65235289Y-21871789D01*
X65259292Y-21847786D01*
X65286319Y-21820760D01*
X65347642Y-21787275D01*
X65417334Y-21792259D01*
X65461681Y-21820760D01*
X65488707Y-21847786D01*
X65488711Y-21847789D01*
X65619814Y-21935390D01*
X65619827Y-21935397D01*
X65765498Y-21995735D01*
X65765503Y-21995737D01*
X65920153Y-22026499D01*
X65920156Y-22026500D01*
X65920158Y-22026500D01*
X66077844Y-22026500D01*
X66077845Y-22026499D01*
X66232497Y-21995737D01*
X66378179Y-21935394D01*
X66509289Y-21847789D01*
X66620789Y-21736289D01*
X66644588Y-21700670D01*
X66698199Y-21655865D01*
X66767524Y-21647156D01*
X66816582Y-21666458D01*
X66889814Y-21715390D01*
X66889827Y-21715397D01*
X67035498Y-21775735D01*
X67035503Y-21775737D01*
X67154967Y-21799500D01*
X67190153Y-21806499D01*
X67190156Y-21806500D01*
X67190158Y-21806500D01*
X67347844Y-21806500D01*
X67347845Y-21806499D01*
X67502497Y-21775737D01*
X67648179Y-21715394D01*
X67779289Y-21627789D01*
X67890789Y-21516289D01*
X67978394Y-21385179D01*
X68004912Y-21321158D01*
X68004914Y-21321153D01*
X70249500Y-21321153D01*
X70249500Y-21478846D01*
X70280261Y-21633489D01*
X70280264Y-21633501D01*
X70340602Y-21779172D01*
X70340609Y-21779185D01*
X70428210Y-21910288D01*
X70428213Y-21910292D01*
X70539707Y-22021786D01*
X70539711Y-22021789D01*
X70670814Y-22109390D01*
X70670827Y-22109397D01*
X70816498Y-22169735D01*
X70816503Y-22169737D01*
X70971153Y-22200499D01*
X70971156Y-22200500D01*
X70971158Y-22200500D01*
X71128844Y-22200500D01*
X71128845Y-22200499D01*
X71283497Y-22169737D01*
X71429179Y-22109394D01*
X71560289Y-22021789D01*
X71671789Y-21910289D01*
X71759394Y-21779179D01*
X71819737Y-21633497D01*
X71850500Y-21478842D01*
X71850500Y-21321158D01*
X71850500Y-21321155D01*
X71850499Y-21321153D01*
X75299500Y-21321153D01*
X75299500Y-21478846D01*
X75330261Y-21633489D01*
X75330264Y-21633501D01*
X75390602Y-21779172D01*
X75390609Y-21779185D01*
X75478210Y-21910288D01*
X75478213Y-21910292D01*
X75589707Y-22021786D01*
X75589711Y-22021789D01*
X75720814Y-22109390D01*
X75720827Y-22109397D01*
X75866498Y-22169735D01*
X75866503Y-22169737D01*
X76021153Y-22200499D01*
X76021156Y-22200500D01*
X76021158Y-22200500D01*
X76178844Y-22200500D01*
X76178845Y-22200499D01*
X76333497Y-22169737D01*
X76479179Y-22109394D01*
X76610289Y-22021789D01*
X76636343Y-21995735D01*
X76687319Y-21944760D01*
X76748642Y-21911275D01*
X76818334Y-21916259D01*
X76862681Y-21944760D01*
X76914707Y-21996786D01*
X76914711Y-21996789D01*
X77045814Y-22084390D01*
X77045827Y-22084397D01*
X77191498Y-22144735D01*
X77191503Y-22144737D01*
X77317176Y-22169735D01*
X77346153Y-22175499D01*
X77346156Y-22175500D01*
X77346158Y-22175500D01*
X77503844Y-22175500D01*
X77503845Y-22175499D01*
X77658497Y-22144737D01*
X77804179Y-22084394D01*
X77935289Y-21996789D01*
X78046789Y-21885289D01*
X78134394Y-21754179D01*
X78194737Y-21608497D01*
X78225500Y-21453842D01*
X78225500Y-21296158D01*
X78225500Y-21296155D01*
X78225499Y-21296153D01*
X78194738Y-21141510D01*
X78194737Y-21141503D01*
X78171268Y-21084844D01*
X78134397Y-20995827D01*
X78134390Y-20995814D01*
X78046789Y-20864711D01*
X78046786Y-20864707D01*
X77935292Y-20753213D01*
X77935288Y-20753210D01*
X77804185Y-20665609D01*
X77804172Y-20665602D01*
X77658501Y-20605264D01*
X77658489Y-20605261D01*
X77503845Y-20574500D01*
X77503842Y-20574500D01*
X77346158Y-20574500D01*
X77346155Y-20574500D01*
X77191510Y-20605261D01*
X77191498Y-20605264D01*
X77045827Y-20665602D01*
X77045814Y-20665609D01*
X76914711Y-20753210D01*
X76914707Y-20753213D01*
X76837681Y-20830240D01*
X76776358Y-20863725D01*
X76706666Y-20858741D01*
X76662319Y-20830240D01*
X76610292Y-20778213D01*
X76610288Y-20778210D01*
X76479185Y-20690609D01*
X76479172Y-20690602D01*
X76333501Y-20630264D01*
X76333489Y-20630261D01*
X76178845Y-20599500D01*
X76178842Y-20599500D01*
X76021158Y-20599500D01*
X76021155Y-20599500D01*
X75866510Y-20630261D01*
X75866498Y-20630264D01*
X75720827Y-20690602D01*
X75720814Y-20690609D01*
X75589711Y-20778210D01*
X75589707Y-20778213D01*
X75478213Y-20889707D01*
X75478210Y-20889711D01*
X75390609Y-21020814D01*
X75390602Y-21020827D01*
X75330264Y-21166498D01*
X75330261Y-21166510D01*
X75299500Y-21321153D01*
X71850499Y-21321153D01*
X71845527Y-21296158D01*
X71819737Y-21166503D01*
X71764898Y-21034108D01*
X71759397Y-21020827D01*
X71759390Y-21020814D01*
X71671789Y-20889711D01*
X71671786Y-20889707D01*
X71560292Y-20778213D01*
X71560288Y-20778210D01*
X71429185Y-20690609D01*
X71429172Y-20690602D01*
X71283501Y-20630264D01*
X71283489Y-20630261D01*
X71128845Y-20599500D01*
X71128842Y-20599500D01*
X70971158Y-20599500D01*
X70971155Y-20599500D01*
X70816510Y-20630261D01*
X70816498Y-20630264D01*
X70670827Y-20690602D01*
X70670814Y-20690609D01*
X70539711Y-20778210D01*
X70539707Y-20778213D01*
X70428213Y-20889707D01*
X70428210Y-20889711D01*
X70340609Y-21020814D01*
X70340602Y-21020827D01*
X70280264Y-21166498D01*
X70280261Y-21166510D01*
X70249500Y-21321153D01*
X68004914Y-21321153D01*
X68027091Y-21267614D01*
X68038735Y-21239501D01*
X68038737Y-21239497D01*
X68069500Y-21084842D01*
X68069500Y-20927158D01*
X68069500Y-20927155D01*
X68069499Y-20927153D01*
X68057078Y-20864711D01*
X68038737Y-20772503D01*
X68004816Y-20690609D01*
X67978397Y-20626827D01*
X67978390Y-20626814D01*
X67890789Y-20495711D01*
X67890786Y-20495707D01*
X67779292Y-20384213D01*
X67779288Y-20384210D01*
X67648185Y-20296609D01*
X67648172Y-20296602D01*
X67502501Y-20236264D01*
X67502489Y-20236261D01*
X67347845Y-20205500D01*
X67347842Y-20205500D01*
X67190158Y-20205500D01*
X67190155Y-20205500D01*
X67035510Y-20236261D01*
X67035498Y-20236264D01*
X66889827Y-20296602D01*
X66889814Y-20296609D01*
X66758711Y-20384210D01*
X66758707Y-20384213D01*
X66647213Y-20495707D01*
X66647208Y-20495713D01*
X66623409Y-20531331D01*
X66569796Y-20576136D01*
X66500471Y-20584842D01*
X66451418Y-20565541D01*
X66378190Y-20516612D01*
X66378172Y-20516602D01*
X66232501Y-20456264D01*
X66232489Y-20456261D01*
X66077845Y-20425500D01*
X66077842Y-20425500D01*
X65920158Y-20425500D01*
X65920155Y-20425500D01*
X65765510Y-20456261D01*
X65765498Y-20456264D01*
X65619827Y-20516602D01*
X65619814Y-20516609D01*
X65488711Y-20604210D01*
X65488707Y-20604213D01*
X65437681Y-20655240D01*
X65376358Y-20688725D01*
X65306666Y-20683741D01*
X65262319Y-20655240D01*
X65235292Y-20628213D01*
X65235288Y-20628210D01*
X65104185Y-20540609D01*
X65104172Y-20540602D01*
X64958501Y-20480264D01*
X64958489Y-20480261D01*
X64803845Y-20449500D01*
X64803842Y-20449500D01*
X64646158Y-20449500D01*
X64646155Y-20449500D01*
X64491510Y-20480261D01*
X64491498Y-20480264D01*
X64345827Y-20540602D01*
X64345814Y-20540609D01*
X64214711Y-20628210D01*
X64214707Y-20628213D01*
X64098903Y-20744018D01*
X64096996Y-20742111D01*
X64048802Y-20774866D01*
X63978955Y-20776663D01*
X63941928Y-20759929D01*
X63838184Y-20690609D01*
X63838172Y-20690602D01*
X63692501Y-20630264D01*
X63692489Y-20630261D01*
X63537845Y-20599500D01*
X63537842Y-20599500D01*
X63380158Y-20599500D01*
X63380155Y-20599500D01*
X63225510Y-20630261D01*
X63225498Y-20630264D01*
X63079827Y-20690602D01*
X63079814Y-20690609D01*
X62948711Y-20778210D01*
X62948707Y-20778213D01*
X62837213Y-20889707D01*
X62837210Y-20889711D01*
X62749609Y-21020814D01*
X62749602Y-21020827D01*
X62689264Y-21166498D01*
X62689261Y-21166510D01*
X62658500Y-21321153D01*
X60500000Y-21321153D01*
X60500000Y-20424500D01*
X60519685Y-20357461D01*
X60572489Y-20311706D01*
X60624000Y-20300500D01*
X61035643Y-20300500D01*
X61039890Y-20301560D01*
X61101474Y-20300500D01*
X61163049Y-20300500D01*
X61163054Y-20300498D01*
X61165843Y-20300131D01*
X61179803Y-20299088D01*
X61193446Y-20298843D01*
X61364996Y-20262411D01*
X61526433Y-20193908D01*
X61526434Y-20193908D01*
X61526435Y-20193907D01*
X61526438Y-20193906D01*
X61671837Y-20095846D01*
X61795846Y-19971837D01*
X61893906Y-19826438D01*
X61962411Y-19664996D01*
X61998843Y-19493446D01*
X61999449Y-19459810D01*
X62000500Y-19455892D01*
X62000500Y-19401473D01*
X62001560Y-19339890D01*
X62001559Y-19339885D01*
X62001300Y-19337613D01*
X62000500Y-19323552D01*
X62000500Y-18694500D01*
X62020185Y-18627461D01*
X62072989Y-18581706D01*
X62124500Y-18570500D01*
X102759108Y-18570500D01*
X102819587Y-18570500D01*
X102830394Y-18570972D01*
G37*
%TD.AperFunction*%
%TD*%
M02*
