%TF.GenerationSoftware,KiCad,Pcbnew,9.0.7*%
%TF.CreationDate,2026-02-23T15:17:49-08:00*%
%TF.ProjectId,camera_controller_RTO_panel,63616d65-7261-45f6-936f-6e74726f6c6c,1.0*%
%TF.SameCoordinates,Original*%
%TF.FileFunction,Copper,L4,Bot*%
%TF.FilePolarity,Positive*%
%FSLAX46Y46*%
G04 Gerber Fmt 4.6, Leading zero omitted, Abs format (unit mm)*
G04 Created by KiCad (PCBNEW 9.0.7) date 2026-02-23 15:17:49*
%MOMM*%
%LPD*%
G01*
G04 APERTURE LIST*
G04 Aperture macros list*
%AMRoundRect*
0 Rectangle with rounded corners*
0 $1 Rounding radius*
0 $2 $3 $4 $5 $6 $7 $8 $9 X,Y pos of 4 corners*
0 Add a 4 corners polygon primitive as box body*
4,1,4,$2,$3,$4,$5,$6,$7,$8,$9,$2,$3,0*
0 Add four circle primitives for the rounded corners*
1,1,$1+$1,$2,$3*
1,1,$1+$1,$4,$5*
1,1,$1+$1,$6,$7*
1,1,$1+$1,$8,$9*
0 Add four rect primitives between the rounded corners*
20,1,$1+$1,$2,$3,$4,$5,0*
20,1,$1+$1,$4,$5,$6,$7,0*
20,1,$1+$1,$6,$7,$8,$9,0*
20,1,$1+$1,$8,$9,$2,$3,0*%
%AMFreePoly0*
4,1,23,0.550000,-0.750000,0.000000,-0.750000,0.000000,-0.745722,-0.065263,-0.745722,-0.191342,-0.711940,-0.304381,-0.646677,-0.396677,-0.554381,-0.461940,-0.441342,-0.495722,-0.315263,-0.495722,-0.250000,-0.500000,-0.250000,-0.500000,0.250000,-0.495722,0.250000,-0.495722,0.315263,-0.461940,0.441342,-0.396677,0.554381,-0.304381,0.646677,-0.191342,0.711940,-0.065263,0.745722,0.000000,0.745722,
0.000000,0.750000,0.550000,0.750000,0.550000,-0.750000,0.550000,-0.750000,$1*%
%AMFreePoly1*
4,1,23,0.000000,0.745722,0.065263,0.745722,0.191342,0.711940,0.304381,0.646677,0.396677,0.554381,0.461940,0.441342,0.495722,0.315263,0.495722,0.250000,0.500000,0.250000,0.500000,-0.250000,0.495722,-0.250000,0.495722,-0.315263,0.461940,-0.441342,0.396677,-0.554381,0.304381,-0.646677,0.191342,-0.711940,0.065263,-0.745722,0.000000,-0.745722,0.000000,-0.750000,-0.550000,-0.750000,
-0.550000,0.750000,0.000000,0.750000,0.000000,0.745722,0.000000,0.745722,$1*%
G04 Aperture macros list end*
%TA.AperFunction,EtchedComponent*%
%ADD10C,0.000000*%
%TD*%
%TA.AperFunction,SMDPad,CuDef*%
%ADD11RoundRect,0.250000X0.262500X0.450000X-0.262500X0.450000X-0.262500X-0.450000X0.262500X-0.450000X0*%
%TD*%
%TA.AperFunction,SMDPad,CuDef*%
%ADD12RoundRect,0.250000X-0.450000X0.262500X-0.450000X-0.262500X0.450000X-0.262500X0.450000X0.262500X0*%
%TD*%
%TA.AperFunction,SMDPad,CuDef*%
%ADD13RoundRect,0.250000X0.475000X-0.250000X0.475000X0.250000X-0.475000X0.250000X-0.475000X-0.250000X0*%
%TD*%
%TA.AperFunction,SMDPad,CuDef*%
%ADD14RoundRect,0.162500X0.650000X0.162500X-0.650000X0.162500X-0.650000X-0.162500X0.650000X-0.162500X0*%
%TD*%
%TA.AperFunction,SMDPad,CuDef*%
%ADD15RoundRect,0.250000X0.250000X0.475000X-0.250000X0.475000X-0.250000X-0.475000X0.250000X-0.475000X0*%
%TD*%
%TA.AperFunction,ComponentPad*%
%ADD16R,1.500000X2.300000*%
%TD*%
%TA.AperFunction,ComponentPad*%
%ADD17O,1.500000X2.300000*%
%TD*%
%TA.AperFunction,ComponentPad*%
%ADD18R,1.700000X1.700000*%
%TD*%
%TA.AperFunction,ComponentPad*%
%ADD19O,1.700000X1.700000*%
%TD*%
%TA.AperFunction,ComponentPad*%
%ADD20C,0.800000*%
%TD*%
%TA.AperFunction,ComponentPad*%
%ADD21C,5.400000*%
%TD*%
%TA.AperFunction,ComponentPad*%
%ADD22RoundRect,0.500000X1.750000X-1.250000X1.750000X1.250000X-1.750000X1.250000X-1.750000X-1.250000X0*%
%TD*%
%TA.AperFunction,ComponentPad*%
%ADD23C,1.700000*%
%TD*%
%TA.AperFunction,ComponentPad*%
%ADD24RoundRect,0.500000X-1.250000X-1.750000X1.250000X-1.750000X1.250000X1.750000X-1.250000X1.750000X0*%
%TD*%
%TA.AperFunction,SMDPad,CuDef*%
%ADD25RoundRect,0.150000X0.587500X0.150000X-0.587500X0.150000X-0.587500X-0.150000X0.587500X-0.150000X0*%
%TD*%
%TA.AperFunction,SMDPad,CuDef*%
%ADD26RoundRect,0.250000X-0.262500X-0.450000X0.262500X-0.450000X0.262500X0.450000X-0.262500X0.450000X0*%
%TD*%
%TA.AperFunction,SMDPad,CuDef*%
%ADD27R,1.150000X0.600000*%
%TD*%
%TA.AperFunction,SMDPad,CuDef*%
%ADD28R,0.600000X1.150000*%
%TD*%
%TA.AperFunction,SMDPad,CuDef*%
%ADD29RoundRect,0.250000X0.450000X-0.262500X0.450000X0.262500X-0.450000X0.262500X-0.450000X-0.262500X0*%
%TD*%
%TA.AperFunction,SMDPad,CuDef*%
%ADD30RoundRect,0.250000X-0.475000X0.250000X-0.475000X-0.250000X0.475000X-0.250000X0.475000X0.250000X0*%
%TD*%
%TA.AperFunction,SMDPad,CuDef*%
%ADD31FreePoly0,90.000000*%
%TD*%
%TA.AperFunction,SMDPad,CuDef*%
%ADD32R,1.500000X1.000000*%
%TD*%
%TA.AperFunction,SMDPad,CuDef*%
%ADD33FreePoly1,90.000000*%
%TD*%
%TA.AperFunction,SMDPad,CuDef*%
%ADD34RoundRect,0.150000X-0.150000X0.587500X-0.150000X-0.587500X0.150000X-0.587500X0.150000X0.587500X0*%
%TD*%
%TA.AperFunction,SMDPad,CuDef*%
%ADD35RoundRect,0.150000X0.875000X0.150000X-0.875000X0.150000X-0.875000X-0.150000X0.875000X-0.150000X0*%
%TD*%
%TA.AperFunction,SMDPad,CuDef*%
%ADD36R,1.100000X0.250000*%
%TD*%
%TA.AperFunction,ViaPad*%
%ADD37C,0.600000*%
%TD*%
%TA.AperFunction,ViaPad*%
%ADD38C,2.000000*%
%TD*%
%TA.AperFunction,ViaPad*%
%ADD39C,0.510000*%
%TD*%
%TA.AperFunction,Conductor*%
%ADD40C,0.200000*%
%TD*%
%TA.AperFunction,Conductor*%
%ADD41C,0.800000*%
%TD*%
%TA.AperFunction,Conductor*%
%ADD42C,0.250000*%
%TD*%
G04 APERTURE END LIST*
D10*
%TA.AperFunction,EtchedComponent*%
%TO.C,JP1*%
G36*
X58517500Y-34175000D02*
G01*
X57917500Y-34175000D01*
X57917500Y-33675000D01*
X58517500Y-33675000D01*
X58517500Y-34175000D01*
G37*
%TD.AperFunction*%
%TD*%
D11*
%TO.P,R5,1*%
%TO.N,3.3v*%
X119837500Y-57000000D03*
%TO.P,R5,2*%
%TO.N,PGM_RST*%
X118012500Y-57000000D03*
%TD*%
D12*
%TO.P,R3,1*%
%TO.N,3.3v*%
X118425000Y-51387500D03*
%TO.P,R3,2*%
%TO.N,Hall Switch*%
X118425000Y-53212500D03*
%TD*%
D11*
%TO.P,R4,1*%
%TO.N,Net-(D2-Pad2)*%
X122237500Y-63000000D03*
%TO.P,R4,2*%
%TO.N,RTO Status Blue*%
X120412500Y-63000000D03*
%TD*%
D13*
%TO.P,C1,1*%
%TO.N,3.3v*%
X111825000Y-52450000D03*
%TO.P,C1,2*%
%TO.N,GND*%
X111825000Y-50550000D03*
%TD*%
D11*
%TO.P,R1,1*%
%TO.N,Net-(D2-Pad1)*%
X122237500Y-61100000D03*
%TO.P,R1,2*%
%TO.N,RTO Status Yellow*%
X120412500Y-61100000D03*
%TD*%
D14*
%TO.P,U1,1,~{RESET}/PB5*%
%TO.N,PGM_RST*%
X118012500Y-59895000D03*
%TO.P,U1,2,XTAL1/PB3*%
%TO.N,RTO Status Yellow*%
X118012500Y-61165000D03*
%TO.P,U1,3,XTAL2/PB4*%
%TO.N,RTO Status Blue*%
X118012500Y-62435000D03*
%TO.P,U1,4,GND*%
%TO.N,GND*%
X118012500Y-63705000D03*
%TO.P,U1,5,AREF/PB0*%
%TO.N,Hall Switch*%
X110837500Y-63705000D03*
%TO.P,U1,6,PB1*%
%TO.N,P-Switch*%
X110837500Y-62435000D03*
%TO.P,U1,7,PB2*%
%TO.N,ForceOn*%
X110837500Y-61165000D03*
%TO.P,U1,8,VCC*%
%TO.N,3.3v*%
X110837500Y-59895000D03*
%TD*%
D15*
%TO.P,C2,1*%
%TO.N,3.3v*%
X110875000Y-57100000D03*
%TO.P,C2,2*%
%TO.N,GND*%
X108975000Y-57100000D03*
%TD*%
D11*
%TO.P,R5,1*%
%TO.N,3.3v*%
X119837500Y-29500000D03*
%TO.P,R5,2*%
%TO.N,PGM_RST*%
X118012500Y-29500000D03*
%TD*%
D12*
%TO.P,R3,1*%
%TO.N,3.3v*%
X118425000Y-23887500D03*
%TO.P,R3,2*%
%TO.N,Hall Switch*%
X118425000Y-25712500D03*
%TD*%
D11*
%TO.P,R4,1*%
%TO.N,Net-(D2-Pad2)*%
X122237500Y-35500000D03*
%TO.P,R4,2*%
%TO.N,RTO Status Blue*%
X120412500Y-35500000D03*
%TD*%
D13*
%TO.P,C1,1*%
%TO.N,3.3v*%
X111825000Y-24950000D03*
%TO.P,C1,2*%
%TO.N,GND*%
X111825000Y-23050000D03*
%TD*%
D11*
%TO.P,R1,1*%
%TO.N,Net-(D2-Pad1)*%
X122237500Y-33600000D03*
%TO.P,R1,2*%
%TO.N,RTO Status Yellow*%
X120412500Y-33600000D03*
%TD*%
D14*
%TO.P,U1,1,~{RESET}/PB5*%
%TO.N,PGM_RST*%
X118012500Y-32395000D03*
%TO.P,U1,2,XTAL1/PB3*%
%TO.N,RTO Status Yellow*%
X118012500Y-33665000D03*
%TO.P,U1,3,XTAL2/PB4*%
%TO.N,RTO Status Blue*%
X118012500Y-34935000D03*
%TO.P,U1,4,GND*%
%TO.N,GND*%
X118012500Y-36205000D03*
%TO.P,U1,5,AREF/PB0*%
%TO.N,Hall Switch*%
X110837500Y-36205000D03*
%TO.P,U1,6,PB1*%
%TO.N,P-Switch*%
X110837500Y-34935000D03*
%TO.P,U1,7,PB2*%
%TO.N,ForceOn*%
X110837500Y-33665000D03*
%TO.P,U1,8,VCC*%
%TO.N,3.3v*%
X110837500Y-32395000D03*
%TD*%
D15*
%TO.P,C2,1*%
%TO.N,3.3v*%
X110875000Y-29600000D03*
%TO.P,C2,2*%
%TO.N,GND*%
X108975000Y-29600000D03*
%TD*%
D16*
%TO.P,U1,1,IN*%
%TO.N,VSS*%
X45053000Y-44107500D03*
D17*
%TO.P,U1,2,GND*%
%TO.N,GND*%
X47593000Y-44107500D03*
%TO.P,U1,3,OUT*%
%TO.N,+5V_MCU*%
X50133000Y-44107500D03*
%TD*%
D18*
%TO.P,J16,1,Pin_1*%
%TO.N,+5V_MCU*%
X25000000Y-31800000D03*
D19*
%TO.P,J16,2,Pin_2*%
%TO.N,GND*%
X22460000Y-31800000D03*
%TD*%
D20*
%TO.P,,1*%
%TO.N,N/C*%
X96915000Y-23735000D03*
X97508109Y-22303109D03*
X97508109Y-25166891D03*
X98940000Y-21710000D03*
D21*
X98940000Y-23735000D03*
D20*
X98940000Y-25760000D03*
X100371891Y-22303109D03*
X100371891Y-25166891D03*
X100965000Y-23735000D03*
%TD*%
%TO.P,,1*%
%TO.N,N/C*%
X21375000Y-75415000D03*
X21968109Y-73983109D03*
X21968109Y-76846891D03*
X23400000Y-73390000D03*
D21*
X23400000Y-75415000D03*
D20*
X23400000Y-77440000D03*
X24831891Y-73983109D03*
X24831891Y-76846891D03*
X25425000Y-75415000D03*
%TD*%
%TO.P,,1*%
%TO.N,N/C*%
X96915000Y-75415000D03*
X97508109Y-73983109D03*
X97508109Y-76846891D03*
X98940000Y-73390000D03*
D21*
X98940000Y-75415000D03*
D20*
X98940000Y-77440000D03*
X100371891Y-73983109D03*
X100371891Y-76846891D03*
X100965000Y-75415000D03*
%TD*%
D22*
%TO.P,J12,1,Pin_1*%
%TO.N,Vin SW*%
X23062500Y-54000000D03*
%TO.P,J12,2,Pin_2*%
%TO.N,GND*%
X23062500Y-49000000D03*
%TD*%
D18*
%TO.P,U3,1,Pin_1*%
%TO.N,uCTx*%
X71725000Y-73125000D03*
D19*
%TO.P,U3,2,Pin_2*%
%TO.N,uCRx*%
X71725000Y-70585000D03*
%TO.P,U3,3,Pin_3*%
%TO.N,unconnected-(U3-Pin_3-Pad3)*%
X71725000Y-68045000D03*
%TO.P,U3,4,Pin_4*%
%TO.N,GND*%
X71725000Y-65505000D03*
%TO.P,U3,5,Pin_5*%
%TO.N,ext_uCRx*%
X71725000Y-62965000D03*
%TO.P,U3,6,Pin_6*%
%TO.N,ext_uCTx*%
X71725000Y-60425000D03*
%TO.P,U3,7,Pin_7*%
%TO.N,CAM2 GPIO 1*%
X71725000Y-57885000D03*
%TO.P,U3,8,Pin_8*%
%TO.N,CAM 2 GPIO 2*%
X71725000Y-55345000D03*
%TO.P,U3,9,Pin_9*%
%TO.N,CAM1 GPIO 1*%
X71725000Y-52805000D03*
%TO.P,U3,10,Pin_10*%
%TO.N,CAM 1 GPIO 2*%
X71725000Y-50265000D03*
%TO.P,U3,11,Pin_11*%
%TO.N,Ext Trig In*%
X71725000Y-47725000D03*
%TO.P,U3,12,Pin_12*%
%TO.N,Net-(U3-Pin_12)*%
X71725000Y-45185000D03*
%TO.P,U3,13,Pin_13*%
%TO.N,Strobe Trig*%
X56485000Y-45055000D03*
%TO.P,U3,14,Pin_14*%
%TO.N,Net-(U3-Pin_14)*%
X56485000Y-47595000D03*
%TO.P,U3,15,Pin_15*%
%TO.N,Force On*%
X56485000Y-50135000D03*
%TO.P,U3,16,Pin_16*%
%TO.N,P Switch*%
X56485000Y-52675000D03*
%TO.P,U3,17,Pin_17*%
%TO.N,Net-(U3-Pin_17)*%
X56485000Y-55215000D03*
%TO.P,U3,18,Pin_18*%
%TO.N,5V EN*%
X56485000Y-57755000D03*
%TO.P,U3,19,Pin_19*%
%TO.N,VSS SW EN*%
X56485000Y-60295000D03*
%TO.P,U3,20,Pin_20*%
%TO.N,Strobe EN*%
X56485000Y-62835000D03*
%TO.P,U3,21,Pin_21*%
%TO.N,+3.3V*%
X56485000Y-65375000D03*
%TO.P,U3,22,Pin_22*%
%TO.N,GND*%
X56485000Y-67915000D03*
%TO.P,U3,23,Pin_23*%
X56485000Y-70585000D03*
D23*
%TO.P,U3,24,Pin_24*%
%TO.N,+5V_MCU*%
X56485000Y-72995000D03*
D19*
%TO.P,U3,25,Pin_25*%
%TO.N,SDA*%
X59025000Y-61565000D03*
D23*
%TO.P,U3,26,Pin_26*%
%TO.N,SCL*%
X59025000Y-64105000D03*
%TD*%
D20*
%TO.P,,1*%
%TO.N,N/C*%
X21375000Y-23735000D03*
X21968109Y-22303109D03*
X21968109Y-25166891D03*
X23400000Y-21710000D03*
D21*
X23400000Y-23735000D03*
D20*
X23400000Y-25760000D03*
X24831891Y-22303109D03*
X24831891Y-25166891D03*
X25425000Y-23735000D03*
%TD*%
D24*
%TO.P,J1,1,Pin_1*%
%TO.N,VIN*%
X30500000Y-74400000D03*
%TO.P,J1,2,Pin_2*%
%TO.N,GND*%
X35500000Y-74400000D03*
%TD*%
D25*
%TO.P,D1,1,A*%
%TO.N,Net-(D1-A)*%
X32937500Y-67850000D03*
%TO.P,D1,2,NC*%
%TO.N,unconnected-(D1-NC-Pad2)*%
X32937500Y-69750000D03*
%TO.P,D1,3,K*%
%TO.N,VIN*%
X31062500Y-68800000D03*
%TD*%
D12*
%TO.P,R7,1*%
%TO.N,SCL*%
X59050000Y-66337500D03*
%TO.P,R7,2*%
%TO.N,+3.3V*%
X59050000Y-68162500D03*
%TD*%
D26*
%TO.P,R13,1*%
%TO.N,Net-(Q5-B1)*%
X63137500Y-40750000D03*
%TO.P,R13,2*%
%TO.N,Strobe Trig*%
X64962500Y-40750000D03*
%TD*%
D25*
%TO.P,Q7,1,G*%
%TO.N,Net-(Q7-G)*%
X36637500Y-47637500D03*
%TO.P,Q7,2,S*%
%TO.N,GND*%
X36637500Y-49537500D03*
%TO.P,Q7,3,D*%
%TO.N,Net-(Q7-D)*%
X34762500Y-48587500D03*
%TD*%
D11*
%TO.P,R10,1*%
%TO.N,Net-(Q4-C1)*%
X65712500Y-28800000D03*
%TO.P,R10,2*%
%TO.N,Net-(Q4-B2)*%
X63887500Y-28800000D03*
%TD*%
D25*
%TO.P,Q2,1,G*%
%TO.N,Net-(Q2-G)*%
X37937500Y-66750000D03*
%TO.P,Q2,2,S*%
%TO.N,GND*%
X37937500Y-68650000D03*
%TO.P,Q2,3,D*%
%TO.N,Net-(Q2-D)*%
X36062500Y-67700000D03*
%TD*%
D15*
%TO.P,C19,1*%
%TO.N,GND*%
X93250000Y-61400000D03*
%TO.P,C19,2*%
%TO.N,Net-(U8-V+)*%
X91350000Y-61400000D03*
%TD*%
%TO.P,C12,1*%
%TO.N,GND*%
X82650000Y-32450000D03*
%TO.P,C12,2*%
%TO.N,Net-(U5-AIN1)*%
X80750000Y-32450000D03*
%TD*%
D11*
%TO.P,R23,1*%
%TO.N,AIN 2*%
X82612500Y-28350000D03*
%TO.P,R23,2*%
%TO.N,Net-(U5-AIN1)*%
X80787500Y-28350000D03*
%TD*%
D27*
%TO.P,Q5,1,C1*%
%TO.N,Net-(Q5-C1)*%
X64750000Y-36800000D03*
%TO.P,Q5,2,B1*%
%TO.N,Net-(Q5-B1)*%
X64750000Y-37750000D03*
%TO.P,Q5,3,C2*%
%TO.N,Strobe Trig Out*%
X64750000Y-38700000D03*
%TO.P,Q5,4,E2*%
%TO.N,+V Strobe GPIO*%
X62150000Y-38700000D03*
%TO.P,Q5,5,B2*%
%TO.N,Net-(Q5-B2)*%
X62150000Y-37750000D03*
%TO.P,Q5,6,E1*%
%TO.N,GND*%
X62150000Y-36800000D03*
%TD*%
D11*
%TO.P,R2,1*%
%TO.N,VSS*%
X39312500Y-39900000D03*
%TO.P,R2,2*%
%TO.N,Net-(D2-A)*%
X37487500Y-39900000D03*
%TD*%
D28*
%TO.P,Q3,1,C1*%
%TO.N,Net-(Q3-C1)*%
X48550000Y-35800000D03*
%TO.P,Q3,2,B1*%
%TO.N,Net-(Q3-B1)*%
X49500000Y-35800000D03*
%TO.P,Q3,3,C2*%
%TO.N,5V SW*%
X50450000Y-35800000D03*
%TO.P,Q3,4,E2*%
%TO.N,+5V_MCU*%
X50450000Y-38400000D03*
%TO.P,Q3,5,B2*%
%TO.N,Net-(Q3-B2)*%
X49500000Y-38400000D03*
%TO.P,Q3,6,E1*%
%TO.N,GND*%
X48550000Y-38400000D03*
%TD*%
D12*
%TO.P,R11,1*%
%TO.N,Net-(Q4-B1)*%
X67750000Y-30887500D03*
%TO.P,R11,2*%
%TO.N,Strobe EN*%
X67750000Y-32712500D03*
%TD*%
D29*
%TO.P,R14,1*%
%TO.N,+V Strobe GPIO*%
X60100000Y-39262500D03*
%TO.P,R14,2*%
%TO.N,Net-(Q5-B2)*%
X60100000Y-37437500D03*
%TD*%
D11*
%TO.P,R24,1*%
%TO.N,GND*%
X82612500Y-30350000D03*
%TO.P,R24,2*%
%TO.N,Net-(U5-AIN1)*%
X80787500Y-30350000D03*
%TD*%
D26*
%TO.P,R29,1*%
%TO.N,P Switch*%
X58662500Y-52675000D03*
%TO.P,R29,2*%
%TO.N,+3.3V*%
X60487500Y-52675000D03*
%TD*%
D30*
%TO.P,C15,1*%
%TO.N,Net-(U8-C1+)*%
X89300000Y-60450000D03*
%TO.P,C15,2*%
%TO.N,Net-(U8-C1-)*%
X89300000Y-62350000D03*
%TD*%
D11*
%TO.P,R33,1*%
%TO.N,+5V_MCU*%
X50612500Y-40500000D03*
%TO.P,R33,2*%
%TO.N,Net-(Q3-B2)*%
X48787500Y-40500000D03*
%TD*%
D12*
%TO.P,R35,1*%
%TO.N,Status LED+*%
X53825000Y-53387500D03*
%TO.P,R35,2*%
%TO.N,Net-(U3-Pin_17)*%
X53825000Y-55212500D03*
%TD*%
D31*
%TO.P,JP1,1,A*%
%TO.N,+5V_MCU*%
X58217500Y-34575000D03*
D32*
%TO.P,JP1,2,C*%
%TO.N,+V Strobe GPIO*%
X58217500Y-33275000D03*
D33*
%TO.P,JP1,3,B*%
%TO.N,+3.3V*%
X58217500Y-31975000D03*
%TD*%
D27*
%TO.P,Q4,1,C1*%
%TO.N,Net-(Q4-C1)*%
X65700000Y-30850000D03*
%TO.P,Q4,2,B1*%
%TO.N,Net-(Q4-B1)*%
X65700000Y-31800000D03*
%TO.P,Q4,3,C2*%
%TO.N,Strobe EN OUT*%
X65700000Y-32750000D03*
%TO.P,Q4,4,E2*%
%TO.N,+V Strobe GPIO*%
X63100000Y-32750000D03*
%TO.P,Q4,5,B2*%
%TO.N,Net-(Q4-B2)*%
X63100000Y-31800000D03*
%TO.P,Q4,6,E1*%
%TO.N,GND*%
X63100000Y-30850000D03*
%TD*%
D26*
%TO.P,R22,1*%
%TO.N,Force On*%
X58637500Y-50150000D03*
%TO.P,R22,2*%
%TO.N,+3.3V*%
X60462500Y-50150000D03*
%TD*%
D12*
%TO.P,R6,1*%
%TO.N,Net-(Q3-B1)*%
X52500000Y-37087500D03*
%TO.P,R6,2*%
%TO.N,5V EN*%
X52500000Y-38912500D03*
%TD*%
D30*
%TO.P,C21,1*%
%TO.N,+3.3V*%
X74900000Y-60050000D03*
%TO.P,C21,2*%
%TO.N,GND*%
X74900000Y-61950000D03*
%TD*%
D34*
%TO.P,D2,1,A*%
%TO.N,Net-(D2-A)*%
X38350000Y-42162500D03*
%TO.P,D2,2,NC*%
%TO.N,unconnected-(D2-NC-Pad2)*%
X40250000Y-42162500D03*
%TO.P,D2,3,K*%
%TO.N,VSS*%
X39300000Y-44037500D03*
%TD*%
D26*
%TO.P,R38,1*%
%TO.N,Net-(D2-A)*%
X33887500Y-44600000D03*
%TO.P,R38,2*%
%TO.N,Net-(Q7-D)*%
X35712500Y-44600000D03*
%TD*%
D13*
%TO.P,C14,1*%
%TO.N,GND*%
X89300000Y-69150000D03*
%TO.P,C14,2*%
%TO.N,Net-(U8-V-)*%
X89300000Y-67250000D03*
%TD*%
D12*
%TO.P,R8,1*%
%TO.N,+3.3V*%
X59000000Y-57587500D03*
%TO.P,R8,2*%
%TO.N,SDA*%
X59000000Y-59412500D03*
%TD*%
%TO.P,R4,1*%
%TO.N,Net-(Q2-G)*%
X40100000Y-66787500D03*
%TO.P,R4,2*%
%TO.N,GND*%
X40100000Y-68612500D03*
%TD*%
D26*
%TO.P,R34,1*%
%TO.N,Net-(D1-A)*%
X33387500Y-64600000D03*
%TO.P,R34,2*%
%TO.N,Net-(Q2-D)*%
X35212500Y-64600000D03*
%TD*%
D29*
%TO.P,R1,1*%
%TO.N,VIN*%
X31000000Y-66312500D03*
%TO.P,R1,2*%
%TO.N,Net-(D1-A)*%
X31000000Y-64487500D03*
%TD*%
D30*
%TO.P,C10,1*%
%TO.N,+3.3V*%
X74800000Y-37900000D03*
%TO.P,C10,2*%
%TO.N,GND*%
X74800000Y-39800000D03*
%TD*%
D35*
%TO.P,U8,1,C1+*%
%TO.N,Net-(U8-C1+)*%
X86550000Y-60155000D03*
%TO.P,U8,2,V+*%
%TO.N,Net-(U8-V+)*%
X86550000Y-61425000D03*
%TO.P,U8,3,C1-*%
%TO.N,Net-(U8-C1-)*%
X86550000Y-62695000D03*
%TO.P,U8,4,C2+*%
%TO.N,Net-(U8-C2+)*%
X86550000Y-63965000D03*
%TO.P,U8,5,C2-*%
%TO.N,Net-(U8-C2-)*%
X86550000Y-65235000D03*
%TO.P,U8,6,V-*%
%TO.N,Net-(U8-V-)*%
X86550000Y-66505000D03*
%TO.P,U8,7,DOUT2*%
%TO.N,ExtRx2*%
X86550000Y-67775000D03*
%TO.P,U8,8,RIN2*%
%TO.N,ExtTx2*%
X86550000Y-69045000D03*
%TO.P,U8,9,ROUT2*%
%TO.N,ext_uCRx*%
X77250000Y-69045000D03*
%TO.P,U8,10,DIN2*%
%TO.N,ext_uCTx*%
X77250000Y-67775000D03*
%TO.P,U8,11,DIN1*%
%TO.N,uCTx*%
X77250000Y-66505000D03*
%TO.P,U8,12,ROUT1*%
%TO.N,uCRx*%
X77250000Y-65235000D03*
%TO.P,U8,13,RIN1*%
%TO.N,PCTx1*%
X77250000Y-63965000D03*
%TO.P,U8,14,DOUT1*%
%TO.N,PCRx1*%
X77250000Y-62695000D03*
%TO.P,U8,15,GND*%
%TO.N,GND*%
X77250000Y-61425000D03*
%TO.P,U8,16,VCC*%
%TO.N,+3.3V*%
X77250000Y-60155000D03*
%TD*%
D12*
%TO.P,R5,1*%
%TO.N,Net-(Q3-C1)*%
X46600000Y-35287500D03*
%TO.P,R5,2*%
%TO.N,Net-(Q3-B2)*%
X46600000Y-37112500D03*
%TD*%
D11*
%TO.P,R12,1*%
%TO.N,Net-(Q5-C1)*%
X64712500Y-34800000D03*
%TO.P,R12,2*%
%TO.N,Net-(Q5-B2)*%
X62887500Y-34800000D03*
%TD*%
D29*
%TO.P,R3,1*%
%TO.N,Strobe EN*%
X42100000Y-68612500D03*
%TO.P,R3,2*%
%TO.N,Net-(Q2-G)*%
X42100000Y-66787500D03*
%TD*%
D12*
%TO.P,R32,1*%
%TO.N,Net-(Q7-G)*%
X39300000Y-47675000D03*
%TO.P,R32,2*%
%TO.N,GND*%
X39300000Y-49500000D03*
%TD*%
D30*
%TO.P,C18,1*%
%TO.N,Net-(U8-C2+)*%
X89300000Y-63850000D03*
%TO.P,C18,2*%
%TO.N,Net-(U8-C2-)*%
X89300000Y-65750000D03*
%TD*%
D12*
%TO.P,R30,1*%
%TO.N,Status LED-*%
X55725000Y-40187500D03*
%TO.P,R30,2*%
%TO.N,Net-(U3-Pin_14)*%
X55725000Y-42012500D03*
%TD*%
D36*
%TO.P,U5,1,ADDR*%
%TO.N,GND*%
X81050000Y-36350000D03*
%TO.P,U5,2,ALERT/RDY*%
%TO.N,unconnected-(U5-ALERT{slash}RDY-Pad2)*%
X81050000Y-36850000D03*
%TO.P,U5,3,GND*%
%TO.N,GND*%
X81050000Y-37350000D03*
%TO.P,U5,4,AIN0*%
%TO.N,Net-(U5-AIN0)*%
X81050000Y-37850000D03*
%TO.P,U5,5,AIN1*%
%TO.N,Net-(U5-AIN1)*%
X81050000Y-38350000D03*
%TO.P,U5,6,AIN2*%
%TO.N,GND*%
X76750000Y-38350000D03*
%TO.P,U5,7,AIN3*%
X76750000Y-37850000D03*
%TO.P,U5,8,VDD*%
%TO.N,+3.3V*%
X76750000Y-37350000D03*
%TO.P,U5,9,SDA*%
%TO.N,SDA*%
X76750000Y-36850000D03*
%TO.P,U5,10,SCL*%
%TO.N,SCL*%
X76750000Y-36350000D03*
%TD*%
D29*
%TO.P,R31,1*%
%TO.N,VSS SW EN*%
X41600000Y-49500000D03*
%TO.P,R31,2*%
%TO.N,Net-(Q7-G)*%
X41600000Y-47675000D03*
%TD*%
%TO.P,R9,1*%
%TO.N,+V Strobe GPIO*%
X61000000Y-33212500D03*
%TO.P,R9,2*%
%TO.N,Net-(Q4-B2)*%
X61000000Y-31387500D03*
%TD*%
D37*
%TO.N,Hall Switch*%
X117025000Y-53200000D03*
X112325000Y-63400000D03*
%TO.N,3.3v*%
X113025000Y-52500000D03*
%TO.N,Net-(D2-Pad1)*%
X123025000Y-58200000D03*
%TO.N,GND*%
X116825000Y-58200000D03*
%TO.N,Net-(D2-Pad2)*%
X123125000Y-59600000D03*
%TO.N,GND*%
X113725000Y-50800000D03*
%TO.N,3.3v*%
X113625000Y-67100000D03*
X118425000Y-50100000D03*
%TO.N,GND*%
X114625000Y-68200000D03*
%TO.N,3.3v*%
X121225000Y-57000000D03*
%TO.N,GND*%
X108925000Y-55400000D03*
X116525000Y-63100000D03*
%TO.N,Hall Switch*%
X117625000Y-67600000D03*
%TO.N,ForceOn*%
X116625000Y-66500000D03*
%TO.N,PGM_RST*%
X116525000Y-61000000D03*
%TO.N,P-Switch*%
X115625000Y-66500000D03*
%TO.N,Hall Switch*%
X117025000Y-25700000D03*
X112325000Y-35900000D03*
%TO.N,3.3v*%
X113025000Y-25000000D03*
%TO.N,Net-(D2-Pad1)*%
X123025000Y-30700000D03*
%TO.N,GND*%
X116825000Y-30700000D03*
%TO.N,Net-(D2-Pad2)*%
X123125000Y-32100000D03*
%TO.N,GND*%
X113725000Y-23300000D03*
%TO.N,3.3v*%
X113625000Y-39600000D03*
X118425000Y-22600000D03*
%TO.N,GND*%
X114625000Y-40700000D03*
%TO.N,3.3v*%
X121225000Y-29500000D03*
%TO.N,GND*%
X108925000Y-27900000D03*
X116525000Y-35600000D03*
%TO.N,Hall Switch*%
X117625000Y-40100000D03*
%TO.N,ForceOn*%
X116625000Y-39000000D03*
%TO.N,PGM_RST*%
X116525000Y-33500000D03*
%TO.N,P-Switch*%
X115625000Y-39000000D03*
D38*
%TO.N,GND*%
X30700000Y-52300000D03*
D39*
X40100000Y-70000000D03*
X95328600Y-33400000D03*
X93300000Y-62700000D03*
X92024999Y-70000000D03*
X64725000Y-25900000D03*
X79750000Y-30400000D03*
D38*
X43800000Y-27100000D03*
X22500000Y-36200000D03*
X41800000Y-75300000D03*
D39*
X44275000Y-53975000D03*
X83950000Y-32450000D03*
D38*
X50800000Y-27100000D03*
D39*
X95303600Y-69350002D03*
X61200000Y-36100000D03*
X67550000Y-40300000D03*
X78850000Y-37050000D03*
D38*
X29800000Y-27100000D03*
X36800000Y-27200000D03*
D39*
X45700000Y-61400000D03*
X79250000Y-61425000D03*
X61900000Y-30200000D03*
X85725000Y-72975000D03*
D37*
X48850000Y-50100000D03*
D39*
X84950000Y-38325000D03*
X73550000Y-39800000D03*
X75900000Y-26900000D03*
%TO.N,+3.3V*%
X73550000Y-37950000D03*
X58200000Y-31000000D03*
X60475000Y-54125000D03*
X66500000Y-39300000D03*
X74900000Y-59050000D03*
X60425000Y-57587500D03*
X51375000Y-54450000D03*
X63700000Y-27100000D03*
X59050000Y-69350000D03*
X85425000Y-33800000D03*
%TO.N,AIN 2*%
X76900000Y-26950000D03*
%TO.N,Net-(U5-AIN0)*%
X82191268Y-35583732D03*
%TO.N,VIN*%
X25925000Y-66700000D03*
X25925000Y-67500000D03*
X26625000Y-67500000D03*
X27325000Y-68300000D03*
X26625000Y-68300000D03*
X26625000Y-66700000D03*
X27325000Y-67500000D03*
X25925000Y-68300000D03*
X26625000Y-69100000D03*
X27325000Y-66700000D03*
X27325000Y-69100000D03*
X25925000Y-69100000D03*
%TO.N,Net-(D1-A)*%
X22100000Y-69100000D03*
%TO.N,Vin SW*%
X23425000Y-61700000D03*
X24425000Y-63600000D03*
X25425000Y-62600000D03*
X26425000Y-62600000D03*
X22325000Y-59900000D03*
X26425000Y-61700000D03*
X24425000Y-61700000D03*
X25425000Y-63600000D03*
X24425000Y-62600000D03*
X22325000Y-63600000D03*
X26425000Y-59000000D03*
X23425000Y-60800000D03*
X26425000Y-60800000D03*
X22325000Y-62600000D03*
X26425000Y-63600000D03*
X25425000Y-61700000D03*
X25425000Y-59000000D03*
X22325000Y-59000000D03*
X23425000Y-63600000D03*
X25425000Y-60800000D03*
X24425000Y-60800000D03*
X23425000Y-62600000D03*
X22325000Y-61700000D03*
X23425000Y-59000000D03*
X26425000Y-59900000D03*
X25425000Y-59900000D03*
X23425000Y-59900000D03*
X22325000Y-60800000D03*
X24425000Y-59900000D03*
X24425000Y-59000000D03*
D37*
%TO.N,Net-(D2-A)*%
X33900000Y-46000000D03*
D39*
%TO.N,SCL*%
X70650000Y-37300000D03*
X53900000Y-60447780D03*
X45600000Y-52200000D03*
%TO.N,SDA*%
X45950000Y-57650000D03*
X70650000Y-38300000D03*
X54800000Y-61575000D03*
%TO.N,Net-(U4-A1)*%
X49400000Y-58800000D03*
X43000000Y-55400000D03*
%TO.N,5V SW*%
X50400000Y-34400000D03*
%TO.N,Strobe Trig Out*%
X68850000Y-34550000D03*
%TO.N,Strobe EN OUT*%
X64700000Y-32750000D03*
%TO.N,P Switch*%
X60775000Y-26555000D03*
%TO.N,Status LED+*%
X61725000Y-26000000D03*
%TO.N,Force On*%
X59700000Y-27250000D03*
%TO.N,CAM1 GPIO 1*%
X89825000Y-32400000D03*
%TO.N,CAM 1 GPIO 2*%
X89850000Y-30350000D03*
%TO.N,+5V_MCU*%
X55800000Y-34575000D03*
X47300000Y-33000000D03*
%TO.N,PCTx1*%
X79046801Y-69138118D03*
%TO.N,PCRx1*%
X79700000Y-69600000D03*
%TO.N,ExtRx2*%
X85025000Y-67775000D03*
%TO.N,ExtTx2*%
X91025000Y-70250000D03*
%TO.N,ext_uCTx*%
X75625000Y-67775000D03*
%TO.N,ext_uCRx*%
X74725000Y-69025000D03*
%TO.N,Status LED-*%
X62699999Y-26000000D03*
%TD*%
D40*
%TO.N,Net-(D2-Pad2)*%
X123625000Y-60100000D02*
X123125000Y-59600000D01*
%TO.N,GND*%
X111825000Y-50550000D02*
X112075000Y-50800000D01*
%TO.N,Hall Switch*%
X112020000Y-63705000D02*
X112325000Y-63400000D01*
%TO.N,P-Switch*%
X112460000Y-62435000D02*
X110837500Y-62435000D01*
%TO.N,RTO Status Yellow*%
X120347500Y-61165000D02*
X120412500Y-61100000D01*
%TO.N,GND*%
X113725000Y-50900000D02*
X113725000Y-50800000D01*
%TO.N,Net-(D2-Pad1)*%
X122237500Y-61100000D02*
X122237500Y-58987500D01*
%TO.N,ForceOn*%
X116625000Y-65900000D02*
X111890000Y-61165000D01*
%TO.N,RTO Status Blue*%
X119847500Y-62435000D02*
X120412500Y-63000000D01*
%TO.N,GND*%
X118012500Y-63705000D02*
X117130000Y-63705000D01*
%TO.N,Hall Switch*%
X114974943Y-67600000D02*
X112325000Y-64950057D01*
%TO.N,ForceOn*%
X116625000Y-66500000D02*
X116625000Y-65900000D01*
X111890000Y-61165000D02*
X110837500Y-61165000D01*
%TO.N,PGM_RST*%
X118012500Y-57000000D02*
X118012500Y-59895000D01*
%TO.N,Net-(D2-Pad2)*%
X122237500Y-63000000D02*
X123325000Y-63000000D01*
%TO.N,P-Switch*%
X115625000Y-66500000D02*
X115625000Y-65600000D01*
X115625000Y-65600000D02*
X112460000Y-62435000D01*
%TO.N,Hall Switch*%
X112325000Y-64950057D02*
X112325000Y-63400000D01*
%TO.N,Net-(D2-Pad1)*%
X122237500Y-58987500D02*
X123025000Y-58200000D01*
%TO.N,PGM_RST*%
X116730000Y-59895000D02*
X116525000Y-60100000D01*
%TO.N,Hall Switch*%
X117037500Y-53212500D02*
X117025000Y-53200000D01*
%TO.N,Net-(D2-Pad2)*%
X123325000Y-63000000D02*
X123625000Y-62700000D01*
%TO.N,GND*%
X117130000Y-63705000D02*
X116525000Y-63100000D01*
%TO.N,RTO Status Blue*%
X118012500Y-62435000D02*
X119847500Y-62435000D01*
%TO.N,Hall Switch*%
X110837500Y-63705000D02*
X112020000Y-63705000D01*
%TO.N,GND*%
X113625000Y-50800000D02*
X113725000Y-50900000D01*
X108975000Y-55450000D02*
X108925000Y-55400000D01*
%TO.N,Net-(D2-Pad2)*%
X123625000Y-62700000D02*
X123625000Y-60100000D01*
X123125000Y-59600000D02*
X123025000Y-59500000D01*
%TO.N,Hall Switch*%
X115725000Y-67600000D02*
X114974943Y-67600000D01*
%TO.N,PGM_RST*%
X116525000Y-60100000D02*
X116525000Y-61000000D01*
%TO.N,Hall Switch*%
X117625000Y-67600000D02*
X115725000Y-67600000D01*
X118425000Y-53212500D02*
X117037500Y-53212500D01*
%TO.N,RTO Status Yellow*%
X118012500Y-61165000D02*
X120347500Y-61165000D01*
%TO.N,GND*%
X108975000Y-57100000D02*
X108975000Y-55450000D01*
X112075000Y-50800000D02*
X113625000Y-50800000D01*
%TO.N,PGM_RST*%
X118012500Y-59895000D02*
X116730000Y-59895000D01*
%TO.N,3.3v*%
X110875000Y-54100000D02*
X110875000Y-57100000D01*
X119837500Y-57000000D02*
X121225000Y-57000000D01*
X111825000Y-53150000D02*
X110875000Y-54100000D01*
X110875000Y-57250000D02*
X110837500Y-57287500D01*
X113025000Y-52500000D02*
X112975000Y-52450000D01*
X112975000Y-52450000D02*
X111825000Y-52450000D01*
X110837500Y-57287500D02*
X110837500Y-59895000D01*
X118425000Y-51387500D02*
X118425000Y-50100000D01*
X121225000Y-57000000D02*
X121225000Y-57143111D01*
X111825000Y-52450000D02*
X111825000Y-53150000D01*
X110875000Y-57100000D02*
X110875000Y-57250000D01*
%TO.N,Net-(D2-Pad2)*%
X123625000Y-32600000D02*
X123125000Y-32100000D01*
%TO.N,GND*%
X111825000Y-23050000D02*
X112075000Y-23300000D01*
%TO.N,Hall Switch*%
X112020000Y-36205000D02*
X112325000Y-35900000D01*
%TO.N,P-Switch*%
X112460000Y-34935000D02*
X110837500Y-34935000D01*
%TO.N,RTO Status Yellow*%
X120347500Y-33665000D02*
X120412500Y-33600000D01*
%TO.N,GND*%
X113725000Y-23400000D02*
X113725000Y-23300000D01*
%TO.N,Net-(D2-Pad1)*%
X122237500Y-33600000D02*
X122237500Y-31487500D01*
%TO.N,ForceOn*%
X116625000Y-38400000D02*
X111890000Y-33665000D01*
%TO.N,RTO Status Blue*%
X119847500Y-34935000D02*
X120412500Y-35500000D01*
%TO.N,GND*%
X118012500Y-36205000D02*
X117130000Y-36205000D01*
%TO.N,Hall Switch*%
X114974943Y-40100000D02*
X112325000Y-37450057D01*
%TO.N,ForceOn*%
X116625000Y-39000000D02*
X116625000Y-38400000D01*
X111890000Y-33665000D02*
X110837500Y-33665000D01*
%TO.N,PGM_RST*%
X118012500Y-29500000D02*
X118012500Y-32395000D01*
%TO.N,Net-(D2-Pad2)*%
X122237500Y-35500000D02*
X123325000Y-35500000D01*
%TO.N,P-Switch*%
X115625000Y-39000000D02*
X115625000Y-38100000D01*
X115625000Y-38100000D02*
X112460000Y-34935000D01*
%TO.N,Hall Switch*%
X112325000Y-37450057D02*
X112325000Y-35900000D01*
%TO.N,Net-(D2-Pad1)*%
X122237500Y-31487500D02*
X123025000Y-30700000D01*
%TO.N,PGM_RST*%
X116730000Y-32395000D02*
X116525000Y-32600000D01*
%TO.N,Hall Switch*%
X117037500Y-25712500D02*
X117025000Y-25700000D01*
%TO.N,Net-(D2-Pad2)*%
X123325000Y-35500000D02*
X123625000Y-35200000D01*
%TO.N,GND*%
X117130000Y-36205000D02*
X116525000Y-35600000D01*
%TO.N,RTO Status Blue*%
X118012500Y-34935000D02*
X119847500Y-34935000D01*
%TO.N,Hall Switch*%
X110837500Y-36205000D02*
X112020000Y-36205000D01*
%TO.N,GND*%
X113625000Y-23300000D02*
X113725000Y-23400000D01*
X108975000Y-27950000D02*
X108925000Y-27900000D01*
%TO.N,Net-(D2-Pad2)*%
X123625000Y-35200000D02*
X123625000Y-32600000D01*
X123125000Y-32100000D02*
X123025000Y-32000000D01*
%TO.N,Hall Switch*%
X115725000Y-40100000D02*
X114974943Y-40100000D01*
%TO.N,PGM_RST*%
X116525000Y-32600000D02*
X116525000Y-33500000D01*
%TO.N,Hall Switch*%
X117625000Y-40100000D02*
X115725000Y-40100000D01*
X118425000Y-25712500D02*
X117037500Y-25712500D01*
%TO.N,RTO Status Yellow*%
X118012500Y-33665000D02*
X120347500Y-33665000D01*
%TO.N,GND*%
X108975000Y-29600000D02*
X108975000Y-27950000D01*
X112075000Y-23300000D02*
X113625000Y-23300000D01*
%TO.N,PGM_RST*%
X118012500Y-32395000D02*
X116730000Y-32395000D01*
%TO.N,3.3v*%
X110875000Y-26600000D02*
X110875000Y-29600000D01*
X119837500Y-29500000D02*
X121225000Y-29500000D01*
X111825000Y-25650000D02*
X110875000Y-26600000D01*
X110875000Y-29750000D02*
X110837500Y-29787500D01*
X113025000Y-25000000D02*
X112975000Y-24950000D01*
X112975000Y-24950000D02*
X111825000Y-24950000D01*
X110837500Y-29787500D02*
X110837500Y-32395000D01*
X118425000Y-23887500D02*
X118425000Y-22600000D01*
X121225000Y-29500000D02*
X121225000Y-29643111D01*
X111825000Y-24950000D02*
X111825000Y-25650000D01*
X110875000Y-29600000D02*
X110875000Y-29750000D01*
%TO.N,GND*%
X92024999Y-70000000D02*
X91174999Y-69150000D01*
D41*
X47593000Y-39357000D02*
X48550000Y-38400000D01*
D40*
X78050000Y-37850000D02*
X76750000Y-37850000D01*
D42*
X75575000Y-61950000D02*
X74900000Y-61950000D01*
D40*
X82612500Y-30350000D02*
X82650000Y-30387500D01*
X76750000Y-37850000D02*
X76750000Y-38350000D01*
X37937500Y-68650000D02*
X40062500Y-68650000D01*
X39200000Y-49500000D02*
X39162500Y-49537500D01*
X36637500Y-49537500D02*
X36637500Y-51862500D01*
D42*
X76100000Y-61425000D02*
X75575000Y-61950000D01*
D40*
X79150000Y-37350000D02*
X81050000Y-37350000D01*
X40062500Y-68650000D02*
X40100000Y-68612500D01*
D41*
X47593000Y-44107500D02*
X47593000Y-39357000D01*
D40*
X82650000Y-30387500D02*
X82650000Y-32450000D01*
X79550000Y-36350000D02*
X81050000Y-36350000D01*
X78850000Y-37050000D02*
X79550000Y-36350000D01*
D42*
X77250000Y-61425000D02*
X76100000Y-61425000D01*
D40*
X91174999Y-69150000D02*
X89300000Y-69150000D01*
X40100000Y-70000000D02*
X40100000Y-68612500D01*
X78850000Y-37050000D02*
X79150000Y-37350000D01*
X93300000Y-62700000D02*
X93300000Y-61450000D01*
X39300000Y-49500000D02*
X39200000Y-49500000D01*
X78850000Y-37050000D02*
X78050000Y-37850000D01*
X61200000Y-36125000D02*
X61200000Y-36100000D01*
X93300000Y-61450000D02*
X93250000Y-61400000D01*
X62550000Y-30850000D02*
X61900000Y-30200000D01*
X36200000Y-52300000D02*
X30700000Y-52300000D01*
X39162500Y-49537500D02*
X36637500Y-49537500D01*
D42*
X74800000Y-39800000D02*
X73550000Y-39800000D01*
D40*
X61875000Y-36800000D02*
X61200000Y-36125000D01*
X82650000Y-32450000D02*
X83950000Y-32450000D01*
X63100000Y-30850000D02*
X62550000Y-30850000D01*
X36637500Y-51862500D02*
X36200000Y-52300000D01*
X62150000Y-36800000D02*
X61875000Y-36800000D01*
D42*
X77250000Y-61425000D02*
X79250000Y-61425000D01*
D40*
%TO.N,VSS*%
X45053000Y-44107500D02*
X45053000Y-41753000D01*
X43200000Y-39900000D02*
X39312500Y-39900000D01*
X39312500Y-44025000D02*
X39300000Y-44037500D01*
X39312500Y-39900000D02*
X39312500Y-44025000D01*
X45053000Y-41753000D02*
X43200000Y-39900000D01*
D42*
%TO.N,+3.3V*%
X75005000Y-60155000D02*
X74900000Y-60050000D01*
X74900000Y-59050000D02*
X74900000Y-60050000D01*
X58217500Y-31975000D02*
X58217500Y-31017500D01*
X77250000Y-60155000D02*
X75005000Y-60155000D01*
D40*
X60425000Y-57587500D02*
X59000000Y-57587500D01*
X60487500Y-52675000D02*
X60487500Y-54112500D01*
X60462500Y-52650000D02*
X60487500Y-52675000D01*
D42*
X74800000Y-37900000D02*
X75350000Y-37350000D01*
D40*
X60487500Y-54112500D02*
X60475000Y-54125000D01*
X60462500Y-50150000D02*
X60462500Y-52650000D01*
D42*
X74800000Y-37900000D02*
X73600000Y-37900000D01*
X75350000Y-37350000D02*
X76750000Y-37350000D01*
X58217500Y-31017500D02*
X58200000Y-31000000D01*
X73600000Y-37900000D02*
X73550000Y-37950000D01*
D40*
X59050000Y-68162500D02*
X59050000Y-69350000D01*
%TO.N,Net-(U5-AIN1)*%
X83100000Y-37692463D02*
X83100000Y-35325000D01*
X83100000Y-35325000D02*
X80750000Y-32975000D01*
X80787500Y-30350000D02*
X80787500Y-30487500D01*
X80787500Y-30487500D02*
X80750000Y-30525000D01*
X82417463Y-38375000D02*
X83100000Y-37692463D01*
X80750000Y-32975000D02*
X80750000Y-32450000D01*
X81075000Y-38375000D02*
X82417463Y-38375000D01*
X80787500Y-28350000D02*
X80787500Y-30350000D01*
X81050000Y-38350000D02*
X81075000Y-38375000D01*
X80750000Y-30525000D02*
X80750000Y-32450000D01*
%TO.N,AIN 2*%
X76900000Y-26950000D02*
X82000000Y-26950000D01*
X82000000Y-26950000D02*
X82612500Y-27562500D01*
X82612500Y-27562500D02*
X82612500Y-28350000D01*
%TO.N,Net-(U5-AIN0)*%
X82191268Y-37483732D02*
X82191268Y-35583732D01*
X81825000Y-37850000D02*
X82191268Y-37483732D01*
X81050000Y-37850000D02*
X81825000Y-37850000D01*
%TO.N,VIN*%
X31062500Y-68800000D02*
X31062500Y-66375000D01*
X30500000Y-74400000D02*
X30500000Y-69362500D01*
X30500000Y-69362500D02*
X31062500Y-68800000D01*
X31062500Y-66375000D02*
X31000000Y-66312500D01*
%TO.N,Net-(D1-A)*%
X23612500Y-64487500D02*
X31000000Y-64487500D01*
X33387500Y-64600000D02*
X33200000Y-64787500D01*
X33200000Y-64787500D02*
X33200000Y-67587500D01*
X31000000Y-64487500D02*
X33275000Y-64487500D01*
X33200000Y-67587500D02*
X32937500Y-67850000D01*
X33275000Y-64487500D02*
X33387500Y-64600000D01*
X22100000Y-69100000D02*
X22100000Y-66000000D01*
X22100000Y-66000000D02*
X23612500Y-64487500D01*
%TO.N,Net-(Q2-G)*%
X40062500Y-66750000D02*
X40100000Y-66787500D01*
X37937500Y-66750000D02*
X40062500Y-66750000D01*
X40100000Y-66787500D02*
X42100000Y-66787500D01*
%TO.N,Net-(D2-A)*%
X37662500Y-42162500D02*
X37487500Y-41987500D01*
X33900000Y-46000000D02*
X33887500Y-45987500D01*
X33887500Y-45987500D02*
X33887500Y-44600000D01*
X37487500Y-41987500D02*
X37487500Y-39900000D01*
X38350000Y-42162500D02*
X37662500Y-42162500D01*
X34900000Y-39900000D02*
X37487500Y-39900000D01*
X33887500Y-40912500D02*
X34900000Y-39900000D01*
X38387500Y-42125000D02*
X38350000Y-42162500D01*
X33887500Y-45987500D02*
X33887500Y-40912500D01*
%TO.N,Net-(Q4-B2)*%
X64450000Y-29362500D02*
X64450000Y-31225000D01*
X63887500Y-28800000D02*
X64450000Y-29362500D01*
X64450000Y-31225000D02*
X63875000Y-31800000D01*
X63875000Y-31800000D02*
X63100000Y-31800000D01*
X63100000Y-31800000D02*
X61412500Y-31800000D01*
X61412500Y-31800000D02*
X61000000Y-31387500D01*
%TO.N,Net-(Q4-B1)*%
X67750000Y-30887500D02*
X66837500Y-31800000D01*
X66837500Y-31800000D02*
X65700000Y-31800000D01*
%TO.N,Strobe EN*%
X50165000Y-62835000D02*
X56485000Y-62835000D01*
X65900000Y-41309744D02*
X61750000Y-45459744D01*
X61750000Y-45459744D02*
X61750000Y-60466346D01*
X59381346Y-62835000D02*
X56485000Y-62835000D01*
X61750000Y-60466346D02*
X59381346Y-62835000D01*
X44387500Y-68612500D02*
X50165000Y-62835000D01*
X69575000Y-35215686D02*
X65900000Y-38890686D01*
X67750000Y-32712500D02*
X68887500Y-32712500D01*
X68887500Y-32712500D02*
X69575000Y-33400000D01*
X65900000Y-38890686D02*
X65900000Y-41309744D01*
X69575000Y-33400000D02*
X69575000Y-35215686D01*
X42100000Y-68612500D02*
X44387500Y-68612500D01*
%TO.N,Net-(Q4-C1)*%
X65712500Y-28800000D02*
X65712500Y-30837500D01*
X65712500Y-30837500D02*
X65700000Y-30850000D01*
%TO.N,Net-(Q5-C1)*%
X64712500Y-36762500D02*
X64750000Y-36800000D01*
X64712500Y-34800000D02*
X64712500Y-36762500D01*
%TO.N,Net-(Q5-B2)*%
X63350000Y-35262500D02*
X62887500Y-34800000D01*
X61837500Y-37437500D02*
X62150000Y-37750000D01*
X62925000Y-37750000D02*
X63350000Y-37325000D01*
X60100000Y-37437500D02*
X61837500Y-37437500D01*
X63350000Y-37325000D02*
X63350000Y-35262500D01*
X62150000Y-37750000D02*
X62925000Y-37750000D01*
%TO.N,Strobe Trig*%
X64962500Y-40750000D02*
X60657500Y-45055000D01*
X60657500Y-45055000D02*
X56485000Y-45055000D01*
%TO.N,Net-(Q5-B1)*%
X63975000Y-37750000D02*
X63450000Y-38275000D01*
X64750000Y-37750000D02*
X63975000Y-37750000D01*
X63450000Y-40437500D02*
X63137500Y-40750000D01*
X63450000Y-38275000D02*
X63450000Y-40437500D01*
%TO.N,SCL*%
X46825000Y-56875000D02*
X45625000Y-55675000D01*
D42*
X70650000Y-37300000D02*
X71600000Y-36350000D01*
D40*
X59025000Y-64105000D02*
X59025000Y-66312500D01*
X50275000Y-56875000D02*
X46825000Y-56875000D01*
X53817834Y-60417834D02*
X50275000Y-56875000D01*
X45625000Y-55675000D02*
X45625000Y-52225000D01*
D42*
X71600000Y-36350000D02*
X76750000Y-36350000D01*
D40*
X53870054Y-60417834D02*
X53817834Y-60417834D01*
X45625000Y-52225000D02*
X45600000Y-52200000D01*
X59025000Y-66312500D02*
X59050000Y-66337500D01*
X53900000Y-60447780D02*
X53870054Y-60417834D01*
D42*
%TO.N,SDA*%
X70650000Y-38300000D02*
X72100000Y-36850000D01*
X72100000Y-36850000D02*
X76750000Y-36850000D01*
D40*
X53875000Y-61575000D02*
X49950000Y-57650000D01*
X59000000Y-59412500D02*
X59000000Y-61540000D01*
X54800000Y-61575000D02*
X53875000Y-61575000D01*
X59000000Y-61540000D02*
X59025000Y-61565000D01*
X49950000Y-57650000D02*
X45950000Y-57650000D01*
%TO.N,Net-(U4-A1)*%
X43900000Y-58800000D02*
X49400000Y-58800000D01*
X43000000Y-57900000D02*
X43900000Y-58800000D01*
X43000000Y-55400000D02*
X43000000Y-57900000D01*
%TO.N,Net-(U8-V-)*%
X89300000Y-67250000D02*
X88150000Y-67250000D01*
X87405000Y-66505000D02*
X86550000Y-66505000D01*
X88150000Y-67250000D02*
X87405000Y-66505000D01*
%TO.N,Net-(U8-C1+)*%
X89005000Y-60155000D02*
X89300000Y-60450000D01*
X86550000Y-60155000D02*
X89005000Y-60155000D01*
%TO.N,Net-(U8-C1-)*%
X87795000Y-62695000D02*
X86550000Y-62695000D01*
X88140000Y-62350000D02*
X87795000Y-62695000D01*
X89300000Y-62350000D02*
X88140000Y-62350000D01*
D41*
%TO.N,5V SW*%
X50400000Y-34400000D02*
X50450000Y-34450000D01*
X50450000Y-34450000D02*
X50450000Y-35800000D01*
D40*
%TO.N,Strobe Trig Out*%
X68850000Y-34550000D02*
X68850000Y-35375000D01*
X68850000Y-35375000D02*
X65525000Y-38700000D01*
X65525000Y-38700000D02*
X64750000Y-38700000D01*
D42*
%TO.N,Strobe EN OUT*%
X65700000Y-32750000D02*
X64700000Y-32750000D01*
D40*
%TO.N,P Switch*%
X56485000Y-52675000D02*
X58662500Y-52675000D01*
X54125000Y-50315000D02*
X56485000Y-52675000D01*
X60775000Y-26555000D02*
X56479314Y-26555000D01*
X56479314Y-26555000D02*
X54125000Y-28909314D01*
X54125000Y-28909314D02*
X54125000Y-50315000D01*
%TO.N,Status LED+*%
X61725000Y-26000000D02*
X56468628Y-26000000D01*
X56468628Y-26000000D02*
X53725000Y-28743628D01*
X53725000Y-28743628D02*
X53725000Y-53287500D01*
X53725000Y-53287500D02*
X53825000Y-53387500D01*
%TO.N,Force On*%
X59700000Y-27250000D02*
X56350000Y-27250000D01*
X56350000Y-27250000D02*
X54525000Y-29075000D01*
X56485000Y-50135000D02*
X58622500Y-50135000D01*
X58622500Y-50135000D02*
X58637500Y-50150000D01*
X54525000Y-29075000D02*
X54525000Y-48175000D01*
X54525000Y-48175000D02*
X56485000Y-50135000D01*
%TO.N,Net-(Q3-B1)*%
X49500000Y-36575000D02*
X49500000Y-35800000D01*
X50012500Y-37087500D02*
X49500000Y-36575000D01*
X52500000Y-37087500D02*
X50012500Y-37087500D01*
%TO.N,Net-(Q3-B2)*%
X49500000Y-39787500D02*
X49500000Y-38400000D01*
X48712500Y-37112500D02*
X46600000Y-37112500D01*
X48787500Y-40500000D02*
X49500000Y-39787500D01*
X49500000Y-37900000D02*
X48712500Y-37112500D01*
X49500000Y-38400000D02*
X49500000Y-37900000D01*
%TO.N,Net-(Q3-C1)*%
X48037500Y-35287500D02*
X48550000Y-35800000D01*
X46600000Y-35287500D02*
X48037500Y-35287500D01*
%TO.N,5V EN*%
X50625000Y-51250000D02*
X52500000Y-49375000D01*
X53205000Y-57755000D02*
X50625000Y-55175000D01*
X50625000Y-55175000D02*
X50625000Y-51250000D01*
X56485000Y-57755000D02*
X53205000Y-57755000D01*
X52500000Y-49375000D02*
X52500000Y-38912500D01*
D42*
%TO.N,CAM1 GPIO 1*%
X79050000Y-39250000D02*
X74200000Y-44100000D01*
X82975000Y-39250000D02*
X79050000Y-39250000D01*
X74200000Y-50330000D02*
X71725000Y-52805000D01*
X89825000Y-32400000D02*
X82975000Y-39250000D01*
X74200000Y-44100000D02*
X74200000Y-50330000D01*
%TO.N,CAM 1 GPIO 2*%
X82621752Y-38800000D02*
X78825000Y-38800000D01*
X89850000Y-31571752D02*
X89601752Y-31820000D01*
X78825000Y-38800000D02*
X73625000Y-44000000D01*
X89584756Y-31820000D02*
X89245000Y-32159756D01*
X73625000Y-44000000D02*
X73625000Y-47486701D01*
X73625000Y-47486701D02*
X71725000Y-49386701D01*
X89245000Y-32176752D02*
X82621752Y-38800000D01*
X89850000Y-30350000D02*
X89850000Y-31571752D01*
X89245000Y-32159756D02*
X89245000Y-32176752D01*
X71725000Y-49386701D02*
X71725000Y-50265000D01*
X89601752Y-31820000D02*
X89584756Y-31820000D01*
D40*
%TO.N,VSS SW EN*%
X56485000Y-60295000D02*
X54870000Y-60295000D01*
X44075000Y-49500000D02*
X41600000Y-49500000D01*
X54870000Y-60295000D02*
X44075000Y-49500000D01*
D41*
%TO.N,+5V_MCU*%
X50133000Y-44107500D02*
X50192500Y-44107500D01*
X50900000Y-40787500D02*
X50612500Y-40500000D01*
X50192500Y-44107500D02*
X50900000Y-43400000D01*
D42*
X55800000Y-34575000D02*
X58217500Y-34575000D01*
D41*
X50450000Y-38400000D02*
X50450000Y-40337500D01*
X50900000Y-43400000D02*
X50900000Y-40787500D01*
X50450000Y-40337500D02*
X50612500Y-40500000D01*
D40*
%TO.N,Net-(U8-C2-)*%
X88750000Y-65200000D02*
X86585000Y-65200000D01*
X89300000Y-65750000D02*
X88750000Y-65200000D01*
X86585000Y-65200000D02*
X86550000Y-65235000D01*
%TO.N,Net-(U8-C2+)*%
X89300000Y-63850000D02*
X86665000Y-63850000D01*
X86665000Y-63850000D02*
X86550000Y-63965000D01*
%TO.N,Net-(U8-V+)*%
X91325000Y-61425000D02*
X91350000Y-61400000D01*
X86550000Y-61425000D02*
X91325000Y-61425000D01*
%TO.N,PCTx1*%
X79046801Y-69138118D02*
X79046801Y-64471801D01*
X79046801Y-64471801D02*
X78540000Y-63965000D01*
X78540000Y-63965000D02*
X77250000Y-63965000D01*
%TO.N,PCRx1*%
X79700000Y-64151471D02*
X78243529Y-62695000D01*
X79700000Y-69600000D02*
X79700000Y-64151471D01*
X78243529Y-62695000D02*
X77250000Y-62695000D01*
%TO.N,uCTx*%
X77250000Y-66505000D02*
X75070000Y-66505000D01*
X74625000Y-66950000D02*
X74625000Y-67950000D01*
X75070000Y-66505000D02*
X74625000Y-66950000D01*
X71725000Y-73050000D02*
X71725000Y-73125000D01*
X73625000Y-71150000D02*
X71725000Y-73050000D01*
X74625000Y-67950000D02*
X73625000Y-68950000D01*
X73625000Y-68950000D02*
X73625000Y-71150000D01*
%TO.N,uCRx*%
X75465000Y-65235000D02*
X74000000Y-66700000D01*
X77250000Y-65235000D02*
X75465000Y-65235000D01*
X74000000Y-67950000D02*
X71725000Y-70225000D01*
X71725000Y-70225000D02*
X71725000Y-70585000D01*
X74000000Y-66700000D02*
X74000000Y-67950000D01*
D42*
%TO.N,+V Strobe GPIO*%
X58825000Y-37987500D02*
X60100000Y-39262500D01*
X58217500Y-33275000D02*
X60887500Y-33275000D01*
D40*
X61000000Y-33212500D02*
X62637500Y-33212500D01*
D42*
X60887500Y-33275000D02*
X60912500Y-33300000D01*
D40*
X61437500Y-39262500D02*
X60100000Y-39262500D01*
X62150000Y-38700000D02*
X62000000Y-38700000D01*
X62000000Y-38700000D02*
X61437500Y-39262500D01*
D42*
X59675000Y-33275000D02*
X59675000Y-35275000D01*
X59675000Y-35275000D02*
X58825000Y-36125000D01*
D40*
X62637500Y-33212500D02*
X63100000Y-32750000D01*
D42*
X58825000Y-36125000D02*
X58825000Y-37987500D01*
D40*
%TO.N,ExtRx2*%
X85025000Y-67775000D02*
X86550000Y-67775000D01*
%TO.N,ExtTx2*%
X91025000Y-70250000D02*
X87755000Y-70250000D01*
X87755000Y-70250000D02*
X86550000Y-69045000D01*
%TO.N,ext_uCTx*%
X77250000Y-67775000D02*
X75625000Y-67775000D01*
%TO.N,ext_uCRx*%
X74745000Y-69045000D02*
X77250000Y-69045000D01*
X74725000Y-69025000D02*
X74745000Y-69045000D01*
%TO.N,Net-(U3-Pin_14)*%
X54925000Y-46035000D02*
X54925000Y-43800000D01*
X55725000Y-43000000D02*
X55725000Y-42012500D01*
X54925000Y-43800000D02*
X55725000Y-43000000D01*
X56485000Y-47595000D02*
X54925000Y-46035000D01*
%TO.N,Net-(Q2-D)*%
X36062500Y-67700000D02*
X35212500Y-66850000D01*
X35212500Y-66850000D02*
X35212500Y-64600000D01*
%TO.N,Net-(Q7-G)*%
X39087500Y-47637500D02*
X36637500Y-47637500D01*
X41600000Y-47675000D02*
X39300000Y-47675000D01*
X39300000Y-47675000D02*
X39125000Y-47675000D01*
X39125000Y-47675000D02*
X39087500Y-47637500D01*
%TO.N,Net-(Q7-D)*%
X34762500Y-48587500D02*
X34762500Y-46837500D01*
X34762500Y-46837500D02*
X35712500Y-45887500D01*
X35712500Y-45887500D02*
X35712500Y-44600000D01*
%TO.N,Status LED-*%
X56425000Y-27800000D02*
X55125000Y-29100000D01*
X62700000Y-26700001D02*
X62700000Y-27225000D01*
X59930303Y-27806000D02*
X59469697Y-27806000D01*
X59936303Y-27800000D02*
X59930303Y-27806000D01*
X62700000Y-27225000D02*
X62125000Y-27800000D01*
X59469697Y-27806000D02*
X59463697Y-27800000D01*
X62125000Y-27800000D02*
X59936303Y-27800000D01*
X55725000Y-38100000D02*
X55725000Y-40187500D01*
X62699999Y-26700000D02*
X62700000Y-26700001D01*
X62699999Y-26000000D02*
X62699999Y-26700000D01*
X55125000Y-37500000D02*
X55725000Y-38100000D01*
X55125000Y-29100000D02*
X55125000Y-37500000D01*
X59463697Y-27800000D02*
X56425000Y-27800000D01*
%TO.N,Net-(U3-Pin_17)*%
X53827500Y-55215000D02*
X53825000Y-55212500D01*
X56485000Y-55215000D02*
X53827500Y-55215000D01*
%TD*%
M02*
