M48
; DRILL file {KiCad 9.0.7} date 2026-02-23T15:17:58-0800
; FORMAT={-:-/ absolute / metric / decimal}
; #@! TF.CreationDate,2026-02-23T15:17:58-08:00
; #@! TF.GenerationSoftware,Kicad,Pcbnew,9.0.7
; #@! TF.FileFunction,Plated,1,4,PTH
FMAT,2
METRIC
; #@! TA.AperFunction,Plated,PTH,ViaDrill
T1C0.254
; #@! TA.AperFunction,Plated,PTH,ViaDrill
T2C0.300
; #@! TA.AperFunction,Plated,PTH,ComponentDrill
T3C0.500
; #@! TA.AperFunction,Plated,PTH,ViaDrill
T4C1.000
; #@! TA.AperFunction,Plated,PTH,ComponentDrill
T5C1.000
; #@! TA.AperFunction,Plated,PTH,ComponentDrill
T6C2.500
; #@! TA.AperFunction,Plated,PTH,ComponentDrill
T7C2.700
%
G90
G05
T1
X22.1Y-69.1
X22.325Y-59.0
X22.325Y-59.9
X22.325Y-60.8
X22.325Y-61.7
X22.325Y-62.6
X22.325Y-63.6
X23.425Y-59.0
X23.425Y-59.9
X23.425Y-60.8
X23.425Y-61.7
X23.425Y-62.6
X23.425Y-63.6
X24.425Y-59.0
X24.425Y-59.9
X24.425Y-60.8
X24.425Y-61.7
X24.425Y-62.6
X24.425Y-63.6
X25.425Y-59.0
X25.425Y-59.9
X25.425Y-60.8
X25.425Y-61.7
X25.425Y-62.6
X25.425Y-63.6
X25.925Y-66.7
X25.925Y-67.5
X25.925Y-68.3
X25.925Y-69.1
X26.425Y-59.0
X26.425Y-59.9
X26.425Y-60.8
X26.425Y-61.7
X26.425Y-62.6
X26.425Y-63.6
X26.625Y-66.7
X26.625Y-67.5
X26.625Y-68.3
X26.625Y-69.1
X27.325Y-66.7
X27.325Y-67.5
X27.325Y-68.3
X27.325Y-69.1
X40.1Y-70.0
X43.0Y-55.4
X44.275Y-53.975
X45.6Y-52.2
X45.7Y-61.4
X45.95Y-57.65
X47.3Y-33.0
X49.4Y-58.8
X50.4Y-34.4
X51.375Y-54.45
X53.9Y-60.448
X54.8Y-61.575
X55.8Y-34.575
X58.2Y-31.0
X59.05Y-69.35
X59.7Y-27.25
X60.425Y-57.587
X60.475Y-54.125
X60.775Y-26.555
X61.2Y-36.1
X61.725Y-26.0
X61.9Y-30.2
X62.7Y-26.0
X63.7Y-27.1
X64.7Y-32.75
X64.725Y-25.9
X66.5Y-39.3
X67.55Y-40.3
X68.85Y-34.55
X70.65Y-37.3
X70.65Y-38.3
X73.55Y-37.95
X73.55Y-39.8
X74.725Y-69.025
X74.9Y-59.05
X75.625Y-67.775
X75.9Y-26.9
X76.9Y-26.95
X78.85Y-37.05
X79.047Y-69.138
X79.25Y-61.425
X79.7Y-69.6
X79.75Y-30.4
X82.191Y-35.584
X83.95Y-32.45
X84.95Y-38.325
X85.025Y-67.775
X85.425Y-33.8
X85.725Y-72.975
X89.825Y-32.4
X89.85Y-30.35
X91.025Y-70.25
X92.025Y-70.0
X93.3Y-62.7
X95.304Y-69.35
X95.329Y-33.4
T2
X33.9Y-46.0
X48.85Y-50.1
X108.925Y-27.9
X108.925Y-55.4
X112.325Y-35.9
X112.325Y-63.4
X113.025Y-25.0
X113.025Y-52.5
X113.625Y-39.6
X113.625Y-67.1
X113.725Y-23.3
X113.725Y-50.8
X114.625Y-40.7
X114.625Y-68.2
X115.625Y-39.0
X115.625Y-66.5
X116.525Y-33.5
X116.525Y-35.6
X116.525Y-61.0
X116.525Y-63.1
X116.625Y-39.0
X116.625Y-66.5
X116.825Y-30.7
X116.825Y-58.2
X117.025Y-25.7
X117.025Y-53.2
X117.625Y-40.1
X117.625Y-67.6
X118.425Y-22.6
X118.425Y-50.1
X121.225Y-29.5
X121.225Y-57.0
X123.025Y-30.7
X123.025Y-58.2
X123.125Y-32.1
X123.125Y-59.6
T3
X21.375Y-23.735
X21.375Y-75.415
X21.968Y-22.303
X21.968Y-25.167
X21.968Y-73.983
X21.968Y-76.847
X23.4Y-21.71
X23.4Y-25.76
X23.4Y-73.39
X23.4Y-77.44
X24.832Y-22.303
X24.832Y-25.167
X24.832Y-73.983
X24.832Y-76.847
X25.425Y-23.735
X25.425Y-75.415
X96.915Y-23.735
X96.915Y-75.415
X97.508Y-22.303
X97.508Y-25.167
X97.508Y-73.983
X97.508Y-76.847
X98.94Y-21.71
X98.94Y-25.76
X98.94Y-73.39
X98.94Y-77.44
X100.372Y-22.303
X100.372Y-25.167
X100.372Y-73.983
X100.372Y-76.847
X100.965Y-23.735
X100.965Y-75.415
T4
X22.5Y-36.2
X29.8Y-27.1
X30.7Y-52.3
X36.8Y-27.2
X41.8Y-75.3
X43.8Y-27.1
X50.8Y-27.1
T5
X22.46Y-31.8
X25.0Y-31.8
X45.053Y-44.107
X47.593Y-44.107
X50.133Y-44.107
X56.485Y-45.055
X56.485Y-47.595
X56.485Y-50.135
X56.485Y-52.675
X56.485Y-55.215
X56.485Y-57.755
X56.485Y-60.295
X56.485Y-62.835
X56.485Y-65.375
X56.485Y-67.915
X56.485Y-70.585
X56.485Y-72.995
X59.025Y-61.565
X59.025Y-64.105
X71.725Y-45.185
X71.725Y-47.725
X71.725Y-50.265
X71.725Y-52.805
X71.725Y-55.345
X71.725Y-57.885
X71.725Y-60.425
X71.725Y-62.965
X71.725Y-65.505
X71.725Y-68.045
X71.725Y-70.585
X71.725Y-73.125
T6
X23.062Y-49.0
X23.062Y-54.0
X30.5Y-74.4
X35.5Y-74.4
T7
X23.4Y-23.735
X23.4Y-75.415
X98.94Y-23.735
X98.94Y-75.415
M30
