%TF.GenerationSoftware,KiCad,Pcbnew,9.0.7*%
%TF.CreationDate,2026-02-23T15:17:49-08:00*%
%TF.ProjectId,camera_controller_RTO_panel,63616d65-7261-45f6-936f-6e74726f6c6c,1.0*%
%TF.SameCoordinates,Original*%
%TF.FileFunction,Copper,L2,Inr*%
%TF.FilePolarity,Positive*%
%FSLAX46Y46*%
G04 Gerber Fmt 4.6, Leading zero omitted, Abs format (unit mm)*
G04 Created by KiCad (PCBNEW 9.0.7) date 2026-02-23 15:17:49*
%MOMM*%
%LPD*%
G01*
G04 APERTURE LIST*
G04 Aperture macros list*
%AMRoundRect*
0 Rectangle with rounded corners*
0 $1 Rounding radius*
0 $2 $3 $4 $5 $6 $7 $8 $9 X,Y pos of 4 corners*
0 Add a 4 corners polygon primitive as box body*
4,1,4,$2,$3,$4,$5,$6,$7,$8,$9,$2,$3,0*
0 Add four circle primitives for the rounded corners*
1,1,$1+$1,$2,$3*
1,1,$1+$1,$4,$5*
1,1,$1+$1,$6,$7*
1,1,$1+$1,$8,$9*
0 Add four rect primitives between the rounded corners*
20,1,$1+$1,$2,$3,$4,$5,0*
20,1,$1+$1,$4,$5,$6,$7,0*
20,1,$1+$1,$6,$7,$8,$9,0*
20,1,$1+$1,$8,$9,$2,$3,0*%
G04 Aperture macros list end*
%TA.AperFunction,ComponentPad*%
%ADD10R,1.500000X2.300000*%
%TD*%
%TA.AperFunction,ComponentPad*%
%ADD11O,1.500000X2.300000*%
%TD*%
%TA.AperFunction,ComponentPad*%
%ADD12R,1.700000X1.700000*%
%TD*%
%TA.AperFunction,ComponentPad*%
%ADD13O,1.700000X1.700000*%
%TD*%
%TA.AperFunction,ComponentPad*%
%ADD14C,0.800000*%
%TD*%
%TA.AperFunction,ComponentPad*%
%ADD15C,5.400000*%
%TD*%
%TA.AperFunction,ComponentPad*%
%ADD16RoundRect,0.500000X1.750000X-1.250000X1.750000X1.250000X-1.750000X1.250000X-1.750000X-1.250000X0*%
%TD*%
%TA.AperFunction,ComponentPad*%
%ADD17C,1.700000*%
%TD*%
%TA.AperFunction,ComponentPad*%
%ADD18RoundRect,0.500000X-1.250000X-1.750000X1.250000X-1.750000X1.250000X1.750000X-1.250000X1.750000X0*%
%TD*%
%TA.AperFunction,ViaPad*%
%ADD19C,0.600000*%
%TD*%
%TA.AperFunction,ViaPad*%
%ADD20C,2.000000*%
%TD*%
%TA.AperFunction,ViaPad*%
%ADD21C,0.510000*%
%TD*%
G04 APERTURE END LIST*
D10*
%TO.N,VSS*%
%TO.C,U1*%
X45053000Y-44107500D03*
D11*
%TO.N,GND*%
X47593000Y-44107500D03*
%TO.N,+5V_MCU*%
X50133000Y-44107500D03*
%TD*%
D12*
%TO.N,+5V_MCU*%
%TO.C,J16*%
X25000000Y-31800000D03*
D13*
%TO.N,GND*%
X22460000Y-31800000D03*
%TD*%
D14*
%TO.N,N/C*%
%TO.C,*%
X96915000Y-23735000D03*
X97508109Y-22303109D03*
X97508109Y-25166891D03*
X98940000Y-21710000D03*
D15*
X98940000Y-23735000D03*
D14*
X98940000Y-25760000D03*
X100371891Y-22303109D03*
X100371891Y-25166891D03*
X100965000Y-23735000D03*
%TD*%
%TO.N,N/C*%
%TO.C,*%
X21375000Y-75415000D03*
X21968109Y-73983109D03*
X21968109Y-76846891D03*
X23400000Y-73390000D03*
D15*
X23400000Y-75415000D03*
D14*
X23400000Y-77440000D03*
X24831891Y-73983109D03*
X24831891Y-76846891D03*
X25425000Y-75415000D03*
%TD*%
%TO.N,N/C*%
%TO.C,*%
X96915000Y-75415000D03*
X97508109Y-73983109D03*
X97508109Y-76846891D03*
X98940000Y-73390000D03*
D15*
X98940000Y-75415000D03*
D14*
X98940000Y-77440000D03*
X100371891Y-73983109D03*
X100371891Y-76846891D03*
X100965000Y-75415000D03*
%TD*%
D16*
%TO.N,Vin SW*%
%TO.C,J12*%
X23062500Y-54000000D03*
%TO.N,GND*%
X23062500Y-49000000D03*
%TD*%
D12*
%TO.N,uCTx*%
%TO.C,U3*%
X71725000Y-73125000D03*
D13*
%TO.N,uCRx*%
X71725000Y-70585000D03*
%TO.N,unconnected-(U3-Pin_3-Pad3)*%
X71725000Y-68045000D03*
%TO.N,GND*%
X71725000Y-65505000D03*
%TO.N,ext_uCRx*%
X71725000Y-62965000D03*
%TO.N,ext_uCTx*%
X71725000Y-60425000D03*
%TO.N,CAM2 GPIO 1*%
X71725000Y-57885000D03*
%TO.N,CAM 2 GPIO 2*%
X71725000Y-55345000D03*
%TO.N,CAM1 GPIO 1*%
X71725000Y-52805000D03*
%TO.N,CAM 1 GPIO 2*%
X71725000Y-50265000D03*
%TO.N,Ext Trig In*%
X71725000Y-47725000D03*
%TO.N,Net-(U3-Pin_12)*%
X71725000Y-45185000D03*
%TO.N,Strobe Trig*%
X56485000Y-45055000D03*
%TO.N,Net-(U3-Pin_14)*%
X56485000Y-47595000D03*
%TO.N,Force On*%
X56485000Y-50135000D03*
%TO.N,P Switch*%
X56485000Y-52675000D03*
%TO.N,Net-(U3-Pin_17)*%
X56485000Y-55215000D03*
%TO.N,5V EN*%
X56485000Y-57755000D03*
%TO.N,VSS SW EN*%
X56485000Y-60295000D03*
%TO.N,Strobe EN*%
X56485000Y-62835000D03*
%TO.N,+3.3V*%
X56485000Y-65375000D03*
%TO.N,GND*%
X56485000Y-67915000D03*
X56485000Y-70585000D03*
D17*
%TO.N,+5V_MCU*%
X56485000Y-72995000D03*
D13*
%TO.N,SDA*%
X59025000Y-61565000D03*
D17*
%TO.N,SCL*%
X59025000Y-64105000D03*
%TD*%
D14*
%TO.N,N/C*%
%TO.C,*%
X21375000Y-23735000D03*
X21968109Y-22303109D03*
X21968109Y-25166891D03*
X23400000Y-21710000D03*
D15*
X23400000Y-23735000D03*
D14*
X23400000Y-25760000D03*
X24831891Y-22303109D03*
X24831891Y-25166891D03*
X25425000Y-23735000D03*
%TD*%
D18*
%TO.N,VIN*%
%TO.C,J1*%
X30500000Y-74400000D03*
%TO.N,GND*%
X35500000Y-74400000D03*
%TD*%
D19*
%TO.N,Hall Switch*%
X117025000Y-53200000D03*
X112325000Y-63400000D03*
%TO.N,3.3v*%
X113025000Y-52500000D03*
%TO.N,Net-(D2-Pad1)*%
X123025000Y-58200000D03*
%TO.N,GND*%
X116825000Y-58200000D03*
%TO.N,Net-(D2-Pad2)*%
X123125000Y-59600000D03*
%TO.N,GND*%
X113725000Y-50800000D03*
%TO.N,3.3v*%
X113625000Y-67100000D03*
X118425000Y-50100000D03*
%TO.N,GND*%
X114625000Y-68200000D03*
%TO.N,3.3v*%
X121225000Y-57000000D03*
%TO.N,GND*%
X108925000Y-55400000D03*
X116525000Y-63100000D03*
%TO.N,Hall Switch*%
X117625000Y-67600000D03*
%TO.N,ForceOn*%
X116625000Y-66500000D03*
%TO.N,PGM_RST*%
X116525000Y-61000000D03*
%TO.N,P-Switch*%
X115625000Y-66500000D03*
%TO.N,Hall Switch*%
X117025000Y-25700000D03*
X112325000Y-35900000D03*
%TO.N,3.3v*%
X113025000Y-25000000D03*
%TO.N,Net-(D2-Pad1)*%
X123025000Y-30700000D03*
%TO.N,GND*%
X116825000Y-30700000D03*
%TO.N,Net-(D2-Pad2)*%
X123125000Y-32100000D03*
%TO.N,GND*%
X113725000Y-23300000D03*
%TO.N,3.3v*%
X113625000Y-39600000D03*
X118425000Y-22600000D03*
%TO.N,GND*%
X114625000Y-40700000D03*
%TO.N,3.3v*%
X121225000Y-29500000D03*
%TO.N,GND*%
X108925000Y-27900000D03*
X116525000Y-35600000D03*
%TO.N,Hall Switch*%
X117625000Y-40100000D03*
%TO.N,ForceOn*%
X116625000Y-39000000D03*
%TO.N,PGM_RST*%
X116525000Y-33500000D03*
%TO.N,P-Switch*%
X115625000Y-39000000D03*
D20*
%TO.N,GND*%
X30700000Y-52300000D03*
D21*
X40100000Y-70000000D03*
X95328600Y-33400000D03*
X93300000Y-62700000D03*
X92024999Y-70000000D03*
X64725000Y-25900000D03*
X79750000Y-30400000D03*
D20*
X43800000Y-27100000D03*
X22500000Y-36200000D03*
X41800000Y-75300000D03*
D21*
X44275000Y-53975000D03*
X83950000Y-32450000D03*
D20*
X50800000Y-27100000D03*
D21*
X95303600Y-69350002D03*
X61200000Y-36100000D03*
X67550000Y-40300000D03*
X78850000Y-37050000D03*
D20*
X29800000Y-27100000D03*
X36800000Y-27200000D03*
D21*
X45700000Y-61400000D03*
X79250000Y-61425000D03*
X61900000Y-30200000D03*
X85725000Y-72975000D03*
D19*
X48850000Y-50100000D03*
D21*
X84950000Y-38325000D03*
X73550000Y-39800000D03*
X75900000Y-26900000D03*
%TO.N,+3.3V*%
X73550000Y-37950000D03*
X58200000Y-31000000D03*
X60475000Y-54125000D03*
X66500000Y-39300000D03*
X74900000Y-59050000D03*
X60425000Y-57587500D03*
X51375000Y-54450000D03*
X63700000Y-27100000D03*
X59050000Y-69350000D03*
X85425000Y-33800000D03*
%TO.N,AIN 2*%
X76900000Y-26950000D03*
%TO.N,Net-(U5-AIN0)*%
X82191268Y-35583732D03*
%TO.N,VIN*%
X25925000Y-66700000D03*
X25925000Y-67500000D03*
X26625000Y-67500000D03*
X27325000Y-68300000D03*
X26625000Y-68300000D03*
X26625000Y-66700000D03*
X27325000Y-67500000D03*
X25925000Y-68300000D03*
X26625000Y-69100000D03*
X27325000Y-66700000D03*
X27325000Y-69100000D03*
X25925000Y-69100000D03*
%TO.N,Net-(D1-A)*%
X22100000Y-69100000D03*
%TO.N,Vin SW*%
X23425000Y-61700000D03*
X24425000Y-63600000D03*
X25425000Y-62600000D03*
X26425000Y-62600000D03*
X22325000Y-59900000D03*
X26425000Y-61700000D03*
X24425000Y-61700000D03*
X25425000Y-63600000D03*
X24425000Y-62600000D03*
X22325000Y-63600000D03*
X26425000Y-59000000D03*
X23425000Y-60800000D03*
X26425000Y-60800000D03*
X22325000Y-62600000D03*
X26425000Y-63600000D03*
X25425000Y-61700000D03*
X25425000Y-59000000D03*
X22325000Y-59000000D03*
X23425000Y-63600000D03*
X25425000Y-60800000D03*
X24425000Y-60800000D03*
X23425000Y-62600000D03*
X22325000Y-61700000D03*
X23425000Y-59000000D03*
X26425000Y-59900000D03*
X25425000Y-59900000D03*
X23425000Y-59900000D03*
X22325000Y-60800000D03*
X24425000Y-59900000D03*
X24425000Y-59000000D03*
D19*
%TO.N,Net-(D2-A)*%
X33900000Y-46000000D03*
D21*
%TO.N,SCL*%
X70650000Y-37300000D03*
X53900000Y-60447780D03*
X45600000Y-52200000D03*
%TO.N,SDA*%
X45950000Y-57650000D03*
X70650000Y-38300000D03*
X54800000Y-61575000D03*
%TO.N,Net-(U4-A1)*%
X49400000Y-58800000D03*
X43000000Y-55400000D03*
%TO.N,5V SW*%
X50400000Y-34400000D03*
%TO.N,Strobe Trig Out*%
X68850000Y-34550000D03*
%TO.N,Strobe EN OUT*%
X64700000Y-32750000D03*
%TO.N,P Switch*%
X60775000Y-26555000D03*
%TO.N,Status LED+*%
X61725000Y-26000000D03*
%TO.N,Force On*%
X59700000Y-27250000D03*
%TO.N,CAM1 GPIO 1*%
X89825000Y-32400000D03*
%TO.N,CAM 1 GPIO 2*%
X89850000Y-30350000D03*
%TO.N,+5V_MCU*%
X55800000Y-34575000D03*
X47300000Y-33000000D03*
%TO.N,PCTx1*%
X79046801Y-69138118D03*
%TO.N,PCRx1*%
X79700000Y-69600000D03*
%TO.N,ExtRx2*%
X85025000Y-67775000D03*
%TO.N,ExtTx2*%
X91025000Y-70250000D03*
%TO.N,ext_uCTx*%
X75625000Y-67775000D03*
%TO.N,ext_uCRx*%
X74725000Y-69025000D03*
%TO.N,Status LED-*%
X62699999Y-26000000D03*
%TD*%
%TA.AperFunction,Conductor*%
%TO.N,GND*%
G36*
X97830607Y-20520185D02*
G01*
X97876362Y-20572989D01*
X97886306Y-20642147D01*
X97857281Y-20705703D01*
X97804523Y-20741541D01*
X97713288Y-20773465D01*
X97389420Y-20929432D01*
X97085045Y-21120684D01*
X96803997Y-21344811D01*
X96549811Y-21598997D01*
X96325684Y-21880045D01*
X96134432Y-22184420D01*
X95978465Y-22508288D01*
X95859741Y-22847580D01*
X95859737Y-22847592D01*
X95779748Y-23198048D01*
X95779746Y-23198064D01*
X95739500Y-23555259D01*
X95739500Y-23914740D01*
X95779746Y-24271935D01*
X95779748Y-24271951D01*
X95859737Y-24622407D01*
X95859741Y-24622419D01*
X95978465Y-24961711D01*
X96134432Y-25285579D01*
X96134434Y-25285582D01*
X96325685Y-25589956D01*
X96549812Y-25871003D01*
X96803997Y-26125188D01*
X97085044Y-26349315D01*
X97389418Y-26540566D01*
X97713292Y-26696536D01*
X97921020Y-26769223D01*
X98052580Y-26815258D01*
X98052592Y-26815262D01*
X98403052Y-26895252D01*
X98760260Y-26935499D01*
X98760261Y-26935500D01*
X98760264Y-26935500D01*
X99119739Y-26935500D01*
X99119739Y-26935499D01*
X99476948Y-26895252D01*
X99827408Y-26815262D01*
X100166708Y-26696536D01*
X100490582Y-26540566D01*
X100794956Y-26349315D01*
X101076003Y-26125188D01*
X101330188Y-25871003D01*
X101554315Y-25589956D01*
X101745566Y-25285582D01*
X101901536Y-24961708D01*
X102020262Y-24622408D01*
X102100252Y-24271948D01*
X102140500Y-23914736D01*
X102140500Y-23555264D01*
X102100252Y-23198052D01*
X102020262Y-22847592D01*
X101901536Y-22508292D01*
X101745566Y-22184418D01*
X101554315Y-21880044D01*
X101330188Y-21598997D01*
X101076003Y-21344812D01*
X100794956Y-21120685D01*
X100490582Y-20929434D01*
X100490579Y-20929432D01*
X100166711Y-20773465D01*
X100075477Y-20741541D01*
X100018701Y-20700820D01*
X99992954Y-20635867D01*
X100006410Y-20567305D01*
X100054798Y-20516903D01*
X100116432Y-20500500D01*
X102476351Y-20500500D01*
X102543390Y-20520185D01*
X102589145Y-20572989D01*
X102600350Y-20624444D01*
X102611363Y-46526447D01*
X102624904Y-78375447D01*
X102605248Y-78442495D01*
X102552463Y-78488272D01*
X102500904Y-78499500D01*
X100454650Y-78499500D01*
X100387611Y-78479815D01*
X100341856Y-78427011D01*
X100331912Y-78357853D01*
X100360937Y-78294297D01*
X100400848Y-78263780D01*
X100432645Y-78248466D01*
X100490582Y-78220566D01*
X100794956Y-78029315D01*
X101076003Y-77805188D01*
X101330188Y-77551003D01*
X101554315Y-77269956D01*
X101745566Y-76965582D01*
X101901536Y-76641708D01*
X102020262Y-76302408D01*
X102100252Y-75951948D01*
X102140500Y-75594736D01*
X102140500Y-75235264D01*
X102100252Y-74878052D01*
X102020262Y-74527592D01*
X101901536Y-74188292D01*
X101745566Y-73864418D01*
X101554315Y-73560044D01*
X101330188Y-73278997D01*
X101076003Y-73024812D01*
X100794956Y-72800685D01*
X100490582Y-72609434D01*
X100490579Y-72609432D01*
X100166711Y-72453465D01*
X99827419Y-72334741D01*
X99827407Y-72334737D01*
X99476951Y-72254748D01*
X99476935Y-72254746D01*
X99119740Y-72214500D01*
X99119736Y-72214500D01*
X98760264Y-72214500D01*
X98760259Y-72214500D01*
X98403064Y-72254746D01*
X98403048Y-72254748D01*
X98052592Y-72334737D01*
X98052580Y-72334741D01*
X97713288Y-72453465D01*
X97389420Y-72609432D01*
X97085045Y-72800684D01*
X96803997Y-73024811D01*
X96549811Y-73278997D01*
X96325684Y-73560045D01*
X96134432Y-73864420D01*
X95978465Y-74188288D01*
X95859741Y-74527580D01*
X95859737Y-74527592D01*
X95779748Y-74878048D01*
X95779746Y-74878064D01*
X95739500Y-75235259D01*
X95739500Y-75594740D01*
X95779746Y-75951935D01*
X95779748Y-75951951D01*
X95859737Y-76302407D01*
X95859741Y-76302419D01*
X95978465Y-76641711D01*
X96134432Y-76965579D01*
X96134434Y-76965582D01*
X96325685Y-77269956D01*
X96456592Y-77434108D01*
X96509138Y-77500000D01*
X96549812Y-77551003D01*
X96803997Y-77805188D01*
X97085044Y-78029315D01*
X97265123Y-78142466D01*
X97389420Y-78220567D01*
X97479152Y-78263780D01*
X97531011Y-78310602D01*
X97549324Y-78378030D01*
X97528276Y-78444654D01*
X97474550Y-78489322D01*
X97425350Y-78499500D01*
X24914650Y-78499500D01*
X24847611Y-78479815D01*
X24801856Y-78427011D01*
X24791912Y-78357853D01*
X24820937Y-78294297D01*
X24860848Y-78263780D01*
X24892645Y-78248466D01*
X24950582Y-78220566D01*
X25254956Y-78029315D01*
X25536003Y-77805188D01*
X25790188Y-77551003D01*
X26014315Y-77269956D01*
X26205566Y-76965582D01*
X26361536Y-76641708D01*
X26480262Y-76302408D01*
X26560252Y-75951948D01*
X26600500Y-75594736D01*
X26600500Y-75235264D01*
X26560252Y-74878052D01*
X26480262Y-74527592D01*
X26361536Y-74188292D01*
X26205566Y-73864418D01*
X26014315Y-73560044D01*
X25790188Y-73278997D01*
X25536003Y-73024812D01*
X25254956Y-72800685D01*
X24950582Y-72609434D01*
X24950579Y-72609432D01*
X24914311Y-72591966D01*
X28249500Y-72591966D01*
X28249500Y-76208028D01*
X28249501Y-76208034D01*
X28260113Y-76327415D01*
X28316089Y-76523045D01*
X28316090Y-76523048D01*
X28316091Y-76523049D01*
X28410302Y-76703407D01*
X28410304Y-76703409D01*
X28538890Y-76861109D01*
X28632803Y-76937684D01*
X28696593Y-76989698D01*
X28876951Y-77083909D01*
X29072582Y-77139886D01*
X29191963Y-77150500D01*
X31808036Y-77150499D01*
X31927418Y-77139886D01*
X32123049Y-77083909D01*
X32303407Y-76989698D01*
X32461109Y-76861109D01*
X32589698Y-76703407D01*
X32683909Y-76523049D01*
X32739886Y-76327418D01*
X32750500Y-76208037D01*
X32750499Y-72888713D01*
X55134500Y-72888713D01*
X55134500Y-73101286D01*
X55167753Y-73311239D01*
X55233444Y-73513414D01*
X55329951Y-73702820D01*
X55454890Y-73874786D01*
X55605213Y-74025109D01*
X55777179Y-74150048D01*
X55777181Y-74150049D01*
X55777184Y-74150051D01*
X55966588Y-74246557D01*
X56168757Y-74312246D01*
X56378713Y-74345500D01*
X56378714Y-74345500D01*
X56591286Y-74345500D01*
X56591287Y-74345500D01*
X56801243Y-74312246D01*
X57003412Y-74246557D01*
X57192816Y-74150051D01*
X57285816Y-74082483D01*
X57364786Y-74025109D01*
X57364788Y-74025106D01*
X57364792Y-74025104D01*
X57515104Y-73874792D01*
X57515106Y-73874788D01*
X57515109Y-73874786D01*
X57640048Y-73702820D01*
X57640047Y-73702820D01*
X57640051Y-73702816D01*
X57736557Y-73513412D01*
X57802246Y-73311243D01*
X57835500Y-73101287D01*
X57835500Y-72888713D01*
X57802246Y-72678757D01*
X57736557Y-72476588D01*
X57640051Y-72287184D01*
X57640049Y-72287181D01*
X57640048Y-72287179D01*
X57515109Y-72115213D01*
X57364786Y-71964890D01*
X57192820Y-71839951D01*
X57003414Y-71743444D01*
X57003413Y-71743443D01*
X57003412Y-71743443D01*
X56801243Y-71677754D01*
X56801241Y-71677753D01*
X56801240Y-71677753D01*
X56639957Y-71652208D01*
X56591287Y-71644500D01*
X56378713Y-71644500D01*
X56330042Y-71652208D01*
X56168760Y-71677753D01*
X56168757Y-71677754D01*
X55977028Y-71740051D01*
X55966585Y-71743444D01*
X55777179Y-71839951D01*
X55605213Y-71964890D01*
X55454890Y-72115213D01*
X55329951Y-72287179D01*
X55233444Y-72476585D01*
X55167753Y-72678760D01*
X55134500Y-72888713D01*
X32750499Y-72888713D01*
X32750499Y-72591964D01*
X32739886Y-72472582D01*
X32683909Y-72276951D01*
X32589698Y-72096593D01*
X32537571Y-72032664D01*
X32461109Y-71938890D01*
X32303409Y-71810304D01*
X32303410Y-71810304D01*
X32303407Y-71810302D01*
X32123049Y-71716091D01*
X32123048Y-71716090D01*
X32123045Y-71716089D01*
X31989067Y-71677754D01*
X31927418Y-71660114D01*
X31927415Y-71660113D01*
X31927413Y-71660113D01*
X31861102Y-71654217D01*
X31808037Y-71649500D01*
X31808032Y-71649500D01*
X29191971Y-71649500D01*
X29191965Y-71649500D01*
X29191964Y-71649501D01*
X29180316Y-71650536D01*
X29072584Y-71660113D01*
X28876954Y-71716089D01*
X28824588Y-71743443D01*
X28696593Y-71810302D01*
X28696591Y-71810303D01*
X28696590Y-71810304D01*
X28538890Y-71938890D01*
X28410304Y-72096590D01*
X28410302Y-72096593D01*
X28363196Y-72186772D01*
X28316089Y-72276954D01*
X28260114Y-72472583D01*
X28260113Y-72472586D01*
X28249500Y-72591966D01*
X24914311Y-72591966D01*
X24626711Y-72453465D01*
X24287419Y-72334741D01*
X24287407Y-72334737D01*
X23936951Y-72254748D01*
X23936935Y-72254746D01*
X23579740Y-72214500D01*
X23579736Y-72214500D01*
X23220264Y-72214500D01*
X23220259Y-72214500D01*
X22863064Y-72254746D01*
X22863048Y-72254748D01*
X22512592Y-72334737D01*
X22512580Y-72334741D01*
X22173288Y-72453465D01*
X21849420Y-72609432D01*
X21545045Y-72800684D01*
X21263997Y-73024811D01*
X21009811Y-73278997D01*
X20785684Y-73560045D01*
X20729494Y-73649471D01*
X20677159Y-73695762D01*
X20608106Y-73706410D01*
X20544257Y-73678035D01*
X20505885Y-73619645D01*
X20500500Y-73583499D01*
X20500500Y-69025585D01*
X21344500Y-69025585D01*
X21344500Y-69174414D01*
X21373530Y-69320363D01*
X21373533Y-69320372D01*
X21430480Y-69457857D01*
X21430487Y-69457870D01*
X21513163Y-69581602D01*
X21513166Y-69581606D01*
X21618393Y-69686833D01*
X21618397Y-69686836D01*
X21742129Y-69769512D01*
X21742142Y-69769519D01*
X21834152Y-69807630D01*
X21879629Y-69826467D01*
X21879631Y-69826467D01*
X21879636Y-69826469D01*
X22025585Y-69855499D01*
X22025589Y-69855500D01*
X22025590Y-69855500D01*
X22174411Y-69855500D01*
X22174412Y-69855499D01*
X22223063Y-69845822D01*
X22320363Y-69826469D01*
X22320366Y-69826467D01*
X22320371Y-69826467D01*
X22457864Y-69769516D01*
X22581603Y-69686836D01*
X22686836Y-69581603D01*
X22769516Y-69457864D01*
X22826467Y-69320371D01*
X22827536Y-69315000D01*
X22855499Y-69174414D01*
X22855500Y-69174411D01*
X22855500Y-69025589D01*
X22855499Y-69025585D01*
X22826469Y-68879636D01*
X22826466Y-68879627D01*
X22821814Y-68868397D01*
X22795401Y-68804629D01*
X22769519Y-68742142D01*
X22769512Y-68742129D01*
X22686836Y-68618397D01*
X22686833Y-68618393D01*
X22581606Y-68513166D01*
X22581602Y-68513163D01*
X22457870Y-68430487D01*
X22457857Y-68430480D01*
X22320372Y-68373533D01*
X22320363Y-68373530D01*
X22174414Y-68344500D01*
X22174410Y-68344500D01*
X22025590Y-68344500D01*
X22025585Y-68344500D01*
X21879636Y-68373530D01*
X21879627Y-68373533D01*
X21742142Y-68430480D01*
X21742129Y-68430487D01*
X21618397Y-68513163D01*
X21618393Y-68513166D01*
X21513166Y-68618393D01*
X21513163Y-68618397D01*
X21430487Y-68742129D01*
X21430480Y-68742142D01*
X21373533Y-68879627D01*
X21373530Y-68879636D01*
X21344500Y-69025585D01*
X20500500Y-69025585D01*
X20500500Y-66625585D01*
X25169500Y-66625585D01*
X25169500Y-66774414D01*
X25192482Y-66889951D01*
X25198533Y-66920371D01*
X25250940Y-67046894D01*
X25253282Y-67052548D01*
X25260750Y-67122018D01*
X25253281Y-67147452D01*
X25198533Y-67279629D01*
X25198532Y-67279633D01*
X25198531Y-67279636D01*
X25198530Y-67279636D01*
X25169500Y-67425585D01*
X25169500Y-67574414D01*
X25194597Y-67700585D01*
X25198533Y-67720371D01*
X25250940Y-67846894D01*
X25253282Y-67852548D01*
X25260750Y-67922018D01*
X25253281Y-67947452D01*
X25198533Y-68079629D01*
X25198532Y-68079633D01*
X25198531Y-68079636D01*
X25198530Y-68079636D01*
X25169500Y-68225585D01*
X25169500Y-68374414D01*
X25198531Y-68520363D01*
X25198533Y-68520371D01*
X25241263Y-68623530D01*
X25253282Y-68652548D01*
X25260750Y-68722018D01*
X25253281Y-68747452D01*
X25198533Y-68879629D01*
X25198532Y-68879633D01*
X25198531Y-68879636D01*
X25198530Y-68879636D01*
X25169500Y-69025585D01*
X25169500Y-69174414D01*
X25198530Y-69320363D01*
X25198533Y-69320372D01*
X25255480Y-69457857D01*
X25255487Y-69457870D01*
X25338163Y-69581602D01*
X25338166Y-69581606D01*
X25443393Y-69686833D01*
X25443397Y-69686836D01*
X25567129Y-69769512D01*
X25567142Y-69769519D01*
X25659152Y-69807630D01*
X25704629Y-69826467D01*
X25704631Y-69826467D01*
X25704636Y-69826469D01*
X25850585Y-69855499D01*
X25850589Y-69855500D01*
X25850590Y-69855500D01*
X25999411Y-69855500D01*
X25999412Y-69855499D01*
X26145371Y-69826467D01*
X26227549Y-69792427D01*
X26297016Y-69784959D01*
X26322447Y-69792426D01*
X26404629Y-69826467D01*
X26550585Y-69855499D01*
X26550589Y-69855500D01*
X26550590Y-69855500D01*
X26699411Y-69855500D01*
X26699412Y-69855499D01*
X26845371Y-69826467D01*
X26927549Y-69792427D01*
X26997016Y-69784959D01*
X27022447Y-69792426D01*
X27104629Y-69826467D01*
X27250585Y-69855499D01*
X27250589Y-69855500D01*
X27250590Y-69855500D01*
X27399411Y-69855500D01*
X27399412Y-69855499D01*
X27448063Y-69845822D01*
X27545363Y-69826469D01*
X27545366Y-69826467D01*
X27545371Y-69826467D01*
X27682864Y-69769516D01*
X27806603Y-69686836D01*
X27911836Y-69581603D01*
X27994516Y-69457864D01*
X28051467Y-69320371D01*
X28060375Y-69275585D01*
X58294500Y-69275585D01*
X58294500Y-69424414D01*
X58323530Y-69570363D01*
X58323533Y-69570372D01*
X58380480Y-69707857D01*
X58380487Y-69707870D01*
X58463163Y-69831602D01*
X58463166Y-69831606D01*
X58568393Y-69936833D01*
X58568397Y-69936836D01*
X58692129Y-70019512D01*
X58692142Y-70019519D01*
X58795255Y-70062229D01*
X58829629Y-70076467D01*
X58829631Y-70076467D01*
X58829636Y-70076469D01*
X58975585Y-70105499D01*
X58975589Y-70105500D01*
X58975590Y-70105500D01*
X59124411Y-70105500D01*
X59124412Y-70105499D01*
X59173063Y-70095822D01*
X59270363Y-70076469D01*
X59270366Y-70076467D01*
X59270371Y-70076467D01*
X59407864Y-70019516D01*
X59531603Y-69936836D01*
X59636836Y-69831603D01*
X59719516Y-69707864D01*
X59776467Y-69570371D01*
X59779547Y-69554890D01*
X59805499Y-69424414D01*
X59805500Y-69424411D01*
X59805500Y-69275589D01*
X59805499Y-69275585D01*
X59776469Y-69129636D01*
X59776466Y-69129627D01*
X59771814Y-69118397D01*
X59728226Y-69013163D01*
X59719519Y-68992142D01*
X59719512Y-68992129D01*
X59636836Y-68868397D01*
X59636833Y-68868393D01*
X59531606Y-68763166D01*
X59531602Y-68763163D01*
X59407870Y-68680487D01*
X59407857Y-68680480D01*
X59270372Y-68623533D01*
X59270363Y-68623530D01*
X59124414Y-68594500D01*
X59124410Y-68594500D01*
X58975590Y-68594500D01*
X58975585Y-68594500D01*
X58829636Y-68623530D01*
X58829627Y-68623533D01*
X58692142Y-68680480D01*
X58692129Y-68680487D01*
X58568397Y-68763163D01*
X58568393Y-68763166D01*
X58463166Y-68868393D01*
X58463163Y-68868397D01*
X58380487Y-68992129D01*
X58380480Y-68992142D01*
X58323533Y-69129627D01*
X58323530Y-69129636D01*
X58294500Y-69275585D01*
X28060375Y-69275585D01*
X28080500Y-69174410D01*
X28080500Y-69025590D01*
X28065581Y-68950585D01*
X28051469Y-68879636D01*
X28051466Y-68879627D01*
X28046814Y-68868397D01*
X27996718Y-68747452D01*
X27989249Y-68677983D01*
X27996718Y-68652548D01*
X28020762Y-68594500D01*
X28051467Y-68520371D01*
X28052901Y-68513166D01*
X28080499Y-68374414D01*
X28080500Y-68374411D01*
X28080500Y-68225589D01*
X28080499Y-68225585D01*
X28051469Y-68079636D01*
X28051466Y-68079627D01*
X28010754Y-67981339D01*
X27996716Y-67947448D01*
X27995777Y-67938713D01*
X70374500Y-67938713D01*
X70374500Y-68151286D01*
X70397821Y-68298533D01*
X70407754Y-68361243D01*
X70469502Y-68551284D01*
X70473444Y-68563414D01*
X70569951Y-68752820D01*
X70694890Y-68924786D01*
X70845213Y-69075109D01*
X71017182Y-69200050D01*
X71025946Y-69204516D01*
X71076742Y-69252491D01*
X71093536Y-69320312D01*
X71070998Y-69386447D01*
X71025946Y-69425484D01*
X71017182Y-69429949D01*
X70845213Y-69554890D01*
X70694890Y-69705213D01*
X70569951Y-69877179D01*
X70473444Y-70066585D01*
X70407753Y-70268760D01*
X70375821Y-70470371D01*
X70374500Y-70478713D01*
X70374500Y-70691287D01*
X70407754Y-70901243D01*
X70441629Y-71005500D01*
X70473444Y-71103414D01*
X70569951Y-71292820D01*
X70694890Y-71464786D01*
X70808430Y-71578326D01*
X70841915Y-71639649D01*
X70836931Y-71709341D01*
X70795059Y-71765274D01*
X70764083Y-71782189D01*
X70632669Y-71831203D01*
X70632664Y-71831206D01*
X70517455Y-71917452D01*
X70517452Y-71917455D01*
X70431206Y-72032664D01*
X70431202Y-72032671D01*
X70380908Y-72167517D01*
X70374501Y-72227116D01*
X70374501Y-72227123D01*
X70374500Y-72227135D01*
X70374500Y-74022870D01*
X70374501Y-74022876D01*
X70380908Y-74082483D01*
X70431202Y-74217328D01*
X70431206Y-74217335D01*
X70517452Y-74332544D01*
X70517455Y-74332547D01*
X70632664Y-74418793D01*
X70632671Y-74418797D01*
X70767517Y-74469091D01*
X70767516Y-74469091D01*
X70774444Y-74469835D01*
X70827127Y-74475500D01*
X72622872Y-74475499D01*
X72682483Y-74469091D01*
X72817331Y-74418796D01*
X72932546Y-74332546D01*
X73018796Y-74217331D01*
X73069091Y-74082483D01*
X73075500Y-74022873D01*
X73075499Y-72227128D01*
X73069091Y-72167517D01*
X73018796Y-72032669D01*
X73018795Y-72032668D01*
X73018793Y-72032664D01*
X72932547Y-71917455D01*
X72932544Y-71917452D01*
X72817335Y-71831206D01*
X72817328Y-71831202D01*
X72685917Y-71782189D01*
X72629983Y-71740318D01*
X72605566Y-71674853D01*
X72620418Y-71606580D01*
X72641563Y-71578332D01*
X72755104Y-71464792D01*
X72880051Y-71292816D01*
X72976557Y-71103412D01*
X73042246Y-70901243D01*
X73075500Y-70691287D01*
X73075500Y-70478713D01*
X73042246Y-70268757D01*
X72976557Y-70066588D01*
X72880051Y-69877184D01*
X72880049Y-69877181D01*
X72880048Y-69877179D01*
X72755109Y-69705213D01*
X72604786Y-69554890D01*
X72432820Y-69429951D01*
X72432115Y-69429591D01*
X72424054Y-69425485D01*
X72373259Y-69377512D01*
X72356463Y-69309692D01*
X72378999Y-69243556D01*
X72424054Y-69204515D01*
X72432816Y-69200051D01*
X72529735Y-69129636D01*
X72604786Y-69075109D01*
X72604788Y-69075106D01*
X72604792Y-69075104D01*
X72729311Y-68950585D01*
X73969500Y-68950585D01*
X73969500Y-69099414D01*
X73998530Y-69245363D01*
X73998533Y-69245372D01*
X74055480Y-69382857D01*
X74055487Y-69382870D01*
X74138163Y-69506602D01*
X74138166Y-69506606D01*
X74243393Y-69611833D01*
X74243397Y-69611836D01*
X74367129Y-69694512D01*
X74367142Y-69694519D01*
X74440613Y-69724951D01*
X74504629Y-69751467D01*
X74504631Y-69751467D01*
X74504636Y-69751469D01*
X74650585Y-69780499D01*
X74650589Y-69780500D01*
X74650590Y-69780500D01*
X74799411Y-69780500D01*
X74799412Y-69780499D01*
X74860277Y-69768393D01*
X74945363Y-69751469D01*
X74945366Y-69751467D01*
X74945371Y-69751467D01*
X75082864Y-69694516D01*
X75206603Y-69611836D01*
X75311836Y-69506603D01*
X75394516Y-69382864D01*
X75451467Y-69245371D01*
X75452110Y-69242142D01*
X75474489Y-69129629D01*
X75480500Y-69099410D01*
X75480500Y-69063703D01*
X78291301Y-69063703D01*
X78291301Y-69212532D01*
X78320331Y-69358481D01*
X78320334Y-69358490D01*
X78377281Y-69495975D01*
X78377288Y-69495988D01*
X78459964Y-69619720D01*
X78459967Y-69619724D01*
X78565194Y-69724951D01*
X78565198Y-69724954D01*
X78688930Y-69807630D01*
X78688943Y-69807637D01*
X78734409Y-69826469D01*
X78826430Y-69864585D01*
X78941694Y-69887512D01*
X79003604Y-69919896D01*
X79026294Y-69953203D01*
X79027616Y-69952498D01*
X79030485Y-69957867D01*
X79113163Y-70081602D01*
X79113166Y-70081606D01*
X79218393Y-70186833D01*
X79218397Y-70186836D01*
X79342129Y-70269512D01*
X79342142Y-70269519D01*
X79445255Y-70312229D01*
X79479629Y-70326467D01*
X79479631Y-70326467D01*
X79479636Y-70326469D01*
X79625585Y-70355499D01*
X79625589Y-70355500D01*
X79625590Y-70355500D01*
X79774411Y-70355500D01*
X79774412Y-70355499D01*
X79823063Y-70345822D01*
X79920363Y-70326469D01*
X79920366Y-70326467D01*
X79920371Y-70326467D01*
X80057864Y-70269516D01*
X80181603Y-70186836D01*
X80192854Y-70175585D01*
X90269500Y-70175585D01*
X90269500Y-70324414D01*
X90298530Y-70470363D01*
X90298533Y-70470372D01*
X90355480Y-70607857D01*
X90355487Y-70607870D01*
X90438163Y-70731602D01*
X90438166Y-70731606D01*
X90543393Y-70836833D01*
X90543397Y-70836836D01*
X90667129Y-70919512D01*
X90667142Y-70919519D01*
X90770255Y-70962229D01*
X90804629Y-70976467D01*
X90804631Y-70976467D01*
X90804636Y-70976469D01*
X90950585Y-71005499D01*
X90950589Y-71005500D01*
X90950590Y-71005500D01*
X91099411Y-71005500D01*
X91099412Y-71005499D01*
X91148063Y-70995822D01*
X91245363Y-70976469D01*
X91245366Y-70976467D01*
X91245371Y-70976467D01*
X91382864Y-70919516D01*
X91506603Y-70836836D01*
X91611836Y-70731603D01*
X91694516Y-70607864D01*
X91751467Y-70470371D01*
X91780500Y-70324410D01*
X91780500Y-70175590D01*
X91780240Y-70174286D01*
X91751469Y-70029636D01*
X91751466Y-70029627D01*
X91694519Y-69892142D01*
X91694512Y-69892129D01*
X91611836Y-69768397D01*
X91611833Y-69768393D01*
X91506606Y-69663166D01*
X91506602Y-69663163D01*
X91382870Y-69580487D01*
X91382857Y-69580480D01*
X91245372Y-69523533D01*
X91245363Y-69523530D01*
X91099414Y-69494500D01*
X91099410Y-69494500D01*
X90950590Y-69494500D01*
X90950585Y-69494500D01*
X90804636Y-69523530D01*
X90804627Y-69523533D01*
X90667142Y-69580480D01*
X90667129Y-69580487D01*
X90543397Y-69663163D01*
X90543393Y-69663166D01*
X90438166Y-69768393D01*
X90438163Y-69768397D01*
X90355487Y-69892129D01*
X90355480Y-69892142D01*
X90298533Y-70029627D01*
X90298530Y-70029636D01*
X90269500Y-70175585D01*
X80192854Y-70175585D01*
X80286623Y-70081817D01*
X80286833Y-70081606D01*
X80286836Y-70081603D01*
X80369516Y-69957864D01*
X80426467Y-69820371D01*
X80429002Y-69807630D01*
X80451501Y-69694516D01*
X80455500Y-69674410D01*
X80455500Y-69525590D01*
X80442029Y-69457864D01*
X80426469Y-69379636D01*
X80426466Y-69379627D01*
X80369519Y-69242142D01*
X80369512Y-69242129D01*
X80286836Y-69118397D01*
X80286833Y-69118393D01*
X80181606Y-69013166D01*
X80181602Y-69013163D01*
X80057870Y-68930487D01*
X80057857Y-68930480D01*
X79920372Y-68873533D01*
X79920363Y-68873530D01*
X79805107Y-68850605D01*
X79743196Y-68818220D01*
X79720511Y-68784911D01*
X79719185Y-68785620D01*
X79716315Y-68780250D01*
X79633637Y-68656515D01*
X79633634Y-68656511D01*
X79528407Y-68551284D01*
X79528403Y-68551281D01*
X79404671Y-68468605D01*
X79404658Y-68468598D01*
X79267173Y-68411651D01*
X79267164Y-68411648D01*
X79121215Y-68382618D01*
X79121211Y-68382618D01*
X78972391Y-68382618D01*
X78972386Y-68382618D01*
X78826437Y-68411648D01*
X78826428Y-68411651D01*
X78688943Y-68468598D01*
X78688930Y-68468605D01*
X78565198Y-68551281D01*
X78565194Y-68551284D01*
X78459967Y-68656511D01*
X78459964Y-68656515D01*
X78377288Y-68780247D01*
X78377281Y-68780260D01*
X78320334Y-68917745D01*
X78320331Y-68917754D01*
X78291301Y-69063703D01*
X75480500Y-69063703D01*
X75480500Y-68950590D01*
X75464151Y-68868397D01*
X75451469Y-68804636D01*
X75451466Y-68804627D01*
X75443299Y-68784911D01*
X75407601Y-68698726D01*
X75400132Y-68629257D01*
X75431408Y-68566778D01*
X75491497Y-68531126D01*
X75546357Y-68529658D01*
X75550590Y-68530500D01*
X75550593Y-68530500D01*
X75699411Y-68530500D01*
X75699412Y-68530499D01*
X75750373Y-68520363D01*
X75845363Y-68501469D01*
X75845366Y-68501467D01*
X75845371Y-68501467D01*
X75982864Y-68444516D01*
X76106603Y-68361836D01*
X76211836Y-68256603D01*
X76294516Y-68132864D01*
X76351467Y-67995371D01*
X76354268Y-67981293D01*
X76380499Y-67849414D01*
X76380500Y-67849411D01*
X76380500Y-67700589D01*
X76380499Y-67700585D01*
X84269500Y-67700585D01*
X84269500Y-67849414D01*
X84298530Y-67995363D01*
X84298533Y-67995372D01*
X84355480Y-68132857D01*
X84355487Y-68132870D01*
X84438163Y-68256602D01*
X84438166Y-68256606D01*
X84543393Y-68361833D01*
X84543397Y-68361836D01*
X84667129Y-68444512D01*
X84667142Y-68444519D01*
X84725285Y-68468602D01*
X84804629Y-68501467D01*
X84804631Y-68501467D01*
X84804636Y-68501469D01*
X84950585Y-68530499D01*
X84950589Y-68530500D01*
X84950590Y-68530500D01*
X85099411Y-68530500D01*
X85099412Y-68530499D01*
X85150373Y-68520363D01*
X85245363Y-68501469D01*
X85245366Y-68501467D01*
X85245371Y-68501467D01*
X85382864Y-68444516D01*
X85506603Y-68361836D01*
X85611836Y-68256603D01*
X85694516Y-68132864D01*
X85751467Y-67995371D01*
X85754268Y-67981293D01*
X85780499Y-67849414D01*
X85780500Y-67849411D01*
X85780500Y-67700589D01*
X85780499Y-67700585D01*
X85751469Y-67554636D01*
X85751466Y-67554627D01*
X85694519Y-67417142D01*
X85694512Y-67417129D01*
X85611836Y-67293397D01*
X85611833Y-67293393D01*
X85506606Y-67188166D01*
X85506602Y-67188163D01*
X85382870Y-67105487D01*
X85382857Y-67105480D01*
X85245372Y-67048533D01*
X85245363Y-67048530D01*
X85099414Y-67019500D01*
X85099410Y-67019500D01*
X84950590Y-67019500D01*
X84950585Y-67019500D01*
X84804636Y-67048530D01*
X84804627Y-67048533D01*
X84667142Y-67105480D01*
X84667129Y-67105487D01*
X84543397Y-67188163D01*
X84543393Y-67188166D01*
X84438166Y-67293393D01*
X84438163Y-67293397D01*
X84355487Y-67417129D01*
X84355480Y-67417142D01*
X84298533Y-67554627D01*
X84298530Y-67554636D01*
X84269500Y-67700585D01*
X76380499Y-67700585D01*
X76351469Y-67554636D01*
X76351466Y-67554627D01*
X76294519Y-67417142D01*
X76294512Y-67417129D01*
X76211836Y-67293397D01*
X76211833Y-67293393D01*
X76106606Y-67188166D01*
X76106602Y-67188163D01*
X75982870Y-67105487D01*
X75982857Y-67105480D01*
X75845372Y-67048533D01*
X75845363Y-67048530D01*
X75699414Y-67019500D01*
X75699410Y-67019500D01*
X75550590Y-67019500D01*
X75550585Y-67019500D01*
X75404636Y-67048530D01*
X75404627Y-67048533D01*
X75267142Y-67105480D01*
X75267129Y-67105487D01*
X75143397Y-67188163D01*
X75143393Y-67188166D01*
X75038166Y-67293393D01*
X75038163Y-67293397D01*
X74955487Y-67417129D01*
X74955480Y-67417142D01*
X74898533Y-67554627D01*
X74898530Y-67554636D01*
X74869500Y-67700585D01*
X74869500Y-67849414D01*
X74898531Y-67995363D01*
X74898533Y-67995371D01*
X74942399Y-68101273D01*
X74949867Y-68170743D01*
X74918591Y-68233222D01*
X74858502Y-68268874D01*
X74803647Y-68270342D01*
X74799410Y-68269500D01*
X74650590Y-68269500D01*
X74650585Y-68269500D01*
X74504636Y-68298530D01*
X74504627Y-68298533D01*
X74367142Y-68355480D01*
X74367129Y-68355487D01*
X74243397Y-68438163D01*
X74243393Y-68438166D01*
X74138166Y-68543393D01*
X74138163Y-68543397D01*
X74055487Y-68667129D01*
X74055480Y-68667142D01*
X73998533Y-68804627D01*
X73998530Y-68804636D01*
X73969500Y-68950585D01*
X72729311Y-68950585D01*
X72755104Y-68924792D01*
X72760217Y-68917754D01*
X72793740Y-68871614D01*
X72793740Y-68871613D01*
X72880051Y-68752816D01*
X72976557Y-68563412D01*
X73042246Y-68361243D01*
X73075500Y-68151287D01*
X73075500Y-67938713D01*
X73042246Y-67728757D01*
X72976557Y-67526588D01*
X72880051Y-67337184D01*
X72880049Y-67337181D01*
X72880048Y-67337179D01*
X72755109Y-67165213D01*
X72604786Y-67014890D01*
X72432820Y-66889951D01*
X72243414Y-66793444D01*
X72243413Y-66793443D01*
X72243412Y-66793443D01*
X72041243Y-66727754D01*
X72041241Y-66727753D01*
X72041240Y-66727753D01*
X71879957Y-66702208D01*
X71831287Y-66694500D01*
X71618713Y-66694500D01*
X71570042Y-66702208D01*
X71408760Y-66727753D01*
X71206585Y-66793444D01*
X71017179Y-66889951D01*
X70845213Y-67014890D01*
X70694890Y-67165213D01*
X70569951Y-67337179D01*
X70473444Y-67526585D01*
X70407753Y-67728760D01*
X70374500Y-67938713D01*
X27995777Y-67938713D01*
X27989249Y-67877982D01*
X27996718Y-67852548D01*
X28047993Y-67728757D01*
X28051467Y-67720371D01*
X28080500Y-67574410D01*
X28080500Y-67425590D01*
X28078817Y-67417129D01*
X28051469Y-67279636D01*
X28051466Y-67279627D01*
X27996718Y-67147452D01*
X27989249Y-67077983D01*
X27996718Y-67052548D01*
X28012316Y-67014890D01*
X28051467Y-66920371D01*
X28080500Y-66774410D01*
X28080500Y-66625590D01*
X28080240Y-66624286D01*
X28051469Y-66479636D01*
X28051466Y-66479627D01*
X27994519Y-66342142D01*
X27994512Y-66342129D01*
X27911836Y-66218397D01*
X27911833Y-66218393D01*
X27806606Y-66113166D01*
X27806602Y-66113163D01*
X27682870Y-66030487D01*
X27682857Y-66030480D01*
X27545372Y-65973533D01*
X27545363Y-65973530D01*
X27399414Y-65944500D01*
X27399410Y-65944500D01*
X27250590Y-65944500D01*
X27250585Y-65944500D01*
X27104634Y-65973531D01*
X27104627Y-65973533D01*
X27022452Y-66007571D01*
X26952982Y-66015039D01*
X26927548Y-66007571D01*
X26845372Y-65973533D01*
X26845365Y-65973531D01*
X26699414Y-65944500D01*
X26699410Y-65944500D01*
X26550590Y-65944500D01*
X26550585Y-65944500D01*
X26404634Y-65973531D01*
X26404627Y-65973533D01*
X26322452Y-66007571D01*
X26252982Y-66015039D01*
X26227548Y-66007571D01*
X26145372Y-65973533D01*
X26145365Y-65973531D01*
X25999414Y-65944500D01*
X25999410Y-65944500D01*
X25850590Y-65944500D01*
X25850585Y-65944500D01*
X25704636Y-65973530D01*
X25704627Y-65973533D01*
X25567142Y-66030480D01*
X25567129Y-66030487D01*
X25443397Y-66113163D01*
X25443393Y-66113166D01*
X25338166Y-66218393D01*
X25338163Y-66218397D01*
X25255487Y-66342129D01*
X25255480Y-66342142D01*
X25198533Y-66479627D01*
X25198530Y-66479636D01*
X25169500Y-66625585D01*
X20500500Y-66625585D01*
X20500500Y-58925585D01*
X21569500Y-58925585D01*
X21569500Y-59074414D01*
X21598530Y-59220363D01*
X21598533Y-59220372D01*
X21655480Y-59357856D01*
X21655485Y-59357865D01*
X21671017Y-59381111D01*
X21691893Y-59447789D01*
X21673407Y-59515169D01*
X21671017Y-59518889D01*
X21655485Y-59542134D01*
X21655480Y-59542143D01*
X21598533Y-59679627D01*
X21598530Y-59679636D01*
X21569500Y-59825585D01*
X21569500Y-59974414D01*
X21598530Y-60120363D01*
X21598533Y-60120372D01*
X21655480Y-60257856D01*
X21655485Y-60257865D01*
X21671017Y-60281111D01*
X21691893Y-60347789D01*
X21673407Y-60415169D01*
X21671017Y-60418889D01*
X21655485Y-60442134D01*
X21655480Y-60442143D01*
X21598533Y-60579627D01*
X21598530Y-60579636D01*
X21569500Y-60725585D01*
X21569500Y-60874414D01*
X21598530Y-61020363D01*
X21598533Y-61020372D01*
X21655480Y-61157856D01*
X21655485Y-61157865D01*
X21671017Y-61181111D01*
X21691893Y-61247789D01*
X21673407Y-61315169D01*
X21671017Y-61318889D01*
X21655485Y-61342134D01*
X21655480Y-61342143D01*
X21598533Y-61479627D01*
X21598530Y-61479636D01*
X21569500Y-61625585D01*
X21569500Y-61774414D01*
X21598530Y-61920363D01*
X21598533Y-61920372D01*
X21655480Y-62057856D01*
X21655485Y-62057865D01*
X21671017Y-62081111D01*
X21691893Y-62147789D01*
X21673407Y-62215169D01*
X21671017Y-62218889D01*
X21655485Y-62242134D01*
X21655480Y-62242143D01*
X21598533Y-62379627D01*
X21598530Y-62379636D01*
X21569500Y-62525585D01*
X21569500Y-62674414D01*
X21598530Y-62820363D01*
X21598533Y-62820372D01*
X21655480Y-62957857D01*
X21655487Y-62957870D01*
X21704424Y-63031109D01*
X21725302Y-63097787D01*
X21706817Y-63165167D01*
X21704424Y-63168891D01*
X21655487Y-63242129D01*
X21655480Y-63242142D01*
X21598533Y-63379627D01*
X21598530Y-63379636D01*
X21569500Y-63525585D01*
X21569500Y-63674414D01*
X21598530Y-63820363D01*
X21598533Y-63820372D01*
X21655480Y-63957857D01*
X21655487Y-63957870D01*
X21738163Y-64081602D01*
X21738166Y-64081606D01*
X21843393Y-64186833D01*
X21843397Y-64186836D01*
X21967129Y-64269512D01*
X21967142Y-64269519D01*
X22070255Y-64312229D01*
X22104629Y-64326467D01*
X22104631Y-64326467D01*
X22104636Y-64326469D01*
X22250585Y-64355499D01*
X22250589Y-64355500D01*
X22250590Y-64355500D01*
X22399411Y-64355500D01*
X22399412Y-64355499D01*
X22452751Y-64344890D01*
X22545363Y-64326469D01*
X22545366Y-64326467D01*
X22545371Y-64326467D01*
X22682864Y-64269516D01*
X22806109Y-64187165D01*
X22872786Y-64166288D01*
X22940166Y-64184772D01*
X22943887Y-64187163D01*
X23067136Y-64269516D01*
X23067138Y-64269517D01*
X23067142Y-64269519D01*
X23170255Y-64312229D01*
X23204629Y-64326467D01*
X23204631Y-64326467D01*
X23204636Y-64326469D01*
X23350585Y-64355499D01*
X23350589Y-64355500D01*
X23350590Y-64355500D01*
X23499411Y-64355500D01*
X23499412Y-64355499D01*
X23552751Y-64344890D01*
X23645363Y-64326469D01*
X23645366Y-64326467D01*
X23645371Y-64326467D01*
X23782864Y-64269516D01*
X23856110Y-64220574D01*
X23922786Y-64199697D01*
X23990166Y-64218181D01*
X23993861Y-64220555D01*
X24067136Y-64269516D01*
X24067138Y-64269517D01*
X24067142Y-64269519D01*
X24170255Y-64312229D01*
X24204629Y-64326467D01*
X24204631Y-64326467D01*
X24204636Y-64326469D01*
X24350585Y-64355499D01*
X24350589Y-64355500D01*
X24350590Y-64355500D01*
X24499411Y-64355500D01*
X24499412Y-64355499D01*
X24552751Y-64344890D01*
X24645363Y-64326469D01*
X24645366Y-64326467D01*
X24645371Y-64326467D01*
X24782864Y-64269516D01*
X24856110Y-64220574D01*
X24922786Y-64199697D01*
X24990166Y-64218181D01*
X24993861Y-64220555D01*
X25067136Y-64269516D01*
X25067138Y-64269517D01*
X25067142Y-64269519D01*
X25170255Y-64312229D01*
X25204629Y-64326467D01*
X25204631Y-64326467D01*
X25204636Y-64326469D01*
X25350585Y-64355499D01*
X25350589Y-64355500D01*
X25350590Y-64355500D01*
X25499411Y-64355500D01*
X25499412Y-64355499D01*
X25552751Y-64344890D01*
X25645363Y-64326469D01*
X25645366Y-64326467D01*
X25645371Y-64326467D01*
X25782864Y-64269516D01*
X25856110Y-64220574D01*
X25922786Y-64199697D01*
X25990166Y-64218181D01*
X25993861Y-64220555D01*
X26067136Y-64269516D01*
X26067138Y-64269517D01*
X26067142Y-64269519D01*
X26170255Y-64312229D01*
X26204629Y-64326467D01*
X26204631Y-64326467D01*
X26204636Y-64326469D01*
X26350585Y-64355499D01*
X26350589Y-64355500D01*
X26350590Y-64355500D01*
X26499411Y-64355500D01*
X26499412Y-64355499D01*
X26552751Y-64344890D01*
X26645363Y-64326469D01*
X26645366Y-64326467D01*
X26645371Y-64326467D01*
X26782864Y-64269516D01*
X26906603Y-64186836D01*
X27011836Y-64081603D01*
X27094516Y-63957864D01*
X27151467Y-63820371D01*
X27157756Y-63788757D01*
X27180499Y-63674414D01*
X27180500Y-63674411D01*
X27180500Y-63525589D01*
X27180499Y-63525585D01*
X27151469Y-63379636D01*
X27151466Y-63379627D01*
X27094519Y-63242142D01*
X27094515Y-63242135D01*
X27056209Y-63184806D01*
X27045574Y-63168889D01*
X27024697Y-63102214D01*
X27043181Y-63034834D01*
X27045555Y-63031138D01*
X27094516Y-62957864D01*
X27097795Y-62949949D01*
X27143207Y-62840312D01*
X27151467Y-62820371D01*
X27180500Y-62674410D01*
X27180500Y-62525590D01*
X27169805Y-62471822D01*
X27151469Y-62379636D01*
X27151466Y-62379627D01*
X27119091Y-62301467D01*
X27094516Y-62242136D01*
X27078982Y-62218889D01*
X27058105Y-62152216D01*
X27076588Y-62084835D01*
X27078949Y-62081159D01*
X27094516Y-62057864D01*
X27151467Y-61920371D01*
X27180500Y-61774410D01*
X27180500Y-61625590D01*
X27168448Y-61565000D01*
X27151469Y-61479636D01*
X27151466Y-61479627D01*
X27141310Y-61455109D01*
X27094516Y-61342136D01*
X27078982Y-61318889D01*
X27058105Y-61252216D01*
X27076588Y-61184835D01*
X27078949Y-61181159D01*
X27094516Y-61157864D01*
X27151467Y-61020371D01*
X27157874Y-60988164D01*
X27180499Y-60874414D01*
X27180500Y-60874411D01*
X27180500Y-60725589D01*
X27180499Y-60725585D01*
X27151469Y-60579636D01*
X27151466Y-60579627D01*
X27094518Y-60442140D01*
X27094517Y-60442138D01*
X27094516Y-60442136D01*
X27078981Y-60418887D01*
X27064728Y-60373365D01*
X53144500Y-60373365D01*
X53144500Y-60522194D01*
X53173530Y-60668143D01*
X53173533Y-60668152D01*
X53230480Y-60805637D01*
X53230487Y-60805650D01*
X53313163Y-60929382D01*
X53313166Y-60929386D01*
X53418393Y-61034613D01*
X53418397Y-61034616D01*
X53542129Y-61117292D01*
X53542142Y-61117299D01*
X53626021Y-61152042D01*
X53679629Y-61174247D01*
X53679631Y-61174247D01*
X53679636Y-61174249D01*
X53825585Y-61203279D01*
X53825589Y-61203280D01*
X53952544Y-61203280D01*
X54019583Y-61222965D01*
X54065338Y-61275769D01*
X54075282Y-61344927D01*
X54074161Y-61351471D01*
X54044500Y-61500585D01*
X54044500Y-61649414D01*
X54073530Y-61795363D01*
X54073533Y-61795372D01*
X54130480Y-61932857D01*
X54130487Y-61932870D01*
X54213163Y-62056602D01*
X54213166Y-62056606D01*
X54318393Y-62161833D01*
X54318397Y-62161836D01*
X54442129Y-62244512D01*
X54442142Y-62244519D01*
X54510468Y-62272820D01*
X54579629Y-62301467D01*
X54579631Y-62301467D01*
X54579636Y-62301469D01*
X54725585Y-62330499D01*
X54725589Y-62330500D01*
X54725590Y-62330500D01*
X54874411Y-62330500D01*
X54874412Y-62330499D01*
X54923063Y-62320822D01*
X55020363Y-62301469D01*
X55020363Y-62301468D01*
X55020371Y-62301467D01*
X55023756Y-62300064D01*
X55025670Y-62299858D01*
X55026194Y-62299700D01*
X55026224Y-62299799D01*
X55093222Y-62292596D01*
X55155702Y-62323870D01*
X55191355Y-62383959D01*
X55189138Y-62452944D01*
X55167753Y-62518759D01*
X55143100Y-62674414D01*
X55134500Y-62728713D01*
X55134500Y-62941287D01*
X55137126Y-62957864D01*
X55162551Y-63118397D01*
X55167754Y-63151243D01*
X55209992Y-63281239D01*
X55233444Y-63353414D01*
X55329951Y-63542820D01*
X55454890Y-63714786D01*
X55605213Y-63865109D01*
X55777182Y-63990050D01*
X55785946Y-63994516D01*
X55836742Y-64042491D01*
X55853536Y-64110312D01*
X55830998Y-64176447D01*
X55785946Y-64215484D01*
X55777182Y-64219949D01*
X55605213Y-64344890D01*
X55454890Y-64495213D01*
X55329951Y-64667179D01*
X55233444Y-64856585D01*
X55167753Y-65058760D01*
X55134500Y-65268713D01*
X55134500Y-65481286D01*
X55167753Y-65691239D01*
X55233444Y-65893414D01*
X55329951Y-66082820D01*
X55454890Y-66254786D01*
X55605213Y-66405109D01*
X55777179Y-66530048D01*
X55777181Y-66530049D01*
X55777184Y-66530051D01*
X55966588Y-66626557D01*
X56168757Y-66692246D01*
X56378713Y-66725500D01*
X56378714Y-66725500D01*
X56591286Y-66725500D01*
X56591287Y-66725500D01*
X56801243Y-66692246D01*
X57003412Y-66626557D01*
X57192816Y-66530051D01*
X57262207Y-66479636D01*
X57364786Y-66405109D01*
X57364788Y-66405106D01*
X57364792Y-66405104D01*
X57515104Y-66254792D01*
X57515106Y-66254788D01*
X57515109Y-66254786D01*
X57640048Y-66082820D01*
X57640047Y-66082820D01*
X57640051Y-66082816D01*
X57736557Y-65893412D01*
X57802246Y-65691243D01*
X57835500Y-65481287D01*
X57835500Y-65268713D01*
X57811772Y-65118901D01*
X57820727Y-65049607D01*
X57865723Y-64996155D01*
X57932474Y-64975516D01*
X57999788Y-64994241D01*
X58021926Y-65011822D01*
X58145213Y-65135109D01*
X58317179Y-65260048D01*
X58317181Y-65260049D01*
X58317184Y-65260051D01*
X58506588Y-65356557D01*
X58708757Y-65422246D01*
X58918713Y-65455500D01*
X58918714Y-65455500D01*
X59131286Y-65455500D01*
X59131287Y-65455500D01*
X59341243Y-65422246D01*
X59543412Y-65356557D01*
X59732816Y-65260051D01*
X59754789Y-65244086D01*
X59904786Y-65135109D01*
X59904788Y-65135106D01*
X59904792Y-65135104D01*
X60055104Y-64984792D01*
X60055106Y-64984788D01*
X60055109Y-64984786D01*
X60180048Y-64812820D01*
X60180047Y-64812820D01*
X60180051Y-64812816D01*
X60276557Y-64623412D01*
X60342246Y-64421243D01*
X60375500Y-64211287D01*
X60375500Y-63998713D01*
X60342246Y-63788757D01*
X60276557Y-63586588D01*
X60180051Y-63397184D01*
X60180049Y-63397181D01*
X60180048Y-63397179D01*
X60055109Y-63225213D01*
X59904786Y-63074890D01*
X59732820Y-62949951D01*
X59732115Y-62949591D01*
X59724054Y-62945485D01*
X59673259Y-62897512D01*
X59656463Y-62829692D01*
X59678999Y-62763556D01*
X59724054Y-62724515D01*
X59732816Y-62720051D01*
X59754789Y-62704086D01*
X59904786Y-62595109D01*
X59904788Y-62595106D01*
X59904792Y-62595104D01*
X60055104Y-62444792D01*
X60055106Y-62444788D01*
X60055109Y-62444786D01*
X60180048Y-62272820D01*
X60180047Y-62272820D01*
X60180051Y-62272816D01*
X60276557Y-62083412D01*
X60342246Y-61881243D01*
X60375500Y-61671287D01*
X60375500Y-61458713D01*
X60342246Y-61248757D01*
X60276557Y-61046588D01*
X60180051Y-60857184D01*
X60180049Y-60857181D01*
X60180048Y-60857179D01*
X60055109Y-60685213D01*
X59904786Y-60534890D01*
X59732820Y-60409951D01*
X59543414Y-60313444D01*
X59543413Y-60313443D01*
X59543412Y-60313443D01*
X59341243Y-60247754D01*
X59341241Y-60247753D01*
X59341240Y-60247753D01*
X59179957Y-60222208D01*
X59131287Y-60214500D01*
X58918713Y-60214500D01*
X58870042Y-60222208D01*
X58708760Y-60247753D01*
X58506585Y-60313444D01*
X58317179Y-60409951D01*
X58145215Y-60534889D01*
X58021926Y-60658178D01*
X57960603Y-60691662D01*
X57890911Y-60686678D01*
X57834978Y-60644806D01*
X57810561Y-60579342D01*
X57811772Y-60551098D01*
X57816350Y-60522194D01*
X57835500Y-60401287D01*
X57835500Y-60188713D01*
X57802246Y-59978757D01*
X57736557Y-59776588D01*
X57640051Y-59587184D01*
X57640049Y-59587181D01*
X57640048Y-59587179D01*
X57515109Y-59415213D01*
X57364786Y-59264890D01*
X57192820Y-59139951D01*
X57192115Y-59139591D01*
X57184054Y-59135485D01*
X57133259Y-59087512D01*
X57116463Y-59019692D01*
X57138999Y-58953556D01*
X57184054Y-58914515D01*
X57192816Y-58910051D01*
X57231677Y-58881817D01*
X57364786Y-58785109D01*
X57364788Y-58785106D01*
X57364792Y-58785104D01*
X57515104Y-58634792D01*
X57515106Y-58634788D01*
X57515109Y-58634786D01*
X57640048Y-58462820D01*
X57640047Y-58462820D01*
X57640051Y-58462816D01*
X57736557Y-58273412D01*
X57802246Y-58071243D01*
X57835500Y-57861287D01*
X57835500Y-57648713D01*
X57816127Y-57526396D01*
X57814019Y-57513085D01*
X59669500Y-57513085D01*
X59669500Y-57661914D01*
X59698530Y-57807863D01*
X59698533Y-57807872D01*
X59755480Y-57945357D01*
X59755487Y-57945370D01*
X59838163Y-58069102D01*
X59838166Y-58069106D01*
X59943393Y-58174333D01*
X59943397Y-58174336D01*
X60067129Y-58257012D01*
X60067142Y-58257019D01*
X60157631Y-58294500D01*
X60204629Y-58313967D01*
X60204631Y-58313967D01*
X60204636Y-58313969D01*
X60350585Y-58342999D01*
X60350589Y-58343000D01*
X60350590Y-58343000D01*
X60499411Y-58343000D01*
X60499412Y-58342999D01*
X60562333Y-58330484D01*
X60645363Y-58313969D01*
X60645366Y-58313967D01*
X60645371Y-58313967D01*
X60782864Y-58257016D01*
X60906603Y-58174336D01*
X61011836Y-58069103D01*
X61094516Y-57945364D01*
X61151467Y-57807871D01*
X61180500Y-57661910D01*
X61180500Y-57513090D01*
X61165715Y-57438760D01*
X61151469Y-57367136D01*
X61151466Y-57367127D01*
X61094519Y-57229642D01*
X61094512Y-57229629D01*
X61011836Y-57105897D01*
X61011833Y-57105893D01*
X60906606Y-57000666D01*
X60906602Y-57000663D01*
X60782870Y-56917987D01*
X60782857Y-56917980D01*
X60645372Y-56861033D01*
X60645363Y-56861030D01*
X60499414Y-56832000D01*
X60499410Y-56832000D01*
X60350590Y-56832000D01*
X60350585Y-56832000D01*
X60204636Y-56861030D01*
X60204627Y-56861033D01*
X60067142Y-56917980D01*
X60067129Y-56917987D01*
X59943397Y-57000663D01*
X59943393Y-57000666D01*
X59838166Y-57105893D01*
X59838163Y-57105897D01*
X59755487Y-57229629D01*
X59755480Y-57229642D01*
X59698533Y-57367127D01*
X59698530Y-57367136D01*
X59669500Y-57513085D01*
X57814019Y-57513085D01*
X57802246Y-57438760D01*
X57802246Y-57438757D01*
X57736557Y-57236588D01*
X57640051Y-57047184D01*
X57640049Y-57047181D01*
X57640048Y-57047179D01*
X57515109Y-56875213D01*
X57364786Y-56724890D01*
X57192820Y-56599951D01*
X57192115Y-56599591D01*
X57184054Y-56595485D01*
X57133259Y-56547512D01*
X57116463Y-56479692D01*
X57138999Y-56413556D01*
X57184054Y-56374515D01*
X57192816Y-56370051D01*
X57214789Y-56354086D01*
X57364786Y-56245109D01*
X57364788Y-56245106D01*
X57364792Y-56245104D01*
X57515104Y-56094792D01*
X57515106Y-56094788D01*
X57515109Y-56094786D01*
X57640048Y-55922820D01*
X57640047Y-55922820D01*
X57640051Y-55922816D01*
X57736557Y-55733412D01*
X57802246Y-55531243D01*
X57835500Y-55321287D01*
X57835500Y-55108713D01*
X57802246Y-54898757D01*
X57736557Y-54696588D01*
X57640051Y-54507184D01*
X57640049Y-54507181D01*
X57640048Y-54507179D01*
X57515109Y-54335213D01*
X57364792Y-54184896D01*
X57310494Y-54145446D01*
X57310476Y-54145433D01*
X57192816Y-54059949D01*
X57176339Y-54051553D01*
X57174956Y-54050585D01*
X59719500Y-54050585D01*
X59719500Y-54199414D01*
X59748530Y-54345363D01*
X59748533Y-54345372D01*
X59805480Y-54482857D01*
X59805487Y-54482870D01*
X59888163Y-54606602D01*
X59888166Y-54606606D01*
X59993393Y-54711833D01*
X59993397Y-54711836D01*
X60117129Y-54794512D01*
X60117142Y-54794519D01*
X60162161Y-54813166D01*
X60254629Y-54851467D01*
X60254631Y-54851467D01*
X60254636Y-54851469D01*
X60400585Y-54880499D01*
X60400589Y-54880500D01*
X60400590Y-54880500D01*
X60549411Y-54880500D01*
X60549412Y-54880499D01*
X60598063Y-54870822D01*
X60695363Y-54851469D01*
X60695366Y-54851467D01*
X60695371Y-54851467D01*
X60832864Y-54794516D01*
X60956603Y-54711836D01*
X61061836Y-54606603D01*
X61144516Y-54482864D01*
X61201467Y-54345371D01*
X61230500Y-54199410D01*
X61230500Y-54050590D01*
X61222922Y-54012491D01*
X61201469Y-53904636D01*
X61201466Y-53904627D01*
X61144519Y-53767142D01*
X61144512Y-53767129D01*
X61061836Y-53643397D01*
X61061833Y-53643393D01*
X60956606Y-53538166D01*
X60956602Y-53538163D01*
X60832870Y-53455487D01*
X60832857Y-53455480D01*
X60695372Y-53398533D01*
X60695363Y-53398530D01*
X60549414Y-53369500D01*
X60549410Y-53369500D01*
X60400590Y-53369500D01*
X60400585Y-53369500D01*
X60254636Y-53398530D01*
X60254627Y-53398533D01*
X60117142Y-53455480D01*
X60117129Y-53455487D01*
X59993397Y-53538163D01*
X59993393Y-53538166D01*
X59888166Y-53643393D01*
X59888163Y-53643397D01*
X59805487Y-53767129D01*
X59805480Y-53767142D01*
X59748533Y-53904627D01*
X59748530Y-53904636D01*
X59719500Y-54050585D01*
X57174956Y-54050585D01*
X57169247Y-54046590D01*
X57152617Y-54025794D01*
X57133259Y-54007512D01*
X57131133Y-53998928D01*
X57125611Y-53992023D01*
X57122864Y-53965539D01*
X57116463Y-53939692D01*
X57119315Y-53931321D01*
X57118403Y-53922526D01*
X57130410Y-53898761D01*
X57138999Y-53873556D01*
X57146374Y-53867164D01*
X57149912Y-53860164D01*
X57164057Y-53851842D01*
X57184054Y-53834515D01*
X57192816Y-53830051D01*
X57214789Y-53814086D01*
X57364786Y-53705109D01*
X57364788Y-53705106D01*
X57364792Y-53705104D01*
X57515104Y-53554792D01*
X57515106Y-53554788D01*
X57515109Y-53554786D01*
X57640048Y-53382820D01*
X57640047Y-53382820D01*
X57640051Y-53382816D01*
X57736557Y-53193412D01*
X57802246Y-52991243D01*
X57835500Y-52781287D01*
X57835500Y-52568713D01*
X57802246Y-52358757D01*
X57736557Y-52156588D01*
X57640051Y-51967184D01*
X57640049Y-51967181D01*
X57640048Y-51967179D01*
X57515109Y-51795213D01*
X57364786Y-51644890D01*
X57192820Y-51519951D01*
X57192115Y-51519591D01*
X57184054Y-51515485D01*
X57133259Y-51467512D01*
X57116463Y-51399692D01*
X57138999Y-51333556D01*
X57184054Y-51294515D01*
X57192816Y-51290051D01*
X57214789Y-51274086D01*
X57364786Y-51165109D01*
X57364788Y-51165106D01*
X57364792Y-51165104D01*
X57515104Y-51014792D01*
X57515106Y-51014788D01*
X57515109Y-51014786D01*
X57640048Y-50842820D01*
X57640047Y-50842820D01*
X57640051Y-50842816D01*
X57736557Y-50653412D01*
X57802246Y-50451243D01*
X57835500Y-50241287D01*
X57835500Y-50028713D01*
X57802246Y-49818757D01*
X57736557Y-49616588D01*
X57640051Y-49427184D01*
X57640049Y-49427181D01*
X57640048Y-49427179D01*
X57515109Y-49255213D01*
X57364786Y-49104890D01*
X57192820Y-48979951D01*
X57192115Y-48979591D01*
X57184054Y-48975485D01*
X57133259Y-48927512D01*
X57116463Y-48859692D01*
X57138999Y-48793556D01*
X57184054Y-48754515D01*
X57192816Y-48750051D01*
X57214789Y-48734086D01*
X57364786Y-48625109D01*
X57364788Y-48625106D01*
X57364792Y-48625104D01*
X57515104Y-48474792D01*
X57515106Y-48474788D01*
X57515109Y-48474786D01*
X57640048Y-48302820D01*
X57640047Y-48302820D01*
X57640051Y-48302816D01*
X57736557Y-48113412D01*
X57802246Y-47911243D01*
X57835500Y-47701287D01*
X57835500Y-47488713D01*
X57802246Y-47278757D01*
X57736557Y-47076588D01*
X57640051Y-46887184D01*
X57640049Y-46887181D01*
X57640048Y-46887179D01*
X57515109Y-46715213D01*
X57364786Y-46564890D01*
X57192820Y-46439951D01*
X57192115Y-46439591D01*
X57184054Y-46435485D01*
X57133259Y-46387512D01*
X57116463Y-46319692D01*
X57138999Y-46253556D01*
X57184054Y-46214515D01*
X57192816Y-46210051D01*
X57214789Y-46194086D01*
X57364786Y-46085109D01*
X57364788Y-46085106D01*
X57364792Y-46085104D01*
X57515104Y-45934792D01*
X57515106Y-45934788D01*
X57515109Y-45934786D01*
X57640048Y-45762820D01*
X57640047Y-45762820D01*
X57640051Y-45762816D01*
X57736557Y-45573412D01*
X57802246Y-45371243D01*
X57835500Y-45161287D01*
X57835500Y-45078713D01*
X70374500Y-45078713D01*
X70374500Y-45291287D01*
X70376733Y-45305383D01*
X70401431Y-45461325D01*
X70407754Y-45501243D01*
X70472755Y-45701296D01*
X70473444Y-45703414D01*
X70569951Y-45892820D01*
X70694890Y-46064786D01*
X70845213Y-46215109D01*
X71017182Y-46340050D01*
X71025946Y-46344516D01*
X71076742Y-46392491D01*
X71093536Y-46460312D01*
X71070998Y-46526447D01*
X71025946Y-46565484D01*
X71017182Y-46569949D01*
X70845213Y-46694890D01*
X70694890Y-46845213D01*
X70569951Y-47017179D01*
X70473444Y-47206585D01*
X70407753Y-47408760D01*
X70395090Y-47488713D01*
X70374500Y-47618713D01*
X70374500Y-47831287D01*
X70407754Y-48041243D01*
X70431203Y-48113412D01*
X70473444Y-48243414D01*
X70569951Y-48432820D01*
X70694890Y-48604786D01*
X70845213Y-48755109D01*
X71017182Y-48880050D01*
X71025946Y-48884516D01*
X71076742Y-48932491D01*
X71093536Y-49000312D01*
X71070998Y-49066447D01*
X71025946Y-49105484D01*
X71017182Y-49109949D01*
X70845213Y-49234890D01*
X70694890Y-49385213D01*
X70569951Y-49557179D01*
X70473444Y-49746585D01*
X70407753Y-49948760D01*
X70395090Y-50028713D01*
X70374500Y-50158713D01*
X70374500Y-50371287D01*
X70407754Y-50581243D01*
X70431203Y-50653412D01*
X70473444Y-50783414D01*
X70569951Y-50972820D01*
X70694890Y-51144786D01*
X70845213Y-51295109D01*
X71017182Y-51420050D01*
X71025946Y-51424516D01*
X71076742Y-51472491D01*
X71093536Y-51540312D01*
X71070998Y-51606447D01*
X71025946Y-51645484D01*
X71017182Y-51649949D01*
X70845213Y-51774890D01*
X70694890Y-51925213D01*
X70569951Y-52097179D01*
X70473444Y-52286585D01*
X70407753Y-52488760D01*
X70375569Y-52691964D01*
X70374500Y-52698713D01*
X70374500Y-52911287D01*
X70407754Y-53121243D01*
X70431203Y-53193412D01*
X70473444Y-53323414D01*
X70569951Y-53512820D01*
X70694890Y-53684786D01*
X70845213Y-53835109D01*
X71017182Y-53960050D01*
X71025946Y-53964516D01*
X71076742Y-54012491D01*
X71093536Y-54080312D01*
X71070998Y-54146447D01*
X71025946Y-54185484D01*
X71017182Y-54189949D01*
X70845213Y-54314890D01*
X70694890Y-54465213D01*
X70569951Y-54637179D01*
X70473444Y-54826585D01*
X70407753Y-55028760D01*
X70374500Y-55238713D01*
X70374500Y-55451286D01*
X70401704Y-55623049D01*
X70407754Y-55661243D01*
X70439148Y-55757864D01*
X70473444Y-55863414D01*
X70569951Y-56052820D01*
X70694890Y-56224786D01*
X70845213Y-56375109D01*
X71017182Y-56500050D01*
X71025946Y-56504516D01*
X71076742Y-56552491D01*
X71093536Y-56620312D01*
X71070998Y-56686447D01*
X71025946Y-56725484D01*
X71017182Y-56729949D01*
X70845213Y-56854890D01*
X70694890Y-57005213D01*
X70569951Y-57177179D01*
X70473444Y-57366585D01*
X70407753Y-57568760D01*
X70392999Y-57661914D01*
X70374500Y-57778713D01*
X70374500Y-57991287D01*
X70377126Y-58007864D01*
X70396724Y-58131606D01*
X70407754Y-58201243D01*
X70472432Y-58400302D01*
X70473444Y-58403414D01*
X70569951Y-58592820D01*
X70694890Y-58764786D01*
X70845213Y-58915109D01*
X71017182Y-59040050D01*
X71025946Y-59044516D01*
X71076742Y-59092491D01*
X71093536Y-59160312D01*
X71070998Y-59226447D01*
X71025946Y-59265484D01*
X71017182Y-59269949D01*
X70845213Y-59394890D01*
X70694890Y-59545213D01*
X70569951Y-59717179D01*
X70473444Y-59906585D01*
X70407753Y-60108760D01*
X70374500Y-60318713D01*
X70374500Y-60531286D01*
X70405274Y-60725590D01*
X70407754Y-60741243D01*
X70468884Y-60929382D01*
X70473444Y-60943414D01*
X70569951Y-61132820D01*
X70694890Y-61304786D01*
X70845213Y-61455109D01*
X71017182Y-61580050D01*
X71025946Y-61584516D01*
X71076742Y-61632491D01*
X71093536Y-61700312D01*
X71070998Y-61766447D01*
X71025946Y-61805484D01*
X71017182Y-61809949D01*
X70845213Y-61934890D01*
X70694890Y-62085213D01*
X70569951Y-62257179D01*
X70473444Y-62446585D01*
X70473443Y-62446587D01*
X70473443Y-62446588D01*
X70469424Y-62458956D01*
X70407753Y-62648760D01*
X70374500Y-62858713D01*
X70374500Y-63071286D01*
X70399111Y-63226678D01*
X70407754Y-63281243D01*
X70431203Y-63353412D01*
X70473444Y-63483414D01*
X70569951Y-63672820D01*
X70694890Y-63844786D01*
X70845213Y-63995109D01*
X71017179Y-64120048D01*
X71017181Y-64120049D01*
X71017184Y-64120051D01*
X71206588Y-64216557D01*
X71408757Y-64282246D01*
X71618713Y-64315500D01*
X71618714Y-64315500D01*
X71831286Y-64315500D01*
X71831287Y-64315500D01*
X72041243Y-64282246D01*
X72243412Y-64216557D01*
X72432816Y-64120051D01*
X72478917Y-64086557D01*
X72604786Y-63995109D01*
X72604788Y-63995106D01*
X72604792Y-63995104D01*
X72755104Y-63844792D01*
X72755106Y-63844788D01*
X72755109Y-63844786D01*
X72880048Y-63672820D01*
X72880047Y-63672820D01*
X72880051Y-63672816D01*
X72976557Y-63483412D01*
X73042246Y-63281243D01*
X73075500Y-63071287D01*
X73075500Y-62858713D01*
X73042246Y-62648757D01*
X72976557Y-62446588D01*
X72880051Y-62257184D01*
X72880049Y-62257181D01*
X72880048Y-62257179D01*
X72755109Y-62085213D01*
X72604786Y-61934890D01*
X72432820Y-61809951D01*
X72432115Y-61809591D01*
X72424054Y-61805485D01*
X72373259Y-61757512D01*
X72356463Y-61689692D01*
X72378999Y-61623556D01*
X72424054Y-61584515D01*
X72432816Y-61580051D01*
X72478917Y-61546557D01*
X72604786Y-61455109D01*
X72604788Y-61455106D01*
X72604792Y-61455104D01*
X72755104Y-61304792D01*
X72755106Y-61304788D01*
X72755109Y-61304786D01*
X72880048Y-61132820D01*
X72880047Y-61132820D01*
X72880051Y-61132816D01*
X72976557Y-60943412D01*
X73042246Y-60741243D01*
X73075500Y-60531287D01*
X73075500Y-60318713D01*
X73042246Y-60108757D01*
X72976557Y-59906588D01*
X72880051Y-59717184D01*
X72880049Y-59717181D01*
X72880048Y-59717179D01*
X72755109Y-59545213D01*
X72604786Y-59394890D01*
X72432820Y-59269951D01*
X72432115Y-59269591D01*
X72424054Y-59265485D01*
X72373259Y-59217512D01*
X72356463Y-59149692D01*
X72378999Y-59083556D01*
X72424054Y-59044515D01*
X72432816Y-59040051D01*
X72521541Y-58975589D01*
X72521547Y-58975585D01*
X74144500Y-58975585D01*
X74144500Y-59124414D01*
X74173530Y-59270363D01*
X74173533Y-59270372D01*
X74230480Y-59407857D01*
X74230487Y-59407870D01*
X74313163Y-59531602D01*
X74313166Y-59531606D01*
X74418393Y-59636833D01*
X74418397Y-59636836D01*
X74542129Y-59719512D01*
X74542142Y-59719519D01*
X74645255Y-59762229D01*
X74679629Y-59776467D01*
X74679631Y-59776467D01*
X74679636Y-59776469D01*
X74825585Y-59805499D01*
X74825589Y-59805500D01*
X74825590Y-59805500D01*
X74974411Y-59805500D01*
X74974412Y-59805499D01*
X75023063Y-59795822D01*
X75120363Y-59776469D01*
X75120366Y-59776467D01*
X75120371Y-59776467D01*
X75257864Y-59719516D01*
X75381603Y-59636836D01*
X75486836Y-59531603D01*
X75569516Y-59407864D01*
X75574888Y-59394896D01*
X75590226Y-59357865D01*
X75626467Y-59270371D01*
X75627558Y-59264890D01*
X75655499Y-59124414D01*
X75655500Y-59124411D01*
X75655500Y-58975589D01*
X75655499Y-58975585D01*
X75626469Y-58829636D01*
X75626466Y-58829627D01*
X75569519Y-58692142D01*
X75569512Y-58692129D01*
X75486836Y-58568397D01*
X75486833Y-58568393D01*
X75381606Y-58463166D01*
X75381602Y-58463163D01*
X75257870Y-58380487D01*
X75257857Y-58380480D01*
X75120372Y-58323533D01*
X75120363Y-58323530D01*
X74974414Y-58294500D01*
X74974410Y-58294500D01*
X74825590Y-58294500D01*
X74825585Y-58294500D01*
X74679636Y-58323530D01*
X74679627Y-58323533D01*
X74542142Y-58380480D01*
X74542129Y-58380487D01*
X74418397Y-58463163D01*
X74418393Y-58463166D01*
X74313166Y-58568393D01*
X74313163Y-58568397D01*
X74230487Y-58692129D01*
X74230480Y-58692142D01*
X74173533Y-58829627D01*
X74173530Y-58829636D01*
X74144500Y-58975585D01*
X72521547Y-58975585D01*
X72604786Y-58915109D01*
X72604788Y-58915106D01*
X72604792Y-58915104D01*
X72755104Y-58764792D01*
X72755106Y-58764788D01*
X72755109Y-58764786D01*
X72880048Y-58592820D01*
X72880047Y-58592820D01*
X72880051Y-58592816D01*
X72976557Y-58403412D01*
X73042246Y-58201243D01*
X73075500Y-57991287D01*
X73075500Y-57778713D01*
X73042246Y-57568757D01*
X72976557Y-57366588D01*
X72880051Y-57177184D01*
X72880049Y-57177181D01*
X72880048Y-57177179D01*
X72755109Y-57005213D01*
X72604786Y-56854890D01*
X72432820Y-56729951D01*
X72432115Y-56729591D01*
X72424054Y-56725485D01*
X72373259Y-56677512D01*
X72356463Y-56609692D01*
X72378999Y-56543556D01*
X72424054Y-56504515D01*
X72432816Y-56500051D01*
X72539569Y-56422491D01*
X72604786Y-56375109D01*
X72604788Y-56375106D01*
X72604792Y-56375104D01*
X72755104Y-56224792D01*
X72755106Y-56224788D01*
X72755109Y-56224786D01*
X72880048Y-56052820D01*
X72880047Y-56052820D01*
X72880051Y-56052816D01*
X72976557Y-55863412D01*
X73042246Y-55661243D01*
X73075500Y-55451287D01*
X73075500Y-55238713D01*
X73042246Y-55028757D01*
X72976557Y-54826588D01*
X72880051Y-54637184D01*
X72880049Y-54637181D01*
X72880048Y-54637179D01*
X72755109Y-54465213D01*
X72604786Y-54314890D01*
X72432820Y-54189951D01*
X72432115Y-54189591D01*
X72424054Y-54185485D01*
X72373259Y-54137512D01*
X72356463Y-54069692D01*
X72378999Y-54003556D01*
X72424054Y-53964515D01*
X72432816Y-53960051D01*
X72509089Y-53904636D01*
X72604786Y-53835109D01*
X72604788Y-53835106D01*
X72604792Y-53835104D01*
X72755104Y-53684792D01*
X72755106Y-53684788D01*
X72755109Y-53684786D01*
X72880048Y-53512820D01*
X72880047Y-53512820D01*
X72880051Y-53512816D01*
X72976557Y-53323412D01*
X73042246Y-53121243D01*
X73075500Y-52911287D01*
X73075500Y-52698713D01*
X73042246Y-52488757D01*
X72976557Y-52286588D01*
X72880051Y-52097184D01*
X72880049Y-52097181D01*
X72880048Y-52097179D01*
X72755109Y-51925213D01*
X72604786Y-51774890D01*
X72432820Y-51649951D01*
X72432115Y-51649591D01*
X72424054Y-51645485D01*
X72373259Y-51597512D01*
X72356463Y-51529692D01*
X72378999Y-51463556D01*
X72424054Y-51424515D01*
X72432816Y-51420051D01*
X72539569Y-51342491D01*
X72604786Y-51295109D01*
X72604788Y-51295106D01*
X72604792Y-51295104D01*
X72755104Y-51144792D01*
X72755106Y-51144788D01*
X72755109Y-51144786D01*
X72880048Y-50972820D01*
X72880047Y-50972820D01*
X72880051Y-50972816D01*
X72976557Y-50783412D01*
X73042246Y-50581243D01*
X73075500Y-50371287D01*
X73075500Y-50158713D01*
X73042246Y-49948757D01*
X72976557Y-49746588D01*
X72880051Y-49557184D01*
X72880049Y-49557181D01*
X72880048Y-49557179D01*
X72755109Y-49385213D01*
X72604786Y-49234890D01*
X72432820Y-49109951D01*
X72432115Y-49109591D01*
X72424054Y-49105485D01*
X72373259Y-49057512D01*
X72356463Y-48989692D01*
X72378999Y-48923556D01*
X72424054Y-48884515D01*
X72432816Y-48880051D01*
X72539569Y-48802491D01*
X72604786Y-48755109D01*
X72604788Y-48755106D01*
X72604792Y-48755104D01*
X72755104Y-48604792D01*
X72755106Y-48604788D01*
X72755109Y-48604786D01*
X72880048Y-48432820D01*
X72880047Y-48432820D01*
X72880051Y-48432816D01*
X72976557Y-48243412D01*
X73042246Y-48041243D01*
X73075500Y-47831287D01*
X73075500Y-47618713D01*
X73042246Y-47408757D01*
X72976557Y-47206588D01*
X72880051Y-47017184D01*
X72880049Y-47017181D01*
X72880048Y-47017179D01*
X72755109Y-46845213D01*
X72604786Y-46694890D01*
X72432820Y-46569951D01*
X72432115Y-46569591D01*
X72424054Y-46565485D01*
X72373259Y-46517512D01*
X72356463Y-46449692D01*
X72378999Y-46383556D01*
X72424054Y-46344515D01*
X72432816Y-46340051D01*
X72539569Y-46262491D01*
X72604786Y-46215109D01*
X72604788Y-46215106D01*
X72604792Y-46215104D01*
X72755104Y-46064792D01*
X72755106Y-46064788D01*
X72755109Y-46064786D01*
X72880048Y-45892820D01*
X72880047Y-45892820D01*
X72880051Y-45892816D01*
X72976557Y-45703412D01*
X73042246Y-45501243D01*
X73075500Y-45291287D01*
X73075500Y-45078713D01*
X73042246Y-44868757D01*
X72976557Y-44666588D01*
X72880051Y-44477184D01*
X72880049Y-44477181D01*
X72880048Y-44477179D01*
X72755109Y-44305213D01*
X72604786Y-44154890D01*
X72432820Y-44029951D01*
X72243414Y-43933444D01*
X72243413Y-43933443D01*
X72243412Y-43933443D01*
X72041243Y-43867754D01*
X72041241Y-43867753D01*
X72041240Y-43867753D01*
X71879957Y-43842208D01*
X71831287Y-43834500D01*
X71618713Y-43834500D01*
X71570042Y-43842208D01*
X71408760Y-43867753D01*
X71206585Y-43933444D01*
X71017179Y-44029951D01*
X70845213Y-44154890D01*
X70694890Y-44305213D01*
X70569951Y-44477179D01*
X70473444Y-44666585D01*
X70407753Y-44868760D01*
X70395090Y-44948713D01*
X70374500Y-45078713D01*
X57835500Y-45078713D01*
X57835500Y-44948713D01*
X57802246Y-44738757D01*
X57736557Y-44536588D01*
X57640051Y-44347184D01*
X57640049Y-44347181D01*
X57640048Y-44347179D01*
X57515109Y-44175213D01*
X57364786Y-44024890D01*
X57192820Y-43899951D01*
X57003414Y-43803444D01*
X57003413Y-43803443D01*
X57003412Y-43803443D01*
X56801243Y-43737754D01*
X56801241Y-43737753D01*
X56801240Y-43737753D01*
X56639957Y-43712208D01*
X56591287Y-43704500D01*
X56378713Y-43704500D01*
X56330042Y-43712208D01*
X56168760Y-43737753D01*
X55966585Y-43803444D01*
X55777179Y-43899951D01*
X55605213Y-44024890D01*
X55454890Y-44175213D01*
X55329951Y-44347179D01*
X55233444Y-44536585D01*
X55167753Y-44738760D01*
X55134500Y-44948713D01*
X55134500Y-45161286D01*
X55166762Y-45364983D01*
X55167754Y-45371243D01*
X55209992Y-45501239D01*
X55233444Y-45573414D01*
X55329951Y-45762820D01*
X55454890Y-45934786D01*
X55605213Y-46085109D01*
X55777182Y-46210050D01*
X55785946Y-46214516D01*
X55836742Y-46262491D01*
X55853536Y-46330312D01*
X55830998Y-46396447D01*
X55785946Y-46435484D01*
X55777182Y-46439949D01*
X55605213Y-46564890D01*
X55454890Y-46715213D01*
X55329951Y-46887179D01*
X55233444Y-47076585D01*
X55167753Y-47278760D01*
X55147164Y-47408757D01*
X55134500Y-47488713D01*
X55134500Y-47701287D01*
X55167754Y-47911243D01*
X55209992Y-48041239D01*
X55233444Y-48113414D01*
X55329951Y-48302820D01*
X55454890Y-48474786D01*
X55605213Y-48625109D01*
X55777182Y-48750050D01*
X55785946Y-48754516D01*
X55836742Y-48802491D01*
X55853536Y-48870312D01*
X55830998Y-48936447D01*
X55785946Y-48975484D01*
X55777182Y-48979949D01*
X55605213Y-49104890D01*
X55454890Y-49255213D01*
X55329951Y-49427179D01*
X55233444Y-49616585D01*
X55167753Y-49818760D01*
X55147164Y-49948757D01*
X55134500Y-50028713D01*
X55134500Y-50241287D01*
X55167754Y-50451243D01*
X55209992Y-50581239D01*
X55233444Y-50653414D01*
X55329951Y-50842820D01*
X55454890Y-51014786D01*
X55605213Y-51165109D01*
X55777182Y-51290050D01*
X55785946Y-51294516D01*
X55836742Y-51342491D01*
X55853536Y-51410312D01*
X55830998Y-51476447D01*
X55785946Y-51515484D01*
X55777182Y-51519949D01*
X55605213Y-51644890D01*
X55454890Y-51795213D01*
X55329951Y-51967179D01*
X55233444Y-52156585D01*
X55167753Y-52358760D01*
X55157996Y-52420363D01*
X55134500Y-52568713D01*
X55134500Y-52781287D01*
X55135379Y-52786836D01*
X55162092Y-52955499D01*
X55167754Y-52991243D01*
X55209992Y-53121239D01*
X55233444Y-53193414D01*
X55329951Y-53382820D01*
X55454890Y-53554786D01*
X55605213Y-53705109D01*
X55777182Y-53830050D01*
X55785946Y-53834516D01*
X55836742Y-53882491D01*
X55853536Y-53950312D01*
X55830998Y-54016447D01*
X55785946Y-54055484D01*
X55777182Y-54059949D01*
X55605213Y-54184890D01*
X55454890Y-54335213D01*
X55329951Y-54507179D01*
X55233444Y-54696585D01*
X55233443Y-54696587D01*
X55233443Y-54696588D01*
X55201625Y-54794512D01*
X55167753Y-54898760D01*
X55162551Y-54931606D01*
X55134500Y-55108713D01*
X55134500Y-55321287D01*
X55135182Y-55325590D01*
X55158752Y-55474411D01*
X55167754Y-55531243D01*
X55209992Y-55661239D01*
X55233444Y-55733414D01*
X55329951Y-55922820D01*
X55454890Y-56094786D01*
X55605213Y-56245109D01*
X55777182Y-56370050D01*
X55785946Y-56374516D01*
X55836742Y-56422491D01*
X55853536Y-56490312D01*
X55830998Y-56556447D01*
X55785946Y-56595484D01*
X55777182Y-56599949D01*
X55605213Y-56724890D01*
X55454890Y-56875213D01*
X55329951Y-57047179D01*
X55233444Y-57236585D01*
X55167753Y-57438760D01*
X55134500Y-57648713D01*
X55134500Y-57861286D01*
X55167415Y-58069106D01*
X55167754Y-58071243D01*
X55228114Y-58257012D01*
X55233444Y-58273414D01*
X55329951Y-58462820D01*
X55454890Y-58634786D01*
X55605213Y-58785109D01*
X55777182Y-58910050D01*
X55785946Y-58914516D01*
X55836742Y-58962491D01*
X55853536Y-59030312D01*
X55830998Y-59096447D01*
X55785946Y-59135484D01*
X55777182Y-59139949D01*
X55605213Y-59264890D01*
X55454890Y-59415213D01*
X55329951Y-59587179D01*
X55233444Y-59776585D01*
X55167753Y-59978760D01*
X55134500Y-60188713D01*
X55134500Y-60401286D01*
X55167753Y-60611240D01*
X55196647Y-60700166D01*
X55198642Y-60770007D01*
X55162562Y-60829840D01*
X55099861Y-60860668D01*
X55031266Y-60853046D01*
X55020371Y-60848533D01*
X55020367Y-60848532D01*
X55020363Y-60848530D01*
X54874414Y-60819500D01*
X54874410Y-60819500D01*
X54747456Y-60819500D01*
X54680417Y-60799815D01*
X54634662Y-60747011D01*
X54624718Y-60677853D01*
X54625839Y-60671309D01*
X54649750Y-60551098D01*
X54655500Y-60522190D01*
X54655500Y-60373370D01*
X54651292Y-60352214D01*
X54626469Y-60227416D01*
X54626466Y-60227407D01*
X54569519Y-60089922D01*
X54569512Y-60089909D01*
X54486836Y-59966177D01*
X54486833Y-59966173D01*
X54381606Y-59860946D01*
X54381602Y-59860943D01*
X54257870Y-59778267D01*
X54257857Y-59778260D01*
X54120372Y-59721313D01*
X54120363Y-59721310D01*
X53974414Y-59692280D01*
X53974410Y-59692280D01*
X53825590Y-59692280D01*
X53825585Y-59692280D01*
X53679636Y-59721310D01*
X53679627Y-59721313D01*
X53542142Y-59778260D01*
X53542129Y-59778267D01*
X53418397Y-59860943D01*
X53418393Y-59860946D01*
X53313166Y-59966173D01*
X53313163Y-59966177D01*
X53230487Y-60089909D01*
X53230480Y-60089922D01*
X53173533Y-60227407D01*
X53173530Y-60227416D01*
X53144500Y-60373365D01*
X27064728Y-60373365D01*
X27058105Y-60352214D01*
X27076589Y-60284834D01*
X27078950Y-60281159D01*
X27094516Y-60257864D01*
X27151467Y-60120371D01*
X27180500Y-59974410D01*
X27180500Y-59825590D01*
X27171087Y-59778267D01*
X27151469Y-59679636D01*
X27151466Y-59679627D01*
X27100051Y-59555500D01*
X27094516Y-59542136D01*
X27078982Y-59518889D01*
X27058105Y-59452216D01*
X27076588Y-59384835D01*
X27078949Y-59381159D01*
X27094516Y-59357864D01*
X27151467Y-59220371D01*
X27160802Y-59173443D01*
X27176117Y-59096447D01*
X27180500Y-59074410D01*
X27180500Y-58925590D01*
X27161414Y-58829636D01*
X27151469Y-58779636D01*
X27151467Y-58779631D01*
X27151467Y-58779629D01*
X27129082Y-58725585D01*
X48644500Y-58725585D01*
X48644500Y-58874414D01*
X48673530Y-59020363D01*
X48673533Y-59020372D01*
X48730480Y-59157857D01*
X48730487Y-59157870D01*
X48813163Y-59281602D01*
X48813166Y-59281606D01*
X48918393Y-59386833D01*
X48918397Y-59386836D01*
X49042129Y-59469512D01*
X49042142Y-59469519D01*
X49145255Y-59512229D01*
X49179629Y-59526467D01*
X49179631Y-59526467D01*
X49179636Y-59526469D01*
X49325585Y-59555499D01*
X49325589Y-59555500D01*
X49325590Y-59555500D01*
X49474411Y-59555500D01*
X49474412Y-59555499D01*
X49526152Y-59545208D01*
X49620363Y-59526469D01*
X49620366Y-59526467D01*
X49620371Y-59526467D01*
X49757864Y-59469516D01*
X49881603Y-59386836D01*
X49986836Y-59281603D01*
X50069516Y-59157864D01*
X50126467Y-59020371D01*
X50135375Y-58975590D01*
X50155499Y-58874414D01*
X50155500Y-58874411D01*
X50155500Y-58725589D01*
X50155499Y-58725585D01*
X50126469Y-58579636D01*
X50126466Y-58579627D01*
X50121814Y-58568397D01*
X50101104Y-58518397D01*
X50069519Y-58442142D01*
X50069512Y-58442129D01*
X49986836Y-58318397D01*
X49986833Y-58318393D01*
X49881606Y-58213166D01*
X49881602Y-58213163D01*
X49757870Y-58130487D01*
X49757857Y-58130480D01*
X49620372Y-58073533D01*
X49620363Y-58073530D01*
X49474414Y-58044500D01*
X49474410Y-58044500D01*
X49325590Y-58044500D01*
X49325585Y-58044500D01*
X49179636Y-58073530D01*
X49179627Y-58073533D01*
X49042142Y-58130480D01*
X49042129Y-58130487D01*
X48918397Y-58213163D01*
X48918393Y-58213166D01*
X48813166Y-58318393D01*
X48813163Y-58318397D01*
X48730487Y-58442129D01*
X48730480Y-58442142D01*
X48673533Y-58579627D01*
X48673530Y-58579636D01*
X48644500Y-58725585D01*
X27129082Y-58725585D01*
X27115224Y-58692129D01*
X27094519Y-58642141D01*
X27094512Y-58642129D01*
X27011836Y-58518397D01*
X27011833Y-58518393D01*
X26906606Y-58413166D01*
X26906602Y-58413163D01*
X26782870Y-58330487D01*
X26782857Y-58330480D01*
X26645372Y-58273533D01*
X26645363Y-58273530D01*
X26499414Y-58244500D01*
X26499410Y-58244500D01*
X26350590Y-58244500D01*
X26350585Y-58244500D01*
X26204636Y-58273530D01*
X26204627Y-58273533D01*
X26067142Y-58330480D01*
X26067129Y-58330487D01*
X25993891Y-58379424D01*
X25927213Y-58400302D01*
X25859833Y-58381817D01*
X25856109Y-58379424D01*
X25782870Y-58330487D01*
X25782857Y-58330480D01*
X25645372Y-58273533D01*
X25645363Y-58273530D01*
X25499414Y-58244500D01*
X25499410Y-58244500D01*
X25350590Y-58244500D01*
X25350585Y-58244500D01*
X25204636Y-58273530D01*
X25204627Y-58273533D01*
X25067142Y-58330480D01*
X25067129Y-58330487D01*
X24993891Y-58379424D01*
X24927213Y-58400302D01*
X24859833Y-58381817D01*
X24856109Y-58379424D01*
X24782870Y-58330487D01*
X24782857Y-58330480D01*
X24645372Y-58273533D01*
X24645363Y-58273530D01*
X24499414Y-58244500D01*
X24499410Y-58244500D01*
X24350590Y-58244500D01*
X24350585Y-58244500D01*
X24204636Y-58273530D01*
X24204627Y-58273533D01*
X24067142Y-58330480D01*
X24067129Y-58330487D01*
X23993891Y-58379424D01*
X23927213Y-58400302D01*
X23859833Y-58381817D01*
X23856109Y-58379424D01*
X23782870Y-58330487D01*
X23782857Y-58330480D01*
X23645372Y-58273533D01*
X23645363Y-58273530D01*
X23499414Y-58244500D01*
X23499410Y-58244500D01*
X23350590Y-58244500D01*
X23350585Y-58244500D01*
X23204636Y-58273530D01*
X23204627Y-58273533D01*
X23067142Y-58330480D01*
X23067129Y-58330487D01*
X22943891Y-58412833D01*
X22877213Y-58433711D01*
X22809833Y-58415226D01*
X22806109Y-58412833D01*
X22682870Y-58330487D01*
X22682857Y-58330480D01*
X22545372Y-58273533D01*
X22545363Y-58273530D01*
X22399414Y-58244500D01*
X22399410Y-58244500D01*
X22250590Y-58244500D01*
X22250585Y-58244500D01*
X22104636Y-58273530D01*
X22104627Y-58273533D01*
X21967142Y-58330480D01*
X21967129Y-58330487D01*
X21843397Y-58413163D01*
X21843393Y-58413166D01*
X21738166Y-58518393D01*
X21738163Y-58518397D01*
X21655487Y-58642129D01*
X21655480Y-58642142D01*
X21598533Y-58779627D01*
X21598530Y-58779636D01*
X21569500Y-58925585D01*
X20500500Y-58925585D01*
X20500500Y-57575585D01*
X45194500Y-57575585D01*
X45194500Y-57724414D01*
X45223530Y-57870363D01*
X45223533Y-57870372D01*
X45280480Y-58007857D01*
X45280487Y-58007870D01*
X45363163Y-58131602D01*
X45363166Y-58131606D01*
X45468393Y-58236833D01*
X45468397Y-58236836D01*
X45592129Y-58319512D01*
X45592142Y-58319519D01*
X45695255Y-58362229D01*
X45729629Y-58376467D01*
X45729631Y-58376467D01*
X45729636Y-58376469D01*
X45875585Y-58405499D01*
X45875589Y-58405500D01*
X45875590Y-58405500D01*
X46024411Y-58405500D01*
X46024412Y-58405499D01*
X46073063Y-58395822D01*
X46170363Y-58376469D01*
X46170366Y-58376467D01*
X46170371Y-58376467D01*
X46307864Y-58319516D01*
X46431603Y-58236836D01*
X46536836Y-58131603D01*
X46619516Y-58007864D01*
X46676467Y-57870371D01*
X46688901Y-57807863D01*
X46705499Y-57724414D01*
X46705500Y-57724411D01*
X46705500Y-57575589D01*
X46705499Y-57575585D01*
X46676469Y-57429636D01*
X46676466Y-57429627D01*
X46619519Y-57292142D01*
X46619512Y-57292129D01*
X46536836Y-57168397D01*
X46536833Y-57168393D01*
X46431606Y-57063166D01*
X46431602Y-57063163D01*
X46307870Y-56980487D01*
X46307857Y-56980480D01*
X46170372Y-56923533D01*
X46170363Y-56923530D01*
X46024414Y-56894500D01*
X46024410Y-56894500D01*
X45875590Y-56894500D01*
X45875585Y-56894500D01*
X45729636Y-56923530D01*
X45729627Y-56923533D01*
X45592142Y-56980480D01*
X45592129Y-56980487D01*
X45468397Y-57063163D01*
X45468393Y-57063166D01*
X45363166Y-57168393D01*
X45363163Y-57168397D01*
X45280487Y-57292129D01*
X45280480Y-57292142D01*
X45223533Y-57429627D01*
X45223530Y-57429636D01*
X45194500Y-57575585D01*
X20500500Y-57575585D01*
X20500500Y-56139948D01*
X20520185Y-56072909D01*
X20572989Y-56027154D01*
X20642147Y-56017210D01*
X20702861Y-56043847D01*
X20759087Y-56089693D01*
X20759087Y-56089694D01*
X20759090Y-56089695D01*
X20759093Y-56089698D01*
X20939451Y-56183909D01*
X21135082Y-56239886D01*
X21254463Y-56250500D01*
X24870536Y-56250499D01*
X24989918Y-56239886D01*
X25185549Y-56183909D01*
X25365907Y-56089698D01*
X25523609Y-55961109D01*
X25652198Y-55803407D01*
X25746409Y-55623049D01*
X25802386Y-55427418D01*
X25811440Y-55325585D01*
X42244500Y-55325585D01*
X42244500Y-55474414D01*
X42273530Y-55620363D01*
X42273533Y-55620372D01*
X42330480Y-55757857D01*
X42330487Y-55757870D01*
X42413163Y-55881602D01*
X42413166Y-55881606D01*
X42518393Y-55986833D01*
X42518397Y-55986836D01*
X42642129Y-56069512D01*
X42642142Y-56069519D01*
X42703158Y-56094792D01*
X42779629Y-56126467D01*
X42779631Y-56126467D01*
X42779636Y-56126469D01*
X42925585Y-56155499D01*
X42925589Y-56155500D01*
X42925590Y-56155500D01*
X43074411Y-56155500D01*
X43074412Y-56155499D01*
X43123063Y-56145822D01*
X43220363Y-56126469D01*
X43220366Y-56126467D01*
X43220371Y-56126467D01*
X43357864Y-56069516D01*
X43481603Y-55986836D01*
X43586836Y-55881603D01*
X43669516Y-55757864D01*
X43726467Y-55620371D01*
X43755500Y-55474410D01*
X43755500Y-55325590D01*
X43752007Y-55308031D01*
X43726469Y-55179636D01*
X43726466Y-55179627D01*
X43669519Y-55042142D01*
X43669512Y-55042129D01*
X43586836Y-54918397D01*
X43586833Y-54918393D01*
X43481606Y-54813166D01*
X43481602Y-54813163D01*
X43357870Y-54730487D01*
X43357857Y-54730480D01*
X43220372Y-54673533D01*
X43220363Y-54673530D01*
X43074414Y-54644500D01*
X43074410Y-54644500D01*
X42925590Y-54644500D01*
X42925585Y-54644500D01*
X42779636Y-54673530D01*
X42779627Y-54673533D01*
X42642142Y-54730480D01*
X42642129Y-54730487D01*
X42518397Y-54813163D01*
X42518393Y-54813166D01*
X42413166Y-54918393D01*
X42413163Y-54918397D01*
X42330487Y-55042129D01*
X42330480Y-55042142D01*
X42273533Y-55179627D01*
X42273530Y-55179636D01*
X42244500Y-55325585D01*
X25811440Y-55325585D01*
X25813000Y-55308037D01*
X25812999Y-54375585D01*
X50619500Y-54375585D01*
X50619500Y-54524414D01*
X50648530Y-54670363D01*
X50648533Y-54670372D01*
X50705480Y-54807857D01*
X50705487Y-54807870D01*
X50788163Y-54931602D01*
X50788166Y-54931606D01*
X50893393Y-55036833D01*
X50893397Y-55036836D01*
X51017129Y-55119512D01*
X51017142Y-55119519D01*
X51120255Y-55162229D01*
X51154629Y-55176467D01*
X51154631Y-55176467D01*
X51154636Y-55176469D01*
X51300585Y-55205499D01*
X51300589Y-55205500D01*
X51300590Y-55205500D01*
X51449411Y-55205500D01*
X51449412Y-55205499D01*
X51498063Y-55195822D01*
X51595363Y-55176469D01*
X51595366Y-55176467D01*
X51595371Y-55176467D01*
X51732864Y-55119516D01*
X51856603Y-55036836D01*
X51961836Y-54931603D01*
X52044516Y-54807864D01*
X52101467Y-54670371D01*
X52114151Y-54606606D01*
X52130499Y-54524414D01*
X52130500Y-54524411D01*
X52130500Y-54375589D01*
X52130499Y-54375585D01*
X52101469Y-54229636D01*
X52101466Y-54229627D01*
X52044519Y-54092142D01*
X52044512Y-54092129D01*
X51961836Y-53968397D01*
X51961833Y-53968393D01*
X51856606Y-53863166D01*
X51856602Y-53863163D01*
X51732870Y-53780487D01*
X51732857Y-53780480D01*
X51595372Y-53723533D01*
X51595363Y-53723530D01*
X51449414Y-53694500D01*
X51449410Y-53694500D01*
X51300590Y-53694500D01*
X51300585Y-53694500D01*
X51154636Y-53723530D01*
X51154627Y-53723533D01*
X51017142Y-53780480D01*
X51017129Y-53780487D01*
X50893397Y-53863163D01*
X50893393Y-53863166D01*
X50788166Y-53968393D01*
X50788163Y-53968397D01*
X50705487Y-54092129D01*
X50705480Y-54092142D01*
X50648533Y-54229627D01*
X50648530Y-54229636D01*
X50619500Y-54375585D01*
X25812999Y-54375585D01*
X25812999Y-53998928D01*
X25812999Y-52691971D01*
X25812999Y-52691964D01*
X25802386Y-52572582D01*
X25746409Y-52376951D01*
X25652198Y-52196593D01*
X25594299Y-52125585D01*
X44844500Y-52125585D01*
X44844500Y-52274414D01*
X44873530Y-52420363D01*
X44873533Y-52420372D01*
X44930480Y-52557857D01*
X44930487Y-52557870D01*
X45013163Y-52681602D01*
X45013166Y-52681606D01*
X45118393Y-52786833D01*
X45118397Y-52786836D01*
X45242129Y-52869512D01*
X45242142Y-52869519D01*
X45342981Y-52911287D01*
X45379629Y-52926467D01*
X45379631Y-52926467D01*
X45379636Y-52926469D01*
X45525585Y-52955499D01*
X45525589Y-52955500D01*
X45525590Y-52955500D01*
X45674411Y-52955500D01*
X45674412Y-52955499D01*
X45723063Y-52945822D01*
X45820363Y-52926469D01*
X45820366Y-52926467D01*
X45820371Y-52926467D01*
X45957864Y-52869516D01*
X46081603Y-52786836D01*
X46186836Y-52681603D01*
X46269516Y-52557864D01*
X46326467Y-52420371D01*
X46355500Y-52274410D01*
X46355500Y-52125590D01*
X46327190Y-51983262D01*
X46326469Y-51979636D01*
X46326466Y-51979627D01*
X46269519Y-51842142D01*
X46269512Y-51842129D01*
X46186836Y-51718397D01*
X46186833Y-51718393D01*
X46081606Y-51613166D01*
X46081602Y-51613163D01*
X45957870Y-51530487D01*
X45957857Y-51530480D01*
X45820372Y-51473533D01*
X45820363Y-51473530D01*
X45674414Y-51444500D01*
X45674410Y-51444500D01*
X45525590Y-51444500D01*
X45525585Y-51444500D01*
X45379636Y-51473530D01*
X45379627Y-51473533D01*
X45242142Y-51530480D01*
X45242129Y-51530487D01*
X45118397Y-51613163D01*
X45118393Y-51613166D01*
X45013166Y-51718393D01*
X45013163Y-51718397D01*
X44930487Y-51842129D01*
X44930480Y-51842142D01*
X44873533Y-51979627D01*
X44873530Y-51979636D01*
X44844500Y-52125585D01*
X25594299Y-52125585D01*
X25571137Y-52097179D01*
X25523609Y-52038890D01*
X25382629Y-51923937D01*
X25365907Y-51910302D01*
X25185549Y-51816091D01*
X25185548Y-51816090D01*
X25185545Y-51816089D01*
X25068329Y-51782550D01*
X24989918Y-51760114D01*
X24989915Y-51760113D01*
X24989913Y-51760113D01*
X24923602Y-51754217D01*
X24870537Y-51749500D01*
X24870532Y-51749500D01*
X21254471Y-51749500D01*
X21254465Y-51749500D01*
X21254464Y-51749501D01*
X21242816Y-51750536D01*
X21135084Y-51760113D01*
X20939454Y-51816089D01*
X20759087Y-51910305D01*
X20702860Y-51956153D01*
X20638464Y-51983262D01*
X20569634Y-51971252D01*
X20518224Y-51923937D01*
X20500500Y-51860051D01*
X20500500Y-45921153D01*
X33099500Y-45921153D01*
X33099500Y-46078846D01*
X33130261Y-46233489D01*
X33130264Y-46233501D01*
X33190602Y-46379172D01*
X33190609Y-46379185D01*
X33278210Y-46510288D01*
X33278213Y-46510292D01*
X33389707Y-46621786D01*
X33389711Y-46621789D01*
X33520814Y-46709390D01*
X33520827Y-46709397D01*
X33666498Y-46769735D01*
X33666503Y-46769737D01*
X33821153Y-46800499D01*
X33821156Y-46800500D01*
X33821158Y-46800500D01*
X33978844Y-46800500D01*
X33978845Y-46800499D01*
X34133497Y-46769737D01*
X34279179Y-46709394D01*
X34410289Y-46621789D01*
X34521789Y-46510289D01*
X34609394Y-46379179D01*
X34669737Y-46233497D01*
X34700500Y-46078842D01*
X34700500Y-45921158D01*
X34700500Y-45921155D01*
X34700499Y-45921153D01*
X34669738Y-45766510D01*
X34669737Y-45766503D01*
X34669735Y-45766498D01*
X34609397Y-45620827D01*
X34609390Y-45620814D01*
X34521789Y-45489711D01*
X34521786Y-45489707D01*
X34410292Y-45378213D01*
X34410288Y-45378210D01*
X34279185Y-45290609D01*
X34279172Y-45290602D01*
X34133501Y-45230264D01*
X34133489Y-45230261D01*
X33978845Y-45199500D01*
X33978842Y-45199500D01*
X33821158Y-45199500D01*
X33821155Y-45199500D01*
X33666510Y-45230261D01*
X33666498Y-45230264D01*
X33520827Y-45290602D01*
X33520814Y-45290609D01*
X33389711Y-45378210D01*
X33389707Y-45378213D01*
X33278213Y-45489707D01*
X33278210Y-45489711D01*
X33190609Y-45620814D01*
X33190602Y-45620827D01*
X33130264Y-45766498D01*
X33130261Y-45766510D01*
X33099500Y-45921153D01*
X20500500Y-45921153D01*
X20500500Y-42909635D01*
X43802500Y-42909635D01*
X43802500Y-45305370D01*
X43802501Y-45305376D01*
X43808908Y-45364983D01*
X43859202Y-45499828D01*
X43859206Y-45499835D01*
X43945452Y-45615044D01*
X43945455Y-45615047D01*
X44060664Y-45701293D01*
X44060671Y-45701297D01*
X44195517Y-45751591D01*
X44195516Y-45751591D01*
X44202444Y-45752335D01*
X44255127Y-45758000D01*
X45850872Y-45757999D01*
X45910483Y-45751591D01*
X46045331Y-45701296D01*
X46160546Y-45615046D01*
X46246796Y-45499831D01*
X46297091Y-45364983D01*
X46303500Y-45305373D01*
X46303499Y-43609077D01*
X48882500Y-43609077D01*
X48882500Y-44605922D01*
X48913290Y-44800326D01*
X48974117Y-44987529D01*
X49020578Y-45078713D01*
X49063476Y-45162905D01*
X49179172Y-45322146D01*
X49318354Y-45461328D01*
X49477595Y-45577024D01*
X49552214Y-45615044D01*
X49652970Y-45666382D01*
X49652972Y-45666382D01*
X49652975Y-45666384D01*
X49753317Y-45698987D01*
X49840173Y-45727209D01*
X50034578Y-45758000D01*
X50034583Y-45758000D01*
X50231422Y-45758000D01*
X50425826Y-45727209D01*
X50613025Y-45666384D01*
X50788405Y-45577024D01*
X50947646Y-45461328D01*
X51086828Y-45322146D01*
X51202524Y-45162905D01*
X51291884Y-44987525D01*
X51352709Y-44800326D01*
X51362460Y-44738760D01*
X51383500Y-44605922D01*
X51383500Y-43609077D01*
X51352709Y-43414673D01*
X51291882Y-43227470D01*
X51202523Y-43052094D01*
X51086828Y-42892854D01*
X50947646Y-42753672D01*
X50788405Y-42637976D01*
X50613029Y-42548617D01*
X50425826Y-42487790D01*
X50231422Y-42457000D01*
X50231417Y-42457000D01*
X50034583Y-42457000D01*
X50034578Y-42457000D01*
X49840173Y-42487790D01*
X49652970Y-42548617D01*
X49477594Y-42637976D01*
X49386741Y-42703985D01*
X49318354Y-42753672D01*
X49318352Y-42753674D01*
X49318351Y-42753674D01*
X49179174Y-42892851D01*
X49179174Y-42892852D01*
X49179172Y-42892854D01*
X49166980Y-42909635D01*
X49063476Y-43052094D01*
X48974117Y-43227470D01*
X48913290Y-43414673D01*
X48882500Y-43609077D01*
X46303499Y-43609077D01*
X46303499Y-42909628D01*
X46297091Y-42850017D01*
X46261157Y-42753674D01*
X46246797Y-42715171D01*
X46246793Y-42715164D01*
X46160547Y-42599955D01*
X46160544Y-42599952D01*
X46045335Y-42513706D01*
X46045328Y-42513702D01*
X45910482Y-42463408D01*
X45910483Y-42463408D01*
X45850883Y-42457001D01*
X45850881Y-42457000D01*
X45850873Y-42457000D01*
X45850864Y-42457000D01*
X44255129Y-42457000D01*
X44255123Y-42457001D01*
X44195516Y-42463408D01*
X44060671Y-42513702D01*
X44060664Y-42513706D01*
X43945455Y-42599952D01*
X43945452Y-42599955D01*
X43859206Y-42715164D01*
X43859202Y-42715171D01*
X43808908Y-42850017D01*
X43804303Y-42892854D01*
X43802501Y-42909623D01*
X43802500Y-42909635D01*
X20500500Y-42909635D01*
X20500500Y-39225585D01*
X65744500Y-39225585D01*
X65744500Y-39374414D01*
X65773530Y-39520363D01*
X65773533Y-39520372D01*
X65830480Y-39657857D01*
X65830487Y-39657870D01*
X65913163Y-39781602D01*
X65913166Y-39781606D01*
X66018393Y-39886833D01*
X66018397Y-39886836D01*
X66142129Y-39969512D01*
X66142142Y-39969519D01*
X66245255Y-40012229D01*
X66279629Y-40026467D01*
X66279631Y-40026467D01*
X66279636Y-40026469D01*
X66425585Y-40055499D01*
X66425589Y-40055500D01*
X66425590Y-40055500D01*
X66574411Y-40055500D01*
X66574412Y-40055499D01*
X66623063Y-40045822D01*
X66720363Y-40026469D01*
X66720366Y-40026467D01*
X66720371Y-40026467D01*
X66857864Y-39969516D01*
X66981603Y-39886836D01*
X67086836Y-39781603D01*
X67169516Y-39657864D01*
X67226467Y-39520371D01*
X67255500Y-39374410D01*
X67255500Y-39225590D01*
X67255240Y-39224286D01*
X67226469Y-39079636D01*
X67226466Y-39079627D01*
X67216472Y-39055500D01*
X67204446Y-39026466D01*
X67169519Y-38942142D01*
X67169512Y-38942129D01*
X67086836Y-38818397D01*
X67086833Y-38818393D01*
X66981606Y-38713166D01*
X66981602Y-38713163D01*
X66857870Y-38630487D01*
X66857857Y-38630480D01*
X66720372Y-38573533D01*
X66720363Y-38573530D01*
X66574414Y-38544500D01*
X66574410Y-38544500D01*
X66425590Y-38544500D01*
X66425585Y-38544500D01*
X66279636Y-38573530D01*
X66279627Y-38573533D01*
X66142142Y-38630480D01*
X66142129Y-38630487D01*
X66018397Y-38713163D01*
X66018393Y-38713166D01*
X65913166Y-38818393D01*
X65913163Y-38818397D01*
X65830487Y-38942129D01*
X65830480Y-38942142D01*
X65773533Y-39079627D01*
X65773530Y-39079636D01*
X65744500Y-39225585D01*
X20500500Y-39225585D01*
X20500500Y-37225585D01*
X69894500Y-37225585D01*
X69894500Y-37374414D01*
X69923530Y-37520363D01*
X69923533Y-37520372D01*
X69980480Y-37657857D01*
X69980487Y-37657870D01*
X70029424Y-37731109D01*
X70050302Y-37797787D01*
X70031817Y-37865167D01*
X70029424Y-37868891D01*
X69980487Y-37942129D01*
X69980480Y-37942142D01*
X69923533Y-38079627D01*
X69923530Y-38079636D01*
X69894500Y-38225585D01*
X69894500Y-38374414D01*
X69923530Y-38520363D01*
X69923533Y-38520372D01*
X69980480Y-38657857D01*
X69980487Y-38657870D01*
X70063163Y-38781602D01*
X70063166Y-38781606D01*
X70168393Y-38886833D01*
X70168397Y-38886836D01*
X70292129Y-38969512D01*
X70292142Y-38969519D01*
X70395255Y-39012229D01*
X70429629Y-39026467D01*
X70429631Y-39026467D01*
X70429636Y-39026469D01*
X70575585Y-39055499D01*
X70575589Y-39055500D01*
X70575590Y-39055500D01*
X70724411Y-39055500D01*
X70724412Y-39055499D01*
X70773063Y-39045822D01*
X70870363Y-39026469D01*
X70870366Y-39026467D01*
X70870371Y-39026467D01*
X71007864Y-38969516D01*
X71131603Y-38886836D01*
X71236836Y-38781603D01*
X71319516Y-38657864D01*
X71376467Y-38520371D01*
X71405500Y-38374410D01*
X71405500Y-38225590D01*
X71394517Y-38170372D01*
X71376469Y-38079636D01*
X71376466Y-38079627D01*
X71319519Y-37942142D01*
X71319512Y-37942129D01*
X71317014Y-37938391D01*
X71317013Y-37938390D01*
X71275051Y-37875590D01*
X71275048Y-37875585D01*
X72794500Y-37875585D01*
X72794500Y-38024414D01*
X72823530Y-38170363D01*
X72823533Y-38170372D01*
X72880480Y-38307857D01*
X72880487Y-38307870D01*
X72963163Y-38431602D01*
X72963166Y-38431606D01*
X73068393Y-38536833D01*
X73068397Y-38536836D01*
X73192129Y-38619512D01*
X73192142Y-38619519D01*
X73295255Y-38662229D01*
X73329629Y-38676467D01*
X73329631Y-38676467D01*
X73329636Y-38676469D01*
X73475585Y-38705499D01*
X73475589Y-38705500D01*
X73475590Y-38705500D01*
X73624411Y-38705500D01*
X73624412Y-38705499D01*
X73673063Y-38695822D01*
X73770363Y-38676469D01*
X73770366Y-38676467D01*
X73770371Y-38676467D01*
X73907864Y-38619516D01*
X74031603Y-38536836D01*
X74136836Y-38431603D01*
X74219516Y-38307864D01*
X74276467Y-38170371D01*
X74305500Y-38024410D01*
X74305500Y-37875590D01*
X74290905Y-37802214D01*
X74276469Y-37729636D01*
X74276466Y-37729627D01*
X74219519Y-37592142D01*
X74219512Y-37592129D01*
X74136836Y-37468397D01*
X74136833Y-37468393D01*
X74031606Y-37363166D01*
X74031602Y-37363163D01*
X73907870Y-37280487D01*
X73907857Y-37280480D01*
X73770372Y-37223533D01*
X73770363Y-37223530D01*
X73624414Y-37194500D01*
X73624410Y-37194500D01*
X73475590Y-37194500D01*
X73475585Y-37194500D01*
X73329636Y-37223530D01*
X73329627Y-37223533D01*
X73192142Y-37280480D01*
X73192129Y-37280487D01*
X73068397Y-37363163D01*
X73068393Y-37363166D01*
X72963166Y-37468393D01*
X72963163Y-37468397D01*
X72880487Y-37592129D01*
X72880480Y-37592142D01*
X72823533Y-37729627D01*
X72823530Y-37729636D01*
X72794500Y-37875585D01*
X71275048Y-37875585D01*
X71270574Y-37868889D01*
X71249697Y-37802214D01*
X71268181Y-37734834D01*
X71270555Y-37731138D01*
X71319516Y-37657864D01*
X71376467Y-37520371D01*
X71405500Y-37374410D01*
X71405500Y-37225590D01*
X71399316Y-37194500D01*
X71376469Y-37079636D01*
X71376466Y-37079627D01*
X71319519Y-36942142D01*
X71319512Y-36942129D01*
X71236836Y-36818397D01*
X71236833Y-36818393D01*
X71131606Y-36713166D01*
X71131602Y-36713163D01*
X71007870Y-36630487D01*
X71007857Y-36630480D01*
X70870372Y-36573533D01*
X70870363Y-36573530D01*
X70724414Y-36544500D01*
X70724410Y-36544500D01*
X70575590Y-36544500D01*
X70575585Y-36544500D01*
X70429636Y-36573530D01*
X70429627Y-36573533D01*
X70292142Y-36630480D01*
X70292129Y-36630487D01*
X70168397Y-36713163D01*
X70168393Y-36713166D01*
X70063166Y-36818393D01*
X70063163Y-36818397D01*
X69980487Y-36942129D01*
X69980480Y-36942142D01*
X69923533Y-37079627D01*
X69923530Y-37079636D01*
X69894500Y-37225585D01*
X20500500Y-37225585D01*
X20500500Y-35509317D01*
X81435768Y-35509317D01*
X81435768Y-35658146D01*
X81464798Y-35804095D01*
X81464801Y-35804104D01*
X81521748Y-35941589D01*
X81521755Y-35941602D01*
X81604431Y-36065334D01*
X81604434Y-36065338D01*
X81709661Y-36170565D01*
X81709665Y-36170568D01*
X81833397Y-36253244D01*
X81833410Y-36253251D01*
X81936523Y-36295961D01*
X81970897Y-36310199D01*
X81970899Y-36310199D01*
X81970904Y-36310201D01*
X82116853Y-36339231D01*
X82116857Y-36339232D01*
X82116858Y-36339232D01*
X82265679Y-36339232D01*
X82265680Y-36339231D01*
X82314331Y-36329554D01*
X82411631Y-36310201D01*
X82411634Y-36310199D01*
X82411639Y-36310199D01*
X82549132Y-36253248D01*
X82672871Y-36170568D01*
X82778104Y-36065335D01*
X82860784Y-35941596D01*
X82917735Y-35804103D01*
X82946768Y-35658142D01*
X82946768Y-35509322D01*
X82946508Y-35508018D01*
X82917737Y-35363368D01*
X82917734Y-35363359D01*
X82860787Y-35225874D01*
X82860780Y-35225861D01*
X82778104Y-35102129D01*
X82778101Y-35102125D01*
X82672874Y-34996898D01*
X82672870Y-34996895D01*
X82549138Y-34914219D01*
X82549125Y-34914212D01*
X82411640Y-34857265D01*
X82411631Y-34857262D01*
X82265682Y-34828232D01*
X82265678Y-34828232D01*
X82116858Y-34828232D01*
X82116853Y-34828232D01*
X81970904Y-34857262D01*
X81970895Y-34857265D01*
X81833410Y-34914212D01*
X81833397Y-34914219D01*
X81709665Y-34996895D01*
X81709661Y-34996898D01*
X81604434Y-35102125D01*
X81604431Y-35102129D01*
X81521755Y-35225861D01*
X81521748Y-35225874D01*
X81464801Y-35363359D01*
X81464798Y-35363368D01*
X81435768Y-35509317D01*
X20500500Y-35509317D01*
X20500500Y-34325585D01*
X49644500Y-34325585D01*
X49644500Y-34474414D01*
X49673530Y-34620363D01*
X49673533Y-34620372D01*
X49730480Y-34757857D01*
X49730487Y-34757870D01*
X49813163Y-34881602D01*
X49813166Y-34881606D01*
X49918393Y-34986833D01*
X49918397Y-34986836D01*
X50042129Y-35069512D01*
X50042142Y-35069519D01*
X50120871Y-35102129D01*
X50179629Y-35126467D01*
X50179631Y-35126467D01*
X50179636Y-35126469D01*
X50325585Y-35155499D01*
X50325589Y-35155500D01*
X50325590Y-35155500D01*
X50474411Y-35155500D01*
X50474412Y-35155499D01*
X50523063Y-35145822D01*
X50620363Y-35126469D01*
X50620366Y-35126467D01*
X50620371Y-35126467D01*
X50757864Y-35069516D01*
X50881603Y-34986836D01*
X50986836Y-34881603D01*
X51069516Y-34757864D01*
X51126467Y-34620371D01*
X51139371Y-34555500D01*
X51150294Y-34500585D01*
X55044500Y-34500585D01*
X55044500Y-34649414D01*
X55073530Y-34795363D01*
X55073533Y-34795372D01*
X55130480Y-34932857D01*
X55130487Y-34932870D01*
X55213163Y-35056602D01*
X55213166Y-35056606D01*
X55318393Y-35161833D01*
X55318397Y-35161836D01*
X55442129Y-35244512D01*
X55442142Y-35244519D01*
X55519273Y-35276467D01*
X55579629Y-35301467D01*
X55579631Y-35301467D01*
X55579636Y-35301469D01*
X55725585Y-35330499D01*
X55725589Y-35330500D01*
X55725590Y-35330500D01*
X55874411Y-35330500D01*
X55874412Y-35330499D01*
X55923063Y-35320822D01*
X56020363Y-35301469D01*
X56020366Y-35301467D01*
X56020371Y-35301467D01*
X56157864Y-35244516D01*
X56281603Y-35161836D01*
X56386836Y-35056603D01*
X56469516Y-34932864D01*
X56526467Y-34795371D01*
X56531442Y-34770363D01*
X56555499Y-34649414D01*
X56555500Y-34649411D01*
X56555500Y-34500590D01*
X56554127Y-34493687D01*
X56554127Y-34493684D01*
X56550527Y-34475585D01*
X68094500Y-34475585D01*
X68094500Y-34624414D01*
X68123530Y-34770363D01*
X68123533Y-34770372D01*
X68180480Y-34907857D01*
X68180487Y-34907870D01*
X68263163Y-35031602D01*
X68263166Y-35031606D01*
X68368393Y-35136833D01*
X68368397Y-35136836D01*
X68492129Y-35219512D01*
X68492142Y-35219519D01*
X68552499Y-35244519D01*
X68629629Y-35276467D01*
X68629631Y-35276467D01*
X68629636Y-35276469D01*
X68775585Y-35305499D01*
X68775589Y-35305500D01*
X68775590Y-35305500D01*
X68924411Y-35305500D01*
X68924412Y-35305499D01*
X68973063Y-35295822D01*
X69070363Y-35276469D01*
X69070366Y-35276467D01*
X69070371Y-35276467D01*
X69207864Y-35219516D01*
X69331603Y-35136836D01*
X69436836Y-35031603D01*
X69519516Y-34907864D01*
X69576467Y-34770371D01*
X69578957Y-34757857D01*
X69605499Y-34624414D01*
X69605500Y-34624411D01*
X69605500Y-34475589D01*
X69605499Y-34475585D01*
X69576469Y-34329636D01*
X69576466Y-34329627D01*
X69574793Y-34325589D01*
X69529874Y-34217142D01*
X69519519Y-34192142D01*
X69519512Y-34192129D01*
X69436836Y-34068397D01*
X69436833Y-34068393D01*
X69331606Y-33963166D01*
X69331602Y-33963163D01*
X69207870Y-33880487D01*
X69207858Y-33880480D01*
X69095783Y-33834059D01*
X69070372Y-33823533D01*
X69070363Y-33823530D01*
X68924414Y-33794500D01*
X68924410Y-33794500D01*
X68775590Y-33794500D01*
X68775585Y-33794500D01*
X68629636Y-33823530D01*
X68629627Y-33823533D01*
X68492142Y-33880480D01*
X68492129Y-33880487D01*
X68368397Y-33963163D01*
X68368393Y-33963166D01*
X68263166Y-34068393D01*
X68263163Y-34068397D01*
X68180487Y-34192129D01*
X68180480Y-34192142D01*
X68123533Y-34329627D01*
X68123530Y-34329636D01*
X68094500Y-34475585D01*
X56550527Y-34475585D01*
X56526469Y-34354636D01*
X56526466Y-34354627D01*
X56469519Y-34217142D01*
X56469512Y-34217129D01*
X56386836Y-34093397D01*
X56386833Y-34093393D01*
X56281606Y-33988166D01*
X56281602Y-33988163D01*
X56157870Y-33905487D01*
X56157857Y-33905480D01*
X56020372Y-33848533D01*
X56020363Y-33848530D01*
X55874414Y-33819500D01*
X55874410Y-33819500D01*
X55725590Y-33819500D01*
X55725585Y-33819500D01*
X55579636Y-33848530D01*
X55579627Y-33848533D01*
X55442142Y-33905480D01*
X55442129Y-33905487D01*
X55318397Y-33988163D01*
X55318393Y-33988166D01*
X55213166Y-34093393D01*
X55213163Y-34093397D01*
X55130487Y-34217129D01*
X55130480Y-34217142D01*
X55073533Y-34354627D01*
X55073530Y-34354636D01*
X55044500Y-34500585D01*
X51150294Y-34500585D01*
X51155499Y-34474417D01*
X51155500Y-34474411D01*
X51155500Y-34325589D01*
X51155499Y-34325585D01*
X51126469Y-34179636D01*
X51126466Y-34179627D01*
X51069519Y-34042142D01*
X51069512Y-34042129D01*
X50986836Y-33918397D01*
X50986833Y-33918393D01*
X50881606Y-33813166D01*
X50881602Y-33813163D01*
X50757870Y-33730487D01*
X50757857Y-33730480D01*
X50746039Y-33725585D01*
X84669500Y-33725585D01*
X84669500Y-33874414D01*
X84698530Y-34020363D01*
X84698533Y-34020372D01*
X84755480Y-34157857D01*
X84755487Y-34157870D01*
X84838163Y-34281602D01*
X84838166Y-34281606D01*
X84943393Y-34386833D01*
X84943397Y-34386836D01*
X85067129Y-34469512D01*
X85067142Y-34469519D01*
X85142156Y-34500590D01*
X85204629Y-34526467D01*
X85204631Y-34526467D01*
X85204636Y-34526469D01*
X85350585Y-34555499D01*
X85350589Y-34555500D01*
X85350590Y-34555500D01*
X85499411Y-34555500D01*
X85499412Y-34555499D01*
X85548063Y-34545822D01*
X85645363Y-34526469D01*
X85645366Y-34526467D01*
X85645371Y-34526467D01*
X85782864Y-34469516D01*
X85906603Y-34386836D01*
X86011836Y-34281603D01*
X86094516Y-34157864D01*
X86151467Y-34020371D01*
X86157874Y-33988164D01*
X86179292Y-33880484D01*
X86180500Y-33874410D01*
X86180500Y-33725590D01*
X86180240Y-33724286D01*
X86151469Y-33579636D01*
X86151466Y-33579627D01*
X86094519Y-33442142D01*
X86094512Y-33442129D01*
X86011836Y-33318397D01*
X86011833Y-33318393D01*
X85906606Y-33213166D01*
X85906602Y-33213163D01*
X85782870Y-33130487D01*
X85782857Y-33130480D01*
X85645372Y-33073533D01*
X85645363Y-33073530D01*
X85499414Y-33044500D01*
X85499410Y-33044500D01*
X85350590Y-33044500D01*
X85350585Y-33044500D01*
X85204636Y-33073530D01*
X85204627Y-33073533D01*
X85067142Y-33130480D01*
X85067129Y-33130487D01*
X84943397Y-33213163D01*
X84943393Y-33213166D01*
X84838166Y-33318393D01*
X84838163Y-33318397D01*
X84755487Y-33442129D01*
X84755480Y-33442142D01*
X84698533Y-33579627D01*
X84698530Y-33579636D01*
X84669500Y-33725585D01*
X50746039Y-33725585D01*
X50620372Y-33673533D01*
X50620363Y-33673530D01*
X50474414Y-33644500D01*
X50474410Y-33644500D01*
X50325590Y-33644500D01*
X50325585Y-33644500D01*
X50179636Y-33673530D01*
X50179627Y-33673533D01*
X50042142Y-33730480D01*
X50042129Y-33730487D01*
X49918397Y-33813163D01*
X49918393Y-33813166D01*
X49813166Y-33918393D01*
X49813163Y-33918397D01*
X49730487Y-34042129D01*
X49730480Y-34042142D01*
X49673533Y-34179627D01*
X49673530Y-34179636D01*
X49644500Y-34325585D01*
X20500500Y-34325585D01*
X20500500Y-30902135D01*
X23649500Y-30902135D01*
X23649500Y-32697870D01*
X23649501Y-32697876D01*
X23655908Y-32757483D01*
X23706202Y-32892328D01*
X23706206Y-32892335D01*
X23792452Y-33007544D01*
X23792455Y-33007547D01*
X23907664Y-33093793D01*
X23907671Y-33093797D01*
X24042517Y-33144091D01*
X24042516Y-33144091D01*
X24049444Y-33144835D01*
X24102127Y-33150500D01*
X25897872Y-33150499D01*
X25957483Y-33144091D01*
X26092331Y-33093796D01*
X26207546Y-33007546D01*
X26268902Y-32925585D01*
X46544500Y-32925585D01*
X46544500Y-33074414D01*
X46573530Y-33220363D01*
X46573533Y-33220372D01*
X46630480Y-33357857D01*
X46630487Y-33357870D01*
X46713163Y-33481602D01*
X46713166Y-33481606D01*
X46818393Y-33586833D01*
X46818397Y-33586836D01*
X46942129Y-33669512D01*
X46942142Y-33669519D01*
X47045255Y-33712229D01*
X47079629Y-33726467D01*
X47079631Y-33726467D01*
X47079636Y-33726469D01*
X47225585Y-33755499D01*
X47225589Y-33755500D01*
X47225590Y-33755500D01*
X47374411Y-33755500D01*
X47374412Y-33755499D01*
X47423063Y-33745822D01*
X47520363Y-33726469D01*
X47520366Y-33726467D01*
X47520371Y-33726467D01*
X47657864Y-33669516D01*
X47781603Y-33586836D01*
X47886836Y-33481603D01*
X47969516Y-33357864D01*
X48026467Y-33220371D01*
X48027901Y-33213166D01*
X48051644Y-33093796D01*
X48055500Y-33074410D01*
X48055500Y-32925590D01*
X48048885Y-32892335D01*
X48026469Y-32779636D01*
X48026466Y-32779627D01*
X48000505Y-32716950D01*
X47983371Y-32675585D01*
X63944500Y-32675585D01*
X63944500Y-32824414D01*
X63973530Y-32970363D01*
X63973533Y-32970372D01*
X64030480Y-33107857D01*
X64030487Y-33107870D01*
X64113163Y-33231602D01*
X64113166Y-33231606D01*
X64218393Y-33336833D01*
X64218397Y-33336836D01*
X64342129Y-33419512D01*
X64342142Y-33419519D01*
X64396760Y-33442142D01*
X64479629Y-33476467D01*
X64479631Y-33476467D01*
X64479636Y-33476469D01*
X64625585Y-33505499D01*
X64625589Y-33505500D01*
X64625590Y-33505500D01*
X64774411Y-33505500D01*
X64774412Y-33505499D01*
X64823063Y-33495822D01*
X64920363Y-33476469D01*
X64920366Y-33476467D01*
X64920371Y-33476467D01*
X65057864Y-33419516D01*
X65181603Y-33336836D01*
X65286836Y-33231603D01*
X65369516Y-33107864D01*
X65426467Y-32970371D01*
X65435375Y-32925590D01*
X65455499Y-32824414D01*
X65455500Y-32824411D01*
X65455500Y-32675589D01*
X65455499Y-32675585D01*
X65426469Y-32529636D01*
X65426466Y-32529627D01*
X65421814Y-32518397D01*
X65378226Y-32413163D01*
X65369519Y-32392142D01*
X65369512Y-32392129D01*
X65367013Y-32388389D01*
X65325048Y-32325585D01*
X89069500Y-32325585D01*
X89069500Y-32474414D01*
X89098530Y-32620363D01*
X89098533Y-32620372D01*
X89155480Y-32757857D01*
X89155487Y-32757870D01*
X89238163Y-32881602D01*
X89238166Y-32881606D01*
X89343393Y-32986833D01*
X89343397Y-32986836D01*
X89467129Y-33069512D01*
X89467142Y-33069519D01*
X89570255Y-33112229D01*
X89604629Y-33126467D01*
X89604631Y-33126467D01*
X89604636Y-33126469D01*
X89750585Y-33155499D01*
X89750589Y-33155500D01*
X89750590Y-33155500D01*
X89899411Y-33155500D01*
X89899412Y-33155499D01*
X89956768Y-33144091D01*
X90045363Y-33126469D01*
X90045366Y-33126467D01*
X90045371Y-33126467D01*
X90182864Y-33069516D01*
X90306603Y-32986836D01*
X90411836Y-32881603D01*
X90494516Y-32757864D01*
X90551467Y-32620371D01*
X90580500Y-32474410D01*
X90580500Y-32325590D01*
X90580240Y-32324286D01*
X90551469Y-32179636D01*
X90551466Y-32179627D01*
X90494519Y-32042142D01*
X90494512Y-32042129D01*
X90411836Y-31918397D01*
X90411833Y-31918393D01*
X90306606Y-31813166D01*
X90306602Y-31813163D01*
X90182870Y-31730487D01*
X90182857Y-31730480D01*
X90045372Y-31673533D01*
X90045363Y-31673530D01*
X89899414Y-31644500D01*
X89899410Y-31644500D01*
X89750590Y-31644500D01*
X89750585Y-31644500D01*
X89604636Y-31673530D01*
X89604627Y-31673533D01*
X89467142Y-31730480D01*
X89467129Y-31730487D01*
X89343397Y-31813163D01*
X89343393Y-31813166D01*
X89238166Y-31918393D01*
X89238163Y-31918397D01*
X89155487Y-32042129D01*
X89155480Y-32042142D01*
X89098533Y-32179627D01*
X89098530Y-32179636D01*
X89069500Y-32325585D01*
X65325048Y-32325585D01*
X65286836Y-32268397D01*
X65286833Y-32268393D01*
X65181606Y-32163166D01*
X65181602Y-32163163D01*
X65057870Y-32080487D01*
X65057857Y-32080480D01*
X64920372Y-32023533D01*
X64920363Y-32023530D01*
X64774414Y-31994500D01*
X64774410Y-31994500D01*
X64625590Y-31994500D01*
X64625585Y-31994500D01*
X64479636Y-32023530D01*
X64479627Y-32023533D01*
X64342142Y-32080480D01*
X64342129Y-32080487D01*
X64218397Y-32163163D01*
X64218393Y-32163166D01*
X64113166Y-32268393D01*
X64113163Y-32268397D01*
X64030487Y-32392129D01*
X64030480Y-32392142D01*
X63973533Y-32529627D01*
X63973530Y-32529636D01*
X63944500Y-32675585D01*
X47983371Y-32675585D01*
X47969519Y-32642142D01*
X47969512Y-32642129D01*
X47886836Y-32518397D01*
X47886833Y-32518393D01*
X47781606Y-32413166D01*
X47781602Y-32413163D01*
X47657870Y-32330487D01*
X47657857Y-32330480D01*
X47520372Y-32273533D01*
X47520363Y-32273530D01*
X47374414Y-32244500D01*
X47374410Y-32244500D01*
X47225590Y-32244500D01*
X47225585Y-32244500D01*
X47079636Y-32273530D01*
X47079627Y-32273533D01*
X46942142Y-32330480D01*
X46942129Y-32330487D01*
X46818397Y-32413163D01*
X46818393Y-32413166D01*
X46713166Y-32518393D01*
X46713163Y-32518397D01*
X46630487Y-32642129D01*
X46630480Y-32642142D01*
X46573533Y-32779627D01*
X46573530Y-32779636D01*
X46544500Y-32925585D01*
X26268902Y-32925585D01*
X26293796Y-32892331D01*
X26297796Y-32881606D01*
X26299826Y-32876165D01*
X26335832Y-32779627D01*
X26344091Y-32757483D01*
X26350500Y-32697873D01*
X26350499Y-30925585D01*
X57444500Y-30925585D01*
X57444500Y-31074414D01*
X57473530Y-31220363D01*
X57473533Y-31220372D01*
X57530480Y-31357857D01*
X57530487Y-31357870D01*
X57613163Y-31481602D01*
X57613166Y-31481606D01*
X57718393Y-31586833D01*
X57718397Y-31586836D01*
X57842129Y-31669512D01*
X57842142Y-31669519D01*
X57945255Y-31712229D01*
X57979629Y-31726467D01*
X57979631Y-31726467D01*
X57979636Y-31726469D01*
X58125585Y-31755499D01*
X58125589Y-31755500D01*
X58125590Y-31755500D01*
X58274411Y-31755500D01*
X58274412Y-31755499D01*
X58323063Y-31745822D01*
X58420363Y-31726469D01*
X58420366Y-31726467D01*
X58420371Y-31726467D01*
X58557864Y-31669516D01*
X58681603Y-31586836D01*
X58786836Y-31481603D01*
X58869516Y-31357864D01*
X58926467Y-31220371D01*
X58955500Y-31074410D01*
X58955500Y-30925590D01*
X58936806Y-30831606D01*
X58926469Y-30779636D01*
X58926466Y-30779627D01*
X58869519Y-30642142D01*
X58869512Y-30642129D01*
X58786836Y-30518397D01*
X58786833Y-30518393D01*
X58681606Y-30413166D01*
X58681602Y-30413163D01*
X58620896Y-30372600D01*
X58557870Y-30330487D01*
X58557857Y-30330480D01*
X58425326Y-30275585D01*
X89094500Y-30275585D01*
X89094500Y-30424414D01*
X89123530Y-30570363D01*
X89123533Y-30570372D01*
X89180480Y-30707857D01*
X89180487Y-30707870D01*
X89263163Y-30831602D01*
X89263166Y-30831606D01*
X89368393Y-30936833D01*
X89368397Y-30936836D01*
X89492129Y-31019512D01*
X89492142Y-31019519D01*
X89595255Y-31062229D01*
X89629629Y-31076467D01*
X89629631Y-31076467D01*
X89629636Y-31076469D01*
X89775585Y-31105499D01*
X89775589Y-31105500D01*
X89775590Y-31105500D01*
X89924411Y-31105500D01*
X89924412Y-31105499D01*
X89973063Y-31095822D01*
X90070363Y-31076469D01*
X90070366Y-31076467D01*
X90070371Y-31076467D01*
X90207864Y-31019516D01*
X90331603Y-30936836D01*
X90436836Y-30831603D01*
X90519516Y-30707864D01*
X90576467Y-30570371D01*
X90589231Y-30506204D01*
X90595822Y-30473063D01*
X90605500Y-30424410D01*
X90605500Y-30275590D01*
X90599316Y-30244500D01*
X90576469Y-30129636D01*
X90576466Y-30129627D01*
X90519519Y-29992142D01*
X90519512Y-29992129D01*
X90436836Y-29868397D01*
X90436833Y-29868393D01*
X90331606Y-29763166D01*
X90331602Y-29763163D01*
X90207870Y-29680487D01*
X90207857Y-29680480D01*
X90070372Y-29623533D01*
X90070363Y-29623530D01*
X89924414Y-29594500D01*
X89924410Y-29594500D01*
X89775590Y-29594500D01*
X89775585Y-29594500D01*
X89629636Y-29623530D01*
X89629627Y-29623533D01*
X89492142Y-29680480D01*
X89492129Y-29680487D01*
X89368397Y-29763163D01*
X89368393Y-29763166D01*
X89263166Y-29868393D01*
X89263163Y-29868397D01*
X89180487Y-29992129D01*
X89180480Y-29992142D01*
X89123533Y-30129627D01*
X89123530Y-30129636D01*
X89094500Y-30275585D01*
X58425326Y-30275585D01*
X58420372Y-30273533D01*
X58420363Y-30273530D01*
X58274414Y-30244500D01*
X58274410Y-30244500D01*
X58125590Y-30244500D01*
X58125585Y-30244500D01*
X57979636Y-30273530D01*
X57979627Y-30273533D01*
X57842142Y-30330480D01*
X57842129Y-30330487D01*
X57718397Y-30413163D01*
X57718393Y-30413166D01*
X57613166Y-30518393D01*
X57613163Y-30518397D01*
X57530487Y-30642129D01*
X57530480Y-30642142D01*
X57473533Y-30779627D01*
X57473530Y-30779636D01*
X57444500Y-30925585D01*
X26350499Y-30925585D01*
X26350499Y-30902128D01*
X26344091Y-30842517D01*
X26340021Y-30831606D01*
X26293797Y-30707671D01*
X26293793Y-30707664D01*
X26207547Y-30592455D01*
X26207544Y-30592452D01*
X26092335Y-30506206D01*
X26092328Y-30506202D01*
X25957482Y-30455908D01*
X25957483Y-30455908D01*
X25897883Y-30449501D01*
X25897881Y-30449500D01*
X25897873Y-30449500D01*
X25897864Y-30449500D01*
X24102129Y-30449500D01*
X24102123Y-30449501D01*
X24042516Y-30455908D01*
X23907671Y-30506202D01*
X23907664Y-30506206D01*
X23792455Y-30592452D01*
X23792452Y-30592455D01*
X23706206Y-30707664D01*
X23706202Y-30707671D01*
X23655908Y-30842517D01*
X23649501Y-30902116D01*
X23649501Y-30902123D01*
X23649500Y-30902135D01*
X20500500Y-30902135D01*
X20500500Y-27175585D01*
X58944500Y-27175585D01*
X58944500Y-27324414D01*
X58973530Y-27470363D01*
X58973533Y-27470372D01*
X59030480Y-27607857D01*
X59030487Y-27607870D01*
X59113163Y-27731602D01*
X59113166Y-27731606D01*
X59218393Y-27836833D01*
X59218397Y-27836836D01*
X59342129Y-27919512D01*
X59342142Y-27919519D01*
X59445255Y-27962229D01*
X59479629Y-27976467D01*
X59479631Y-27976467D01*
X59479636Y-27976469D01*
X59625585Y-28005499D01*
X59625589Y-28005500D01*
X59625590Y-28005500D01*
X59774411Y-28005500D01*
X59774412Y-28005499D01*
X59823063Y-27995822D01*
X59920363Y-27976469D01*
X59920366Y-27976467D01*
X59920371Y-27976467D01*
X60057864Y-27919516D01*
X60181603Y-27836836D01*
X60286836Y-27731603D01*
X60369516Y-27607864D01*
X60426467Y-27470371D01*
X60443299Y-27385751D01*
X60475683Y-27323840D01*
X60536399Y-27289266D01*
X60589107Y-27288325D01*
X60700587Y-27310499D01*
X60700589Y-27310500D01*
X60700590Y-27310500D01*
X60849411Y-27310500D01*
X60849412Y-27310499D01*
X60898063Y-27300822D01*
X60995363Y-27281469D01*
X60995366Y-27281467D01*
X60995371Y-27281467D01*
X61132864Y-27224516D01*
X61256603Y-27141836D01*
X61361836Y-27036603D01*
X61444516Y-26912864D01*
X61481480Y-26823622D01*
X61525319Y-26769223D01*
X61591613Y-26747157D01*
X61620226Y-26749460D01*
X61650590Y-26755500D01*
X61650591Y-26755500D01*
X61799411Y-26755500D01*
X61799412Y-26755499D01*
X61850433Y-26745351D01*
X61945363Y-26726469D01*
X61945366Y-26726467D01*
X61945371Y-26726467D01*
X62082864Y-26669516D01*
X62143608Y-26628927D01*
X62210285Y-26608050D01*
X62277665Y-26626534D01*
X62281390Y-26628928D01*
X62342128Y-26669512D01*
X62342141Y-26669519D01*
X62445254Y-26712229D01*
X62479628Y-26726467D01*
X62479630Y-26726467D01*
X62479635Y-26726469D01*
X62625584Y-26755499D01*
X62625588Y-26755500D01*
X62625589Y-26755500D01*
X62774409Y-26755500D01*
X62825430Y-26745351D01*
X62895020Y-26751578D01*
X62950198Y-26794440D01*
X62973443Y-26860329D01*
X62971239Y-26891158D01*
X62944500Y-27025591D01*
X62944500Y-27174414D01*
X62973530Y-27320363D01*
X62973533Y-27320372D01*
X63030480Y-27457857D01*
X63030487Y-27457870D01*
X63113163Y-27581602D01*
X63113166Y-27581606D01*
X63218393Y-27686833D01*
X63218397Y-27686836D01*
X63342129Y-27769512D01*
X63342142Y-27769519D01*
X63445255Y-27812229D01*
X63479629Y-27826467D01*
X63479631Y-27826467D01*
X63479636Y-27826469D01*
X63625585Y-27855499D01*
X63625589Y-27855500D01*
X63625590Y-27855500D01*
X63774411Y-27855500D01*
X63774412Y-27855499D01*
X63823063Y-27845822D01*
X63920363Y-27826469D01*
X63920366Y-27826467D01*
X63920371Y-27826467D01*
X64057864Y-27769516D01*
X64181603Y-27686836D01*
X64286836Y-27581603D01*
X64369516Y-27457864D01*
X64426467Y-27320371D01*
X64428431Y-27310500D01*
X64455499Y-27174414D01*
X64455500Y-27174411D01*
X64455500Y-27025589D01*
X64455499Y-27025585D01*
X64429265Y-26893694D01*
X64429263Y-26893688D01*
X64426467Y-26879629D01*
X64424792Y-26875585D01*
X76144500Y-26875585D01*
X76144500Y-27024414D01*
X76173530Y-27170363D01*
X76173533Y-27170372D01*
X76230480Y-27307857D01*
X76230487Y-27307870D01*
X76313163Y-27431602D01*
X76313166Y-27431606D01*
X76418393Y-27536833D01*
X76418397Y-27536836D01*
X76542129Y-27619512D01*
X76542142Y-27619519D01*
X76645255Y-27662229D01*
X76679629Y-27676467D01*
X76679631Y-27676467D01*
X76679636Y-27676469D01*
X76825585Y-27705499D01*
X76825589Y-27705500D01*
X76825590Y-27705500D01*
X76974411Y-27705500D01*
X76974412Y-27705499D01*
X77023063Y-27695822D01*
X77120363Y-27676469D01*
X77120366Y-27676467D01*
X77120371Y-27676467D01*
X77257864Y-27619516D01*
X77381603Y-27536836D01*
X77486836Y-27431603D01*
X77569516Y-27307864D01*
X77626467Y-27170371D01*
X77632144Y-27141833D01*
X77653075Y-27036602D01*
X77655500Y-27024410D01*
X77655500Y-26875590D01*
X77655240Y-26874286D01*
X77626469Y-26729636D01*
X77626466Y-26729627D01*
X77625677Y-26727723D01*
X77601566Y-26669512D01*
X77569519Y-26592142D01*
X77569512Y-26592129D01*
X77486836Y-26468397D01*
X77486833Y-26468393D01*
X77381606Y-26363166D01*
X77381602Y-26363163D01*
X77257870Y-26280487D01*
X77257857Y-26280480D01*
X77120372Y-26223533D01*
X77120363Y-26223530D01*
X76974414Y-26194500D01*
X76974410Y-26194500D01*
X76825590Y-26194500D01*
X76825585Y-26194500D01*
X76679636Y-26223530D01*
X76679627Y-26223533D01*
X76542142Y-26280480D01*
X76542129Y-26280487D01*
X76418397Y-26363163D01*
X76418393Y-26363166D01*
X76313166Y-26468393D01*
X76313163Y-26468397D01*
X76230487Y-26592129D01*
X76230480Y-26592142D01*
X76173533Y-26729627D01*
X76173530Y-26729636D01*
X76144500Y-26875585D01*
X64424792Y-26875585D01*
X64391181Y-26794440D01*
X64369519Y-26742142D01*
X64369512Y-26742129D01*
X64286836Y-26618397D01*
X64286833Y-26618393D01*
X64181606Y-26513166D01*
X64181602Y-26513163D01*
X64057870Y-26430487D01*
X64057857Y-26430480D01*
X63920372Y-26373533D01*
X63920363Y-26373530D01*
X63774414Y-26344500D01*
X63774410Y-26344500D01*
X63625590Y-26344500D01*
X63574567Y-26354649D01*
X63504976Y-26348420D01*
X63449799Y-26305557D01*
X63426555Y-26239667D01*
X63428760Y-26208840D01*
X63455498Y-26074414D01*
X63455499Y-26074411D01*
X63455499Y-25925589D01*
X63455498Y-25925585D01*
X63426468Y-25779636D01*
X63426465Y-25779627D01*
X63369518Y-25642142D01*
X63369511Y-25642129D01*
X63286835Y-25518397D01*
X63286832Y-25518393D01*
X63181605Y-25413166D01*
X63181601Y-25413163D01*
X63057869Y-25330487D01*
X63057856Y-25330480D01*
X62920371Y-25273533D01*
X62920362Y-25273530D01*
X62774413Y-25244500D01*
X62774409Y-25244500D01*
X62625589Y-25244500D01*
X62625584Y-25244500D01*
X62479635Y-25273530D01*
X62479626Y-25273533D01*
X62342141Y-25330480D01*
X62342130Y-25330486D01*
X62281389Y-25371072D01*
X62214711Y-25391949D01*
X62147331Y-25373464D01*
X62143608Y-25371071D01*
X62082870Y-25330487D01*
X62082857Y-25330480D01*
X61945372Y-25273533D01*
X61945363Y-25273530D01*
X61799414Y-25244500D01*
X61799410Y-25244500D01*
X61650590Y-25244500D01*
X61650585Y-25244500D01*
X61504636Y-25273530D01*
X61504627Y-25273533D01*
X61367142Y-25330480D01*
X61367129Y-25330487D01*
X61243397Y-25413163D01*
X61243393Y-25413166D01*
X61138166Y-25518393D01*
X61138163Y-25518397D01*
X61055487Y-25642129D01*
X61055482Y-25642139D01*
X61018520Y-25731373D01*
X60974678Y-25785777D01*
X60908384Y-25807841D01*
X60879771Y-25805538D01*
X60849411Y-25799500D01*
X60849410Y-25799500D01*
X60700590Y-25799500D01*
X60700585Y-25799500D01*
X60554636Y-25828530D01*
X60554627Y-25828533D01*
X60417142Y-25885480D01*
X60417129Y-25885487D01*
X60293397Y-25968163D01*
X60293393Y-25968166D01*
X60188166Y-26073393D01*
X60188163Y-26073397D01*
X60105487Y-26197129D01*
X60105480Y-26197142D01*
X60048533Y-26334627D01*
X60048531Y-26334635D01*
X60031700Y-26419249D01*
X59999315Y-26481160D01*
X59938599Y-26515734D01*
X59885892Y-26516674D01*
X59774410Y-26494500D01*
X59625590Y-26494500D01*
X59625585Y-26494500D01*
X59479636Y-26523530D01*
X59479627Y-26523533D01*
X59342142Y-26580480D01*
X59342129Y-26580487D01*
X59218397Y-26663163D01*
X59218393Y-26663166D01*
X59113166Y-26768393D01*
X59113163Y-26768397D01*
X59030487Y-26892129D01*
X59030480Y-26892142D01*
X58973533Y-27029627D01*
X58973530Y-27029636D01*
X58944500Y-27175585D01*
X20500500Y-27175585D01*
X20500500Y-25566500D01*
X20520185Y-25499461D01*
X20572989Y-25453706D01*
X20642147Y-25443762D01*
X20705703Y-25472787D01*
X20729492Y-25500526D01*
X20785685Y-25589956D01*
X21009812Y-25871003D01*
X21263997Y-26125188D01*
X21545044Y-26349315D01*
X21849418Y-26540566D01*
X22173292Y-26696536D01*
X22381020Y-26769223D01*
X22512580Y-26815258D01*
X22512592Y-26815262D01*
X22863052Y-26895252D01*
X23220260Y-26935499D01*
X23220261Y-26935500D01*
X23220264Y-26935500D01*
X23579739Y-26935500D01*
X23579739Y-26935499D01*
X23936948Y-26895252D01*
X24287408Y-26815262D01*
X24626708Y-26696536D01*
X24950582Y-26540566D01*
X25254956Y-26349315D01*
X25536003Y-26125188D01*
X25790188Y-25871003D01*
X26014315Y-25589956D01*
X26205566Y-25285582D01*
X26361536Y-24961708D01*
X26480262Y-24622408D01*
X26560252Y-24271948D01*
X26600500Y-23914736D01*
X26600500Y-23555264D01*
X26560252Y-23198052D01*
X26480262Y-22847592D01*
X26361536Y-22508292D01*
X26205566Y-22184418D01*
X26132725Y-22068493D01*
X28972500Y-22068493D01*
X28972500Y-22231506D01*
X29004298Y-22391365D01*
X29004300Y-22391373D01*
X29066677Y-22541964D01*
X29066682Y-22541974D01*
X29157238Y-22677500D01*
X29157241Y-22677504D01*
X29272495Y-22792758D01*
X29272499Y-22792761D01*
X29408025Y-22883317D01*
X29408029Y-22883319D01*
X29408032Y-22883321D01*
X29558627Y-22945700D01*
X29718493Y-22977499D01*
X29718497Y-22977500D01*
X29718498Y-22977500D01*
X29881503Y-22977500D01*
X29881504Y-22977499D01*
X30041373Y-22945700D01*
X30191968Y-22883321D01*
X30327501Y-22792761D01*
X30442761Y-22677501D01*
X30533321Y-22541968D01*
X30595700Y-22391373D01*
X30627500Y-22231502D01*
X30627500Y-22068498D01*
X30627499Y-22068493D01*
X53472500Y-22068493D01*
X53472500Y-22231506D01*
X53504298Y-22391365D01*
X53504300Y-22391373D01*
X53566677Y-22541964D01*
X53566682Y-22541974D01*
X53657238Y-22677500D01*
X53657241Y-22677504D01*
X53772495Y-22792758D01*
X53772499Y-22792761D01*
X53908025Y-22883317D01*
X53908029Y-22883319D01*
X53908032Y-22883321D01*
X54058627Y-22945700D01*
X54218493Y-22977499D01*
X54218497Y-22977500D01*
X54218498Y-22977500D01*
X54381503Y-22977500D01*
X54381504Y-22977499D01*
X54541373Y-22945700D01*
X54691968Y-22883321D01*
X54827501Y-22792761D01*
X54942761Y-22677501D01*
X55033321Y-22541968D01*
X55095700Y-22391373D01*
X55127500Y-22231502D01*
X55127500Y-22068498D01*
X55095700Y-21908627D01*
X55033321Y-21758032D01*
X55033319Y-21758029D01*
X55033317Y-21758025D01*
X54942761Y-21622499D01*
X54942758Y-21622495D01*
X54827504Y-21507241D01*
X54827500Y-21507238D01*
X54691974Y-21416682D01*
X54691964Y-21416677D01*
X54541373Y-21354300D01*
X54541365Y-21354298D01*
X54381506Y-21322500D01*
X54381502Y-21322500D01*
X54218498Y-21322500D01*
X54218493Y-21322500D01*
X54058634Y-21354298D01*
X54058626Y-21354300D01*
X53908035Y-21416677D01*
X53908025Y-21416682D01*
X53772499Y-21507238D01*
X53772495Y-21507241D01*
X53657241Y-21622495D01*
X53657238Y-21622499D01*
X53566682Y-21758025D01*
X53566677Y-21758035D01*
X53504300Y-21908626D01*
X53504298Y-21908634D01*
X53472500Y-22068493D01*
X30627499Y-22068493D01*
X30595700Y-21908627D01*
X30533321Y-21758032D01*
X30533319Y-21758029D01*
X30533317Y-21758025D01*
X30442761Y-21622499D01*
X30442758Y-21622495D01*
X30327504Y-21507241D01*
X30327500Y-21507238D01*
X30191974Y-21416682D01*
X30191964Y-21416677D01*
X30041373Y-21354300D01*
X30041365Y-21354298D01*
X29881506Y-21322500D01*
X29881502Y-21322500D01*
X29718498Y-21322500D01*
X29718493Y-21322500D01*
X29558634Y-21354298D01*
X29558626Y-21354300D01*
X29408035Y-21416677D01*
X29408025Y-21416682D01*
X29272499Y-21507238D01*
X29272495Y-21507241D01*
X29157241Y-21622495D01*
X29157238Y-21622499D01*
X29066682Y-21758025D01*
X29066677Y-21758035D01*
X29004300Y-21908626D01*
X29004298Y-21908634D01*
X28972500Y-22068493D01*
X26132725Y-22068493D01*
X26088454Y-21998035D01*
X26014315Y-21880044D01*
X25790188Y-21598997D01*
X25536003Y-21344812D01*
X25254956Y-21120685D01*
X24950582Y-20929434D01*
X24950579Y-20929432D01*
X24626711Y-20773465D01*
X24535477Y-20741541D01*
X24478701Y-20700820D01*
X24452954Y-20635867D01*
X24466410Y-20567305D01*
X24514798Y-20516903D01*
X24576432Y-20500500D01*
X97763568Y-20500500D01*
X97830607Y-20520185D01*
G37*
%TD.AperFunction*%
%TD*%
%TA.AperFunction,Conductor*%
%TO.N,GND*%
G36*
X124667539Y-20520185D02*
G01*
X124713294Y-20572989D01*
X124724500Y-20624500D01*
X124724500Y-44976000D01*
X124704815Y-45043039D01*
X124652011Y-45088794D01*
X124600500Y-45100000D01*
X105249000Y-45100000D01*
X105181961Y-45080315D01*
X105136206Y-45027511D01*
X105125000Y-44976000D01*
X105125000Y-42603388D01*
X106297500Y-42603388D01*
X106297500Y-42796611D01*
X106327725Y-42987441D01*
X106387429Y-43171194D01*
X106475147Y-43343349D01*
X106588715Y-43499663D01*
X106725336Y-43636284D01*
X106881650Y-43749852D01*
X107053805Y-43837570D01*
X107145681Y-43867422D01*
X107237560Y-43897275D01*
X107325943Y-43911273D01*
X107428389Y-43927500D01*
X107428394Y-43927500D01*
X107621611Y-43927500D01*
X107714123Y-43912846D01*
X107812440Y-43897275D01*
X107996197Y-43837569D01*
X108168350Y-43749852D01*
X108324663Y-43636285D01*
X108461285Y-43499663D01*
X108574852Y-43343350D01*
X108662569Y-43171197D01*
X108722275Y-42987440D01*
X108737846Y-42889123D01*
X108752500Y-42796611D01*
X108752500Y-42603388D01*
X121497500Y-42603388D01*
X121497500Y-42796611D01*
X121527725Y-42987441D01*
X121587429Y-43171194D01*
X121675147Y-43343349D01*
X121788715Y-43499663D01*
X121925336Y-43636284D01*
X122081650Y-43749852D01*
X122253805Y-43837570D01*
X122345681Y-43867422D01*
X122437560Y-43897275D01*
X122525943Y-43911273D01*
X122628389Y-43927500D01*
X122628394Y-43927500D01*
X122821611Y-43927500D01*
X122914123Y-43912846D01*
X123012440Y-43897275D01*
X123196197Y-43837569D01*
X123368350Y-43749852D01*
X123524663Y-43636285D01*
X123661285Y-43499663D01*
X123774852Y-43343350D01*
X123862569Y-43171197D01*
X123922275Y-42987440D01*
X123937846Y-42889123D01*
X123952500Y-42796611D01*
X123952500Y-42603388D01*
X123934916Y-42492373D01*
X123922275Y-42412560D01*
X123862569Y-42228803D01*
X123774852Y-42056650D01*
X123661285Y-41900337D01*
X123524663Y-41763715D01*
X123368350Y-41650148D01*
X123368351Y-41650148D01*
X123368349Y-41650147D01*
X123196194Y-41562429D01*
X123012441Y-41502725D01*
X122821611Y-41472500D01*
X122821606Y-41472500D01*
X122628394Y-41472500D01*
X122628389Y-41472500D01*
X122437558Y-41502725D01*
X122253805Y-41562429D01*
X122081650Y-41650147D01*
X121925336Y-41763715D01*
X121788715Y-41900336D01*
X121675147Y-42056650D01*
X121587429Y-42228805D01*
X121527725Y-42412558D01*
X121497500Y-42603388D01*
X108752500Y-42603388D01*
X108734916Y-42492373D01*
X108722275Y-42412560D01*
X108662569Y-42228803D01*
X108574852Y-42056650D01*
X108461285Y-41900337D01*
X108324663Y-41763715D01*
X108168350Y-41650148D01*
X108168351Y-41650148D01*
X108168349Y-41650147D01*
X107996194Y-41562429D01*
X107812441Y-41502725D01*
X107621611Y-41472500D01*
X107621606Y-41472500D01*
X107428394Y-41472500D01*
X107428389Y-41472500D01*
X107237558Y-41502725D01*
X107053805Y-41562429D01*
X106881650Y-41650147D01*
X106725336Y-41763715D01*
X106588715Y-41900336D01*
X106475147Y-42056650D01*
X106387429Y-42228805D01*
X106327725Y-42412558D01*
X106297500Y-42603388D01*
X105125000Y-42603388D01*
X105125000Y-39521153D01*
X112824500Y-39521153D01*
X112824500Y-39678846D01*
X112855261Y-39833489D01*
X112855264Y-39833501D01*
X112915602Y-39979172D01*
X112915609Y-39979185D01*
X113003210Y-40110288D01*
X113003213Y-40110292D01*
X113114707Y-40221786D01*
X113114711Y-40221789D01*
X113245814Y-40309390D01*
X113245827Y-40309397D01*
X113391498Y-40369735D01*
X113391503Y-40369737D01*
X113546153Y-40400499D01*
X113546156Y-40400500D01*
X113546158Y-40400500D01*
X113703844Y-40400500D01*
X113703845Y-40400499D01*
X113858497Y-40369737D01*
X114004179Y-40309394D01*
X114135289Y-40221789D01*
X114246789Y-40110289D01*
X114334394Y-39979179D01*
X114394737Y-39833497D01*
X114425500Y-39678842D01*
X114425500Y-39521158D01*
X114425500Y-39521155D01*
X114425499Y-39521153D01*
X114399531Y-39390606D01*
X114394737Y-39366503D01*
X114387357Y-39348686D01*
X114334397Y-39220827D01*
X114334390Y-39220814D01*
X114246789Y-39089711D01*
X114246786Y-39089707D01*
X114135292Y-38978213D01*
X114135288Y-38978210D01*
X114049897Y-38921153D01*
X114824500Y-38921153D01*
X114824500Y-39078846D01*
X114855261Y-39233489D01*
X114855264Y-39233501D01*
X114915602Y-39379172D01*
X114915609Y-39379185D01*
X115003210Y-39510288D01*
X115003213Y-39510292D01*
X115114707Y-39621786D01*
X115114711Y-39621789D01*
X115245814Y-39709390D01*
X115245827Y-39709397D01*
X115347023Y-39751313D01*
X115391503Y-39769737D01*
X115545444Y-39800358D01*
X115546153Y-39800499D01*
X115546156Y-39800500D01*
X115546158Y-39800500D01*
X115703844Y-39800500D01*
X115703845Y-39800499D01*
X115858497Y-39769737D01*
X116004179Y-39709394D01*
X116056110Y-39674694D01*
X116122785Y-39653816D01*
X116190165Y-39672300D01*
X116193863Y-39674676D01*
X116245821Y-39709394D01*
X116245823Y-39709395D01*
X116245825Y-39709396D01*
X116347023Y-39751313D01*
X116391503Y-39769737D01*
X116545444Y-39800358D01*
X116546153Y-39800499D01*
X116546156Y-39800500D01*
X116546158Y-39800500D01*
X116703844Y-39800500D01*
X116705285Y-39800358D01*
X116706034Y-39800500D01*
X116709934Y-39800500D01*
X116709934Y-39801239D01*
X116773931Y-39813373D01*
X116824644Y-39861436D01*
X116841321Y-39929286D01*
X116839061Y-39947951D01*
X116824500Y-40021153D01*
X116824500Y-40178846D01*
X116855261Y-40333489D01*
X116855264Y-40333501D01*
X116915602Y-40479172D01*
X116915609Y-40479185D01*
X117003210Y-40610288D01*
X117003213Y-40610292D01*
X117114707Y-40721786D01*
X117114711Y-40721789D01*
X117245814Y-40809390D01*
X117245827Y-40809397D01*
X117391498Y-40869735D01*
X117391503Y-40869737D01*
X117546153Y-40900499D01*
X117546156Y-40900500D01*
X117546158Y-40900500D01*
X117703844Y-40900500D01*
X117703845Y-40900499D01*
X117858497Y-40869737D01*
X118004179Y-40809394D01*
X118135289Y-40721789D01*
X118246789Y-40610289D01*
X118334394Y-40479179D01*
X118394737Y-40333497D01*
X118425500Y-40178842D01*
X118425500Y-40021158D01*
X118425500Y-40021155D01*
X118425499Y-40021153D01*
X118394738Y-39866510D01*
X118394737Y-39866503D01*
X118367398Y-39800500D01*
X118334397Y-39720827D01*
X118334390Y-39720814D01*
X118246789Y-39589711D01*
X118246786Y-39589707D01*
X118135292Y-39478213D01*
X118135288Y-39478210D01*
X118004185Y-39390609D01*
X118004172Y-39390602D01*
X117858501Y-39330264D01*
X117858489Y-39330261D01*
X117703845Y-39299500D01*
X117703842Y-39299500D01*
X117546158Y-39299500D01*
X117546150Y-39299500D01*
X117544697Y-39299643D01*
X117543943Y-39299500D01*
X117540066Y-39299500D01*
X117540066Y-39298764D01*
X117476052Y-39286617D01*
X117425346Y-39238547D01*
X117408679Y-39170695D01*
X117410936Y-39152055D01*
X117425500Y-39078842D01*
X117425500Y-38921158D01*
X117425500Y-38921155D01*
X117425499Y-38921153D01*
X117407419Y-38830261D01*
X117394737Y-38766503D01*
X117394735Y-38766498D01*
X117334397Y-38620827D01*
X117334390Y-38620814D01*
X117246789Y-38489711D01*
X117246786Y-38489707D01*
X117135292Y-38378213D01*
X117135288Y-38378210D01*
X117004185Y-38290609D01*
X117004172Y-38290602D01*
X116858501Y-38230264D01*
X116858489Y-38230261D01*
X116703845Y-38199500D01*
X116703842Y-38199500D01*
X116546158Y-38199500D01*
X116546155Y-38199500D01*
X116391510Y-38230261D01*
X116391498Y-38230264D01*
X116245827Y-38290602D01*
X116245814Y-38290609D01*
X116193891Y-38325304D01*
X116127214Y-38346182D01*
X116059833Y-38327698D01*
X116056109Y-38325304D01*
X116004185Y-38290609D01*
X116004172Y-38290602D01*
X115858501Y-38230264D01*
X115858489Y-38230261D01*
X115703845Y-38199500D01*
X115703842Y-38199500D01*
X115546158Y-38199500D01*
X115546155Y-38199500D01*
X115391510Y-38230261D01*
X115391498Y-38230264D01*
X115245827Y-38290602D01*
X115245814Y-38290609D01*
X115114711Y-38378210D01*
X115114707Y-38378213D01*
X115003213Y-38489707D01*
X115003210Y-38489711D01*
X114915609Y-38620814D01*
X114915602Y-38620827D01*
X114855264Y-38766498D01*
X114855261Y-38766510D01*
X114824500Y-38921153D01*
X114049897Y-38921153D01*
X114004185Y-38890609D01*
X114004172Y-38890602D01*
X113858501Y-38830264D01*
X113858489Y-38830261D01*
X113703845Y-38799500D01*
X113703842Y-38799500D01*
X113546158Y-38799500D01*
X113546155Y-38799500D01*
X113391510Y-38830261D01*
X113391498Y-38830264D01*
X113245827Y-38890602D01*
X113245814Y-38890609D01*
X113114711Y-38978210D01*
X113114707Y-38978213D01*
X113003213Y-39089707D01*
X113003210Y-39089711D01*
X112915609Y-39220814D01*
X112915602Y-39220827D01*
X112855264Y-39366498D01*
X112855261Y-39366510D01*
X112824500Y-39521153D01*
X105125000Y-39521153D01*
X105125000Y-35821153D01*
X111524500Y-35821153D01*
X111524500Y-35978846D01*
X111555261Y-36133489D01*
X111555264Y-36133501D01*
X111615602Y-36279172D01*
X111615609Y-36279185D01*
X111703210Y-36410288D01*
X111703213Y-36410292D01*
X111814707Y-36521786D01*
X111814711Y-36521789D01*
X111945814Y-36609390D01*
X111945827Y-36609397D01*
X112091498Y-36669735D01*
X112091503Y-36669737D01*
X112246153Y-36700499D01*
X112246156Y-36700500D01*
X112246158Y-36700500D01*
X112403844Y-36700500D01*
X112403845Y-36700499D01*
X112558497Y-36669737D01*
X112704179Y-36609394D01*
X112835289Y-36521789D01*
X112946789Y-36410289D01*
X113034394Y-36279179D01*
X113094737Y-36133497D01*
X113125500Y-35978842D01*
X113125500Y-35821158D01*
X113125500Y-35821155D01*
X113125499Y-35821153D01*
X113094738Y-35666510D01*
X113094737Y-35666503D01*
X113094735Y-35666498D01*
X113034397Y-35520827D01*
X113034390Y-35520814D01*
X112946789Y-35389711D01*
X112946786Y-35389707D01*
X112835292Y-35278213D01*
X112835288Y-35278210D01*
X112704185Y-35190609D01*
X112704172Y-35190602D01*
X112558501Y-35130264D01*
X112558489Y-35130261D01*
X112403845Y-35099500D01*
X112403842Y-35099500D01*
X112246158Y-35099500D01*
X112246155Y-35099500D01*
X112091510Y-35130261D01*
X112091498Y-35130264D01*
X111945827Y-35190602D01*
X111945814Y-35190609D01*
X111814711Y-35278210D01*
X111814707Y-35278213D01*
X111703213Y-35389707D01*
X111703210Y-35389711D01*
X111615609Y-35520814D01*
X111615602Y-35520827D01*
X111555264Y-35666498D01*
X111555261Y-35666510D01*
X111524500Y-35821153D01*
X105125000Y-35821153D01*
X105125000Y-33421153D01*
X115724500Y-33421153D01*
X115724500Y-33578846D01*
X115755261Y-33733489D01*
X115755264Y-33733501D01*
X115815602Y-33879172D01*
X115815609Y-33879185D01*
X115903210Y-34010288D01*
X115903213Y-34010292D01*
X116014707Y-34121786D01*
X116014711Y-34121789D01*
X116145814Y-34209390D01*
X116145827Y-34209397D01*
X116291498Y-34269735D01*
X116291503Y-34269737D01*
X116446153Y-34300499D01*
X116446156Y-34300500D01*
X116446158Y-34300500D01*
X116603844Y-34300500D01*
X116603845Y-34300499D01*
X116758497Y-34269737D01*
X116904179Y-34209394D01*
X117035289Y-34121789D01*
X117146789Y-34010289D01*
X117234394Y-33879179D01*
X117294737Y-33733497D01*
X117325500Y-33578842D01*
X117325500Y-33421158D01*
X117325500Y-33421155D01*
X117325499Y-33421153D01*
X117294738Y-33266510D01*
X117294737Y-33266503D01*
X117294735Y-33266498D01*
X117234397Y-33120827D01*
X117234390Y-33120814D01*
X117146789Y-32989711D01*
X117146786Y-32989707D01*
X117035292Y-32878213D01*
X117035288Y-32878210D01*
X116904185Y-32790609D01*
X116904172Y-32790602D01*
X116758501Y-32730264D01*
X116758489Y-32730261D01*
X116603845Y-32699500D01*
X116603842Y-32699500D01*
X116446158Y-32699500D01*
X116446155Y-32699500D01*
X116291510Y-32730261D01*
X116291498Y-32730264D01*
X116145827Y-32790602D01*
X116145814Y-32790609D01*
X116014711Y-32878210D01*
X116014707Y-32878213D01*
X115903213Y-32989707D01*
X115903210Y-32989711D01*
X115815609Y-33120814D01*
X115815602Y-33120827D01*
X115755264Y-33266498D01*
X115755261Y-33266510D01*
X115724500Y-33421153D01*
X105125000Y-33421153D01*
X105125000Y-30621153D01*
X122224500Y-30621153D01*
X122224500Y-30778846D01*
X122255261Y-30933489D01*
X122255264Y-30933501D01*
X122315602Y-31079172D01*
X122315609Y-31079185D01*
X122403210Y-31210288D01*
X122403213Y-31210292D01*
X122514707Y-31321786D01*
X122514712Y-31321790D01*
X122542792Y-31340552D01*
X122587598Y-31394163D01*
X122596307Y-31463488D01*
X122566153Y-31526516D01*
X122561585Y-31531336D01*
X122503210Y-31589711D01*
X122415609Y-31720814D01*
X122415602Y-31720827D01*
X122355264Y-31866498D01*
X122355261Y-31866510D01*
X122324500Y-32021153D01*
X122324500Y-32178846D01*
X122355261Y-32333489D01*
X122355264Y-32333501D01*
X122415602Y-32479172D01*
X122415609Y-32479185D01*
X122503210Y-32610288D01*
X122503213Y-32610292D01*
X122614707Y-32721786D01*
X122614711Y-32721789D01*
X122745814Y-32809390D01*
X122745827Y-32809397D01*
X122891498Y-32869735D01*
X122891503Y-32869737D01*
X123046153Y-32900499D01*
X123046156Y-32900500D01*
X123046158Y-32900500D01*
X123203844Y-32900500D01*
X123203845Y-32900499D01*
X123358497Y-32869737D01*
X123504179Y-32809394D01*
X123635289Y-32721789D01*
X123746789Y-32610289D01*
X123834394Y-32479179D01*
X123894737Y-32333497D01*
X123925500Y-32178842D01*
X123925500Y-32021158D01*
X123925500Y-32021155D01*
X123925499Y-32021153D01*
X123894738Y-31866510D01*
X123894737Y-31866503D01*
X123894735Y-31866498D01*
X123834397Y-31720827D01*
X123834390Y-31720814D01*
X123746789Y-31589711D01*
X123746786Y-31589707D01*
X123635291Y-31478212D01*
X123613254Y-31463488D01*
X123607205Y-31459445D01*
X123562401Y-31405835D01*
X123553692Y-31336510D01*
X123583847Y-31273482D01*
X123588396Y-31268681D01*
X123646789Y-31210289D01*
X123734394Y-31079179D01*
X123794737Y-30933497D01*
X123825500Y-30778842D01*
X123825500Y-30621158D01*
X123825500Y-30621155D01*
X123825499Y-30621153D01*
X123794738Y-30466510D01*
X123794737Y-30466503D01*
X123794735Y-30466498D01*
X123734397Y-30320827D01*
X123734390Y-30320814D01*
X123646789Y-30189711D01*
X123646786Y-30189707D01*
X123535292Y-30078213D01*
X123535288Y-30078210D01*
X123404185Y-29990609D01*
X123404172Y-29990602D01*
X123258501Y-29930264D01*
X123258489Y-29930261D01*
X123103845Y-29899500D01*
X123103842Y-29899500D01*
X122946158Y-29899500D01*
X122946155Y-29899500D01*
X122791510Y-29930261D01*
X122791498Y-29930264D01*
X122645827Y-29990602D01*
X122645814Y-29990609D01*
X122514711Y-30078210D01*
X122514707Y-30078213D01*
X122403213Y-30189707D01*
X122403210Y-30189711D01*
X122315609Y-30320814D01*
X122315602Y-30320827D01*
X122255264Y-30466498D01*
X122255261Y-30466510D01*
X122224500Y-30621153D01*
X105125000Y-30621153D01*
X105125000Y-29421153D01*
X120424500Y-29421153D01*
X120424500Y-29578846D01*
X120455261Y-29733489D01*
X120455264Y-29733501D01*
X120515602Y-29879172D01*
X120515609Y-29879185D01*
X120603210Y-30010288D01*
X120603213Y-30010292D01*
X120714707Y-30121786D01*
X120714711Y-30121789D01*
X120845814Y-30209390D01*
X120845827Y-30209397D01*
X120991498Y-30269735D01*
X120991503Y-30269737D01*
X121146153Y-30300499D01*
X121146156Y-30300500D01*
X121146158Y-30300500D01*
X121303844Y-30300500D01*
X121303845Y-30300499D01*
X121458497Y-30269737D01*
X121604179Y-30209394D01*
X121735289Y-30121789D01*
X121846789Y-30010289D01*
X121934394Y-29879179D01*
X121994737Y-29733497D01*
X122025500Y-29578842D01*
X122025500Y-29421158D01*
X122025500Y-29421155D01*
X122025499Y-29421153D01*
X121994738Y-29266510D01*
X121994737Y-29266503D01*
X121994735Y-29266498D01*
X121934397Y-29120827D01*
X121934390Y-29120814D01*
X121846789Y-28989711D01*
X121846786Y-28989707D01*
X121735292Y-28878213D01*
X121735288Y-28878210D01*
X121604185Y-28790609D01*
X121604172Y-28790602D01*
X121458501Y-28730264D01*
X121458489Y-28730261D01*
X121303845Y-28699500D01*
X121303842Y-28699500D01*
X121146158Y-28699500D01*
X121146155Y-28699500D01*
X120991510Y-28730261D01*
X120991498Y-28730264D01*
X120845827Y-28790602D01*
X120845814Y-28790609D01*
X120714711Y-28878210D01*
X120714707Y-28878213D01*
X120603213Y-28989707D01*
X120603210Y-28989711D01*
X120515609Y-29120814D01*
X120515602Y-29120827D01*
X120455264Y-29266498D01*
X120455261Y-29266510D01*
X120424500Y-29421153D01*
X105125000Y-29421153D01*
X105125000Y-24921153D01*
X112224500Y-24921153D01*
X112224500Y-25078846D01*
X112255261Y-25233489D01*
X112255264Y-25233501D01*
X112315602Y-25379172D01*
X112315609Y-25379185D01*
X112403210Y-25510288D01*
X112403213Y-25510292D01*
X112514707Y-25621786D01*
X112514711Y-25621789D01*
X112645814Y-25709390D01*
X112645827Y-25709397D01*
X112791498Y-25769735D01*
X112791503Y-25769737D01*
X112946153Y-25800499D01*
X112946156Y-25800500D01*
X112946158Y-25800500D01*
X113103844Y-25800500D01*
X113103845Y-25800499D01*
X113258497Y-25769737D01*
X113404179Y-25709394D01*
X113535289Y-25621789D01*
X113535925Y-25621153D01*
X116224500Y-25621153D01*
X116224500Y-25778846D01*
X116255261Y-25933489D01*
X116255264Y-25933501D01*
X116315602Y-26079172D01*
X116315609Y-26079185D01*
X116403210Y-26210288D01*
X116403213Y-26210292D01*
X116514707Y-26321786D01*
X116514711Y-26321789D01*
X116645814Y-26409390D01*
X116645827Y-26409397D01*
X116791498Y-26469735D01*
X116791503Y-26469737D01*
X116946153Y-26500499D01*
X116946156Y-26500500D01*
X116946158Y-26500500D01*
X117103844Y-26500500D01*
X117103845Y-26500499D01*
X117258497Y-26469737D01*
X117404179Y-26409394D01*
X117535289Y-26321789D01*
X117646789Y-26210289D01*
X117734394Y-26079179D01*
X117794737Y-25933497D01*
X117825500Y-25778842D01*
X117825500Y-25621158D01*
X117825500Y-25621155D01*
X117825499Y-25621153D01*
X117803447Y-25510292D01*
X117794737Y-25466503D01*
X117758569Y-25379185D01*
X117734397Y-25320827D01*
X117734390Y-25320814D01*
X117646789Y-25189711D01*
X117646786Y-25189707D01*
X117535292Y-25078213D01*
X117535288Y-25078210D01*
X117404185Y-24990609D01*
X117404172Y-24990602D01*
X117258501Y-24930264D01*
X117258489Y-24930261D01*
X117103845Y-24899500D01*
X117103842Y-24899500D01*
X116946158Y-24899500D01*
X116946155Y-24899500D01*
X116791510Y-24930261D01*
X116791498Y-24930264D01*
X116645827Y-24990602D01*
X116645814Y-24990609D01*
X116514711Y-25078210D01*
X116514707Y-25078213D01*
X116403213Y-25189707D01*
X116403210Y-25189711D01*
X116315609Y-25320814D01*
X116315602Y-25320827D01*
X116255264Y-25466498D01*
X116255261Y-25466510D01*
X116224500Y-25621153D01*
X113535925Y-25621153D01*
X113629694Y-25527385D01*
X113646786Y-25510292D01*
X113646789Y-25510289D01*
X113734394Y-25379179D01*
X113794737Y-25233497D01*
X113825500Y-25078842D01*
X113825500Y-24921158D01*
X113825500Y-24921155D01*
X113825499Y-24921153D01*
X113794738Y-24766510D01*
X113794737Y-24766503D01*
X113794735Y-24766498D01*
X113734397Y-24620827D01*
X113734390Y-24620814D01*
X113646789Y-24489711D01*
X113646786Y-24489707D01*
X113535292Y-24378213D01*
X113535288Y-24378210D01*
X113404185Y-24290609D01*
X113404172Y-24290602D01*
X113258501Y-24230264D01*
X113258489Y-24230261D01*
X113103845Y-24199500D01*
X113103842Y-24199500D01*
X112946158Y-24199500D01*
X112946155Y-24199500D01*
X112791510Y-24230261D01*
X112791498Y-24230264D01*
X112645827Y-24290602D01*
X112645814Y-24290609D01*
X112514711Y-24378210D01*
X112514707Y-24378213D01*
X112403213Y-24489707D01*
X112403210Y-24489711D01*
X112315609Y-24620814D01*
X112315602Y-24620827D01*
X112255264Y-24766498D01*
X112255261Y-24766510D01*
X112224500Y-24921153D01*
X105125000Y-24921153D01*
X105125000Y-22403388D01*
X106297500Y-22403388D01*
X106297500Y-22596611D01*
X106327725Y-22787441D01*
X106387429Y-22971194D01*
X106475147Y-23143349D01*
X106588715Y-23299663D01*
X106725337Y-23436285D01*
X106727106Y-23437570D01*
X106881650Y-23549852D01*
X107053805Y-23637570D01*
X107145681Y-23667422D01*
X107237560Y-23697275D01*
X107325943Y-23711273D01*
X107428389Y-23727500D01*
X107428394Y-23727500D01*
X107621611Y-23727500D01*
X107714123Y-23712846D01*
X107812440Y-23697275D01*
X107996197Y-23637569D01*
X108168350Y-23549852D01*
X108324663Y-23436285D01*
X108461285Y-23299663D01*
X108574852Y-23143350D01*
X108662569Y-22971197D01*
X108722275Y-22787440D01*
X108739475Y-22678842D01*
X108752500Y-22596611D01*
X108752500Y-22521153D01*
X117624500Y-22521153D01*
X117624500Y-22678846D01*
X117655261Y-22833489D01*
X117655264Y-22833501D01*
X117715602Y-22979172D01*
X117715609Y-22979185D01*
X117803210Y-23110288D01*
X117803213Y-23110292D01*
X117914707Y-23221786D01*
X117914711Y-23221789D01*
X118045814Y-23309390D01*
X118045827Y-23309397D01*
X118191498Y-23369735D01*
X118191503Y-23369737D01*
X118346153Y-23400499D01*
X118346156Y-23400500D01*
X118346158Y-23400500D01*
X118503844Y-23400500D01*
X118503845Y-23400499D01*
X118658497Y-23369737D01*
X118804179Y-23309394D01*
X118935289Y-23221789D01*
X119046789Y-23110289D01*
X119134394Y-22979179D01*
X119137702Y-22971194D01*
X119194735Y-22833501D01*
X119194737Y-22833497D01*
X119225500Y-22678842D01*
X119225500Y-22521158D01*
X119225500Y-22521155D01*
X119225499Y-22521153D01*
X119194738Y-22366510D01*
X119194737Y-22366503D01*
X119144813Y-22245974D01*
X119134397Y-22220826D01*
X119134390Y-22220814D01*
X119122746Y-22203388D01*
X121697500Y-22203388D01*
X121697500Y-22396611D01*
X121727725Y-22587441D01*
X121787429Y-22771194D01*
X121875147Y-22943349D01*
X121988715Y-23099663D01*
X122125336Y-23236284D01*
X122281650Y-23349852D01*
X122453805Y-23437570D01*
X122545681Y-23467422D01*
X122637560Y-23497275D01*
X122725943Y-23511273D01*
X122828389Y-23527500D01*
X122828394Y-23527500D01*
X123021611Y-23527500D01*
X123114123Y-23512846D01*
X123212440Y-23497275D01*
X123396197Y-23437569D01*
X123568350Y-23349852D01*
X123724663Y-23236285D01*
X123861285Y-23099663D01*
X123974852Y-22943350D01*
X124062569Y-22771197D01*
X124122275Y-22587440D01*
X124137846Y-22489123D01*
X124152500Y-22396611D01*
X124152500Y-22203388D01*
X124134494Y-22089707D01*
X124122275Y-22012560D01*
X124063044Y-21830264D01*
X124062570Y-21828805D01*
X123974852Y-21656650D01*
X123861284Y-21500336D01*
X123724663Y-21363715D01*
X123568349Y-21250147D01*
X123396194Y-21162429D01*
X123212441Y-21102725D01*
X123021611Y-21072500D01*
X123021606Y-21072500D01*
X122828394Y-21072500D01*
X122828389Y-21072500D01*
X122637558Y-21102725D01*
X122453805Y-21162429D01*
X122281650Y-21250147D01*
X122125336Y-21363715D01*
X121988715Y-21500336D01*
X121875147Y-21656650D01*
X121787429Y-21828805D01*
X121727725Y-22012558D01*
X121697500Y-22203388D01*
X119122746Y-22203388D01*
X119046789Y-22089711D01*
X119046786Y-22089707D01*
X118935292Y-21978213D01*
X118935288Y-21978210D01*
X118804185Y-21890609D01*
X118804172Y-21890602D01*
X118658501Y-21830264D01*
X118658489Y-21830261D01*
X118503845Y-21799500D01*
X118503842Y-21799500D01*
X118346158Y-21799500D01*
X118346155Y-21799500D01*
X118191510Y-21830261D01*
X118191498Y-21830264D01*
X118045827Y-21890602D01*
X118045814Y-21890609D01*
X117914711Y-21978210D01*
X117914707Y-21978213D01*
X117803213Y-22089707D01*
X117803210Y-22089711D01*
X117715609Y-22220814D01*
X117715602Y-22220827D01*
X117655264Y-22366498D01*
X117655261Y-22366510D01*
X117624500Y-22521153D01*
X108752500Y-22521153D01*
X108752500Y-22403388D01*
X108723582Y-22220814D01*
X108722275Y-22212560D01*
X108662569Y-22028803D01*
X108574852Y-21856650D01*
X108461285Y-21700337D01*
X108324663Y-21563715D01*
X108237430Y-21500337D01*
X108168349Y-21450147D01*
X107996194Y-21362429D01*
X107812441Y-21302725D01*
X107621611Y-21272500D01*
X107621606Y-21272500D01*
X107428394Y-21272500D01*
X107428389Y-21272500D01*
X107237558Y-21302725D01*
X107053805Y-21362429D01*
X106881650Y-21450147D01*
X106725336Y-21563715D01*
X106588715Y-21700336D01*
X106475147Y-21856650D01*
X106387429Y-22028805D01*
X106327725Y-22212558D01*
X106297500Y-22403388D01*
X105125000Y-22403388D01*
X105125000Y-20624500D01*
X105144685Y-20557461D01*
X105197489Y-20511706D01*
X105249000Y-20500500D01*
X124600500Y-20500500D01*
X124667539Y-20520185D01*
G37*
%TD.AperFunction*%
%TD*%
%TA.AperFunction,Conductor*%
%TO.N,GND*%
G36*
X124667539Y-47619685D02*
G01*
X124713294Y-47672489D01*
X124724500Y-47724000D01*
X124724500Y-72476000D01*
X124704815Y-72543039D01*
X124652011Y-72588794D01*
X124600500Y-72600000D01*
X105249000Y-72600000D01*
X105181961Y-72580315D01*
X105136206Y-72527511D01*
X105125000Y-72476000D01*
X105125000Y-70103388D01*
X106297500Y-70103388D01*
X106297500Y-70296611D01*
X106327725Y-70487441D01*
X106387429Y-70671194D01*
X106475147Y-70843349D01*
X106588715Y-70999663D01*
X106725336Y-71136284D01*
X106881650Y-71249852D01*
X107053805Y-71337570D01*
X107145681Y-71367422D01*
X107237560Y-71397275D01*
X107325943Y-71411273D01*
X107428389Y-71427500D01*
X107428394Y-71427500D01*
X107621611Y-71427500D01*
X107714123Y-71412846D01*
X107812440Y-71397275D01*
X107996197Y-71337569D01*
X108168350Y-71249852D01*
X108324663Y-71136285D01*
X108461285Y-70999663D01*
X108574852Y-70843350D01*
X108662569Y-70671197D01*
X108722275Y-70487440D01*
X108737846Y-70389123D01*
X108752500Y-70296611D01*
X108752500Y-70103388D01*
X121497500Y-70103388D01*
X121497500Y-70296611D01*
X121527725Y-70487441D01*
X121587429Y-70671194D01*
X121675147Y-70843349D01*
X121788715Y-70999663D01*
X121925336Y-71136284D01*
X122081650Y-71249852D01*
X122253805Y-71337570D01*
X122345681Y-71367422D01*
X122437560Y-71397275D01*
X122525943Y-71411273D01*
X122628389Y-71427500D01*
X122628394Y-71427500D01*
X122821611Y-71427500D01*
X122914123Y-71412846D01*
X123012440Y-71397275D01*
X123196197Y-71337569D01*
X123368350Y-71249852D01*
X123524663Y-71136285D01*
X123661285Y-70999663D01*
X123774852Y-70843350D01*
X123862569Y-70671197D01*
X123922275Y-70487440D01*
X123937846Y-70389123D01*
X123952500Y-70296611D01*
X123952500Y-70103388D01*
X123934916Y-69992373D01*
X123922275Y-69912560D01*
X123862569Y-69728803D01*
X123774852Y-69556650D01*
X123661285Y-69400337D01*
X123524663Y-69263715D01*
X123368350Y-69150148D01*
X123368351Y-69150148D01*
X123368349Y-69150147D01*
X123196194Y-69062429D01*
X123012441Y-69002725D01*
X122821611Y-68972500D01*
X122821606Y-68972500D01*
X122628394Y-68972500D01*
X122628389Y-68972500D01*
X122437558Y-69002725D01*
X122253805Y-69062429D01*
X122081650Y-69150147D01*
X121925336Y-69263715D01*
X121788715Y-69400336D01*
X121675147Y-69556650D01*
X121587429Y-69728805D01*
X121527725Y-69912558D01*
X121497500Y-70103388D01*
X108752500Y-70103388D01*
X108734916Y-69992373D01*
X108722275Y-69912560D01*
X108662569Y-69728803D01*
X108574852Y-69556650D01*
X108461285Y-69400337D01*
X108324663Y-69263715D01*
X108168350Y-69150148D01*
X108168351Y-69150148D01*
X108168349Y-69150147D01*
X107996194Y-69062429D01*
X107812441Y-69002725D01*
X107621611Y-68972500D01*
X107621606Y-68972500D01*
X107428394Y-68972500D01*
X107428389Y-68972500D01*
X107237558Y-69002725D01*
X107053805Y-69062429D01*
X106881650Y-69150147D01*
X106725336Y-69263715D01*
X106588715Y-69400336D01*
X106475147Y-69556650D01*
X106387429Y-69728805D01*
X106327725Y-69912558D01*
X106297500Y-70103388D01*
X105125000Y-70103388D01*
X105125000Y-67021153D01*
X112824500Y-67021153D01*
X112824500Y-67178846D01*
X112855261Y-67333489D01*
X112855264Y-67333501D01*
X112915602Y-67479172D01*
X112915609Y-67479185D01*
X113003210Y-67610288D01*
X113003213Y-67610292D01*
X113114707Y-67721786D01*
X113114711Y-67721789D01*
X113245814Y-67809390D01*
X113245827Y-67809397D01*
X113391498Y-67869735D01*
X113391503Y-67869737D01*
X113546153Y-67900499D01*
X113546156Y-67900500D01*
X113546158Y-67900500D01*
X113703844Y-67900500D01*
X113703845Y-67900499D01*
X113858497Y-67869737D01*
X114004179Y-67809394D01*
X114135289Y-67721789D01*
X114246789Y-67610289D01*
X114334394Y-67479179D01*
X114394737Y-67333497D01*
X114425500Y-67178842D01*
X114425500Y-67021158D01*
X114425500Y-67021155D01*
X114425499Y-67021153D01*
X114399531Y-66890606D01*
X114394737Y-66866503D01*
X114387357Y-66848686D01*
X114334397Y-66720827D01*
X114334390Y-66720814D01*
X114246789Y-66589711D01*
X114246786Y-66589707D01*
X114135292Y-66478213D01*
X114135288Y-66478210D01*
X114049897Y-66421153D01*
X114824500Y-66421153D01*
X114824500Y-66578846D01*
X114855261Y-66733489D01*
X114855264Y-66733501D01*
X114915602Y-66879172D01*
X114915609Y-66879185D01*
X115003210Y-67010288D01*
X115003213Y-67010292D01*
X115114707Y-67121786D01*
X115114711Y-67121789D01*
X115245814Y-67209390D01*
X115245827Y-67209397D01*
X115347023Y-67251313D01*
X115391503Y-67269737D01*
X115545444Y-67300358D01*
X115546153Y-67300499D01*
X115546156Y-67300500D01*
X115546158Y-67300500D01*
X115703844Y-67300500D01*
X115703845Y-67300499D01*
X115858497Y-67269737D01*
X116004179Y-67209394D01*
X116056110Y-67174694D01*
X116122785Y-67153816D01*
X116190165Y-67172300D01*
X116193863Y-67174676D01*
X116245821Y-67209394D01*
X116245823Y-67209395D01*
X116245825Y-67209396D01*
X116347023Y-67251313D01*
X116391503Y-67269737D01*
X116545444Y-67300358D01*
X116546153Y-67300499D01*
X116546156Y-67300500D01*
X116546158Y-67300500D01*
X116703844Y-67300500D01*
X116705285Y-67300358D01*
X116706034Y-67300500D01*
X116709934Y-67300500D01*
X116709934Y-67301239D01*
X116773931Y-67313373D01*
X116824644Y-67361436D01*
X116841321Y-67429286D01*
X116839061Y-67447951D01*
X116824500Y-67521153D01*
X116824500Y-67678846D01*
X116855261Y-67833489D01*
X116855264Y-67833501D01*
X116915602Y-67979172D01*
X116915609Y-67979185D01*
X117003210Y-68110288D01*
X117003213Y-68110292D01*
X117114707Y-68221786D01*
X117114711Y-68221789D01*
X117245814Y-68309390D01*
X117245827Y-68309397D01*
X117391498Y-68369735D01*
X117391503Y-68369737D01*
X117546153Y-68400499D01*
X117546156Y-68400500D01*
X117546158Y-68400500D01*
X117703844Y-68400500D01*
X117703845Y-68400499D01*
X117858497Y-68369737D01*
X118004179Y-68309394D01*
X118135289Y-68221789D01*
X118246789Y-68110289D01*
X118334394Y-67979179D01*
X118394737Y-67833497D01*
X118425500Y-67678842D01*
X118425500Y-67521158D01*
X118425500Y-67521155D01*
X118425499Y-67521153D01*
X118394738Y-67366510D01*
X118394737Y-67366503D01*
X118367398Y-67300500D01*
X118334397Y-67220827D01*
X118334390Y-67220814D01*
X118246789Y-67089711D01*
X118246786Y-67089707D01*
X118135292Y-66978213D01*
X118135288Y-66978210D01*
X118004185Y-66890609D01*
X118004172Y-66890602D01*
X117858501Y-66830264D01*
X117858489Y-66830261D01*
X117703845Y-66799500D01*
X117703842Y-66799500D01*
X117546158Y-66799500D01*
X117546150Y-66799500D01*
X117544697Y-66799643D01*
X117543943Y-66799500D01*
X117540066Y-66799500D01*
X117540066Y-66798764D01*
X117476052Y-66786617D01*
X117425346Y-66738547D01*
X117408679Y-66670695D01*
X117410936Y-66652055D01*
X117425500Y-66578842D01*
X117425500Y-66421158D01*
X117425500Y-66421155D01*
X117425499Y-66421153D01*
X117407419Y-66330261D01*
X117394737Y-66266503D01*
X117394735Y-66266498D01*
X117334397Y-66120827D01*
X117334390Y-66120814D01*
X117246789Y-65989711D01*
X117246786Y-65989707D01*
X117135292Y-65878213D01*
X117135288Y-65878210D01*
X117004185Y-65790609D01*
X117004172Y-65790602D01*
X116858501Y-65730264D01*
X116858489Y-65730261D01*
X116703845Y-65699500D01*
X116703842Y-65699500D01*
X116546158Y-65699500D01*
X116546155Y-65699500D01*
X116391510Y-65730261D01*
X116391498Y-65730264D01*
X116245827Y-65790602D01*
X116245814Y-65790609D01*
X116193891Y-65825304D01*
X116127214Y-65846182D01*
X116059833Y-65827698D01*
X116056109Y-65825304D01*
X116004185Y-65790609D01*
X116004172Y-65790602D01*
X115858501Y-65730264D01*
X115858489Y-65730261D01*
X115703845Y-65699500D01*
X115703842Y-65699500D01*
X115546158Y-65699500D01*
X115546155Y-65699500D01*
X115391510Y-65730261D01*
X115391498Y-65730264D01*
X115245827Y-65790602D01*
X115245814Y-65790609D01*
X115114711Y-65878210D01*
X115114707Y-65878213D01*
X115003213Y-65989707D01*
X115003210Y-65989711D01*
X114915609Y-66120814D01*
X114915602Y-66120827D01*
X114855264Y-66266498D01*
X114855261Y-66266510D01*
X114824500Y-66421153D01*
X114049897Y-66421153D01*
X114004185Y-66390609D01*
X114004172Y-66390602D01*
X113858501Y-66330264D01*
X113858489Y-66330261D01*
X113703845Y-66299500D01*
X113703842Y-66299500D01*
X113546158Y-66299500D01*
X113546155Y-66299500D01*
X113391510Y-66330261D01*
X113391498Y-66330264D01*
X113245827Y-66390602D01*
X113245814Y-66390609D01*
X113114711Y-66478210D01*
X113114707Y-66478213D01*
X113003213Y-66589707D01*
X113003210Y-66589711D01*
X112915609Y-66720814D01*
X112915602Y-66720827D01*
X112855264Y-66866498D01*
X112855261Y-66866510D01*
X112824500Y-67021153D01*
X105125000Y-67021153D01*
X105125000Y-63321153D01*
X111524500Y-63321153D01*
X111524500Y-63478846D01*
X111555261Y-63633489D01*
X111555264Y-63633501D01*
X111615602Y-63779172D01*
X111615609Y-63779185D01*
X111703210Y-63910288D01*
X111703213Y-63910292D01*
X111814707Y-64021786D01*
X111814711Y-64021789D01*
X111945814Y-64109390D01*
X111945827Y-64109397D01*
X112091498Y-64169735D01*
X112091503Y-64169737D01*
X112246153Y-64200499D01*
X112246156Y-64200500D01*
X112246158Y-64200500D01*
X112403844Y-64200500D01*
X112403845Y-64200499D01*
X112558497Y-64169737D01*
X112704179Y-64109394D01*
X112835289Y-64021789D01*
X112946789Y-63910289D01*
X113034394Y-63779179D01*
X113094737Y-63633497D01*
X113125500Y-63478842D01*
X113125500Y-63321158D01*
X113125500Y-63321155D01*
X113125499Y-63321153D01*
X113094738Y-63166510D01*
X113094737Y-63166503D01*
X113094735Y-63166498D01*
X113034397Y-63020827D01*
X113034390Y-63020814D01*
X112946789Y-62889711D01*
X112946786Y-62889707D01*
X112835292Y-62778213D01*
X112835288Y-62778210D01*
X112704185Y-62690609D01*
X112704172Y-62690602D01*
X112558501Y-62630264D01*
X112558489Y-62630261D01*
X112403845Y-62599500D01*
X112403842Y-62599500D01*
X112246158Y-62599500D01*
X112246155Y-62599500D01*
X112091510Y-62630261D01*
X112091498Y-62630264D01*
X111945827Y-62690602D01*
X111945814Y-62690609D01*
X111814711Y-62778210D01*
X111814707Y-62778213D01*
X111703213Y-62889707D01*
X111703210Y-62889711D01*
X111615609Y-63020814D01*
X111615602Y-63020827D01*
X111555264Y-63166498D01*
X111555261Y-63166510D01*
X111524500Y-63321153D01*
X105125000Y-63321153D01*
X105125000Y-60921153D01*
X115724500Y-60921153D01*
X115724500Y-61078846D01*
X115755261Y-61233489D01*
X115755264Y-61233501D01*
X115815602Y-61379172D01*
X115815609Y-61379185D01*
X115903210Y-61510288D01*
X115903213Y-61510292D01*
X116014707Y-61621786D01*
X116014711Y-61621789D01*
X116145814Y-61709390D01*
X116145827Y-61709397D01*
X116291498Y-61769735D01*
X116291503Y-61769737D01*
X116446153Y-61800499D01*
X116446156Y-61800500D01*
X116446158Y-61800500D01*
X116603844Y-61800500D01*
X116603845Y-61800499D01*
X116758497Y-61769737D01*
X116904179Y-61709394D01*
X117035289Y-61621789D01*
X117146789Y-61510289D01*
X117234394Y-61379179D01*
X117294737Y-61233497D01*
X117325500Y-61078842D01*
X117325500Y-60921158D01*
X117325500Y-60921155D01*
X117325499Y-60921153D01*
X117294738Y-60766510D01*
X117294737Y-60766503D01*
X117294735Y-60766498D01*
X117234397Y-60620827D01*
X117234390Y-60620814D01*
X117146789Y-60489711D01*
X117146786Y-60489707D01*
X117035292Y-60378213D01*
X117035288Y-60378210D01*
X116904185Y-60290609D01*
X116904172Y-60290602D01*
X116758501Y-60230264D01*
X116758489Y-60230261D01*
X116603845Y-60199500D01*
X116603842Y-60199500D01*
X116446158Y-60199500D01*
X116446155Y-60199500D01*
X116291510Y-60230261D01*
X116291498Y-60230264D01*
X116145827Y-60290602D01*
X116145814Y-60290609D01*
X116014711Y-60378210D01*
X116014707Y-60378213D01*
X115903213Y-60489707D01*
X115903210Y-60489711D01*
X115815609Y-60620814D01*
X115815602Y-60620827D01*
X115755264Y-60766498D01*
X115755261Y-60766510D01*
X115724500Y-60921153D01*
X105125000Y-60921153D01*
X105125000Y-58121153D01*
X122224500Y-58121153D01*
X122224500Y-58278846D01*
X122255261Y-58433489D01*
X122255264Y-58433501D01*
X122315602Y-58579172D01*
X122315609Y-58579185D01*
X122403210Y-58710288D01*
X122403213Y-58710292D01*
X122514707Y-58821786D01*
X122514712Y-58821790D01*
X122542792Y-58840552D01*
X122587598Y-58894163D01*
X122596307Y-58963488D01*
X122566153Y-59026516D01*
X122561585Y-59031336D01*
X122503210Y-59089711D01*
X122415609Y-59220814D01*
X122415602Y-59220827D01*
X122355264Y-59366498D01*
X122355261Y-59366510D01*
X122324500Y-59521153D01*
X122324500Y-59678846D01*
X122355261Y-59833489D01*
X122355264Y-59833501D01*
X122415602Y-59979172D01*
X122415609Y-59979185D01*
X122503210Y-60110288D01*
X122503213Y-60110292D01*
X122614707Y-60221786D01*
X122614711Y-60221789D01*
X122745814Y-60309390D01*
X122745827Y-60309397D01*
X122891498Y-60369735D01*
X122891503Y-60369737D01*
X123046153Y-60400499D01*
X123046156Y-60400500D01*
X123046158Y-60400500D01*
X123203844Y-60400500D01*
X123203845Y-60400499D01*
X123358497Y-60369737D01*
X123504179Y-60309394D01*
X123635289Y-60221789D01*
X123746789Y-60110289D01*
X123834394Y-59979179D01*
X123894737Y-59833497D01*
X123925500Y-59678842D01*
X123925500Y-59521158D01*
X123925500Y-59521155D01*
X123925499Y-59521153D01*
X123894738Y-59366510D01*
X123894737Y-59366503D01*
X123894735Y-59366498D01*
X123834397Y-59220827D01*
X123834390Y-59220814D01*
X123746789Y-59089711D01*
X123746786Y-59089707D01*
X123635291Y-58978212D01*
X123613254Y-58963488D01*
X123607205Y-58959445D01*
X123562401Y-58905835D01*
X123553692Y-58836510D01*
X123583847Y-58773482D01*
X123588396Y-58768681D01*
X123646789Y-58710289D01*
X123734394Y-58579179D01*
X123794737Y-58433497D01*
X123825500Y-58278842D01*
X123825500Y-58121158D01*
X123825500Y-58121155D01*
X123825499Y-58121153D01*
X123794738Y-57966510D01*
X123794737Y-57966503D01*
X123794735Y-57966498D01*
X123734397Y-57820827D01*
X123734390Y-57820814D01*
X123646789Y-57689711D01*
X123646786Y-57689707D01*
X123535292Y-57578213D01*
X123535288Y-57578210D01*
X123404185Y-57490609D01*
X123404172Y-57490602D01*
X123258501Y-57430264D01*
X123258489Y-57430261D01*
X123103845Y-57399500D01*
X123103842Y-57399500D01*
X122946158Y-57399500D01*
X122946155Y-57399500D01*
X122791510Y-57430261D01*
X122791498Y-57430264D01*
X122645827Y-57490602D01*
X122645814Y-57490609D01*
X122514711Y-57578210D01*
X122514707Y-57578213D01*
X122403213Y-57689707D01*
X122403210Y-57689711D01*
X122315609Y-57820814D01*
X122315602Y-57820827D01*
X122255264Y-57966498D01*
X122255261Y-57966510D01*
X122224500Y-58121153D01*
X105125000Y-58121153D01*
X105125000Y-56921153D01*
X120424500Y-56921153D01*
X120424500Y-57078846D01*
X120455261Y-57233489D01*
X120455264Y-57233501D01*
X120515602Y-57379172D01*
X120515609Y-57379185D01*
X120603210Y-57510288D01*
X120603213Y-57510292D01*
X120714707Y-57621786D01*
X120714711Y-57621789D01*
X120845814Y-57709390D01*
X120845827Y-57709397D01*
X120991498Y-57769735D01*
X120991503Y-57769737D01*
X121146153Y-57800499D01*
X121146156Y-57800500D01*
X121146158Y-57800500D01*
X121303844Y-57800500D01*
X121303845Y-57800499D01*
X121458497Y-57769737D01*
X121604179Y-57709394D01*
X121735289Y-57621789D01*
X121846789Y-57510289D01*
X121934394Y-57379179D01*
X121994737Y-57233497D01*
X122025500Y-57078842D01*
X122025500Y-56921158D01*
X122025500Y-56921155D01*
X122025499Y-56921153D01*
X121994738Y-56766510D01*
X121994737Y-56766503D01*
X121994735Y-56766498D01*
X121934397Y-56620827D01*
X121934390Y-56620814D01*
X121846789Y-56489711D01*
X121846786Y-56489707D01*
X121735292Y-56378213D01*
X121735288Y-56378210D01*
X121604185Y-56290609D01*
X121604172Y-56290602D01*
X121458501Y-56230264D01*
X121458489Y-56230261D01*
X121303845Y-56199500D01*
X121303842Y-56199500D01*
X121146158Y-56199500D01*
X121146155Y-56199500D01*
X120991510Y-56230261D01*
X120991498Y-56230264D01*
X120845827Y-56290602D01*
X120845814Y-56290609D01*
X120714711Y-56378210D01*
X120714707Y-56378213D01*
X120603213Y-56489707D01*
X120603210Y-56489711D01*
X120515609Y-56620814D01*
X120515602Y-56620827D01*
X120455264Y-56766498D01*
X120455261Y-56766510D01*
X120424500Y-56921153D01*
X105125000Y-56921153D01*
X105125000Y-52421153D01*
X112224500Y-52421153D01*
X112224500Y-52578846D01*
X112255261Y-52733489D01*
X112255264Y-52733501D01*
X112315602Y-52879172D01*
X112315609Y-52879185D01*
X112403210Y-53010288D01*
X112403213Y-53010292D01*
X112514707Y-53121786D01*
X112514711Y-53121789D01*
X112645814Y-53209390D01*
X112645827Y-53209397D01*
X112791498Y-53269735D01*
X112791503Y-53269737D01*
X112946153Y-53300499D01*
X112946156Y-53300500D01*
X112946158Y-53300500D01*
X113103844Y-53300500D01*
X113103845Y-53300499D01*
X113258497Y-53269737D01*
X113404179Y-53209394D01*
X113535289Y-53121789D01*
X113535925Y-53121153D01*
X116224500Y-53121153D01*
X116224500Y-53278846D01*
X116255261Y-53433489D01*
X116255264Y-53433501D01*
X116315602Y-53579172D01*
X116315609Y-53579185D01*
X116403210Y-53710288D01*
X116403213Y-53710292D01*
X116514707Y-53821786D01*
X116514711Y-53821789D01*
X116645814Y-53909390D01*
X116645827Y-53909397D01*
X116791498Y-53969735D01*
X116791503Y-53969737D01*
X116946153Y-54000499D01*
X116946156Y-54000500D01*
X116946158Y-54000500D01*
X117103844Y-54000500D01*
X117103845Y-54000499D01*
X117258497Y-53969737D01*
X117404179Y-53909394D01*
X117535289Y-53821789D01*
X117646789Y-53710289D01*
X117734394Y-53579179D01*
X117794737Y-53433497D01*
X117825500Y-53278842D01*
X117825500Y-53121158D01*
X117825500Y-53121155D01*
X117825499Y-53121153D01*
X117803447Y-53010292D01*
X117794737Y-52966503D01*
X117758569Y-52879185D01*
X117734397Y-52820827D01*
X117734390Y-52820814D01*
X117646789Y-52689711D01*
X117646786Y-52689707D01*
X117535292Y-52578213D01*
X117535288Y-52578210D01*
X117404185Y-52490609D01*
X117404172Y-52490602D01*
X117258501Y-52430264D01*
X117258489Y-52430261D01*
X117103845Y-52399500D01*
X117103842Y-52399500D01*
X116946158Y-52399500D01*
X116946155Y-52399500D01*
X116791510Y-52430261D01*
X116791498Y-52430264D01*
X116645827Y-52490602D01*
X116645814Y-52490609D01*
X116514711Y-52578210D01*
X116514707Y-52578213D01*
X116403213Y-52689707D01*
X116403210Y-52689711D01*
X116315609Y-52820814D01*
X116315602Y-52820827D01*
X116255264Y-52966498D01*
X116255261Y-52966510D01*
X116224500Y-53121153D01*
X113535925Y-53121153D01*
X113629694Y-53027385D01*
X113646786Y-53010292D01*
X113646789Y-53010289D01*
X113734394Y-52879179D01*
X113794737Y-52733497D01*
X113825500Y-52578842D01*
X113825500Y-52421158D01*
X113825500Y-52421155D01*
X113825499Y-52421153D01*
X113794738Y-52266510D01*
X113794737Y-52266503D01*
X113794735Y-52266498D01*
X113734397Y-52120827D01*
X113734390Y-52120814D01*
X113646789Y-51989711D01*
X113646786Y-51989707D01*
X113535292Y-51878213D01*
X113535288Y-51878210D01*
X113404185Y-51790609D01*
X113404172Y-51790602D01*
X113258501Y-51730264D01*
X113258489Y-51730261D01*
X113103845Y-51699500D01*
X113103842Y-51699500D01*
X112946158Y-51699500D01*
X112946155Y-51699500D01*
X112791510Y-51730261D01*
X112791498Y-51730264D01*
X112645827Y-51790602D01*
X112645814Y-51790609D01*
X112514711Y-51878210D01*
X112514707Y-51878213D01*
X112403213Y-51989707D01*
X112403210Y-51989711D01*
X112315609Y-52120814D01*
X112315602Y-52120827D01*
X112255264Y-52266498D01*
X112255261Y-52266510D01*
X112224500Y-52421153D01*
X105125000Y-52421153D01*
X105125000Y-49903388D01*
X106297500Y-49903388D01*
X106297500Y-50096611D01*
X106327725Y-50287441D01*
X106387429Y-50471194D01*
X106475147Y-50643349D01*
X106588715Y-50799663D01*
X106725337Y-50936285D01*
X106727106Y-50937570D01*
X106881650Y-51049852D01*
X107053805Y-51137570D01*
X107145681Y-51167422D01*
X107237560Y-51197275D01*
X107325943Y-51211273D01*
X107428389Y-51227500D01*
X107428394Y-51227500D01*
X107621611Y-51227500D01*
X107714123Y-51212846D01*
X107812440Y-51197275D01*
X107996197Y-51137569D01*
X108168350Y-51049852D01*
X108324663Y-50936285D01*
X108461285Y-50799663D01*
X108574852Y-50643350D01*
X108662569Y-50471197D01*
X108722275Y-50287440D01*
X108739475Y-50178842D01*
X108752500Y-50096611D01*
X108752500Y-50021153D01*
X117624500Y-50021153D01*
X117624500Y-50178846D01*
X117655261Y-50333489D01*
X117655264Y-50333501D01*
X117715602Y-50479172D01*
X117715609Y-50479185D01*
X117803210Y-50610288D01*
X117803213Y-50610292D01*
X117914707Y-50721786D01*
X117914711Y-50721789D01*
X118045814Y-50809390D01*
X118045827Y-50809397D01*
X118191498Y-50869735D01*
X118191503Y-50869737D01*
X118346153Y-50900499D01*
X118346156Y-50900500D01*
X118346158Y-50900500D01*
X118503844Y-50900500D01*
X118503845Y-50900499D01*
X118658497Y-50869737D01*
X118804179Y-50809394D01*
X118935289Y-50721789D01*
X119046789Y-50610289D01*
X119134394Y-50479179D01*
X119137702Y-50471194D01*
X119194735Y-50333501D01*
X119194737Y-50333497D01*
X119225500Y-50178842D01*
X119225500Y-50021158D01*
X119225500Y-50021155D01*
X119225499Y-50021153D01*
X119194738Y-49866510D01*
X119194737Y-49866503D01*
X119144813Y-49745974D01*
X119134397Y-49720826D01*
X119134390Y-49720814D01*
X119122746Y-49703388D01*
X121697500Y-49703388D01*
X121697500Y-49896611D01*
X121727725Y-50087441D01*
X121787429Y-50271194D01*
X121875147Y-50443349D01*
X121988715Y-50599663D01*
X122125336Y-50736284D01*
X122281650Y-50849852D01*
X122453805Y-50937570D01*
X122545681Y-50967422D01*
X122637560Y-50997275D01*
X122725943Y-51011273D01*
X122828389Y-51027500D01*
X122828394Y-51027500D01*
X123021611Y-51027500D01*
X123114123Y-51012846D01*
X123212440Y-50997275D01*
X123396197Y-50937569D01*
X123568350Y-50849852D01*
X123724663Y-50736285D01*
X123861285Y-50599663D01*
X123974852Y-50443350D01*
X124062569Y-50271197D01*
X124122275Y-50087440D01*
X124137846Y-49989123D01*
X124152500Y-49896611D01*
X124152500Y-49703388D01*
X124134494Y-49589707D01*
X124122275Y-49512560D01*
X124063044Y-49330264D01*
X124062570Y-49328805D01*
X123974852Y-49156650D01*
X123861284Y-49000336D01*
X123724663Y-48863715D01*
X123568349Y-48750147D01*
X123396194Y-48662429D01*
X123212441Y-48602725D01*
X123021611Y-48572500D01*
X123021606Y-48572500D01*
X122828394Y-48572500D01*
X122828389Y-48572500D01*
X122637558Y-48602725D01*
X122453805Y-48662429D01*
X122281650Y-48750147D01*
X122125336Y-48863715D01*
X121988715Y-49000336D01*
X121875147Y-49156650D01*
X121787429Y-49328805D01*
X121727725Y-49512558D01*
X121697500Y-49703388D01*
X119122746Y-49703388D01*
X119046789Y-49589711D01*
X119046786Y-49589707D01*
X118935292Y-49478213D01*
X118935288Y-49478210D01*
X118804185Y-49390609D01*
X118804172Y-49390602D01*
X118658501Y-49330264D01*
X118658489Y-49330261D01*
X118503845Y-49299500D01*
X118503842Y-49299500D01*
X118346158Y-49299500D01*
X118346155Y-49299500D01*
X118191510Y-49330261D01*
X118191498Y-49330264D01*
X118045827Y-49390602D01*
X118045814Y-49390609D01*
X117914711Y-49478210D01*
X117914707Y-49478213D01*
X117803213Y-49589707D01*
X117803210Y-49589711D01*
X117715609Y-49720814D01*
X117715602Y-49720827D01*
X117655264Y-49866498D01*
X117655261Y-49866510D01*
X117624500Y-50021153D01*
X108752500Y-50021153D01*
X108752500Y-49903388D01*
X108723582Y-49720814D01*
X108722275Y-49712560D01*
X108662569Y-49528803D01*
X108574852Y-49356650D01*
X108461285Y-49200337D01*
X108324663Y-49063715D01*
X108237430Y-49000337D01*
X108168349Y-48950147D01*
X107996194Y-48862429D01*
X107812441Y-48802725D01*
X107621611Y-48772500D01*
X107621606Y-48772500D01*
X107428394Y-48772500D01*
X107428389Y-48772500D01*
X107237558Y-48802725D01*
X107053805Y-48862429D01*
X106881650Y-48950147D01*
X106725336Y-49063715D01*
X106588715Y-49200336D01*
X106475147Y-49356650D01*
X106387429Y-49528805D01*
X106327725Y-49712558D01*
X106297500Y-49903388D01*
X105125000Y-49903388D01*
X105125000Y-47724000D01*
X105144685Y-47656961D01*
X105197489Y-47611206D01*
X105249000Y-47600000D01*
X124600500Y-47600000D01*
X124667539Y-47619685D01*
G37*
%TD.AperFunction*%
%TD*%
M02*
