%TF.GenerationSoftware,KiCad,Pcbnew,9.0.7*%
%TF.CreationDate,2026-02-23T15:17:49-08:00*%
%TF.ProjectId,camera_controller_RTO_panel,63616d65-7261-45f6-936f-6e74726f6c6c,1.0*%
%TF.SameCoordinates,Original*%
%TF.FileFunction,Soldermask,Top*%
%TF.FilePolarity,Negative*%
%FSLAX46Y46*%
G04 Gerber Fmt 4.6, Leading zero omitted, Abs format (unit mm)*
G04 Created by KiCad (PCBNEW 9.0.7) date 2026-02-23 15:17:49*
%MOMM*%
%LPD*%
G01*
G04 APERTURE LIST*
G04 Aperture macros list*
%AMRoundRect*
0 Rectangle with rounded corners*
0 $1 Rounding radius*
0 $2 $3 $4 $5 $6 $7 $8 $9 X,Y pos of 4 corners*
0 Add a 4 corners polygon primitive as box body*
4,1,4,$2,$3,$4,$5,$6,$7,$8,$9,$2,$3,0*
0 Add four circle primitives for the rounded corners*
1,1,$1+$1,$2,$3*
1,1,$1+$1,$4,$5*
1,1,$1+$1,$6,$7*
1,1,$1+$1,$8,$9*
0 Add four rect primitives between the rounded corners*
20,1,$1+$1,$2,$3,$4,$5,0*
20,1,$1+$1,$4,$5,$6,$7,0*
20,1,$1+$1,$6,$7,$8,$9,0*
20,1,$1+$1,$8,$9,$2,$3,0*%
G04 Aperture macros list end*
%ADD10C,0.000000*%
%ADD11C,2.200000*%
%ADD12RoundRect,0.102000X-0.750000X-0.450000X0.750000X-0.450000X0.750000X0.450000X-0.750000X0.450000X0*%
%ADD13RoundRect,0.150000X0.150000X-0.512500X0.150000X0.512500X-0.150000X0.512500X-0.150000X-0.512500X0*%
%ADD14R,1.092200X2.895600*%
%ADD15R,0.660400X1.701800*%
%ADD16RoundRect,0.250000X-0.375000X-0.625000X0.375000X-0.625000X0.375000X0.625000X-0.375000X0.625000X0*%
%ADD17R,2.895600X1.092200*%
%ADD18R,1.803400X0.660400*%
%ADD19RoundRect,0.250000X-0.262500X-0.450000X0.262500X-0.450000X0.262500X0.450000X-0.262500X0.450000X0*%
%ADD20R,0.600000X1.700000*%
%ADD21R,1.000000X2.800000*%
%ADD22C,1.000000*%
%ADD23R,1.500000X3.100000*%
%ADD24RoundRect,0.250000X-1.000000X1.750000X-1.000000X-1.750000X1.000000X-1.750000X1.000000X1.750000X0*%
%ADD25R,1.549400X0.660400*%
%ADD26R,1.905000X1.295400*%
%ADD27RoundRect,0.250000X0.250000X0.475000X-0.250000X0.475000X-0.250000X-0.475000X0.250000X-0.475000X0*%
%ADD28RoundRect,0.250000X-0.325000X-1.100000X0.325000X-1.100000X0.325000X1.100000X-0.325000X1.100000X0*%
%ADD29RoundRect,0.250000X0.262500X0.450000X-0.262500X0.450000X-0.262500X-0.450000X0.262500X-0.450000X0*%
%ADD30R,1.500000X2.300000*%
%ADD31O,1.500000X2.300000*%
%ADD32R,1.700000X1.700000*%
%ADD33O,1.700000X1.700000*%
%ADD34RoundRect,0.250000X0.450000X-0.262500X0.450000X0.262500X-0.450000X0.262500X-0.450000X-0.262500X0*%
%ADD35C,0.800000*%
%ADD36C,5.400000*%
%ADD37R,0.660400X1.803400*%
%ADD38RoundRect,0.250000X1.000000X-1.750000X1.000000X1.750000X-1.000000X1.750000X-1.000000X-1.750000X0*%
%ADD39RoundRect,0.250000X-0.450000X0.262500X-0.450000X-0.262500X0.450000X-0.262500X0.450000X0.262500X0*%
%ADD40RoundRect,0.250000X1.750000X1.000000X-1.750000X1.000000X-1.750000X-1.000000X1.750000X-1.000000X0*%
%ADD41R,0.863600X1.549400*%
%ADD42R,3.149600X1.555200*%
%ADD43RoundRect,0.250000X-0.250000X-0.475000X0.250000X-0.475000X0.250000X0.475000X-0.250000X0.475000X0*%
%ADD44RoundRect,0.100000X0.100000X-0.637500X0.100000X0.637500X-0.100000X0.637500X-0.100000X-0.637500X0*%
%ADD45RoundRect,0.500000X1.750000X-1.250000X1.750000X1.250000X-1.750000X1.250000X-1.750000X-1.250000X0*%
%ADD46RoundRect,0.250000X-0.475000X0.250000X-0.475000X-0.250000X0.475000X-0.250000X0.475000X0.250000X0*%
%ADD47C,1.700000*%
%ADD48RoundRect,0.250000X-1.000000X1.400000X-1.000000X-1.400000X1.000000X-1.400000X1.000000X1.400000X0*%
%ADD49RoundRect,0.500000X-1.250000X-1.750000X1.250000X-1.750000X1.250000X1.750000X-1.250000X1.750000X0*%
%ADD50RoundRect,0.250000X0.475000X-0.250000X0.475000X0.250000X-0.475000X0.250000X-0.475000X-0.250000X0*%
%ADD51R,1.104900X1.498600*%
%ADD52R,1.524000X0.508000*%
%ADD53O,1.524000X0.508000*%
%ADD54RoundRect,0.250000X0.350000X-0.850000X0.350000X0.850000X-0.350000X0.850000X-0.350000X-0.850000X0*%
%ADD55RoundRect,0.249997X2.650003X-2.950003X2.650003X2.950003X-2.650003X2.950003X-2.650003X-2.950003X0*%
G04 APERTURE END LIST*
D10*
%TO.C,Q6*%
G36*
X37800200Y-41984500D02*
G01*
X34599800Y-41984500D01*
X34599800Y-40373900D01*
X37800200Y-40373900D01*
X37800200Y-41984500D01*
G37*
%TD*%
D11*
%TO.C,REF\u002A\u002A*%
X107525000Y-50000000D03*
%TD*%
%TO.C,REF\u002A\u002A*%
X107525000Y-70200000D03*
%TD*%
D12*
%TO.C,D2*%
X121775000Y-58200000D03*
X121775000Y-59600000D03*
X118675000Y-58200000D03*
X118675000Y-59600000D03*
%TD*%
D13*
%TO.C,U2*%
X114175000Y-53137500D03*
X116075000Y-53137500D03*
X115125000Y-50862500D03*
%TD*%
D11*
%TO.C,REF\u002A\u002A*%
X122925000Y-49800000D03*
%TD*%
D14*
%TO.C,J1*%
X119725000Y-70505837D03*
X110525000Y-70530603D03*
D15*
X118625000Y-64897263D03*
X117625000Y-64897263D03*
X116624999Y-64897263D03*
X115625001Y-64897263D03*
X114625000Y-64897263D03*
X113625000Y-64897263D03*
X112625000Y-64897263D03*
X111625000Y-64897263D03*
%TD*%
D16*
%TO.C,D1*%
X108325000Y-58900000D03*
X111125000Y-58900000D03*
%TD*%
D11*
%TO.C,REF\u002A\u002A*%
X122725000Y-70200000D03*
%TD*%
%TO.C,REF\u002A\u002A*%
X107525000Y-22500000D03*
%TD*%
%TO.C,REF\u002A\u002A*%
X107525000Y-42700000D03*
%TD*%
D12*
%TO.C,D2*%
X121775000Y-30700000D03*
X121775000Y-32100000D03*
X118675000Y-30700000D03*
X118675000Y-32100000D03*
%TD*%
D13*
%TO.C,U2*%
X114175000Y-25637500D03*
X116075000Y-25637500D03*
X115125000Y-23362500D03*
%TD*%
D11*
%TO.C,REF\u002A\u002A*%
X122925000Y-22300000D03*
%TD*%
D14*
%TO.C,J1*%
X119725000Y-43005837D03*
X110525000Y-43030603D03*
D15*
X118625000Y-37397263D03*
X117625000Y-37397263D03*
X116624999Y-37397263D03*
X115625001Y-37397263D03*
X114625000Y-37397263D03*
X113625000Y-37397263D03*
X112625000Y-37397263D03*
X111625000Y-37397263D03*
%TD*%
D16*
%TO.C,D1*%
X108325000Y-31400000D03*
X111125000Y-31400000D03*
%TD*%
D11*
%TO.C,REF\u002A\u002A*%
X122725000Y-42700000D03*
%TD*%
D17*
%TO.C,J6*%
X100453600Y-65400002D03*
X100453600Y-69599998D03*
D18*
X95303600Y-68500001D03*
X95303600Y-67500000D03*
X95303600Y-66499999D03*
%TD*%
D19*
%TO.C,R25*%
X80787500Y-28350000D03*
X82612500Y-28350000D03*
%TD*%
D20*
%TO.C,J13*%
X76525000Y-71600000D03*
X77525000Y-71600000D03*
X78525000Y-71600000D03*
X79525000Y-71600000D03*
D21*
X75425000Y-76750000D03*
X80625000Y-76750000D03*
%TD*%
D14*
%TO.C,J10*%
X69800000Y-22691426D03*
X79000000Y-22666660D03*
D15*
X70900000Y-28300000D03*
X71900000Y-28300000D03*
X72900001Y-28300000D03*
X73899999Y-28300000D03*
X74900000Y-28300000D03*
X75900000Y-28300000D03*
X76900000Y-28300000D03*
X77900000Y-28300000D03*
%TD*%
D22*
%TO.C,J9*%
X29800000Y-22150000D03*
X54300000Y-22150000D03*
D23*
X54300000Y-30400000D03*
X50800000Y-30400000D03*
X47300000Y-30400000D03*
X43800000Y-30400000D03*
X40300000Y-30400000D03*
X36800000Y-30400000D03*
X33300000Y-30400000D03*
X29800000Y-30400000D03*
%TD*%
D24*
%TO.C,C1*%
X44500000Y-67300000D03*
X44500000Y-75300000D03*
%TD*%
D25*
%TO.C,J8*%
X69182201Y-40300000D03*
X69182201Y-39299999D03*
X69182201Y-38300001D03*
X69182201Y-37300000D03*
D26*
X66602201Y-41599999D03*
X66602201Y-36000001D03*
%TD*%
D27*
%TO.C,C4*%
X51750000Y-47600000D03*
X49850000Y-47600000D03*
%TD*%
D28*
%TO.C,C17*%
X41725000Y-59800000D03*
X44675000Y-59800000D03*
%TD*%
%TO.C,C16*%
X41725000Y-63100000D03*
X44675000Y-63100000D03*
%TD*%
D29*
%TO.C,R15*%
X92887500Y-32450000D03*
X91062500Y-32450000D03*
%TD*%
%TO.C,R18*%
X93212500Y-66400000D03*
X91387500Y-66400000D03*
%TD*%
D30*
%TO.C,U1*%
X45053000Y-44107500D03*
D31*
X47593000Y-44107500D03*
X50133000Y-44107500D03*
%TD*%
D32*
%TO.C,J16*%
X25000000Y-31800000D03*
D33*
X22460000Y-31800000D03*
%TD*%
D29*
%TO.C,R17*%
X93212500Y-68400000D03*
X91387500Y-68400000D03*
%TD*%
D25*
%TO.C,J7*%
X61482200Y-40297799D03*
X61482200Y-39297798D03*
X61482200Y-38297800D03*
X61482200Y-37297799D03*
D26*
X58902200Y-41597798D03*
X58902200Y-35997800D03*
%TD*%
D34*
%TO.C,R19*%
X47300000Y-56312500D03*
X47300000Y-54487500D03*
%TD*%
D35*
%TO.C,*%
X96915000Y-23735000D03*
X97508109Y-22303109D03*
X97508109Y-25166891D03*
X98940000Y-21710000D03*
D36*
X98940000Y-23735000D03*
D35*
X98940000Y-25760000D03*
X100371891Y-22303109D03*
X100371891Y-25166891D03*
X100965000Y-23735000D03*
%TD*%
D14*
%TO.C,J15*%
X93124996Y-76700000D03*
X88925000Y-76700000D03*
D37*
X90024997Y-71550000D03*
X91024998Y-71550000D03*
X92024999Y-71550000D03*
%TD*%
D38*
%TO.C,C2*%
X33600000Y-60300000D03*
X33600000Y-52300000D03*
%TD*%
D39*
%TO.C,R21*%
X71850000Y-39975000D03*
X71850000Y-41800000D03*
%TD*%
D40*
%TO.C,C11*%
X30507500Y-40160000D03*
X22507500Y-40160000D03*
%TD*%
D19*
%TO.C,R26*%
X80787500Y-30350000D03*
X82612500Y-30350000D03*
%TD*%
D28*
%TO.C,C3*%
X44625000Y-48200000D03*
X47575000Y-48200000D03*
%TD*%
D35*
%TO.C,*%
X21375000Y-75415000D03*
X21968109Y-73983109D03*
X21968109Y-76846891D03*
X23400000Y-73390000D03*
D36*
X23400000Y-75415000D03*
D35*
X23400000Y-77440000D03*
X24831891Y-73983109D03*
X24831891Y-76846891D03*
X25425000Y-75415000D03*
%TD*%
D41*
%TO.C,Q6*%
X33900000Y-47625800D03*
D42*
X36200000Y-41177100D03*
D41*
X36200000Y-47625800D03*
X38500000Y-47625800D03*
%TD*%
D43*
%TO.C,C13*%
X80750000Y-32450000D03*
X82650000Y-32450000D03*
%TD*%
D44*
%TO.C,U4*%
X41025000Y-56662500D03*
X41675000Y-56662500D03*
X42325000Y-56662500D03*
X42975000Y-56662500D03*
X43625000Y-56662500D03*
X44275000Y-56662500D03*
X44925000Y-56662500D03*
X45575000Y-56662500D03*
X45575000Y-50937500D03*
X44925000Y-50937500D03*
X44275000Y-50937500D03*
X43625000Y-50937500D03*
X42975000Y-50937500D03*
X42325000Y-50937500D03*
X41675000Y-50937500D03*
X41025000Y-50937500D03*
%TD*%
D17*
%TO.C,J5*%
X100478600Y-29350002D03*
X100478600Y-33549998D03*
D18*
X95328600Y-32450001D03*
X95328600Y-31450000D03*
X95328600Y-30449999D03*
%TD*%
D35*
%TO.C,*%
X96915000Y-75415000D03*
X97508109Y-73983109D03*
X97508109Y-76846891D03*
X98940000Y-73390000D03*
D36*
X98940000Y-75415000D03*
D35*
X98940000Y-77440000D03*
X100371891Y-73983109D03*
X100371891Y-76846891D03*
X100965000Y-75415000D03*
%TD*%
D45*
%TO.C,J12*%
X23062500Y-54000000D03*
X23062500Y-49000000D03*
%TD*%
D46*
%TO.C,C22*%
X53200000Y-66250000D03*
X53200000Y-68150000D03*
%TD*%
D14*
%TO.C,J11*%
X58600000Y-22744226D03*
X65800000Y-22744226D03*
D15*
X59700000Y-28352800D03*
X60700000Y-28352800D03*
X61700001Y-28352800D03*
X62699999Y-28352800D03*
X63700000Y-28352800D03*
X64700000Y-28352800D03*
%TD*%
D19*
%TO.C,R28*%
X83587500Y-35175000D03*
X85412500Y-35175000D03*
%TD*%
D29*
%TO.C,R16*%
X92887500Y-30450000D03*
X91062500Y-30450000D03*
%TD*%
D32*
%TO.C,U3*%
X71725000Y-73125000D03*
D33*
X71725000Y-70585000D03*
X71725000Y-68045000D03*
X71725000Y-65505000D03*
X71725000Y-62965000D03*
X71725000Y-60425000D03*
X71725000Y-57885000D03*
X71725000Y-55345000D03*
X71725000Y-52805000D03*
X71725000Y-50265000D03*
X71725000Y-47725000D03*
X71725000Y-45185000D03*
X56485000Y-45055000D03*
X56485000Y-47595000D03*
X56485000Y-50135000D03*
X56485000Y-52675000D03*
X56485000Y-55215000D03*
X56485000Y-57755000D03*
X56485000Y-60295000D03*
X56485000Y-62835000D03*
X56485000Y-65375000D03*
X56485000Y-67915000D03*
X56485000Y-70585000D03*
D47*
X56485000Y-72995000D03*
D33*
X59025000Y-61565000D03*
D47*
X59025000Y-64105000D03*
%TD*%
D14*
%TO.C,J14*%
X86824996Y-76725000D03*
X82625000Y-76725000D03*
D37*
X83724997Y-71575000D03*
X84724998Y-71575000D03*
X85724999Y-71575000D03*
%TD*%
D35*
%TO.C,*%
X21375000Y-23735000D03*
X21968109Y-22303109D03*
X21968109Y-25166891D03*
X23400000Y-21710000D03*
D36*
X23400000Y-23735000D03*
D35*
X23400000Y-25760000D03*
X24831891Y-22303109D03*
X24831891Y-25166891D03*
X25425000Y-23735000D03*
%TD*%
D19*
%TO.C,R27*%
X74887500Y-30600000D03*
X76712500Y-30600000D03*
%TD*%
D48*
%TO.C,CR1*%
X36900000Y-66400000D03*
X30100000Y-66400000D03*
%TD*%
D49*
%TO.C,J1*%
X30500000Y-74400000D03*
X35500000Y-74400000D03*
%TD*%
D50*
%TO.C,C9*%
X47300000Y-52850000D03*
X47300000Y-50950000D03*
%TD*%
D51*
%TO.C,CR2*%
X73908550Y-33000000D03*
X76791450Y-33000000D03*
%TD*%
D52*
%TO.C,U7*%
X76575400Y-37065000D03*
D53*
X76575400Y-38335000D03*
X83585800Y-38335000D03*
X83585800Y-37065000D03*
%TD*%
D34*
%TO.C,R20*%
X49400000Y-56312500D03*
X49400000Y-54487500D03*
%TD*%
D54*
%TO.C,Q1*%
X22095000Y-67580000D03*
D55*
X24375000Y-61280000D03*
D54*
X26655000Y-67580000D03*
%TD*%
M02*
