M48
; DRILL file {KiCad 8.0.4} date 2024-11-07T09:22:55-0800
; FORMAT={-:-/ absolute / inch / decimal}
; #@! TF.CreationDate,2024-11-07T09:22:55-08:00
; #@! TF.GenerationSoftware,Kicad,Pcbnew,8.0.4
; #@! TF.FileFunction,Plated,1,4,PTH
FMAT,2
INCH
; #@! TA.AperFunction,Plated,PTH,ViaDrill
T1C0.0118
; #@! TA.AperFunction,Plated,PTH,ComponentDrill
T2C0.0197
; #@! TA.AperFunction,Plated,PTH,ComponentDrill
T3C0.0394
; #@! TA.AperFunction,Plated,PTH,ComponentDrill
T4C0.1063
%
G90
G05
T1
X1.1821Y-1.3337
X1.1831Y-0.8533
X1.1831Y-1.0315
X1.1831Y-1.186
X1.1831Y-1.5098
X1.3839Y-1.4862
X1.4035Y-1.2648
X1.4429Y-1.2638
X1.4557Y-1.1467
X1.4813Y-1.2657
X1.5Y-1.0748
X1.5217Y-1.2667
X1.5374Y-1.0787
X1.5502Y-0.8415
X1.6004Y-0.8415
X1.6004Y-1.2687
X1.6398Y-1.2677
X1.6496Y-0.8445
X1.6594Y-1.4823
X1.7002Y-1.0806
X1.7008Y-0.8415
X1.7461Y-1.186
X1.752Y-0.8435
X1.8002Y-0.8445
X1.8494Y-0.8435
X1.8494Y-1.1437
X1.8681Y-1.3632
X1.8996Y-0.8435
X2.0069Y-0.8799
X2.0118Y-1.4813
X2.0177Y-1.0768
X2.1043Y-1.1496
X2.1053Y-1.0285
X2.2874Y-1.4843
X2.3465Y-0.8406
X2.3474Y-1.2037
X2.4984Y-0.8425
X2.5482Y-0.8366
X2.5856Y-1.0797
X2.5886Y-1.1781
X2.5984Y-0.8357
X2.626Y-1.3179
X2.6484Y-0.827
X2.7047Y-1.3179
X2.749Y-0.8425
X2.7835Y-1.3179
X2.7894Y-1.1329
X2.7972Y-0.8425
X2.8622Y-1.3179
X2.9764Y-1.1043
X2.9961Y-0.8425
X3.0482Y-0.8415
X3.1481Y-1.0802
X3.1998Y-1.0787
X3.4478Y-1.0797
T2
X0.9045Y-0.9843
X0.9279Y-0.9279
X0.9279Y-1.0406
X0.9843Y-0.9045
X0.9843Y-1.064
X1.0406Y-0.9279
X1.0406Y-1.0406
X1.064Y-0.9843
X3.8785Y-0.9843
X3.9019Y-0.9279
X3.9019Y-1.0406
X3.9583Y-0.9045
X3.9583Y-1.064
X4.0146Y-0.9279
X4.0146Y-1.0406
X4.038Y-0.9843
T3
X3.5854Y-1.1112
X3.6854Y-1.1112
X3.7854Y-1.1112
T4
X0.9843Y-0.9843
X3.9583Y-0.9843
M30
