%TF.GenerationSoftware,KiCad,Pcbnew,8.0.4*%
%TF.CreationDate,2024-11-07T09:22:51-08:00*%
%TF.ProjectId,hadron_io_breakouts,68616472-6f6e-45f6-996f-5f627265616b,rev?*%
%TF.SameCoordinates,Original*%
%TF.FileFunction,Legend,Bot*%
%TF.FilePolarity,Positive*%
%FSLAX46Y46*%
G04 Gerber Fmt 4.6, Leading zero omitted, Abs format (unit mm)*
G04 Created by KiCad (PCBNEW 8.0.4) date 2024-11-07 09:22:51*
%MOMM*%
%LPD*%
G01*
G04 APERTURE LIST*
%ADD10C,0.130000*%
%ADD11C,0.127000*%
%ADD12C,0.254000*%
%ADD13C,0.150000*%
%ADD14C,0.200000*%
%ADD15C,0.000000*%
G04 APERTURE END LIST*
D10*
X28850188Y-36759668D02*
X28493045Y-37759668D01*
X28493045Y-37759668D02*
X28135902Y-36759668D01*
X26778759Y-37759668D02*
X27635902Y-37759668D01*
X27207331Y-37759668D02*
X27207331Y-36259668D01*
X27207331Y-36259668D02*
X27350188Y-36473954D01*
X27350188Y-36473954D02*
X27493045Y-36616811D01*
X27493045Y-36616811D02*
X27635902Y-36688240D01*
X26135903Y-37616811D02*
X26064474Y-37688240D01*
X26064474Y-37688240D02*
X26135903Y-37759668D01*
X26135903Y-37759668D02*
X26207331Y-37688240D01*
X26207331Y-37688240D02*
X26135903Y-37616811D01*
X26135903Y-37616811D02*
X26135903Y-37759668D01*
X24635902Y-37759668D02*
X25493045Y-37759668D01*
X25064474Y-37759668D02*
X25064474Y-36259668D01*
X25064474Y-36259668D02*
X25207331Y-36473954D01*
X25207331Y-36473954D02*
X25350188Y-36616811D01*
X25350188Y-36616811D02*
X25493045Y-36688240D01*
D11*
X89728352Y-37821015D02*
X89728352Y-37154348D01*
X89728352Y-37344824D02*
X89680733Y-37249586D01*
X89680733Y-37249586D02*
X89633114Y-37201967D01*
X89633114Y-37201967D02*
X89537876Y-37154348D01*
X89537876Y-37154348D02*
X89442638Y-37154348D01*
X89109304Y-37821015D02*
X89109304Y-37154348D01*
X89109304Y-36821015D02*
X89156923Y-36868634D01*
X89156923Y-36868634D02*
X89109304Y-36916253D01*
X89109304Y-36916253D02*
X89061685Y-36868634D01*
X89061685Y-36868634D02*
X89109304Y-36821015D01*
X89109304Y-36821015D02*
X89109304Y-36916253D01*
X88204543Y-37773396D02*
X88299781Y-37821015D01*
X88299781Y-37821015D02*
X88490257Y-37821015D01*
X88490257Y-37821015D02*
X88585495Y-37773396D01*
X88585495Y-37773396D02*
X88633114Y-37725776D01*
X88633114Y-37725776D02*
X88680733Y-37630538D01*
X88680733Y-37630538D02*
X88680733Y-37344824D01*
X88680733Y-37344824D02*
X88633114Y-37249586D01*
X88633114Y-37249586D02*
X88585495Y-37201967D01*
X88585495Y-37201967D02*
X88490257Y-37154348D01*
X88490257Y-37154348D02*
X88299781Y-37154348D01*
X88299781Y-37154348D02*
X88204543Y-37201967D01*
X87775971Y-37821015D02*
X87775971Y-36821015D01*
X87680733Y-37440062D02*
X87395019Y-37821015D01*
X87395019Y-37154348D02*
X87775971Y-37535300D01*
X86966447Y-37725776D02*
X86918828Y-37773396D01*
X86918828Y-37773396D02*
X86966447Y-37821015D01*
X86966447Y-37821015D02*
X87014066Y-37773396D01*
X87014066Y-37773396D02*
X86966447Y-37725776D01*
X86966447Y-37725776D02*
X86966447Y-37821015D01*
X86633114Y-37154348D02*
X86252162Y-37154348D01*
X86490257Y-36821015D02*
X86490257Y-37678157D01*
X86490257Y-37678157D02*
X86442638Y-37773396D01*
X86442638Y-37773396D02*
X86347400Y-37821015D01*
X86347400Y-37821015D02*
X86252162Y-37821015D01*
X85775971Y-37821015D02*
X85871209Y-37773396D01*
X85871209Y-37773396D02*
X85918828Y-37725776D01*
X85918828Y-37725776D02*
X85966447Y-37630538D01*
X85966447Y-37630538D02*
X85966447Y-37344824D01*
X85966447Y-37344824D02*
X85918828Y-37249586D01*
X85918828Y-37249586D02*
X85871209Y-37201967D01*
X85871209Y-37201967D02*
X85775971Y-37154348D01*
X85775971Y-37154348D02*
X85633114Y-37154348D01*
X85633114Y-37154348D02*
X85537876Y-37201967D01*
X85537876Y-37201967D02*
X85490257Y-37249586D01*
X85490257Y-37249586D02*
X85442638Y-37344824D01*
X85442638Y-37344824D02*
X85442638Y-37630538D01*
X85442638Y-37630538D02*
X85490257Y-37725776D01*
X85490257Y-37725776D02*
X85537876Y-37773396D01*
X85537876Y-37773396D02*
X85633114Y-37821015D01*
X85633114Y-37821015D02*
X85775971Y-37821015D01*
X85109304Y-37154348D02*
X84918828Y-37821015D01*
X84918828Y-37821015D02*
X84728352Y-37344824D01*
X84728352Y-37344824D02*
X84537876Y-37821015D01*
X84537876Y-37821015D02*
X84347400Y-37154348D01*
X83823590Y-37821015D02*
X83918828Y-37773396D01*
X83918828Y-37773396D02*
X83966447Y-37678157D01*
X83966447Y-37678157D02*
X83966447Y-36821015D01*
X83061685Y-37773396D02*
X83156923Y-37821015D01*
X83156923Y-37821015D02*
X83347399Y-37821015D01*
X83347399Y-37821015D02*
X83442637Y-37773396D01*
X83442637Y-37773396D02*
X83490256Y-37678157D01*
X83490256Y-37678157D02*
X83490256Y-37297205D01*
X83490256Y-37297205D02*
X83442637Y-37201967D01*
X83442637Y-37201967D02*
X83347399Y-37154348D01*
X83347399Y-37154348D02*
X83156923Y-37154348D01*
X83156923Y-37154348D02*
X83061685Y-37201967D01*
X83061685Y-37201967D02*
X83014066Y-37297205D01*
X83014066Y-37297205D02*
X83014066Y-37392443D01*
X83014066Y-37392443D02*
X83490256Y-37487681D01*
X82585494Y-37821015D02*
X82585494Y-37154348D01*
X82585494Y-37344824D02*
X82537875Y-37249586D01*
X82537875Y-37249586D02*
X82490256Y-37201967D01*
X82490256Y-37201967D02*
X82395018Y-37154348D01*
X82395018Y-37154348D02*
X82299780Y-37154348D01*
X81347399Y-37344824D02*
X81395018Y-37297205D01*
X81395018Y-37297205D02*
X81490256Y-37249586D01*
X81490256Y-37249586D02*
X81585494Y-37249586D01*
X81585494Y-37249586D02*
X81680732Y-37297205D01*
X81680732Y-37297205D02*
X81728351Y-37344824D01*
X81728351Y-37344824D02*
X81775970Y-37440062D01*
X81775970Y-37440062D02*
X81775970Y-37535300D01*
X81775970Y-37535300D02*
X81728351Y-37630538D01*
X81728351Y-37630538D02*
X81680732Y-37678157D01*
X81680732Y-37678157D02*
X81585494Y-37725776D01*
X81585494Y-37725776D02*
X81490256Y-37725776D01*
X81490256Y-37725776D02*
X81395018Y-37678157D01*
X81395018Y-37678157D02*
X81347399Y-37630538D01*
X81347399Y-37249586D02*
X81347399Y-37630538D01*
X81347399Y-37630538D02*
X81299780Y-37678157D01*
X81299780Y-37678157D02*
X81252161Y-37678157D01*
X81252161Y-37678157D02*
X81156922Y-37630538D01*
X81156922Y-37630538D02*
X81109303Y-37535300D01*
X81109303Y-37535300D02*
X81109303Y-37297205D01*
X81109303Y-37297205D02*
X81204542Y-37154348D01*
X81204542Y-37154348D02*
X81347399Y-37059110D01*
X81347399Y-37059110D02*
X81537875Y-37011491D01*
X81537875Y-37011491D02*
X81728351Y-37059110D01*
X81728351Y-37059110D02*
X81871208Y-37154348D01*
X81871208Y-37154348D02*
X81966446Y-37297205D01*
X81966446Y-37297205D02*
X82014065Y-37487681D01*
X82014065Y-37487681D02*
X81966446Y-37678157D01*
X81966446Y-37678157D02*
X81871208Y-37821015D01*
X81871208Y-37821015D02*
X81728351Y-37916253D01*
X81728351Y-37916253D02*
X81537875Y-37963872D01*
X81537875Y-37963872D02*
X81347399Y-37916253D01*
X81347399Y-37916253D02*
X81204542Y-37821015D01*
X80680732Y-37154348D02*
X80680732Y-37821015D01*
X80680732Y-37249586D02*
X80633113Y-37201967D01*
X80633113Y-37201967D02*
X80537875Y-37154348D01*
X80537875Y-37154348D02*
X80395018Y-37154348D01*
X80395018Y-37154348D02*
X80299780Y-37201967D01*
X80299780Y-37201967D02*
X80252161Y-37297205D01*
X80252161Y-37297205D02*
X80252161Y-37821015D01*
X79633113Y-37821015D02*
X79728351Y-37773396D01*
X79728351Y-37773396D02*
X79775970Y-37725776D01*
X79775970Y-37725776D02*
X79823589Y-37630538D01*
X79823589Y-37630538D02*
X79823589Y-37344824D01*
X79823589Y-37344824D02*
X79775970Y-37249586D01*
X79775970Y-37249586D02*
X79728351Y-37201967D01*
X79728351Y-37201967D02*
X79633113Y-37154348D01*
X79633113Y-37154348D02*
X79490256Y-37154348D01*
X79490256Y-37154348D02*
X79395018Y-37201967D01*
X79395018Y-37201967D02*
X79347399Y-37249586D01*
X79347399Y-37249586D02*
X79299780Y-37344824D01*
X79299780Y-37344824D02*
X79299780Y-37630538D01*
X79299780Y-37630538D02*
X79347399Y-37725776D01*
X79347399Y-37725776D02*
X79395018Y-37773396D01*
X79395018Y-37773396D02*
X79490256Y-37821015D01*
X79490256Y-37821015D02*
X79633113Y-37821015D01*
X78442637Y-37821015D02*
X78442637Y-37297205D01*
X78442637Y-37297205D02*
X78490256Y-37201967D01*
X78490256Y-37201967D02*
X78585494Y-37154348D01*
X78585494Y-37154348D02*
X78775970Y-37154348D01*
X78775970Y-37154348D02*
X78871208Y-37201967D01*
X78442637Y-37773396D02*
X78537875Y-37821015D01*
X78537875Y-37821015D02*
X78775970Y-37821015D01*
X78775970Y-37821015D02*
X78871208Y-37773396D01*
X78871208Y-37773396D02*
X78918827Y-37678157D01*
X78918827Y-37678157D02*
X78918827Y-37582919D01*
X78918827Y-37582919D02*
X78871208Y-37487681D01*
X78871208Y-37487681D02*
X78775970Y-37440062D01*
X78775970Y-37440062D02*
X78537875Y-37440062D01*
X78537875Y-37440062D02*
X78442637Y-37392443D01*
X77537875Y-37821015D02*
X77537875Y-37297205D01*
X77537875Y-37297205D02*
X77585494Y-37201967D01*
X77585494Y-37201967D02*
X77680732Y-37154348D01*
X77680732Y-37154348D02*
X77871208Y-37154348D01*
X77871208Y-37154348D02*
X77966446Y-37201967D01*
X77537875Y-37773396D02*
X77633113Y-37821015D01*
X77633113Y-37821015D02*
X77871208Y-37821015D01*
X77871208Y-37821015D02*
X77966446Y-37773396D01*
X77966446Y-37773396D02*
X78014065Y-37678157D01*
X78014065Y-37678157D02*
X78014065Y-37582919D01*
X78014065Y-37582919D02*
X77966446Y-37487681D01*
X77966446Y-37487681D02*
X77871208Y-37440062D01*
X77871208Y-37440062D02*
X77633113Y-37440062D01*
X77633113Y-37440062D02*
X77537875Y-37392443D01*
X77061684Y-37725776D02*
X77014065Y-37773396D01*
X77014065Y-37773396D02*
X77061684Y-37821015D01*
X77061684Y-37821015D02*
X77109303Y-37773396D01*
X77109303Y-37773396D02*
X77061684Y-37725776D01*
X77061684Y-37725776D02*
X77061684Y-37821015D01*
X76156923Y-37154348D02*
X76156923Y-37963872D01*
X76156923Y-37963872D02*
X76204542Y-38059110D01*
X76204542Y-38059110D02*
X76252161Y-38106729D01*
X76252161Y-38106729D02*
X76347399Y-38154348D01*
X76347399Y-38154348D02*
X76490256Y-38154348D01*
X76490256Y-38154348D02*
X76585494Y-38106729D01*
X76156923Y-37773396D02*
X76252161Y-37821015D01*
X76252161Y-37821015D02*
X76442637Y-37821015D01*
X76442637Y-37821015D02*
X76537875Y-37773396D01*
X76537875Y-37773396D02*
X76585494Y-37725776D01*
X76585494Y-37725776D02*
X76633113Y-37630538D01*
X76633113Y-37630538D02*
X76633113Y-37344824D01*
X76633113Y-37344824D02*
X76585494Y-37249586D01*
X76585494Y-37249586D02*
X76537875Y-37201967D01*
X76537875Y-37201967D02*
X76442637Y-37154348D01*
X76442637Y-37154348D02*
X76252161Y-37154348D01*
X76252161Y-37154348D02*
X76156923Y-37201967D01*
X75537875Y-37821015D02*
X75633113Y-37773396D01*
X75633113Y-37773396D02*
X75680732Y-37725776D01*
X75680732Y-37725776D02*
X75728351Y-37630538D01*
X75728351Y-37630538D02*
X75728351Y-37344824D01*
X75728351Y-37344824D02*
X75680732Y-37249586D01*
X75680732Y-37249586D02*
X75633113Y-37201967D01*
X75633113Y-37201967D02*
X75537875Y-37154348D01*
X75537875Y-37154348D02*
X75395018Y-37154348D01*
X75395018Y-37154348D02*
X75299780Y-37201967D01*
X75299780Y-37201967D02*
X75252161Y-37249586D01*
X75252161Y-37249586D02*
X75204542Y-37344824D01*
X75204542Y-37344824D02*
X75204542Y-37630538D01*
X75204542Y-37630538D02*
X75252161Y-37725776D01*
X75252161Y-37725776D02*
X75299780Y-37773396D01*
X75299780Y-37773396D02*
X75395018Y-37821015D01*
X75395018Y-37821015D02*
X75537875Y-37821015D01*
X74871208Y-37154348D02*
X74633113Y-37821015D01*
X74633113Y-37821015D02*
X74395018Y-37154348D01*
D12*
X89750752Y-33638304D02*
X89750752Y-32138304D01*
X89750752Y-32852590D02*
X88893609Y-32852590D01*
X88893609Y-33638304D02*
X88893609Y-32138304D01*
X87536466Y-33638304D02*
X87536466Y-32852590D01*
X87536466Y-32852590D02*
X87607894Y-32709733D01*
X87607894Y-32709733D02*
X87750751Y-32638304D01*
X87750751Y-32638304D02*
X88036466Y-32638304D01*
X88036466Y-32638304D02*
X88179323Y-32709733D01*
X87536466Y-33566876D02*
X87679323Y-33638304D01*
X87679323Y-33638304D02*
X88036466Y-33638304D01*
X88036466Y-33638304D02*
X88179323Y-33566876D01*
X88179323Y-33566876D02*
X88250751Y-33424018D01*
X88250751Y-33424018D02*
X88250751Y-33281161D01*
X88250751Y-33281161D02*
X88179323Y-33138304D01*
X88179323Y-33138304D02*
X88036466Y-33066876D01*
X88036466Y-33066876D02*
X87679323Y-33066876D01*
X87679323Y-33066876D02*
X87536466Y-32995447D01*
X86179323Y-33638304D02*
X86179323Y-32138304D01*
X86179323Y-33566876D02*
X86322180Y-33638304D01*
X86322180Y-33638304D02*
X86607894Y-33638304D01*
X86607894Y-33638304D02*
X86750751Y-33566876D01*
X86750751Y-33566876D02*
X86822180Y-33495447D01*
X86822180Y-33495447D02*
X86893608Y-33352590D01*
X86893608Y-33352590D02*
X86893608Y-32924018D01*
X86893608Y-32924018D02*
X86822180Y-32781161D01*
X86822180Y-32781161D02*
X86750751Y-32709733D01*
X86750751Y-32709733D02*
X86607894Y-32638304D01*
X86607894Y-32638304D02*
X86322180Y-32638304D01*
X86322180Y-32638304D02*
X86179323Y-32709733D01*
X85465037Y-33638304D02*
X85465037Y-32638304D01*
X85465037Y-32924018D02*
X85393608Y-32781161D01*
X85393608Y-32781161D02*
X85322180Y-32709733D01*
X85322180Y-32709733D02*
X85179322Y-32638304D01*
X85179322Y-32638304D02*
X85036465Y-32638304D01*
X84322180Y-33638304D02*
X84465037Y-33566876D01*
X84465037Y-33566876D02*
X84536466Y-33495447D01*
X84536466Y-33495447D02*
X84607894Y-33352590D01*
X84607894Y-33352590D02*
X84607894Y-32924018D01*
X84607894Y-32924018D02*
X84536466Y-32781161D01*
X84536466Y-32781161D02*
X84465037Y-32709733D01*
X84465037Y-32709733D02*
X84322180Y-32638304D01*
X84322180Y-32638304D02*
X84107894Y-32638304D01*
X84107894Y-32638304D02*
X83965037Y-32709733D01*
X83965037Y-32709733D02*
X83893609Y-32781161D01*
X83893609Y-32781161D02*
X83822180Y-32924018D01*
X83822180Y-32924018D02*
X83822180Y-33352590D01*
X83822180Y-33352590D02*
X83893609Y-33495447D01*
X83893609Y-33495447D02*
X83965037Y-33566876D01*
X83965037Y-33566876D02*
X84107894Y-33638304D01*
X84107894Y-33638304D02*
X84322180Y-33638304D01*
X83179323Y-32638304D02*
X83179323Y-33638304D01*
X83179323Y-32781161D02*
X83107894Y-32709733D01*
X83107894Y-32709733D02*
X82965037Y-32638304D01*
X82965037Y-32638304D02*
X82750751Y-32638304D01*
X82750751Y-32638304D02*
X82607894Y-32709733D01*
X82607894Y-32709733D02*
X82536466Y-32852590D01*
X82536466Y-32852590D02*
X82536466Y-33638304D01*
X80679323Y-33638304D02*
X80679323Y-32138304D01*
X79679322Y-32138304D02*
X79393608Y-32138304D01*
X79393608Y-32138304D02*
X79250751Y-32209733D01*
X79250751Y-32209733D02*
X79107894Y-32352590D01*
X79107894Y-32352590D02*
X79036465Y-32638304D01*
X79036465Y-32638304D02*
X79036465Y-33138304D01*
X79036465Y-33138304D02*
X79107894Y-33424018D01*
X79107894Y-33424018D02*
X79250751Y-33566876D01*
X79250751Y-33566876D02*
X79393608Y-33638304D01*
X79393608Y-33638304D02*
X79679322Y-33638304D01*
X79679322Y-33638304D02*
X79822180Y-33566876D01*
X79822180Y-33566876D02*
X79965037Y-33424018D01*
X79965037Y-33424018D02*
X80036465Y-33138304D01*
X80036465Y-33138304D02*
X80036465Y-32638304D01*
X80036465Y-32638304D02*
X79965037Y-32352590D01*
X79965037Y-32352590D02*
X79822180Y-32209733D01*
X79822180Y-32209733D02*
X79679322Y-32138304D01*
X76750751Y-32852590D02*
X76536465Y-32924018D01*
X76536465Y-32924018D02*
X76465036Y-32995447D01*
X76465036Y-32995447D02*
X76393608Y-33138304D01*
X76393608Y-33138304D02*
X76393608Y-33352590D01*
X76393608Y-33352590D02*
X76465036Y-33495447D01*
X76465036Y-33495447D02*
X76536465Y-33566876D01*
X76536465Y-33566876D02*
X76679322Y-33638304D01*
X76679322Y-33638304D02*
X77250751Y-33638304D01*
X77250751Y-33638304D02*
X77250751Y-32138304D01*
X77250751Y-32138304D02*
X76750751Y-32138304D01*
X76750751Y-32138304D02*
X76607894Y-32209733D01*
X76607894Y-32209733D02*
X76536465Y-32281161D01*
X76536465Y-32281161D02*
X76465036Y-32424018D01*
X76465036Y-32424018D02*
X76465036Y-32566876D01*
X76465036Y-32566876D02*
X76536465Y-32709733D01*
X76536465Y-32709733D02*
X76607894Y-32781161D01*
X76607894Y-32781161D02*
X76750751Y-32852590D01*
X76750751Y-32852590D02*
X77250751Y-32852590D01*
X75750751Y-33638304D02*
X75750751Y-32638304D01*
X75750751Y-32924018D02*
X75679322Y-32781161D01*
X75679322Y-32781161D02*
X75607894Y-32709733D01*
X75607894Y-32709733D02*
X75465036Y-32638304D01*
X75465036Y-32638304D02*
X75322179Y-32638304D01*
X74250751Y-33566876D02*
X74393608Y-33638304D01*
X74393608Y-33638304D02*
X74679323Y-33638304D01*
X74679323Y-33638304D02*
X74822180Y-33566876D01*
X74822180Y-33566876D02*
X74893608Y-33424018D01*
X74893608Y-33424018D02*
X74893608Y-32852590D01*
X74893608Y-32852590D02*
X74822180Y-32709733D01*
X74822180Y-32709733D02*
X74679323Y-32638304D01*
X74679323Y-32638304D02*
X74393608Y-32638304D01*
X74393608Y-32638304D02*
X74250751Y-32709733D01*
X74250751Y-32709733D02*
X74179323Y-32852590D01*
X74179323Y-32852590D02*
X74179323Y-32995447D01*
X74179323Y-32995447D02*
X74893608Y-33138304D01*
X72893609Y-33638304D02*
X72893609Y-32852590D01*
X72893609Y-32852590D02*
X72965037Y-32709733D01*
X72965037Y-32709733D02*
X73107894Y-32638304D01*
X73107894Y-32638304D02*
X73393609Y-32638304D01*
X73393609Y-32638304D02*
X73536466Y-32709733D01*
X72893609Y-33566876D02*
X73036466Y-33638304D01*
X73036466Y-33638304D02*
X73393609Y-33638304D01*
X73393609Y-33638304D02*
X73536466Y-33566876D01*
X73536466Y-33566876D02*
X73607894Y-33424018D01*
X73607894Y-33424018D02*
X73607894Y-33281161D01*
X73607894Y-33281161D02*
X73536466Y-33138304D01*
X73536466Y-33138304D02*
X73393609Y-33066876D01*
X73393609Y-33066876D02*
X73036466Y-33066876D01*
X73036466Y-33066876D02*
X72893609Y-32995447D01*
X72179323Y-33638304D02*
X72179323Y-32138304D01*
X72036466Y-33066876D02*
X71607894Y-33638304D01*
X71607894Y-32638304D02*
X72179323Y-33209733D01*
X70750751Y-33638304D02*
X70893608Y-33566876D01*
X70893608Y-33566876D02*
X70965037Y-33495447D01*
X70965037Y-33495447D02*
X71036465Y-33352590D01*
X71036465Y-33352590D02*
X71036465Y-32924018D01*
X71036465Y-32924018D02*
X70965037Y-32781161D01*
X70965037Y-32781161D02*
X70893608Y-32709733D01*
X70893608Y-32709733D02*
X70750751Y-32638304D01*
X70750751Y-32638304D02*
X70536465Y-32638304D01*
X70536465Y-32638304D02*
X70393608Y-32709733D01*
X70393608Y-32709733D02*
X70322180Y-32781161D01*
X70322180Y-32781161D02*
X70250751Y-32924018D01*
X70250751Y-32924018D02*
X70250751Y-33352590D01*
X70250751Y-33352590D02*
X70322180Y-33495447D01*
X70322180Y-33495447D02*
X70393608Y-33566876D01*
X70393608Y-33566876D02*
X70536465Y-33638304D01*
X70536465Y-33638304D02*
X70750751Y-33638304D01*
X68965037Y-32638304D02*
X68965037Y-33638304D01*
X69607894Y-32638304D02*
X69607894Y-33424018D01*
X69607894Y-33424018D02*
X69536465Y-33566876D01*
X69536465Y-33566876D02*
X69393608Y-33638304D01*
X69393608Y-33638304D02*
X69179322Y-33638304D01*
X69179322Y-33638304D02*
X69036465Y-33566876D01*
X69036465Y-33566876D02*
X68965037Y-33495447D01*
X68465036Y-32638304D02*
X67893608Y-32638304D01*
X68250751Y-32138304D02*
X68250751Y-33424018D01*
X68250751Y-33424018D02*
X68179322Y-33566876D01*
X68179322Y-33566876D02*
X68036465Y-33638304D01*
X68036465Y-33638304D02*
X67893608Y-33638304D01*
X89750752Y-36053220D02*
X89750752Y-34553220D01*
X89750752Y-34553220D02*
X88893609Y-36053220D01*
X88893609Y-36053220D02*
X88893609Y-34553220D01*
X87893608Y-34553220D02*
X87607894Y-34553220D01*
X87607894Y-34553220D02*
X87465037Y-34624649D01*
X87465037Y-34624649D02*
X87322180Y-34767506D01*
X87322180Y-34767506D02*
X87250751Y-35053220D01*
X87250751Y-35053220D02*
X87250751Y-35553220D01*
X87250751Y-35553220D02*
X87322180Y-35838934D01*
X87322180Y-35838934D02*
X87465037Y-35981792D01*
X87465037Y-35981792D02*
X87607894Y-36053220D01*
X87607894Y-36053220D02*
X87893608Y-36053220D01*
X87893608Y-36053220D02*
X88036466Y-35981792D01*
X88036466Y-35981792D02*
X88179323Y-35838934D01*
X88179323Y-35838934D02*
X88250751Y-35553220D01*
X88250751Y-35553220D02*
X88250751Y-35053220D01*
X88250751Y-35053220D02*
X88179323Y-34767506D01*
X88179323Y-34767506D02*
X88036466Y-34624649D01*
X88036466Y-34624649D02*
X87893608Y-34553220D01*
X86679322Y-35624649D02*
X85965037Y-35624649D01*
X86822179Y-36053220D02*
X86322179Y-34553220D01*
X86322179Y-34553220D02*
X85822179Y-36053220D01*
X85393608Y-35624649D02*
X84679323Y-35624649D01*
X85536465Y-36053220D02*
X85036465Y-34553220D01*
X85036465Y-34553220D02*
X84536465Y-36053220D01*
X82965037Y-34481792D02*
X84250751Y-36410363D01*
X82465037Y-36053220D02*
X82465037Y-34553220D01*
X82465037Y-34553220D02*
X81607894Y-36053220D01*
X81607894Y-36053220D02*
X81607894Y-34553220D01*
X80893608Y-36053220D02*
X80893608Y-34553220D01*
X80893608Y-34553220D02*
X80393608Y-35624649D01*
X80393608Y-35624649D02*
X79893608Y-34553220D01*
X79893608Y-34553220D02*
X79893608Y-36053220D01*
X78679322Y-35267506D02*
X79179322Y-35267506D01*
X79179322Y-36053220D02*
X79179322Y-34553220D01*
X79179322Y-34553220D02*
X78465036Y-34553220D01*
X77965036Y-35981792D02*
X77750751Y-36053220D01*
X77750751Y-36053220D02*
X77393608Y-36053220D01*
X77393608Y-36053220D02*
X77250751Y-35981792D01*
X77250751Y-35981792D02*
X77179322Y-35910363D01*
X77179322Y-35910363D02*
X77107893Y-35767506D01*
X77107893Y-35767506D02*
X77107893Y-35624649D01*
X77107893Y-35624649D02*
X77179322Y-35481792D01*
X77179322Y-35481792D02*
X77250751Y-35410363D01*
X77250751Y-35410363D02*
X77393608Y-35338934D01*
X77393608Y-35338934D02*
X77679322Y-35267506D01*
X77679322Y-35267506D02*
X77822179Y-35196077D01*
X77822179Y-35196077D02*
X77893608Y-35124649D01*
X77893608Y-35124649D02*
X77965036Y-34981792D01*
X77965036Y-34981792D02*
X77965036Y-34838934D01*
X77965036Y-34838934D02*
X77893608Y-34696077D01*
X77893608Y-34696077D02*
X77822179Y-34624649D01*
X77822179Y-34624649D02*
X77679322Y-34553220D01*
X77679322Y-34553220D02*
X77322179Y-34553220D01*
X77322179Y-34553220D02*
X77107893Y-34624649D01*
X75393608Y-34481792D02*
X76679322Y-36410363D01*
X74965036Y-35624649D02*
X74250751Y-35624649D01*
X75107893Y-36053220D02*
X74607893Y-34553220D01*
X74607893Y-34553220D02*
X74107893Y-36053220D01*
X73107894Y-35267506D02*
X73607894Y-35267506D01*
X73607894Y-36053220D02*
X73607894Y-34553220D01*
X73607894Y-34553220D02*
X72893608Y-34553220D01*
X72393608Y-35981792D02*
X72179323Y-36053220D01*
X72179323Y-36053220D02*
X71822180Y-36053220D01*
X71822180Y-36053220D02*
X71679323Y-35981792D01*
X71679323Y-35981792D02*
X71607894Y-35910363D01*
X71607894Y-35910363D02*
X71536465Y-35767506D01*
X71536465Y-35767506D02*
X71536465Y-35624649D01*
X71536465Y-35624649D02*
X71607894Y-35481792D01*
X71607894Y-35481792D02*
X71679323Y-35410363D01*
X71679323Y-35410363D02*
X71822180Y-35338934D01*
X71822180Y-35338934D02*
X72107894Y-35267506D01*
X72107894Y-35267506D02*
X72250751Y-35196077D01*
X72250751Y-35196077D02*
X72322180Y-35124649D01*
X72322180Y-35124649D02*
X72393608Y-34981792D01*
X72393608Y-34981792D02*
X72393608Y-34838934D01*
X72393608Y-34838934D02*
X72322180Y-34696077D01*
X72322180Y-34696077D02*
X72250751Y-34624649D01*
X72250751Y-34624649D02*
X72107894Y-34553220D01*
X72107894Y-34553220D02*
X71750751Y-34553220D01*
X71750751Y-34553220D02*
X71536465Y-34624649D01*
X70036466Y-35910363D02*
X70107894Y-35981792D01*
X70107894Y-35981792D02*
X70322180Y-36053220D01*
X70322180Y-36053220D02*
X70465037Y-36053220D01*
X70465037Y-36053220D02*
X70679323Y-35981792D01*
X70679323Y-35981792D02*
X70822180Y-35838934D01*
X70822180Y-35838934D02*
X70893609Y-35696077D01*
X70893609Y-35696077D02*
X70965037Y-35410363D01*
X70965037Y-35410363D02*
X70965037Y-35196077D01*
X70965037Y-35196077D02*
X70893609Y-34910363D01*
X70893609Y-34910363D02*
X70822180Y-34767506D01*
X70822180Y-34767506D02*
X70679323Y-34624649D01*
X70679323Y-34624649D02*
X70465037Y-34553220D01*
X70465037Y-34553220D02*
X70322180Y-34553220D01*
X70322180Y-34553220D02*
X70107894Y-34624649D01*
X70107894Y-34624649D02*
X70036466Y-34696077D01*
X68322180Y-34481792D02*
X69607894Y-36410363D01*
X67822180Y-36053220D02*
X67822180Y-34553220D01*
X67822180Y-34553220D02*
X67322180Y-35624649D01*
X67322180Y-35624649D02*
X66822180Y-34553220D01*
X66822180Y-34553220D02*
X66822180Y-36053220D01*
X66179322Y-35624649D02*
X65465037Y-35624649D01*
X66322179Y-36053220D02*
X65822179Y-34553220D01*
X65822179Y-34553220D02*
X65322179Y-36053220D01*
X63965037Y-35910363D02*
X64036465Y-35981792D01*
X64036465Y-35981792D02*
X64250751Y-36053220D01*
X64250751Y-36053220D02*
X64393608Y-36053220D01*
X64393608Y-36053220D02*
X64607894Y-35981792D01*
X64607894Y-35981792D02*
X64750751Y-35838934D01*
X64750751Y-35838934D02*
X64822180Y-35696077D01*
X64822180Y-35696077D02*
X64893608Y-35410363D01*
X64893608Y-35410363D02*
X64893608Y-35196077D01*
X64893608Y-35196077D02*
X64822180Y-34910363D01*
X64822180Y-34910363D02*
X64750751Y-34767506D01*
X64750751Y-34767506D02*
X64607894Y-34624649D01*
X64607894Y-34624649D02*
X64393608Y-34553220D01*
X64393608Y-34553220D02*
X64250751Y-34553220D01*
X64250751Y-34553220D02*
X64036465Y-34624649D01*
X64036465Y-34624649D02*
X63965037Y-34696077D01*
X63322180Y-35267506D02*
X62822180Y-35267506D01*
X62607894Y-36053220D02*
X63322180Y-36053220D01*
X63322180Y-36053220D02*
X63322180Y-34553220D01*
X63322180Y-34553220D02*
X62607894Y-34553220D01*
D13*
X38798333Y-28098319D02*
X38798333Y-28812604D01*
X38798333Y-28812604D02*
X38845952Y-28955461D01*
X38845952Y-28955461D02*
X38941190Y-29050700D01*
X38941190Y-29050700D02*
X39084047Y-29098319D01*
X39084047Y-29098319D02*
X39179285Y-29098319D01*
X38369761Y-28193557D02*
X38322142Y-28145938D01*
X38322142Y-28145938D02*
X38226904Y-28098319D01*
X38226904Y-28098319D02*
X37988809Y-28098319D01*
X37988809Y-28098319D02*
X37893571Y-28145938D01*
X37893571Y-28145938D02*
X37845952Y-28193557D01*
X37845952Y-28193557D02*
X37798333Y-28288795D01*
X37798333Y-28288795D02*
X37798333Y-28384033D01*
X37798333Y-28384033D02*
X37845952Y-28526890D01*
X37845952Y-28526890D02*
X38417380Y-29098319D01*
X38417380Y-29098319D02*
X37798333Y-29098319D01*
D11*
X59531333Y-26333015D02*
X59531333Y-27047300D01*
X59531333Y-27047300D02*
X59578952Y-27190157D01*
X59578952Y-27190157D02*
X59674190Y-27285396D01*
X59674190Y-27285396D02*
X59817047Y-27333015D01*
X59817047Y-27333015D02*
X59912285Y-27333015D01*
X58626571Y-26666348D02*
X58626571Y-27333015D01*
X58864666Y-26285396D02*
X59102761Y-26999681D01*
X59102761Y-26999681D02*
X58483714Y-26999681D01*
D13*
X89609714Y-22401652D02*
X89609714Y-23068319D01*
X89847809Y-22020700D02*
X90085904Y-22734985D01*
X90085904Y-22734985D02*
X89466857Y-22734985D01*
X88895428Y-22068319D02*
X88800190Y-22068319D01*
X88800190Y-22068319D02*
X88704952Y-22115938D01*
X88704952Y-22115938D02*
X88657333Y-22163557D01*
X88657333Y-22163557D02*
X88609714Y-22258795D01*
X88609714Y-22258795D02*
X88562095Y-22449271D01*
X88562095Y-22449271D02*
X88562095Y-22687366D01*
X88562095Y-22687366D02*
X88609714Y-22877842D01*
X88609714Y-22877842D02*
X88657333Y-22973080D01*
X88657333Y-22973080D02*
X88704952Y-23020700D01*
X88704952Y-23020700D02*
X88800190Y-23068319D01*
X88800190Y-23068319D02*
X88895428Y-23068319D01*
X88895428Y-23068319D02*
X88990666Y-23020700D01*
X88990666Y-23020700D02*
X89038285Y-22973080D01*
X89038285Y-22973080D02*
X89085904Y-22877842D01*
X89085904Y-22877842D02*
X89133523Y-22687366D01*
X89133523Y-22687366D02*
X89133523Y-22449271D01*
X89133523Y-22449271D02*
X89085904Y-22258795D01*
X89085904Y-22258795D02*
X89038285Y-22163557D01*
X89038285Y-22163557D02*
X88990666Y-22115938D01*
X88990666Y-22115938D02*
X88895428Y-22068319D01*
X61809713Y-22163557D02*
X61762094Y-22115938D01*
X61762094Y-22115938D02*
X61666856Y-22068319D01*
X61666856Y-22068319D02*
X61428761Y-22068319D01*
X61428761Y-22068319D02*
X61333523Y-22115938D01*
X61333523Y-22115938D02*
X61285904Y-22163557D01*
X61285904Y-22163557D02*
X61238285Y-22258795D01*
X61238285Y-22258795D02*
X61238285Y-22354033D01*
X61238285Y-22354033D02*
X61285904Y-22496890D01*
X61285904Y-22496890D02*
X61857332Y-23068319D01*
X61857332Y-23068319D02*
X61238285Y-23068319D01*
X90133523Y-25568319D02*
X89514476Y-25568319D01*
X89514476Y-25568319D02*
X89847809Y-25949271D01*
X89847809Y-25949271D02*
X89704952Y-25949271D01*
X89704952Y-25949271D02*
X89609714Y-25996890D01*
X89609714Y-25996890D02*
X89562095Y-26044509D01*
X89562095Y-26044509D02*
X89514476Y-26139747D01*
X89514476Y-26139747D02*
X89514476Y-26377842D01*
X89514476Y-26377842D02*
X89562095Y-26473080D01*
X89562095Y-26473080D02*
X89609714Y-26520700D01*
X89609714Y-26520700D02*
X89704952Y-26568319D01*
X89704952Y-26568319D02*
X89990666Y-26568319D01*
X89990666Y-26568319D02*
X90085904Y-26520700D01*
X90085904Y-26520700D02*
X90133523Y-26473080D01*
X89038285Y-26568319D02*
X88847809Y-26568319D01*
X88847809Y-26568319D02*
X88752571Y-26520700D01*
X88752571Y-26520700D02*
X88704952Y-26473080D01*
X88704952Y-26473080D02*
X88609714Y-26330223D01*
X88609714Y-26330223D02*
X88562095Y-26139747D01*
X88562095Y-26139747D02*
X88562095Y-25758795D01*
X88562095Y-25758795D02*
X88609714Y-25663557D01*
X88609714Y-25663557D02*
X88657333Y-25615938D01*
X88657333Y-25615938D02*
X88752571Y-25568319D01*
X88752571Y-25568319D02*
X88943047Y-25568319D01*
X88943047Y-25568319D02*
X89038285Y-25615938D01*
X89038285Y-25615938D02*
X89085904Y-25663557D01*
X89085904Y-25663557D02*
X89133523Y-25758795D01*
X89133523Y-25758795D02*
X89133523Y-25996890D01*
X89133523Y-25996890D02*
X89085904Y-26092128D01*
X89085904Y-26092128D02*
X89038285Y-26139747D01*
X89038285Y-26139747D02*
X88943047Y-26187366D01*
X88943047Y-26187366D02*
X88752571Y-26187366D01*
X88752571Y-26187366D02*
X88657333Y-26139747D01*
X88657333Y-26139747D02*
X88609714Y-26092128D01*
X88609714Y-26092128D02*
X88562095Y-25996890D01*
X61338285Y-26568319D02*
X61909713Y-26568319D01*
X61623999Y-26568319D02*
X61623999Y-25568319D01*
X61623999Y-25568319D02*
X61719237Y-25711176D01*
X61719237Y-25711176D02*
X61814475Y-25806414D01*
X61814475Y-25806414D02*
X61909713Y-25854033D01*
D14*
%TO.C,J2*%
X37280000Y-23138500D02*
X37280000Y-22888500D01*
X37280000Y-25938500D02*
X37280000Y-25688500D01*
X37415000Y-22888500D02*
X37280000Y-22888500D01*
X37415000Y-25938500D02*
X37280000Y-25938500D01*
X50360000Y-22888500D02*
X50225000Y-22888500D01*
X50360000Y-23138500D02*
X50360000Y-22888500D01*
X50360000Y-25938500D02*
X50225000Y-25938500D01*
X50360000Y-25938500D02*
X50360000Y-25688500D01*
X49635000Y-20938500D02*
G75*
G02*
X49435000Y-20938500I-100000J0D01*
G01*
X49435000Y-20938500D02*
G75*
G02*
X49635000Y-20938500I100000J0D01*
G01*
D15*
%TO.C,G\u002A\u002A\u002A*%
G36*
X92406793Y-38523911D02*
G01*
X92428293Y-38551343D01*
X92427472Y-38558096D01*
X92400039Y-38579597D01*
X92393286Y-38578776D01*
X92371786Y-38551343D01*
X92372607Y-38544590D01*
X92400039Y-38523090D01*
X92406793Y-38523911D01*
G37*
G36*
X93360662Y-38549676D02*
G01*
X93359577Y-38557877D01*
X93332409Y-38579597D01*
X93326015Y-38579273D01*
X93304155Y-38567137D01*
X93305455Y-38562605D01*
X93332409Y-38537216D01*
X93343353Y-38532802D01*
X93360662Y-38549676D01*
G37*
G36*
X94716836Y-38549676D02*
G01*
X94715750Y-38557877D01*
X94688582Y-38579597D01*
X94682188Y-38579273D01*
X94660329Y-38567137D01*
X94661629Y-38562605D01*
X94688582Y-38537216D01*
X94699527Y-38532802D01*
X94716836Y-38549676D01*
G37*
G36*
X100763110Y-38549676D02*
G01*
X100762024Y-38557877D01*
X100734856Y-38579597D01*
X100728462Y-38579273D01*
X100706602Y-38567137D01*
X100707902Y-38562605D01*
X100734856Y-38537216D01*
X100745800Y-38532802D01*
X100763110Y-38549676D01*
G37*
G36*
X92403747Y-38608704D02*
G01*
X92421197Y-38641376D01*
X92428293Y-38706738D01*
X92428049Y-38719716D01*
X92418714Y-38780788D01*
X92400039Y-38805626D01*
X92396332Y-38804772D01*
X92378882Y-38772100D01*
X92371786Y-38706738D01*
X92372030Y-38693760D01*
X92381365Y-38632688D01*
X92400039Y-38607850D01*
X92403747Y-38608704D01*
G37*
G36*
X93339015Y-38611037D02*
G01*
X93354481Y-38651149D01*
X93360662Y-38722532D01*
X93360134Y-38747350D01*
X93350958Y-38807036D01*
X93332409Y-38819752D01*
X93329916Y-38817834D01*
X93311642Y-38775445D01*
X93304155Y-38705071D01*
X93304355Y-38693526D01*
X93313607Y-38632657D01*
X93332409Y-38607850D01*
X93339015Y-38611037D01*
G37*
G36*
X94695188Y-38611037D02*
G01*
X94710655Y-38651149D01*
X94716836Y-38722532D01*
X94716307Y-38747350D01*
X94707131Y-38807036D01*
X94688582Y-38819752D01*
X94686090Y-38817834D01*
X94667815Y-38775445D01*
X94660329Y-38705071D01*
X94660528Y-38693526D01*
X94669781Y-38632657D01*
X94688582Y-38607850D01*
X94695188Y-38611037D01*
G37*
G36*
X100741462Y-38611037D02*
G01*
X100756928Y-38651149D01*
X100763110Y-38722532D01*
X100762581Y-38747350D01*
X100753405Y-38807036D01*
X100734856Y-38819752D01*
X100732363Y-38817834D01*
X100714089Y-38775445D01*
X100706602Y-38705071D01*
X100706802Y-38693526D01*
X100716054Y-38632657D01*
X100734856Y-38607850D01*
X100741462Y-38611037D01*
G37*
G36*
X99897965Y-38548001D02*
G01*
X99912395Y-38601846D01*
X99914014Y-38677720D01*
X99903516Y-38751729D01*
X99881597Y-38799975D01*
X99860036Y-38819539D01*
X99830848Y-38829039D01*
X99818486Y-38793430D01*
X99819405Y-38707436D01*
X99819812Y-38700501D01*
X99832772Y-38593163D01*
X99855658Y-38539727D01*
X99889200Y-38538423D01*
X99897965Y-38548001D01*
G37*
G36*
X92568789Y-38612487D02*
G01*
X92592537Y-38639864D01*
X92597815Y-38706738D01*
X92597571Y-38719716D01*
X92588236Y-38780788D01*
X92569561Y-38805626D01*
X92550979Y-38788089D01*
X92541308Y-38734992D01*
X92533013Y-38688919D01*
X92498927Y-38664358D01*
X92479431Y-38661170D01*
X92456547Y-38636104D01*
X92474083Y-38617522D01*
X92527181Y-38607850D01*
X92568789Y-38612487D01*
G37*
G36*
X97197266Y-38568596D02*
G01*
X97210761Y-38603419D01*
X97213752Y-38684349D01*
X97187402Y-38798562D01*
X97180278Y-38813969D01*
X97143319Y-38832689D01*
X97104266Y-38805626D01*
X97100098Y-38794394D01*
X97120257Y-38777372D01*
X97140177Y-38760309D01*
X97139179Y-38699675D01*
X97134715Y-38636375D01*
X97145337Y-38566100D01*
X97157243Y-38536131D01*
X97172410Y-38527724D01*
X97197266Y-38568596D01*
G37*
G36*
X99485490Y-38607919D02*
G01*
X99526817Y-38616099D01*
X99544479Y-38649038D01*
X99548204Y-38722532D01*
X99547675Y-38747350D01*
X99538500Y-38807036D01*
X99519950Y-38819752D01*
X99502114Y-38793148D01*
X99491697Y-38733324D01*
X99483458Y-38688827D01*
X99449316Y-38664358D01*
X99429820Y-38661170D01*
X99406936Y-38636104D01*
X99424473Y-38617522D01*
X99477570Y-38607850D01*
X99485490Y-38607919D01*
G37*
G36*
X94844474Y-38552148D02*
G01*
X94856873Y-38594391D01*
X94862018Y-38673041D01*
X94856639Y-38754593D01*
X94841112Y-38810261D01*
X94808814Y-38831001D01*
X94766153Y-38829643D01*
X94745089Y-38805626D01*
X94746659Y-38796876D01*
X94776875Y-38777372D01*
X94795397Y-38759032D01*
X94794129Y-38699675D01*
X94792893Y-38692613D01*
X94789316Y-38620892D01*
X94799851Y-38564402D01*
X94819802Y-38536901D01*
X94844474Y-38552148D01*
G37*
G36*
X99012332Y-35794521D02*
G01*
X98992550Y-35848414D01*
X98967016Y-35862376D01*
X98903855Y-35867506D01*
X98839641Y-35852958D01*
X98802506Y-35822558D01*
X98791668Y-35740781D01*
X98791989Y-35740108D01*
X98870117Y-35740108D01*
X98884244Y-35754235D01*
X98898371Y-35740108D01*
X98884244Y-35725982D01*
X98870117Y-35740108D01*
X98791989Y-35740108D01*
X98820749Y-35679813D01*
X98878922Y-35652257D01*
X98954878Y-35669474D01*
X98963252Y-35674766D01*
X99000556Y-35727089D01*
X99002830Y-35740108D01*
X99012332Y-35794521D01*
G37*
G36*
X93250530Y-38612575D02*
G01*
X93272160Y-38638334D01*
X93275901Y-38704948D01*
X93270722Y-38761442D01*
X93253088Y-38801121D01*
X93231321Y-38797284D01*
X93214296Y-38744268D01*
X93204784Y-38708228D01*
X93176510Y-38673449D01*
X93147777Y-38680804D01*
X93134633Y-38732637D01*
X93126901Y-38781387D01*
X93104590Y-38805626D01*
X93102556Y-38805425D01*
X93085347Y-38776997D01*
X93083399Y-38713801D01*
X93091471Y-38663657D01*
X93119351Y-38626822D01*
X93184077Y-38613124D01*
X93195405Y-38612064D01*
X93250530Y-38612575D01*
G37*
G36*
X96072576Y-38612967D02*
G01*
X96096442Y-38640239D01*
X96101263Y-38706738D01*
X96101019Y-38719716D01*
X96091684Y-38780788D01*
X96073009Y-38805626D01*
X96054427Y-38788089D01*
X96044756Y-38734992D01*
X96037741Y-38688536D01*
X96016502Y-38664358D01*
X95998546Y-38679482D01*
X95988249Y-38730283D01*
X95984428Y-38774526D01*
X95970181Y-38814275D01*
X95948012Y-38824457D01*
X95917118Y-38803162D01*
X95903488Y-38749762D01*
X95910581Y-38682570D01*
X95947256Y-38625541D01*
X96019525Y-38607850D01*
X96072576Y-38612967D01*
G37*
G36*
X93836726Y-38635788D02*
G01*
X93840974Y-38700239D01*
X93840922Y-38706993D01*
X93834250Y-38776986D01*
X93819784Y-38817569D01*
X93800731Y-38809874D01*
X93784467Y-38761038D01*
X93767404Y-38707030D01*
X93738059Y-38673093D01*
X93711360Y-38680244D01*
X93699706Y-38732637D01*
X93691973Y-38781387D01*
X93669662Y-38805626D01*
X93667629Y-38805425D01*
X93650420Y-38776997D01*
X93648472Y-38713801D01*
X93656543Y-38663657D01*
X93684423Y-38626822D01*
X93749150Y-38613124D01*
X93752630Y-38612791D01*
X93812846Y-38611922D01*
X93836726Y-38635788D01*
G37*
G36*
X94380674Y-38612575D02*
G01*
X94402304Y-38638334D01*
X94406046Y-38704948D01*
X94405751Y-38719471D01*
X94396334Y-38780757D01*
X94377792Y-38805626D01*
X94359210Y-38788089D01*
X94349539Y-38734992D01*
X94341244Y-38688919D01*
X94307158Y-38664358D01*
X94279515Y-38678182D01*
X94264778Y-38734992D01*
X94257315Y-38781458D01*
X94234734Y-38805626D01*
X94232701Y-38805425D01*
X94215492Y-38776997D01*
X94213544Y-38713801D01*
X94221615Y-38663657D01*
X94249495Y-38626822D01*
X94314222Y-38613124D01*
X94325549Y-38612064D01*
X94380674Y-38612575D01*
G37*
G36*
X97410728Y-38615485D02*
G01*
X97426331Y-38647159D01*
X97429183Y-38720656D01*
X97428607Y-38747000D01*
X97419395Y-38806939D01*
X97400929Y-38819752D01*
X97383093Y-38793148D01*
X97372676Y-38733324D01*
X97365846Y-38688485D01*
X97344422Y-38664358D01*
X97326053Y-38681030D01*
X97316168Y-38733324D01*
X97309389Y-38780975D01*
X97286041Y-38820911D01*
X97281345Y-38823083D01*
X97264970Y-38803330D01*
X97264851Y-38730754D01*
X97274830Y-38662584D01*
X97299597Y-38626498D01*
X97351485Y-38613037D01*
X97371802Y-38610989D01*
X97410728Y-38615485D01*
G37*
G36*
X92268228Y-38622702D02*
G01*
X92319209Y-38639425D01*
X92338703Y-38687603D01*
X92340755Y-38734475D01*
X92330120Y-38799825D01*
X92328449Y-38804114D01*
X92310054Y-38830903D01*
X92285938Y-38804834D01*
X92274501Y-38781907D01*
X92259204Y-38713801D01*
X92254689Y-38687699D01*
X92230518Y-38664358D01*
X92211936Y-38681894D01*
X92202264Y-38734992D01*
X92194801Y-38781458D01*
X92172220Y-38805626D01*
X92170187Y-38805425D01*
X92152978Y-38776997D01*
X92151030Y-38713801D01*
X92159228Y-38662278D01*
X92185215Y-38629133D01*
X92244645Y-38621977D01*
X92268228Y-38622702D01*
G37*
G36*
X96310219Y-38773004D02*
G01*
X96272860Y-38820339D01*
X96239071Y-38829557D01*
X96184166Y-38804632D01*
X96146572Y-38770629D01*
X96132788Y-38711460D01*
X96191016Y-38711460D01*
X96195996Y-38729325D01*
X96224393Y-38765709D01*
X96255899Y-38764643D01*
X96270785Y-38723219D01*
X96263012Y-38688124D01*
X96226333Y-38664358D01*
X96203186Y-38671136D01*
X96191016Y-38711460D01*
X96132788Y-38711460D01*
X96131492Y-38705895D01*
X96163421Y-38641755D01*
X96210551Y-38611488D01*
X96270663Y-38611864D01*
X96316255Y-38646905D01*
X96333912Y-38704616D01*
X96327467Y-38723219D01*
X96310219Y-38773004D01*
G37*
G36*
X95846276Y-38615928D02*
G01*
X95874749Y-38651511D01*
X95863434Y-38700176D01*
X95811663Y-38744950D01*
X95748093Y-38777670D01*
X95811663Y-38761490D01*
X95848631Y-38757577D01*
X95875785Y-38776005D01*
X95856398Y-38815044D01*
X95845872Y-38823519D01*
X95790650Y-38830386D01*
X95734993Y-38792736D01*
X95717231Y-38759171D01*
X95727231Y-38712507D01*
X95778014Y-38692611D01*
X95795921Y-38689985D01*
X95818727Y-38667003D01*
X95805154Y-38654484D01*
X95757802Y-38657326D01*
X95718014Y-38661928D01*
X95717089Y-38640555D01*
X95745229Y-38619995D01*
X95806267Y-38607850D01*
X95846276Y-38615928D01*
G37*
G36*
X98163072Y-38615928D02*
G01*
X98191545Y-38651511D01*
X98180230Y-38700176D01*
X98128460Y-38744950D01*
X98064889Y-38777670D01*
X98128460Y-38761490D01*
X98165427Y-38757577D01*
X98192581Y-38776005D01*
X98173195Y-38815044D01*
X98162668Y-38823519D01*
X98107447Y-38830386D01*
X98051790Y-38792736D01*
X98034027Y-38759171D01*
X98044028Y-38712507D01*
X98094810Y-38692611D01*
X98112718Y-38689985D01*
X98135523Y-38667003D01*
X98121950Y-38654484D01*
X98074598Y-38657326D01*
X98034810Y-38661928D01*
X98033885Y-38640555D01*
X98062025Y-38619995D01*
X98123064Y-38607850D01*
X98163072Y-38615928D01*
G37*
G36*
X99027908Y-38639981D02*
G01*
X99028162Y-38640404D01*
X99022050Y-38678973D01*
X98980132Y-38726513D01*
X98912498Y-38780914D01*
X98982910Y-38760941D01*
X99017821Y-38751941D01*
X99036567Y-38755804D01*
X99013762Y-38788635D01*
X99010825Y-38792066D01*
X98954775Y-38826251D01*
X98903598Y-38812781D01*
X98875216Y-38755893D01*
X98876960Y-38713775D01*
X98910533Y-38692611D01*
X98931849Y-38689220D01*
X98954878Y-38665244D01*
X98946996Y-38653147D01*
X98907863Y-38655919D01*
X98879907Y-38662122D01*
X98881277Y-38640905D01*
X98922402Y-38613292D01*
X98982794Y-38611858D01*
X99027908Y-38639981D01*
G37*
G36*
X94626027Y-38733630D02*
G01*
X94602531Y-38793054D01*
X94579939Y-38814111D01*
X94533187Y-38833879D01*
X94487064Y-38816231D01*
X94448042Y-38760597D01*
X94441357Y-38705071D01*
X94490807Y-38705071D01*
X94495502Y-38732011D01*
X94522929Y-38764339D01*
X94557500Y-38757768D01*
X94573655Y-38729978D01*
X94568727Y-38685427D01*
X94533187Y-38664358D01*
X94513460Y-38669068D01*
X94490807Y-38705071D01*
X94441357Y-38705071D01*
X94439194Y-38687103D01*
X94442586Y-38669504D01*
X94469500Y-38631836D01*
X94533187Y-38621977D01*
X94556190Y-38622666D01*
X94607565Y-38639243D01*
X94627180Y-38687103D01*
X94626118Y-38729978D01*
X94626027Y-38733630D01*
G37*
G36*
X96552254Y-38550772D02*
G01*
X96579519Y-38573733D01*
X96607385Y-38641436D01*
X96603119Y-38721153D01*
X96565430Y-38789481D01*
X96534517Y-38814950D01*
X96467495Y-38830270D01*
X96399684Y-38789221D01*
X96380425Y-38765601D01*
X96369419Y-38724385D01*
X96391884Y-38708521D01*
X96437846Y-38732765D01*
X96442272Y-38736583D01*
X96495442Y-38755068D01*
X96536720Y-38726048D01*
X96553321Y-38657820D01*
X96531833Y-38606052D01*
X96483506Y-38584489D01*
X96432757Y-38604099D01*
X96401033Y-38628965D01*
X96371718Y-38631030D01*
X96373169Y-38594799D01*
X96408172Y-38553146D01*
X96476584Y-38533137D01*
X96552254Y-38550772D01*
G37*
G36*
X95677350Y-38738888D02*
G01*
X95643554Y-38799975D01*
X95625684Y-38815330D01*
X95565273Y-38830670D01*
X95506463Y-38789722D01*
X95489554Y-38766293D01*
X95498011Y-38753859D01*
X95552447Y-38760851D01*
X95635078Y-38776136D01*
X95556901Y-38742877D01*
X95502797Y-38710219D01*
X95495062Y-38675541D01*
X95543843Y-38675541D01*
X95544280Y-38685186D01*
X95580926Y-38690381D01*
X95608697Y-38685856D01*
X95597995Y-38673311D01*
X95581657Y-38668797D01*
X95543843Y-38675541D01*
X95495062Y-38675541D01*
X95493989Y-38670731D01*
X95541095Y-38626563D01*
X95589202Y-38610836D01*
X95641205Y-38629139D01*
X95673577Y-38676883D01*
X95674123Y-38685856D01*
X95677350Y-38738888D01*
G37*
G36*
X94067003Y-38664358D02*
G01*
X94067003Y-38805626D01*
X93968115Y-38805626D01*
X93955137Y-38805382D01*
X93894065Y-38796047D01*
X93869227Y-38777372D01*
X93886764Y-38758790D01*
X93939861Y-38749118D01*
X93986317Y-38742104D01*
X94010495Y-38720865D01*
X93992084Y-38702079D01*
X93938194Y-38692611D01*
X93893357Y-38685308D01*
X93883354Y-38664358D01*
X93901568Y-38649078D01*
X93955656Y-38636104D01*
X93986906Y-38631033D01*
X94010495Y-38607850D01*
X93992959Y-38589268D01*
X93939861Y-38579597D01*
X93893406Y-38572582D01*
X93869227Y-38551343D01*
X93870082Y-38547635D01*
X93902753Y-38530186D01*
X93968115Y-38523090D01*
X94067003Y-38523090D01*
X94067003Y-38664358D01*
G37*
G36*
X92821864Y-38726722D02*
G01*
X92794299Y-38793054D01*
X92769573Y-38816689D01*
X92710541Y-38829987D01*
X92650940Y-38787423D01*
X92633757Y-38765142D01*
X92635206Y-38750123D01*
X92682797Y-38759319D01*
X92724191Y-38769729D01*
X92732596Y-38767998D01*
X92689639Y-38744950D01*
X92648210Y-38719446D01*
X92626501Y-38695357D01*
X92630672Y-38675541D01*
X92690228Y-38675541D01*
X92690665Y-38685186D01*
X92727310Y-38690381D01*
X92755082Y-38685856D01*
X92744380Y-38673311D01*
X92728042Y-38668797D01*
X92690228Y-38675541D01*
X92630672Y-38675541D01*
X92631946Y-38669489D01*
X92674709Y-38624098D01*
X92742278Y-38612442D01*
X92763405Y-38618136D01*
X92809525Y-38661329D01*
X92814153Y-38685856D01*
X92821864Y-38726722D01*
G37*
G36*
X93094700Y-36932254D02*
G01*
X93177014Y-36994255D01*
X92829992Y-36995825D01*
X92482970Y-36997394D01*
X92547634Y-36911747D01*
X92682576Y-36911747D01*
X92682781Y-36913708D01*
X92711314Y-36932968D01*
X92773391Y-36940887D01*
X92830167Y-36938701D01*
X92844312Y-36926148D01*
X92817962Y-36894643D01*
X92807712Y-36885757D01*
X92753700Y-36865338D01*
X92704234Y-36874981D01*
X92682576Y-36911747D01*
X92547634Y-36911747D01*
X92600294Y-36841999D01*
X92601871Y-36839913D01*
X92663717Y-36762604D01*
X92714095Y-36707570D01*
X92742233Y-36686605D01*
X92747858Y-36687316D01*
X92769612Y-36696777D01*
X92808168Y-36721119D01*
X92870531Y-36765225D01*
X92963707Y-36833976D01*
X93086561Y-36926148D01*
X93094700Y-36932254D01*
G37*
G36*
X93044978Y-38687103D02*
G01*
X93043825Y-38733630D01*
X93020328Y-38793054D01*
X92995602Y-38816689D01*
X92936570Y-38829987D01*
X92876969Y-38787423D01*
X92859785Y-38765142D01*
X92861235Y-38750123D01*
X92908826Y-38759319D01*
X92951347Y-38770036D01*
X92958865Y-38768055D01*
X92914526Y-38744440D01*
X92880949Y-38721657D01*
X92857624Y-38675758D01*
X92857766Y-38675541D01*
X92916257Y-38675541D01*
X92916694Y-38685186D01*
X92953339Y-38690381D01*
X92981111Y-38685856D01*
X92970409Y-38673311D01*
X92954071Y-38668797D01*
X92916257Y-38675541D01*
X92857766Y-38675541D01*
X92882524Y-38637792D01*
X92951372Y-38621977D01*
X92973656Y-38622630D01*
X93025263Y-38639153D01*
X93044465Y-38685856D01*
X93044978Y-38687103D01*
G37*
G36*
X97994255Y-38706738D02*
G01*
X97994011Y-38719716D01*
X97984676Y-38780788D01*
X97966002Y-38805626D01*
X97947420Y-38788089D01*
X97937748Y-38734992D01*
X97930733Y-38688536D01*
X97909494Y-38664358D01*
X97891538Y-38679482D01*
X97881241Y-38730283D01*
X97876828Y-38774918D01*
X97860051Y-38817744D01*
X97858366Y-38819161D01*
X97841709Y-38805495D01*
X97830007Y-38751819D01*
X97820864Y-38704576D01*
X97799127Y-38668142D01*
X97777828Y-38676601D01*
X97768226Y-38733324D01*
X97761843Y-38780807D01*
X97739973Y-38819752D01*
X97733778Y-38821436D01*
X97717676Y-38794142D01*
X97711719Y-38722532D01*
X97711719Y-38607850D01*
X97852987Y-38607850D01*
X97994255Y-38607850D01*
X97994255Y-38706738D01*
G37*
G36*
X99781568Y-38704667D02*
G01*
X99756072Y-38774557D01*
X99753206Y-38778511D01*
X99700819Y-38820278D01*
X99647409Y-38823542D01*
X99612503Y-38786659D01*
X99616205Y-38767899D01*
X99659605Y-38768764D01*
X99695221Y-38772079D01*
X99717726Y-38755553D01*
X99710039Y-38740997D01*
X99668282Y-38731068D01*
X99628091Y-38717563D01*
X99617965Y-38682274D01*
X99666216Y-38682274D01*
X99689472Y-38692611D01*
X99704430Y-38690572D01*
X99708308Y-38673775D01*
X99704167Y-38670394D01*
X99670636Y-38673775D01*
X99666216Y-38682274D01*
X99617965Y-38682274D01*
X99617112Y-38679300D01*
X99635318Y-38637403D01*
X99680497Y-38613199D01*
X99715302Y-38613799D01*
X99765407Y-38645591D01*
X99773117Y-38673775D01*
X99781568Y-38704667D01*
G37*
G36*
X97677703Y-38711647D02*
G01*
X97675273Y-38747824D01*
X97637656Y-38790892D01*
X97587156Y-38822451D01*
X97528969Y-38821846D01*
X97491752Y-38781471D01*
X97495033Y-38756553D01*
X97538855Y-38762184D01*
X97576732Y-38768288D01*
X97598705Y-38749355D01*
X97597194Y-38738862D01*
X97576165Y-38731460D01*
X97533717Y-38732754D01*
X97499166Y-38699846D01*
X97497530Y-38682274D01*
X97547195Y-38682274D01*
X97570451Y-38692611D01*
X97585408Y-38690572D01*
X97589287Y-38673775D01*
X97585146Y-38670394D01*
X97551615Y-38673775D01*
X97547195Y-38682274D01*
X97497530Y-38682274D01*
X97494813Y-38653082D01*
X97503014Y-38637873D01*
X97549832Y-38610482D01*
X97608083Y-38619155D01*
X97654218Y-38662500D01*
X97659606Y-38673775D01*
X97677703Y-38711647D01*
G37*
G36*
X98827299Y-38671648D02*
G01*
X98782356Y-38726513D01*
X98714722Y-38780914D01*
X98785135Y-38760941D01*
X98819050Y-38752186D01*
X98838742Y-38755581D01*
X98816992Y-38787423D01*
X98808255Y-38797217D01*
X98749754Y-38831336D01*
X98698122Y-38818709D01*
X98665496Y-38767419D01*
X98664014Y-38685548D01*
X98664919Y-38681016D01*
X98665315Y-38680152D01*
X98700596Y-38680152D01*
X98701330Y-38682971D01*
X98728849Y-38692611D01*
X98736593Y-38691461D01*
X98757103Y-38662690D01*
X98754884Y-38652471D01*
X98728849Y-38650231D01*
X98720394Y-38656030D01*
X98700596Y-38680152D01*
X98665315Y-38680152D01*
X98691060Y-38623927D01*
X98744602Y-38607850D01*
X98762773Y-38608574D01*
X98819793Y-38629261D01*
X98825713Y-38662690D01*
X98827299Y-38671648D01*
G37*
G36*
X100444684Y-38624970D02*
G01*
X100439257Y-38685548D01*
X100437675Y-38691824D01*
X100407041Y-38772076D01*
X100370956Y-38796399D01*
X100329672Y-38764613D01*
X100310252Y-38739384D01*
X100290260Y-38731898D01*
X100274961Y-38776037D01*
X100265050Y-38803238D01*
X100238099Y-38822673D01*
X100208673Y-38793046D01*
X100183396Y-38718521D01*
X100175345Y-38667478D01*
X100178952Y-38621934D01*
X100196855Y-38619705D01*
X100223893Y-38667319D01*
X100226207Y-38673015D01*
X100245403Y-38707247D01*
X100252754Y-38687215D01*
X100267492Y-38636904D01*
X100306778Y-38620313D01*
X100354413Y-38654465D01*
X100372611Y-38677724D01*
X100390860Y-38690032D01*
X100394914Y-38657294D01*
X100400144Y-38631181D01*
X100427129Y-38607850D01*
X100444684Y-38624970D01*
G37*
G36*
X95084260Y-38763908D02*
G01*
X95067493Y-38812848D01*
X95044365Y-38822896D01*
X94985581Y-38822373D01*
X94925136Y-38806351D01*
X94892016Y-38780219D01*
X94889567Y-38749118D01*
X94971118Y-38749118D01*
X94972268Y-38756862D01*
X95001039Y-38777372D01*
X95011259Y-38775154D01*
X95013499Y-38749118D01*
X95007700Y-38740663D01*
X94983578Y-38720865D01*
X94980758Y-38721599D01*
X94971118Y-38749118D01*
X94889567Y-38749118D01*
X94889026Y-38742254D01*
X94898711Y-38675490D01*
X94902724Y-38661096D01*
X94931823Y-38617953D01*
X94991115Y-38613132D01*
X95043279Y-38627369D01*
X95076504Y-38655071D01*
X95070591Y-38674768D01*
X95022176Y-38675464D01*
X94956992Y-38662764D01*
X95020562Y-38690904D01*
X95055711Y-38713557D01*
X95075874Y-38749118D01*
X95084260Y-38763908D01*
G37*
G36*
X98377637Y-38700483D02*
G01*
X98326235Y-38745388D01*
X98289238Y-38765768D01*
X98291596Y-38771599D01*
X98345296Y-38762056D01*
X98389091Y-38754668D01*
X98409987Y-38760397D01*
X98391280Y-38789722D01*
X98382686Y-38799331D01*
X98325179Y-38832003D01*
X98274157Y-38818340D01*
X98241781Y-38766727D01*
X98240210Y-38685548D01*
X98241309Y-38680152D01*
X98276791Y-38680152D01*
X98277526Y-38682971D01*
X98305045Y-38692611D01*
X98312789Y-38691461D01*
X98333299Y-38662690D01*
X98331080Y-38652471D01*
X98305045Y-38650231D01*
X98296590Y-38656030D01*
X98276791Y-38680152D01*
X98241309Y-38680152D01*
X98241635Y-38678554D01*
X98268032Y-38623190D01*
X98322466Y-38607850D01*
X98361681Y-38615945D01*
X98389297Y-38651652D01*
X98386661Y-38662690D01*
X98377637Y-38700483D01*
G37*
G36*
X100647737Y-38794340D02*
G01*
X100621879Y-38814928D01*
X100572624Y-38821038D01*
X100554624Y-38814946D01*
X100506516Y-38805626D01*
X100497173Y-38796097D01*
X100485240Y-38744948D01*
X100482931Y-38705071D01*
X100537081Y-38705071D01*
X100541776Y-38732011D01*
X100569203Y-38764339D01*
X100603774Y-38757768D01*
X100619928Y-38729978D01*
X100615000Y-38685427D01*
X100579461Y-38664358D01*
X100559733Y-38669068D01*
X100537081Y-38705071D01*
X100482931Y-38705071D01*
X100480573Y-38664358D01*
X100482480Y-38613471D01*
X100492710Y-38548500D01*
X100508827Y-38523090D01*
X100521183Y-38527185D01*
X100537081Y-38563505D01*
X100550949Y-38590599D01*
X100600651Y-38612949D01*
X100622357Y-38619238D01*
X100665112Y-38663148D01*
X100675435Y-38728691D01*
X100674892Y-38729978D01*
X100647737Y-38794340D01*
G37*
G36*
X99280768Y-38706224D02*
G01*
X99300248Y-38776027D01*
X99300656Y-38816969D01*
X99284356Y-38822805D01*
X99251177Y-38795779D01*
X99220965Y-38764878D01*
X99164065Y-38753821D01*
X99107223Y-38798562D01*
X99090570Y-38819918D01*
X99072626Y-38832403D01*
X99068791Y-38799134D01*
X99075353Y-38749728D01*
X99096834Y-38680152D01*
X99152653Y-38680152D01*
X99153388Y-38682971D01*
X99180907Y-38692611D01*
X99188651Y-38691461D01*
X99209161Y-38662690D01*
X99206942Y-38652471D01*
X99180907Y-38650231D01*
X99172452Y-38656030D01*
X99152653Y-38680152D01*
X99096834Y-38680152D01*
X99098233Y-38675622D01*
X99129986Y-38602441D01*
X99162673Y-38548042D01*
X99188353Y-38530280D01*
X99188904Y-38530479D01*
X99216993Y-38562767D01*
X99250315Y-38628243D01*
X99263767Y-38662690D01*
X99280768Y-38706224D01*
G37*
G36*
X95158965Y-38623577D02*
G01*
X95185115Y-38670957D01*
X95205144Y-38734064D01*
X95228489Y-38670957D01*
X95237279Y-38651441D01*
X95276665Y-38617143D01*
X95351632Y-38607850D01*
X95360921Y-38607869D01*
X95422712Y-38613411D01*
X95447127Y-38640666D01*
X95451430Y-38706738D01*
X95451186Y-38719716D01*
X95441851Y-38780788D01*
X95423176Y-38805626D01*
X95404594Y-38788089D01*
X95394923Y-38734992D01*
X95394918Y-38733761D01*
X95378492Y-38677244D01*
X95340276Y-38661985D01*
X95295123Y-38686454D01*
X95257888Y-38749118D01*
X95256481Y-38753107D01*
X95231962Y-38810288D01*
X95213469Y-38833879D01*
X95209425Y-38832310D01*
X95183801Y-38799933D01*
X95151606Y-38742142D01*
X95124061Y-38680734D01*
X95112386Y-38637507D01*
X95112820Y-38629455D01*
X95129547Y-38607297D01*
X95158965Y-38623577D01*
G37*
G36*
X98622528Y-38693922D02*
G01*
X98617218Y-38759182D01*
X98576281Y-38812256D01*
X98555797Y-38825788D01*
X98532241Y-38831211D01*
X98491004Y-38816730D01*
X98451278Y-38790765D01*
X98455052Y-38768540D01*
X98502820Y-38769186D01*
X98536960Y-38771843D01*
X98559328Y-38753300D01*
X98555841Y-38741332D01*
X98524011Y-38735582D01*
X98502771Y-38738620D01*
X98448130Y-38722721D01*
X98445316Y-38720902D01*
X98422210Y-38692482D01*
X98427891Y-38682274D01*
X98507818Y-38682274D01*
X98531074Y-38692611D01*
X98546031Y-38690572D01*
X98549910Y-38673775D01*
X98545769Y-38670394D01*
X98512238Y-38673775D01*
X98507818Y-38682274D01*
X98427891Y-38682274D01*
X98444526Y-38652384D01*
X98472793Y-38628329D01*
X98533539Y-38607850D01*
X98543324Y-38608395D01*
X98596476Y-38636863D01*
X98613329Y-38673775D01*
X98622528Y-38693922D01*
G37*
G36*
X100897802Y-38546121D02*
G01*
X100923337Y-38610825D01*
X100940884Y-38698560D01*
X100978810Y-38608361D01*
X100983565Y-38597732D01*
X101018980Y-38545076D01*
X101052381Y-38529868D01*
X101068757Y-38542099D01*
X101092172Y-38598361D01*
X101100089Y-38680249D01*
X101089404Y-38767815D01*
X101087715Y-38774010D01*
X101060846Y-38815614D01*
X101031140Y-38808108D01*
X101015406Y-38754514D01*
X101014802Y-38742645D01*
X101009212Y-38724310D01*
X100993113Y-38758273D01*
X100964018Y-38801784D01*
X100929049Y-38799156D01*
X100900130Y-38743722D01*
X100881757Y-38678484D01*
X100878940Y-38742055D01*
X100873881Y-38785406D01*
X100859146Y-38810069D01*
X100841187Y-38792873D01*
X100826010Y-38741682D01*
X100819617Y-38664358D01*
X100822521Y-38588120D01*
X100835736Y-38537532D01*
X100862703Y-38523090D01*
X100897802Y-38546121D01*
G37*
G36*
X100132734Y-38692611D02*
G01*
X100133544Y-38744070D01*
X100132897Y-38749118D01*
X100126557Y-38798562D01*
X100110833Y-38825632D01*
X100076221Y-38831190D01*
X100005811Y-38815675D01*
X99981988Y-38807583D01*
X99951366Y-38775700D01*
X99950530Y-38749118D01*
X100014389Y-38749118D01*
X100020162Y-38756754D01*
X100060104Y-38777372D01*
X100069604Y-38775195D01*
X100070896Y-38749118D01*
X100065122Y-38741483D01*
X100025181Y-38720865D01*
X100015680Y-38723042D01*
X100014389Y-38749118D01*
X99950530Y-38749118D01*
X99949303Y-38710110D01*
X99953662Y-38682274D01*
X100033513Y-38682274D01*
X100056769Y-38692611D01*
X100071727Y-38690572D01*
X100075605Y-38673775D01*
X100071464Y-38670394D01*
X100037933Y-38673775D01*
X100033513Y-38682274D01*
X99953662Y-38682274D01*
X99956482Y-38664271D01*
X99982286Y-38629595D01*
X100042642Y-38621977D01*
X100075405Y-38623352D01*
X100118691Y-38641679D01*
X100127541Y-38673775D01*
X100132734Y-38692611D01*
G37*
G36*
X92110413Y-38752896D02*
G01*
X92100824Y-38818915D01*
X92091196Y-38885200D01*
X92068526Y-38888883D01*
X92011552Y-38885200D01*
X91987647Y-38881722D01*
X91951186Y-38865180D01*
X91937829Y-38833879D01*
X91990362Y-38833879D01*
X91996153Y-38842427D01*
X92018616Y-38862133D01*
X92022702Y-38860803D01*
X92046869Y-38833879D01*
X92049132Y-38818915D01*
X92018616Y-38805626D01*
X91997071Y-38809943D01*
X91990362Y-38833879D01*
X91937829Y-38833879D01*
X91933580Y-38823923D01*
X91925243Y-38742055D01*
X91923300Y-38705071D01*
X91976235Y-38705071D01*
X91980930Y-38732011D01*
X92008358Y-38764339D01*
X92042928Y-38757768D01*
X92059083Y-38729978D01*
X92054155Y-38685427D01*
X92018616Y-38664358D01*
X91998888Y-38669068D01*
X91976235Y-38705071D01*
X91923300Y-38705071D01*
X91921934Y-38679059D01*
X91926827Y-38629564D01*
X91950390Y-38610795D01*
X92001037Y-38607850D01*
X92056743Y-38618450D01*
X92099341Y-38665250D01*
X92107518Y-38729978D01*
X92110413Y-38752896D01*
G37*
G36*
X100510510Y-36947950D02*
G01*
X100516071Y-36958722D01*
X100517017Y-36976448D01*
X100495777Y-36987752D01*
X100443774Y-36994060D01*
X100352428Y-36996798D01*
X100213158Y-36997394D01*
X100091373Y-36995850D01*
X99985494Y-36991324D01*
X99913882Y-36984534D01*
X99887655Y-36976204D01*
X99899194Y-36960986D01*
X99944031Y-36926319D01*
X100205797Y-36926319D01*
X100217179Y-36937432D01*
X100278089Y-36939988D01*
X100279337Y-36939999D01*
X100345234Y-36931837D01*
X100361084Y-36907336D01*
X100349578Y-36884408D01*
X100304988Y-36865770D01*
X100239275Y-36897227D01*
X100236972Y-36898971D01*
X100205797Y-36926319D01*
X99944031Y-36926319D01*
X99947963Y-36923279D01*
X100021859Y-36876309D01*
X100070812Y-36847403D01*
X100163462Y-36792209D01*
X100234728Y-36749167D01*
X100271849Y-36727486D01*
X100309321Y-36718218D01*
X100344947Y-36740289D01*
X100397876Y-36799619D01*
X100419600Y-36825666D01*
X100474863Y-36896241D01*
X100482512Y-36907336D01*
X100510510Y-36947950D01*
G37*
G36*
X93602119Y-38734992D02*
G01*
X93602163Y-38757173D01*
X93599592Y-38818915D01*
X93599128Y-38830067D01*
X93592387Y-38870815D01*
X93565521Y-38883851D01*
X93506326Y-38884942D01*
X93483625Y-38881558D01*
X93448284Y-38864755D01*
X93435527Y-38833879D01*
X93487804Y-38833879D01*
X93493594Y-38842427D01*
X93516057Y-38862133D01*
X93520144Y-38860803D01*
X93544311Y-38833879D01*
X93546574Y-38818915D01*
X93516057Y-38805626D01*
X93494513Y-38809943D01*
X93487804Y-38833879D01*
X93435527Y-38833879D01*
X93430971Y-38822851D01*
X93422607Y-38740144D01*
X93420368Y-38705071D01*
X93473677Y-38705071D01*
X93478372Y-38732011D01*
X93505799Y-38764339D01*
X93540370Y-38757768D01*
X93556525Y-38729978D01*
X93551597Y-38685427D01*
X93516057Y-38664358D01*
X93496330Y-38669068D01*
X93473677Y-38705071D01*
X93420368Y-38705071D01*
X93413917Y-38604028D01*
X93507368Y-38613002D01*
X93527384Y-38615097D01*
X93577275Y-38627967D01*
X93597624Y-38662058D01*
X93601810Y-38729978D01*
X93602119Y-38734992D01*
G37*
G36*
X99320966Y-35336056D02*
G01*
X99362773Y-35403344D01*
X99378682Y-35440511D01*
X99359536Y-35444087D01*
X99303851Y-35424513D01*
X99224424Y-35385131D01*
X99154512Y-35348417D01*
X99048544Y-35297566D01*
X98963078Y-35261818D01*
X98952618Y-35258032D01*
X98857444Y-35222885D01*
X98774012Y-35191108D01*
X98769038Y-35189163D01*
X98931014Y-35189163D01*
X98936061Y-35189933D01*
X98980900Y-35204569D01*
X99050315Y-35231923D01*
X99099157Y-35250395D01*
X99143096Y-35255929D01*
X99141606Y-35228367D01*
X99095996Y-35165818D01*
X99060245Y-35127188D01*
X99025746Y-35117243D01*
X98977635Y-35144627D01*
X98938179Y-35175636D01*
X98931014Y-35189163D01*
X98769038Y-35189163D01*
X98692033Y-35159052D01*
X98844646Y-35061816D01*
X98919999Y-35015891D01*
X98988666Y-34978483D01*
X99025927Y-34963857D01*
X99034402Y-34967943D01*
X99072440Y-35005777D01*
X99128999Y-35073509D01*
X99195196Y-35159135D01*
X99262146Y-35250652D01*
X99265780Y-35255929D01*
X99320966Y-35336056D01*
G37*
G36*
X97533733Y-32896127D02*
G01*
X97572276Y-32958617D01*
X97583061Y-32987836D01*
X97572611Y-32990351D01*
X97518063Y-32984553D01*
X97428513Y-32967064D01*
X97316588Y-32940143D01*
X97281446Y-32931266D01*
X97136828Y-32898713D01*
X96993551Y-32871616D01*
X96878082Y-32855109D01*
X96787551Y-32843342D01*
X96720292Y-32829606D01*
X96694589Y-32817299D01*
X96704368Y-32808329D01*
X97133123Y-32808329D01*
X97146647Y-32825209D01*
X97149666Y-32826199D01*
X97207855Y-32845064D01*
X97285068Y-32869878D01*
X97343817Y-32888364D01*
X97385937Y-32897395D01*
X97392803Y-32885064D01*
X97375212Y-32848853D01*
X97329275Y-32783240D01*
X97269372Y-32755983D01*
X97189027Y-32775113D01*
X97172805Y-32782334D01*
X97133123Y-32808329D01*
X96704368Y-32808329D01*
X96705602Y-32807197D01*
X96757744Y-32785391D01*
X96838286Y-32761460D01*
X96900336Y-32742978D01*
X97022497Y-32697775D01*
X97136661Y-32646610D01*
X97291338Y-32568589D01*
X97442930Y-32768941D01*
X97474581Y-32811530D01*
X97525998Y-32885064D01*
X97533733Y-32896127D01*
G37*
G36*
X98434015Y-34222997D02*
G01*
X98371723Y-34268133D01*
X98268879Y-34338017D01*
X98061314Y-34150027D01*
X97936570Y-34037047D01*
X98059505Y-34037047D01*
X98086321Y-34076128D01*
X98148321Y-34141894D01*
X98171062Y-34165248D01*
X98230306Y-34223319D01*
X98267851Y-34249077D01*
X98297342Y-34249028D01*
X98332423Y-34229679D01*
X98340165Y-34224140D01*
X98352399Y-34198776D01*
X98335906Y-34155996D01*
X98286705Y-34083022D01*
X98280684Y-34074731D01*
X98220207Y-33996971D01*
X98176762Y-33960344D01*
X98138107Y-33958757D01*
X98092000Y-33986118D01*
X98063081Y-34011398D01*
X98059505Y-34037047D01*
X97936570Y-34037047D01*
X97853749Y-33962036D01*
X98001700Y-33869897D01*
X98071461Y-33827425D01*
X98134533Y-33791266D01*
X98164508Y-33777120D01*
X98165457Y-33777361D01*
X98190236Y-33802204D01*
X98237372Y-33859050D01*
X98297327Y-33935365D01*
X98360562Y-34018612D01*
X98417539Y-34096258D01*
X98458720Y-34155766D01*
X98474567Y-34184601D01*
X98470558Y-34191091D01*
X98461756Y-34198776D01*
X98434015Y-34222997D01*
G37*
G36*
X96935593Y-38599281D02*
G01*
X96939984Y-38639577D01*
X96956784Y-38681687D01*
X96975386Y-38722530D01*
X96974500Y-38733324D01*
X96970808Y-38778295D01*
X96941808Y-38813145D01*
X96934753Y-38815218D01*
X96880049Y-38820881D01*
X96815235Y-38818070D01*
X96762500Y-38808808D01*
X96744033Y-38795117D01*
X96748078Y-38774151D01*
X96749330Y-38750786D01*
X96864111Y-38750786D01*
X96864919Y-38757094D01*
X96892364Y-38777372D01*
X96905867Y-38771981D01*
X96920618Y-38733324D01*
X96916552Y-38713143D01*
X96892364Y-38706738D01*
X96884648Y-38712521D01*
X96864111Y-38750786D01*
X96749330Y-38750786D01*
X96751096Y-38717842D01*
X96758438Y-38680447D01*
X96791507Y-38673819D01*
X96795455Y-38675206D01*
X96822376Y-38667242D01*
X96826824Y-38613271D01*
X96826181Y-38599815D01*
X96827474Y-38593724D01*
X96864111Y-38593724D01*
X96878237Y-38607850D01*
X96892364Y-38593724D01*
X96878237Y-38579597D01*
X96864111Y-38593724D01*
X96827474Y-38593724D01*
X96836659Y-38550473D01*
X96878237Y-38537216D01*
X96917341Y-38548364D01*
X96933601Y-38593724D01*
X96935593Y-38599281D01*
G37*
G36*
X96040853Y-35134034D02*
G01*
X95981610Y-35201890D01*
X95931572Y-35254349D01*
X95906128Y-35274731D01*
X95905825Y-35274740D01*
X95869296Y-35262986D01*
X95799966Y-35232163D01*
X95711837Y-35189426D01*
X95618915Y-35141930D01*
X95535204Y-35096828D01*
X95474707Y-35061276D01*
X95466389Y-35054541D01*
X95611149Y-35054541D01*
X95651764Y-35087116D01*
X95738266Y-35137578D01*
X95803441Y-35172922D01*
X95864063Y-35205035D01*
X95889496Y-35217417D01*
X95905914Y-35203146D01*
X95944661Y-35162244D01*
X95972536Y-35129225D01*
X95973608Y-35106168D01*
X95927849Y-35091838D01*
X95781570Y-35060059D01*
X95674359Y-35041422D01*
X95618116Y-35039446D01*
X95611149Y-35054541D01*
X95466389Y-35054541D01*
X95451430Y-35042429D01*
X95451572Y-35040961D01*
X95471537Y-35006158D01*
X95515000Y-34953321D01*
X95530265Y-34936875D01*
X95564124Y-34907852D01*
X95602862Y-34896993D01*
X95663291Y-34902099D01*
X95762220Y-34920970D01*
X95853161Y-34938999D01*
X95966451Y-34960630D01*
X96052339Y-34976117D01*
X96158810Y-34994143D01*
X96064350Y-35106168D01*
X96040853Y-35134034D01*
G37*
G36*
X98850215Y-34787822D02*
G01*
X98778791Y-34846967D01*
X98732698Y-34878749D01*
X98671368Y-34917830D01*
X98639479Y-34933621D01*
X98633397Y-34929512D01*
X98603627Y-34889081D01*
X98557938Y-34814613D01*
X98503445Y-34717417D01*
X98420743Y-34564093D01*
X98548300Y-34564093D01*
X98550184Y-34626557D01*
X98591713Y-34724945D01*
X98597025Y-34734955D01*
X98638129Y-34808726D01*
X98666976Y-34840624D01*
X98696555Y-34837925D01*
X98739859Y-34807904D01*
X98768410Y-34783634D01*
X98776910Y-34752338D01*
X98747883Y-34702851D01*
X98729793Y-34677298D01*
X98667562Y-34595264D01*
X98624577Y-34551967D01*
X98593197Y-34539330D01*
X98586047Y-34539616D01*
X98548300Y-34564093D01*
X98420743Y-34564093D01*
X98386146Y-34499953D01*
X98451547Y-34449474D01*
X98468629Y-34436942D01*
X98535997Y-34396980D01*
X98595345Y-34373385D01*
X98627618Y-34374292D01*
X98650678Y-34405142D01*
X98697766Y-34470052D01*
X98755017Y-34550014D01*
X98811609Y-34629822D01*
X98856717Y-34694269D01*
X98879514Y-34728149D01*
X98880987Y-34742450D01*
X98874281Y-34752338D01*
X98850215Y-34787822D01*
G37*
G36*
X95830503Y-34450970D02*
G01*
X95622373Y-34579591D01*
X95576703Y-34612007D01*
X95533733Y-34631871D01*
X95486134Y-34634339D01*
X95422252Y-34617806D01*
X95330433Y-34580670D01*
X95199022Y-34521325D01*
X95021740Y-34440185D01*
X95162935Y-34440185D01*
X95300119Y-34502150D01*
X95320940Y-34511343D01*
X95443736Y-34554509D01*
X95531244Y-34563840D01*
X95578935Y-34538741D01*
X95600565Y-34518409D01*
X95660588Y-34476424D01*
X95741797Y-34427065D01*
X95803747Y-34388651D01*
X95848127Y-34350893D01*
X95845716Y-34331812D01*
X95804626Y-34318458D01*
X95725223Y-34291677D01*
X95627879Y-34258272D01*
X95451158Y-34197152D01*
X95307047Y-34318668D01*
X95162935Y-34440185D01*
X95021740Y-34440185D01*
X94988995Y-34425198D01*
X95099201Y-34312336D01*
X95138454Y-34273881D01*
X95231655Y-34191197D01*
X95316903Y-34124981D01*
X95424398Y-34050486D01*
X95671006Y-34125996D01*
X95696426Y-34133664D01*
X95841986Y-34174338D01*
X95991185Y-34211711D01*
X96115390Y-34238531D01*
X96313165Y-34275557D01*
X96144850Y-34325174D01*
X96071030Y-34348711D01*
X96065898Y-34350893D01*
X95830503Y-34450970D01*
G37*
G36*
X96353188Y-32811868D02*
G01*
X96284178Y-32827504D01*
X96181275Y-32848214D01*
X96056239Y-32871534D01*
X95958123Y-32890104D01*
X95823592Y-32918313D01*
X95710034Y-32945196D01*
X95634840Y-32966820D01*
X95606104Y-32976514D01*
X95542027Y-32994449D01*
X95511460Y-32997126D01*
X95512918Y-32989756D01*
X95537720Y-32946233D01*
X95586100Y-32873333D01*
X95597383Y-32857441D01*
X95722941Y-32857441D01*
X95741807Y-32867378D01*
X95798830Y-32860301D01*
X95902433Y-32838236D01*
X96028519Y-32810157D01*
X95934506Y-32770628D01*
X95875080Y-32746707D01*
X95822012Y-32735124D01*
X95787062Y-32752364D01*
X95750691Y-32801732D01*
X95733814Y-32828464D01*
X95722941Y-32857441D01*
X95597383Y-32857441D01*
X95651150Y-32781711D01*
X95684115Y-32736508D01*
X95745594Y-32652094D01*
X95789464Y-32591706D01*
X95807867Y-32566149D01*
X95818393Y-32567479D01*
X95865627Y-32588749D01*
X95936587Y-32627497D01*
X95991393Y-32656055D01*
X96107365Y-32705849D01*
X96223436Y-32745616D01*
X96298540Y-32768881D01*
X96358019Y-32791334D01*
X96376425Y-32804397D01*
X96358510Y-32810157D01*
X96353188Y-32811868D01*
G37*
G36*
X94649595Y-34602708D02*
G01*
X94613451Y-34665922D01*
X94563461Y-34759479D01*
X94506194Y-34871310D01*
X94464852Y-34951539D01*
X94413387Y-35045077D01*
X94374077Y-35108990D01*
X94353145Y-35132656D01*
X94322889Y-35121934D01*
X94256641Y-35090503D01*
X94170610Y-35045611D01*
X94015083Y-34961374D01*
X94122311Y-34961374D01*
X94228861Y-35015385D01*
X94335412Y-35069397D01*
X94448248Y-34839680D01*
X94472719Y-34789837D01*
X94519843Y-34693701D01*
X94554334Y-34623126D01*
X94570043Y-34590686D01*
X94563079Y-34571899D01*
X94522217Y-34541019D01*
X94497486Y-34531997D01*
X94467285Y-34538288D01*
X94428707Y-34569754D01*
X94373616Y-34633342D01*
X94293872Y-34736001D01*
X94122311Y-34961374D01*
X94015083Y-34961374D01*
X94009900Y-34958567D01*
X94072526Y-34869026D01*
X94125584Y-34794054D01*
X94222538Y-34661452D01*
X94311433Y-34545179D01*
X94386262Y-34452782D01*
X94441021Y-34391810D01*
X94469705Y-34369808D01*
X94476534Y-34370801D01*
X94525631Y-34390866D01*
X94593423Y-34428620D01*
X94659373Y-34478532D01*
X94687174Y-34531736D01*
X94662999Y-34583123D01*
X94657823Y-34590686D01*
X94649595Y-34602708D01*
G37*
G36*
X97053634Y-32466825D02*
G01*
X96928403Y-32523062D01*
X96914869Y-32528586D01*
X96728700Y-32576549D01*
X96521692Y-32587050D01*
X96313169Y-32560687D01*
X96122453Y-32498061D01*
X96045563Y-32459321D01*
X96032389Y-32451072D01*
X96184488Y-32451072D01*
X96197723Y-32473737D01*
X96265993Y-32500296D01*
X96340148Y-32516166D01*
X96474640Y-32528490D01*
X96621731Y-32528681D01*
X96758770Y-32516992D01*
X96863108Y-32493673D01*
X96883852Y-32486139D01*
X96932578Y-32465732D01*
X96933583Y-32453114D01*
X96891362Y-32439701D01*
X96872191Y-32435783D01*
X96793552Y-32427884D01*
X96684655Y-32423175D01*
X96559951Y-32421564D01*
X96433892Y-32422956D01*
X96320926Y-32427258D01*
X96235506Y-32434378D01*
X96192081Y-32444221D01*
X96184488Y-32451072D01*
X96032389Y-32451072D01*
X95983714Y-32420595D01*
X95959995Y-32394898D01*
X95963335Y-32383973D01*
X96002521Y-32360567D01*
X96087799Y-32343072D01*
X96221722Y-32331223D01*
X96406841Y-32324753D01*
X96645708Y-32323396D01*
X96787891Y-32324869D01*
X96961248Y-32330893D01*
X97080850Y-32342469D01*
X97148295Y-32360723D01*
X97165176Y-32386782D01*
X97133091Y-32421774D01*
X97077816Y-32453114D01*
X97053634Y-32466825D01*
G37*
G36*
X93824603Y-35926345D02*
G01*
X93819385Y-36043835D01*
X93819218Y-36045965D01*
X93808371Y-36141044D01*
X93794243Y-36208749D01*
X93779848Y-36234547D01*
X93774748Y-36233956D01*
X93726307Y-36213883D01*
X93650379Y-36171454D01*
X93559699Y-36115108D01*
X93467001Y-36053284D01*
X93385021Y-35994420D01*
X93326494Y-35946956D01*
X93309374Y-35925785D01*
X93431296Y-35925785D01*
X93451664Y-35952988D01*
X93509176Y-35998421D01*
X93590809Y-36050911D01*
X93750321Y-36144831D01*
X93765841Y-35998977D01*
X93770568Y-35918640D01*
X93769865Y-35789021D01*
X93761724Y-35662517D01*
X93742086Y-35471911D01*
X93586691Y-35683244D01*
X93551018Y-35732594D01*
X93489569Y-35822220D01*
X93447130Y-35890567D01*
X93431296Y-35925785D01*
X93309374Y-35925785D01*
X93304155Y-35919331D01*
X93311519Y-35900046D01*
X93346636Y-35842817D01*
X93403707Y-35760667D01*
X93474930Y-35663745D01*
X93552507Y-35562201D01*
X93628637Y-35466184D01*
X93695519Y-35385841D01*
X93745353Y-35331322D01*
X93770340Y-35312776D01*
X93770563Y-35312845D01*
X93785707Y-35344235D01*
X93799469Y-35419961D01*
X93811044Y-35528031D01*
X93819628Y-35656448D01*
X93824416Y-35793217D01*
X93824592Y-35918640D01*
X93824603Y-35926345D01*
G37*
G36*
X96948938Y-32113389D02*
G01*
X96959818Y-32142347D01*
X96937226Y-32150095D01*
X96868396Y-32157287D01*
X96766315Y-32161924D01*
X96643789Y-32164058D01*
X96513623Y-32163743D01*
X96388625Y-32161033D01*
X96281600Y-32155981D01*
X96205355Y-32148640D01*
X96172695Y-32139063D01*
X96172087Y-32137027D01*
X96186474Y-32100743D01*
X96209222Y-32063475D01*
X96327268Y-32063475D01*
X96329525Y-32063992D01*
X96369245Y-32065595D01*
X96448272Y-32066717D01*
X96553235Y-32067138D01*
X96585137Y-32067000D01*
X96684060Y-32064559D01*
X96753236Y-32059704D01*
X96779289Y-32053256D01*
X96766737Y-32028347D01*
X96729738Y-31969358D01*
X96676836Y-31890529D01*
X96574323Y-31741684D01*
X96450807Y-31900747D01*
X96444458Y-31908929D01*
X96385183Y-31985817D01*
X96343209Y-32041167D01*
X96327268Y-32063475D01*
X96209222Y-32063475D01*
X96227484Y-32033556D01*
X96286912Y-31946510D01*
X96356553Y-31850650D01*
X96428204Y-31757021D01*
X96493660Y-31676667D01*
X96544716Y-31620632D01*
X96573169Y-31599962D01*
X96575248Y-31600569D01*
X96604604Y-31628630D01*
X96655280Y-31690431D01*
X96719290Y-31774767D01*
X96788648Y-31870434D01*
X96855366Y-31966229D01*
X96911458Y-32050949D01*
X96912843Y-32053256D01*
X96948938Y-32113389D01*
G37*
G36*
X97935728Y-34505360D02*
G01*
X97838389Y-34548325D01*
X97745458Y-34589440D01*
X97683465Y-34616977D01*
X97666678Y-34624332D01*
X97595750Y-34646681D01*
X97544653Y-34635052D01*
X97489293Y-34585545D01*
X97441915Y-34548249D01*
X97347726Y-34491905D01*
X97222029Y-34426806D01*
X97076285Y-34358843D01*
X97039952Y-34343556D01*
X97254026Y-34343556D01*
X97286895Y-34377262D01*
X97364845Y-34427065D01*
X97428575Y-34465265D01*
X97494927Y-34509937D01*
X97527707Y-34538741D01*
X97532165Y-34544752D01*
X97586202Y-34564627D01*
X97679640Y-34549985D01*
X97808274Y-34501385D01*
X97947209Y-34438656D01*
X97800253Y-34321647D01*
X97653296Y-34204639D01*
X97477669Y-34261342D01*
X97390286Y-34289533D01*
X97308136Y-34315991D01*
X97260925Y-34331139D01*
X97254026Y-34343556D01*
X97039952Y-34343556D01*
X96921956Y-34293909D01*
X96921706Y-34293809D01*
X96890828Y-34278169D01*
X96894741Y-34265214D01*
X96940453Y-34251107D01*
X97034971Y-34232008D01*
X97044095Y-34230252D01*
X97166640Y-34202612D01*
X97310632Y-34164815D01*
X97446799Y-34124502D01*
X97676317Y-34051385D01*
X97799969Y-34137265D01*
X97835954Y-34163454D01*
X97935404Y-34244481D01*
X98020489Y-34324215D01*
X98117356Y-34425286D01*
X98087029Y-34438656D01*
X97935728Y-34505360D01*
G37*
G36*
X95089849Y-34113226D02*
G01*
X95084320Y-34117843D01*
X94999997Y-34190294D01*
X94930345Y-34253604D01*
X94889961Y-34294532D01*
X94864546Y-34322626D01*
X94839912Y-34341554D01*
X94836839Y-34340957D01*
X94799850Y-34321481D01*
X94740467Y-34283403D01*
X94676277Y-34238847D01*
X94624866Y-34199937D01*
X94603821Y-34178797D01*
X94603856Y-34178358D01*
X94611020Y-34165625D01*
X94729574Y-34165625D01*
X94732063Y-34193301D01*
X94760011Y-34218488D01*
X94775478Y-34229686D01*
X94811965Y-34249958D01*
X94844785Y-34246048D01*
X94888294Y-34212515D01*
X94956853Y-34143922D01*
X95016711Y-34080793D01*
X95044198Y-34041393D01*
X95041036Y-34015423D01*
X95012030Y-33989425D01*
X94962976Y-33958354D01*
X94916949Y-33954056D01*
X94867829Y-33987347D01*
X94801720Y-34063093D01*
X94756449Y-34120912D01*
X94729574Y-34165625D01*
X94611020Y-34165625D01*
X94620855Y-34148145D01*
X94662436Y-34087642D01*
X94719060Y-34009583D01*
X94781186Y-33926703D01*
X94839277Y-33851737D01*
X94883791Y-33797418D01*
X94905191Y-33776482D01*
X94911433Y-33778299D01*
X94955113Y-33799566D01*
X95024294Y-33837206D01*
X95102191Y-33881702D01*
X95172019Y-33923542D01*
X95216991Y-33953211D01*
X95219767Y-33955724D01*
X95218545Y-33985042D01*
X95176366Y-34036125D01*
X95170455Y-34041393D01*
X95089849Y-34113226D01*
G37*
G36*
X96976594Y-34701916D02*
G01*
X96922323Y-34751170D01*
X96830856Y-34785371D01*
X96791981Y-34793754D01*
X96683823Y-34804561D01*
X96547239Y-34807586D01*
X96394358Y-34803707D01*
X96237310Y-34793802D01*
X96088226Y-34778749D01*
X95959236Y-34759426D01*
X95862469Y-34736711D01*
X95810056Y-34711482D01*
X95808637Y-34697783D01*
X95810506Y-34696028D01*
X96045927Y-34696028D01*
X96062785Y-34710599D01*
X96089166Y-34716327D01*
X96164936Y-34725519D01*
X96269055Y-34734457D01*
X96384626Y-34742077D01*
X96494750Y-34747316D01*
X96582527Y-34749109D01*
X96631059Y-34746391D01*
X96644540Y-34743948D01*
X96703138Y-34735074D01*
X96786413Y-34723469D01*
X96816372Y-34718678D01*
X96894016Y-34694167D01*
X96920561Y-34663163D01*
X96894585Y-34631603D01*
X96814667Y-34605423D01*
X96767710Y-34597517D01*
X96581500Y-34586938D01*
X96379687Y-34601490D01*
X96188703Y-34639727D01*
X96146432Y-34651934D01*
X96072071Y-34677451D01*
X96045927Y-34696028D01*
X95810506Y-34696028D01*
X95843219Y-34665307D01*
X95914076Y-34624796D01*
X96010034Y-34581152D01*
X96119919Y-34539278D01*
X96232554Y-34504075D01*
X96336766Y-34480445D01*
X96392507Y-34472310D01*
X96661434Y-34467081D01*
X96928124Y-34517143D01*
X96989186Y-34538765D01*
X97019664Y-34566245D01*
X97016530Y-34607505D01*
X97012882Y-34619205D01*
X96993596Y-34663163D01*
X96976594Y-34701916D01*
G37*
G36*
X97115392Y-33243801D02*
G01*
X97009329Y-33278044D01*
X96906491Y-33306809D01*
X96905640Y-33307013D01*
X96854723Y-33311805D01*
X96760885Y-33314539D01*
X96637218Y-33315016D01*
X96496814Y-33313038D01*
X96383879Y-33308437D01*
X96212208Y-33293111D01*
X96063971Y-33269687D01*
X95947436Y-33239986D01*
X95895317Y-33216734D01*
X96146069Y-33216734D01*
X96154470Y-33232539D01*
X96215530Y-33249803D01*
X96222232Y-33251042D01*
X96308096Y-33259480D01*
X96429781Y-33263725D01*
X96568875Y-33263969D01*
X96706966Y-33260403D01*
X96825642Y-33253219D01*
X96906491Y-33242609D01*
X96951742Y-33229755D01*
X96965414Y-33214346D01*
X96928241Y-33201499D01*
X96843453Y-33191740D01*
X96714278Y-33185595D01*
X96543947Y-33183589D01*
X96398384Y-33185817D01*
X96271870Y-33192598D01*
X96186484Y-33203162D01*
X96146069Y-33216734D01*
X95895317Y-33216734D01*
X95870869Y-33205827D01*
X95842536Y-33169029D01*
X95847886Y-33158722D01*
X95891296Y-33130368D01*
X95964286Y-33101155D01*
X96033156Y-33085017D01*
X96152224Y-33070090D01*
X96297977Y-33061077D01*
X96461177Y-33057597D01*
X96632588Y-33059274D01*
X96802971Y-33065729D01*
X96963089Y-33076586D01*
X97103705Y-33091465D01*
X97215582Y-33109989D01*
X97289482Y-33131780D01*
X97316168Y-33156460D01*
X97315304Y-33158708D01*
X97282143Y-33179082D01*
X97210917Y-33209130D01*
X97196546Y-33214346D01*
X97115392Y-33243801D01*
G37*
G36*
X98467338Y-34990573D02*
G01*
X98486386Y-35036503D01*
X98491172Y-35053772D01*
X98491024Y-35076359D01*
X98468586Y-35083772D01*
X98412807Y-35077425D01*
X98312639Y-35058732D01*
X98213027Y-35041847D01*
X98094505Y-35026854D01*
X98002756Y-35020680D01*
X97932046Y-35015475D01*
X97870131Y-34988444D01*
X97812045Y-34925150D01*
X97795111Y-34902528D01*
X97880467Y-34902528D01*
X97897251Y-34931804D01*
X97906060Y-34936923D01*
X97958179Y-34951209D01*
X98038383Y-34964727D01*
X98129922Y-34975688D01*
X98216046Y-34982304D01*
X98280003Y-34982786D01*
X98305045Y-34975346D01*
X98304114Y-34970943D01*
X98283250Y-34930327D01*
X98243561Y-34868608D01*
X98232319Y-34852305D01*
X98194826Y-34797798D01*
X98177293Y-34772079D01*
X98168663Y-34773095D01*
X98122850Y-34789151D01*
X98053449Y-34817130D01*
X97978400Y-34849434D01*
X97915645Y-34878468D01*
X97883124Y-34896635D01*
X97880467Y-34902528D01*
X97795111Y-34902528D01*
X97794606Y-34901854D01*
X97755557Y-34845570D01*
X97739973Y-34816160D01*
X97749074Y-34808274D01*
X97798396Y-34782551D01*
X97878523Y-34745986D01*
X97975743Y-34704271D01*
X98076342Y-34663098D01*
X98166606Y-34628161D01*
X98232823Y-34605152D01*
X98261279Y-34599762D01*
X98264944Y-34604376D01*
X98292744Y-34650172D01*
X98334973Y-34727385D01*
X98383542Y-34820320D01*
X98430360Y-34913281D01*
X98460053Y-34975346D01*
X98467338Y-34990573D01*
G37*
G36*
X95021019Y-36935251D02*
G01*
X95096080Y-36961665D01*
X95130571Y-36977907D01*
X95130605Y-36977942D01*
X95108542Y-36983099D01*
X95037106Y-36987742D01*
X94923382Y-36991681D01*
X94774456Y-36994729D01*
X94597414Y-36996697D01*
X94399342Y-36997394D01*
X93648627Y-36997394D01*
X93469328Y-36896712D01*
X93311377Y-36805324D01*
X93160086Y-36711915D01*
X93035001Y-36628295D01*
X92942045Y-36558646D01*
X92887140Y-36507151D01*
X92883772Y-36498164D01*
X92984228Y-36498164D01*
X93064537Y-36562200D01*
X93089508Y-36580809D01*
X93167884Y-36633916D01*
X93271613Y-36700161D01*
X93385059Y-36769435D01*
X93625273Y-36912633D01*
X94050976Y-36912078D01*
X94476680Y-36911523D01*
X94194144Y-36790659D01*
X94180674Y-36784854D01*
X94006703Y-36704325D01*
X93808146Y-36604364D01*
X93604205Y-36495220D01*
X93414084Y-36387145D01*
X93256986Y-36290391D01*
X93167437Y-36231879D01*
X93075833Y-36365021D01*
X92984228Y-36498164D01*
X92883772Y-36498164D01*
X92876212Y-36477990D01*
X92893204Y-36455661D01*
X92936330Y-36398113D01*
X92994166Y-36320525D01*
X93057008Y-36235961D01*
X93115151Y-36157483D01*
X93158892Y-36098155D01*
X93178525Y-36071039D01*
X93184374Y-36072446D01*
X93226280Y-36095446D01*
X93299221Y-36140399D01*
X93392320Y-36200708D01*
X93603915Y-36333184D01*
X94019230Y-36556862D01*
X94450412Y-36745891D01*
X94878643Y-36891522D01*
X94919311Y-36903438D01*
X94945159Y-36911523D01*
X95021019Y-36935251D01*
G37*
G36*
X98024014Y-33605512D02*
G01*
X97996532Y-33642880D01*
X97930732Y-33686953D01*
X97821171Y-33748271D01*
X97762779Y-33779964D01*
X97683467Y-33816730D01*
X97623720Y-33827458D01*
X97564671Y-33813793D01*
X97487454Y-33777382D01*
X97437064Y-33754126D01*
X97297303Y-33702936D01*
X97131668Y-33654789D01*
X96960898Y-33615372D01*
X96855279Y-33598357D01*
X97176039Y-33598357D01*
X97295548Y-33634060D01*
X97312174Y-33639219D01*
X97420600Y-33678895D01*
X97519882Y-33723123D01*
X97544048Y-33735104D01*
X97609837Y-33764250D01*
X97647023Y-33775380D01*
X97650949Y-33774893D01*
X97697479Y-33755835D01*
X97764054Y-33717620D01*
X97833218Y-33671727D01*
X97887516Y-33629631D01*
X97909494Y-33602807D01*
X97887524Y-33557632D01*
X97833376Y-33501904D01*
X97765059Y-33451330D01*
X97700580Y-33421537D01*
X97640190Y-33420690D01*
X97541477Y-33446160D01*
X97402053Y-33500847D01*
X97176039Y-33598357D01*
X96855279Y-33598357D01*
X96805732Y-33590375D01*
X96746303Y-33581598D01*
X96678868Y-33562838D01*
X96657025Y-33543473D01*
X96683838Y-33528321D01*
X96762371Y-33522200D01*
X96771882Y-33522063D01*
X96884658Y-33508712D01*
X97028226Y-33477201D01*
X97184160Y-33432724D01*
X97334036Y-33380477D01*
X97459428Y-33325655D01*
X97625731Y-33241146D01*
X97750581Y-33294663D01*
X97848736Y-33352317D01*
X97962446Y-33474651D01*
X97985793Y-33508725D01*
X98018620Y-33564307D01*
X98023660Y-33602807D01*
X98024014Y-33605512D01*
G37*
G36*
X97281724Y-33981801D02*
G01*
X97154852Y-34014154D01*
X96991252Y-34044892D01*
X96800137Y-34069691D01*
X96480656Y-34082593D01*
X96186024Y-34057880D01*
X96181269Y-34057126D01*
X96038572Y-34030915D01*
X95908979Y-34000796D01*
X95803179Y-33969879D01*
X95752533Y-33949567D01*
X96010044Y-33949567D01*
X96022024Y-33963595D01*
X96073009Y-33978228D01*
X96087139Y-33981023D01*
X96167994Y-33991686D01*
X96280675Y-34001807D01*
X96410501Y-34010609D01*
X96542789Y-34017315D01*
X96662857Y-34021148D01*
X96756023Y-34021332D01*
X96807603Y-34017090D01*
X96829101Y-34012415D01*
X96900478Y-33999828D01*
X96991252Y-33985918D01*
X97132520Y-33965734D01*
X97012008Y-33929284D01*
X96952125Y-33913151D01*
X96742219Y-33879000D01*
X96515370Y-33869863D01*
X96297787Y-33887282D01*
X96247983Y-33895002D01*
X96119039Y-33916883D01*
X96041055Y-33934534D01*
X96010044Y-33949567D01*
X95752533Y-33949567D01*
X95731860Y-33941276D01*
X95705712Y-33918096D01*
X95726061Y-33897748D01*
X95792004Y-33868254D01*
X95892969Y-33835043D01*
X96017982Y-33801326D01*
X96156073Y-33770316D01*
X96296269Y-33745223D01*
X96329152Y-33740377D01*
X96475909Y-33725616D01*
X96615130Y-33726676D01*
X96777741Y-33743441D01*
X96797161Y-33746110D01*
X96935381Y-33769291D01*
X97073368Y-33798636D01*
X97200021Y-33831068D01*
X97304234Y-33863511D01*
X97374905Y-33892888D01*
X97400929Y-33916122D01*
X97400349Y-33920091D01*
X97365634Y-33949794D01*
X97323845Y-33965734D01*
X97281724Y-33981801D01*
G37*
G36*
X95287492Y-34928843D02*
G01*
X95236269Y-35019896D01*
X95178164Y-35118970D01*
X95120895Y-35212898D01*
X95072182Y-35288514D01*
X95039744Y-35332650D01*
X94999646Y-35367677D01*
X94955246Y-35386938D01*
X94946474Y-35386236D01*
X94887835Y-35369572D01*
X94805776Y-35336324D01*
X94715497Y-35293952D01*
X94632194Y-35249916D01*
X94571067Y-35211677D01*
X94548444Y-35187883D01*
X94716836Y-35187883D01*
X94721231Y-35197990D01*
X94761002Y-35232971D01*
X94828725Y-35273350D01*
X94859603Y-35288676D01*
X94926079Y-35318485D01*
X94962929Y-35330238D01*
X94963714Y-35330194D01*
X94995372Y-35304450D01*
X95043936Y-35238430D01*
X95102480Y-35142566D01*
X95164075Y-35027292D01*
X95167708Y-35020051D01*
X95197279Y-34958305D01*
X95204684Y-34917658D01*
X95182559Y-34887091D01*
X95123537Y-34855586D01*
X95020256Y-34812123D01*
X94913998Y-34767986D01*
X94815417Y-34963742D01*
X94805634Y-34983308D01*
X94760536Y-35077560D01*
X94728819Y-35150565D01*
X94716836Y-35187883D01*
X94548444Y-35187883D01*
X94547314Y-35186695D01*
X94549143Y-35177050D01*
X94570736Y-35122532D01*
X94611037Y-35037455D01*
X94662958Y-34935233D01*
X94719411Y-34829280D01*
X94773308Y-34733010D01*
X94817562Y-34659836D01*
X94845083Y-34623173D01*
X94848192Y-34621623D01*
X94891369Y-34625966D01*
X94967632Y-34648247D01*
X95062500Y-34682595D01*
X95161493Y-34723137D01*
X95250130Y-34764003D01*
X95313931Y-34799320D01*
X95338415Y-34823217D01*
X95338410Y-34823469D01*
X95324112Y-34858979D01*
X95293355Y-34917658D01*
X95287492Y-34928843D01*
G37*
G36*
X96200151Y-33606408D02*
G01*
X96147136Y-33616372D01*
X95989255Y-33652950D01*
X95833048Y-33697444D01*
X95705712Y-33742374D01*
X95679102Y-33753194D01*
X95577836Y-33792301D01*
X95497712Y-33820120D01*
X95454145Y-33831207D01*
X95443419Y-33830172D01*
X95386681Y-33810260D01*
X95307066Y-33771647D01*
X95219376Y-33722883D01*
X95138413Y-33672518D01*
X95078980Y-33629101D01*
X95063890Y-33610863D01*
X95168894Y-33610863D01*
X95181299Y-33626741D01*
X95232270Y-33662519D01*
X95309223Y-33705372D01*
X95330282Y-33716016D01*
X95412209Y-33755316D01*
X95463227Y-33771781D01*
X95499249Y-33768417D01*
X95536191Y-33748229D01*
X95578205Y-33727851D01*
X95658787Y-33695840D01*
X95757293Y-33660886D01*
X95936014Y-33600932D01*
X95702666Y-33506845D01*
X95600594Y-33466480D01*
X95521195Y-33439418D01*
X95466069Y-33429937D01*
X95420452Y-33435715D01*
X95369584Y-33454429D01*
X95343616Y-33465956D01*
X95255974Y-33515581D01*
X95193020Y-33567557D01*
X95168894Y-33610863D01*
X95063890Y-33610863D01*
X95055879Y-33601181D01*
X95059433Y-33580321D01*
X95097631Y-33512721D01*
X95167263Y-33436104D01*
X95255249Y-33363567D01*
X95348509Y-33308205D01*
X95356474Y-33304516D01*
X95436474Y-33269295D01*
X95487309Y-33256761D01*
X95529441Y-33265784D01*
X95583329Y-33295234D01*
X95635766Y-33323251D01*
X95769479Y-33381416D01*
X95923907Y-33436753D01*
X96075793Y-33481298D01*
X96201882Y-33507085D01*
X96283093Y-33518118D01*
X96378267Y-33534292D01*
X96417600Y-33548937D01*
X96401051Y-33564325D01*
X96328581Y-33582725D01*
X96229847Y-33600932D01*
X96200151Y-33606408D01*
G37*
G36*
X100150512Y-36539234D02*
G01*
X100095019Y-36584650D01*
X99999834Y-36649622D01*
X99861559Y-36736479D01*
X99676796Y-36847548D01*
X99423964Y-36997394D01*
X98694983Y-36997394D01*
X98517197Y-36997037D01*
X98338624Y-36995879D01*
X98186772Y-36994035D01*
X98069086Y-36991626D01*
X97993014Y-36988774D01*
X97966002Y-36985597D01*
X97979188Y-36977632D01*
X98035910Y-36954614D01*
X98078541Y-36939143D01*
X98573454Y-36939143D01*
X98969005Y-36939543D01*
X99364556Y-36939943D01*
X99597295Y-36814980D01*
X99638305Y-36792655D01*
X99756393Y-36725391D01*
X99862039Y-36661315D01*
X99936339Y-36611757D01*
X99969496Y-36587375D01*
X100026369Y-36545718D01*
X100053903Y-36525801D01*
X100054555Y-36521504D01*
X100037382Y-36485117D01*
X100000446Y-36425892D01*
X99954827Y-36360069D01*
X99911603Y-36303889D01*
X99881855Y-36273594D01*
X99877157Y-36272664D01*
X99833555Y-36286804D01*
X99759363Y-36324334D01*
X99667589Y-36378864D01*
X99613308Y-36411523D01*
X99496450Y-36476949D01*
X99350609Y-36554754D01*
X99189168Y-36637845D01*
X99025512Y-36719130D01*
X98573454Y-36939143D01*
X98078541Y-36939143D01*
X98127089Y-36921525D01*
X98241474Y-36882572D01*
X98270997Y-36872719D01*
X98662459Y-36727751D01*
X99038403Y-36562639D01*
X99385169Y-36383845D01*
X99689095Y-36197832D01*
X99767826Y-36146391D01*
X99831603Y-36107966D01*
X99863006Y-36093279D01*
X99887488Y-36113818D01*
X99934336Y-36168733D01*
X99993876Y-36245194D01*
X100056648Y-36330363D01*
X100113196Y-36411400D01*
X100154060Y-36475465D01*
X100169784Y-36509721D01*
X100169711Y-36511044D01*
X100162587Y-36521504D01*
X100150512Y-36539234D01*
G37*
G36*
X95179341Y-37473179D02*
G01*
X95394510Y-37502645D01*
X95594968Y-37550829D01*
X95772518Y-37615900D01*
X95918964Y-37696024D01*
X96026110Y-37789372D01*
X96085759Y-37894109D01*
X96088248Y-37961961D01*
X96046136Y-38048706D01*
X95960226Y-38133158D01*
X95837342Y-38210261D01*
X95684304Y-38274961D01*
X95507937Y-38322203D01*
X95445255Y-38334625D01*
X95355054Y-38352481D01*
X95296035Y-38364139D01*
X95281255Y-38366693D01*
X95179928Y-38375418D01*
X95045441Y-38377948D01*
X94896884Y-38374636D01*
X94753350Y-38365835D01*
X94633928Y-38351898D01*
X94513564Y-38327688D01*
X94353153Y-38277198D01*
X94228870Y-38214139D01*
X94145801Y-38142158D01*
X94109031Y-38064901D01*
X94123647Y-37986016D01*
X94154863Y-37943181D01*
X94192179Y-37935861D01*
X94221532Y-37983544D01*
X94261389Y-38037625D01*
X94348823Y-38088200D01*
X94471199Y-38128161D01*
X94617550Y-38156477D01*
X94776906Y-38172115D01*
X94938300Y-38174045D01*
X95090762Y-38161236D01*
X95223325Y-38132657D01*
X95325020Y-38087277D01*
X95393044Y-38013553D01*
X95417407Y-37917617D01*
X95391807Y-37818707D01*
X95344000Y-37756549D01*
X95243890Y-37693738D01*
X95100801Y-37657088D01*
X94910428Y-37645049D01*
X94689344Y-37658692D01*
X94465940Y-37710693D01*
X94283047Y-37801635D01*
X94180017Y-37871553D01*
X94180017Y-37674630D01*
X94180027Y-37667489D01*
X94182328Y-37571603D01*
X94187877Y-37503568D01*
X94195547Y-37477706D01*
X94196075Y-37477726D01*
X94231015Y-37490292D01*
X94291079Y-37519076D01*
X94295248Y-37521203D01*
X94376204Y-37545639D01*
X94466261Y-37532122D01*
X94527529Y-37515412D01*
X94737654Y-37477730D01*
X94957657Y-37464263D01*
X95179341Y-37473179D01*
G37*
G36*
X93461563Y-37483524D02*
G01*
X93652824Y-37484862D01*
X93812371Y-37487223D01*
X93934005Y-37490517D01*
X94011530Y-37494657D01*
X94038749Y-37499551D01*
X94038435Y-37501028D01*
X94010047Y-37525764D01*
X93944667Y-37565598D01*
X93855101Y-37612646D01*
X93671452Y-37703207D01*
X93671452Y-37915637D01*
X93671452Y-38128066D01*
X93855101Y-38218628D01*
X93866366Y-38224211D01*
X93953644Y-38269599D01*
X94015355Y-38305410D01*
X94038760Y-38324315D01*
X94038386Y-38324716D01*
X94005045Y-38327849D01*
X93922088Y-38330343D01*
X93795693Y-38332155D01*
X93632035Y-38333240D01*
X93437291Y-38333557D01*
X93217637Y-38333061D01*
X92979250Y-38331710D01*
X91919728Y-38323979D01*
X91919728Y-38126871D01*
X91919736Y-38119586D01*
X91921571Y-38023675D01*
X91925990Y-37955628D01*
X91932096Y-37929764D01*
X91936861Y-37931264D01*
X91979477Y-37951612D01*
X92055006Y-37990775D01*
X92151061Y-38042381D01*
X92357659Y-38154998D01*
X92732019Y-38155395D01*
X93106380Y-38155793D01*
X93106380Y-38071032D01*
X93106380Y-37986271D01*
X92909650Y-37986271D01*
X92756473Y-37995999D01*
X92569561Y-38042778D01*
X92511941Y-38064649D01*
X92438816Y-38089580D01*
X92398993Y-38099285D01*
X92398022Y-38099153D01*
X92385616Y-38070699D01*
X92376842Y-38004888D01*
X92372212Y-37919561D01*
X92372235Y-37832561D01*
X92377422Y-37761729D01*
X92388284Y-37724908D01*
X92411651Y-37723203D01*
X92475456Y-37736186D01*
X92562229Y-37762580D01*
X92586668Y-37770458D01*
X92744680Y-37804210D01*
X92913028Y-37816749D01*
X93106380Y-37816749D01*
X93106380Y-37731988D01*
X93106380Y-37647227D01*
X92727037Y-37647227D01*
X92347694Y-37647227D01*
X92155056Y-37758984D01*
X92130856Y-37772742D01*
X92041109Y-37818593D01*
X91972940Y-37845447D01*
X91939540Y-37847863D01*
X91930494Y-37821469D01*
X91924251Y-37751635D01*
X91925259Y-37658409D01*
X91933855Y-37491833D01*
X92986302Y-37484425D01*
X93008682Y-37484273D01*
X93244783Y-37483298D01*
X93461563Y-37483524D01*
G37*
G36*
X98138447Y-36724536D02*
G01*
X98004035Y-36765613D01*
X97887828Y-36797678D01*
X97747168Y-36829682D01*
X97563716Y-36865387D01*
X97363209Y-36899899D01*
X97165702Y-36929775D01*
X96991252Y-36951573D01*
X96962618Y-36953623D01*
X96871064Y-36956308D01*
X96742559Y-36957271D01*
X96589974Y-36956459D01*
X96426180Y-36953821D01*
X96005193Y-36930458D01*
X95557566Y-36873829D01*
X95165148Y-36792152D01*
X95411691Y-36792152D01*
X95650526Y-36824538D01*
X95664618Y-36826438D01*
X95817782Y-36846150D01*
X95988948Y-36866918D01*
X96143643Y-36884547D01*
X96262707Y-36895434D01*
X96682364Y-36904854D01*
X97127358Y-36873123D01*
X97587991Y-36800802D01*
X97659216Y-36786510D01*
X97793837Y-36757898D01*
X97877284Y-36736396D01*
X97908670Y-36721057D01*
X97887111Y-36710935D01*
X97811719Y-36705083D01*
X97681609Y-36702555D01*
X97495896Y-36702405D01*
X97447962Y-36702570D01*
X97282153Y-36703516D01*
X97161286Y-36705809D01*
X97076052Y-36710683D01*
X97017139Y-36719369D01*
X96975237Y-36733103D01*
X96941036Y-36753116D01*
X96905224Y-36780642D01*
X96886087Y-36795079D01*
X96802783Y-36845071D01*
X96728585Y-36873343D01*
X96655933Y-36876201D01*
X96544921Y-36861228D01*
X96415004Y-36831017D01*
X96278602Y-36789771D01*
X96148136Y-36741695D01*
X96036026Y-36690992D01*
X95954694Y-36641865D01*
X95916559Y-36598519D01*
X95915268Y-36594756D01*
X95876064Y-36553067D01*
X95817510Y-36551086D01*
X95760366Y-36589951D01*
X95728635Y-36617261D01*
X95656986Y-36664043D01*
X95567515Y-36713359D01*
X95452800Y-36771365D01*
X95411691Y-36792152D01*
X95165148Y-36792152D01*
X95140640Y-36787051D01*
X95082957Y-36771525D01*
X94966502Y-36737399D01*
X94834214Y-36696201D01*
X94697749Y-36651827D01*
X94568762Y-36608174D01*
X94458911Y-36569137D01*
X94399370Y-36546149D01*
X94618915Y-36546149D01*
X94646202Y-36565535D01*
X94687112Y-36582011D01*
X94773232Y-36610693D01*
X94888700Y-36645940D01*
X95020098Y-36683520D01*
X95139691Y-36716244D01*
X95247102Y-36744860D01*
X95323149Y-36764237D01*
X95356310Y-36771365D01*
X95354908Y-36766681D01*
X95322682Y-36735369D01*
X95259174Y-36681111D01*
X95173126Y-36611533D01*
X95128020Y-36575242D01*
X95047528Y-36506960D01*
X94991890Y-36454807D01*
X94971118Y-36427885D01*
X94967538Y-36416297D01*
X94927226Y-36406711D01*
X94846524Y-36425435D01*
X94730963Y-36471466D01*
X94670389Y-36499733D01*
X94624597Y-36526857D01*
X94618915Y-36546149D01*
X94399370Y-36546149D01*
X94379851Y-36538613D01*
X94343238Y-36520498D01*
X94350900Y-36508162D01*
X94399594Y-36476717D01*
X94483105Y-36432925D01*
X94591661Y-36382228D01*
X94660845Y-36352430D01*
X94826708Y-36291604D01*
X94949337Y-36265307D01*
X95029727Y-36273402D01*
X95068876Y-36315748D01*
X95070625Y-36320115D01*
X95105673Y-36366279D01*
X95171809Y-36431383D01*
X95256373Y-36502798D01*
X95427065Y-36636901D01*
X95525563Y-36584056D01*
X95534508Y-36579133D01*
X95617356Y-36524625D01*
X95683938Y-36467639D01*
X95735936Y-36426426D01*
X95831956Y-36401031D01*
X95933370Y-36425813D01*
X96029525Y-36499780D01*
X96042333Y-36513201D01*
X96114078Y-36570551D01*
X96211940Y-36619960D01*
X96350842Y-36669302D01*
X96396967Y-36683692D01*
X96530331Y-36721029D01*
X96628145Y-36737162D01*
X96703682Y-36731683D01*
X96770215Y-36704187D01*
X96841017Y-36654264D01*
X96953197Y-36565416D01*
X97622057Y-36558232D01*
X97701483Y-36557218D01*
X97975036Y-36550855D01*
X98206492Y-36540647D01*
X98391075Y-36526852D01*
X98524011Y-36509726D01*
X98565230Y-36502756D01*
X98663295Y-36489303D01*
X98731518Y-36484621D01*
X98757103Y-36489803D01*
X98756877Y-36490825D01*
X98727115Y-36510223D01*
X98654450Y-36542252D01*
X98549066Y-36583305D01*
X98421147Y-36629775D01*
X98280879Y-36678054D01*
X98149107Y-36721057D01*
X98138447Y-36724536D01*
G37*
G36*
X101085416Y-37250321D02*
G01*
X101101753Y-37286994D01*
X101099982Y-37293086D01*
X101092550Y-37298953D01*
X101076906Y-37304268D01*
X101050511Y-37309057D01*
X101010821Y-37313347D01*
X100955294Y-37317166D01*
X100881390Y-37320541D01*
X100786564Y-37323499D01*
X100668277Y-37326067D01*
X100523986Y-37328274D01*
X100351148Y-37330145D01*
X100147223Y-37331709D01*
X99909668Y-37332992D01*
X99635941Y-37334023D01*
X99323500Y-37334827D01*
X98969803Y-37335433D01*
X98572309Y-37335867D01*
X98128476Y-37336158D01*
X97635761Y-37336331D01*
X97091622Y-37336416D01*
X96493518Y-37336438D01*
X96472364Y-37336438D01*
X95877057Y-37336430D01*
X95335626Y-37336388D01*
X94845523Y-37336280D01*
X94404203Y-37336074D01*
X94009119Y-37335739D01*
X93657725Y-37335244D01*
X93347475Y-37334558D01*
X93075823Y-37333650D01*
X92840223Y-37332488D01*
X92638128Y-37331041D01*
X92466992Y-37329278D01*
X92324270Y-37327167D01*
X92207415Y-37324678D01*
X92113880Y-37321780D01*
X92041121Y-37318440D01*
X91986590Y-37314628D01*
X91947741Y-37310312D01*
X91922029Y-37305461D01*
X91906907Y-37300045D01*
X91899829Y-37294031D01*
X91898248Y-37287389D01*
X91899620Y-37280088D01*
X91900779Y-37276530D01*
X91914592Y-37249641D01*
X91943475Y-37203416D01*
X91953765Y-37188106D01*
X92053426Y-37188106D01*
X92057803Y-37192383D01*
X92082864Y-37196797D01*
X92131373Y-37200800D01*
X92205535Y-37204409D01*
X92307553Y-37207641D01*
X92439631Y-37210514D01*
X92603973Y-37213046D01*
X92802784Y-37215254D01*
X93038266Y-37217155D01*
X93312624Y-37218767D01*
X93628062Y-37220107D01*
X93986784Y-37221193D01*
X94390993Y-37222042D01*
X94842893Y-37222673D01*
X95344689Y-37223101D01*
X95898584Y-37223346D01*
X96506783Y-37223423D01*
X100987742Y-37223423D01*
X100192355Y-36142722D01*
X100130978Y-36059326D01*
X99857827Y-35688125D01*
X99575656Y-35304577D01*
X99288329Y-34913941D01*
X98999712Y-34521478D01*
X98713672Y-34132446D01*
X98434074Y-33752105D01*
X98164783Y-33385712D01*
X97909667Y-33038528D01*
X97672590Y-32715812D01*
X97457418Y-32422823D01*
X97268018Y-32164819D01*
X97108255Y-31947061D01*
X97000850Y-31800823D01*
X96882670Y-31641106D01*
X96790194Y-31518589D01*
X96719151Y-31428369D01*
X96665272Y-31365544D01*
X96624285Y-31325213D01*
X96591921Y-31302473D01*
X96563910Y-31292424D01*
X96535981Y-31290164D01*
X96524932Y-31289442D01*
X96512618Y-31287651D01*
X96500882Y-31287276D01*
X96487702Y-31290897D01*
X96471052Y-31301093D01*
X96448911Y-31320444D01*
X96419253Y-31351529D01*
X96380055Y-31396928D01*
X96329294Y-31459219D01*
X96264946Y-31540983D01*
X96184987Y-31644799D01*
X96087394Y-31773245D01*
X95970142Y-31928902D01*
X95831209Y-32114349D01*
X95668570Y-32332164D01*
X95480203Y-32584929D01*
X95264082Y-32875221D01*
X95018185Y-33205621D01*
X94740488Y-33578707D01*
X94610155Y-33753744D01*
X94433251Y-33991251D01*
X94238212Y-34253037D01*
X94033485Y-34527769D01*
X93827516Y-34804113D01*
X93628749Y-35070736D01*
X93445632Y-35316304D01*
X93416736Y-35355051D01*
X93247730Y-35581775D01*
X93077025Y-35810931D01*
X92910539Y-36034566D01*
X92754187Y-36244729D01*
X92613888Y-36433467D01*
X92495557Y-36592828D01*
X92405110Y-36714858D01*
X92399270Y-36722749D01*
X92297218Y-36860542D01*
X92205891Y-36983667D01*
X92131005Y-37084431D01*
X92078278Y-37155142D01*
X92053426Y-37188106D01*
X91953765Y-37188106D01*
X91988693Y-37136140D01*
X92051514Y-37046094D01*
X92133202Y-36931562D01*
X92235024Y-36790827D01*
X92358245Y-36622172D01*
X92504132Y-36423880D01*
X92673950Y-36194235D01*
X92868965Y-35931518D01*
X93090444Y-35634013D01*
X93339652Y-35300004D01*
X93617855Y-34927773D01*
X93926319Y-34515603D01*
X94266310Y-34061778D01*
X94639094Y-33564580D01*
X96397926Y-31219530D01*
X96539194Y-31212452D01*
X96571317Y-31211117D01*
X96647188Y-31214452D01*
X96694680Y-31235255D01*
X96734915Y-31280915D01*
X96737921Y-31285084D01*
X96839349Y-31425363D01*
X96963848Y-31596909D01*
X97107088Y-31793802D01*
X97264735Y-32010122D01*
X97432457Y-32239950D01*
X97605922Y-32477366D01*
X97780798Y-32716449D01*
X97952753Y-32951281D01*
X98117453Y-33175940D01*
X98270567Y-33384508D01*
X98407763Y-33571065D01*
X98524707Y-33729690D01*
X98617069Y-33854464D01*
X98680515Y-33939467D01*
X98697555Y-33962147D01*
X98786961Y-34082086D01*
X98902662Y-34238415D01*
X99039122Y-34423599D01*
X99190804Y-34630103D01*
X99352170Y-34850390D01*
X99517684Y-35076927D01*
X99681810Y-35302177D01*
X99707965Y-35338122D01*
X99876695Y-35569775D01*
X100048772Y-35805666D01*
X100218105Y-36037468D01*
X100378603Y-36256853D01*
X100524174Y-36455495D01*
X100648727Y-36625066D01*
X100746171Y-36757239D01*
X100779274Y-36802215D01*
X100881913Y-36944533D01*
X100970488Y-37071631D01*
X101039992Y-37176047D01*
X101068966Y-37223423D01*
X101085416Y-37250321D01*
G37*
G36*
X97994784Y-37998094D02*
G01*
X98087667Y-38085555D01*
X98169305Y-38156908D01*
X98230475Y-38202815D01*
X98372755Y-38292219D01*
X98536675Y-38209472D01*
X98700596Y-38126725D01*
X98700596Y-37904282D01*
X98700596Y-37681839D01*
X98516947Y-37603787D01*
X98509901Y-37600775D01*
X98420659Y-37559191D01*
X98357356Y-37523507D01*
X98333299Y-37501159D01*
X98336700Y-37498583D01*
X98381411Y-37492146D01*
X98471528Y-37487258D01*
X98598838Y-37484150D01*
X98755128Y-37483056D01*
X98932185Y-37484207D01*
X99531072Y-37491833D01*
X99631547Y-37665645D01*
X99732023Y-37839457D01*
X99839013Y-37658581D01*
X99946003Y-37477706D01*
X100497492Y-37477706D01*
X100523406Y-37477730D01*
X100689119Y-37479097D01*
X100831454Y-37482318D01*
X100942130Y-37487055D01*
X101012865Y-37492967D01*
X101035376Y-37499718D01*
X101005768Y-37521576D01*
X100939028Y-37559121D01*
X100850061Y-37603800D01*
X100678349Y-37685871D01*
X100678349Y-37906969D01*
X100678349Y-38128066D01*
X100860403Y-38217841D01*
X100871641Y-38223423D01*
X100956588Y-38268540D01*
X101014227Y-38304350D01*
X101032622Y-38323529D01*
X101026692Y-38326137D01*
X100977343Y-38331641D01*
X100887376Y-38335620D01*
X100767581Y-38338125D01*
X100628750Y-38339206D01*
X100481673Y-38338915D01*
X100337140Y-38337303D01*
X100205942Y-38334420D01*
X100098869Y-38330318D01*
X100026712Y-38325046D01*
X100000262Y-38318658D01*
X100023376Y-38296545D01*
X100084295Y-38258309D01*
X100169784Y-38212300D01*
X100339305Y-38126725D01*
X100339305Y-37915230D01*
X100339261Y-37895793D01*
X100337530Y-37798310D01*
X100333789Y-37729683D01*
X100328728Y-37703735D01*
X100327947Y-37704146D01*
X100307568Y-37732908D01*
X100265748Y-37800402D01*
X100208106Y-37897363D01*
X100140261Y-38014524D01*
X99962371Y-38325314D01*
X99799864Y-38325314D01*
X99637356Y-38325314D01*
X99480434Y-38035715D01*
X99465602Y-38008327D01*
X99388664Y-37866591D01*
X99334591Y-37771099D01*
X99299350Y-37719187D01*
X99278912Y-37708189D01*
X99269245Y-37735442D01*
X99266318Y-37798280D01*
X99266101Y-37894040D01*
X99265668Y-38126725D01*
X99435190Y-38212300D01*
X99520379Y-38258137D01*
X99581422Y-38296420D01*
X99604712Y-38318658D01*
X99584115Y-38321168D01*
X99513911Y-38323793D01*
X99401002Y-38326124D01*
X99252766Y-38328142D01*
X99076583Y-38329829D01*
X98879831Y-38331165D01*
X98669888Y-38332131D01*
X98454133Y-38332708D01*
X98239946Y-38332879D01*
X98034704Y-38332623D01*
X97845786Y-38331923D01*
X97680571Y-38330758D01*
X97546437Y-38329111D01*
X97450764Y-38326962D01*
X97400929Y-38324292D01*
X97400812Y-38324274D01*
X97417078Y-38311394D01*
X97471924Y-38279902D01*
X97553660Y-38236517D01*
X97580889Y-38222257D01*
X97658269Y-38176757D01*
X97689772Y-38145885D01*
X97680801Y-38124900D01*
X97675690Y-38122518D01*
X97622203Y-38113568D01*
X97531268Y-38108020D01*
X97418479Y-38105790D01*
X97299427Y-38106790D01*
X97189706Y-38110936D01*
X97104908Y-38118140D01*
X97060626Y-38128318D01*
X97060211Y-38128597D01*
X97070729Y-38148508D01*
X97121900Y-38183557D01*
X97202971Y-38226339D01*
X97287737Y-38269006D01*
X97349210Y-38304140D01*
X97372676Y-38323446D01*
X97361701Y-38326341D01*
X97303034Y-38330556D01*
X97200600Y-38334161D01*
X97062200Y-38336969D01*
X96895638Y-38338792D01*
X96708716Y-38339441D01*
X96588528Y-38339181D01*
X96413578Y-38337791D01*
X96263922Y-38335364D01*
X96147365Y-38332085D01*
X96071709Y-38328138D01*
X96044756Y-38323709D01*
X96046139Y-38321185D01*
X96079926Y-38297781D01*
X96149724Y-38259064D01*
X96243219Y-38211967D01*
X96344444Y-38157902D01*
X96440812Y-38091193D01*
X96538691Y-38003738D01*
X96604144Y-37935050D01*
X97231408Y-37935050D01*
X97246390Y-37944759D01*
X97304081Y-37954318D01*
X97390262Y-37958017D01*
X97452716Y-37957888D01*
X97510049Y-37952693D01*
X97523940Y-37932735D01*
X97497189Y-37888157D01*
X97432599Y-37809102D01*
X97424447Y-37799482D01*
X97396238Y-37777485D01*
X97364478Y-37788214D01*
X97311261Y-37835578D01*
X97296346Y-37850271D01*
X97250056Y-37902473D01*
X97231408Y-37935050D01*
X96604144Y-37935050D01*
X96653791Y-37882950D01*
X96865899Y-37649944D01*
X96752208Y-37585015D01*
X96717513Y-37564192D01*
X96660792Y-37524251D01*
X96638299Y-37498896D01*
X96643870Y-37496056D01*
X96693514Y-37490183D01*
X96787976Y-37485137D01*
X96919195Y-37481192D01*
X97079110Y-37478623D01*
X97259661Y-37477706D01*
X97342929Y-37477920D01*
X97515217Y-37479823D01*
X97663256Y-37483443D01*
X97778983Y-37488470D01*
X97854332Y-37494595D01*
X97881241Y-37501510D01*
X97879150Y-37507501D01*
X97845029Y-37539389D01*
X97782353Y-37578569D01*
X97761755Y-37590043D01*
X97705889Y-37626118D01*
X97683465Y-37649148D01*
X97695302Y-37673913D01*
X97740915Y-37732435D01*
X97812183Y-37812197D01*
X97899881Y-37903863D01*
X97928959Y-37932735D01*
X97994784Y-37998094D01*
G37*
G36*
X99260743Y-35801858D02*
G01*
X99199311Y-35867250D01*
X99274870Y-35867250D01*
X99295204Y-35867988D01*
X99342953Y-35883827D01*
X99341863Y-35916859D01*
X99294166Y-35962514D01*
X99202097Y-36016219D01*
X99045094Y-36084824D01*
X98829413Y-36153452D01*
X98585292Y-36204344D01*
X98306135Y-36238516D01*
X97985344Y-36256986D01*
X97616320Y-36260772D01*
X97054737Y-36256202D01*
X96938234Y-36346603D01*
X96896423Y-36377942D01*
X96830716Y-36415462D01*
X96762985Y-36428625D01*
X96666335Y-36425207D01*
X96657432Y-36424436D01*
X96549202Y-36406559D01*
X96417921Y-36374188D01*
X96290007Y-36333742D01*
X96234378Y-36313415D01*
X96147230Y-36278392D01*
X96099723Y-36250883D01*
X96082145Y-36224153D01*
X96084786Y-36191473D01*
X96085968Y-36186603D01*
X96087164Y-36147897D01*
X96058134Y-36126964D01*
X95985775Y-36113482D01*
X95973831Y-36111966D01*
X95912002Y-36109701D01*
X95855053Y-36123612D01*
X95786507Y-36159892D01*
X95689887Y-36224738D01*
X95688678Y-36225583D01*
X95589484Y-36289078D01*
X95514395Y-36325651D01*
X95473013Y-36330616D01*
X95403190Y-36284821D01*
X95316838Y-36218795D01*
X95231881Y-36146422D01*
X95159359Y-36077648D01*
X95110310Y-36022420D01*
X95095772Y-35990685D01*
X95095698Y-35969220D01*
X95060429Y-35952689D01*
X94992691Y-35956228D01*
X94904463Y-35978666D01*
X94807721Y-36018834D01*
X94800058Y-36022653D01*
X94674785Y-36079913D01*
X94535708Y-36135820D01*
X94395871Y-36185958D01*
X94268320Y-36225912D01*
X94166101Y-36251267D01*
X94102257Y-36257607D01*
X94024622Y-36248673D01*
X94021609Y-35923757D01*
X94020320Y-35807392D01*
X94018451Y-35682902D01*
X94016450Y-35585967D01*
X94015147Y-35547774D01*
X94073364Y-35547774D01*
X94081418Y-35591777D01*
X94092826Y-35645135D01*
X94102642Y-35750910D01*
X94105483Y-35874455D01*
X94101014Y-35993610D01*
X94088899Y-36086215D01*
X94079127Y-36144493D01*
X94091498Y-36172436D01*
X94136659Y-36178039D01*
X94168887Y-36174537D01*
X94258830Y-36152617D01*
X94377271Y-36115014D01*
X94509551Y-36066889D01*
X94641007Y-36013402D01*
X94756978Y-35959713D01*
X94881556Y-35911379D01*
X95025388Y-35889525D01*
X95101199Y-35889618D01*
X95174627Y-35892044D01*
X95208627Y-35900271D01*
X95213452Y-35917739D01*
X95199354Y-35947887D01*
X95195222Y-35956904D01*
X95194424Y-35998018D01*
X95225398Y-36047813D01*
X95293689Y-36113112D01*
X95404841Y-36200739D01*
X95462232Y-36238630D01*
X95507436Y-36244271D01*
X95566918Y-36219140D01*
X95587337Y-36207698D01*
X95667268Y-36153894D01*
X95747817Y-36089731D01*
X95847192Y-36002479D01*
X96009544Y-36042242D01*
X96067993Y-36057403D01*
X96134186Y-36081338D01*
X96164587Y-36108906D01*
X96171897Y-36148414D01*
X96175611Y-36176937D01*
X96199212Y-36210017D01*
X96254557Y-36241665D01*
X96353002Y-36280139D01*
X96446408Y-36311222D01*
X96560748Y-36343587D01*
X96650232Y-36362868D01*
X96714228Y-36368995D01*
X96769352Y-36359688D01*
X96829137Y-36327058D01*
X96912385Y-36264013D01*
X97058414Y-36147744D01*
X97236735Y-36180543D01*
X97298105Y-36188362D01*
X97431990Y-36195104D01*
X97602151Y-36195797D01*
X97796547Y-36191044D01*
X98003138Y-36181449D01*
X98209881Y-36167616D01*
X98404737Y-36150146D01*
X98575664Y-36129644D01*
X98710622Y-36106712D01*
X98768449Y-36093876D01*
X98896943Y-36060820D01*
X99000930Y-36027803D01*
X99072733Y-35997823D01*
X99104676Y-35973875D01*
X99089083Y-35958958D01*
X99075435Y-35954523D01*
X99043443Y-35916350D01*
X99050744Y-35858261D01*
X99096601Y-35796204D01*
X99104450Y-35789060D01*
X99128839Y-35761515D01*
X99125137Y-35738206D01*
X99086172Y-35708695D01*
X99004777Y-35662549D01*
X98992562Y-35655865D01*
X98808838Y-35565971D01*
X98604876Y-35482638D01*
X98394496Y-35410230D01*
X98191520Y-35353109D01*
X98009769Y-35315637D01*
X97863064Y-35302177D01*
X97803329Y-35294054D01*
X97739276Y-35258554D01*
X97663414Y-35185178D01*
X97612881Y-35133024D01*
X97513705Y-35039751D01*
X97415559Y-34955969D01*
X97274795Y-34843759D01*
X97240249Y-34924637D01*
X97225187Y-34964313D01*
X97206221Y-35086125D01*
X97235867Y-35185804D01*
X97238204Y-35189619D01*
X97258164Y-35248318D01*
X97235312Y-35294625D01*
X97165083Y-35332828D01*
X97042913Y-35367221D01*
X96849984Y-35410944D01*
X96765223Y-35333707D01*
X96751974Y-35321826D01*
X96666412Y-35250012D01*
X96578602Y-35182119D01*
X96476742Y-35107767D01*
X96375844Y-35212036D01*
X96320546Y-35275084D01*
X96289950Y-35334136D01*
X96289927Y-35392122D01*
X96291159Y-35398548D01*
X96292774Y-35446297D01*
X96265516Y-35474220D01*
X96196022Y-35497280D01*
X96160958Y-35506897D01*
X96054286Y-35537222D01*
X95946295Y-35569025D01*
X95805455Y-35611431D01*
X95613007Y-35495152D01*
X95420559Y-35378874D01*
X95336862Y-35459060D01*
X95292977Y-35505910D01*
X95266429Y-35561527D01*
X95270152Y-35629795D01*
X95277083Y-35685403D01*
X95261026Y-35719552D01*
X95206826Y-35737142D01*
X95193002Y-35739959D01*
X95037878Y-35759163D01*
X94885825Y-35751068D01*
X94720748Y-35713473D01*
X94526555Y-35644181D01*
X94431467Y-35607840D01*
X94310554Y-35566692D01*
X94211329Y-35538601D01*
X94148900Y-35528206D01*
X94098546Y-35530703D01*
X94073364Y-35547774D01*
X94015147Y-35547774D01*
X94014577Y-35531063D01*
X94019451Y-35476036D01*
X94058059Y-35411338D01*
X94125982Y-35386938D01*
X94129759Y-35387005D01*
X94206737Y-35400828D01*
X94323542Y-35436387D01*
X94470219Y-35490325D01*
X94636811Y-35559283D01*
X94735669Y-35596402D01*
X94851095Y-35627049D01*
X94956148Y-35643174D01*
X95040026Y-35643925D01*
X95091924Y-35628449D01*
X95101039Y-35595895D01*
X95103356Y-35563556D01*
X95144061Y-35489859D01*
X95227441Y-35384583D01*
X95371236Y-35218598D01*
X95488399Y-35278370D01*
X95508662Y-35288919D01*
X95614667Y-35348460D01*
X95712502Y-35408912D01*
X95769819Y-35444809D01*
X95821416Y-35464004D01*
X95879286Y-35461493D01*
X95967417Y-35440222D01*
X96038595Y-35418248D01*
X96100903Y-35384997D01*
X96124229Y-35344406D01*
X96125713Y-35338385D01*
X96154146Y-35285239D01*
X96209496Y-35208353D01*
X96281523Y-35122196D01*
X96429977Y-34956341D01*
X96526966Y-35005286D01*
X96573688Y-35032080D01*
X96664396Y-35093324D01*
X96754720Y-35162859D01*
X96801891Y-35200897D01*
X96867735Y-35244162D01*
X96923250Y-35259607D01*
X96987813Y-35254882D01*
X97034353Y-35246297D01*
X97073127Y-35227642D01*
X97087832Y-35186488D01*
X97090140Y-35105833D01*
X97091944Y-35062941D01*
X97104292Y-34966033D01*
X97125043Y-34864069D01*
X97150298Y-34772324D01*
X97176156Y-34706075D01*
X97198717Y-34680598D01*
X97210375Y-34682570D01*
X97269489Y-34710964D01*
X97354530Y-34766411D01*
X97453779Y-34840337D01*
X97555517Y-34924169D01*
X97648026Y-35009331D01*
X97701604Y-35061571D01*
X97771510Y-35122782D01*
X97831422Y-35158445D01*
X97899588Y-35178164D01*
X97994255Y-35191542D01*
X98012049Y-35193830D01*
X98136001Y-35216068D01*
X98280581Y-35249646D01*
X98418059Y-35288238D01*
X98472447Y-35306360D01*
X98592351Y-35351337D01*
X98727752Y-35406935D01*
X98868947Y-35468625D01*
X99006231Y-35531881D01*
X99129900Y-35592176D01*
X99230250Y-35644982D01*
X99297576Y-35685773D01*
X99322175Y-35710020D01*
X99322166Y-35710496D01*
X99303771Y-35748441D01*
X99293240Y-35761515D01*
X99260743Y-35801858D01*
G37*
D14*
%TO.C,J4*%
X60720000Y-21487500D02*
X60720000Y-27339500D01*
X60720000Y-27339500D02*
X90328000Y-27339500D01*
X90328000Y-21487500D02*
X60720000Y-21487500D01*
X90328000Y-27339500D02*
X90328000Y-21487500D01*
%TD*%
M02*
