%TF.GenerationSoftware,KiCad,Pcbnew,9.0.4*%
%TF.CreationDate,2025-11-20T16:12:11-08:00*%
%TF.ProjectId,hadron_io_breakouts,68616472-6f6e-45f6-996f-5f627265616b,rev?*%
%TF.SameCoordinates,Original*%
%TF.FileFunction,Copper,L1,Top*%
%TF.FilePolarity,Positive*%
%FSLAX46Y46*%
G04 Gerber Fmt 4.6, Leading zero omitted, Abs format (unit mm)*
G04 Created by KiCad (PCBNEW 9.0.4) date 2025-11-20 16:12:11*
%MOMM*%
%LPD*%
G01*
G04 APERTURE LIST*
G04 Aperture macros list*
%AMRoundRect*
0 Rectangle with rounded corners*
0 $1 Rounding radius*
0 $2 $3 $4 $5 $6 $7 $8 $9 X,Y pos of 4 corners*
0 Add a 4 corners polygon primitive as box body*
4,1,4,$2,$3,$4,$5,$6,$7,$8,$9,$2,$3,0*
0 Add four circle primitives for the rounded corners*
1,1,$1+$1,$2,$3*
1,1,$1+$1,$4,$5*
1,1,$1+$1,$6,$7*
1,1,$1+$1,$8,$9*
0 Add four rect primitives between the rounded corners*
20,1,$1+$1,$2,$3,$4,$5,0*
20,1,$1+$1,$4,$5,$6,$7,0*
20,1,$1+$1,$6,$7,$8,$9,0*
20,1,$1+$1,$8,$9,$2,$3,0*%
G04 Aperture macros list end*
%TA.AperFunction,SMDPad,CuDef*%
%ADD10R,1.092200X2.895600*%
%TD*%
%TA.AperFunction,SMDPad,CuDef*%
%ADD11R,0.660400X1.701800*%
%TD*%
%TA.AperFunction,SMDPad,CuDef*%
%ADD12RoundRect,0.250000X0.450000X-0.262500X0.450000X0.262500X-0.450000X0.262500X-0.450000X-0.262500X0*%
%TD*%
%TA.AperFunction,SMDPad,CuDef*%
%ADD13RoundRect,0.250000X-0.262500X-0.450000X0.262500X-0.450000X0.262500X0.450000X-0.262500X0.450000X0*%
%TD*%
%TA.AperFunction,ComponentPad*%
%ADD14C,0.800000*%
%TD*%
%TA.AperFunction,ComponentPad*%
%ADD15C,5.400000*%
%TD*%
%TA.AperFunction,SMDPad,CuDef*%
%ADD16R,0.300000X1.800000*%
%TD*%
%TA.AperFunction,SMDPad,CuDef*%
%ADD17RoundRect,0.250000X0.262500X0.450000X-0.262500X0.450000X-0.262500X-0.450000X0.262500X-0.450000X0*%
%TD*%
%TA.AperFunction,SMDPad,CuDef*%
%ADD18R,0.600000X1.700000*%
%TD*%
%TA.AperFunction,SMDPad,CuDef*%
%ADD19R,1.000000X2.800000*%
%TD*%
%TA.AperFunction,ComponentPad*%
%ADD20R,1.700000X1.700000*%
%TD*%
%TA.AperFunction,ComponentPad*%
%ADD21O,1.700000X1.700000*%
%TD*%
%TA.AperFunction,ViaPad*%
%ADD22C,0.600000*%
%TD*%
%TA.AperFunction,Conductor*%
%ADD23C,0.500000*%
%TD*%
%TA.AperFunction,Conductor*%
%ADD24C,0.200000*%
%TD*%
%TA.AperFunction,Conductor*%
%ADD25C,0.425600*%
%TD*%
%TA.AperFunction,Conductor*%
%ADD26C,0.420000*%
%TD*%
G04 APERTURE END LIST*
D10*
%TO.P,J6,*%
%TO.N,*%
X74800000Y-37708574D03*
X65600000Y-37733340D03*
D11*
%TO.P,J6,1,1*%
%TO.N,SBC_GPIO13*%
X73700000Y-32100000D03*
%TO.P,J6,2,2*%
%TO.N,GND*%
X72700000Y-32100000D03*
%TO.P,J6,3,3*%
%TO.N,SBC_GPIO12*%
X71699999Y-32100000D03*
%TO.P,J6,4,4*%
%TO.N,GND*%
X70700001Y-32100000D03*
%TO.P,J6,5,5*%
%TO.N,SBC_GPIO11*%
X69700000Y-32100000D03*
%TO.P,J6,6,6*%
%TO.N,GND*%
X68700000Y-32100000D03*
%TO.P,J6,7,7*%
%TO.N,SBC_GPIO10*%
X67700000Y-32100000D03*
%TO.P,J6,8,8*%
%TO.N,GND*%
X66700000Y-32100000D03*
%TD*%
D12*
%TO.P,R4,1*%
%TO.N,SBC_GPIO13*%
X74325000Y-29912500D03*
%TO.P,R4,2*%
%TO.N,Net-(J4-Pad5)*%
X74325000Y-28087500D03*
%TD*%
%TO.P,R3,1*%
%TO.N,SBC_GPIO12*%
X72175000Y-29912500D03*
%TO.P,R3,2*%
%TO.N,Net-(J4-Pad3)*%
X72175000Y-28087500D03*
%TD*%
D13*
%TO.P,R1,1*%
%TO.N,GND*%
X66537500Y-28725000D03*
%TO.P,R1,2*%
%TO.N,SBC_GPIO11*%
X68362500Y-28725000D03*
%TD*%
D12*
%TO.P,R7,1*%
%TO.N,SBC_GPIO11*%
X66700000Y-24137500D03*
%TO.P,R7,2*%
%TO.N,Net-(J4-Pad6)*%
X66700000Y-22312500D03*
%TD*%
%TO.P,R8,1*%
%TO.N,SBC_GPIO10*%
X64750000Y-24187500D03*
%TO.P,R8,2*%
%TO.N,Net-(J4-Pad4)*%
X64750000Y-22362500D03*
%TD*%
D14*
%TO.P,REF\u002A\u002A,1*%
%TO.N,N/C*%
X98515000Y-25000000D03*
X99108109Y-23568109D03*
X99108109Y-26431891D03*
X100540000Y-22975000D03*
D15*
X100540000Y-25000000D03*
D14*
X100540000Y-27025000D03*
X101971891Y-23568109D03*
X101971891Y-26431891D03*
X102565000Y-25000000D03*
%TD*%
D16*
%TO.P,J1,1,1*%
%TO.N,USB1 VBUS*%
X43650000Y-33450000D03*
%TO.P,J1,2,2*%
X43150000Y-36150000D03*
%TO.P,J1,3,3*%
%TO.N,GND*%
X42650000Y-33450000D03*
%TO.P,J1,4,4*%
X42150000Y-36150000D03*
%TO.P,J1,5,5*%
%TO.N,USB1_D_N*%
X41650000Y-33450000D03*
%TO.P,J1,6,6*%
%TO.N,GND*%
X41150000Y-36150000D03*
%TO.P,J1,7,7*%
%TO.N,USB1_D_P*%
X40650000Y-33450000D03*
%TO.P,J1,8,8*%
%TO.N,GND*%
X40150000Y-36150000D03*
%TO.P,J1,9,9*%
%TO.N,unconnected-(J1-Pad9)*%
X39650000Y-33450000D03*
%TO.P,J1,10,10*%
%TO.N,GND*%
X39150000Y-36150000D03*
%TO.P,J1,11,11*%
%TO.N,USB1_TX_N*%
X38650000Y-33450000D03*
%TO.P,J1,12,12*%
%TO.N,GND*%
X38150000Y-36150000D03*
%TO.P,J1,13,13*%
%TO.N,USB1_TX_P*%
X37650000Y-33450000D03*
%TO.P,J1,14,14*%
%TO.N,GND*%
X37150000Y-36150000D03*
%TO.P,J1,15,15*%
%TO.N,USB1_RX_N*%
X36650000Y-33450000D03*
%TO.P,J1,16,16*%
%TO.N,GND*%
X36150000Y-36150000D03*
%TO.P,J1,17,17*%
%TO.N,USB1_RX_P*%
X35650000Y-33450000D03*
%TO.P,J1,18,18*%
%TO.N,GND*%
X35150000Y-36150000D03*
%TO.P,J1,S1*%
%TO.N,N/C*%
X44650000Y-33450000D03*
%TO.P,J1,S2*%
X44650000Y-36150000D03*
%TO.P,J1,S3*%
X34150000Y-36150000D03*
%TO.P,J1,S4*%
X34150000Y-33450000D03*
%TD*%
D17*
%TO.P,R5,1*%
%TO.N,SBC_GPIO11*%
X68250000Y-26150000D03*
%TO.P,R5,2*%
%TO.N,3.3v*%
X66425000Y-26150000D03*
%TD*%
D18*
%TO.P,J5,1,1*%
%TO.N,SBC_RS232-0-Tx*%
X81800000Y-32550000D03*
%TO.P,J5,2,2*%
%TO.N,SBC_RS232-0-Rx*%
X82800000Y-32550000D03*
%TO.P,J5,3,3*%
%TO.N,SBC_RS232-1-Tx*%
X83800000Y-32550000D03*
%TO.P,J5,4,4*%
%TO.N,SBC_RS232-1-Rx*%
X84800000Y-32550000D03*
D19*
%TO.P,J5,MP1,MP1*%
%TO.N,unconnected-(J5-PadMP1)*%
X80700000Y-37700000D03*
%TO.P,J5,MP2,MP2*%
%TO.N,unconnected-(J5-PadMP2)*%
X85900000Y-37700000D03*
%TD*%
D14*
%TO.P,REF\u002A\u002A,1*%
%TO.N,N/C*%
X22975000Y-25000000D03*
X23568109Y-23568109D03*
X23568109Y-26431891D03*
X25000000Y-22975000D03*
D15*
X25000000Y-25000000D03*
D14*
X25000000Y-27025000D03*
X26431891Y-23568109D03*
X26431891Y-26431891D03*
X27025000Y-25000000D03*
%TD*%
D16*
%TO.P,J3,1,1*%
%TO.N,USB0 VBUS*%
X59600000Y-33450000D03*
%TO.P,J3,2,2*%
X59100000Y-36150000D03*
%TO.P,J3,3,3*%
%TO.N,GND*%
X58600000Y-33450000D03*
%TO.P,J3,4,4*%
X58100000Y-36150000D03*
%TO.P,J3,5,5*%
%TO.N,USB0_D_N*%
X57600000Y-33450000D03*
%TO.P,J3,6,6*%
%TO.N,GND*%
X57100000Y-36150000D03*
%TO.P,J3,7,7*%
%TO.N,USB0_D_P*%
X56600000Y-33450000D03*
%TO.P,J3,8,8*%
%TO.N,GND*%
X56100000Y-36150000D03*
%TO.P,J3,9,9*%
%TO.N,unconnected-(J3-Pad9)*%
X55600000Y-33450000D03*
%TO.P,J3,10,10*%
%TO.N,GND*%
X55100000Y-36150000D03*
%TO.P,J3,11,11*%
%TO.N,USB0_TX_N*%
X54600000Y-33450000D03*
%TO.P,J3,12,12*%
%TO.N,GND*%
X54100000Y-36150000D03*
%TO.P,J3,13,13*%
%TO.N,USB0_TX_P*%
X53600000Y-33450000D03*
%TO.P,J3,14,14*%
%TO.N,GND*%
X53100000Y-36150000D03*
%TO.P,J3,15,15*%
%TO.N,USB0_RX_N*%
X52600000Y-33450000D03*
%TO.P,J3,16,16*%
%TO.N,GND*%
X52100000Y-36150000D03*
%TO.P,J3,17,17*%
%TO.N,USB0_RX_P*%
X51600000Y-33450000D03*
%TO.P,J3,18,18*%
%TO.N,GND*%
X51100000Y-36150000D03*
%TO.P,J3,S1*%
%TO.N,N/C*%
X60600000Y-33450000D03*
%TO.P,J3,S2*%
X60600000Y-36150000D03*
%TO.P,J3,S3*%
X50100000Y-36150000D03*
%TO.P,J3,S4*%
X50100000Y-33450000D03*
%TD*%
D13*
%TO.P,R6,1*%
%TO.N,SBC_GPIO10*%
X62875000Y-26150000D03*
%TO.P,R6,2*%
%TO.N,3.3v*%
X64700000Y-26150000D03*
%TD*%
D20*
%TO.P,J7,1,Pin_1*%
%TO.N,SBC_Debug-Rx*%
X96150000Y-28225000D03*
D21*
%TO.P,J7,2,Pin_2*%
%TO.N,SBC_Debug-Tx*%
X93610000Y-28225000D03*
%TO.P,J7,3,Pin_3*%
%TO.N,GND*%
X91070000Y-28225000D03*
%TD*%
D17*
%TO.P,R2,1*%
%TO.N,GND*%
X64812500Y-28675000D03*
%TO.P,R2,2*%
%TO.N,SBC_GPIO10*%
X62987500Y-28675000D03*
%TD*%
D22*
%TO.N,USB1 VBUS*%
X39050000Y-27400000D03*
%TO.N,GND*%
X42150000Y-37650000D03*
X50975000Y-22350000D03*
X30050000Y-26200000D03*
X51100000Y-37625000D03*
X67269000Y-21006000D03*
X46975000Y-29050735D03*
X51250000Y-27350000D03*
X36975000Y-29125000D03*
X30025000Y-33875000D03*
X44350000Y-30125000D03*
X41900000Y-21450000D03*
X53450000Y-29200000D03*
X43185754Y-27446415D03*
X71050000Y-21400000D03*
X66700000Y-33475000D03*
X53475000Y-26125000D03*
X72700000Y-33475000D03*
X68700000Y-33475000D03*
X63459000Y-21400000D03*
X70700000Y-33475000D03*
X30050000Y-38350000D03*
X87575000Y-27425000D03*
X47450000Y-34625000D03*
X59600000Y-21350000D03*
X30050000Y-21675000D03*
X58100000Y-37700000D03*
X65750000Y-29925000D03*
X30050000Y-30125000D03*
X35150000Y-37750000D03*
X38100000Y-27300000D03*
X45725000Y-21450000D03*
%TO.N,USB1_D_P*%
X40650000Y-32225000D03*
%TO.N,USB1_RX_N*%
X36650000Y-32100000D03*
%TO.N,USB1_D_N*%
X41650000Y-32200000D03*
%TO.N,USB1_TX_N*%
X38650000Y-32175000D03*
%TO.N,USB1_TX_P*%
X37625000Y-32150000D03*
%TO.N,USB1_RX_P*%
X35650000Y-32125000D03*
%TO.N,USB0_TX_N*%
X44500000Y-21425000D03*
%TO.N,USB0_D_P*%
X48250000Y-21425000D03*
%TO.N,USB0 VBUS*%
X59625000Y-30575000D03*
%TO.N,USB0_TX_P*%
X43200000Y-21375000D03*
%TO.N,USB0_D_N*%
X46975000Y-21425000D03*
%TO.N,USB0_RX_N*%
X40650000Y-21375000D03*
%TO.N,USB0_RX_P*%
X39375000Y-21375000D03*
%TO.N,SBC_RS232-1-Rx*%
X81275000Y-27400000D03*
%TO.N,SBC_RS232-0-Tx*%
X76100000Y-21400000D03*
%TO.N,SBC_RS232-0-Rx*%
X77425000Y-21375000D03*
%TO.N,SBC_RS232-1-Tx*%
X79961765Y-27438235D03*
%TO.N,Net-(J4-Pad5)*%
X75600000Y-28050000D03*
%TO.N,Net-(J4-Pad3)*%
X70850000Y-28775000D03*
%TO.N,Net-(J4-Pad4)*%
X64725000Y-21250000D03*
%TO.N,Net-(J4-Pad6)*%
X65999000Y-21226000D03*
%TO.N,3.3v*%
X65675000Y-27425000D03*
X69825000Y-21400000D03*
%TD*%
D23*
%TO.N,USB1 VBUS*%
X39050000Y-27400000D02*
X43650000Y-32000000D01*
X43150000Y-36150000D02*
X43650000Y-35650000D01*
X43650000Y-32000000D02*
X43650000Y-33450000D01*
X43650000Y-35650000D02*
X43650000Y-33450000D01*
D24*
%TO.N,GND*%
X65725000Y-28675000D02*
X65775000Y-28725000D01*
X64812500Y-28675000D02*
X65725000Y-28675000D01*
D23*
X51100000Y-36150000D02*
X52100000Y-36150000D01*
X35150000Y-36150000D02*
X35150000Y-37750000D01*
D24*
X70700001Y-33474999D02*
X70700000Y-33475000D01*
D23*
X42150000Y-36150000D02*
X41150000Y-36150000D01*
D24*
X65750000Y-29925000D02*
X65750000Y-28750000D01*
X65775000Y-28725000D02*
X66537500Y-28725000D01*
X68700000Y-32100000D02*
X68700000Y-33475000D01*
X66700000Y-32100000D02*
X66700000Y-33475000D01*
D23*
X57100000Y-36150000D02*
X58100000Y-36150000D01*
X42150000Y-36150000D02*
X42150000Y-37650000D01*
X39150000Y-36150000D02*
X40150000Y-36150000D01*
X54100000Y-36150000D02*
X55100000Y-36150000D01*
X58100000Y-36150000D02*
X58100000Y-35050000D01*
X58100000Y-36150000D02*
X58100000Y-37700000D01*
X35150000Y-36150000D02*
X36150000Y-36150000D01*
X42650000Y-33450000D02*
X42650000Y-34850000D01*
D24*
X65750000Y-28750000D02*
X65775000Y-28725000D01*
D23*
X51100000Y-37625000D02*
X51100000Y-36150000D01*
X42150000Y-35350000D02*
X42150000Y-36150000D01*
X58600000Y-34550000D02*
X58600000Y-33450000D01*
D24*
X66537500Y-28725000D02*
X66537500Y-29137500D01*
D23*
X36150000Y-36150000D02*
X37150000Y-36150000D01*
X38150000Y-36150000D02*
X39150000Y-36150000D01*
D24*
X70700001Y-32100000D02*
X70700001Y-33474999D01*
D23*
X56100000Y-36150000D02*
X57100000Y-36150000D01*
X53100000Y-36150000D02*
X54100000Y-36150000D01*
X42650000Y-34850000D02*
X42150000Y-35350000D01*
X55100000Y-36150000D02*
X56100000Y-36150000D01*
X37150000Y-36150000D02*
X38150000Y-36150000D01*
X58100000Y-35050000D02*
X58600000Y-34550000D01*
D24*
X72700000Y-32100000D02*
X72700000Y-33475000D01*
D23*
X52100000Y-36150000D02*
X53100000Y-36150000D01*
X40150000Y-36150000D02*
X41150000Y-36150000D01*
%TO.N,USB1_D_P*%
X40650000Y-33450000D02*
X40650000Y-32225000D01*
D25*
%TO.N,USB1_RX_N*%
X36650000Y-33450000D02*
X36650000Y-32100000D01*
X36650000Y-32100000D02*
X36650000Y-32099999D01*
%TO.N,USB1_D_N*%
X41650000Y-32200000D02*
X41650000Y-33450000D01*
%TO.N,USB1_TX_N*%
X38650000Y-33450000D02*
X38650000Y-32175000D01*
X38650000Y-32175000D02*
X38650000Y-32099999D01*
%TO.N,USB1_TX_P*%
X37650000Y-32175000D02*
X37625000Y-32150000D01*
X37650000Y-32125000D02*
X37650000Y-32099999D01*
X37650000Y-33450000D02*
X37650000Y-32175000D01*
X37625000Y-32150000D02*
X37650000Y-32125000D01*
%TO.N,USB1_RX_P*%
X35650000Y-32125000D02*
X35650000Y-32099999D01*
X35650000Y-33450000D02*
X35650000Y-32125000D01*
D24*
%TO.N,USB0_TX_N*%
X44500000Y-21500000D02*
X44500000Y-21425000D01*
D26*
X54411600Y-31975458D02*
X54411600Y-32511600D01*
X48323086Y-25886945D02*
X48410768Y-25974626D01*
X54411600Y-32511600D02*
X54600000Y-32700000D01*
X47007868Y-24221002D02*
X47142968Y-24085903D01*
X48410768Y-25974626D02*
X48465863Y-26029721D01*
X47446274Y-25010133D02*
X47533956Y-25097814D01*
X47884680Y-25097814D02*
X48019754Y-24962741D01*
X47493692Y-24085902D02*
X47581373Y-24173583D01*
X48458160Y-25401147D02*
X48323085Y-25536219D01*
X44500000Y-22063858D02*
X46657144Y-24221002D01*
X44500000Y-21425000D02*
X44500000Y-22063858D01*
X48370478Y-24962740D02*
X48458159Y-25050421D01*
X54600000Y-32700000D02*
X54600000Y-33450000D01*
X48465863Y-26029721D02*
X54411600Y-31975458D01*
X47581374Y-24524309D02*
X47446273Y-24659407D01*
X46657144Y-24221002D02*
G75*
G03*
X47007868Y-24221002I175362J175360D01*
G01*
X47533956Y-25097814D02*
G75*
G03*
X47884680Y-25097814I175362J175360D01*
G01*
X48323085Y-25536219D02*
G75*
G03*
X48323067Y-25886963I175415J-175381D01*
G01*
X48019754Y-24962741D02*
G75*
G02*
X48370461Y-24962756I175346J-175359D01*
G01*
X48458159Y-25050421D02*
G75*
G02*
X48458176Y-25401162I-175359J-175379D01*
G01*
X47142968Y-24085903D02*
G75*
G02*
X47493662Y-24085932I175332J-175397D01*
G01*
X47581373Y-24173583D02*
G75*
G02*
X47581328Y-24524262I-175373J-175317D01*
G01*
X47446273Y-24659407D02*
G75*
G03*
X47446243Y-25010164I175327J-175393D01*
G01*
%TO.N,USB0_D_P*%
X54349460Y-25272765D02*
X54261778Y-25185083D01*
X51737730Y-21425000D02*
X48250000Y-21425000D01*
X53564578Y-23251848D02*
X53409001Y-23096271D01*
X56788400Y-26475670D02*
X55318204Y-25005474D01*
X53652258Y-23339528D02*
X53564578Y-23251848D01*
X54261779Y-24834359D02*
X54529070Y-24567065D01*
X54967478Y-25005473D02*
X54700186Y-25272766D01*
X56600000Y-32099999D02*
X56788400Y-31911599D01*
X53384966Y-23957546D02*
X53652257Y-23690252D01*
X54090665Y-24128660D02*
X53823373Y-24395953D01*
X56788400Y-31911599D02*
X56788400Y-26475670D01*
X56600000Y-33450000D02*
X56600000Y-32099999D01*
X53409001Y-23096271D02*
X51737730Y-21425000D01*
X54529071Y-24216341D02*
X54441391Y-24128661D01*
X53472647Y-24395952D02*
X53384965Y-24308270D01*
X54441391Y-24128661D02*
G75*
G03*
X54090637Y-24128632I-175391J-175339D01*
G01*
X53823373Y-24395953D02*
G75*
G02*
X53472636Y-24395963I-175373J175353D01*
G01*
X53652257Y-23690252D02*
G75*
G03*
X53652248Y-23339539I-175357J175352D01*
G01*
X53384965Y-24308270D02*
G75*
G02*
X53384957Y-23957537I175335J175370D01*
G01*
X54529070Y-24567065D02*
G75*
G03*
X54529074Y-24216339I-175370J175365D01*
G01*
X55318204Y-25005474D02*
G75*
G03*
X54967437Y-25005432I-175404J-175326D01*
G01*
X54261778Y-25185083D02*
G75*
G02*
X54261757Y-24834337I175322J175383D01*
G01*
X54700186Y-25272766D02*
G75*
G02*
X54349437Y-25272789I-175386J175366D01*
G01*
D23*
%TO.N,USB0 VBUS*%
X59100000Y-35200000D02*
X59100000Y-36150000D01*
X59600000Y-33450000D02*
X59600000Y-34700000D01*
X59600000Y-34700000D02*
X59100000Y-35200000D01*
X59600000Y-30600000D02*
X59600000Y-33450000D01*
X59625000Y-30575000D02*
X59600000Y-30600000D01*
D26*
%TO.N,USB0_TX_P*%
X53788400Y-32229070D02*
X43200000Y-21640670D01*
X53788400Y-32511600D02*
X53788400Y-32229070D01*
X53600000Y-32700000D02*
X53788400Y-32511600D01*
X43200000Y-21640670D02*
X43200000Y-21375000D01*
X53600000Y-33450000D02*
X53600000Y-32700000D01*
%TO.N,USB0_D_N*%
X48544092Y-20715000D02*
X47685000Y-20715000D01*
X57600000Y-32099999D02*
X57411600Y-31911599D01*
X57411600Y-26217530D02*
X51999070Y-20805000D01*
X57600000Y-33450000D02*
X57600000Y-32099999D01*
X48634092Y-20805000D02*
X48544092Y-20715000D01*
X57411600Y-31911599D02*
X57411600Y-26217530D01*
X47685000Y-20715000D02*
X46975000Y-21425000D01*
X51999070Y-20805000D02*
X48634092Y-20805000D01*
%TO.N,USB0_RX_N*%
X41750335Y-22475335D02*
X40650000Y-21375000D01*
X52600000Y-33450000D02*
X52600000Y-32575000D01*
X52600000Y-32575000D02*
X42500335Y-22475335D01*
X42500335Y-22475335D02*
X41750335Y-22475335D01*
%TO.N,USB0_RX_P*%
X45630816Y-26482628D02*
X45543136Y-26394948D01*
X45486879Y-26338691D02*
X42243523Y-23095335D01*
X42243523Y-23095335D02*
X41095335Y-23095335D01*
X45408532Y-27055638D02*
X45630815Y-26833352D01*
X46069223Y-27271760D02*
X45846939Y-27494045D01*
X45496213Y-27494044D02*
X45408531Y-27406362D01*
X51600000Y-33450000D02*
X51600000Y-32451812D01*
X51600000Y-32451812D02*
X46419949Y-27271761D01*
X41095335Y-23095335D02*
X39375000Y-21375000D01*
X45543136Y-26394948D02*
X45486879Y-26338691D01*
X46419949Y-27271761D02*
G75*
G03*
X46069238Y-27271774I-175349J-175339D01*
G01*
X45846939Y-27494045D02*
G75*
G02*
X45496237Y-27494021I-175339J175345D01*
G01*
X45408531Y-27406362D02*
G75*
G02*
X45408531Y-27055637I175369J175362D01*
G01*
X45630815Y-26833352D02*
G75*
G03*
X45630806Y-26482639I-175315J175352D01*
G01*
D24*
%TO.N,SBC_RS232-1-Rx*%
X81275000Y-27400000D02*
X84800000Y-30925000D01*
X84800000Y-30925000D02*
X84800000Y-32550000D01*
%TO.N,SBC_RS232-0-Tx*%
X76100000Y-25150000D02*
X81800000Y-30850000D01*
X81800000Y-30850000D02*
X81800000Y-32550000D01*
X76100000Y-21400000D02*
X76100000Y-25150000D01*
%TO.N,SBC_RS232-0-Rx*%
X82800000Y-31125000D02*
X82800000Y-32550000D01*
X77425000Y-25750000D02*
X82800000Y-31125000D01*
X77425000Y-21375000D02*
X77425000Y-25750000D01*
%TO.N,SBC_RS232-1-Tx*%
X79961765Y-27438235D02*
X83800000Y-31276470D01*
X83800000Y-31276470D02*
X83800000Y-32550000D01*
%TO.N,SBC_GPIO11*%
X68037500Y-24137500D02*
X68250000Y-24350000D01*
X68250000Y-24350000D02*
X68250000Y-26150000D01*
X68250000Y-26150000D02*
X68250000Y-28612500D01*
X66700000Y-24137500D02*
X68037500Y-24137500D01*
X69700000Y-30062500D02*
X69700000Y-32100000D01*
X68250000Y-28612500D02*
X68362500Y-28725000D01*
X68362500Y-28725000D02*
X69700000Y-30062500D01*
%TO.N,Net-(J4-Pad5)*%
X75600000Y-28050000D02*
X75562500Y-28087500D01*
X75562500Y-28087500D02*
X74325000Y-28087500D01*
%TO.N,SBC_GPIO10*%
X64837500Y-30525000D02*
X67200000Y-30525000D01*
X62875000Y-25500000D02*
X62875000Y-26150000D01*
X67200000Y-30525000D02*
X67700000Y-31025000D01*
X64187500Y-24187500D02*
X62875000Y-25500000D01*
X62875000Y-28562500D02*
X62987500Y-28675000D01*
X62987500Y-28675000D02*
X64837500Y-30525000D01*
X67700000Y-31025000D02*
X67700000Y-32100000D01*
X64750000Y-24187500D02*
X64187500Y-24187500D01*
X62875000Y-26150000D02*
X62875000Y-28562500D01*
%TO.N,Net-(J4-Pad3)*%
X72175000Y-28087500D02*
X71537500Y-28087500D01*
X71537500Y-28087500D02*
X70850000Y-28775000D01*
%TO.N,SBC_GPIO13*%
X74325000Y-31475000D02*
X73700000Y-32100000D01*
X74325000Y-29912500D02*
X74325000Y-31475000D01*
%TO.N,Net-(J4-Pad4)*%
X64750000Y-21275000D02*
X64750000Y-22362500D01*
X64725000Y-21250000D02*
X64750000Y-21275000D01*
%TO.N,SBC_GPIO12*%
X71699999Y-30387501D02*
X71699999Y-32100000D01*
X72175000Y-29912500D02*
X71699999Y-30387501D01*
%TO.N,Net-(J4-Pad6)*%
X65999000Y-21611500D02*
X66700000Y-22312500D01*
X65999000Y-21226000D02*
X65999000Y-21611500D01*
%TO.N,3.3v*%
X65550000Y-26150000D02*
X65675000Y-26275000D01*
X65550000Y-26150000D02*
X66425000Y-26150000D01*
X65675000Y-26275000D02*
X65675000Y-27425000D01*
X65550000Y-26150000D02*
X64700000Y-26150000D01*
%TD*%
M02*
