M48
; DRILL file {KiCad 9.0.4} date 2025-11-20T16:12:29-0800
; FORMAT={-:-/ absolute / metric / decimal}
; #@! TF.CreationDate,2025-11-20T16:12:29-08:00
; #@! TF.GenerationSoftware,Kicad,Pcbnew,9.0.4
; #@! TF.FileFunction,Plated,1,4,PTH
FMAT,2
METRIC
; #@! TA.AperFunction,Plated,PTH,ViaDrill
T1C0.300
; #@! TA.AperFunction,Plated,PTH,ComponentDrill
T2C0.500
; #@! TA.AperFunction,Plated,PTH,ComponentDrill
T3C1.000
; #@! TA.AperFunction,Plated,PTH,ComponentDrill
T4C2.700
%
G90
G05
T1
X30.025Y-33.875
X30.05Y-21.675
X30.05Y-26.2
X30.05Y-30.125
X30.05Y-38.35
X35.15Y-37.75
X35.65Y-32.125
X36.65Y-32.1
X36.975Y-29.125
X37.625Y-32.15
X38.1Y-27.3
X38.65Y-32.175
X39.05Y-27.4
X39.375Y-21.375
X40.65Y-21.375
X40.65Y-32.225
X41.65Y-32.2
X41.9Y-21.45
X42.15Y-37.65
X43.186Y-27.446
X43.2Y-21.375
X44.35Y-30.125
X44.5Y-21.425
X45.725Y-21.45
X46.975Y-21.425
X46.975Y-29.051
X47.45Y-34.625
X48.25Y-21.425
X50.975Y-22.35
X51.1Y-37.625
X51.25Y-27.35
X53.45Y-29.2
X53.475Y-26.125
X58.1Y-37.7
X59.6Y-21.35
X59.625Y-30.575
X63.459Y-21.4
X64.725Y-21.25
X65.675Y-27.425
X65.75Y-29.925
X65.999Y-21.226
X66.7Y-33.475
X67.269Y-21.006
X68.7Y-33.475
X69.825Y-21.4
X70.7Y-33.475
X70.85Y-28.775
X71.05Y-21.4
X72.7Y-33.475
X75.6Y-28.05
X76.1Y-21.4
X77.425Y-21.375
X79.962Y-27.438
X81.275Y-27.4
X87.575Y-27.425
T2
X22.975Y-25.0
X23.568Y-23.568
X23.568Y-26.432
X25.0Y-22.975
X25.0Y-27.025
X26.432Y-23.568
X26.432Y-26.432
X27.025Y-25.0
X98.515Y-25.0
X99.108Y-23.568
X99.108Y-26.432
X100.54Y-22.975
X100.54Y-27.025
X101.972Y-23.568
X101.972Y-26.432
X102.565Y-25.0
T3
X91.07Y-28.225
X93.61Y-28.225
X96.15Y-28.225
T4
X25.0Y-25.0
X100.54Y-25.0
M30
