  0
SECTION
  2
HEADER
  9
$ANGBASE
  50
0.0
  9
$ANGDIR
  70
1
  9
$MEASUREMENT
  70
0
  0
ENDSEC
  0
SECTION
  2
TABLES
  0
TABLE
  2
LTYPE
  70
4
  0
LTYPE
  5
40F
  2
CONTINUOUS
  70
0
  3
Solid line
  72
65
  73
0
  40
0.0
  0
LTYPE
  5
410
  2
DASHDOT
 70
0
  3
Dash Dot ____ _ ____ _
 72
65
 73
4
 40
2.0
 49
1.25
 49
-0.25
 49
0.25
 49
-0.25
  0
LTYPE
  5
411
  2
DASHED
 70
0
  3
Dashed __ __ __ __ __
 72
65
 73
2
 40
0.75
 49
0.5
 49
-0.25
  0
LTYPE
  5
43B
  2
DOTTED
 70
0
  3
Dotted .  .  .  .
 72
65
 73
2
 40
0.2
 49
0.0
 49
-0.2
  0
ENDTAB
  0
TABLE
  2
STYLE
  70
4
  0
STYLE
  2
KICAD
  70
0
  40
0
  41
1
  42
1
  50
0
  71
0
  3
isocp.shx
  0
STYLE
  2
KICADB
  70
0
  40
0
  41
1
  42
1
  50
0
  71
0
  3
isocp.shx
  0
STYLE
  2
KICADI
  70
0
  40
0
  41
1
  42
1
  50
15
  71
0
  3
isocp.shx
  0
STYLE
  2
KICADBI
  70
0
  40
0
  41
1
  42
1
  50
15
  71
0
  3
isocp.shx
  0
ENDTAB
  0
TABLE
  2
LAYER
  70
1
  0
LAYER
  2
BLACK
  70
0
  62
7
  6
CONTINUOUS
  0
ENDTAB
  0
ENDSEC
  0
SECTION
  2
ENTITIES
0
LINE
8
BLACK
6
CONTINUOUS
10
3.4272726771653543
20
-2.617372440944882
11
3.4283370866141731
21
-2.6178133464566931
0
LINE
8
BLACK
6
CONTINUOUS
10
3.4283370866141731
20
-2.6178133464566931
11
3.4291517322834646
21
-2.6186279921259841
0
LINE
8
BLACK
6
CONTINUOUS
10
3.4291517322834646
20
-2.6186279921259841
11
3.4295926377952757
21
-2.6196924015748029
0
LINE
8
BLACK
6
CONTINUOUS
10
3.4295926377952757
20
-2.6196924015748029
11
3.42964937007874
21
-2.6202684645669292
0
LINE
8
BLACK
6
CONTINUOUS
10
3.42964937007874
20
-2.6202684645669292
11
3.42964937007874
21
-2.6596385433070866
0
LINE
8
BLACK
6
CONTINUOUS
10
3.42964937007874
20
-2.6596385433070866
11
3.4295926377952757
21
-2.6602146062992125
0
LINE
8
BLACK
6
CONTINUOUS
10
3.4295926377952757
20
-2.6602146062992125
11
3.4291517322834646
21
-2.6612790157480313
0
LINE
8
BLACK
6
CONTINUOUS
10
3.4291517322834646
20
-2.6612790157480313
11
3.4283370866141731
21
-2.6620936614173227
0
LINE
8
BLACK
6
CONTINUOUS
10
3.4283370866141731
20
-2.6620936614173227
11
3.4272726771653543
21
-2.6625345669291338
0
LINE
8
BLACK
6
CONTINUOUS
10
3.4272726771653543
20
-2.6625345669291338
11
3.4261205511811021
21
-2.6625345669291338
0
LINE
8
BLACK
6
CONTINUOUS
10
3.4261205511811021
20
-2.6625345669291338
11
3.4250561417322833
21
-2.6620936614173227
0
LINE
8
BLACK
6
CONTINUOUS
10
3.4250561417322833
20
-2.6620936614173227
11
3.4242414960629919
21
-2.6612790157480313
0
LINE
8
BLACK
6
CONTINUOUS
10
3.4242414960629919
20
-2.6612790157480313
11
3.4238005905511812
21
-2.6602146062992125
0
LINE
8
BLACK
6
CONTINUOUS
10
3.4238005905511812
20
-2.6602146062992125
11
3.4237438582677164
21
-2.6596385433070866
0
LINE
8
BLACK
6
CONTINUOUS
10
3.4237438582677164
20
-2.6596385433070866
11
3.4237438582677164
21
-2.6438436220472439
0
LINE
8
BLACK
6
CONTINUOUS
10
3.4237438582677164
20
-2.6438436220472439
11
3.418860157480315
21
-2.6438436220472439
0
LINE
8
BLACK
6
CONTINUOUS
10
3.418860157480315
20
-2.6438436220472439
11
3.4066184251968501
21
-2.6613318503937009
0
LINE
8
BLACK
6
CONTINUOUS
10
3.4066184251968501
20
-2.6613318503937009
11
3.4062416141732283
21
-2.6617712204724411
0
LINE
8
BLACK
6
CONTINUOUS
10
3.4062416141732283
20
-2.6617712204724411
11
3.4052699999999998
21
-2.6623903937007873
0
LINE
8
BLACK
6
CONTINUOUS
10
3.4052699999999998
20
-2.6623903937007873
11
3.4041354724409447
21
-2.6625905905511811
0
LINE
8
BLACK
6
CONTINUOUS
10
3.4041354724409447
20
-2.6625905905511811
11
3.4030106299212597
21
-2.6623414173228346
0
LINE
8
BLACK
6
CONTINUOUS
10
3.4030106299212597
20
-2.6623414173228346
11
3.4020667716535433
21
-2.6616807086614171
0
LINE
8
BLACK
6
CONTINUOUS
10
3.4020667716535433
20
-2.6616807086614171
11
3.4014475984251966
21
-2.660709094488189
0
LINE
8
BLACK
6
CONTINUOUS
10
3.4014475984251966
20
-2.660709094488189
11
3.4012474015748029
21
-2.659574566929134
0
LINE
8
BLACK
6
CONTINUOUS
10
3.4012474015748029
20
-2.659574566929134
11
3.4014965748031494
21
-2.6584497244094489
0
LINE
8
BLACK
6
CONTINUOUS
10
3.4014965748031494
20
-2.6584497244094489
11
3.4017804724409446
21
-2.6579452362204723
0
LINE
8
BLACK
6
CONTINUOUS
10
3.4017804724409446
20
-2.6579452362204723
11
3.4116546062992126
21
-2.6438392913385824
0
LINE
8
BLACK
6
CONTINUOUS
10
3.4116546062992126
20
-2.6438392913385824
11
3.4111224409448817
21
-2.6437868897637795
0
LINE
8
BLACK
6
CONTINUOUS
10
3.4111224409448817
20
-2.6437868897637795
11
3.4110244488188974
21
-2.6437462992125984
0
LINE
8
BLACK
6
CONTINUOUS
10
3.4110244488188974
20
-2.6437462992125984
11
3.4109185826771653
21
-2.6437387795275589
0
LINE
8
BLACK
6
CONTINUOUS
10
3.4109185826771653
20
-2.6437387795275589
11
3.410377992125984
21
-2.6435318897637794
0
LINE
8
BLACK
6
CONTINUOUS
10
3.410377992125984
20
-2.6435318897637794
11
3.4066284645669289
21
-2.6416571259842518
0
LINE
8
BLACK
6
CONTINUOUS
10
3.4066284645669289
20
-2.6416571259842518
11
3.4063804330708662
21
-2.6415010236220473
0
LINE
8
BLACK
6
CONTINUOUS
10
3.4063804330708662
20
-2.6415010236220473
11
3.4063085039370078
21
-2.6414712204724409
0
LINE
8
BLACK
6
CONTINUOUS
10
3.4063085039370078
20
-2.6414712204724409
11
3.4062275196850393
21
-2.641404724409449
0
LINE
8
BLACK
6
CONTINUOUS
10
3.4062275196850393
20
-2.641404724409449
11
3.4061385826771651
21
-2.6413487795275592
0
LINE
8
BLACK
6
CONTINUOUS
10
3.4061385826771651
20
-2.6413487795275592
11
3.4060874015748031
21
-2.6412897637795276
0
LINE
8
BLACK
6
CONTINUOUS
10
3.4060874015748031
20
-2.6412897637795276
11
3.405861062992126
21
-2.6411040157480312
0
LINE
8
BLACK
6
CONTINUOUS
10
3.405861062992126
20
-2.6411040157480312
11
3.4039862992125984
21
-2.6392292519685037
0
LINE
8
BLACK
6
CONTINUOUS
10
3.4039862992125984
20
-2.6392292519685037
11
3.4038005118110237
21
-2.6390028740157478
0
LINE
8
BLACK
6
CONTINUOUS
10
3.4038005118110237
20
-2.6390028740157478
11
3.4037415354330709
21
-2.6389517322834646
0
LINE
8
BLACK
6
CONTINUOUS
10
3.4037415354330709
20
-2.6389517322834646
11
3.4036855511811024
21
-2.6388627559055116
0
LINE
8
BLACK
6
CONTINUOUS
10
3.4036855511811024
20
-2.6388627559055116
11
3.4036190944881888
21
-2.6387818110236219
0
LINE
8
BLACK
6
CONTINUOUS
10
3.4036190944881888
20
-2.6387818110236219
11
3.403589251968504
21
-2.6387098425196851
0
LINE
8
BLACK
6
CONTINUOUS
10
3.403589251968504
20
-2.6387098425196851
11
3.4034331889763778
21
-2.6384618503937007
0
LINE
8
BLACK
6
CONTINUOUS
10
3.4034331889763778
20
-2.6384618503937007
11
3.4015584251968503
21
-2.6347123228346456
0
LINE
8
BLACK
6
CONTINUOUS
10
3.4015584251968503
20
-2.6347123228346456
11
3.4013515354330708
21
-2.6341716929133856
0
LINE
8
BLACK
6
CONTINUOUS
10
3.4013515354330708
20
-2.6341716929133856
11
3.4013440157480312
21
-2.6340658661417322
0
LINE
8
BLACK
6
CONTINUOUS
10
3.4013440157480312
20
-2.6340658661417322
11
3.4013034251968501
21
-2.6339678740157479
0
LINE
8
BLACK
6
CONTINUOUS
10
3.4013034251968501
20
-2.6339678740157479
11
3.4012466929133858
21
-2.6333918110236221
0
LINE
8
BLACK
6
CONTINUOUS
10
3.4012466929133858
20
-2.6333918110236221
11
3.4012466929133858
21
-2.6277675196850394
0
LINE
8
BLACK
6
CONTINUOUS
10
3.4012466929133858
20
-2.6277675196850394
11
3.4013034251968501
21
-2.6271914566929135
0
LINE
8
BLACK
6
CONTINUOUS
10
3.4013034251968501
20
-2.6271914566929135
11
3.4013440157480312
21
-2.6270934251968505
0
LINE
8
BLACK
6
CONTINUOUS
10
3.4013440157480312
20
-2.6270934251968505
11
3.4013515354330708
21
-2.6269876377952754
0
LINE
8
BLACK
6
CONTINUOUS
10
3.4013515354330708
20
-2.6269876377952754
11
3.4015584251968503
21
-2.6264470078740159
0
LINE
8
BLACK
6
CONTINUOUS
10
3.4015584251968503
20
-2.6264470078740159
11
3.4034331889763778
21
-2.6226974803149607
0
LINE
8
BLACK
6
CONTINUOUS
10
3.4034331889763778
20
-2.6226974803149607
11
3.403589251968504
21
-2.6224494488188976
0
LINE
8
BLACK
6
CONTINUOUS
10
3.403589251968504
20
-2.6224494488188976
11
3.4036190944881888
21
-2.6223775196850392
0
LINE
8
BLACK
6
CONTINUOUS
10
3.4036190944881888
20
-2.6223775196850392
11
3.4036855511811024
21
-2.6222965354330707
0
LINE
8
BLACK
6
CONTINUOUS
10
3.4036855511811024
20
-2.6222965354330707
11
3.4037415354330709
21
-2.6222075984251969
0
LINE
8
BLACK
6
CONTINUOUS
10
3.4037415354330709
20
-2.6222075984251969
11
3.4038005118110237
21
-2.6221564173228344
0
LINE
8
BLACK
6
CONTINUOUS
10
3.4038005118110237
20
-2.6221564173228344
11
3.4039862992125984
21
-2.6219300787401574
0
LINE
8
BLACK
6
CONTINUOUS
10
3.4039862992125984
20
-2.6219300787401574
11
3.405861062992126
21
-2.6200553149606298
0
LINE
8
BLACK
6
CONTINUOUS
10
3.405861062992126
20
-2.6200553149606298
11
3.4060874015748031
21
-2.6198695275590551
0
LINE
8
BLACK
6
CONTINUOUS
10
3.4060874015748031
20
-2.6198695275590551
11
3.4061385826771651
21
-2.6198105511811023
0
LINE
8
BLACK
6
CONTINUOUS
10
3.4061385826771651
20
-2.6198105511811023
11
3.4062275196850393
21
-2.6197545669291338
0
LINE
8
BLACK
6
CONTINUOUS
10
3.4062275196850393
20
-2.6197545669291338
11
3.4063085039370078
21
-2.6196881102362206
0
LINE
8
BLACK
6
CONTINUOUS
10
3.4063085039370078
20
-2.6196881102362206
11
3.4063804330708662
21
-2.6196582677165354
0
LINE
8
BLACK
6
CONTINUOUS
10
3.4063804330708662
20
-2.6196582677165354
11
3.4066284645669289
21
-2.6195022047244092
0
LINE
8
BLACK
6
CONTINUOUS
10
3.4066284645669289
20
-2.6195022047244092
11
3.410377992125984
21
-2.6176274409448816
0
LINE
8
BLACK
6
CONTINUOUS
10
3.410377992125984
20
-2.6176274409448816
11
3.4109185826771653
21
-2.6174205511811022
0
LINE
8
BLACK
6
CONTINUOUS
10
3.4109185826771653
20
-2.6174205511811022
11
3.4110244488188974
21
-2.6174129921259843
0
LINE
8
BLACK
6
CONTINUOUS
10
3.4110244488188974
20
-2.6174129921259843
11
3.4111224409448817
21
-2.617372440944882
0
LINE
8
BLACK
6
CONTINUOUS
10
3.4111224409448817
20
-2.617372440944882
11
3.4116985039370076
21
-2.6173157086614172
0
LINE
8
BLACK
6
CONTINUOUS
10
3.4116985039370076
20
-2.6173157086614172
11
3.4266966141732285
21
-2.6173157086614172
0
LINE
8
BLACK
6
CONTINUOUS
10
3.4266966141732285
20
-2.6173157086614172
11
3.4272726771653543
21
-2.617372440944882
0
LINE
8
BLACK
6
CONTINUOUS
10
3.4096980708661415
20
-2.6245699606299211
11
3.4085009448818897
21
-2.6257670866141734
0
LINE
8
BLACK
6
CONTINUOUS
10
3.4085009448818897
20
-2.6257670866141734
11
3.4071522047244094
21
-2.628464566929134
0
LINE
8
BLACK
6
CONTINUOUS
10
3.4071522047244094
20
-2.628464566929134
11
3.4071522047244094
21
-2.6326947637795275
0
LINE
8
BLACK
6
CONTINUOUS
10
3.4071522047244094
20
-2.6326947637795275
11
3.4085009448818897
21
-2.6353922440944881
0
LINE
8
BLACK
6
CONTINUOUS
10
3.4085009448818897
20
-2.6353922440944881
11
3.4096980708661415
21
-2.6365893700787399
0
LINE
8
BLACK
6
CONTINUOUS
10
3.4096980708661415
20
-2.6365893700787399
11
3.4123955511811022
21
-2.6379381102362203
0
LINE
8
BLACK
6
CONTINUOUS
10
3.4123955511811022
20
-2.6379381102362203
11
3.4237438582677164
21
-2.6379381102362203
0
LINE
8
BLACK
6
CONTINUOUS
10
3.4237438582677164
20
-2.6379381102362203
11
3.4237438582677164
21
-2.6232212204724408
0
LINE
8
BLACK
6
CONTINUOUS
10
3.4237438582677164
20
-2.6232212204724408
11
3.4123955511811022
21
-2.6232212204724408
0
LINE
8
BLACK
6
CONTINUOUS
10
3.4123955511811022
20
-2.6232212204724408
11
3.4096980708661415
21
-2.6245699606299211
0
LINE
8
BLACK
6
CONTINUOUS
10
3.3806074015748031
20
-2.6155458267716534
11
3.381637834645669
21
-2.6160610236220472
0
LINE
8
BLACK
6
CONTINUOUS
10
3.381637834645669
20
-2.6160610236220472
11
3.3823927165354331
21
-2.6169313779527559
0
LINE
8
BLACK
6
CONTINUOUS
10
3.3823927165354331
20
-2.6169313779527559
11
3.3826287007874014
21
-2.6174599606299211
0
LINE
8
BLACK
6
CONTINUOUS
10
3.3826287007874014
20
-2.6174599606299211
11
3.3920025196850392
21
-2.6455813779527557
0
LINE
8
BLACK
6
CONTINUOUS
10
3.3920025196850392
20
-2.6455813779527557
11
3.3920674409448819
21
-2.6458670078740156
0
LINE
8
BLACK
6
CONTINUOUS
10
3.3920674409448819
20
-2.6458670078740156
11
3.3920973228346454
21
-2.6459390944881891
0
LINE
8
BLACK
6
CONTINUOUS
10
3.3920973228346454
20
-2.6459390944881891
11
3.3920973228346454
21
-2.645998307086614
0
LINE
8
BLACK
6
CONTINUOUS
10
3.3920973228346454
20
-2.645998307086614
11
3.3921308661417324
21
-2.6461458267716536
0
LINE
8
BLACK
6
CONTINUOUS
10
3.3921308661417324
20
-2.6461458267716536
11
3.3920973228346454
21
-2.6466176771653545
0
LINE
8
BLACK
6
CONTINUOUS
10
3.3920973228346454
20
-2.6466176771653545
11
3.3920973228346454
21
-2.6470912204724408
0
LINE
8
BLACK
6
CONTINUOUS
10
3.3920973228346454
20
-2.6470912204724408
11
3.3920566535433072
21
-2.6471892913385826
0
LINE
8
BLACK
6
CONTINUOUS
10
3.3920566535433072
20
-2.6471892913385826
11
3.3920491732283464
21
-2.6472950393700785
0
LINE
8
BLACK
6
CONTINUOUS
10
3.3920491732283464
20
-2.6472950393700785
11
3.3918375984251967
21
-2.6477181496062991
0
LINE
8
BLACK
6
CONTINUOUS
10
3.3918375984251967
20
-2.6477181496062991
11
3.3916564173228347
21
-2.6481556299212596
0
LINE
8
BLACK
6
CONTINUOUS
10
3.3916564173228347
20
-2.6481556299212596
11
3.3915813779527557
21
-2.6482306299212599
0
LINE
8
BLACK
6
CONTINUOUS
10
3.3915813779527557
20
-2.6482306299212599
11
3.3915339763779526
21
-2.6483255118110236
0
LINE
8
BLACK
6
CONTINUOUS
10
3.3915339763779526
20
-2.6483255118110236
11
3.3911764960629922
21
-2.6486355118110234
0
LINE
8
BLACK
6
CONTINUOUS
10
3.3911764960629922
20
-2.6486355118110234
11
3.3908417716535433
21
-2.6489702755905511
0
LINE
8
BLACK
6
CONTINUOUS
10
3.3908417716535433
20
-2.6489702755905511
11
3.3907437007874015
21
-2.6490108661417322
0
LINE
8
BLACK
6
CONTINUOUS
10
3.3907437007874015
20
-2.6490108661417322
11
3.3906635826771652
21
-2.6490803937007872
0
LINE
8
BLACK
6
CONTINUOUS
10
3.3906635826771652
20
-2.6490803937007872
11
3.3902147244094487
21
-2.6492299999999998
0
LINE
8
BLACK
6
CONTINUOUS
10
3.3902147244094487
20
-2.6492299999999998
11
3.3897773622047245
21
-2.6494111811023622
0
LINE
8
BLACK
6
CONTINUOUS
10
3.3897773622047245
20
-2.6494111811023622
11
3.3896266929133856
21
-2.6494259842519683
0
LINE
8
BLACK
6
CONTINUOUS
10
3.3896266929133856
20
-2.6494259842519683
11
3.3895705905511808
21
-2.6494447244094488
0
LINE
8
BLACK
6
CONTINUOUS
10
3.3895705905511808
20
-2.6494447244094488
11
3.3894928346456692
21
-2.6494391732283464
0
LINE
8
BLACK
6
CONTINUOUS
10
3.3894928346456692
20
-2.6494391732283464
11
3.3892012992125982
21
-2.6494679133858265
0
LINE
8
BLACK
6
CONTINUOUS
10
3.3892012992125982
20
-2.6494679133858265
11
3.3734064173228346
21
-2.6494679133858265
0
LINE
8
BLACK
6
CONTINUOUS
10
3.3734064173228346
20
-2.6494679133858265
11
3.3734064173228346
21
-2.6596385433070866
0
LINE
8
BLACK
6
CONTINUOUS
10
3.3734064173228346
20
-2.6596385433070866
11
3.3733496850393698
21
-2.6602146062992125
0
LINE
8
BLACK
6
CONTINUOUS
10
3.3733496850393698
20
-2.6602146062992125
11
3.3729087795275592
21
-2.6612790157480313
0
LINE
8
BLACK
6
CONTINUOUS
10
3.3729087795275592
20
-2.6612790157480313
11
3.3720941338582677
21
-2.6620936614173227
0
LINE
8
BLACK
6
CONTINUOUS
10
3.3720941338582677
20
-2.6620936614173227
11
3.3710297244094489
21
-2.6625345669291338
0
LINE
8
BLACK
6
CONTINUOUS
10
3.3710297244094489
20
-2.6625345669291338
11
3.3698775984251967
21
-2.6625345669291338
0
LINE
8
BLACK
6
CONTINUOUS
10
3.3698775984251967
20
-2.6625345669291338
11
3.3688131889763779
21
-2.6620936614173227
0
LINE
8
BLACK
6
CONTINUOUS
10
3.3688131889763779
20
-2.6620936614173227
11
3.3679985433070865
21
-2.6612790157480313
0
LINE
8
BLACK
6
CONTINUOUS
10
3.3679985433070865
20
-2.6612790157480313
11
3.3675576377952754
21
-2.6602146062992125
0
LINE
8
BLACK
6
CONTINUOUS
10
3.3675576377952754
20
-2.6602146062992125
11
3.367500905511811
21
-2.6596385433070866
0
LINE
8
BLACK
6
CONTINUOUS
10
3.367500905511811
20
-2.6596385433070866
11
3.367500905511811
21
-2.6494679133858265
0
LINE
8
BLACK
6
CONTINUOUS
10
3.367500905511811
20
-2.6494679133858265
11
3.3648293700787399
21
-2.6494679133858265
0
LINE
8
BLACK
6
CONTINUOUS
10
3.3648293700787399
20
-2.6494679133858265
11
3.3642533070866141
21
-2.6494111811023622
0
LINE
8
BLACK
6
CONTINUOUS
10
3.3642533070866141
20
-2.6494111811023622
11
3.3631888976377953
21
-2.6489702755905511
0
LINE
8
BLACK
6
CONTINUOUS
10
3.3631888976377953
20
-2.6489702755905511
11
3.3623742519685038
21
-2.6481556299212596
0
LINE
8
BLACK
6
CONTINUOUS
10
3.3623742519685038
20
-2.6481556299212596
11
3.3619333464566927
21
-2.6470912204724408
0
LINE
8
BLACK
6
CONTINUOUS
10
3.3619333464566927
20
-2.6470912204724408
11
3.3619333464566927
21
-2.6459390944881891
0
LINE
8
BLACK
6
CONTINUOUS
10
3.3619333464566927
20
-2.6459390944881891
11
3.3623742519685038
21
-2.6448746850393698
0
LINE
8
BLACK
6
CONTINUOUS
10
3.3623742519685038
20
-2.6448746850393698
11
3.3631888976377953
21
-2.6440600393700788
0
LINE
8
BLACK
6
CONTINUOUS
10
3.3631888976377953
20
-2.6440600393700788
11
3.3642533070866141
21
-2.6436191338582677
0
LINE
8
BLACK
6
CONTINUOUS
10
3.3642533070866141
20
-2.6436191338582677
11
3.3648293700787399
21
-2.6435624015748029
0
LINE
8
BLACK
6
CONTINUOUS
10
3.3648293700787399
20
-2.6435624015748029
11
3.367500905511811
21
-2.6435624015748029
0
LINE
8
BLACK
6
CONTINUOUS
10
3.367500905511811
20
-2.6435624015748029
11
3.367500905511811
21
-2.6333918110236221
0
LINE
8
BLACK
6
CONTINUOUS
10
3.367500905511811
20
-2.6333918110236221
11
3.3675576377952754
21
-2.6328157480314962
0
LINE
8
BLACK
6
CONTINUOUS
10
3.3675576377952754
20
-2.6328157480314962
11
3.3679985433070865
21
-2.631751338582677
0
LINE
8
BLACK
6
CONTINUOUS
10
3.3679985433070865
20
-2.631751338582677
11
3.3688131889763779
21
-2.6309366929133859
0
LINE
8
BLACK
6
CONTINUOUS
10
3.3688131889763779
20
-2.6309366929133859
11
3.3698775984251967
21
-2.6304957874015749
0
LINE
8
BLACK
6
CONTINUOUS
10
3.3698775984251967
20
-2.6304957874015749
11
3.3710297244094489
21
-2.6304957874015749
0
LINE
8
BLACK
6
CONTINUOUS
10
3.3710297244094489
20
-2.6304957874015749
11
3.3720941338582677
21
-2.6309366929133859
0
LINE
8
BLACK
6
CONTINUOUS
10
3.3720941338582677
20
-2.6309366929133859
11
3.3729087795275592
21
-2.631751338582677
0
LINE
8
BLACK
6
CONTINUOUS
10
3.3729087795275592
20
-2.631751338582677
11
3.3733496850393698
21
-2.6328157480314962
0
LINE
8
BLACK
6
CONTINUOUS
10
3.3733496850393698
20
-2.6328157480314962
11
3.3734064173228346
21
-2.6333918110236221
0
LINE
8
BLACK
6
CONTINUOUS
10
3.3734064173228346
20
-2.6333918110236221
11
3.3734064173228346
21
-2.6435624015748029
0
LINE
8
BLACK
6
CONTINUOUS
10
3.3734064173228346
20
-2.6435624015748029
11
3.385104566929134
21
-2.6435624015748029
0
LINE
8
BLACK
6
CONTINUOUS
10
3.385104566929134
20
-2.6435624015748029
11
3.3770262598425198
21
-2.6193274409448817
0
LINE
8
BLACK
6
CONTINUOUS
10
3.3770262598425198
20
-2.6193274409448817
11
3.3768979133858266
21
-2.6187629921259843
0
LINE
8
BLACK
6
CONTINUOUS
10
3.3768979133858266
20
-2.6187629921259843
11
3.3769796062992126
21
-2.6176137795275589
0
LINE
8
BLACK
6
CONTINUOUS
10
3.3769796062992126
20
-2.6176137795275589
11
3.3774948031496064
21
-2.616583346456693
0
LINE
8
BLACK
6
CONTINUOUS
10
3.3774948031496064
20
-2.616583346456693
11
3.3783651574803151
21
-2.615828464566929
0
LINE
8
BLACK
6
CONTINUOUS
10
3.3783651574803151
20
-2.615828464566929
11
3.3794581889763777
21
-2.6154641338582678
0
LINE
8
BLACK
6
CONTINUOUS
10
3.3794581889763777
20
-2.6154641338582678
11
3.3806074015748031
21
-2.6155458267716534
0
LINE
8
BLACK
6
CONTINUOUS
10
3.0155682283464564
20
-2.6246865748031496
11
3.015748031496063
21
-2.6255905511811024
0
LINE
8
BLACK
6
CONTINUOUS
10
3.015748031496063
20
-2.6255905511811024
11
3.015748031496063
21
-2.6338582677165352
0
LINE
8
BLACK
6
CONTINUOUS
10
3.015748031496063
20
-2.6338582677165352
11
3.122047244094488
21
-2.6338582677165352
0
LINE
8
BLACK
6
CONTINUOUS
10
3.122047244094488
20
-2.6338582677165352
11
3.2283464566929134
21
-2.6338582677165352
0
LINE
8
BLACK
6
CONTINUOUS
10
3.2283464566929134
20
-2.6338582677165352
11
3.2283464566929134
21
-2.6255905511811024
0
LINE
8
BLACK
6
CONTINUOUS
10
3.2283464566929134
20
-2.6255905511811024
11
3.2285262598425195
21
-2.6246865748031496
0
LINE
8
BLACK
6
CONTINUOUS
10
3.2285262598425195
20
-2.6246865748031496
11
3.2298046850393698
21
-2.6234081496062993
0
LINE
8
BLACK
6
CONTINUOUS
10
3.2298046850393698
20
-2.6234081496062993
11
3.2316126377952754
21
-2.6234081496062993
0
LINE
8
BLACK
6
CONTINUOUS
10
3.2316126377952754
20
-2.6234081496062993
11
3.2328910629921257
21
-2.6246865748031496
0
LINE
8
BLACK
6
CONTINUOUS
10
3.2328910629921257
20
-2.6246865748031496
11
3.2330708661417322
21
-2.6255905511811024
0
LINE
8
BLACK
6
CONTINUOUS
10
3.2330708661417322
20
-2.6255905511811024
11
3.2330708661417322
21
-2.6362204724409448
0
LINE
8
BLACK
6
CONTINUOUS
10
3.2330708661417322
20
-2.6362204724409448
11
3.2328910629921257
21
-2.6371244488188976
0
LINE
8
BLACK
6
CONTINUOUS
10
3.2328910629921257
20
-2.6371244488188976
11
3.2316126377952754
21
-2.6384028740157479
0
LINE
8
BLACK
6
CONTINUOUS
10
3.2316126377952754
20
-2.6384028740157479
11
3.2307086614173226
21
-2.6385826771653544
0
LINE
8
BLACK
6
CONTINUOUS
10
3.2307086614173226
20
-2.6385826771653544
11
3.122047244094488
21
-2.6385826771653544
0
LINE
8
BLACK
6
CONTINUOUS
10
3.122047244094488
20
-2.6385826771653544
11
3.0133858267716533
21
-2.6385826771653544
0
LINE
8
BLACK
6
CONTINUOUS
10
3.0133858267716533
20
-2.6385826771653544
11
3.0124818503937005
21
-2.6384028740157479
0
LINE
8
BLACK
6
CONTINUOUS
10
3.0124818503937005
20
-2.6384028740157479
11
3.0112034251968502
21
-2.6371244488188976
0
LINE
8
BLACK
6
CONTINUOUS
10
3.0112034251968502
20
-2.6371244488188976
11
3.0110236220472442
21
-2.6362204724409448
0
LINE
8
BLACK
6
CONTINUOUS
10
3.0110236220472442
20
-2.6362204724409448
11
3.0110236220472442
21
-2.6255905511811024
0
LINE
8
BLACK
6
CONTINUOUS
10
3.0110236220472442
20
-2.6255905511811024
11
3.0112034251968502
21
-2.6246865748031496
0
LINE
8
BLACK
6
CONTINUOUS
10
3.0112034251968502
20
-2.6246865748031496
11
3.0124818503937005
21
-2.6234081496062993
0
LINE
8
BLACK
6
CONTINUOUS
10
3.0124818503937005
20
-2.6234081496062993
11
3.0142898031496062
21
-2.6234081496062993
0
LINE
8
BLACK
6
CONTINUOUS
10
3.0142898031496062
20
-2.6234081496062993
11
3.0155682283464564
21
-2.6246865748031496
0
LINE
8
BLACK
6
CONTINUOUS
10
3.4035442913385827
20
-2.6015577559055116
11
3.404822716535433
21
-2.6028361811023624
0
LINE
8
BLACK
6
CONTINUOUS
10
3.404822716535433
20
-2.6028361811023624
11
3.404822716535433
21
-2.6046441338582675
0
LINE
8
BLACK
6
CONTINUOUS
10
3.404822716535433
20
-2.6046441338582675
11
3.4035442913385827
21
-2.6059225590551183
0
LINE
8
BLACK
6
CONTINUOUS
10
3.4035442913385827
20
-2.6059225590551183
11
3.4026403149606299
21
-2.6061023622047244
0
LINE
8
BLACK
6
CONTINUOUS
10
3.4026403149606299
20
-2.6061023622047244
11
3.3847612598425196
21
-2.6061023622047244
0
LINE
8
BLACK
6
CONTINUOUS
10
3.3847612598425196
20
-2.6061023622047244
11
3.3838572834645668
21
-2.6059225590551183
0
LINE
8
BLACK
6
CONTINUOUS
10
3.3838572834645668
20
-2.6059225590551183
11
3.3825788582677165
21
-2.6046441338582675
0
LINE
8
BLACK
6
CONTINUOUS
10
3.3825788582677165
20
-2.6046441338582675
11
3.3825788582677165
21
-2.6028361811023624
0
LINE
8
BLACK
6
CONTINUOUS
10
3.3825788582677165
20
-2.6028361811023624
11
3.3838572834645668
21
-2.6015577559055116
0
LINE
8
BLACK
6
CONTINUOUS
10
3.3838572834645668
20
-2.6015577559055116
11
3.3847612598425196
21
-2.6013779527559056
0
LINE
8
BLACK
6
CONTINUOUS
10
3.3847612598425196
20
-2.6013779527559056
11
3.4026403149606299
21
-2.6013779527559056
0
LINE
8
BLACK
6
CONTINUOUS
10
3.4026403149606299
20
-2.6013779527559056
11
3.4035442913385827
21
-2.6015577559055116
0
LINE
8
BLACK
6
CONTINUOUS
10
3.4035442913385827
20
-2.5436837401574803
11
3.404822716535433
21
-2.5449621653543306
0
LINE
8
BLACK
6
CONTINUOUS
10
3.404822716535433
20
-2.5449621653543306
11
3.404822716535433
21
-2.5467701181102362
0
LINE
8
BLACK
6
CONTINUOUS
10
3.404822716535433
20
-2.5467701181102362
11
3.4035442913385827
21
-2.5480485433070865
0
LINE
8
BLACK
6
CONTINUOUS
10
3.4035442913385827
20
-2.5480485433070865
11
3.4026403149606299
21
-2.548228346456693
0
LINE
8
BLACK
6
CONTINUOUS
10
3.4026403149606299
20
-2.548228346456693
11
3.3847612598425196
21
-2.548228346456693
0
LINE
8
BLACK
6
CONTINUOUS
10
3.3847612598425196
20
-2.548228346456693
11
3.3838572834645668
21
-2.5480485433070865
0
LINE
8
BLACK
6
CONTINUOUS
10
3.3838572834645668
20
-2.5480485433070865
11
3.3825788582677165
21
-2.5467701181102362
0
LINE
8
BLACK
6
CONTINUOUS
10
3.3825788582677165
20
-2.5467701181102362
11
3.3825788582677165
21
-2.5449621653543306
0
LINE
8
BLACK
6
CONTINUOUS
10
3.3825788582677165
20
-2.5449621653543306
11
3.3838572834645668
21
-2.5436837401574803
0
LINE
8
BLACK
6
CONTINUOUS
10
3.3838572834645668
20
-2.5436837401574803
11
3.3847612598425196
21
-2.5435039370078738
0
LINE
8
BLACK
6
CONTINUOUS
10
3.3847612598425196
20
-2.5435039370078738
11
3.4026403149606299
21
-2.5435039370078738
0
LINE
8
BLACK
6
CONTINUOUS
10
3.4026403149606299
20
-2.5435039370078738
11
3.4035442913385827
21
-2.5436837401574803
0
LINE
8
BLACK
6
CONTINUOUS
10
3.1017115748031494
20
-2.4992622047244093
11
3.1020008661417324
21
-2.4992622047244093
0
LINE
8
BLACK
6
CONTINUOUS
10
3.1020008661417324
20
-2.4992622047244093
11
3.1022709448818895
21
-2.4993740551181101
0
LINE
8
BLACK
6
CONTINUOUS
10
3.1022709448818895
20
-2.4993740551181101
11
3.102557598425197
21
-2.4994314173228345
0
LINE
8
BLACK
6
CONTINUOUS
10
3.102557598425197
20
-2.4994314173228345
11
3.1027979527559055
21
-2.4995923622047242
0
LINE
8
BLACK
6
CONTINUOUS
10
3.1027979527559055
20
-2.4995923622047242
11
3.1030652755905512
21
-2.4997031102362204
0
LINE
8
BLACK
6
CONTINUOUS
10
3.1030652755905512
20
-2.4997031102362204
11
3.1032719685039369
21
-2.4999098031496061
0
LINE
8
BLACK
6
CONTINUOUS
10
3.1032719685039369
20
-2.4999098031496061
11
3.1035148818897635
21
-2.5000724803149605
0
LINE
8
BLACK
6
CONTINUOUS
10
3.1035148818897635
20
-2.5000724803149605
11
3.103877874015748
21
-2.5005157086614171
0
LINE
8
BLACK
6
CONTINUOUS
10
3.103877874015748
20
-2.5005157086614171
11
3.1038799212598422
21
-2.5005177559055118
0
LINE
8
BLACK
6
CONTINUOUS
10
3.1038799212598422
20
-2.5005177559055118
11
3.103880275590551
21
-2.500518622047244
0
LINE
8
BLACK
6
CONTINUOUS
10
3.103880275590551
20
-2.500518622047244
11
3.1038816535433069
21
-2.5005203149606299
0
LINE
8
BLACK
6
CONTINUOUS
10
3.1038816535433069
20
-2.5005203149606299
11
3.1074689763779526
21
-2.5059013385826772
0
LINE
8
BLACK
6
CONTINUOUS
10
3.1074689763779526
20
-2.5059013385826772
11
3.1106729527559054
21
-2.5091053149606299
0
LINE
8
BLACK
6
CONTINUOUS
10
3.1106729527559054
20
-2.5091053149606299
11
3.113993897637795
21
-2.5107657874015747
0
LINE
8
BLACK
6
CONTINUOUS
10
3.113993897637795
20
-2.5107657874015747
11
3.1144837795275588
21
-2.5110741338582678
0
LINE
8
BLACK
6
CONTINUOUS
10
3.1144837795275588
20
-2.5110741338582678
11
3.1152386220472441
21
-2.5119445275590548
0
LINE
8
BLACK
6
CONTINUOUS
10
3.1152386220472441
20
-2.5119445275590548
11
3.1156029527559053
21
-2.5130374803149604
0
LINE
8
BLACK
6
CONTINUOUS
10
3.1156029527559053
20
-2.5130374803149604
11
3.1155212992125985
21
-2.5141866929133858
0
LINE
8
BLACK
6
CONTINUOUS
10
3.1155212992125985
20
-2.5141866929133858
11
3.1150060236220471
21
-2.5152172047244092
0
LINE
8
BLACK
6
CONTINUOUS
10
3.1150060236220471
20
-2.5152172047244092
11
3.1141356692913384
21
-2.5159720472440945
0
LINE
8
BLACK
6
CONTINUOUS
10
3.1141356692913384
20
-2.5159720472440945
11
3.1130426771653541
21
-2.5163363779527557
0
LINE
8
BLACK
6
CONTINUOUS
10
3.1130426771653541
20
-2.5163363779527557
11
3.1118934645669292
21
-2.5162547244094489
0
LINE
8
BLACK
6
CONTINUOUS
10
3.1118934645669292
20
-2.5162547244094489
11
3.1113528740157479
21
-2.5160478346456694
0
LINE
8
BLACK
6
CONTINUOUS
10
3.1113528740157479
20
-2.5160478346456694
11
3.1076033464566928
21
-2.5141730708661418
0
LINE
8
BLACK
6
CONTINUOUS
10
3.1076033464566928
20
-2.5141730708661418
11
3.1073555118110234
21
-2.5140170472440944
0
LINE
8
BLACK
6
CONTINUOUS
10
3.1073555118110234
20
-2.5140170472440944
11
3.1072833858267717
21
-2.5139872047244092
0
LINE
8
BLACK
6
CONTINUOUS
10
3.1072833858267717
20
-2.5139872047244092
11
3.1072022047244094
21
-2.513920590551181
0
LINE
8
BLACK
6
CONTINUOUS
10
3.1072022047244094
20
-2.513920590551181
11
3.1071134645669289
21
-2.5138647244094487
0
LINE
8
BLACK
6
CONTINUOUS
10
3.1071134645669289
20
-2.5138647244094487
11
3.1070623228346457
21
-2.5138057874015747
0
LINE
8
BLACK
6
CONTINUOUS
10
3.1070623228346457
20
-2.5138057874015747
11
3.1068359448818899
21
-2.5136199606299212
0
LINE
8
BLACK
6
CONTINUOUS
10
3.1068359448818899
20
-2.5136199606299212
11
3.1043775590551181
21
-2.5111615748031495
0
LINE
8
BLACK
6
CONTINUOUS
10
3.1043775590551181
20
-2.5111615748031495
11
3.1043775590551181
21
-2.5385755511811023
0
LINE
8
BLACK
6
CONTINUOUS
10
3.1043775590551181
20
-2.5385755511811023
11
3.1126733858267714
21
-2.5385755511811023
0
LINE
8
BLACK
6
CONTINUOUS
10
3.1126733858267714
20
-2.5385755511811023
11
3.1132494488188978
21
-2.5386322834645667
0
LINE
8
BLACK
6
CONTINUOUS
10
3.1132494488188978
20
-2.5386322834645667
11
3.1143138582677166
21
-2.5390731889763778
0
LINE
8
BLACK
6
CONTINUOUS
10
3.1143138582677166
20
-2.5390731889763778
11
3.115128503937008
21
-2.5398878346456693
0
LINE
8
BLACK
6
CONTINUOUS
10
3.115128503937008
20
-2.5398878346456693
11
3.1155694094488187
21
-2.5409522440944881
0
LINE
8
BLACK
6
CONTINUOUS
10
3.1155694094488187
20
-2.5409522440944881
11
3.1155694094488187
21
-2.5421043700787402
0
LINE
8
BLACK
6
CONTINUOUS
10
3.1155694094488187
20
-2.5421043700787402
11
3.115128503937008
21
-2.543168779527559
0
LINE
8
BLACK
6
CONTINUOUS
10
3.115128503937008
20
-2.543168779527559
11
3.1143138582677166
21
-2.5439834251968505
0
LINE
8
BLACK
6
CONTINUOUS
10
3.1143138582677166
20
-2.5439834251968505
11
3.1132494488188978
21
-2.5444243307086611
0
LINE
8
BLACK
6
CONTINUOUS
10
3.1132494488188978
20
-2.5444243307086611
11
3.1126733858267714
21
-2.544481062992126
0
LINE
8
BLACK
6
CONTINUOUS
10
3.1126733858267714
20
-2.544481062992126
11
3.0901762204724408
21
-2.544481062992126
0
LINE
8
BLACK
6
CONTINUOUS
10
3.0901762204724408
20
-2.544481062992126
11
3.0896001574803149
21
-2.5444243307086611
0
LINE
8
BLACK
6
CONTINUOUS
10
3.0896001574803149
20
-2.5444243307086611
11
3.0885357480314961
21
-2.5439834251968505
0
LINE
8
BLACK
6
CONTINUOUS
10
3.0885357480314961
20
-2.5439834251968505
11
3.0877211023622047
21
-2.543168779527559
0
LINE
8
BLACK
6
CONTINUOUS
10
3.0877211023622047
20
-2.543168779527559
11
3.0872801968503936
21
-2.5421043700787402
0
LINE
8
BLACK
6
CONTINUOUS
10
3.0872801968503936
20
-2.5421043700787402
11
3.0872801968503936
21
-2.5409522440944881
0
LINE
8
BLACK
6
CONTINUOUS
10
3.0872801968503936
20
-2.5409522440944881
11
3.0877211023622047
21
-2.5398878346456693
0
LINE
8
BLACK
6
CONTINUOUS
10
3.0877211023622047
20
-2.5398878346456693
11
3.0885357480314961
21
-2.5390731889763778
0
LINE
8
BLACK
6
CONTINUOUS
10
3.0885357480314961
20
-2.5390731889763778
11
3.0896001574803149
21
-2.5386322834645667
0
LINE
8
BLACK
6
CONTINUOUS
10
3.0896001574803149
20
-2.5386322834645667
11
3.0901762204724408
21
-2.5385755511811023
0
LINE
8
BLACK
6
CONTINUOUS
10
3.0901762204724408
20
-2.5385755511811023
11
3.0984720472440945
21
-2.5385755511811023
0
LINE
8
BLACK
6
CONTINUOUS
10
3.0984720472440945
20
-2.5385755511811023
11
3.0984720472440945
21
-2.5021582283464565
0
LINE
8
BLACK
6
CONTINUOUS
10
3.0984720472440945
20
-2.5021582283464565
11
3.0984722440944883
21
-2.5021561417322835
0
LINE
8
BLACK
6
CONTINUOUS
10
3.0984722440944883
20
-2.5021561417322835
11
3.0984720472440945
21
-2.5021551181102359
0
LINE
8
BLACK
6
CONTINUOUS
10
3.0984720472440945
20
-2.5021551181102359
11
3.0984726377952754
21
-2.5021520866141733
0
LINE
8
BLACK
6
CONTINUOUS
10
3.0984726377952754
20
-2.5021520866141733
11
3.0985287795275589
21
-2.5015821653543306
0
LINE
8
BLACK
6
CONTINUOUS
10
3.0985287795275589
20
-2.5015821653543306
11
3.0986406299212597
21
-2.5013120472440944
0
LINE
8
BLACK
6
CONTINUOUS
10
3.0986406299212597
20
-2.5013120472440944
11
3.0986979921259841
21
-2.5010254330708661
0
LINE
8
BLACK
6
CONTINUOUS
10
3.0986979921259841
20
-2.5010254330708661
11
3.0988589370078738
21
-2.5007850393700788
0
LINE
8
BLACK
6
CONTINUOUS
10
3.0988589370078738
20
-2.5007850393700788
11
3.09896968503937
21
-2.5005177559055118
0
LINE
8
BLACK
6
CONTINUOUS
10
3.09896968503937
20
-2.5005177559055118
11
3.0991763779527557
21
-2.5003110236220474
0
LINE
8
BLACK
6
CONTINUOUS
10
3.0991763779527557
20
-2.5003110236220474
11
3.0993390551181101
21
-2.5000681496062991
0
LINE
8
BLACK
6
CONTINUOUS
10
3.0993390551181101
20
-2.5000681496062991
11
3.0995797637795275
21
-2.4999076377952756
0
LINE
8
BLACK
6
CONTINUOUS
10
3.0995797637795275
20
-2.4999076377952756
11
3.0997843307086614
21
-2.4997031102362204
0
LINE
8
BLACK
6
CONTINUOUS
10
3.0997843307086614
20
-2.4997031102362204
11
3.1000544094488189
21
-2.4995912204724409
0
LINE
8
BLACK
6
CONTINUOUS
10
3.1000544094488189
20
-2.4995912204724409
11
3.1002976771653543
21
-2.4994290551181102
0
LINE
8
BLACK
6
CONTINUOUS
10
3.1002976771653543
20
-2.4994290551181102
11
3.1005814566929133
21
-2.4993729133858267
0
LINE
8
BLACK
6
CONTINUOUS
10
3.1005814566929133
20
-2.4993729133858267
11
3.1008487401574802
21
-2.4992622047244093
0
LINE
8
BLACK
6
CONTINUOUS
10
3.1008487401574802
20
-2.4992622047244093
11
3.1011411417322834
21
-2.4992622047244093
0
LINE
8
BLACK
6
CONTINUOUS
10
3.1011411417322834
20
-2.4992622047244093
11
3.1014279133858267
21
-2.4992054724409449
0
LINE
8
BLACK
6
CONTINUOUS
10
3.1014279133858267
20
-2.4992054724409449
11
3.1017115748031494
21
-2.4992622047244093
0
LINE
8
BLACK
6
CONTINUOUS
10
3.1311867716535433
20
-2.4997031102362204
11
3.1320014173228348
21
-2.5005177559055118
0
LINE
8
BLACK
6
CONTINUOUS
10
3.1320014173228348
20
-2.5005177559055118
11
3.1324423228346454
21
-2.5015821653543306
0
LINE
8
BLACK
6
CONTINUOUS
10
3.1324423228346454
20
-2.5015821653543306
11
3.1324990551181102
21
-2.5021582283464565
0
LINE
8
BLACK
6
CONTINUOUS
10
3.1324990551181102
20
-2.5021582283464565
11
3.1324990551181102
21
-2.5333321653543308
0
LINE
8
BLACK
6
CONTINUOUS
10
3.1324990551181102
20
-2.5333321653543308
11
3.1338477952755905
21
-2.5360296456692915
0
LINE
8
BLACK
6
CONTINUOUS
10
3.1338477952755905
20
-2.5360296456692915
11
3.1350449212598424
21
-2.537226811023622
0
LINE
8
BLACK
6
CONTINUOUS
10
3.1350449212598424
20
-2.537226811023622
11
3.137742401574803
21
-2.5385755511811023
0
LINE
8
BLACK
6
CONTINUOUS
10
3.137742401574803
20
-2.5385755511811023
11
3.1438473622047245
21
-2.5385755511811023
0
LINE
8
BLACK
6
CONTINUOUS
10
3.1438473622047245
20
-2.5385755511811023
11
3.1465448031496064
21
-2.537226811023622
0
LINE
8
BLACK
6
CONTINUOUS
10
3.1465448031496064
20
-2.537226811023622
11
3.1477419291338582
21
-2.5360296456692915
0
LINE
8
BLACK
6
CONTINUOUS
10
3.1477419291338582
20
-2.5360296456692915
11
3.1490907086614173
21
-2.5333321653543308
0
LINE
8
BLACK
6
CONTINUOUS
10
3.1490907086614173
20
-2.5333321653543308
11
3.1490907086614173
21
-2.5021582283464565
0
LINE
8
BLACK
6
CONTINUOUS
10
3.1490907086614173
20
-2.5021582283464565
11
3.1491474409448816
21
-2.5015821653543306
0
LINE
8
BLACK
6
CONTINUOUS
10
3.1491474409448816
20
-2.5015821653543306
11
3.1495883464566927
21
-2.5005177559055118
0
LINE
8
BLACK
6
CONTINUOUS
10
3.1495883464566927
20
-2.5005177559055118
11
3.1504029921259842
21
-2.4997031102362204
0
LINE
8
BLACK
6
CONTINUOUS
10
3.1504029921259842
20
-2.4997031102362204
11
3.151467401574803
21
-2.4992622047244093
0
LINE
8
BLACK
6
CONTINUOUS
10
3.151467401574803
20
-2.4992622047244093
11
3.1526195275590552
21
-2.4992622047244093
0
LINE
8
BLACK
6
CONTINUOUS
10
3.1526195275590552
20
-2.4992622047244093
11
3.153683937007874
21
-2.4997031102362204
0
LINE
8
BLACK
6
CONTINUOUS
10
3.153683937007874
20
-2.4997031102362204
11
3.1544985826771654
21
-2.5005177559055118
0
LINE
8
BLACK
6
CONTINUOUS
10
3.1544985826771654
20
-2.5005177559055118
11
3.1549394881889765
21
-2.5015821653543306
0
LINE
8
BLACK
6
CONTINUOUS
10
3.1549394881889765
20
-2.5015821653543306
11
3.1549962204724409
21
-2.5021582283464565
0
LINE
8
BLACK
6
CONTINUOUS
10
3.1549962204724409
20
-2.5021582283464565
11
3.1549962204724409
21
-2.534029212598425
0
LINE
8
BLACK
6
CONTINUOUS
10
3.1549962204724409
20
-2.534029212598425
11
3.1549394881889765
21
-2.5346052755905513
0
LINE
8
BLACK
6
CONTINUOUS
10
3.1549394881889765
20
-2.5346052755905513
11
3.1548988976377954
21
-2.5347032283464568
0
LINE
8
BLACK
6
CONTINUOUS
10
3.1548988976377954
20
-2.5347032283464568
11
3.1548913779527559
21
-2.5348091338582677
0
LINE
8
BLACK
6
CONTINUOUS
10
3.1548913779527559
20
-2.5348091338582677
11
3.1546844881889764
21
-2.5353497244094489
0
LINE
8
BLACK
6
CONTINUOUS
10
3.1546844881889764
20
-2.5353497244094489
11
3.1528097244094488
21
-2.5390992519685041
0
LINE
8
BLACK
6
CONTINUOUS
10
3.1528097244094488
20
-2.5390992519685041
11
3.1526536614173226
21
-2.5393471259842517
0
LINE
8
BLACK
6
CONTINUOUS
10
3.1526536614173226
20
-2.5393471259842517
11
3.1526238582677166
21
-2.5394191732283464
0
LINE
8
BLACK
6
CONTINUOUS
10
3.1526238582677166
20
-2.5394191732283464
11
3.1525573228346455
21
-2.5395001968503936
0
LINE
8
BLACK
6
CONTINUOUS
10
3.1525573228346455
20
-2.5395001968503936
11
3.1525013779527558
21
-2.5395891338582675
0
LINE
8
BLACK
6
CONTINUOUS
10
3.1525013779527558
20
-2.5395891338582675
11
3.1524423622047242
21
-2.5396402755905512
0
LINE
8
BLACK
6
CONTINUOUS
10
3.1524423622047242
20
-2.5396402755905512
11
3.1522566141732282
21
-2.539866653543307
0
LINE
8
BLACK
6
CONTINUOUS
10
3.1522566141732282
20
-2.539866653543307
11
3.1503818897637794
21
-2.5417414173228345
0
LINE
8
BLACK
6
CONTINUOUS
10
3.1503818897637794
20
-2.5417414173228345
11
3.1501555118110236
21
-2.5419271653543305
0
LINE
8
BLACK
6
CONTINUOUS
10
3.1501555118110236
20
-2.5419271653543305
11
3.1501043307086611
21
-2.5419862204724408
0
LINE
8
BLACK
6
CONTINUOUS
10
3.1501043307086611
20
-2.5419862204724408
11
3.1500153543307086
21
-2.5420422047244093
0
LINE
8
BLACK
6
CONTINUOUS
10
3.1500153543307086
20
-2.5420422047244093
11
3.1499344094488189
21
-2.5421086614173229
0
LINE
8
BLACK
6
CONTINUOUS
10
3.1499344094488189
20
-2.5421086614173229
11
3.1498624409448817
21
-2.5421384645669289
0
LINE
8
BLACK
6
CONTINUOUS
10
3.1498624409448817
20
-2.5421384645669289
11
3.1496144488188977
21
-2.5422945669291339
0
LINE
8
BLACK
6
CONTINUOUS
10
3.1496144488188977
20
-2.5422945669291339
11
3.1458649212598426
21
-2.5441693307086615
0
LINE
8
BLACK
6
CONTINUOUS
10
3.1458649212598426
20
-2.5441693307086615
11
3.1453242913385826
21
-2.5443762204724409
0
LINE
8
BLACK
6
CONTINUOUS
10
3.1453242913385826
20
-2.5443762204724409
11
3.1452184645669292
21
-2.5443837007874017
0
LINE
8
BLACK
6
CONTINUOUS
10
3.1452184645669292
20
-2.5443837007874017
11
3.1451204724409449
21
-2.5444243307086611
0
LINE
8
BLACK
6
CONTINUOUS
10
3.1451204724409449
20
-2.5444243307086611
11
3.1445444094488186
21
-2.544481062992126
0
LINE
8
BLACK
6
CONTINUOUS
10
3.1445444094488186
20
-2.544481062992126
11
3.1370453543307084
21
-2.544481062992126
0
LINE
8
BLACK
6
CONTINUOUS
10
3.1370453543307084
20
-2.544481062992126
11
3.1364692913385825
21
-2.5444243307086611
0
LINE
8
BLACK
6
CONTINUOUS
10
3.1364692913385825
20
-2.5444243307086611
11
3.1363712992125983
21
-2.5443837401574805
0
LINE
8
BLACK
6
CONTINUOUS
10
3.1363712992125983
20
-2.5443837401574805
11
3.1362654330708661
21
-2.5443762204724409
0
LINE
8
BLACK
6
CONTINUOUS
10
3.1362654330708661
20
-2.5443762204724409
11
3.1357248425196849
21
-2.5441693307086615
0
LINE
8
BLACK
6
CONTINUOUS
10
3.1357248425196849
20
-2.5441693307086615
11
3.1319753149606298
21
-2.5422945669291339
0
LINE
8
BLACK
6
CONTINUOUS
10
3.1319753149606298
20
-2.5422945669291339
11
3.1317272834645671
21
-2.5421384645669289
0
LINE
8
BLACK
6
CONTINUOUS
10
3.1317272834645671
20
-2.5421384645669289
11
3.1316553543307086
21
-2.5421086614173229
0
LINE
8
BLACK
6
CONTINUOUS
10
3.1316553543307086
20
-2.5421086614173229
11
3.1315743700787402
21
-2.5420422047244093
0
LINE
8
BLACK
6
CONTINUOUS
10
3.1315743700787402
20
-2.5420422047244093
11
3.1314854330708659
21
-2.5419862204724408
0
LINE
8
BLACK
6
CONTINUOUS
10
3.1314854330708659
20
-2.5419862204724408
11
3.1314342125984251
21
-2.5419271653543305
0
LINE
8
BLACK
6
CONTINUOUS
10
3.1314342125984251
20
-2.5419271653543305
11
3.1312078740157481
21
-2.5417414173228345
0
LINE
8
BLACK
6
CONTINUOUS
10
3.1312078740157481
20
-2.5417414173228345
11
3.1293331102362205
21
-2.5398666141732282
0
LINE
8
BLACK
6
CONTINUOUS
10
3.1293331102362205
20
-2.5398666141732282
11
3.1291473622047246
21
-2.5396402755905512
0
LINE
8
BLACK
6
CONTINUOUS
10
3.1291473622047246
20
-2.5396402755905512
11
3.1290883858267717
21
-2.5395891338582675
0
LINE
8
BLACK
6
CONTINUOUS
10
3.1290883858267717
20
-2.5395891338582675
11
3.1290324015748032
21
-2.5395001968503936
0
LINE
8
BLACK
6
CONTINUOUS
10
3.1290324015748032
20
-2.5395001968503936
11
3.1289659055118109
21
-2.5394191732283464
0
LINE
8
BLACK
6
CONTINUOUS
10
3.1289659055118109
20
-2.5394191732283464
11
3.1289360629921261
21
-2.5393471259842517
0
LINE
8
BLACK
6
CONTINUOUS
10
3.1289360629921261
20
-2.5393471259842517
11
3.1287800393700786
21
-2.5390992519685041
0
LINE
8
BLACK
6
CONTINUOUS
10
3.1287800393700786
20
-2.5390992519685041
11
3.1269052755905511
21
-2.5353497244094489
0
LINE
8
BLACK
6
CONTINUOUS
10
3.1269052755905511
20
-2.5353497244094489
11
3.1266983858267716
21
-2.5348090944881889
0
LINE
8
BLACK
6
CONTINUOUS
10
3.1266983858267716
20
-2.5348090944881889
11
3.1266908661417321
21
-2.5347032677165355
0
LINE
8
BLACK
6
CONTINUOUS
10
3.1266908661417321
20
-2.5347032677165355
11
3.126650275590551
21
-2.5346052755905513
0
LINE
8
BLACK
6
CONTINUOUS
10
3.126650275590551
20
-2.5346052755905513
11
3.1265935433070866
21
-2.534029212598425
0
LINE
8
BLACK
6
CONTINUOUS
10
3.1265935433070866
20
-2.534029212598425
11
3.1265935433070866
21
-2.5021582283464565
0
LINE
8
BLACK
6
CONTINUOUS
10
3.1265935433070866
20
-2.5021582283464565
11
3.126650275590551
21
-2.5015821653543306
0
LINE
8
BLACK
6
CONTINUOUS
10
3.126650275590551
20
-2.5015821653543306
11
3.1270911811023621
21
-2.5005177559055118
0
LINE
8
BLACK
6
CONTINUOUS
10
3.1270911811023621
20
-2.5005177559055118
11
3.1279058267716535
21
-2.4997031102362204
0
LINE
8
BLACK
6
CONTINUOUS
10
3.1279058267716535
20
-2.4997031102362204
11
3.1289702362204723
21
-2.4992622047244093
0
LINE
8
BLACK
6
CONTINUOUS
10
3.1289702362204723
20
-2.4992622047244093
11
3.1301223622047245
21
-2.4992622047244093
0
LINE
8
BLACK
6
CONTINUOUS
10
3.1301223622047245
20
-2.4992622047244093
11
3.1311867716535433
21
-2.4997031102362204
0
LINE
8
BLACK
6
CONTINUOUS
10
3.4035442913385827
20
-2.5267546062992126
11
3.404822716535433
21
-2.5280330314960628
0
LINE
8
BLACK
6
CONTINUOUS
10
3.404822716535433
20
-2.5280330314960628
11
3.404822716535433
21
-2.5298409842519685
0
LINE
8
BLACK
6
CONTINUOUS
10
3.404822716535433
20
-2.5298409842519685
11
3.4035442913385827
21
-2.5311194094488187
0
LINE
8
BLACK
6
CONTINUOUS
10
3.4035442913385827
20
-2.5311194094488187
11
3.4026403149606299
21
-2.5312992125984253
0
LINE
8
BLACK
6
CONTINUOUS
10
3.4026403149606299
20
-2.5312992125984253
11
3.3847612598425196
21
-2.5312992125984253
0
LINE
8
BLACK
6
CONTINUOUS
10
3.3847612598425196
20
-2.5312992125984253
11
3.3838572834645668
21
-2.5311194094488187
0
LINE
8
BLACK
6
CONTINUOUS
10
3.3838572834645668
20
-2.5311194094488187
11
3.3825788582677165
21
-2.5298409842519685
0
LINE
8
BLACK
6
CONTINUOUS
10
3.3825788582677165
20
-2.5298409842519685
11
3.3825788582677165
21
-2.5280330314960628
0
LINE
8
BLACK
6
CONTINUOUS
10
3.3825788582677165
20
-2.5280330314960628
11
3.3838572834645668
21
-2.5267546062992126
0
LINE
8
BLACK
6
CONTINUOUS
10
3.3838572834645668
20
-2.5267546062992126
11
3.3847612598425196
21
-2.526574803149606
0
LINE
8
BLACK
6
CONTINUOUS
10
3.3847612598425196
20
-2.526574803149606
11
3.4026403149606299
21
-2.526574803149606
0
LINE
8
BLACK
6
CONTINUOUS
10
3.4026403149606299
20
-2.526574803149606
11
3.4035442913385827
21
-2.5267546062992126
0
LINE
8
BLACK
6
CONTINUOUS
10
3.4035442913385827
20
-2.4688805905511813
11
3.404822716535433
21
-2.4701590157480315
0
LINE
8
BLACK
6
CONTINUOUS
10
3.404822716535433
20
-2.4701590157480315
11
3.404822716535433
21
-2.4719669685039372
0
LINE
8
BLACK
6
CONTINUOUS
10
3.404822716535433
20
-2.4719669685039372
11
3.4035442913385827
21
-2.4732453937007874
0
LINE
8
BLACK
6
CONTINUOUS
10
3.4035442913385827
20
-2.4732453937007874
11
3.4026403149606299
21
-2.4734251968503935
0
LINE
8
BLACK
6
CONTINUOUS
10
3.4026403149606299
20
-2.4734251968503935
11
3.3847612598425196
21
-2.4734251968503935
0
LINE
8
BLACK
6
CONTINUOUS
10
3.3847612598425196
20
-2.4734251968503935
11
3.3838572834645668
21
-2.4732453937007874
0
LINE
8
BLACK
6
CONTINUOUS
10
3.3838572834645668
20
-2.4732453937007874
11
3.3825788582677165
21
-2.4719669685039372
0
LINE
8
BLACK
6
CONTINUOUS
10
3.3825788582677165
20
-2.4719669685039372
11
3.3825788582677165
21
-2.4701590157480315
0
LINE
8
BLACK
6
CONTINUOUS
10
3.3825788582677165
20
-2.4701590157480315
11
3.3838572834645668
21
-2.4688805905511813
0
LINE
8
BLACK
6
CONTINUOUS
10
3.3838572834645668
20
-2.4688805905511813
11
3.3847612598425196
21
-2.4687007874015747
0
LINE
8
BLACK
6
CONTINUOUS
10
3.3847612598425196
20
-2.4687007874015747
11
3.4026403149606299
21
-2.4687007874015747
0
LINE
8
BLACK
6
CONTINUOUS
10
3.4026403149606299
20
-2.4687007874015747
11
3.4035442913385827
21
-2.4688805905511813
0
LINE
8
BLACK
6
CONTINUOUS
10
3.3743024803149604
20
-2.412648031496063
11
3.3745917716535434
21
-2.412648031496063
0
LINE
8
BLACK
6
CONTINUOUS
10
3.3745917716535434
20
-2.412648031496063
11
3.3748618503937009
21
-2.4127598818897638
0
LINE
8
BLACK
6
CONTINUOUS
10
3.3748618503937009
20
-2.4127598818897638
11
3.3751485039370079
21
-2.4128172440944882
0
LINE
8
BLACK
6
CONTINUOUS
10
3.3751485039370079
20
-2.4128172440944882
11
3.3753888582677165
21
-2.4129781889763779
0
LINE
8
BLACK
6
CONTINUOUS
10
3.3753888582677165
20
-2.4129781889763779
11
3.3756561811023622
21
-2.4130889370078741
0
LINE
8
BLACK
6
CONTINUOUS
10
3.3756561811023622
20
-2.4130889370078741
11
3.3758628740157479
21
-2.4132956299212598
0
LINE
8
BLACK
6
CONTINUOUS
10
3.3758628740157479
20
-2.4132956299212598
11
3.3761057874015745
21
-2.4134583070866142
0
LINE
8
BLACK
6
CONTINUOUS
10
3.3761057874015745
20
-2.4134583070866142
11
3.376468779527559
21
-2.4139015354330708
0
LINE
8
BLACK
6
CONTINUOUS
10
3.376468779527559
20
-2.4139015354330708
11
3.3764708267716537
21
-2.4139035826771651
0
LINE
8
BLACK
6
CONTINUOUS
10
3.3764708267716537
20
-2.4139035826771651
11
3.376471181102362
21
-2.4139044488188977
0
LINE
8
BLACK
6
CONTINUOUS
10
3.376471181102362
20
-2.4139044488188977
11
3.3764725590551179
21
-2.4139061417322836
0
LINE
8
BLACK
6
CONTINUOUS
10
3.3764725590551179
20
-2.4139061417322836
11
3.3800598818897636
21
-2.4192871653543309
0
LINE
8
BLACK
6
CONTINUOUS
10
3.3800598818897636
20
-2.4192871653543309
11
3.3832638582677164
21
-2.4224911417322832
0
LINE
8
BLACK
6
CONTINUOUS
10
3.3832638582677164
20
-2.4224911417322832
11
3.3865848031496064
21
-2.4241516141732284
0
LINE
8
BLACK
6
CONTINUOUS
10
3.3865848031496064
20
-2.4241516141732284
11
3.3870746850393698
21
-2.4244599606299211
0
LINE
8
BLACK
6
CONTINUOUS
10
3.3870746850393698
20
-2.4244599606299211
11
3.3878295275590551
21
-2.4253303543307085
0
LINE
8
BLACK
6
CONTINUOUS
10
3.3878295275590551
20
-2.4253303543307085
11
3.3881938582677162
21
-2.4264233070866141
0
LINE
8
BLACK
6
CONTINUOUS
10
3.3881938582677162
20
-2.4264233070866141
11
3.3881122047244094
21
-2.4275725196850395
0
LINE
8
BLACK
6
CONTINUOUS
10
3.3881122047244094
20
-2.4275725196850395
11
3.3875969291338581
21
-2.4286030314960629
0
LINE
8
BLACK
6
CONTINUOUS
10
3.3875969291338581
20
-2.4286030314960629
11
3.3867265748031494
21
-2.4293578740157478
0
LINE
8
BLACK
6
CONTINUOUS
10
3.3867265748031494
20
-2.4293578740157478
11
3.3856335826771651
21
-2.4297222047244094
0
LINE
8
BLACK
6
CONTINUOUS
10
3.3856335826771651
20
-2.4297222047244094
11
3.3844843700787401
21
-2.4296405511811021
0
LINE
8
BLACK
6
CONTINUOUS
10
3.3844843700787401
20
-2.4296405511811021
11
3.3839437795275589
21
-2.4294336614173226
0
LINE
8
BLACK
6
CONTINUOUS
10
3.3839437795275589
20
-2.4294336614173226
11
3.3801942519685038
21
-2.4275588976377951
0
LINE
8
BLACK
6
CONTINUOUS
10
3.3801942519685038
20
-2.4275588976377951
11
3.3799464173228344
21
-2.4274028740157481
0
LINE
8
BLACK
6
CONTINUOUS
10
3.3799464173228344
20
-2.4274028740157481
11
3.3798742913385826
21
-2.4273730314960629
0
LINE
8
BLACK
6
CONTINUOUS
10
3.3798742913385826
20
-2.4273730314960629
11
3.3797931102362204
21
-2.4273064173228347
0
LINE
8
BLACK
6
CONTINUOUS
10
3.3797931102362204
20
-2.4273064173228347
11
3.3797043700787399
21
-2.4272505511811024
0
LINE
8
BLACK
6
CONTINUOUS
10
3.3797043700787399
20
-2.4272505511811024
11
3.3796532283464567
21
-2.4271916141732284
0
LINE
8
BLACK
6
CONTINUOUS
10
3.3796532283464567
20
-2.4271916141732284
11
3.3794268503937008
21
-2.4270057874015749
0
LINE
8
BLACK
6
CONTINUOUS
10
3.3794268503937008
20
-2.4270057874015749
11
3.3769684645669291
21
-2.4245474015748032
0
LINE
8
BLACK
6
CONTINUOUS
10
3.3769684645669291
20
-2.4245474015748032
11
3.3769684645669291
21
-2.451961377952756
0
LINE
8
BLACK
6
CONTINUOUS
10
3.3769684645669291
20
-2.451961377952756
11
3.3852642913385824
21
-2.451961377952756
0
LINE
8
BLACK
6
CONTINUOUS
10
3.3852642913385824
20
-2.451961377952756
11
3.3858403543307087
21
-2.4520181102362204
0
LINE
8
BLACK
6
CONTINUOUS
10
3.3858403543307087
20
-2.4520181102362204
11
3.3869047637795275
21
-2.4524590157480315
0
LINE
8
BLACK
6
CONTINUOUS
10
3.3869047637795275
20
-2.4524590157480315
11
3.387719409448819
21
-2.4532736614173229
0
LINE
8
BLACK
6
CONTINUOUS
10
3.387719409448819
20
-2.4532736614173229
11
3.3881603149606296
21
-2.4543380708661418
0
LINE
8
BLACK
6
CONTINUOUS
10
3.3881603149606296
20
-2.4543380708661418
11
3.3881603149606296
21
-2.4554901968503935
0
LINE
8
BLACK
6
CONTINUOUS
10
3.3881603149606296
20
-2.4554901968503935
11
3.387719409448819
21
-2.4565546062992127
0
LINE
8
BLACK
6
CONTINUOUS
10
3.387719409448819
20
-2.4565546062992127
11
3.3869047637795275
21
-2.4573692519685038
0
LINE
8
BLACK
6
CONTINUOUS
10
3.3869047637795275
20
-2.4573692519685038
11
3.3858403543307087
21
-2.4578101574803148
0
LINE
8
BLACK
6
CONTINUOUS
10
3.3858403543307087
20
-2.4578101574803148
11
3.3852642913385824
21
-2.4578668897637796
0
LINE
8
BLACK
6
CONTINUOUS
10
3.3852642913385824
20
-2.4578668897637796
11
3.3627671259842518
21
-2.4578668897637796
0
LINE
8
BLACK
6
CONTINUOUS
10
3.3627671259842518
20
-2.4578668897637796
11
3.3621910629921259
21
-2.4578101574803148
0
LINE
8
BLACK
6
CONTINUOUS
10
3.3621910629921259
20
-2.4578101574803148
11
3.3611266535433071
21
-2.4573692519685038
0
LINE
8
BLACK
6
CONTINUOUS
10
3.3611266535433071
20
-2.4573692519685038
11
3.3603120078740156
21
-2.4565546062992127
0
LINE
8
BLACK
6
CONTINUOUS
10
3.3603120078740156
20
-2.4565546062992127
11
3.3598711023622045
21
-2.4554901968503935
0
LINE
8
BLACK
6
CONTINUOUS
10
3.3598711023622045
20
-2.4554901968503935
11
3.3598711023622045
21
-2.4543380708661418
0
LINE
8
BLACK
6
CONTINUOUS
10
3.3598711023622045
20
-2.4543380708661418
11
3.3603120078740156
21
-2.4532736614173229
0
LINE
8
BLACK
6
CONTINUOUS
10
3.3603120078740156
20
-2.4532736614173229
11
3.3611266535433071
21
-2.4524590157480315
0
LINE
8
BLACK
6
CONTINUOUS
10
3.3611266535433071
20
-2.4524590157480315
11
3.3621910629921259
21
-2.4520181102362204
0
LINE
8
BLACK
6
CONTINUOUS
10
3.3621910629921259
20
-2.4520181102362204
11
3.3627671259842518
21
-2.451961377952756
0
LINE
8
BLACK
6
CONTINUOUS
10
3.3627671259842518
20
-2.451961377952756
11
3.3710629527559055
21
-2.451961377952756
0
LINE
8
BLACK
6
CONTINUOUS
10
3.3710629527559055
20
-2.451961377952756
11
3.3710629527559055
21
-2.4155440551181102
0
LINE
8
BLACK
6
CONTINUOUS
10
3.3710629527559055
20
-2.4155440551181102
11
3.3710631496062993
21
-2.4155419685039368
0
LINE
8
BLACK
6
CONTINUOUS
10
3.3710631496062993
20
-2.4155419685039368
11
3.3710629527559055
21
-2.4155409448818896
0
LINE
8
BLACK
6
CONTINUOUS
10
3.3710629527559055
20
-2.4155409448818896
11
3.3710635433070864
21
-2.4155379133858266
0
LINE
8
BLACK
6
CONTINUOUS
10
3.3710635433070864
20
-2.4155379133858266
11
3.3711196850393699
21
-2.4149679921259843
0
LINE
8
BLACK
6
CONTINUOUS
10
3.3711196850393699
20
-2.4149679921259843
11
3.3712315354330706
21
-2.4146978740157481
0
LINE
8
BLACK
6
CONTINUOUS
10
3.3712315354330706
20
-2.4146978740157481
11
3.371288897637795
21
-2.4144112598425198
0
LINE
8
BLACK
6
CONTINUOUS
10
3.371288897637795
20
-2.4144112598425198
11
3.3714498425196848
21
-2.414170866141732
0
LINE
8
BLACK
6
CONTINUOUS
10
3.3714498425196848
20
-2.414170866141732
11
3.371560590551181
21
-2.4139035826771651
0
LINE
8
BLACK
6
CONTINUOUS
10
3.371560590551181
20
-2.4139035826771651
11
3.3717672834645667
21
-2.4136968503937006
0
LINE
8
BLACK
6
CONTINUOUS
10
3.3717672834645667
20
-2.4136968503937006
11
3.3719299606299211
21
-2.4134539763779528
0
LINE
8
BLACK
6
CONTINUOUS
10
3.3719299606299211
20
-2.4134539763779528
11
3.3721706692913385
21
-2.4132934645669293
0
LINE
8
BLACK
6
CONTINUOUS
10
3.3721706692913385
20
-2.4132934645669293
11
3.3723752362204724
21
-2.4130889370078741
0
LINE
8
BLACK
6
CONTINUOUS
10
3.3723752362204724
20
-2.4130889370078741
11
3.3726453149606299
21
-2.4129770472440946
0
LINE
8
BLACK
6
CONTINUOUS
10
3.3726453149606299
20
-2.4129770472440946
11
3.3728885826771653
21
-2.4128148818897639
0
LINE
8
BLACK
6
CONTINUOUS
10
3.3728885826771653
20
-2.4128148818897639
11
3.3731723622047243
21
-2.4127587401574804
0
LINE
8
BLACK
6
CONTINUOUS
10
3.3731723622047243
20
-2.4127587401574804
11
3.3734396456692912
21
-2.412648031496063
0
LINE
8
BLACK
6
CONTINUOUS
10
3.3734396456692912
20
-2.412648031496063
11
3.3737320472440944
21
-2.412648031496063
0
LINE
8
BLACK
6
CONTINUOUS
10
3.3737320472440944
20
-2.412648031496063
11
3.3740188188976377
21
-2.4125912992125982
0
LINE
8
BLACK
6
CONTINUOUS
10
3.3740188188976377
20
-2.4125912992125982
11
3.3743024803149604
21
-2.412648031496063
0
LINE
8
BLACK
6
CONTINUOUS
10
3.4233356692913386
20
-2.412648031496063
11
3.4244000787401574
21
-2.4130889370078741
0
LINE
8
BLACK
6
CONTINUOUS
10
3.4244000787401574
20
-2.4130889370078741
11
3.4252147244094489
21
-2.4139035826771651
0
LINE
8
BLACK
6
CONTINUOUS
10
3.4252147244094489
20
-2.4139035826771651
11
3.4256556299212599
21
-2.4149679921259843
0
LINE
8
BLACK
6
CONTINUOUS
10
3.4256556299212599
20
-2.4149679921259843
11
3.4257123622047243
21
-2.4155440551181102
0
LINE
8
BLACK
6
CONTINUOUS
10
3.4257123622047243
20
-2.4155440551181102
11
3.4257123622047243
21
-2.4549141338582676
0
LINE
8
BLACK
6
CONTINUOUS
10
3.4257123622047243
20
-2.4549141338582676
11
3.4256556299212599
21
-2.4554901968503935
0
LINE
8
BLACK
6
CONTINUOUS
10
3.4256556299212599
20
-2.4554901968503935
11
3.4252147244094489
21
-2.4565546062992127
0
LINE
8
BLACK
6
CONTINUOUS
10
3.4252147244094489
20
-2.4565546062992127
11
3.4244000787401574
21
-2.4573692519685038
0
LINE
8
BLACK
6
CONTINUOUS
10
3.4244000787401574
20
-2.4573692519685038
11
3.4233356692913386
21
-2.4578101574803148
0
LINE
8
BLACK
6
CONTINUOUS
10
3.4233356692913386
20
-2.4578101574803148
11
3.4221835433070864
21
-2.4578101574803148
0
LINE
8
BLACK
6
CONTINUOUS
10
3.4221835433070864
20
-2.4578101574803148
11
3.4211191338582676
21
-2.4573692519685038
0
LINE
8
BLACK
6
CONTINUOUS
10
3.4211191338582676
20
-2.4573692519685038
11
3.4203044881889761
21
-2.4565546062992127
0
LINE
8
BLACK
6
CONTINUOUS
10
3.4203044881889761
20
-2.4565546062992127
11
3.4198635826771651
21
-2.4554901968503935
0
LINE
8
BLACK
6
CONTINUOUS
10
3.4198635826771651
20
-2.4554901968503935
11
3.4198068503937007
21
-2.4549141338582676
0
LINE
8
BLACK
6
CONTINUOUS
10
3.4198068503937007
20
-2.4549141338582676
11
3.4198068503937007
21
-2.4391192125984253
0
LINE
8
BLACK
6
CONTINUOUS
10
3.4198068503937007
20
-2.4391192125984253
11
3.4149231496062993
21
-2.4391192125984253
0
LINE
8
BLACK
6
CONTINUOUS
10
3.4149231496062993
20
-2.4391192125984253
11
3.4026814173228344
21
-2.4566074409448819
0
LINE
8
BLACK
6
CONTINUOUS
10
3.4026814173228344
20
-2.4566074409448819
11
3.4023046062992126
21
-2.4570468110236221
0
LINE
8
BLACK
6
CONTINUOUS
10
3.4023046062992126
20
-2.4570468110236221
11
3.4013329921259841
21
-2.4576659842519684
0
LINE
8
BLACK
6
CONTINUOUS
10
3.4013329921259841
20
-2.4576659842519684
11
3.400198464566929
21
-2.4578661811023621
0
LINE
8
BLACK
6
CONTINUOUS
10
3.400198464566929
20
-2.4578661811023621
11
3.3990736220472439
21
-2.4576170078740156
0
LINE
8
BLACK
6
CONTINUOUS
10
3.3990736220472439
20
-2.4576170078740156
11
3.3981297637795276
21
-2.4569562992125982
0
LINE
8
BLACK
6
CONTINUOUS
10
3.3981297637795276
20
-2.4569562992125982
11
3.3975105905511809
21
-2.4559846850393701
0
LINE
8
BLACK
6
CONTINUOUS
10
3.3975105905511809
20
-2.4559846850393701
11
3.3973103937007871
21
-2.454850157480315
0
LINE
8
BLACK
6
CONTINUOUS
10
3.3973103937007871
20
-2.454850157480315
11
3.3975595669291336
21
-2.45372531496063
0
LINE
8
BLACK
6
CONTINUOUS
10
3.3975595669291336
20
-2.45372531496063
11
3.3978434645669289
21
-2.4532208267716533
0
LINE
8
BLACK
6
CONTINUOUS
10
3.3978434645669289
20
-2.4532208267716533
11
3.4077175984251968
21
-2.4391148818897639
0
LINE
8
BLACK
6
CONTINUOUS
10
3.4077175984251968
20
-2.4391148818897639
11
3.407185433070866
21
-2.4390624803149605
0
LINE
8
BLACK
6
CONTINUOUS
10
3.407185433070866
20
-2.4390624803149605
11
3.4070874409448817
21
-2.4390218897637794
0
LINE
8
BLACK
6
CONTINUOUS
10
3.4070874409448817
20
-2.4390218897637794
11
3.4069815748031496
21
-2.4390143700787399
0
LINE
8
BLACK
6
CONTINUOUS
10
3.4069815748031496
20
-2.4390143700787399
11
3.4064409842519683
21
-2.4388074803149604
0
LINE
8
BLACK
6
CONTINUOUS
10
3.4064409842519683
20
-2.4388074803149604
11
3.4026914566929132
21
-2.4369327165354329
0
LINE
8
BLACK
6
CONTINUOUS
10
3.4026914566929132
20
-2.4369327165354329
11
3.4024434251968505
21
-2.4367766141732283
0
LINE
8
BLACK
6
CONTINUOUS
10
3.4024434251968505
20
-2.4367766141732283
11
3.4023714960629921
21
-2.4367468110236219
0
LINE
8
BLACK
6
CONTINUOUS
10
3.4023714960629921
20
-2.4367468110236219
11
3.4022905118110236
21
-2.43668031496063
0
LINE
8
BLACK
6
CONTINUOUS
10
3.4022905118110236
20
-2.43668031496063
11
3.4022015748031493
21
-2.4366243700787402
0
LINE
8
BLACK
6
CONTINUOUS
10
3.4022015748031493
20
-2.4366243700787402
11
3.4021503937007873
21
-2.4365653543307086
0
LINE
8
BLACK
6
CONTINUOUS
10
3.4021503937007873
20
-2.4365653543307086
11
3.4019240551181102
21
-2.4363796062992127
0
LINE
8
BLACK
6
CONTINUOUS
10
3.4019240551181102
20
-2.4363796062992127
11
3.4000492913385827
21
-2.4345048425196851
0
LINE
8
BLACK
6
CONTINUOUS
10
3.4000492913385827
20
-2.4345048425196851
11
3.399863503937008
21
-2.4342784645669289
0
LINE
8
BLACK
6
CONTINUOUS
10
3.399863503937008
20
-2.4342784645669289
11
3.3998045275590552
21
-2.4342273228346456
0
LINE
8
BLACK
6
CONTINUOUS
10
3.3998045275590552
20
-2.4342273228346456
11
3.3997485433070866
21
-2.434138346456693
0
LINE
8
BLACK
6
CONTINUOUS
10
3.3997485433070866
20
-2.434138346456693
11
3.399682086614173
21
-2.4340574015748029
0
LINE
8
BLACK
6
CONTINUOUS
10
3.399682086614173
20
-2.4340574015748029
11
3.3996522440944883
21
-2.4339854330708661
0
LINE
8
BLACK
6
CONTINUOUS
10
3.3996522440944883
20
-2.4339854330708661
11
3.3994961811023621
21
-2.4337374409448818
0
LINE
8
BLACK
6
CONTINUOUS
10
3.3994961811023621
20
-2.4337374409448818
11
3.3976214173228345
21
-2.4299879133858266
0
LINE
8
BLACK
6
CONTINUOUS
10
3.3976214173228345
20
-2.4299879133858266
11
3.397414527559055
21
-2.4294472834645671
0
LINE
8
BLACK
6
CONTINUOUS
10
3.397414527559055
20
-2.4294472834645671
11
3.3974070078740155
21
-2.4293414566929132
0
LINE
8
BLACK
6
CONTINUOUS
10
3.3974070078740155
20
-2.4293414566929132
11
3.3973664173228344
21
-2.429243464566929
0
LINE
8
BLACK
6
CONTINUOUS
10
3.3973664173228344
20
-2.429243464566929
11
3.39730968503937
21
-2.4286674015748031
0
LINE
8
BLACK
6
CONTINUOUS
10
3.39730968503937
20
-2.4286674015748031
11
3.39730968503937
21
-2.4230431102362204
0
LINE
8
BLACK
6
CONTINUOUS
10
3.39730968503937
20
-2.4230431102362204
11
3.3973664173228344
21
-2.4224670472440946
0
LINE
8
BLACK
6
CONTINUOUS
10
3.3973664173228344
20
-2.4224670472440946
11
3.3974070078740155
21
-2.4223690157480315
0
LINE
8
BLACK
6
CONTINUOUS
10
3.3974070078740155
20
-2.4223690157480315
11
3.397414527559055
21
-2.4222632283464565
0
LINE
8
BLACK
6
CONTINUOUS
10
3.397414527559055
20
-2.4222632283464565
11
3.3976214173228345
21
-2.4217225984251969
0
LINE
8
BLACK
6
CONTINUOUS
10
3.3976214173228345
20
-2.4217225984251969
11
3.3994961811023621
21
-2.4179730708661418
0
LINE
8
BLACK
6
CONTINUOUS
10
3.3994961811023621
20
-2.4179730708661418
11
3.3996522440944883
21
-2.4177250393700787
0
LINE
8
BLACK
6
CONTINUOUS
10
3.3996522440944883
20
-2.4177250393700787
11
3.399682086614173
21
-2.4176531102362202
0
LINE
8
BLACK
6
CONTINUOUS
10
3.399682086614173
20
-2.4176531102362202
11
3.3997485433070866
21
-2.4175721259842518
0
LINE
8
BLACK
6
CONTINUOUS
10
3.3997485433070866
20
-2.4175721259842518
11
3.3998045275590552
21
-2.4174831889763779
0
LINE
8
BLACK
6
CONTINUOUS
10
3.3998045275590552
20
-2.4174831889763779
11
3.399863503937008
21
-2.4174320078740159
0
LINE
8
BLACK
6
CONTINUOUS
10
3.399863503937008
20
-2.4174320078740159
11
3.4000492913385827
21
-2.4172056692913384
0
LINE
8
BLACK
6
CONTINUOUS
10
3.4000492913385827
20
-2.4172056692913384
11
3.4019240551181102
21
-2.4153309055118108
0
LINE
8
BLACK
6
CONTINUOUS
10
3.4019240551181102
20
-2.4153309055118108
11
3.4021503937007873
21
-2.4151451181102361
0
LINE
8
BLACK
6
CONTINUOUS
10
3.4021503937007873
20
-2.4151451181102361
11
3.4022015748031493
21
-2.4150861417322833
0
LINE
8
BLACK
6
CONTINUOUS
10
3.4022015748031493
20
-2.4150861417322833
11
3.4022905118110236
21
-2.4150301574803148
0
LINE
8
BLACK
6
CONTINUOUS
10
3.4022905118110236
20
-2.4150301574803148
11
3.4023714960629921
21
-2.4149637007874016
0
LINE
8
BLACK
6
CONTINUOUS
10
3.4023714960629921
20
-2.4149637007874016
11
3.4024434251968505
21
-2.4149338582677164
0
LINE
8
BLACK
6
CONTINUOUS
10
3.4024434251968505
20
-2.4149338582677164
11
3.4026914566929132
21
-2.4147777952755907
0
LINE
8
BLACK
6
CONTINUOUS
10
3.4026914566929132
20
-2.4147777952755907
11
3.4064409842519683
21
-2.4129030314960631
0
LINE
8
BLACK
6
CONTINUOUS
10
3.4064409842519683
20
-2.4129030314960631
11
3.4069815748031496
21
-2.4126961417322832
0
LINE
8
BLACK
6
CONTINUOUS
10
3.4069815748031496
20
-2.4126961417322832
11
3.4070874409448817
21
-2.4126885826771653
0
LINE
8
BLACK
6
CONTINUOUS
10
3.4070874409448817
20
-2.4126885826771653
11
3.407185433070866
21
-2.412648031496063
0
LINE
8
BLACK
6
CONTINUOUS
10
3.407185433070866
20
-2.412648031496063
11
3.4077614960629918
21
-2.4125912992125982
0
LINE
8
BLACK
6
CONTINUOUS
10
3.4077614960629918
20
-2.4125912992125982
11
3.4227596062992127
21
-2.4125912992125982
0
LINE
8
BLACK
6
CONTINUOUS
10
3.4227596062992127
20
-2.4125912992125982
11
3.4233356692913386
21
-2.412648031496063
0
LINE
8
BLACK
6
CONTINUOUS
10
3.4057610629921258
20
-2.4198455511811021
11
3.404563937007874
21
-2.4210426771653544
0
LINE
8
BLACK
6
CONTINUOUS
10
3.404563937007874
20
-2.4210426771653544
11
3.4032151968503936
21
-2.423740157480315
0
LINE
8
BLACK
6
CONTINUOUS
10
3.4032151968503936
20
-2.423740157480315
11
3.4032151968503936
21
-2.4279703543307085
0
LINE
8
BLACK
6
CONTINUOUS
10
3.4032151968503936
20
-2.4279703543307085
11
3.404563937007874
21
-2.4306678346456692
0
LINE
8
BLACK
6
CONTINUOUS
10
3.404563937007874
20
-2.4306678346456692
11
3.4057610629921258
21
-2.4318649606299214
0
LINE
8
BLACK
6
CONTINUOUS
10
3.4057610629921258
20
-2.4318649606299214
11
3.4084585433070864
21
-2.4332137007874017
0
LINE
8
BLACK
6
CONTINUOUS
10
3.4084585433070864
20
-2.4332137007874017
11
3.4198068503937007
21
-2.4332137007874017
0
LINE
8
BLACK
6
CONTINUOUS
10
3.4198068503937007
20
-2.4332137007874017
11
3.4198068503937007
21
-2.4184968110236218
0
LINE
8
BLACK
6
CONTINUOUS
10
3.4198068503937007
20
-2.4184968110236218
11
3.4084585433070864
21
-2.4184968110236218
0
LINE
8
BLACK
6
CONTINUOUS
10
3.4084585433070864
20
-2.4184968110236218
11
3.4057610629921258
21
-2.4198455511811021
0
LINE
8
BLACK
6
CONTINUOUS
10
3.271945905511811
20
-2.4148651181102361
11
3.2726377952755903
21
-2.4165354330708659
0
LINE
8
BLACK
6
CONTINUOUS
10
3.2726377952755903
20
-2.4165354330708659
11
3.2721859842519683
21
-2.4179248031496061
0
LINE
8
BLACK
6
CONTINUOUS
10
3.2721859842519683
20
-2.4179248031496061
11
3.2627371653543307
21
-2.4309169291338582
0
LINE
8
BLACK
6
CONTINUOUS
10
3.2627371653543307
20
-2.4309169291338582
11
3.2611951968503936
21
-2.431860866141732
0
LINE
8
BLACK
6
CONTINUOUS
10
3.2611951968503936
20
-2.431860866141732
11
3.2594374015748029
21
-2.4314379527559056
0
LINE
8
BLACK
6
CONTINUOUS
10
3.2594374015748029
20
-2.4314379527559056
11
3.2589163779527559
21
-2.4309169291338582
0
LINE
8
BLACK
6
CONTINUOUS
10
3.2589163779527559
20
-2.4309169291338582
11
3.2494675590551179
21
-2.4179248031496061
0
LINE
8
BLACK
6
CONTINUOUS
10
3.2494675590551179
20
-2.4179248031496061
11
3.2490446456692914
21
-2.4161670078740158
0
LINE
8
BLACK
6
CONTINUOUS
10
3.2490446456692914
20
-2.4161670078740158
11
3.2499885826771653
21
-2.4146250393700788
0
LINE
8
BLACK
6
CONTINUOUS
10
3.2499885826771653
20
-2.4146250393700788
11
3.2513779527559055
21
-2.4141732283464568
0
LINE
8
BLACK
6
CONTINUOUS
10
3.2513779527559055
20
-2.4141732283464568
11
3.2702755905511811
21
-2.4141732283464568
0
LINE
8
BLACK
6
CONTINUOUS
10
3.2702755905511811
20
-2.4141732283464568
11
3.271945905511811
21
-2.4148651181102361
0
LINE
8
BLACK
6
CONTINUOUS
10
3.122047244094488
20
-2.4165354330708659
11
3.2307086614173226
21
-2.4165354330708659
0
LINE
8
BLACK
6
CONTINUOUS
10
3.2307086614173226
20
-2.4165354330708659
11
3.2316126377952754
21
-2.4167152362204725
0
LINE
8
BLACK
6
CONTINUOUS
10
3.2316126377952754
20
-2.4167152362204725
11
3.2328910629921257
21
-2.4179936614173227
0
LINE
8
BLACK
6
CONTINUOUS
10
3.2328910629921257
20
-2.4179936614173227
11
3.2330708661417322
21
-2.4188976377952756
0
LINE
8
BLACK
6
CONTINUOUS
10
3.2330708661417322
20
-2.4188976377952756
11
3.2330708661417322
21
-2.429527559055118
0
LINE
8
BLACK
6
CONTINUOUS
10
3.2330708661417322
20
-2.429527559055118
11
3.2328910629921257
21
-2.4304315354330708
0
LINE
8
BLACK
6
CONTINUOUS
10
3.2328910629921257
20
-2.4304315354330708
11
3.2316126377952754
21
-2.4317099606299211
0
LINE
8
BLACK
6
CONTINUOUS
10
3.2316126377952754
20
-2.4317099606299211
11
3.2298046850393698
21
-2.4317099606299211
0
LINE
8
BLACK
6
CONTINUOUS
10
3.2298046850393698
20
-2.4317099606299211
11
3.2285262598425195
21
-2.4304315354330708
0
LINE
8
BLACK
6
CONTINUOUS
10
3.2285262598425195
20
-2.4304315354330708
11
3.2283464566929134
21
-2.429527559055118
0
LINE
8
BLACK
6
CONTINUOUS
10
3.2283464566929134
20
-2.429527559055118
11
3.2283464566929134
21
-2.4212598425196852
0
LINE
8
BLACK
6
CONTINUOUS
10
3.2283464566929134
20
-2.4212598425196852
11
3.122047244094488
21
-2.4212598425196852
0
LINE
8
BLACK
6
CONTINUOUS
10
3.122047244094488
20
-2.4212598425196852
11
3.015748031496063
21
-2.4212598425196852
0
LINE
8
BLACK
6
CONTINUOUS
10
3.015748031496063
20
-2.4212598425196852
11
3.015748031496063
21
-2.429527559055118
0
LINE
8
BLACK
6
CONTINUOUS
10
3.015748031496063
20
-2.429527559055118
11
3.0155682283464564
21
-2.4304315354330708
0
LINE
8
BLACK
6
CONTINUOUS
10
3.0155682283464564
20
-2.4304315354330708
11
3.0142898031496062
21
-2.4317099606299211
0
LINE
8
BLACK
6
CONTINUOUS
10
3.0142898031496062
20
-2.4317099606299211
11
3.0124818503937005
21
-2.4317099606299211
0
LINE
8
BLACK
6
CONTINUOUS
10
3.0124818503937005
20
-2.4317099606299211
11
3.0112034251968502
21
-2.4304315354330708
0
LINE
8
BLACK
6
CONTINUOUS
10
3.0112034251968502
20
-2.4304315354330708
11
3.0110236220472442
21
-2.429527559055118
0
LINE
8
BLACK
6
CONTINUOUS
10
3.0110236220472442
20
-2.429527559055118
11
3.0110236220472442
21
-2.4188976377952756
0
LINE
8
BLACK
6
CONTINUOUS
10
3.0110236220472442
20
-2.4188976377952756
11
3.0112034251968502
21
-2.4179936614173227
0
LINE
8
BLACK
6
CONTINUOUS
10
3.0112034251968502
20
-2.4179936614173227
11
3.0124818503937005
21
-2.4167152362204725
0
LINE
8
BLACK
6
CONTINUOUS
10
3.0124818503937005
20
-2.4167152362204725
11
3.0133858267716533
21
-2.4165354330708659
0
LINE
8
BLACK
6
CONTINUOUS
10
3.0133858267716533
20
-2.4165354330708659
11
3.122047244094488
21
-2.4165354330708659
0
LINE
8
BLACK
6
CONTINUOUS
10
2.9560713779527559
20
-2.3692742913385825
11
2.9573498031496062
21
-2.3705527165354332
0
LINE
8
BLACK
6
CONTINUOUS
10
2.9573498031496062
20
-2.3705527165354332
11
2.9573498031496062
21
-2.3723606692913384
0
LINE
8
BLACK
6
CONTINUOUS
10
2.9573498031496062
20
-2.3723606692913384
11
2.9560713779527559
21
-2.3736390944881891
0
LINE
8
BLACK
6
CONTINUOUS
10
2.9560713779527559
20
-2.3736390944881891
11
2.9551674015748031
21
-2.3738188976377952
0
LINE
8
BLACK
6
CONTINUOUS
10
2.9551674015748031
20
-2.3738188976377952
11
2.9345963779527557
21
-2.3738188976377952
0
LINE
8
BLACK
6
CONTINUOUS
10
2.9345963779527557
20
-2.3738188976377952
11
2.9336924015748029
21
-2.3736390944881891
0
LINE
8
BLACK
6
CONTINUOUS
10
2.9336924015748029
20
-2.3736390944881891
11
2.9324139763779526
21
-2.3723606692913384
0
LINE
8
BLACK
6
CONTINUOUS
10
2.9324139763779526
20
-2.3723606692913384
11
2.9324139763779526
21
-2.3705527165354332
0
LINE
8
BLACK
6
CONTINUOUS
10
2.9324139763779526
20
-2.3705527165354332
11
2.9336924015748029
21
-2.3692742913385825
0
LINE
8
BLACK
6
CONTINUOUS
10
2.9336924015748029
20
-2.3692742913385825
11
2.9345963779527557
21
-2.3690944881889764
0
LINE
8
BLACK
6
CONTINUOUS
10
2.9345963779527557
20
-2.3690944881889764
11
2.9551674015748031
21
-2.3690944881889764
0
LINE
8
BLACK
6
CONTINUOUS
10
2.9551674015748031
20
-2.3690944881889764
11
2.9560713779527559
21
-2.3692742913385825
0
LINE
8
BLACK
6
CONTINUOUS
10
3.3090561023622045
20
-2.3653372834645667
11
3.3103345275590552
21
-2.3666157086614175
0
LINE
8
BLACK
6
CONTINUOUS
10
3.3103345275590552
20
-2.3666157086614175
11
3.3103345275590552
21
-2.3684236614173226
0
LINE
8
BLACK
6
CONTINUOUS
10
3.3103345275590552
20
-2.3684236614173226
11
3.3090561023622045
21
-2.3697020866141734
0
LINE
8
BLACK
6
CONTINUOUS
10
3.3090561023622045
20
-2.3697020866141734
11
3.3081521259842517
21
-2.3698818897637794
0
LINE
8
BLACK
6
CONTINUOUS
10
3.3081521259842517
20
-2.3698818897637794
11
3.2902730708661418
21
-2.3698818897637794
0
LINE
8
BLACK
6
CONTINUOUS
10
3.2902730708661418
20
-2.3698818897637794
11
3.289369094488189
21
-2.3697020866141734
0
LINE
8
BLACK
6
CONTINUOUS
10
3.289369094488189
20
-2.3697020866141734
11
3.2880906692913383
21
-2.3684236614173226
0
LINE
8
BLACK
6
CONTINUOUS
10
3.2880906692913383
20
-2.3684236614173226
11
3.2880906692913383
21
-2.3666157086614175
0
LINE
8
BLACK
6
CONTINUOUS
10
3.2880906692913383
20
-2.3666157086614175
11
3.289369094488189
21
-2.3653372834645667
0
LINE
8
BLACK
6
CONTINUOUS
10
3.289369094488189
20
-2.3653372834645667
11
3.2902730708661418
21
-2.3651574803149606
0
LINE
8
BLACK
6
CONTINUOUS
10
3.2902730708661418
20
-2.3651574803149606
11
3.3081521259842517
21
-2.3651574803149606
0
LINE
8
BLACK
6
CONTINUOUS
10
3.3081521259842517
20
-2.3651574803149606
11
3.3090561023622045
21
-2.3653372834645667
0
LINE
8
BLACK
6
CONTINUOUS
10
3.4269096456692911
20
-2.3141870472440944
11
3.4269816535433071
21
-2.3141798818897636
0
LINE
8
BLACK
6
CONTINUOUS
10
3.4269816535433071
20
-2.3141798818897636
11
3.4270519685039371
21
-2.3142010629921259
0
LINE
8
BLACK
6
CONTINUOUS
10
3.4270519685039371
20
-2.3142010629921259
11
3.4272726771653543
21
-2.314222834645669
0
LINE
8
BLACK
6
CONTINUOUS
10
3.4272726771653543
20
-2.314222834645669
11
3.4276713385826771
21
-2.3143879527559053
0
LINE
8
BLACK
6
CONTINUOUS
10
3.4276713385826771
20
-2.3143879527559053
11
3.4280846456692911
21
-2.3145126771653541
0
LINE
8
BLACK
6
CONTINUOUS
10
3.4280846456692911
20
-2.3145126771653541
11
3.4281997244094486
21
-2.314606811023622
0
LINE
8
BLACK
6
CONTINUOUS
10
3.4281997244094486
20
-2.314606811023622
11
3.4283370866141731
21
-2.3146637401574801
0
LINE
8
BLACK
6
CONTINUOUS
10
3.4283370866141731
20
-2.3146637401574801
11
3.4286423228346457
21
-2.3149689763779526
0
LINE
8
BLACK
6
CONTINUOUS
10
3.4286423228346457
20
-2.3149689763779526
11
3.4289762992125983
21
-2.3152422440944882
0
LINE
8
BLACK
6
CONTINUOUS
10
3.4289762992125983
20
-2.3152422440944882
11
3.4290465354330708
21
-2.3153731889763778
0
LINE
8
BLACK
6
CONTINUOUS
10
3.4290465354330708
20
-2.3153731889763778
11
3.4291517322834646
21
-2.3154783858267716
0
LINE
8
BLACK
6
CONTINUOUS
10
3.4291517322834646
20
-2.3154783858267716
11
3.4293168897637796
21
-2.3158771653543306
0
LINE
8
BLACK
6
CONTINUOUS
10
3.4293168897637796
20
-2.3158771653543306
11
3.4295209448818897
21
-2.3162574803149605
0
LINE
8
BLACK
6
CONTINUOUS
10
3.4295209448818897
20
-2.3162574803149605
11
3.4295645275590552
21
-2.3164749606299213
0
LINE
8
BLACK
6
CONTINUOUS
10
3.4295645275590552
20
-2.3164749606299213
11
3.4295926377952757
21
-2.3165427952755904
0
LINE
8
BLACK
6
CONTINUOUS
10
3.4295926377952757
20
-2.3165427952755904
11
3.4295926377952757
21
-2.3166150787401576
0
LINE
8
BLACK
6
CONTINUOUS
10
3.4295926377952757
20
-2.3166150787401576
11
3.4296347244094489
21
-2.3168250393700789
0
LINE
8
BLACK
6
CONTINUOUS
10
3.4296347244094489
20
-2.3168250393700789
11
3.4315094881889765
21
-2.3355726771653544
0
LINE
8
BLACK
6
CONTINUOUS
10
3.4315094881889765
20
-2.3355726771653544
11
3.4315103543307086
21
-2.3361515354330709
0
LINE
8
BLACK
6
CONTINUOUS
10
3.4315103543307086
20
-2.3361515354330709
11
3.4314674015748032
21
-2.3362938582677164
0
LINE
8
BLACK
6
CONTINUOUS
10
3.4314674015748032
20
-2.3362938582677164
11
3.4314674015748032
21
-2.3364425196850394
0
LINE
8
BLACK
6
CONTINUOUS
10
3.4314674015748032
20
-2.3364425196850394
11
3.431302283464567
21
-2.3368411023622047
0
LINE
8
BLACK
6
CONTINUOUS
10
3.431302283464567
20
-2.3368411023622047
11
3.4311775590551181
21
-2.3372545275590553
0
LINE
8
BLACK
6
CONTINUOUS
10
3.4311775590551181
20
-2.3372545275590553
11
3.4310833464566928
21
-2.3373696456692912
0
LINE
8
BLACK
6
CONTINUOUS
10
3.4310833464566928
20
-2.3373696456692912
11
3.4310264960629921
21
-2.3375069291338582
0
LINE
8
BLACK
6
CONTINUOUS
10
3.4310264960629921
20
-2.3375069291338582
11
3.4307214173228346
21
-2.3378119685039369
0
LINE
8
BLACK
6
CONTINUOUS
10
3.4307214173228346
20
-2.3378119685039369
11
3.4304479921259841
21
-2.3381461811023621
0
LINE
8
BLACK
6
CONTINUOUS
10
3.4304479921259841
20
-2.3381461811023621
11
3.4303169291338582
21
-2.3382164566929133
0
LINE
8
BLACK
6
CONTINUOUS
10
3.4303169291338582
20
-2.3382164566929133
11
3.4302118110236219
21
-2.3383216141732284
0
LINE
8
BLACK
6
CONTINUOUS
10
3.4302118110236219
20
-2.3383216141732284
11
3.4298131889763779
21
-2.3384866929133858
0
LINE
8
BLACK
6
CONTINUOUS
10
3.4298131889763779
20
-2.3384866929133858
11
3.4294327559055118
21
-2.3386908267716535
0
LINE
8
BLACK
6
CONTINUOUS
10
3.4294327559055118
20
-2.3386908267716535
11
3.4292847244094489
21
-2.3387055905511809
0
LINE
8
BLACK
6
CONTINUOUS
10
3.4292847244094489
20
-2.3387055905511809
11
3.4291474015748031
21
-2.3387625196850395
0
LINE
8
BLACK
6
CONTINUOUS
10
3.4291474015748031
20
-2.3387625196850395
11
3.4287158661417321
21
-2.3387625196850395
0
LINE
8
BLACK
6
CONTINUOUS
10
3.4287158661417321
20
-2.3387625196850395
11
3.428286338582677
21
-2.3388054724409448
0
LINE
8
BLACK
6
CONTINUOUS
10
3.428286338582677
20
-2.3388054724409448
11
3.4281439763779527
21
-2.3387625196850395
0
LINE
8
BLACK
6
CONTINUOUS
10
3.4281439763779527
20
-2.3387625196850395
11
3.4279953149606297
21
-2.3387625196850395
0
LINE
8
BLACK
6
CONTINUOUS
10
3.4279953149606297
20
-2.3387625196850395
11
3.4275966141732281
21
-2.3385973622047245
0
LINE
8
BLACK
6
CONTINUOUS
10
3.4275966141732281
20
-2.3385973622047245
11
3.427183346456693
21
-2.3384726771653543
0
LINE
8
BLACK
6
CONTINUOUS
10
3.427183346456693
20
-2.3384726771653543
11
3.4270682283464566
21
-2.3383785039370077
0
LINE
8
BLACK
6
CONTINUOUS
10
3.4270682283464566
20
-2.3383785039370077
11
3.4269309055118109
21
-2.3383216141732284
0
LINE
8
BLACK
6
CONTINUOUS
10
3.4269309055118109
20
-2.3383216141732284
11
3.4264834645669291
21
-2.3379544094488187
0
LINE
8
BLACK
6
CONTINUOUS
10
3.4264834645669291
20
-2.3379544094488187
11
3.4249475196850394
21
-2.336418464566929
0
LINE
8
BLACK
6
CONTINUOUS
10
3.4249475196850394
20
-2.336418464566929
11
3.4222500393700788
21
-2.3350697244094487
0
LINE
8
BLACK
6
CONTINUOUS
10
3.4222500393700788
20
-2.3350697244094487
11
3.4142703149606297
21
-2.3350697244094487
0
LINE
8
BLACK
6
CONTINUOUS
10
3.4142703149606297
20
-2.3350697244094487
11
3.4115728346456691
21
-2.336418464566929
0
LINE
8
BLACK
6
CONTINUOUS
10
3.4115728346456691
20
-2.336418464566929
11
3.4103757086614173
21
-2.3376155905511808
0
LINE
8
BLACK
6
CONTINUOUS
10
3.4103757086614173
20
-2.3376155905511808
11
3.4090269685039369
21
-2.3403130708661415
0
LINE
8
BLACK
6
CONTINUOUS
10
3.4090269685039369
20
-2.3403130708661415
11
3.4090269685039369
21
-2.3482927952755905
0
LINE
8
BLACK
6
CONTINUOUS
10
3.4090269685039369
20
-2.3482927952755905
11
3.4103757086614173
21
-2.3509902755905512
0
LINE
8
BLACK
6
CONTINUOUS
10
3.4103757086614173
20
-2.3509902755905512
11
3.4115728346456691
21
-2.3521874409448817
0
LINE
8
BLACK
6
CONTINUOUS
10
3.4115728346456691
20
-2.3521874409448817
11
3.4142703149606297
21
-2.3535361811023621
0
LINE
8
BLACK
6
CONTINUOUS
10
3.4142703149606297
20
-2.3535361811023621
11
3.4222500393700788
21
-2.3535361811023621
0
LINE
8
BLACK
6
CONTINUOUS
10
3.4222500393700788
20
-2.3535361811023621
11
3.4249474803149607
21
-2.3521874409448817
0
LINE
8
BLACK
6
CONTINUOUS
10
3.4249474803149607
20
-2.3521874409448817
11
3.4264834251968503
21
-2.3506514960629921
0
LINE
8
BLACK
6
CONTINUOUS
10
3.4264834251968503
20
-2.3506514960629921
11
3.4269309055118109
21
-2.3502842519685041
0
LINE
8
BLACK
6
CONTINUOUS
10
3.4269309055118109
20
-2.3502842519685041
11
3.4279953149606297
21
-2.349843346456693
0
LINE
8
BLACK
6
CONTINUOUS
10
3.4279953149606297
20
-2.349843346456693
11
3.4291474015748031
21
-2.349843346456693
0
LINE
8
BLACK
6
CONTINUOUS
10
3.4291474015748031
20
-2.349843346456693
11
3.4302118110236219
21
-2.3502842125984253
0
LINE
8
BLACK
6
CONTINUOUS
10
3.4302118110236219
20
-2.3502842125984253
11
3.4310264960629921
21
-2.3510988976377951
0
LINE
8
BLACK
6
CONTINUOUS
10
3.4310264960629921
20
-2.3510988976377951
11
3.4314674015748032
21
-2.3521633070866139
0
LINE
8
BLACK
6
CONTINUOUS
10
3.4314674015748032
20
-2.3521633070866139
11
3.4314674015748032
21
-2.3533153937007874
0
LINE
8
BLACK
6
CONTINUOUS
10
3.4314674015748032
20
-2.3533153937007874
11
3.4310265354330709
21
-2.3543798031496062
0
LINE
8
BLACK
6
CONTINUOUS
10
3.4310265354330709
20
-2.3543798031496062
11
3.4306592913385825
21
-2.3548272834645667
0
LINE
8
BLACK
6
CONTINUOUS
10
3.4306592913385825
20
-2.3548272834645667
11
3.4287845669291337
21
-2.3567020472440943
0
LINE
8
BLACK
6
CONTINUOUS
10
3.4287845669291337
20
-2.3567020472440943
11
3.4285581889763779
21
-2.3568877952755907
0
LINE
8
BLACK
6
CONTINUOUS
10
3.4285581889763779
20
-2.3568877952755907
11
3.4285070078740159
21
-2.3569468503937006
0
LINE
8
BLACK
6
CONTINUOUS
10
3.4285070078740159
20
-2.3569468503937006
11
3.4284180314960628
21
-2.3570028346456691
0
LINE
8
BLACK
6
CONTINUOUS
10
3.4284180314960628
20
-2.3570028346456691
11
3.4283370866141731
21
-2.3570692913385827
0
LINE
8
BLACK
6
CONTINUOUS
10
3.4283370866141731
20
-2.3570692913385827
11
3.4282651181102359
21
-2.3570990944881891
0
LINE
8
BLACK
6
CONTINUOUS
10
3.4282651181102359
20
-2.3570990944881891
11
3.428017125984252
21
-2.3572551968503936
0
LINE
8
BLACK
6
CONTINUOUS
10
3.428017125984252
20
-2.3572551968503936
11
3.4242675984251969
21
-2.3591299606299212
0
LINE
8
BLACK
6
CONTINUOUS
10
3.4242675984251969
20
-2.3591299606299212
11
3.4237269685039369
21
-2.3593368503937007
0
LINE
8
BLACK
6
CONTINUOUS
10
3.4237269685039369
20
-2.3593368503937007
11
3.4236211417322835
21
-2.3593443307086615
0
LINE
8
BLACK
6
CONTINUOUS
10
3.4236211417322835
20
-2.3593443307086615
11
3.4235231496062992
21
-2.3593849606299213
0
LINE
8
BLACK
6
CONTINUOUS
10
3.4235231496062992
20
-2.3593849606299213
11
3.4229470866141734
21
-2.3594416929133857
0
LINE
8
BLACK
6
CONTINUOUS
10
3.4229470866141734
20
-2.3594416929133857
11
3.4135732677165356
21
-2.3594416929133857
0
LINE
8
BLACK
6
CONTINUOUS
10
3.4135732677165356
20
-2.3594416929133857
11
3.4129972047244093
21
-2.3593849606299213
0
LINE
8
BLACK
6
CONTINUOUS
10
3.4129972047244093
20
-2.3593849606299213
11
3.412899212598425
21
-2.3593443700787402
0
LINE
8
BLACK
6
CONTINUOUS
10
3.412899212598425
20
-2.3593443700787402
11
3.4127933464566929
21
-2.3593368503937007
0
LINE
8
BLACK
6
CONTINUOUS
10
3.4127933464566929
20
-2.3593368503937007
11
3.4122527559055116
21
-2.3591299606299212
0
LINE
8
BLACK
6
CONTINUOUS
10
3.4122527559055116
20
-2.3591299606299212
11
3.4085032283464565
21
-2.3572551968503936
0
LINE
8
BLACK
6
CONTINUOUS
10
3.4085032283464565
20
-2.3572551968503936
11
3.4082551968503938
21
-2.3570990944881891
0
LINE
8
BLACK
6
CONTINUOUS
10
3.4082551968503938
20
-2.3570990944881891
11
3.4081832677165353
21
-2.3570692913385827
0
LINE
8
BLACK
6
CONTINUOUS
10
3.4081832677165353
20
-2.3570692913385827
11
3.4081022834645669
21
-2.3570028346456691
0
LINE
8
BLACK
6
CONTINUOUS
10
3.4081022834645669
20
-2.3570028346456691
11
3.4080133464566926
21
-2.3569468503937006
0
LINE
8
BLACK
6
CONTINUOUS
10
3.4080133464566926
20
-2.3569468503937006
11
3.4079621259842519
21
-2.3568877952755907
0
LINE
8
BLACK
6
CONTINUOUS
10
3.4079621259842519
20
-2.3568877952755907
11
3.4077357874015748
21
-2.3567020472440943
0
LINE
8
BLACK
6
CONTINUOUS
10
3.4077357874015748
20
-2.3567020472440943
11
3.4058610236220472
21
-2.354827244094488
0
LINE
8
BLACK
6
CONTINUOUS
10
3.4058610236220472
20
-2.354827244094488
11
3.4056752755905513
21
-2.3546009055118109
0
LINE
8
BLACK
6
CONTINUOUS
10
3.4056752755905513
20
-2.3546009055118109
11
3.4056162992125985
21
-2.3545497637795276
0
LINE
8
BLACK
6
CONTINUOUS
10
3.4056162992125985
20
-2.3545497637795276
11
3.4055603149606299
21
-2.3544608267716534
0
LINE
8
BLACK
6
CONTINUOUS
10
3.4055603149606299
20
-2.3544608267716534
11
3.4054938188976376
21
-2.3543798031496062
0
LINE
8
BLACK
6
CONTINUOUS
10
3.4054938188976376
20
-2.3543798031496062
11
3.4054639763779528
21
-2.3543077559055119
0
LINE
8
BLACK
6
CONTINUOUS
10
3.4054639763779528
20
-2.3543077559055119
11
3.4053079527559054
21
-2.3540598818897638
0
LINE
8
BLACK
6
CONTINUOUS
10
3.4053079527559054
20
-2.3540598818897638
11
3.4034331889763778
21
-2.3503103543307087
0
LINE
8
BLACK
6
CONTINUOUS
10
3.4034331889763778
20
-2.3503103543307087
11
3.4032262992125983
21
-2.3497697244094486
0
LINE
8
BLACK
6
CONTINUOUS
10
3.4032262992125983
20
-2.3497697244094486
11
3.4032187795275588
21
-2.3496638976377953
0
LINE
8
BLACK
6
CONTINUOUS
10
3.4032187795275588
20
-2.3496638976377953
11
3.4031781889763777
21
-2.349565905511811
0
LINE
8
BLACK
6
CONTINUOUS
10
3.4031781889763777
20
-2.349565905511811
11
3.4031214566929133
21
-2.3489898425196851
0
LINE
8
BLACK
6
CONTINUOUS
10
3.4031214566929133
20
-2.3489898425196851
11
3.4031214566929133
21
-2.3396160236220473
0
LINE
8
BLACK
6
CONTINUOUS
10
3.4031214566929133
20
-2.3396160236220473
11
3.4031781889763777
21
-2.339039960629921
0
LINE
8
BLACK
6
CONTINUOUS
10
3.4031781889763777
20
-2.339039960629921
11
3.4032187795275588
21
-2.338941929133858
0
LINE
8
BLACK
6
CONTINUOUS
10
3.4032187795275588
20
-2.338941929133858
11
3.4032262992125983
21
-2.3388361417322834
0
LINE
8
BLACK
6
CONTINUOUS
10
3.4032262992125983
20
-2.3388361417322834
11
3.4034331889763778
21
-2.3382955118110234
0
LINE
8
BLACK
6
CONTINUOUS
10
3.4034331889763778
20
-2.3382955118110234
11
3.4053079527559054
21
-2.3345459842519682
0
LINE
8
BLACK
6
CONTINUOUS
10
3.4053079527559054
20
-2.3345459842519682
11
3.4054640157480316
21
-2.3342979527559056
0
LINE
8
BLACK
6
CONTINUOUS
10
3.4054640157480316
20
-2.3342979527559056
11
3.4054938582677163
21
-2.3342260236220471
0
LINE
8
BLACK
6
CONTINUOUS
10
3.4054938582677163
20
-2.3342260236220471
11
3.4055603149606299
21
-2.3341450393700787
0
LINE
8
BLACK
6
CONTINUOUS
10
3.4055603149606299
20
-2.3341450393700787
11
3.4056162992125985
21
-2.3340561023622048
0
LINE
8
BLACK
6
CONTINUOUS
10
3.4056162992125985
20
-2.3340561023622048
11
3.4056752755905513
21
-2.3340049212598424
0
LINE
8
BLACK
6
CONTINUOUS
10
3.4056752755905513
20
-2.3340049212598424
11
3.405861062992126
21
-2.3337785826771653
0
LINE
8
BLACK
6
CONTINUOUS
10
3.405861062992126
20
-2.3337785826771653
11
3.4077358267716535
21
-2.3319038188976378
0
LINE
8
BLACK
6
CONTINUOUS
10
3.4077358267716535
20
-2.3319038188976378
11
3.4079621653543306
21
-2.331718031496063
0
LINE
8
BLACK
6
CONTINUOUS
10
3.4079621653543306
20
-2.331718031496063
11
3.4080133464566926
21
-2.3316590551181102
0
LINE
8
BLACK
6
CONTINUOUS
10
3.4080133464566926
20
-2.3316590551181102
11
3.4081022834645669
21
-2.3316030708661417
0
LINE
8
BLACK
6
CONTINUOUS
10
3.4081022834645669
20
-2.3316030708661417
11
3.4081832677165353
21
-2.3315366141732281
0
LINE
8
BLACK
6
CONTINUOUS
10
3.4081832677165353
20
-2.3315366141732281
11
3.4082551968503938
21
-2.3315067716535434
0
LINE
8
BLACK
6
CONTINUOUS
10
3.4082551968503938
20
-2.3315067716535434
11
3.4085032283464565
21
-2.3313507086614171
0
LINE
8
BLACK
6
CONTINUOUS
10
3.4085032283464565
20
-2.3313507086614171
11
3.4122527559055116
21
-2.3294759448818896
0
LINE
8
BLACK
6
CONTINUOUS
10
3.4122527559055116
20
-2.3294759448818896
11
3.4127933464566929
21
-2.3292690551181101
0
LINE
8
BLACK
6
CONTINUOUS
10
3.4127933464566929
20
-2.3292690551181101
11
3.412899212598425
21
-2.3292614960629923
0
LINE
8
BLACK
6
CONTINUOUS
10
3.412899212598425
20
-2.3292614960629923
11
3.4129972047244093
21
-2.3292209448818899
0
LINE
8
BLACK
6
CONTINUOUS
10
3.4129972047244093
20
-2.3292209448818899
11
3.4135732677165356
21
-2.3291642125984251
0
LINE
8
BLACK
6
CONTINUOUS
10
3.4135732677165356
20
-2.3291642125984251
11
3.4229470866141734
21
-2.3291642125984251
0
LINE
8
BLACK
6
CONTINUOUS
10
3.4229470866141734
20
-2.3291642125984251
11
3.4235231496062992
21
-2.3292209448818899
0
LINE
8
BLACK
6
CONTINUOUS
10
3.4235231496062992
20
-2.3292209448818899
11
3.4236211417322835
21
-2.329261535433071
0
LINE
8
BLACK
6
CONTINUOUS
10
3.4236211417322835
20
-2.329261535433071
11
3.4237269685039369
21
-2.3292690551181101
0
LINE
8
BLACK
6
CONTINUOUS
10
3.4237269685039369
20
-2.3292690551181101
11
3.4242675984251969
21
-2.3294759448818896
0
LINE
8
BLACK
6
CONTINUOUS
10
3.4242675984251969
20
-2.3294759448818896
11
3.425001496062992
21
-2.329842874015748
0
LINE
8
BLACK
6
CONTINUOUS
10
3.425001496062992
20
-2.329842874015748
11
3.424024409448819
21
-2.3200716141732283
0
LINE
8
BLACK
6
CONTINUOUS
10
3.424024409448819
20
-2.3200716141732283
11
3.4079489763779525
21
-2.3200716141732283
0
LINE
8
BLACK
6
CONTINUOUS
10
3.4079489763779525
20
-2.3200716141732283
11
3.4073729133858266
21
-2.3200148818897639
0
LINE
8
BLACK
6
CONTINUOUS
10
3.4073729133858266
20
-2.3200148818897639
11
3.4063085039370078
21
-2.3195739763779528
0
LINE
8
BLACK
6
CONTINUOUS
10
3.4063085039370078
20
-2.3195739763779528
11
3.4054938582677163
21
-2.3187593307086614
0
LINE
8
BLACK
6
CONTINUOUS
10
3.4054938582677163
20
-2.3187593307086614
11
3.4050529527559052
21
-2.3176949212598426
0
LINE
8
BLACK
6
CONTINUOUS
10
3.4050529527559052
20
-2.3176949212598426
11
3.4050529527559052
21
-2.3165427952755904
0
LINE
8
BLACK
6
CONTINUOUS
10
3.4050529527559052
20
-2.3165427952755904
11
3.4054938582677163
21
-2.3154783858267716
0
LINE
8
BLACK
6
CONTINUOUS
10
3.4054938582677163
20
-2.3154783858267716
11
3.4063085039370078
21
-2.3146637401574801
0
LINE
8
BLACK
6
CONTINUOUS
10
3.4063085039370078
20
-2.3146637401574801
11
3.4073729133858266
21
-2.314222834645669
0
LINE
8
BLACK
6
CONTINUOUS
10
3.4073729133858266
20
-2.314222834645669
11
3.4079489763779525
21
-2.3141661023622047
0
LINE
8
BLACK
6
CONTINUOUS
10
3.4079489763779525
20
-2.3141661023622047
11
3.4266966141732285
21
-2.3141661023622047
0
LINE
8
BLACK
6
CONTINUOUS
10
3.4266966141732285
20
-2.3141661023622047
11
3.4269096456692911
21
-2.3141870472440944
0
LINE
8
BLACK
6
CONTINUOUS
10
3.4666427559055117
20
-2.314222834645669
11
3.4677071653543305
21
-2.3146637401574801
0
LINE
8
BLACK
6
CONTINUOUS
10
3.4677071653543305
20
-2.3146637401574801
11
3.468521811023622
21
-2.3154783858267716
0
LINE
8
BLACK
6
CONTINUOUS
10
3.468521811023622
20
-2.3154783858267716
11
3.4689627165354331
21
-2.3165427952755904
0
LINE
8
BLACK
6
CONTINUOUS
10
3.4689627165354331
20
-2.3165427952755904
11
3.4690194488188975
21
-2.3171188582677167
0
LINE
8
BLACK
6
CONTINUOUS
10
3.4690194488188975
20
-2.3171188582677167
11
3.4690194488188975
21
-2.3564889370078741
0
LINE
8
BLACK
6
CONTINUOUS
10
3.4690194488188975
20
-2.3564889370078741
11
3.4689627165354331
21
-2.357065
0
LINE
8
BLACK
6
CONTINUOUS
10
3.4689627165354331
20
-2.357065
11
3.468521811023622
21
-2.3581294094488188
0
LINE
8
BLACK
6
CONTINUOUS
10
3.468521811023622
20
-2.3581294094488188
11
3.4677071653543305
21
-2.3589440551181102
0
LINE
8
BLACK
6
CONTINUOUS
10
3.4677071653543305
20
-2.3589440551181102
11
3.4666427559055117
21
-2.3593849606299213
0
LINE
8
BLACK
6
CONTINUOUS
10
3.4666427559055117
20
-2.3593849606299213
11
3.4654906299212596
21
-2.3593849606299213
0
LINE
8
BLACK
6
CONTINUOUS
10
3.4654906299212596
20
-2.3593849606299213
11
3.4644262204724408
21
-2.3589440551181102
0
LINE
8
BLACK
6
CONTINUOUS
10
3.4644262204724408
20
-2.3589440551181102
11
3.4636115748031497
21
-2.3581294094488188
0
LINE
8
BLACK
6
CONTINUOUS
10
3.4636115748031497
20
-2.3581294094488188
11
3.4631706692913387
21
-2.357065
0
LINE
8
BLACK
6
CONTINUOUS
10
3.4631706692913387
20
-2.357065
11
3.4631139370078738
21
-2.3564889370078741
0
LINE
8
BLACK
6
CONTINUOUS
10
3.4631139370078738
20
-2.3564889370078741
11
3.4631139370078738
21
-2.3406940157480314
0
LINE
8
BLACK
6
CONTINUOUS
10
3.4631139370078738
20
-2.3406940157480314
11
3.4582302362204724
21
-2.3406940157480314
0
LINE
8
BLACK
6
CONTINUOUS
10
3.4582302362204724
20
-2.3406940157480314
11
3.445988503937008
21
-2.358182244094488
0
LINE
8
BLACK
6
CONTINUOUS
10
3.445988503937008
20
-2.358182244094488
11
3.4456116929133858
21
-2.3586216141732281
0
LINE
8
BLACK
6
CONTINUOUS
10
3.4456116929133858
20
-2.3586216141732281
11
3.4446400787401572
21
-2.3592407874015748
0
LINE
8
BLACK
6
CONTINUOUS
10
3.4446400787401572
20
-2.3592407874015748
11
3.4435055511811021
21
-2.3594409842519686
0
LINE
8
BLACK
6
CONTINUOUS
10
3.4435055511811021
20
-2.3594409842519686
11
3.4423807086614171
21
-2.3591918110236221
0
LINE
8
BLACK
6
CONTINUOUS
10
3.4423807086614171
20
-2.3591918110236221
11
3.4414368503937007
21
-2.3585311023622046
0
LINE
8
BLACK
6
CONTINUOUS
10
3.4414368503937007
20
-2.3585311023622046
11
3.4408176771653545
21
-2.3575594881889765
0
LINE
8
BLACK
6
CONTINUOUS
10
3.4408176771653545
20
-2.3575594881889765
11
3.4406174803149607
21
-2.356424960629921
0
LINE
8
BLACK
6
CONTINUOUS
10
3.4406174803149607
20
-2.356424960629921
11
3.4408666535433072
21
-2.355300118110236
0
LINE
8
BLACK
6
CONTINUOUS
10
3.4408666535433072
20
-2.355300118110236
11
3.4411505511811025
21
-2.3547956299212598
0
LINE
8
BLACK
6
CONTINUOUS
10
3.4411505511811025
20
-2.3547956299212598
11
3.45102468503937
21
-2.3406896850393699
0
LINE
8
BLACK
6
CONTINUOUS
10
3.45102468503937
20
-2.3406896850393699
11
3.4504925196850391
21
-2.340637283464567
0
LINE
8
BLACK
6
CONTINUOUS
10
3.4504925196850391
20
-2.340637283464567
11
3.4503945275590548
21
-2.3405966929133859
0
LINE
8
BLACK
6
CONTINUOUS
10
3.4503945275590548
20
-2.3405966929133859
11
3.4502886614173227
21
-2.3405891732283464
0
LINE
8
BLACK
6
CONTINUOUS
10
3.4502886614173227
20
-2.3405891732283464
11
3.4497480708661414
21
-2.3403822834645669
0
LINE
8
BLACK
6
CONTINUOUS
10
3.4497480708661414
20
-2.3403822834645669
11
3.4459985433070863
21
-2.3385075196850393
0
LINE
8
BLACK
6
CONTINUOUS
10
3.4459985433070863
20
-2.3385075196850393
11
3.4457505118110237
21
-2.3383514173228348
0
LINE
8
BLACK
6
CONTINUOUS
10
3.4457505118110237
20
-2.3383514173228348
11
3.4456785826771652
21
-2.3383216141732284
0
LINE
8
BLACK
6
CONTINUOUS
10
3.4456785826771652
20
-2.3383216141732284
11
3.4455975984251968
21
-2.338255118110236
0
LINE
8
BLACK
6
CONTINUOUS
10
3.4455975984251968
20
-2.338255118110236
11
3.4455086614173229
21
-2.3381991732283463
0
LINE
8
BLACK
6
CONTINUOUS
10
3.4455086614173229
20
-2.3381991732283463
11
3.4454574803149605
21
-2.3381401574803151
0
LINE
8
BLACK
6
CONTINUOUS
10
3.4454574803149605
20
-2.3381401574803151
11
3.4452311417322834
21
-2.3379544094488187
0
LINE
8
BLACK
6
CONTINUOUS
10
3.4452311417322834
20
-2.3379544094488187
11
3.4433563779527558
21
-2.3360796456692912
0
LINE
8
BLACK
6
CONTINUOUS
10
3.4433563779527558
20
-2.3360796456692912
11
3.4431705905511811
21
-2.3358532677165353
0
LINE
8
BLACK
6
CONTINUOUS
10
3.4431705905511811
20
-2.3358532677165353
11
3.4431116141732283
21
-2.3358021259842521
0
LINE
8
BLACK
6
CONTINUOUS
10
3.4431116141732283
20
-2.3358021259842521
11
3.4430556299212598
21
-2.3357131496062991
0
LINE
8
BLACK
6
CONTINUOUS
10
3.4430556299212598
20
-2.3357131496062991
11
3.4429891732283462
21
-2.3356322047244094
0
LINE
8
BLACK
6
CONTINUOUS
10
3.4429891732283462
20
-2.3356322047244094
11
3.4429593307086614
21
-2.3355602362204726
0
LINE
8
BLACK
6
CONTINUOUS
10
3.4429593307086614
20
-2.3355602362204726
11
3.4428032677165352
21
-2.3353122440944882
0
LINE
8
BLACK
6
CONTINUOUS
10
3.4428032677165352
20
-2.3353122440944882
11
3.4409285039370077
21
-2.3315627165354331
0
LINE
8
BLACK
6
CONTINUOUS
10
3.4409285039370077
20
-2.3315627165354331
11
3.4407216141732282
21
-2.3310220866141731
0
LINE
8
BLACK
6
CONTINUOUS
10
3.4407216141732282
20
-2.3310220866141731
11
3.4407140944881891
21
-2.3309162598425197
0
LINE
8
BLACK
6
CONTINUOUS
10
3.4407140944881891
20
-2.3309162598425197
11
3.440673503937008
21
-2.3308182677165354
0
LINE
8
BLACK
6
CONTINUOUS
10
3.440673503937008
20
-2.3308182677165354
11
3.4406167716535432
21
-2.3302422047244096
0
LINE
8
BLACK
6
CONTINUOUS
10
3.4406167716535432
20
-2.3302422047244096
11
3.4406167716535432
21
-2.3246179133858269
0
LINE
8
BLACK
6
CONTINUOUS
10
3.4406167716535432
20
-2.3246179133858269
11
3.440673503937008
21
-2.3240418503937006
0
LINE
8
BLACK
6
CONTINUOUS
10
3.440673503937008
20
-2.3240418503937006
11
3.4407140944881891
21
-2.3239438188976376
0
LINE
8
BLACK
6
CONTINUOUS
10
3.4407140944881891
20
-2.3239438188976376
11
3.4407216141732282
21
-2.3238380314960629
0
LINE
8
BLACK
6
CONTINUOUS
10
3.4407216141732282
20
-2.3238380314960629
11
3.4409285039370077
21
-2.3232974015748029
0
LINE
8
BLACK
6
CONTINUOUS
10
3.4409285039370077
20
-2.3232974015748029
11
3.4428032677165352
21
-2.3195478740157478
0
LINE
8
BLACK
6
CONTINUOUS
10
3.4428032677165352
20
-2.3195478740157478
11
3.4429593307086614
21
-2.3192998425196851
0
LINE
8
BLACK
6
CONTINUOUS
10
3.4429593307086614
20
-2.3192998425196851
11
3.4429891732283462
21
-2.3192279133858267
0
LINE
8
BLACK
6
CONTINUOUS
10
3.4429891732283462
20
-2.3192279133858267
11
3.4430556299212598
21
-2.3191469291338582
0
LINE
8
BLACK
6
CONTINUOUS
10
3.4430556299212598
20
-2.3191469291338582
11
3.4431116141732283
21
-2.3190579921259844
0
LINE
8
BLACK
6
CONTINUOUS
10
3.4431116141732283
20
-2.3190579921259844
11
3.4431705905511811
21
-2.3190068110236219
0
LINE
8
BLACK
6
CONTINUOUS
10
3.4431705905511811
20
-2.3190068110236219
11
3.4433563779527558
21
-2.3187804724409449
0
LINE
8
BLACK
6
CONTINUOUS
10
3.4433563779527558
20
-2.3187804724409449
11
3.4452311417322834
21
-2.3169057086614173
0
LINE
8
BLACK
6
CONTINUOUS
10
3.4452311417322834
20
-2.3169057086614173
11
3.4454574803149605
21
-2.3167199212598426
0
LINE
8
BLACK
6
CONTINUOUS
10
3.4454574803149605
20
-2.3167199212598426
11
3.4455086614173229
21
-2.3166609448818898
0
LINE
8
BLACK
6
CONTINUOUS
10
3.4455086614173229
20
-2.3166609448818898
11
3.4455975984251968
21
-2.3166049606299213
0
LINE
8
BLACK
6
CONTINUOUS
10
3.4455975984251968
20
-2.3166049606299213
11
3.4456785826771652
21
-2.3165385039370077
0
LINE
8
BLACK
6
CONTINUOUS
10
3.4456785826771652
20
-2.3165385039370077
11
3.4457505118110237
21
-2.3165086614173229
0
LINE
8
BLACK
6
CONTINUOUS
10
3.4457505118110237
20
-2.3165086614173229
11
3.4459985433070863
21
-2.3163525984251967
0
LINE
8
BLACK
6
CONTINUOUS
10
3.4459985433070863
20
-2.3163525984251967
11
3.4497480708661414
21
-2.3144778346456691
0
LINE
8
BLACK
6
CONTINUOUS
10
3.4497480708661414
20
-2.3144778346456691
11
3.4502886614173227
21
-2.3142709448818897
0
LINE
8
BLACK
6
CONTINUOUS
10
3.4502886614173227
20
-2.3142709448818897
11
3.4503945275590548
21
-2.3142633858267714
0
LINE
8
BLACK
6
CONTINUOUS
10
3.4503945275590548
20
-2.3142633858267714
11
3.4504925196850391
21
-2.314222834645669
0
LINE
8
BLACK
6
CONTINUOUS
10
3.4504925196850391
20
-2.314222834645669
11
3.4510685826771654
21
-2.3141661023622047
0
LINE
8
BLACK
6
CONTINUOUS
10
3.4510685826771654
20
-2.3141661023622047
11
3.4660666929133859
21
-2.3141661023622047
0
LINE
8
BLACK
6
CONTINUOUS
10
3.4660666929133859
20
-2.3141661023622047
11
3.4666427559055117
21
-2.314222834645669
0
LINE
8
BLACK
6
CONTINUOUS
10
3.4490681496062989
20
-2.3214203543307086
11
3.4478710236220471
21
-2.3226174803149604
0
LINE
8
BLACK
6
CONTINUOUS
10
3.4478710236220471
20
-2.3226174803149604
11
3.4465222834645668
21
-2.325314960629921
0
LINE
8
BLACK
6
CONTINUOUS
10
3.4465222834645668
20
-2.325314960629921
11
3.4465222834645668
21
-2.329545157480315
0
LINE
8
BLACK
6
CONTINUOUS
10
3.4465222834645668
20
-2.329545157480315
11
3.4478710236220471
21
-2.3322426377952756
0
LINE
8
BLACK
6
CONTINUOUS
10
3.4478710236220471
20
-2.3322426377952756
11
3.4490681496062989
21
-2.3334397637795274
0
LINE
8
BLACK
6
CONTINUOUS
10
3.4490681496062989
20
-2.3334397637795274
11
3.4517656299212596
21
-2.3347885039370078
0
LINE
8
BLACK
6
CONTINUOUS
10
3.4517656299212596
20
-2.3347885039370078
11
3.4631139370078738
21
-2.3347885039370078
0
LINE
8
BLACK
6
CONTINUOUS
10
3.4631139370078738
20
-2.3347885039370078
11
3.4631139370078738
21
-2.3200716141732283
0
LINE
8
BLACK
6
CONTINUOUS
10
3.4631139370078738
20
-2.3200716141732283
11
3.4517656299212596
21
-2.3200716141732283
0
LINE
8
BLACK
6
CONTINUOUS
10
3.4517656299212596
20
-2.3200716141732283
11
3.4490681496062989
21
-2.3214203543307086
0
LINE
8
BLACK
6
CONTINUOUS
10
2.9560713779527559
20
-2.3114002755905512
11
2.9573498031496062
21
-2.3126787007874015
0
LINE
8
BLACK
6
CONTINUOUS
10
2.9573498031496062
20
-2.3126787007874015
11
2.9573498031496062
21
-2.3144866535433071
0
LINE
8
BLACK
6
CONTINUOUS
10
2.9573498031496062
20
-2.3144866535433071
11
2.9560713779527559
21
-2.3157650787401574
0
LINE
8
BLACK
6
CONTINUOUS
10
2.9560713779527559
20
-2.3157650787401574
11
2.9551674015748031
21
-2.3159448818897639
0
LINE
8
BLACK
6
CONTINUOUS
10
2.9551674015748031
20
-2.3159448818897639
11
2.9345963779527557
21
-2.3159448818897639
0
LINE
8
BLACK
6
CONTINUOUS
10
2.9345963779527557
20
-2.3159448818897639
11
2.9336924015748029
21
-2.3157650787401574
0
LINE
8
BLACK
6
CONTINUOUS
10
2.9336924015748029
20
-2.3157650787401574
11
2.9324139763779526
21
-2.3144866535433071
0
LINE
8
BLACK
6
CONTINUOUS
10
2.9324139763779526
20
-2.3144866535433071
11
2.9324139763779526
21
-2.3126787007874015
0
LINE
8
BLACK
6
CONTINUOUS
10
2.9324139763779526
20
-2.3126787007874015
11
2.9336924015748029
21
-2.3114002755905512
0
LINE
8
BLACK
6
CONTINUOUS
10
2.9336924015748029
20
-2.3114002755905512
11
2.9345963779527557
21
-2.3112204724409446
0
LINE
8
BLACK
6
CONTINUOUS
10
2.9345963779527557
20
-2.3112204724409446
11
2.9551674015748031
21
-2.3112204724409446
0
LINE
8
BLACK
6
CONTINUOUS
10
2.9551674015748031
20
-2.3112204724409446
11
2.9560713779527559
21
-2.3114002755905512
0
LINE
8
BLACK
6
CONTINUOUS
10
3.3090561023622045
20
-2.3074632677165354
11
3.3103345275590552
21
-2.3087416929133857
0
LINE
8
BLACK
6
CONTINUOUS
10
3.3103345275590552
20
-2.3087416929133857
11
3.3103345275590552
21
-2.3105496456692913
0
LINE
8
BLACK
6
CONTINUOUS
10
3.3103345275590552
20
-2.3105496456692913
11
3.3090561023622045
21
-2.3118280708661416
0
LINE
8
BLACK
6
CONTINUOUS
10
3.3090561023622045
20
-2.3118280708661416
11
3.3081521259842517
21
-2.3120078740157481
0
LINE
8
BLACK
6
CONTINUOUS
10
3.3081521259842517
20
-2.3120078740157481
11
3.2902730708661418
21
-2.3120078740157481
0
LINE
8
BLACK
6
CONTINUOUS
10
3.2902730708661418
20
-2.3120078740157481
11
3.289369094488189
21
-2.3118280708661416
0
LINE
8
BLACK
6
CONTINUOUS
10
3.289369094488189
20
-2.3118280708661416
11
3.2880906692913383
21
-2.3105496456692913
0
LINE
8
BLACK
6
CONTINUOUS
10
3.2880906692913383
20
-2.3105496456692913
11
3.2880906692913383
21
-2.3087416929133857
0
LINE
8
BLACK
6
CONTINUOUS
10
3.2880906692913383
20
-2.3087416929133857
11
3.289369094488189
21
-2.3074632677165354
0
LINE
8
BLACK
6
CONTINUOUS
10
3.289369094488189
20
-2.3074632677165354
11
3.2902730708661418
21
-2.3072834645669289
0
LINE
8
BLACK
6
CONTINUOUS
10
3.2902730708661418
20
-2.3072834645669289
11
3.3081521259842517
21
-2.3072834645669289
0
LINE
8
BLACK
6
CONTINUOUS
10
3.3081521259842517
20
-2.3072834645669289
11
3.3090561023622045
21
-2.3074632677165354
0
LINE
8
BLACK
6
CONTINUOUS
10
2.9313971653543307
20
-2.2520181102362202
11
2.931495157480315
21
-2.2520587007874013
0
LINE
8
BLACK
6
CONTINUOUS
10
2.931495157480315
20
-2.2520587007874013
11
2.9316009842519684
21
-2.2520662204724409
0
LINE
8
BLACK
6
CONTINUOUS
10
2.9316009842519684
20
-2.2520662204724409
11
2.9321416141732284
21
-2.2522731102362203
0
LINE
8
BLACK
6
CONTINUOUS
10
2.9321416141732284
20
-2.2522731102362203
11
2.9358911417322835
21
-2.2541478740157479
0
LINE
8
BLACK
6
CONTINUOUS
10
2.9358911417322835
20
-2.2541478740157479
11
2.9361391338582679
21
-2.2543039370078741
0
LINE
8
BLACK
6
CONTINUOUS
10
2.9361391338582679
20
-2.2543039370078741
11
2.9362111023622046
21
-2.2543337795275589
0
LINE
8
BLACK
6
CONTINUOUS
10
2.9362111023622046
20
-2.2543337795275589
11
2.9362920472440943
21
-2.2544002362204725
0
LINE
8
BLACK
6
CONTINUOUS
10
2.9362920472440943
20
-2.2544002362204725
11
2.9363810236220473
21
-2.254456220472441
0
LINE
8
BLACK
6
CONTINUOUS
10
2.9363810236220473
20
-2.254456220472441
11
2.9364321653543306
21
-2.2545151968503938
0
LINE
8
BLACK
6
CONTINUOUS
10
2.9364321653543306
20
-2.2545151968503938
11
2.9366585433070864
21
-2.2547009842519685
0
LINE
8
BLACK
6
CONTINUOUS
10
2.9366585433070864
20
-2.2547009842519685
11
2.938533307086614
21
-2.2565757480314961
0
LINE
8
BLACK
6
CONTINUOUS
10
2.938533307086614
20
-2.2565757480314961
11
2.9389005118110236
21
-2.2570231889763779
0
LINE
8
BLACK
6
CONTINUOUS
10
2.9389005118110236
20
-2.2570231889763779
11
2.9393414173228347
21
-2.2580875984251967
0
LINE
8
BLACK
6
CONTINUOUS
10
2.9393414173228347
20
-2.2580875984251967
11
2.9393414173228347
21
-2.2592396850393701
0
LINE
8
BLACK
6
CONTINUOUS
10
2.9393414173228347
20
-2.2592396850393701
11
2.9389005118110236
21
-2.2603040944881889
0
LINE
8
BLACK
6
CONTINUOUS
10
2.9389005118110236
20
-2.2603040944881889
11
2.9380858267716534
21
-2.2611187795275591
0
LINE
8
BLACK
6
CONTINUOUS
10
2.9380858267716534
20
-2.2611187795275591
11
2.9370214173228346
21
-2.2615596850393702
0
LINE
8
BLACK
6
CONTINUOUS
10
2.9370214173228346
20
-2.2615596850393702
11
2.9358693307086612
21
-2.2615596850393702
0
LINE
8
BLACK
6
CONTINUOUS
10
2.9358693307086612
20
-2.2615596850393702
11
2.9348049212598424
21
-2.2611187795275591
0
LINE
8
BLACK
6
CONTINUOUS
10
2.9348049212598424
20
-2.2611187795275591
11
2.9343574803149606
21
-2.2607515748031495
0
LINE
8
BLACK
6
CONTINUOUS
10
2.9343574803149606
20
-2.2607515748031495
11
2.9328215354330709
21
-2.2592156299212598
0
LINE
8
BLACK
6
CONTINUOUS
10
2.9328215354330709
20
-2.2592156299212598
11
2.9301240551181102
21
-2.2578668897637795
0
LINE
8
BLACK
6
CONTINUOUS
10
2.9301240551181102
20
-2.2578668897637795
11
2.9221443307086612
21
-2.2578668897637795
0
LINE
8
BLACK
6
CONTINUOUS
10
2.9221443307086612
20
-2.2578668897637795
11
2.9194468503937006
21
-2.2592156299212598
0
LINE
8
BLACK
6
CONTINUOUS
10
2.9194468503937006
20
-2.2592156299212598
11
2.9182497244094487
21
-2.2604127559055116
0
LINE
8
BLACK
6
CONTINUOUS
10
2.9182497244094487
20
-2.2604127559055116
11
2.9169009842519684
21
-2.2631102362204722
0
LINE
8
BLACK
6
CONTINUOUS
10
2.9169009842519684
20
-2.2631102362204722
11
2.9169009842519684
21
-2.2656835433070865
0
LINE
8
BLACK
6
CONTINUOUS
10
2.9169009842519684
20
-2.2656835433070865
11
2.918403779527559
21
-2.2701919685039371
0
LINE
8
BLACK
6
CONTINUOUS
10
2.918403779527559
20
-2.2701919685039371
11
2.9404080708661415
21
-2.2921962992125984
0
LINE
8
BLACK
6
CONTINUOUS
10
2.9404080708661415
20
-2.2921962992125984
11
2.9407753149606299
21
-2.2926437401574802
0
LINE
8
BLACK
6
CONTINUOUS
10
2.9407753149606299
20
-2.2926437401574802
11
2.9412161811023623
21
-2.2937081889763777
0
LINE
8
BLACK
6
CONTINUOUS
10
2.9412161811023623
20
-2.2937081889763777
11
2.9412161811023623
21
-2.2948602755905512
0
LINE
8
BLACK
6
CONTINUOUS
10
2.9412161811023623
20
-2.2948602755905512
11
2.9407752755905512
21
-2.29592468503937
0
LINE
8
BLACK
6
CONTINUOUS
10
2.9407752755905512
20
-2.29592468503937
11
2.9399606299212597
21
-2.2967393700787402
0
LINE
8
BLACK
6
CONTINUOUS
10
2.9399606299212597
20
-2.2967393700787402
11
2.9392079527559054
21
-2.2970511023622047
0
LINE
8
BLACK
6
CONTINUOUS
10
2.9392079527559054
20
-2.2970511023622047
11
2.9388962204724409
21
-2.2971802362204725
0
LINE
8
BLACK
6
CONTINUOUS
10
2.9388962204724409
20
-2.2971802362204725
11
2.9383201574803151
21
-2.2972369685039369
0
LINE
8
BLACK
6
CONTINUOUS
10
2.9383201574803151
20
-2.2972369685039369
11
2.9139482283464568
21
-2.2972369685039369
0
LINE
8
BLACK
6
CONTINUOUS
10
2.9139482283464568
20
-2.2972369685039369
11
2.9133721653543305
21
-2.2971802362204725
0
LINE
8
BLACK
6
CONTINUOUS
10
2.9133721653543305
20
-2.2971802362204725
11
2.9123077559055117
21
-2.2967393307086614
0
LINE
8
BLACK
6
CONTINUOUS
10
2.9123077559055117
20
-2.2967393307086614
11
2.9114931102362203
21
-2.29592468503937
0
LINE
8
BLACK
6
CONTINUOUS
10
2.9114931102362203
20
-2.29592468503937
11
2.9110522047244092
21
-2.2948602755905512
0
LINE
8
BLACK
6
CONTINUOUS
10
2.9110522047244092
20
-2.2948602755905512
11
2.9110522047244092
21
-2.293708149606299
0
LINE
8
BLACK
6
CONTINUOUS
10
2.9110522047244092
20
-2.293708149606299
11
2.9114931102362203
21
-2.2926437401574802
0
LINE
8
BLACK
6
CONTINUOUS
10
2.9114931102362203
20
-2.2926437401574802
11
2.9123077559055117
21
-2.2918290944881887
0
LINE
8
BLACK
6
CONTINUOUS
10
2.9123077559055117
20
-2.2918290944881887
11
2.9133721653543305
21
-2.2913881889763781
0
LINE
8
BLACK
6
CONTINUOUS
10
2.9133721653543305
20
-2.2913881889763781
11
2.9139482283464568
21
-2.2913314566929133
0
LINE
8
BLACK
6
CONTINUOUS
10
2.9139482283464568
20
-2.2913314566929133
11
2.9311915748031496
21
-2.2913314566929133
0
LINE
8
BLACK
6
CONTINUOUS
10
2.9311915748031496
20
-2.2913314566929133
11
2.9137350787401575
21
-2.2738749212598424
0
LINE
8
BLACK
6
CONTINUOUS
10
2.9137350787401575
20
-2.2738749212598424
11
2.9133678740157478
21
-2.2734274803149606
0
LINE
8
BLACK
6
CONTINUOUS
10
2.9133678740157478
20
-2.2734274803149606
11
2.913327244094488
21
-2.2733294094488188
0
LINE
8
BLACK
6
CONTINUOUS
10
2.913327244094488
20
-2.2733294094488188
11
2.9132577559055117
21
-2.2732492913385824
0
LINE
8
BLACK
6
CONTINUOUS
10
2.9132577559055117
20
-2.2732492913385824
11
2.9130217716535434
21
-2.2727207480314959
0
LINE
8
BLACK
6
CONTINUOUS
10
2.9130217716535434
20
-2.2727207480314959
11
2.9111470078740158
21
-2.2670964566929133
0
LINE
8
BLACK
6
CONTINUOUS
10
2.9111470078740158
20
-2.2670964566929133
11
2.9110820472440944
21
-2.2668108661417321
0
LINE
8
BLACK
6
CONTINUOUS
10
2.9110820472440944
20
-2.2668108661417321
11
2.9110522047244092
21
-2.2667387795275591
0
LINE
8
BLACK
6
CONTINUOUS
10
2.9110522047244092
20
-2.2667387795275591
11
2.9110418897637795
21
-2.2666342519685041
0
LINE
8
BLACK
6
CONTINUOUS
10
2.9110418897637795
20
-2.2666342519685041
11
2.9110186614173226
21
-2.2665320078740159
0
LINE
8
BLACK
6
CONTINUOUS
10
2.9110186614173226
20
-2.2665320078740159
11
2.9110241732283466
21
-2.2664542519685038
0
LINE
8
BLACK
6
CONTINUOUS
10
2.9110241732283466
20
-2.2664542519685038
11
2.9109954724409448
21
-2.2661627165354332
0
LINE
8
BLACK
6
CONTINUOUS
10
2.9109954724409448
20
-2.2661627165354332
11
2.9109954724409448
21
-2.2624131889763781
0
LINE
8
BLACK
6
CONTINUOUS
10
2.9109954724409448
20
-2.2624131889763781
11
2.9110522047244092
21
-2.2618371259842518
0
LINE
8
BLACK
6
CONTINUOUS
10
2.9110522047244092
20
-2.2618371259842518
11
2.9110927952755903
21
-2.2617390944881888
0
LINE
8
BLACK
6
CONTINUOUS
10
2.9110927952755903
20
-2.2617390944881888
11
2.9111003149606298
21
-2.2616333070866141
0
LINE
8
BLACK
6
CONTINUOUS
10
2.9111003149606298
20
-2.2616333070866141
11
2.9113072047244093
21
-2.2610926771653541
0
LINE
8
BLACK
6
CONTINUOUS
10
2.9113072047244093
20
-2.2610926771653541
11
2.9131819685039368
21
-2.257343149606299
0
LINE
8
BLACK
6
CONTINUOUS
10
2.9131819685039368
20
-2.257343149606299
11
2.9133380314960631
21
-2.2570951181102363
0
LINE
8
BLACK
6
CONTINUOUS
10
2.9133380314960631
20
-2.2570951181102363
11
2.9133678740157478
21
-2.2570231889763779
0
LINE
8
BLACK
6
CONTINUOUS
10
2.9133678740157478
20
-2.2570231889763779
11
2.9134343307086614
21
-2.2569422047244094
0
LINE
8
BLACK
6
CONTINUOUS
10
2.9134343307086614
20
-2.2569422047244094
11
2.9134903149606299
21
-2.2568532677165352
0
LINE
8
BLACK
6
CONTINUOUS
10
2.9134903149606299
20
-2.2568532677165352
11
2.9135492913385828
21
-2.2568020866141731
0
LINE
8
BLACK
6
CONTINUOUS
10
2.9135492913385828
20
-2.2568020866141731
11
2.9137350787401575
21
-2.2565757480314961
0
LINE
8
BLACK
6
CONTINUOUS
10
2.9137350787401575
20
-2.2565757480314961
11
2.915609842519685
21
-2.2547009842519685
0
LINE
8
BLACK
6
CONTINUOUS
10
2.915609842519685
20
-2.2547009842519685
11
2.9158361811023621
21
-2.2545151968503938
0
LINE
8
BLACK
6
CONTINUOUS
10
2.9158361811023621
20
-2.2545151968503938
11
2.9158873622047246
21
-2.254456220472441
0
LINE
8
BLACK
6
CONTINUOUS
10
2.9158873622047246
20
-2.254456220472441
11
2.9159762992125984
21
-2.2544002362204725
0
LINE
8
BLACK
6
CONTINUOUS
10
2.9159762992125984
20
-2.2544002362204725
11
2.9160572834645668
21
-2.2543337795275589
0
LINE
8
BLACK
6
CONTINUOUS
10
2.9160572834645668
20
-2.2543337795275589
11
2.9161292125984253
21
-2.2543039370078741
0
LINE
8
BLACK
6
CONTINUOUS
10
2.9161292125984253
20
-2.2543039370078741
11
2.916377244094488
21
-2.2541478740157479
0
LINE
8
BLACK
6
CONTINUOUS
10
2.916377244094488
20
-2.2541478740157479
11
2.9201267716535431
21
-2.2522731102362203
0
LINE
8
BLACK
6
CONTINUOUS
10
2.9201267716535431
20
-2.2522731102362203
11
2.9206673622047243
21
-2.2520662204724409
0
LINE
8
BLACK
6
CONTINUOUS
10
2.9206673622047243
20
-2.2520662204724409
11
2.9207732283464565
21
-2.2520586614173226
0
LINE
8
BLACK
6
CONTINUOUS
10
2.9207732283464565
20
-2.2520586614173226
11
2.9208712204724407
21
-2.2520181102362202
0
LINE
8
BLACK
6
CONTINUOUS
10
2.9208712204724407
20
-2.2520181102362202
11
2.9214472834645671
21
-2.2519613779527559
0
LINE
8
BLACK
6
CONTINUOUS
10
2.9214472834645671
20
-2.2519613779527559
11
2.9308211023622048
21
-2.2519613779527559
0
LINE
8
BLACK
6
CONTINUOUS
10
2.9308211023622048
20
-2.2519613779527559
11
2.9313971653543307
21
-2.2520181102362202
0
LINE
8
BLACK
6
CONTINUOUS
10
2.9629836614173226
20
-2.2519900787401572
11
2.9630614173228347
21
-2.2519845669291336
0
LINE
8
BLACK
6
CONTINUOUS
10
2.9630614173228347
20
-2.2519845669291336
11
2.9631636614173229
21
-2.2520077952755906
0
LINE
8
BLACK
6
CONTINUOUS
10
2.9631636614173229
20
-2.2520077952755906
11
2.9632681889763779
21
-2.2520181102362202
0
LINE
8
BLACK
6
CONTINUOUS
10
2.9632681889763779
20
-2.2520181102362202
11
2.9633402755905509
21
-2.2520479527559054
0
LINE
8
BLACK
6
CONTINUOUS
10
2.9633402755905509
20
-2.2520479527559054
11
2.9636258661417321
21
-2.2521129133858269
0
LINE
8
BLACK
6
CONTINUOUS
10
2.9636258661417321
20
-2.2521129133858269
11
2.9692501574803147
21
-2.2539876771653544
0
LINE
8
BLACK
6
CONTINUOUS
10
2.9692501574803147
20
-2.2539876771653544
11
2.9697787007874017
21
-2.2542236614173228
0
LINE
8
BLACK
6
CONTINUOUS
10
2.9697787007874017
20
-2.2542236614173228
11
2.9698588188976376
21
-2.254293149606299
0
LINE
8
BLACK
6
CONTINUOUS
10
2.9698588188976376
20
-2.254293149606299
11
2.9699568897637794
21
-2.2543337795275589
0
LINE
8
BLACK
6
CONTINUOUS
10
2.9699568897637794
20
-2.2543337795275589
11
2.9704043307086612
21
-2.2547009842519685
0
LINE
8
BLACK
6
CONTINUOUS
10
2.9704043307086612
20
-2.2547009842519685
11
2.9741538582677163
21
-2.2584505118110236
0
LINE
8
BLACK
6
CONTINUOUS
10
2.9741538582677163
20
-2.2584505118110236
11
2.9743396850393702
21
-2.2586768897637794
0
LINE
8
BLACK
6
CONTINUOUS
10
2.9743396850393702
20
-2.2586768897637794
11
2.9743986220472438
21
-2.2587280314960632
0
LINE
8
BLACK
6
CONTINUOUS
10
2.9743986220472438
20
-2.2587280314960632
11
2.9744544881889765
21
-2.2588167716535432
0
LINE
8
BLACK
6
CONTINUOUS
10
2.9744544881889765
20
-2.2588167716535432
11
2.9745211023622047
21
-2.2588979527559054
0
LINE
8
BLACK
6
CONTINUOUS
10
2.9745211023622047
20
-2.2588979527559054
11
2.9745509448818899
21
-2.2589700787401576
0
LINE
8
BLACK
6
CONTINUOUS
10
2.9745509448818899
20
-2.2589700787401576
11
2.9747069685039369
21
-2.2592179133858266
0
LINE
8
BLACK
6
CONTINUOUS
10
2.9747069685039369
20
-2.2592179133858266
11
2.9765817322834645
21
-2.2629674409448817
0
LINE
8
BLACK
6
CONTINUOUS
10
2.9765817322834645
20
-2.2629674409448817
11
2.9765978346456694
21
-2.2630095275590549
0
LINE
8
BLACK
6
CONTINUOUS
10
2.9765978346456694
20
-2.2630095275590549
11
2.9766105511811025
21
-2.2630266929133858
0
LINE
8
BLACK
6
CONTINUOUS
10
2.9766105511811025
20
-2.2630266929133858
11
2.9766968503937008
21
-2.2632682677165352
0
LINE
8
BLACK
6
CONTINUOUS
10
2.9766968503937008
20
-2.2632682677165352
11
2.9767886220472439
21
-2.2635080314960629
0
LINE
8
BLACK
6
CONTINUOUS
10
2.9767886220472439
20
-2.2635080314960629
11
2.9767901181102361
21
-2.2635292913385827
0
LINE
8
BLACK
6
CONTINUOUS
10
2.9767901181102361
20
-2.2635292913385827
11
2.9768053149606297
21
-2.2635718110236218
0
LINE
8
BLACK
6
CONTINUOUS
10
2.9768053149606297
20
-2.2635718110236218
11
2.9786800787401573
21
-2.271070866141732
0
LINE
8
BLACK
6
CONTINUOUS
10
2.9786800787401573
20
-2.271070866141732
11
2.9786948425196851
21
-2.2711707086614172
0
LINE
8
BLACK
6
CONTINUOUS
10
2.9786948425196851
20
-2.2711707086614172
11
2.9787114960629921
21
-2.2712109448818896
0
LINE
8
BLACK
6
CONTINUOUS
10
2.9787114960629921
20
-2.2712109448818896
11
2.9787328346456694
21
-2.2714279527559054
0
LINE
8
BLACK
6
CONTINUOUS
10
2.9787328346456694
20
-2.2714279527559054
11
2.9787647244094488
21
-2.271643464566929
0
LINE
8
BLACK
6
CONTINUOUS
10
2.9787647244094488
20
-2.271643464566929
11
2.9787583070866139
21
-2.2716864566929131
0
LINE
8
BLACK
6
CONTINUOUS
10
2.9787583070866139
20
-2.2716864566929131
11
2.9787682283464565
21
-2.2717870078740159
0
LINE
8
BLACK
6
CONTINUOUS
10
2.9787682283464565
20
-2.2717870078740159
11
2.9787682283464565
21
-2.2774112992125985
0
LINE
8
BLACK
6
CONTINUOUS
10
2.9787682283464565
20
-2.2774112992125985
11
2.9787583070866139
21
-2.2775118110236221
0
LINE
8
BLACK
6
CONTINUOUS
10
2.9787583070866139
20
-2.2775118110236221
11
2.9787647244094488
21
-2.277554842519685
0
LINE
8
BLACK
6
CONTINUOUS
10
2.9787647244094488
20
-2.277554842519685
11
2.9787328346456694
21
-2.2777703149606299
0
LINE
8
BLACK
6
CONTINUOUS
10
2.9787328346456694
20
-2.2777703149606299
11
2.9787114960629921
21
-2.2779873622047244
0
LINE
8
BLACK
6
CONTINUOUS
10
2.9787114960629921
20
-2.2779873622047244
11
2.9786948425196851
21
-2.278027559055118
0
LINE
8
BLACK
6
CONTINUOUS
10
2.9786948425196851
20
-2.278027559055118
11
2.9786800787401573
21
-2.278127440944882
0
LINE
8
BLACK
6
CONTINUOUS
10
2.9786800787401573
20
-2.278127440944882
11
2.9768053149606297
21
-2.2856264960629922
0
LINE
8
BLACK
6
CONTINUOUS
10
2.9768053149606297
20
-2.2856264960629922
11
2.9767901181102361
21
-2.2856689763779525
0
LINE
8
BLACK
6
CONTINUOUS
10
2.9767901181102361
20
-2.2856689763779525
11
2.9767886220472439
21
-2.285690275590551
0
LINE
8
BLACK
6
CONTINUOUS
10
2.9767886220472439
20
-2.285690275590551
11
2.9766968503937008
21
-2.28593
0
LINE
8
BLACK
6
CONTINUOUS
10
2.9766968503937008
20
-2.28593
11
2.9766105511811025
21
-2.2861716141732282
0
LINE
8
BLACK
6
CONTINUOUS
10
2.9766105511811025
20
-2.2861716141732282
11
2.9765978346456694
21
-2.2861887401574803
0
LINE
8
BLACK
6
CONTINUOUS
10
2.9765978346456694
20
-2.2861887401574803
11
2.9765817322834645
21
-2.2862308661417323
0
LINE
8
BLACK
6
CONTINUOUS
10
2.9765817322834645
20
-2.2862308661417323
11
2.9747069685039369
21
-2.2899803937007874
0
LINE
8
BLACK
6
CONTINUOUS
10
2.9747069685039369
20
-2.2899803937007874
11
2.9745509055118111
21
-2.2902282677165355
0
LINE
8
BLACK
6
CONTINUOUS
10
2.9745509055118111
20
-2.2902282677165355
11
2.9745211023622047
21
-2.2903003149606298
0
LINE
8
BLACK
6
CONTINUOUS
10
2.9745211023622047
20
-2.2903003149606298
11
2.9744545669291336
21
-2.290381338582677
0
LINE
8
BLACK
6
CONTINUOUS
10
2.9744545669291336
20
-2.290381338582677
11
2.9743986220472438
21
-2.2904702755905513
0
LINE
8
BLACK
6
CONTINUOUS
10
2.9743986220472438
20
-2.2904702755905513
11
2.9743396062992127
21
-2.2905214173228345
0
LINE
8
BLACK
6
CONTINUOUS
10
2.9743396062992127
20
-2.2905214173228345
11
2.974153897637795
21
-2.2907477559055116
0
LINE
8
BLACK
6
CONTINUOUS
10
2.974153897637795
20
-2.2907477559055116
11
2.9704043307086612
21
-2.2944973622047242
0
LINE
8
BLACK
6
CONTINUOUS
10
2.9704043307086612
20
-2.2944973622047242
11
2.9699568897637794
21
-2.2948645669291339
0
LINE
8
BLACK
6
CONTINUOUS
10
2.9699568897637794
20
-2.2948645669291339
11
2.9698588188976376
21
-2.294905157480315
0
LINE
8
BLACK
6
CONTINUOUS
10
2.9698588188976376
20
-2.294905157480315
11
2.9697787007874017
21
-2.29497468503937
0
LINE
8
BLACK
6
CONTINUOUS
10
2.9697787007874017
20
-2.29497468503937
11
2.9692501574803147
21
-2.2952106692913383
0
LINE
8
BLACK
6
CONTINUOUS
10
2.9692501574803147
20
-2.2952106692913383
11
2.9636258661417321
21
-2.2970854330708659
0
LINE
8
BLACK
6
CONTINUOUS
10
2.9636258661417321
20
-2.2970854330708659
11
2.9633402755905509
21
-2.2971503543307086
0
LINE
8
BLACK
6
CONTINUOUS
10
2.9633402755905509
20
-2.2971503543307086
11
2.9632681889763779
21
-2.2971802362204725
0
LINE
8
BLACK
6
CONTINUOUS
10
2.9632681889763779
20
-2.2971802362204725
11
2.9631636614173229
21
-2.2971905118110234
0
LINE
8
BLACK
6
CONTINUOUS
10
2.9631636614173229
20
-2.2971905118110234
11
2.9630614173228347
21
-2.2972137795275591
0
LINE
8
BLACK
6
CONTINUOUS
10
2.9630614173228347
20
-2.2972137795275591
11
2.9629836614173226
21
-2.2972082283464568
0
LINE
8
BLACK
6
CONTINUOUS
10
2.9629836614173226
20
-2.2972082283464568
11
2.962692125984252
21
-2.2972369685039369
0
LINE
8
BLACK
6
CONTINUOUS
10
2.962692125984252
20
-2.2972369685039369
11
2.9589425984251969
21
-2.2972369685039369
0
LINE
8
BLACK
6
CONTINUOUS
10
2.9589425984251969
20
-2.2972369685039369
11
2.9586509842519684
21
-2.2972082283464568
0
LINE
8
BLACK
6
CONTINUOUS
10
2.9586509842519684
20
-2.2972082283464568
11
2.9585732677165355
21
-2.2972137795275591
0
LINE
8
BLACK
6
CONTINUOUS
10
2.9585732677165355
20
-2.2972137795275591
11
2.9584709842519685
21
-2.2971905118110234
0
LINE
8
BLACK
6
CONTINUOUS
10
2.9584709842519685
20
-2.2971905118110234
11
2.9583665354330706
21
-2.2971802362204725
0
LINE
8
BLACK
6
CONTINUOUS
10
2.9583665354330706
20
-2.2971802362204725
11
2.9582944488188976
21
-2.2971503543307086
0
LINE
8
BLACK
6
CONTINUOUS
10
2.9582944488188976
20
-2.2971503543307086
11
2.9580088188976377
21
-2.2970854330708659
0
LINE
8
BLACK
6
CONTINUOUS
10
2.9580088188976377
20
-2.2970854330708659
11
2.9523845669291338
21
-2.2952106692913383
0
LINE
8
BLACK
6
CONTINUOUS
10
2.9523845669291338
20
-2.2952106692913383
11
2.9518559842519685
21
-2.29497468503937
0
LINE
8
BLACK
6
CONTINUOUS
10
2.9518559842519685
20
-2.29497468503937
11
2.9517757874015746
21
-2.2949051181102362
0
LINE
8
BLACK
6
CONTINUOUS
10
2.9517757874015746
20
-2.2949051181102362
11
2.9516778346456691
21
-2.2948645669291339
0
LINE
8
BLACK
6
CONTINUOUS
10
2.9516778346456691
20
-2.2948645669291339
11
2.9512303543307086
21
-2.2944973228346455
0
LINE
8
BLACK
6
CONTINUOUS
10
2.9512303543307086
20
-2.2944973228346455
11
2.949355590551181
21
-2.2926225196850392
0
LINE
8
BLACK
6
CONTINUOUS
10
2.949355590551181
20
-2.2926225196850392
11
2.9489883858267718
21
-2.2921750787401574
0
LINE
8
BLACK
6
CONTINUOUS
10
2.9489883858267718
20
-2.2921750787401574
11
2.9485475196850395
21
-2.2911106692913386
0
LINE
8
BLACK
6
CONTINUOUS
10
2.9485475196850395
20
-2.2911106692913386
11
2.9485475196850395
21
-2.2899585826771651
0
LINE
8
BLACK
6
CONTINUOUS
10
2.9485475196850395
20
-2.2899585826771651
11
2.9489884251968501
21
-2.2888941732283463
0
LINE
8
BLACK
6
CONTINUOUS
10
2.9489884251968501
20
-2.2888941732283463
11
2.9498031102362203
21
-2.2880794881889761
0
LINE
8
BLACK
6
CONTINUOUS
10
2.9498031102362203
20
-2.2880794881889761
11
2.9508675196850391
21
-2.2876386220472442
0
LINE
8
BLACK
6
CONTINUOUS
10
2.9508675196850391
20
-2.2876386220472442
11
2.9520196062992126
21
-2.2876386220472442
0
LINE
8
BLACK
6
CONTINUOUS
10
2.9520196062992126
20
-2.2876386220472442
11
2.9530840157480314
21
-2.2880795275590549
0
LINE
8
BLACK
6
CONTINUOUS
10
2.9530840157480314
20
-2.2880795275590549
11
2.9535314960629919
21
-2.2884467716535433
0
LINE
8
BLACK
6
CONTINUOUS
10
2.9535314960629919
20
-2.2884467716535433
11
2.954913346456693
21
-2.2898286614173227
0
LINE
8
BLACK
6
CONTINUOUS
10
2.954913346456693
20
-2.2898286614173227
11
2.9594217322834644
21
-2.2913314566929133
0
LINE
8
BLACK
6
CONTINUOUS
10
2.9594217322834644
20
-2.2913314566929133
11
2.9622129921259841
21
-2.2913314566929133
0
LINE
8
BLACK
6
CONTINUOUS
10
2.9622129921259841
20
-2.2913314566929133
11
2.9667213779527559
21
-2.2898286220472439
0
LINE
8
BLACK
6
CONTINUOUS
10
2.9667213779527559
20
-2.2898286220472439
11
2.9696391732283463
21
-2.2869107874015748
0
LINE
8
BLACK
6
CONTINUOUS
10
2.9696391732283463
20
-2.2869107874015748
11
2.97115468503937
21
-2.2838798031496061
0
LINE
8
BLACK
6
CONTINUOUS
10
2.97115468503937
20
-2.2838798031496061
11
2.9728627165354329
21
-2.2770477559055116
0
LINE
8
BLACK
6
CONTINUOUS
10
2.9728627165354329
20
-2.2770477559055116
11
2.9728627165354329
21
-2.2721505511811024
0
LINE
8
BLACK
6
CONTINUOUS
10
2.9728627165354329
20
-2.2721505511811024
11
2.97115468503937
21
-2.2653185039370078
0
LINE
8
BLACK
6
CONTINUOUS
10
2.97115468503937
20
-2.2653185039370078
11
2.969639212598425
21
-2.2622875196850392
0
LINE
8
BLACK
6
CONTINUOUS
10
2.969639212598425
20
-2.2622875196850392
11
2.9667213779527559
21
-2.2593696850393701
0
LINE
8
BLACK
6
CONTINUOUS
10
2.9667213779527559
20
-2.2593696850393701
11
2.9622129921259841
21
-2.2578668897637795
0
LINE
8
BLACK
6
CONTINUOUS
10
2.9622129921259841
20
-2.2578668897637795
11
2.9594217322834644
21
-2.2578668897637795
0
LINE
8
BLACK
6
CONTINUOUS
10
2.9594217322834644
20
-2.2578668897637795
11
2.954913346456693
21
-2.2593696850393701
0
LINE
8
BLACK
6
CONTINUOUS
10
2.954913346456693
20
-2.2593696850393701
11
2.9535314566929132
21
-2.2607515748031495
0
LINE
8
BLACK
6
CONTINUOUS
10
2.9535314566929132
20
-2.2607515748031495
11
2.9530840157480314
21
-2.2611187795275591
0
LINE
8
BLACK
6
CONTINUOUS
10
2.9530840157480314
20
-2.2611187795275591
11
2.9520195669291338
21
-2.2615596850393702
0
LINE
8
BLACK
6
CONTINUOUS
10
2.9520195669291338
20
-2.2615596850393702
11
2.9508675196850391
21
-2.2615596850393702
0
LINE
8
BLACK
6
CONTINUOUS
10
2.9508675196850391
20
-2.2615596850393702
11
2.9498030708661416
21
-2.2611187795275591
0
LINE
8
BLACK
6
CONTINUOUS
10
2.9498030708661416
20
-2.2611187795275591
11
2.9489884251968501
21
-2.2603041338582677
0
LINE
8
BLACK
6
CONTINUOUS
10
2.9489884251968501
20
-2.2603041338582677
11
2.9485475196850395
21
-2.2592396850393701
0
LINE
8
BLACK
6
CONTINUOUS
10
2.9485475196850395
20
-2.2592396850393701
11
2.9485475196850395
21
-2.2580876377952754
0
LINE
8
BLACK
6
CONTINUOUS
10
2.9485475196850395
20
-2.2580876377952754
11
2.9489884251968501
21
-2.2570231889763779
0
LINE
8
BLACK
6
CONTINUOUS
10
2.9489884251968501
20
-2.2570231889763779
11
2.9493556299212598
21
-2.2565757480314961
0
LINE
8
BLACK
6
CONTINUOUS
10
2.9493556299212598
20
-2.2565757480314961
11
2.9512303937007873
21
-2.2547009842519685
0
LINE
8
BLACK
6
CONTINUOUS
10
2.9512303937007873
20
-2.2547009842519685
11
2.9516778346456691
21
-2.2543337795275589
0
LINE
8
BLACK
6
CONTINUOUS
10
2.9516778346456691
20
-2.2543337795275589
11
2.9517757874015746
21
-2.2542931889763778
0
LINE
8
BLACK
6
CONTINUOUS
10
2.9517757874015746
20
-2.2542931889763778
11
2.9518559842519685
21
-2.2542236614173228
0
LINE
8
BLACK
6
CONTINUOUS
10
2.9518559842519685
20
-2.2542236614173228
11
2.9523845669291338
21
-2.2539876771653544
0
LINE
8
BLACK
6
CONTINUOUS
10
2.9523845669291338
20
-2.2539876771653544
11
2.9580088188976377
21
-2.2521129133858269
0
LINE
8
BLACK
6
CONTINUOUS
10
2.9580088188976377
20
-2.2521129133858269
11
2.9582944488188976
21
-2.2520479527559054
0
LINE
8
BLACK
6
CONTINUOUS
10
2.9582944488188976
20
-2.2520479527559054
11
2.9583665354330706
21
-2.2520181102362202
0
LINE
8
BLACK
6
CONTINUOUS
10
2.9583665354330706
20
-2.2520181102362202
11
2.9584709842519685
21
-2.2520077952755906
0
LINE
8
BLACK
6
CONTINUOUS
10
2.9584709842519685
20
-2.2520077952755906
11
2.9585732677165355
21
-2.2519845669291336
0
LINE
8
BLACK
6
CONTINUOUS
10
2.9585732677165355
20
-2.2519845669291336
11
2.9586509842519684
21
-2.2519900787401572
0
LINE
8
BLACK
6
CONTINUOUS
10
2.9586509842519684
20
-2.2519900787401572
11
2.9589425984251969
21
-2.2519613779527559
0
LINE
8
BLACK
6
CONTINUOUS
10
2.9589425984251969
20
-2.2519613779527559
11
2.962692125984252
21
-2.2519613779527559
0
LINE
8
BLACK
6
CONTINUOUS
10
2.962692125984252
20
-2.2519613779527559
11
2.9629836614173226
21
-2.2519900787401572
0
LINE
8
BLACK
6
CONTINUOUS
10
3.3483450393700789
20
-2.1331204724409449
11
3.3494094488188977
21
-2.133561377952756
0
LINE
8
BLACK
6
CONTINUOUS
10
3.3494094488188977
20
-2.133561377952756
11
3.3502240944881887
21
-2.134376023622047
0
LINE
8
BLACK
6
CONTINUOUS
10
3.3502240944881887
20
-2.134376023622047
11
3.3506649999999998
21
-2.1354404330708663
0
LINE
8
BLACK
6
CONTINUOUS
10
3.3506649999999998
20
-2.1354404330708663
11
3.3506649999999998
21
-2.136592559055118
0
LINE
8
BLACK
6
CONTINUOUS
10
3.3506649999999998
20
-2.136592559055118
11
3.3502240944881887
21
-2.1376569685039368
0
LINE
8
BLACK
6
CONTINUOUS
10
3.3502240944881887
20
-2.1376569685039368
11
3.3494094488188977
21
-2.1384716141732283
0
LINE
8
BLACK
6
CONTINUOUS
10
3.3494094488188977
20
-2.1384716141732283
11
3.3483450393700789
21
-2.1389125196850394
0
LINE
8
BLACK
6
CONTINUOUS
10
3.3483450393700789
20
-2.1389125196850394
11
3.3477689763779526
21
-2.1389692519685037
0
LINE
8
BLACK
6
CONTINUOUS
10
3.3477689763779526
20
-2.1389692519685037
11
3.3299042125984251
21
-2.1389692519685037
0
LINE
8
BLACK
6
CONTINUOUS
10
3.3299042125984251
20
-2.1389692519685037
11
3.3387425590551181
21
-2.1490701968503938
0
LINE
8
BLACK
6
CONTINUOUS
10
3.3387425590551181
20
-2.1490701968503938
11
3.3389205511811024
21
-2.1493191732283465
0
LINE
8
BLACK
6
CONTINUOUS
10
3.3389205511811024
20
-2.1493191732283465
11
3.3389755118110234
21
-2.1493741338582675
0
LINE
8
BLACK
6
CONTINUOUS
10
3.3389755118110234
20
-2.1493741338582675
11
3.3389970866141732
21
-2.1494262204724408
0
LINE
8
BLACK
6
CONTINUOUS
10
3.3389970866141732
20
-2.1494262204724408
11
3.339079212598425
21
-2.1495411023622046
0
LINE
8
BLACK
6
CONTINUOUS
10
3.339079212598425
20
-2.1495411023622046
11
3.3392327952755907
21
-2.1499953149606297
0
LINE
8
BLACK
6
CONTINUOUS
10
3.3392327952755907
20
-2.1499953149606297
11
3.3394164173228345
21
-2.1504385433070867
0
LINE
8
BLACK
6
CONTINUOUS
10
3.3394164173228345
20
-2.1504385433070867
11
3.3394164173228345
21
-2.150538149606299
0
LINE
8
BLACK
6
CONTINUOUS
10
3.3394164173228345
20
-2.150538149606299
11
3.3394483070866139
21
-2.1506324803149606
0
LINE
8
BLACK
6
CONTINUOUS
10
3.3394483070866139
20
-2.1506324803149606
11
3.3394164173228345
21
-2.1511109448818897
0
LINE
8
BLACK
6
CONTINUOUS
10
3.3394164173228345
20
-2.1511109448818897
11
3.3394164173228345
21
-2.1515906692913385
0
LINE
8
BLACK
6
CONTINUOUS
10
3.3394164173228345
20
-2.1515906692913385
11
3.3393783070866143
21
-2.1516826377952754
0
LINE
8
BLACK
6
CONTINUOUS
10
3.3393783070866143
20
-2.1516826377952754
11
3.3393716929133856
21
-2.1517820078740155
0
LINE
8
BLACK
6
CONTINUOUS
10
3.3393716929133856
20
-2.1517820078740155
11
3.3391589763779526
21
-2.1522121259842519
0
LINE
8
BLACK
6
CONTINUOUS
10
3.3391589763779526
20
-2.1522121259842519
11
3.3389755118110234
21
-2.1526550787401573
0
LINE
8
BLACK
6
CONTINUOUS
10
3.3389755118110234
20
-2.1526550787401573
11
3.338905157480315
21
-2.1527253937007873
0
LINE
8
BLACK
6
CONTINUOUS
10
3.338905157480315
20
-2.1527253937007873
11
3.3388609842519683
21
-2.1528147637795274
0
LINE
8
BLACK
6
CONTINUOUS
10
3.3388609842519683
20
-2.1528147637795274
11
3.3384998425196848
21
-2.1531307086614171
0
LINE
8
BLACK
6
CONTINUOUS
10
3.3384998425196848
20
-2.1531307086614171
11
3.3381608661417324
21
-2.1534697244094487
0
LINE
8
BLACK
6
CONTINUOUS
10
3.3381608661417324
20
-2.1534697244094487
11
3.3380688582677163
21
-2.1535078346456693
0
LINE
8
BLACK
6
CONTINUOUS
10
3.3380688582677163
20
-2.1535078346456693
11
3.3379938976377952
21
-2.1535734251968504
0
LINE
8
BLACK
6
CONTINUOUS
10
3.3379938976377952
20
-2.1535734251968504
11
3.3375396456692914
21
-2.1537270078740156
0
LINE
8
BLACK
6
CONTINUOUS
10
3.3375396456692914
20
-2.1537270078740156
11
3.3370964566929131
21
-2.1539106299212598
0
LINE
8
BLACK
6
CONTINUOUS
10
3.3370964566929131
20
-2.1539106299212598
11
3.3369558661417322
21
-2.1539244488188976
0
LINE
8
BLACK
6
CONTINUOUS
10
3.3369558661417322
20
-2.1539244488188976
11
3.3369025196850393
21
-2.1539425196850392
0
LINE
8
BLACK
6
CONTINUOUS
10
3.3369025196850393
20
-2.1539425196850392
11
3.3368250393700785
21
-2.1539373228346457
0
LINE
8
BLACK
6
CONTINUOUS
10
3.3368250393700785
20
-2.1539373228346457
11
3.3365203937007872
21
-2.1539673622047242
0
LINE
8
BLACK
6
CONTINUOUS
10
3.3365203937007872
20
-2.1539673622047242
11
3.3315931496062992
21
-2.1539673622047242
0
LINE
8
BLACK
6
CONTINUOUS
10
3.3315931496062992
20
-2.1539673622047242
11
3.3288956692913385
21
-2.1553161023622045
0
LINE
8
BLACK
6
CONTINUOUS
10
3.3288956692913385
20
-2.1553161023622045
11
3.3276985433070867
21
-2.1565132283464568
0
LINE
8
BLACK
6
CONTINUOUS
10
3.3276985433070867
20
-2.1565132283464568
11
3.3263498031496064
21
-2.1592107086614174
0
LINE
8
BLACK
6
CONTINUOUS
10
3.3263498031496064
20
-2.1592107086614174
11
3.3263498031496064
21
-2.167190433070866
0
LINE
8
BLACK
6
CONTINUOUS
10
3.3263498031496064
20
-2.167190433070866
11
3.3276985433070867
21
-2.1698879133858266
0
LINE
8
BLACK
6
CONTINUOUS
10
3.3276985433070867
20
-2.1698879133858266
11
3.3288956692913385
21
-2.1710850787401572
0
LINE
8
BLACK
6
CONTINUOUS
10
3.3288956692913385
20
-2.1710850787401572
11
3.3315931496062992
21
-2.1724338188976375
0
LINE
8
BLACK
6
CONTINUOUS
10
3.3315931496062992
20
-2.1724338188976375
11
3.3414476377952753
21
-2.1724338188976375
0
LINE
8
BLACK
6
CONTINUOUS
10
3.3414476377952753
20
-2.1724338188976375
11
3.3441450787401572
21
-2.1710850787401572
0
LINE
8
BLACK
6
CONTINUOUS
10
3.3441450787401572
20
-2.1710850787401572
11
3.3456810236220473
21
-2.1695491338582675
0
LINE
8
BLACK
6
CONTINUOUS
10
3.3456810236220473
20
-2.1695491338582675
11
3.3461285039370079
21
-2.1691818897637796
0
LINE
8
BLACK
6
CONTINUOUS
10
3.3461285039370079
20
-2.1691818897637796
11
3.3471929133858267
21
-2.1687409842519685
0
LINE
8
BLACK
6
CONTINUOUS
10
3.3471929133858267
20
-2.1687409842519685
11
3.3483450000000001
21
-2.1687409842519685
0
LINE
8
BLACK
6
CONTINUOUS
10
3.3483450000000001
20
-2.1687409842519685
11
3.3494094094488189
21
-2.1691818503937008
0
LINE
8
BLACK
6
CONTINUOUS
10
3.3494094094488189
20
-2.1691818503937008
11
3.3502240944881887
21
-2.169996535433071
0
LINE
8
BLACK
6
CONTINUOUS
10
3.3502240944881887
20
-2.169996535433071
11
3.3506649999999998
21
-2.1710609448818898
0
LINE
8
BLACK
6
CONTINUOUS
10
3.3506649999999998
20
-2.1710609448818898
11
3.3506649999999998
21
-2.1722130314960628
0
LINE
8
BLACK
6
CONTINUOUS
10
3.3506649999999998
20
-2.1722130314960628
11
3.3502241338582675
21
-2.1732774409448816
0
LINE
8
BLACK
6
CONTINUOUS
10
3.3502241338582675
20
-2.1732774409448816
11
3.3498568897637795
21
-2.1737249212598426
0
LINE
8
BLACK
6
CONTINUOUS
10
3.3498568897637795
20
-2.1737249212598426
11
3.3479821653543307
21
-2.1755996850393702
0
LINE
8
BLACK
6
CONTINUOUS
10
3.3479821653543307
20
-2.1755996850393702
11
3.3477557874015749
21
-2.1757854330708661
0
LINE
8
BLACK
6
CONTINUOUS
10
3.3477557874015749
20
-2.1757854330708661
11
3.3477046062992124
21
-2.1758444881889765
0
LINE
8
BLACK
6
CONTINUOUS
10
3.3477046062992124
20
-2.1758444881889765
11
3.3476156299212598
21
-2.175900472440945
0
LINE
8
BLACK
6
CONTINUOUS
10
3.3476156299212598
20
-2.175900472440945
11
3.3475346850393701
21
-2.1759669291338581
0
LINE
8
BLACK
6
CONTINUOUS
10
3.3475346850393701
20
-2.1759669291338581
11
3.3474627165354329
21
-2.1759967322834646
0
LINE
8
BLACK
6
CONTINUOUS
10
3.3474627165354329
20
-2.1759967322834646
11
3.3472147244094486
21
-2.1761528346456691
0
LINE
8
BLACK
6
CONTINUOUS
10
3.3472147244094486
20
-2.1761528346456691
11
3.3434651968503935
21
-2.1780275984251967
0
LINE
8
BLACK
6
CONTINUOUS
10
3.3434651968503935
20
-2.1780275984251967
11
3.3429245669291339
21
-2.1782344881889761
0
LINE
8
BLACK
6
CONTINUOUS
10
3.3429245669291339
20
-2.1782344881889761
11
3.34281874015748
21
-2.1782419685039369
0
LINE
8
BLACK
6
CONTINUOUS
10
3.34281874015748
20
-2.1782419685039369
11
3.3427207480314958
21
-2.1782825984251968
0
LINE
8
BLACK
6
CONTINUOUS
10
3.3427207480314958
20
-2.1782825984251968
11
3.3421446850393699
21
-2.1783393307086611
0
LINE
8
BLACK
6
CONTINUOUS
10
3.3421446850393699
20
-2.1783393307086611
11
3.3308961023622046
21
-2.1783393307086611
0
LINE
8
BLACK
6
CONTINUOUS
10
3.3308961023622046
20
-2.1783393307086611
11
3.3303200393700787
21
-2.1782825984251968
0
LINE
8
BLACK
6
CONTINUOUS
10
3.3303200393700787
20
-2.1782825984251968
11
3.3302220472440944
21
-2.1782420078740157
0
LINE
8
BLACK
6
CONTINUOUS
10
3.3302220472440944
20
-2.1782420078740157
11
3.3301161811023623
21
-2.1782344881889761
0
LINE
8
BLACK
6
CONTINUOUS
10
3.3301161811023623
20
-2.1782344881889761
11
3.329575590551181
21
-2.1780275984251967
0
LINE
8
BLACK
6
CONTINUOUS
10
3.329575590551181
20
-2.1780275984251967
11
3.3258260629921259
21
-2.1761528346456691
0
LINE
8
BLACK
6
CONTINUOUS
10
3.3258260629921259
20
-2.1761528346456691
11
3.3255780314960628
21
-2.1759967322834646
0
LINE
8
BLACK
6
CONTINUOUS
10
3.3255780314960628
20
-2.1759967322834646
11
3.3255061023622048
21
-2.1759669291338581
0
LINE
8
BLACK
6
CONTINUOUS
10
3.3255061023622048
20
-2.1759669291338581
11
3.3254251181102363
21
-2.175900472440945
0
LINE
8
BLACK
6
CONTINUOUS
10
3.3254251181102363
20
-2.175900472440945
11
3.3253361811023621
21
-2.1758444881889765
0
LINE
8
BLACK
6
CONTINUOUS
10
3.3253361811023621
20
-2.1758444881889765
11
3.3252849606299213
21
-2.1757854330708661
0
LINE
8
BLACK
6
CONTINUOUS
10
3.3252849606299213
20
-2.1757854330708661
11
3.3250586220472442
21
-2.1755996850393702
0
LINE
8
BLACK
6
CONTINUOUS
10
3.3250586220472442
20
-2.1755996850393702
11
3.3231838582677167
21
-2.1737248818897639
0
LINE
8
BLACK
6
CONTINUOUS
10
3.3231838582677167
20
-2.1737248818897639
11
3.3229981102362203
21
-2.1734985433070864
0
LINE
8
BLACK
6
CONTINUOUS
10
3.3229981102362203
20
-2.1734985433070864
11
3.3229391338582674
21
-2.1734474015748031
0
LINE
8
BLACK
6
CONTINUOUS
10
3.3229391338582674
20
-2.1734474015748031
11
3.3228831496062989
21
-2.1733584645669293
0
LINE
8
BLACK
6
CONTINUOUS
10
3.3228831496062989
20
-2.1733584645669293
11
3.322816653543307
21
-2.1732774409448816
0
LINE
8
BLACK
6
CONTINUOUS
10
3.322816653543307
20
-2.1732774409448816
11
3.3227868110236218
21
-2.1732053937007874
0
LINE
8
BLACK
6
CONTINUOUS
10
3.3227868110236218
20
-2.1732053937007874
11
3.3226307874015748
21
-2.1729575196850393
0
LINE
8
BLACK
6
CONTINUOUS
10
3.3226307874015748
20
-2.1729575196850393
11
3.3207560236220472
21
-2.1692079921259841
0
LINE
8
BLACK
6
CONTINUOUS
10
3.3207560236220472
20
-2.1692079921259841
11
3.3205491338582678
21
-2.1686673622047246
0
LINE
8
BLACK
6
CONTINUOUS
10
3.3205491338582678
20
-2.1686673622047246
11
3.3205416141732282
21
-2.1685615354330707
0
LINE
8
BLACK
6
CONTINUOUS
10
3.3205416141732282
20
-2.1685615354330707
11
3.3205010236220471
21
-2.1684635433070865
0
LINE
8
BLACK
6
CONTINUOUS
10
3.3205010236220471
20
-2.1684635433070865
11
3.3204442913385828
21
-2.1678874803149606
0
LINE
8
BLACK
6
CONTINUOUS
10
3.3204442913385828
20
-2.1678874803149606
11
3.3204442913385828
21
-2.1585136614173228
0
LINE
8
BLACK
6
CONTINUOUS
10
3.3204442913385828
20
-2.1585136614173228
11
3.3205010236220471
21
-2.1579375984251969
0
LINE
8
BLACK
6
CONTINUOUS
10
3.3205010236220471
20
-2.1579375984251969
11
3.3205416141732282
21
-2.1578395669291339
0
LINE
8
BLACK
6
CONTINUOUS
10
3.3205416141732282
20
-2.1578395669291339
11
3.3205491338582678
21
-2.1577337795275588
0
LINE
8
BLACK
6
CONTINUOUS
10
3.3205491338582678
20
-2.1577337795275588
11
3.3207560236220472
21
-2.1571931496062993
0
LINE
8
BLACK
6
CONTINUOUS
10
3.3207560236220472
20
-2.1571931496062993
11
3.3226307874015748
21
-2.1534436220472442
0
LINE
8
BLACK
6
CONTINUOUS
10
3.3226307874015748
20
-2.1534436220472442
11
3.3227868503937006
21
-2.153195590551181
0
LINE
8
BLACK
6
CONTINUOUS
10
3.3227868503937006
20
-2.153195590551181
11
3.3228166929133858
21
-2.1531236614173226
0
LINE
8
BLACK
6
CONTINUOUS
10
3.3228166929133858
20
-2.1531236614173226
11
3.3228831496062989
21
-2.1530426771653541
0
LINE
8
BLACK
6
CONTINUOUS
10
3.3228831496062989
20
-2.1530426771653541
11
3.3229391338582674
21
-2.1529537401574803
0
LINE
8
BLACK
6
CONTINUOUS
10
3.3229391338582674
20
-2.1529537401574803
11
3.3229981102362203
21
-2.1529025590551178
0
LINE
8
BLACK
6
CONTINUOUS
10
3.3229981102362203
20
-2.1529025590551178
11
3.323183897637795
21
-2.1526762204724408
0
LINE
8
BLACK
6
CONTINUOUS
10
3.323183897637795
20
-2.1526762204724408
11
3.325058661417323
21
-2.1508014566929132
0
LINE
8
BLACK
6
CONTINUOUS
10
3.325058661417323
20
-2.1508014566929132
11
3.325285
21
-2.1506156692913385
0
LINE
8
BLACK
6
CONTINUOUS
10
3.325285
20
-2.1506156692913385
11
3.3253361811023621
21
-2.1505566929133857
0
LINE
8
BLACK
6
CONTINUOUS
10
3.3253361811023621
20
-2.1505566929133857
11
3.3254251181102363
21
-2.1505007086614172
0
LINE
8
BLACK
6
CONTINUOUS
10
3.3254251181102363
20
-2.1505007086614172
11
3.3255061023622048
21
-2.150434251968504
0
LINE
8
BLACK
6
CONTINUOUS
10
3.3255061023622048
20
-2.150434251968504
11
3.3255780314960628
21
-2.1504044094488188
0
LINE
8
BLACK
6
CONTINUOUS
10
3.3255780314960628
20
-2.1504044094488188
11
3.3258260629921259
21
-2.150248346456693
0
LINE
8
BLACK
6
CONTINUOUS
10
3.3258260629921259
20
-2.150248346456693
11
3.329575590551181
21
-2.1483735826771655
0
LINE
8
BLACK
6
CONTINUOUS
10
3.329575590551181
20
-2.1483735826771655
11
3.3301077559055119
21
-2.1481698818897637
0
LINE
8
BLACK
6
CONTINUOUS
10
3.3301077559055119
20
-2.1481698818897637
11
3.3211748818897635
21
-2.1379609055118109
0
LINE
8
BLACK
6
CONTINUOUS
10
3.3211748818897635
20
-2.1379609055118109
11
3.3209968503937008
21
-2.1377118897637795
0
LINE
8
BLACK
6
CONTINUOUS
10
3.3209968503937008
20
-2.1377118897637795
11
3.3209419291338582
21
-2.1376569685039368
0
LINE
8
BLACK
6
CONTINUOUS
10
3.3209419291338582
20
-2.1376569685039368
11
3.3209203149606297
21
-2.1376048425196852
0
LINE
8
BLACK
6
CONTINUOUS
10
3.3209203149606297
20
-2.1376048425196852
11
3.3208382283464566
21
-2.1374900000000001
0
LINE
8
BLACK
6
CONTINUOUS
10
3.3208382283464566
20
-2.1374900000000001
11
3.3206846062992126
21
-2.1370357480314959
0
LINE
8
BLACK
6
CONTINUOUS
10
3.3206846062992126
20
-2.1370357480314959
11
3.3205010236220471
21
-2.136592559055118
0
LINE
8
BLACK
6
CONTINUOUS
10
3.3205010236220471
20
-2.136592559055118
11
3.3205010236220471
21
-2.1364929133858266
0
LINE
8
BLACK
6
CONTINUOUS
10
3.3205010236220471
20
-2.1364929133858266
11
3.3204691338582677
21
-2.1363986220472442
0
LINE
8
BLACK
6
CONTINUOUS
10
3.3204691338582677
20
-2.1363986220472442
11
3.3205010236220471
21
-2.1359201181102363
0
LINE
8
BLACK
6
CONTINUOUS
10
3.3205010236220471
20
-2.1359201181102363
11
3.3205010236220471
21
-2.1354404330708663
0
LINE
8
BLACK
6
CONTINUOUS
10
3.3205010236220471
20
-2.1354404330708663
11
3.320539094488189
21
-2.1353484251968502
0
LINE
8
BLACK
6
CONTINUOUS
10
3.320539094488189
20
-2.1353484251968502
11
3.3205457480314959
21
-2.1352490944881888
0
LINE
8
BLACK
6
CONTINUOUS
10
3.3205457480314959
20
-2.1352490944881888
11
3.3207584251968503
21
-2.1348189370078741
0
LINE
8
BLACK
6
CONTINUOUS
10
3.3207584251968503
20
-2.1348189370078741
11
3.3209419291338582
21
-2.134376023622047
0
LINE
8
BLACK
6
CONTINUOUS
10
3.3209419291338582
20
-2.134376023622047
11
3.3210122440944883
21
-2.1343056692913387
0
LINE
8
BLACK
6
CONTINUOUS
10
3.3210122440944883
20
-2.1343056692913387
11
3.3210564566929133
21
-2.1342163385826769
0
LINE
8
BLACK
6
CONTINUOUS
10
3.3210564566929133
20
-2.1342163385826769
11
3.321417559055118
21
-2.1339003543307085
0
LINE
8
BLACK
6
CONTINUOUS
10
3.321417559055118
20
-2.1339003543307085
11
3.3217565748031497
21
-2.133561377952756
0
LINE
8
BLACK
6
CONTINUOUS
10
3.3217565748031497
20
-2.133561377952756
11
3.3218485433070866
21
-2.1335232283464567
0
LINE
8
BLACK
6
CONTINUOUS
10
3.3218485433070866
20
-2.1335232283464567
11
3.3219235433070864
21
-2.1334576771653544
0
LINE
8
BLACK
6
CONTINUOUS
10
3.3219235433070864
20
-2.1334576771653544
11
3.3223777559055119
21
-2.1333040551181104
0
LINE
8
BLACK
6
CONTINUOUS
10
3.3223777559055119
20
-2.1333040551181104
11
3.3228209842519685
21
-2.1331204724409449
0
LINE
8
BLACK
6
CONTINUOUS
10
3.3228209842519685
20
-2.1331204724409449
11
3.3229615354330706
21
-2.1331066141732284
0
LINE
8
BLACK
6
CONTINUOUS
10
3.3229615354330706
20
-2.1331066141732284
11
3.3230149212598423
21
-2.1330885826771655
0
LINE
8
BLACK
6
CONTINUOUS
10
3.3230149212598423
20
-2.1330885826771655
11
3.3230923622047244
21
-2.1330937401574803
0
LINE
8
BLACK
6
CONTINUOUS
10
3.3230923622047244
20
-2.1330937401574803
11
3.3233970472440943
21
-2.1330637401574801
0
LINE
8
BLACK
6
CONTINUOUS
10
3.3233970472440943
20
-2.1330637401574801
11
3.3477689763779526
21
-2.1330637401574801
0
LINE
8
BLACK
6
CONTINUOUS
10
3.3477689763779526
20
-2.1330637401574801
11
3.3483450393700789
21
-2.1331204724409449
0
LINE
8
BLACK
6
CONTINUOUS
10
3.3839655905511812
20
-2.1331204724409449
11
3.38503
21
-2.133561377952756
0
LINE
8
BLACK
6
CONTINUOUS
10
3.38503
20
-2.133561377952756
11
3.3858446456692914
21
-2.134376023622047
0
LINE
8
BLACK
6
CONTINUOUS
10
3.3858446456692914
20
-2.134376023622047
11
3.3862855511811021
21
-2.1354404330708663
0
LINE
8
BLACK
6
CONTINUOUS
10
3.3862855511811021
20
-2.1354404330708663
11
3.3863422834645669
21
-2.1360164960629922
0
LINE
8
BLACK
6
CONTINUOUS
10
3.3863422834645669
20
-2.1360164960629922
11
3.3863422834645669
21
-2.1753865748031496
0
LINE
8
BLACK
6
CONTINUOUS
10
3.3863422834645669
20
-2.1753865748031496
11
3.3862855511811021
21
-2.1759626377952754
0
LINE
8
BLACK
6
CONTINUOUS
10
3.3862855511811021
20
-2.1759626377952754
11
3.3858446456692914
21
-2.1770270472440942
0
LINE
8
BLACK
6
CONTINUOUS
10
3.3858446456692914
20
-2.1770270472440942
11
3.38503
21
-2.1778416929133857
0
LINE
8
BLACK
6
CONTINUOUS
10
3.38503
20
-2.1778416929133857
11
3.3839655905511812
21
-2.1782825984251968
0
LINE
8
BLACK
6
CONTINUOUS
10
3.3839655905511812
20
-2.1782825984251968
11
3.382813464566929
21
-2.1782825984251968
0
LINE
8
BLACK
6
CONTINUOUS
10
3.382813464566929
20
-2.1782825984251968
11
3.3817490551181102
21
-2.1778416929133857
0
LINE
8
BLACK
6
CONTINUOUS
10
3.3817490551181102
20
-2.1778416929133857
11
3.3809344094488187
21
-2.1770270472440942
0
LINE
8
BLACK
6
CONTINUOUS
10
3.3809344094488187
20
-2.1770270472440942
11
3.3804935039370076
21
-2.1759626377952754
0
LINE
8
BLACK
6
CONTINUOUS
10
3.3804935039370076
20
-2.1759626377952754
11
3.3804367716535433
21
-2.1753865748031496
0
LINE
8
BLACK
6
CONTINUOUS
10
3.3804367716535433
20
-2.1753865748031496
11
3.3804367716535433
21
-2.1595916535433068
0
LINE
8
BLACK
6
CONTINUOUS
10
3.3804367716535433
20
-2.1595916535433068
11
3.3755530708661419
21
-2.1595916535433068
0
LINE
8
BLACK
6
CONTINUOUS
10
3.3755530708661419
20
-2.1595916535433068
11
3.3633113385826769
21
-2.1770798818897639
0
LINE
8
BLACK
6
CONTINUOUS
10
3.3633113385826769
20
-2.1770798818897639
11
3.3629345275590552
21
-2.177519251968504
0
LINE
8
BLACK
6
CONTINUOUS
10
3.3629345275590552
20
-2.177519251968504
11
3.3619629133858266
21
-2.1781384251968503
0
LINE
8
BLACK
6
CONTINUOUS
10
3.3619629133858266
20
-2.1781384251968503
11
3.3608283858267716
21
-2.178338622047244
0
LINE
8
BLACK
6
CONTINUOUS
10
3.3608283858267716
20
-2.178338622047244
11
3.3597035433070865
21
-2.1780894488188975
0
LINE
8
BLACK
6
CONTINUOUS
10
3.3597035433070865
20
-2.1780894488188975
11
3.3587596850393702
21
-2.1774287401574801
0
LINE
8
BLACK
6
CONTINUOUS
10
3.3587596850393702
20
-2.1774287401574801
11
3.3581405118110235
21
-2.176457125984252
0
LINE
8
BLACK
6
CONTINUOUS
10
3.3581405118110235
20
-2.176457125984252
11
3.3579403149606297
21
-2.1753225984251969
0
LINE
8
BLACK
6
CONTINUOUS
10
3.3579403149606297
20
-2.1753225984251969
11
3.3581894881889762
21
-2.1741977559055119
0
LINE
8
BLACK
6
CONTINUOUS
10
3.3581894881889762
20
-2.1741977559055119
11
3.3584733858267715
21
-2.1736932677165353
0
LINE
8
BLACK
6
CONTINUOUS
10
3.3584733858267715
20
-2.1736932677165353
11
3.3683475196850394
21
-2.1595873228346458
0
LINE
8
BLACK
6
CONTINUOUS
10
3.3683475196850394
20
-2.1595873228346458
11
3.3678153543307086
21
-2.1595349212598425
0
LINE
8
BLACK
6
CONTINUOUS
10
3.3678153543307086
20
-2.1595349212598425
11
3.3677173622047243
21
-2.1594943307086614
0
LINE
8
BLACK
6
CONTINUOUS
10
3.3677173622047243
20
-2.1594943307086614
11
3.3676114960629921
21
-2.1594868110236218
0
LINE
8
BLACK
6
CONTINUOUS
10
3.3676114960629921
20
-2.1594868110236218
11
3.3670709055118109
21
-2.1592799212598424
0
LINE
8
BLACK
6
CONTINUOUS
10
3.3670709055118109
20
-2.1592799212598424
11
3.3633213779527558
21
-2.1574051574803148
0
LINE
8
BLACK
6
CONTINUOUS
10
3.3633213779527558
20
-2.1574051574803148
11
3.3630733464566926
21
-2.1572490551181103
0
LINE
8
BLACK
6
CONTINUOUS
10
3.3630733464566926
20
-2.1572490551181103
11
3.3630014173228346
21
-2.1572192519685038
0
LINE
8
BLACK
6
CONTINUOUS
10
3.3630014173228346
20
-2.1572192519685038
11
3.3629204330708662
21
-2.1571527559055119
0
LINE
8
BLACK
6
CONTINUOUS
10
3.3629204330708662
20
-2.1571527559055119
11
3.3628314960629919
21
-2.1570968110236222
0
LINE
8
BLACK
6
CONTINUOUS
10
3.3628314960629919
20
-2.1570968110236222
11
3.3627803149606299
21
-2.1570377952755906
0
LINE
8
BLACK
6
CONTINUOUS
10
3.3627803149606299
20
-2.1570377952755906
11
3.3625539763779528
21
-2.1568520472440946
0
LINE
8
BLACK
6
CONTINUOUS
10
3.3625539763779528
20
-2.1568520472440946
11
3.3606792125984253
21
-2.1549772834645671
0
LINE
8
BLACK
6
CONTINUOUS
10
3.3606792125984253
20
-2.1549772834645671
11
3.3604934251968501
21
-2.1547509055118108
0
LINE
8
BLACK
6
CONTINUOUS
10
3.3604934251968501
20
-2.1547509055118108
11
3.3604344488188977
21
-2.1546997637795275
0
LINE
8
BLACK
6
CONTINUOUS
10
3.3604344488188977
20
-2.1546997637795275
11
3.3603784645669292
21
-2.154610787401575
0
LINE
8
BLACK
6
CONTINUOUS
10
3.3603784645669292
20
-2.154610787401575
11
3.3603120078740156
21
-2.1545298425196848
0
LINE
8
BLACK
6
CONTINUOUS
10
3.3603120078740156
20
-2.1545298425196848
11
3.3602821653543304
21
-2.1544578740157481
0
LINE
8
BLACK
6
CONTINUOUS
10
3.3602821653543304
20
-2.1544578740157481
11
3.3601261023622047
21
-2.1542098818897637
0
LINE
8
BLACK
6
CONTINUOUS
10
3.3601261023622047
20
-2.1542098818897637
11
3.3582513385826771
21
-2.1504603543307086
0
LINE
8
BLACK
6
CONTINUOUS
10
3.3582513385826771
20
-2.1504603543307086
11
3.3580444488188976
21
-2.1499197244094486
0
LINE
8
BLACK
6
CONTINUOUS
10
3.3580444488188976
20
-2.1499197244094486
11
3.3580369291338581
21
-2.1498138976377952
0
LINE
8
BLACK
6
CONTINUOUS
10
3.3580369291338581
20
-2.1498138976377952
11
3.357996338582677
21
-2.1497159055118109
0
LINE
8
BLACK
6
CONTINUOUS
10
3.357996338582677
20
-2.1497159055118109
11
3.3579396062992126
21
-2.149139842519685
0
LINE
8
BLACK
6
CONTINUOUS
10
3.3579396062992126
20
-2.149139842519685
11
3.3579396062992126
21
-2.1435155511811024
0
LINE
8
BLACK
6
CONTINUOUS
10
3.3579396062992126
20
-2.1435155511811024
11
3.357996338582677
21
-2.1429394881889765
0
LINE
8
BLACK
6
CONTINUOUS
10
3.357996338582677
20
-2.1429394881889765
11
3.3580369291338581
21
-2.1428414566929135
0
LINE
8
BLACK
6
CONTINUOUS
10
3.3580369291338581
20
-2.1428414566929135
11
3.3580444488188976
21
-2.1427356692913384
0
LINE
8
BLACK
6
CONTINUOUS
10
3.3580444488188976
20
-2.1427356692913384
11
3.3582513385826771
21
-2.1421950393700788
0
LINE
8
BLACK
6
CONTINUOUS
10
3.3582513385826771
20
-2.1421950393700788
11
3.3601261023622047
21
-2.1384455118110237
0
LINE
8
BLACK
6
CONTINUOUS
10
3.3601261023622047
20
-2.1384455118110237
11
3.3602821653543304
21
-2.1381974803149606
0
LINE
8
BLACK
6
CONTINUOUS
10
3.3602821653543304
20
-2.1381974803149606
11
3.3603120078740156
21
-2.1381255511811021
0
LINE
8
BLACK
6
CONTINUOUS
10
3.3603120078740156
20
-2.1381255511811021
11
3.3603784645669292
21
-2.1380445669291337
0
LINE
8
BLACK
6
CONTINUOUS
10
3.3603784645669292
20
-2.1380445669291337
11
3.3604344488188977
21
-2.1379556299212599
0
LINE
8
BLACK
6
CONTINUOUS
10
3.3604344488188977
20
-2.1379556299212599
11
3.3604934251968501
21
-2.1379044488188974
0
LINE
8
BLACK
6
CONTINUOUS
10
3.3604934251968501
20
-2.1379044488188974
11
3.3606792125984253
21
-2.1376781102362203
0
LINE
8
BLACK
6
CONTINUOUS
10
3.3606792125984253
20
-2.1376781102362203
11
3.3625539763779528
21
-2.1358033464566928
0
LINE
8
BLACK
6
CONTINUOUS
10
3.3625539763779528
20
-2.1358033464566928
11
3.3627803149606299
21
-2.1356175590551181
0
LINE
8
BLACK
6
CONTINUOUS
10
3.3627803149606299
20
-2.1356175590551181
11
3.3628314960629919
21
-2.1355585826771653
0
LINE
8
BLACK
6
CONTINUOUS
10
3.3628314960629919
20
-2.1355585826771653
11
3.3629204330708662
21
-2.1355025984251967
0
LINE
8
BLACK
6
CONTINUOUS
10
3.3629204330708662
20
-2.1355025984251967
11
3.3630014173228346
21
-2.1354361417322836
0
LINE
8
BLACK
6
CONTINUOUS
10
3.3630014173228346
20
-2.1354361417322836
11
3.3630733464566926
21
-2.1354062992125984
0
LINE
8
BLACK
6
CONTINUOUS
10
3.3630733464566926
20
-2.1354062992125984
11
3.3633213779527558
21
-2.1352502362204726
0
LINE
8
BLACK
6
CONTINUOUS
10
3.3633213779527558
20
-2.1352502362204726
11
3.3670709055118109
21
-2.1333754724409451
0
LINE
8
BLACK
6
CONTINUOUS
10
3.3670709055118109
20
-2.1333754724409451
11
3.3676114960629921
21
-2.1331685826771651
0
LINE
8
BLACK
6
CONTINUOUS
10
3.3676114960629921
20
-2.1331685826771651
11
3.3677173622047243
21
-2.1331610236220473
0
LINE
8
BLACK
6
CONTINUOUS
10
3.3677173622047243
20
-2.1331610236220473
11
3.3678153543307086
21
-2.1331204724409449
0
LINE
8
BLACK
6
CONTINUOUS
10
3.3678153543307086
20
-2.1331204724409449
11
3.3683914173228344
21
-2.1330637401574801
0
LINE
8
BLACK
6
CONTINUOUS
10
3.3683914173228344
20
-2.1330637401574801
11
3.3833895275590549
21
-2.1330637401574801
0
LINE
8
BLACK
6
CONTINUOUS
10
3.3833895275590549
20
-2.1330637401574801
11
3.3839655905511812
21
-2.1331204724409449
0
LINE
8
BLACK
6
CONTINUOUS
10
3.3663909842519684
20
-2.1403179921259841
11
3.3651938582677166
21
-2.1415151181102363
0
LINE
8
BLACK
6
CONTINUOUS
10
3.3651938582677166
20
-2.1415151181102363
11
3.3638451181102362
21
-2.144212598425197
0
LINE
8
BLACK
6
CONTINUOUS
10
3.3638451181102362
20
-2.144212598425197
11
3.3638451181102362
21
-2.1484427952755905
0
LINE
8
BLACK
6
CONTINUOUS
10
3.3638451181102362
20
-2.1484427952755905
11
3.3651938582677166
21
-2.1511402755905511
0
LINE
8
BLACK
6
CONTINUOUS
10
3.3651938582677166
20
-2.1511402755905511
11
3.3663909842519684
21
-2.1523374015748029
0
LINE
8
BLACK
6
CONTINUOUS
10
3.3663909842519684
20
-2.1523374015748029
11
3.369088464566929
21
-2.1536861417322832
0
LINE
8
BLACK
6
CONTINUOUS
10
3.369088464566929
20
-2.1536861417322832
11
3.3804367716535433
21
-2.1536861417322832
0
LINE
8
BLACK
6
CONTINUOUS
10
3.3804367716535433
20
-2.1536861417322832
11
3.3804367716535433
21
-2.1389692519685037
0
LINE
8
BLACK
6
CONTINUOUS
10
3.3804367716535433
20
-2.1389692519685037
11
3.369088464566929
21
-2.1389692519685037
0
LINE
8
BLACK
6
CONTINUOUS
10
3.369088464566929
20
-2.1389692519685037
11
3.3663909842519684
21
-2.1403179921259841
0
LINE
8
BLACK
6
CONTINUOUS
10
3.2527729527559055
20
-2.1436998031496062
11
3.2529527559055116
21
-2.144603779527559
0
LINE
8
BLACK
6
CONTINUOUS
10
3.2529527559055116
20
-2.144603779527559
11
3.2529527559055116
21
-2.1624828346456693
0
LINE
8
BLACK
6
CONTINUOUS
10
3.2529527559055116
20
-2.1624828346456693
11
3.2527729527559055
21
-2.1633868110236221
0
LINE
8
BLACK
6
CONTINUOUS
10
3.2527729527559055
20
-2.1633868110236221
11
3.2514945275590552
21
-2.1646652362204724
0
LINE
8
BLACK
6
CONTINUOUS
10
3.2514945275590552
20
-2.1646652362204724
11
3.2496865748031496
21
-2.1646652362204724
0
LINE
8
BLACK
6
CONTINUOUS
10
3.2496865748031496
20
-2.1646652362204724
11
3.2484081496062993
21
-2.1633868110236221
0
LINE
8
BLACK
6
CONTINUOUS
10
3.2484081496062993
20
-2.1633868110236221
11
3.2482283464566928
21
-2.1624828346456693
0
LINE
8
BLACK
6
CONTINUOUS
10
3.2482283464566928
20
-2.1624828346456693
11
3.2482283464566928
21
-2.144603779527559
0
LINE
8
BLACK
6
CONTINUOUS
10
3.2482283464566928
20
-2.144603779527559
11
3.2484081496062993
21
-2.1436998031496062
0
LINE
8
BLACK
6
CONTINUOUS
10
3.2484081496062993
20
-2.1436998031496062
11
3.2496865748031496
21
-2.1424213779527559
0
LINE
8
BLACK
6
CONTINUOUS
10
3.2496865748031496
20
-2.1424213779527559
11
3.2514945275590552
21
-2.1424213779527559
0
LINE
8
BLACK
6
CONTINUOUS
10
3.2514945275590552
20
-2.1424213779527559
11
3.2527729527559055
21
-2.1436998031496062
0
LINE
8
BLACK
6
CONTINUOUS
10
3.3106469685039368
20
-2.1436998031496062
11
3.3108267716535433
21
-2.144603779527559
0
LINE
8
BLACK
6
CONTINUOUS
10
3.3108267716535433
20
-2.144603779527559
11
3.3108267716535433
21
-2.1624828346456693
0
LINE
8
BLACK
6
CONTINUOUS
10
3.3108267716535433
20
-2.1624828346456693
11
3.3106469685039368
21
-2.1633868110236221
0
LINE
8
BLACK
6
CONTINUOUS
10
3.3106469685039368
20
-2.1633868110236221
11
3.3093685433070865
21
-2.1646652362204724
0
LINE
8
BLACK
6
CONTINUOUS
10
3.3093685433070865
20
-2.1646652362204724
11
3.3075605905511809
21
-2.1646652362204724
0
LINE
8
BLACK
6
CONTINUOUS
10
3.3075605905511809
20
-2.1646652362204724
11
3.3062821653543306
21
-2.1633868110236221
0
LINE
8
BLACK
6
CONTINUOUS
10
3.3062821653543306
20
-2.1633868110236221
11
3.3061023622047245
21
-2.1624828346456693
0
LINE
8
BLACK
6
CONTINUOUS
10
3.3061023622047245
20
-2.1624828346456693
11
3.3061023622047245
21
-2.144603779527559
0
LINE
8
BLACK
6
CONTINUOUS
10
3.3061023622047245
20
-2.144603779527559
11
3.3062821653543306
21
-2.1436998031496062
0
LINE
8
BLACK
6
CONTINUOUS
10
3.3062821653543306
20
-2.1436998031496062
11
3.3075605905511809
21
-2.1424213779527559
0
LINE
8
BLACK
6
CONTINUOUS
10
3.3075605905511809
20
-2.1424213779527559
11
3.3093685433070865
21
-2.1424213779527559
0
LINE
8
BLACK
6
CONTINUOUS
10
3.3093685433070865
20
-2.1424213779527559
11
3.3106469685039368
21
-2.1436998031496062
0
LINE
8
BLACK
6
CONTINUOUS
10
2.9393835433070867
20
-2.1276357874015748
11
2.9404140551181102
21
-2.1281510629921261
0
LINE
8
BLACK
6
CONTINUOUS
10
2.9404140551181102
20
-2.1281510629921261
11
2.941168897637795
21
-2.1290214173228348
0
LINE
8
BLACK
6
CONTINUOUS
10
2.941168897637795
20
-2.1290214173228348
11
2.9415332283464566
21
-2.1301144094488187
0
LINE
8
BLACK
6
CONTINUOUS
10
2.9415332283464566
20
-2.1301144094488187
11
2.9414515748031493
21
-2.1312636220472441
0
LINE
8
BLACK
6
CONTINUOUS
10
2.9414515748031493
20
-2.1312636220472441
11
2.9412446850393699
21
-2.1318042125984253
0
LINE
8
BLACK
6
CONTINUOUS
10
2.9412446850393699
20
-2.1318042125984253
11
2.9393699212598423
21
-2.1355537401574805
0
LINE
8
BLACK
6
CONTINUOUS
10
2.9393699212598423
20
-2.1355537401574805
11
2.9392138976377953
21
-2.1358015354330706
0
LINE
8
BLACK
6
CONTINUOUS
10
2.9392138976377953
20
-2.1358015354330706
11
2.9391840551181101
21
-2.1358737007874016
0
LINE
8
BLACK
6
CONTINUOUS
10
2.9391840551181101
20
-2.1358737007874016
11
2.9391174409448819
21
-2.135954842519685
0
LINE
8
BLACK
6
CONTINUOUS
10
2.9391174409448819
20
-2.135954842519685
11
2.9390615748031497
21
-2.1360436220472439
0
LINE
8
BLACK
6
CONTINUOUS
10
2.9390615748031497
20
-2.1360436220472439
11
2.9390026377952756
21
-2.1360947244094488
0
LINE
8
BLACK
6
CONTINUOUS
10
2.9390026377952756
20
-2.1360947244094488
11
2.9388168110236221
21
-2.1363211417322834
0
LINE
8
BLACK
6
CONTINUOUS
10
2.9388168110236221
20
-2.1363211417322834
11
2.9363584251968504
21
-2.1387795275590551
0
LINE
8
BLACK
6
CONTINUOUS
10
2.9363584251968504
20
-2.1387795275590551
11
2.9637724015748033
21
-2.1387795275590551
0
LINE
8
BLACK
6
CONTINUOUS
10
2.9637724015748033
20
-2.1387795275590551
11
2.9637724015748033
21
-2.1304837007874013
0
LINE
8
BLACK
6
CONTINUOUS
10
2.9637724015748033
20
-2.1304837007874013
11
2.9638291338582676
21
-2.1299076377952755
0
LINE
8
BLACK
6
CONTINUOUS
10
2.9638291338582676
20
-2.1299076377952755
11
2.9642700393700787
21
-2.1288432283464567
0
LINE
8
BLACK
6
CONTINUOUS
10
2.9642700393700787
20
-2.1288432283464567
11
2.9650846850393702
21
-2.1280285826771652
0
LINE
8
BLACK
6
CONTINUOUS
10
2.9650846850393702
20
-2.1280285826771652
11
2.966149094488189
21
-2.1275876771653541
0
LINE
8
BLACK
6
CONTINUOUS
10
2.966149094488189
20
-2.1275876771653541
11
2.9673012204724407
21
-2.1275876771653541
0
LINE
8
BLACK
6
CONTINUOUS
10
2.9673012204724407
20
-2.1275876771653541
11
2.96836562992126
21
-2.1280285826771652
0
LINE
8
BLACK
6
CONTINUOUS
10
2.96836562992126
20
-2.1280285826771652
11
2.969180275590551
21
-2.1288432283464567
0
LINE
8
BLACK
6
CONTINUOUS
10
2.969180275590551
20
-2.1288432283464567
11
2.9696211811023621
21
-2.1299076377952755
0
LINE
8
BLACK
6
CONTINUOUS
10
2.9696211811023621
20
-2.1299076377952755
11
2.9696779133858269
21
-2.1304837007874013
0
LINE
8
BLACK
6
CONTINUOUS
10
2.9696779133858269
20
-2.1304837007874013
11
2.9696779133858269
21
-2.1529808661417325
0
LINE
8
BLACK
6
CONTINUOUS
10
2.9696779133858269
20
-2.1529808661417325
11
2.9696211811023621
21
-2.1535569291338583
0
LINE
8
BLACK
6
CONTINUOUS
10
2.9696211811023621
20
-2.1535569291338583
11
2.969180275590551
21
-2.1546213385826771
0
LINE
8
BLACK
6
CONTINUOUS
10
2.969180275590551
20
-2.1546213385826771
11
2.96836562992126
21
-2.1554359842519686
0
LINE
8
BLACK
6
CONTINUOUS
10
2.96836562992126
20
-2.1554359842519686
11
2.9673012204724407
21
-2.1558768897637797
0
LINE
8
BLACK
6
CONTINUOUS
10
2.9673012204724407
20
-2.1558768897637797
11
2.966149094488189
21
-2.1558768897637797
0
LINE
8
BLACK
6
CONTINUOUS
10
2.966149094488189
20
-2.1558768897637797
11
2.9650846850393702
21
-2.1554359842519686
0
LINE
8
BLACK
6
CONTINUOUS
10
2.9650846850393702
20
-2.1554359842519686
11
2.9642700393700787
21
-2.1546213385826771
0
LINE
8
BLACK
6
CONTINUOUS
10
2.9642700393700787
20
-2.1546213385826771
11
2.9638291338582676
21
-2.1535569291338583
0
LINE
8
BLACK
6
CONTINUOUS
10
2.9638291338582676
20
-2.1535569291338583
11
2.9637724015748033
21
-2.1529808661417325
0
LINE
8
BLACK
6
CONTINUOUS
10
2.9637724015748033
20
-2.1529808661417325
11
2.9637724015748033
21
-2.1446850393700787
0
LINE
8
BLACK
6
CONTINUOUS
10
2.9637724015748033
20
-2.1446850393700787
11
2.9273550787401574
21
-2.1446850393700787
0
LINE
8
BLACK
6
CONTINUOUS
10
2.9273550787401574
20
-2.1446850393700787
11
2.927352992125984
21
-2.1446848031496062
0
LINE
8
BLACK
6
CONTINUOUS
10
2.927352992125984
20
-2.1446848031496062
11
2.9273519685039369
21
-2.1446850393700787
0
LINE
8
BLACK
6
CONTINUOUS
10
2.9273519685039369
20
-2.1446850393700787
11
2.9273489370078738
21
-2.1446844094488187
0
LINE
8
BLACK
6
CONTINUOUS
10
2.9273489370078738
20
-2.1446844094488187
11
2.9267790157480316
21
-2.1446283070866143
0
LINE
8
BLACK
6
CONTINUOUS
10
2.9267790157480316
20
-2.1446283070866143
11
2.9265088976377953
21
-2.1445164173228344
0
LINE
8
BLACK
6
CONTINUOUS
10
2.9265088976377953
20
-2.1445164173228344
11
2.926222283464567
21
-2.1444590944881887
0
LINE
8
BLACK
6
CONTINUOUS
10
2.926222283464567
20
-2.1444590944881887
11
2.9259818897637793
21
-2.1442981102362206
0
LINE
8
BLACK
6
CONTINUOUS
10
2.9259818897637793
20
-2.1442981102362206
11
2.9257146062992123
21
-2.1441874015748033
0
LINE
8
BLACK
6
CONTINUOUS
10
2.9257146062992123
20
-2.1441874015748033
11
2.9255078740157479
21
-2.1439806692913383
0
LINE
8
BLACK
6
CONTINUOUS
10
2.9255078740157479
20
-2.1439806692913383
11
2.925265
21
-2.1438180314960631
0
LINE
8
BLACK
6
CONTINUOUS
10
2.925265
20
-2.1438180314960631
11
2.9251044881889765
21
-2.143577283464567
0
LINE
8
BLACK
6
CONTINUOUS
10
2.9251044881889765
20
-2.143577283464567
11
2.9248999606299213
21
-2.1433727559055118
0
LINE
8
BLACK
6
CONTINUOUS
10
2.9248999606299213
20
-2.1433727559055118
11
2.9247880708661418
21
-2.1431026377952755
0
LINE
8
BLACK
6
CONTINUOUS
10
2.9247880708661418
20
-2.1431026377952755
11
2.9246259055118111
21
-2.1428594094488189
0
LINE
8
BLACK
6
CONTINUOUS
10
2.9246259055118111
20
-2.1428594094488189
11
2.9245697637795276
21
-2.1425755905511812
0
LINE
8
BLACK
6
CONTINUOUS
10
2.9245697637795276
20
-2.1425755905511812
11
2.9244590551181102
21
-2.142308346456693
0
LINE
8
BLACK
6
CONTINUOUS
10
2.9244590551181102
20
-2.142308346456693
11
2.9244590551181102
21
-2.1420159448818898
0
LINE
8
BLACK
6
CONTINUOUS
10
2.9244590551181102
20
-2.1420159448818898
11
2.9244023228346454
21
-2.1417291732283465
0
LINE
8
BLACK
6
CONTINUOUS
10
2.9244023228346454
20
-2.1417291732283465
11
2.9244590551181102
21
-2.1414455118110234
0
LINE
8
BLACK
6
CONTINUOUS
10
2.9244590551181102
20
-2.1414455118110234
11
2.9244590551181102
21
-2.1411562204724408
0
LINE
8
BLACK
6
CONTINUOUS
10
2.9244590551181102
20
-2.1411562204724408
11
2.924570905511811
21
-2.1408861023622046
0
LINE
8
BLACK
6
CONTINUOUS
10
2.924570905511811
20
-2.1408861023622046
11
2.9246282677165354
21
-2.1405994881889763
0
LINE
8
BLACK
6
CONTINUOUS
10
2.9246282677165354
20
-2.1405994881889763
11
2.9247892125984252
21
-2.140359094488189
0
LINE
8
BLACK
6
CONTINUOUS
10
2.9247892125984252
20
-2.140359094488189
11
2.9248999606299213
21
-2.140091811023622
0
LINE
8
BLACK
6
CONTINUOUS
10
2.9248999606299213
20
-2.140091811023622
11
2.925106653543307
21
-2.1398850787401575
0
LINE
8
BLACK
6
CONTINUOUS
10
2.925106653543307
20
-2.1398850787401575
11
2.9252693307086615
21
-2.1396422047244092
0
LINE
8
BLACK
6
CONTINUOUS
10
2.9252693307086615
20
-2.1396422047244092
11
2.9257125590551181
21
-2.1392791732283465
0
LINE
8
BLACK
6
CONTINUOUS
10
2.9257125590551181
20
-2.1392791732283465
11
2.9257146062992123
21
-2.1392771653543305
0
LINE
8
BLACK
6
CONTINUOUS
10
2.9257146062992123
20
-2.1392771653543305
11
2.9257154724409449
21
-2.1392767716535435
0
LINE
8
BLACK
6
CONTINUOUS
10
2.9257154724409449
20
-2.1392767716535435
11
2.9257171653543308
21
-2.1392754330708659
0
LINE
8
BLACK
6
CONTINUOUS
10
2.9257171653543308
20
-2.1392754330708659
11
2.9310981889763781
21
-2.1356880708661419
0
LINE
8
BLACK
6
CONTINUOUS
10
2.9310981889763781
20
-2.1356880708661419
11
2.9343021653543309
21
-2.1324841338582678
0
LINE
8
BLACK
6
CONTINUOUS
10
2.9343021653543309
20
-2.1324841338582678
11
2.9359626377952757
21
-2.1291631889763778
0
LINE
8
BLACK
6
CONTINUOUS
10
2.9359626377952757
20
-2.1291631889763778
11
2.9362709842519683
21
-2.128673307086614
0
LINE
8
BLACK
6
CONTINUOUS
10
2.9362709842519683
20
-2.128673307086614
11
2.9371413779527558
21
-2.1279184645669291
0
LINE
8
BLACK
6
CONTINUOUS
10
2.9371413779527558
20
-2.1279184645669291
11
2.9382343307086614
21
-2.1275541338582675
0
LINE
8
BLACK
6
CONTINUOUS
10
2.9382343307086614
20
-2.1275541338582675
11
2.9393835433070867
21
-2.1276357874015748
0
LINE
8
BLACK
6
CONTINUOUS
10
2.9929304330708661
20
-2.1108577559055117
11
2.9931102362204722
21
-2.1117617322834645
0
LINE
8
BLACK
6
CONTINUOUS
10
2.9931102362204722
20
-2.1117617322834645
11
2.9931102362204722
21
-2.1323327559055119
0
LINE
8
BLACK
6
CONTINUOUS
10
2.9931102362204722
20
-2.1323327559055119
11
2.9929304330708661
21
-2.1332367322834647
0
LINE
8
BLACK
6
CONTINUOUS
10
2.9929304330708661
20
-2.1332367322834647
11
2.9916520078740159
21
-2.134515157480315
0
LINE
8
BLACK
6
CONTINUOUS
10
2.9916520078740159
20
-2.134515157480315
11
2.9898440551181102
21
-2.134515157480315
0
LINE
8
BLACK
6
CONTINUOUS
10
2.9898440551181102
20
-2.134515157480315
11
2.98856562992126
21
-2.1332367322834647
0
LINE
8
BLACK
6
CONTINUOUS
10
2.98856562992126
20
-2.1332367322834647
11
2.9883858267716534
21
-2.1323327559055119
0
LINE
8
BLACK
6
CONTINUOUS
10
2.9883858267716534
20
-2.1323327559055119
11
2.9883858267716534
21
-2.1117617322834645
0
LINE
8
BLACK
6
CONTINUOUS
10
2.9883858267716534
20
-2.1117617322834645
11
2.98856562992126
21
-2.1108577559055117
0
LINE
8
BLACK
6
CONTINUOUS
10
2.98856562992126
20
-2.1108577559055117
11
2.9898440551181102
21
-2.1095793307086614
0
LINE
8
BLACK
6
CONTINUOUS
10
2.9898440551181102
20
-2.1095793307086614
11
2.9916520078740159
21
-2.1095793307086614
0
LINE
8
BLACK
6
CONTINUOUS
10
2.9916520078740159
20
-2.1095793307086614
11
2.9929304330708661
21
-2.1108577559055117
0
LINE
8
BLACK
6
CONTINUOUS
10
3.0508044488188975
20
-2.1108577559055117
11
3.050984251968504
21
-2.1117617322834645
0
LINE
8
BLACK
6
CONTINUOUS
10
3.050984251968504
20
-2.1117617322834645
11
3.050984251968504
21
-2.1323327559055119
0
LINE
8
BLACK
6
CONTINUOUS
10
3.050984251968504
20
-2.1323327559055119
11
3.0508044488188975
21
-2.1332367322834647
0
LINE
8
BLACK
6
CONTINUOUS
10
3.0508044488188975
20
-2.1332367322834647
11
3.0495260236220472
21
-2.134515157480315
0
LINE
8
BLACK
6
CONTINUOUS
10
3.0495260236220472
20
-2.134515157480315
11
3.0477180708661415
21
-2.134515157480315
0
LINE
8
BLACK
6
CONTINUOUS
10
3.0477180708661415
20
-2.134515157480315
11
3.0464396456692913
21
-2.1332367322834647
0
LINE
8
BLACK
6
CONTINUOUS
10
3.0464396456692913
20
-2.1332367322834647
11
3.0462598425196852
21
-2.1323327559055119
0
LINE
8
BLACK
6
CONTINUOUS
10
3.0462598425196852
20
-2.1323327559055119
11
3.0462598425196852
21
-2.1117617322834645
0
LINE
8
BLACK
6
CONTINUOUS
10
3.0462598425196852
20
-2.1117617322834645
11
3.0464396456692913
21
-2.1108577559055117
0
LINE
8
BLACK
6
CONTINUOUS
10
3.0464396456692913
20
-2.1108577559055117
11
3.0477180708661415
21
-2.1095793307086614
0
LINE
8
BLACK
6
CONTINUOUS
10
3.0477180708661415
20
-2.1095793307086614
11
3.0495260236220472
21
-2.1095793307086614
0
LINE
8
BLACK
6
CONTINUOUS
10
3.0495260236220472
20
-2.1095793307086614
11
3.0508044488188975
21
-2.1108577559055117
0
LINE
8
BLACK
6
CONTINUOUS
10
2.9499527559055116
20
-2.0881707480314962
11
2.9499957874015745
21
-2.08816437007874
0
LINE
8
BLACK
6
CONTINUOUS
10
2.9499957874015745
20
-2.08816437007874
11
2.9502112598425194
21
-2.0881962204724407
0
LINE
8
BLACK
6
CONTINUOUS
10
2.9502112598425194
20
-2.0881962204724407
11
2.950428307086614
21
-2.0882175984251967
0
LINE
8
BLACK
6
CONTINUOUS
10
2.950428307086614
20
-2.0882175984251967
11
2.950468503937008
21
-2.088234212598425
0
LINE
8
BLACK
6
CONTINUOUS
10
2.950468503937008
20
-2.088234212598425
11
2.9505683858267715
21
-2.0882490157480316
0
LINE
8
BLACK
6
CONTINUOUS
10
2.9505683858267715
20
-2.0882490157480316
11
2.9580674409448817
21
-2.0901237795275591
0
LINE
8
BLACK
6
CONTINUOUS
10
2.9580674409448817
20
-2.0901237795275591
11
2.9581099212598425
21
-2.090138937007874
0
LINE
8
BLACK
6
CONTINUOUS
10
2.9581099212598425
20
-2.090138937007874
11
2.9581311811023623
21
-2.0901404724409449
0
LINE
8
BLACK
6
CONTINUOUS
10
2.9581311811023623
20
-2.0901404724409449
11
2.9583705905511812
21
-2.090232086614173
0
LINE
8
BLACK
6
CONTINUOUS
10
2.9583705905511812
20
-2.090232086614173
11
2.9586125590551182
21
-2.0903185433070868
0
LINE
8
BLACK
6
CONTINUOUS
10
2.9586125590551182
20
-2.0903185433070868
11
2.9586296850393698
21
-2.0903312204724407
0
LINE
8
BLACK
6
CONTINUOUS
10
2.9586296850393698
20
-2.0903312204724407
11
2.9586718110236219
21
-2.0903473622047244
0
LINE
8
BLACK
6
CONTINUOUS
10
2.9586718110236219
20
-2.0903473622047244
11
2.962421338582677
21
-2.0922221259842519
0
LINE
8
BLACK
6
CONTINUOUS
10
2.962421338582677
20
-2.0922221259842519
11
2.9626692125984251
21
-2.092378149606299
0
LINE
8
BLACK
6
CONTINUOUS
10
2.9626692125984251
20
-2.092378149606299
11
2.9627412598425198
21
-2.0924079921259842
0
LINE
8
BLACK
6
CONTINUOUS
10
2.9627412598425198
20
-2.0924079921259842
11
2.962822283464567
21
-2.0924744881889765
0
LINE
8
BLACK
6
CONTINUOUS
10
2.962822283464567
20
-2.0924744881889765
11
2.9629112204724408
21
-2.092530472440945
0
LINE
8
BLACK
6
CONTINUOUS
10
2.9629112204724408
20
-2.092530472440945
11
2.9629623622047245
21
-2.0925894488188974
0
LINE
8
BLACK
6
CONTINUOUS
10
2.9629623622047245
20
-2.0925894488188974
11
2.9631887401574803
21
-2.0927752362204726
0
LINE
8
BLACK
6
CONTINUOUS
10
2.9631887401574803
20
-2.0927752362204726
11
2.9669383070866142
21
-2.0965247637795277
0
LINE
8
BLACK
6
CONTINUOUS
10
2.9669383070866142
20
-2.0965247637795277
11
2.9673055511811022
21
-2.0969722047244095
0
LINE
8
BLACK
6
CONTINUOUS
10
2.9673055511811022
20
-2.0969722047244095
11
2.9673461417322833
21
-2.0970702362204725
0
LINE
8
BLACK
6
CONTINUOUS
10
2.9673461417322833
20
-2.0970702362204725
11
2.96741562992126
21
-2.0971503543307084
0
LINE
8
BLACK
6
CONTINUOUS
10
2.96741562992126
20
-2.0971503543307084
11
2.9676516141732283
21
-2.0976789370078741
0
LINE
8
BLACK
6
CONTINUOUS
10
2.9676516141732283
20
-2.0976789370078741
11
2.9695263779527559
21
-2.103303188976378
0
LINE
8
BLACK
6
CONTINUOUS
10
2.9695263779527559
20
-2.103303188976378
11
2.9695912992125986
21
-2.1035888188976379
0
LINE
8
BLACK
6
CONTINUOUS
10
2.9695912992125986
20
-2.1035888188976379
11
2.9696211811023621
21
-2.103660905511811
0
LINE
8
BLACK
6
CONTINUOUS
10
2.9696211811023621
20
-2.103660905511811
11
2.9696314566929134
21
-2.1037653543307084
0
LINE
8
BLACK
6
CONTINUOUS
10
2.9696314566929134
20
-2.1037653543307084
11
2.9696547244094487
21
-2.1038676377952754
0
LINE
8
BLACK
6
CONTINUOUS
10
2.9696547244094487
20
-2.1038676377952754
11
2.9696491732283463
21
-2.1039453543307087
0
LINE
8
BLACK
6
CONTINUOUS
10
2.9696491732283463
20
-2.1039453543307087
11
2.9696779133858269
21
-2.1042369685039368
0
LINE
8
BLACK
6
CONTINUOUS
10
2.9696779133858269
20
-2.1042369685039368
11
2.9696779133858269
21
-2.1079864960629919
0
LINE
8
BLACK
6
CONTINUOUS
10
2.9696779133858269
20
-2.1079864960629919
11
2.9696491732283463
21
-2.1082780708661417
0
LINE
8
BLACK
6
CONTINUOUS
10
2.9696491732283463
20
-2.1082780708661417
11
2.9696547244094487
21
-2.1083558267716533
0
LINE
8
BLACK
6
CONTINUOUS
10
2.9696547244094487
20
-2.1083558267716533
11
2.9696314566929134
21
-2.1084580708661416
0
LINE
8
BLACK
6
CONTINUOUS
10
2.9696314566929134
20
-2.1084580708661416
11
2.9696211811023621
21
-2.1085625590551182
0
LINE
8
BLACK
6
CONTINUOUS
10
2.9696211811023621
20
-2.1085625590551182
11
2.9695912992125986
21
-2.1086346062992125
0
LINE
8
BLACK
6
CONTINUOUS
10
2.9695912992125986
20
-2.1086346062992125
11
2.9695263779527559
21
-2.1089202755905512
0
LINE
8
BLACK
6
CONTINUOUS
10
2.9695263779527559
20
-2.1089202755905512
11
2.9676516141732283
21
-2.1145445275590551
0
LINE
8
BLACK
6
CONTINUOUS
10
2.9676516141732283
20
-2.1145445275590551
11
2.96741562992126
21
-2.1150731102362204
0
LINE
8
BLACK
6
CONTINUOUS
10
2.96741562992126
20
-2.1150731102362204
11
2.9673460629921258
21
-2.1151532677165354
0
LINE
8
BLACK
6
CONTINUOUS
10
2.9673460629921258
20
-2.1151532677165354
11
2.9673055118110234
21
-2.1152512598425197
0
LINE
8
BLACK
6
CONTINUOUS
10
2.9673055118110234
20
-2.1152512598425197
11
2.9669382677165355
21
-2.1156987401574803
0
LINE
8
BLACK
6
CONTINUOUS
10
2.9669382677165355
20
-2.1156987401574803
11
2.9650634645669292
21
-2.1175735039370078
0
LINE
8
BLACK
6
CONTINUOUS
10
2.9650634645669292
20
-2.1175735039370078
11
2.9646160236220473
21
-2.1179407086614175
0
LINE
8
BLACK
6
CONTINUOUS
10
2.9646160236220473
20
-2.1179407086614175
11
2.9635516141732281
21
-2.1183815748031494
0
LINE
8
BLACK
6
CONTINUOUS
10
2.9635516141732281
20
-2.1183815748031494
11
2.9623995275590551
21
-2.1183815748031494
0
LINE
8
BLACK
6
CONTINUOUS
10
2.9623995275590551
20
-2.1183815748031494
11
2.9613351181102363
21
-2.1179406692913387
0
LINE
8
BLACK
6
CONTINUOUS
10
2.9613351181102363
20
-2.1179406692913387
11
2.9605204330708661
21
-2.1171259842519685
0
LINE
8
BLACK
6
CONTINUOUS
10
2.9605204330708661
20
-2.1171259842519685
11
2.9600795669291338
21
-2.1160615748031497
0
LINE
8
BLACK
6
CONTINUOUS
10
2.9600795669291338
20
-2.1160615748031497
11
2.9600795669291338
21
-2.1149094881889763
0
LINE
8
BLACK
6
CONTINUOUS
10
2.9600795669291338
20
-2.1149094881889763
11
2.9605204724409449
21
-2.1138450787401575
0
LINE
8
BLACK
6
CONTINUOUS
10
2.9605204724409449
20
-2.1138450787401575
11
2.9608877165354328
21
-2.1133975984251969
0
LINE
8
BLACK
6
CONTINUOUS
10
2.9608877165354328
20
-2.1133975984251969
11
2.9622696062992127
21
-2.1120157086614171
0
LINE
8
BLACK
6
CONTINUOUS
10
2.9622696062992127
20
-2.1120157086614171
11
2.9637724015748033
21
-2.1075073622047245
0
LINE
8
BLACK
6
CONTINUOUS
10
2.9637724015748033
20
-2.1075073622047245
11
2.9637724015748033
21
-2.1047161023622047
0
LINE
8
BLACK
6
CONTINUOUS
10
2.9637724015748033
20
-2.1047161023622047
11
2.9622696062992127
21
-2.1002077165354329
0
LINE
8
BLACK
6
CONTINUOUS
10
2.9622696062992127
20
-2.1002077165354329
11
2.9593517322834644
21
-2.0972898818897638
0
LINE
8
BLACK
6
CONTINUOUS
10
2.9593517322834644
20
-2.0972898818897638
11
2.9563207480314961
21
-2.0957743700787401
0
LINE
8
BLACK
6
CONTINUOUS
10
2.9563207480314961
20
-2.0957743700787401
11
2.9494887007874016
21
-2.094066377952756
0
LINE
8
BLACK
6
CONTINUOUS
10
2.9494887007874016
20
-2.094066377952756
11
2.944591496062992
21
-2.094066377952756
0
LINE
8
BLACK
6
CONTINUOUS
10
2.944591496062992
20
-2.094066377952756
11
2.9377594488188974
21
-2.0957743700787401
0
LINE
8
BLACK
6
CONTINUOUS
10
2.9377594488188974
20
-2.0957743700787401
11
2.9347284645669292
21
-2.0972898818897638
0
LINE
8
BLACK
6
CONTINUOUS
10
2.9347284645669292
20
-2.0972898818897638
11
2.9318106299212596
21
-2.1002076771653542
0
LINE
8
BLACK
6
CONTINUOUS
10
2.9318106299212596
20
-2.1002076771653542
11
2.930307834645669
21
-2.1047161023622047
0
LINE
8
BLACK
6
CONTINUOUS
10
2.930307834645669
20
-2.1047161023622047
11
2.930307834645669
21
-2.1075073228346457
0
LINE
8
BLACK
6
CONTINUOUS
10
2.930307834645669
20
-2.1075073228346457
11
2.9318106299212596
21
-2.1120157480314958
0
LINE
8
BLACK
6
CONTINUOUS
10
2.9318106299212596
20
-2.1120157480314958
11
2.9331925196850395
21
-2.1133976377952757
0
LINE
8
BLACK
6
CONTINUOUS
10
2.9331925196850395
20
-2.1133976377952757
11
2.9335597244094487
21
-2.1138450787401575
0
LINE
8
BLACK
6
CONTINUOUS
10
2.9335597244094487
20
-2.1138450787401575
11
2.9340006299212598
21
-2.1149094881889763
0
LINE
8
BLACK
6
CONTINUOUS
10
2.9340006299212598
20
-2.1149094881889763
11
2.9340006299212598
21
-2.1160615748031497
0
LINE
8
BLACK
6
CONTINUOUS
10
2.9340006299212598
20
-2.1160615748031497
11
2.9335597244094487
21
-2.1171259842519685
0
LINE
8
BLACK
6
CONTINUOUS
10
2.9335597244094487
20
-2.1171259842519685
11
2.9327450393700785
21
-2.1179406692913387
0
LINE
8
BLACK
6
CONTINUOUS
10
2.9327450393700785
20
-2.1179406692913387
11
2.9316806299212597
21
-2.1183815748031494
0
LINE
8
BLACK
6
CONTINUOUS
10
2.9316806299212597
20
-2.1183815748031494
11
2.9305285433070867
21
-2.1183815748031494
0
LINE
8
BLACK
6
CONTINUOUS
10
2.9305285433070867
20
-2.1183815748031494
11
2.9294641338582679
21
-2.1179406692913387
0
LINE
8
BLACK
6
CONTINUOUS
10
2.9294641338582679
20
-2.1179406692913387
11
2.9290166929133856
21
-2.1175734645669291
0
LINE
8
BLACK
6
CONTINUOUS
10
2.9290166929133856
20
-2.1175734645669291
11
2.9271419291338581
21
-2.1156987007874015
0
LINE
8
BLACK
6
CONTINUOUS
10
2.9271419291338581
20
-2.1156987007874015
11
2.9267747244094489
21
-2.1152512598425197
0
LINE
8
BLACK
6
CONTINUOUS
10
2.9267747244094489
20
-2.1152512598425197
11
2.926734094488189
21
-2.1151531889763779
0
LINE
8
BLACK
6
CONTINUOUS
10
2.926734094488189
20
-2.1151531889763779
11
2.9266646062992123
21
-2.1150730708661416
0
LINE
8
BLACK
6
CONTINUOUS
10
2.9266646062992123
20
-2.1150730708661416
11
2.926428622047244
21
-2.1145445275590551
0
LINE
8
BLACK
6
CONTINUOUS
10
2.926428622047244
20
-2.1145445275590551
11
2.9245538582677164
21
-2.1089202362204724
0
LINE
8
BLACK
6
CONTINUOUS
10
2.9245538582677164
20
-2.1089202362204724
11
2.9244888976377954
21
-2.1086346456692913
0
LINE
8
BLACK
6
CONTINUOUS
10
2.9244888976377954
20
-2.1086346456692913
11
2.9244590551181102
21
-2.1085625590551182
0
LINE
8
BLACK
6
CONTINUOUS
10
2.9244590551181102
20
-2.1085625590551182
11
2.9244487401574801
21
-2.1084580314960628
0
LINE
8
BLACK
6
CONTINUOUS
10
2.9244487401574801
20
-2.1084580314960628
11
2.9244255118110236
21
-2.1083557874015746
0
LINE
8
BLACK
6
CONTINUOUS
10
2.9244255118110236
20
-2.1083557874015746
11
2.9244310236220472
21
-2.108278031496063
0
LINE
8
BLACK
6
CONTINUOUS
10
2.9244310236220472
20
-2.108278031496063
11
2.9244023228346454
21
-2.1079864960629919
0
LINE
8
BLACK
6
CONTINUOUS
10
2.9244023228346454
20
-2.1079864960629919
11
2.9244023228346454
21
-2.1042369685039368
0
LINE
8
BLACK
6
CONTINUOUS
10
2.9244023228346454
20
-2.1042369685039368
11
2.9244310236220472
21
-2.1039453937007875
0
LINE
8
BLACK
6
CONTINUOUS
10
2.9244310236220472
20
-2.1039453937007875
11
2.9244255118110236
21
-2.1038676771653542
0
LINE
8
BLACK
6
CONTINUOUS
10
2.9244255118110236
20
-2.1038676771653542
11
2.9244487401574801
21
-2.1037653937007872
0
LINE
8
BLACK
6
CONTINUOUS
10
2.9244487401574801
20
-2.1037653937007872
11
2.9244590551181102
21
-2.103660905511811
0
LINE
8
BLACK
6
CONTINUOUS
10
2.9244590551181102
20
-2.103660905511811
11
2.9244888976377954
21
-2.1035887795275592
0
LINE
8
BLACK
6
CONTINUOUS
10
2.9244888976377954
20
-2.1035887795275592
11
2.9245538582677164
21
-2.1033032283464568
0
LINE
8
BLACK
6
CONTINUOUS
10
2.9245538582677164
20
-2.1033032283464568
11
2.926428622047244
21
-2.0976789370078741
0
LINE
8
BLACK
6
CONTINUOUS
10
2.926428622047244
20
-2.0976789370078741
11
2.9266646062992123
21
-2.0971503937007872
0
LINE
8
BLACK
6
CONTINUOUS
10
2.9266646062992123
20
-2.0971503937007872
11
2.926734094488189
21
-2.0970702362204725
0
LINE
8
BLACK
6
CONTINUOUS
10
2.926734094488189
20
-2.0970702362204725
11
2.9267747244094489
21
-2.0969722047244095
0
LINE
8
BLACK
6
CONTINUOUS
10
2.9267747244094489
20
-2.0969722047244095
11
2.9271419291338581
21
-2.0965247637795277
0
LINE
8
BLACK
6
CONTINUOUS
10
2.9271419291338581
20
-2.0965247637795277
11
2.9308914566929132
21
-2.0927752362204726
0
LINE
8
BLACK
6
CONTINUOUS
10
2.9308914566929132
20
-2.0927752362204726
11
2.9311178346456694
21
-2.0925893700787399
0
LINE
8
BLACK
6
CONTINUOUS
10
2.9311178346456694
20
-2.0925893700787399
11
2.9311689763779527
21
-2.092530472440945
0
LINE
8
BLACK
6
CONTINUOUS
10
2.9311689763779527
20
-2.092530472440945
11
2.9312577165354332
21
-2.092474566929134
0
LINE
8
BLACK
6
CONTINUOUS
10
2.9312577165354332
20
-2.092474566929134
11
2.9313388976377954
21
-2.0924079921259842
0
LINE
8
BLACK
6
CONTINUOUS
10
2.9313388976377954
20
-2.0924079921259842
11
2.9314110236220472
21
-2.0923781102362202
0
LINE
8
BLACK
6
CONTINUOUS
10
2.9314110236220472
20
-2.0923781102362202
11
2.9316588582677165
21
-2.0922221259842519
0
LINE
8
BLACK
6
CONTINUOUS
10
2.9316588582677165
20
-2.0922221259842519
11
2.9354083858267717
21
-2.0903473622047244
0
LINE
8
BLACK
6
CONTINUOUS
10
2.9354083858267717
20
-2.0903473622047244
11
2.9354504724409449
21
-2.0903312204724407
0
LINE
8
BLACK
6
CONTINUOUS
10
2.9354504724409449
20
-2.0903312204724407
11
2.9354676377952753
21
-2.0903185433070868
0
LINE
8
BLACK
6
CONTINUOUS
10
2.9354676377952753
20
-2.0903185433070868
11
2.9357092125984252
21
-2.0902322047244093
0
LINE
8
BLACK
6
CONTINUOUS
10
2.9357092125984252
20
-2.0902322047244093
11
2.9359489763779525
21
-2.0901404724409449
0
LINE
8
BLACK
6
CONTINUOUS
10
2.9359489763779525
20
-2.0901404724409449
11
2.9359702362204723
21
-2.090138937007874
0
LINE
8
BLACK
6
CONTINUOUS
10
2.9359702362204723
20
-2.090138937007874
11
2.9360127559055118
21
-2.0901237795275591
0
LINE
8
BLACK
6
CONTINUOUS
10
2.9360127559055118
20
-2.0901237795275591
11
2.943511811023622
21
-2.0882490157480316
0
LINE
8
BLACK
6
CONTINUOUS
10
2.943511811023622
20
-2.0882490157480316
11
2.9436116535433072
21
-2.088234212598425
0
LINE
8
BLACK
6
CONTINUOUS
10
2.9436116535433072
20
-2.088234212598425
11
2.9436518897637796
21
-2.0882175984251967
0
LINE
8
BLACK
6
CONTINUOUS
10
2.9436518897637796
20
-2.0882175984251967
11
2.9438688976377954
21
-2.0881962204724407
0
LINE
8
BLACK
6
CONTINUOUS
10
2.9438688976377954
20
-2.0881962204724407
11
2.944084409448819
21
-2.08816437007874
0
LINE
8
BLACK
6
CONTINUOUS
10
2.944084409448819
20
-2.08816437007874
11
2.9441274015748031
21
-2.0881707480314962
0
LINE
8
BLACK
6
CONTINUOUS
10
2.9441274015748031
20
-2.0881707480314962
11
2.9442279527559054
21
-2.0881608661417324
0
LINE
8
BLACK
6
CONTINUOUS
10
2.9442279527559054
20
-2.0881608661417324
11
2.9498522440944881
21
-2.0881608661417324
0
LINE
8
BLACK
6
CONTINUOUS
10
2.9498522440944881
20
-2.0881608661417324
11
2.9499527559055116
21
-2.0881707480314962
  0
ENDSEC
  0
EOF
