  0
SECTION
  2
HEADER
  9
$ANGBASE
  50
0.0
  9
$ANGDIR
  70
1
  9
$MEASUREMENT
  70
0
  0
ENDSEC
  0
SECTION
  2
TABLES
  0
TABLE
  2
LTYPE
  70
4
  0
LTYPE
  5
40F
  2
CONTINUOUS
  70
0
  3
Solid line
  72
65
  73
0
  40
0.0
  0
LTYPE
  5
410
  2
DASHDOT
 70
0
  3
Dash Dot ____ _ ____ _
 72
65
 73
4
 40
2.0
 49
1.25
 49
-0.25
 49
0.25
 49
-0.25
  0
LTYPE
  5
411
  2
DASHED
 70
0
  3
Dashed __ __ __ __ __
 72
65
 73
2
 40
0.75
 49
0.5
 49
-0.25
  0
LTYPE
  5
43B
  2
DOTTED
 70
0
  3
Dotted .  .  .  .
 72
65
 73
2
 40
0.2
 49
0.0
 49
-0.2
  0
ENDTAB
  0
TABLE
  2
STYLE
  70
4
  0
STYLE
  2
KICAD
  70
0
  40
0
  41
1
  42
1
  50
0
  71
0
  3
isocp.shx
  0
STYLE
  2
KICADB
  70
0
  40
0
  41
1
  42
1
  50
0
  71
0
  3
isocp.shx
  0
STYLE
  2
KICADI
  70
0
  40
0
  41
1
  42
1
  50
15
  71
0
  3
isocp.shx
  0
STYLE
  2
KICADBI
  70
0
  40
0
  41
1
  42
1
  50
15
  71
0
  3
isocp.shx
  0
ENDTAB
  0
TABLE
  2
LAYER
  70
1
  0
LAYER
  2
BLACK
  70
0
  62
7
  6
CONTINUOUS
  0
ENDTAB
  0
ENDSEC
  0
SECTION
  2
ENTITIES
0
LINE
8
BLACK
6
CONTINUOUS
10
3.2966939370078738
20
-2.9175561811023623
11
3.2977753543307085
21
-2.9180041338582678
0
LINE
8
BLACK
6
CONTINUOUS
10
3.2977753543307085
20
-2.9180041338582678
11
3.2986030708661418
21
-2.9188318503937007
0
LINE
8
BLACK
6
CONTINUOUS
10
3.2986030708661418
20
-2.9188318503937007
11
3.2990510236220474
21
-2.9199132677165354
0
LINE
8
BLACK
6
CONTINUOUS
10
3.2990510236220474
20
-2.9199132677165354
11
3.2990510236220474
21
-2.9210838188976376
0
LINE
8
BLACK
6
CONTINUOUS
10
3.2990510236220474
20
-2.9210838188976376
11
3.2986030708661418
21
-2.9221652362204722
0
LINE
8
BLACK
6
CONTINUOUS
10
3.2986030708661418
20
-2.9221652362204722
11
3.2977753543307085
21
-2.9229929527559055
0
LINE
8
BLACK
6
CONTINUOUS
10
3.2977753543307085
20
-2.9229929527559055
11
3.2966939370078738
21
-2.9234409055118111
0
LINE
8
BLACK
6
CONTINUOUS
10
3.2966939370078738
20
-2.9234409055118111
11
3.2961086614173229
21
-2.9234985433070864
0
LINE
8
BLACK
6
CONTINUOUS
10
3.2961086614173229
20
-2.9234985433070864
11
3.0039370078740157
21
-2.9234985433070864
0
LINE
8
BLACK
6
CONTINUOUS
10
3.0039370078740157
20
-2.9234985433070864
11
3.0033517322834644
21
-2.9234409055118111
0
LINE
8
BLACK
6
CONTINUOUS
10
3.0033517322834644
20
-2.9234409055118111
11
3.0022703149606298
21
-2.9229929527559055
0
LINE
8
BLACK
6
CONTINUOUS
10
3.0022703149606298
20
-2.9229929527559055
11
3.0014425984251969
21
-2.9221652362204722
0
LINE
8
BLACK
6
CONTINUOUS
10
3.0014425984251969
20
-2.9221652362204722
11
3.0009946456692913
21
-2.9210838188976376
0
LINE
8
BLACK
6
CONTINUOUS
10
3.0009946456692913
20
-2.9210838188976376
11
3.0009946456692913
21
-2.9199132677165354
0
LINE
8
BLACK
6
CONTINUOUS
10
3.0009946456692913
20
-2.9199132677165354
11
3.0014425984251969
21
-2.9188318503937007
0
LINE
8
BLACK
6
CONTINUOUS
10
3.0014425984251969
20
-2.9188318503937007
11
3.0022703149606298
21
-2.9180041338582678
0
LINE
8
BLACK
6
CONTINUOUS
10
3.0022703149606298
20
-2.9180041338582678
11
3.0033517322834644
21
-2.9175561811023623
0
LINE
8
BLACK
6
CONTINUOUS
10
3.0033517322834644
20
-2.9175561811023623
11
3.0039370078740157
21
-2.9174985433070866
0
LINE
8
BLACK
6
CONTINUOUS
10
3.0039370078740157
20
-2.9174985433070866
11
3.2961086614173229
21
-2.9174985433070866
0
LINE
8
BLACK
6
CONTINUOUS
10
3.2961086614173229
20
-2.9174985433070866
11
3.2966939370078738
21
-2.9175561811023623
0
LINE
8
BLACK
6
CONTINUOUS
10
3.1381233858267716
20
-2.8146637401574801
11
3.1389380314960631
21
-2.8154783858267716
0
LINE
8
BLACK
6
CONTINUOUS
10
3.1389380314960631
20
-2.8154783858267716
11
3.1393789370078737
21
-2.8165427952755904
0
LINE
8
BLACK
6
CONTINUOUS
10
3.1393789370078737
20
-2.8165427952755904
11
3.1394356692913385
21
-2.8171188582677167
0
LINE
8
BLACK
6
CONTINUOUS
10
3.1394356692913385
20
-2.8171188582677167
11
3.1394356692913385
21
-2.84524031496063
0
LINE
8
BLACK
6
CONTINUOUS
10
3.1394356692913385
20
-2.84524031496063
11
3.139406929133858
21
-2.8455318897637794
0
LINE
8
BLACK
6
CONTINUOUS
10
3.139406929133858
20
-2.8455318897637794
11
3.1394124803149603
21
-2.8456096456692914
0
LINE
8
BLACK
6
CONTINUOUS
10
3.1394124803149603
20
-2.8456096456692914
11
3.1393892125984251
21
-2.8457118897637796
0
LINE
8
BLACK
6
CONTINUOUS
10
3.1393892125984251
20
-2.8457118897637796
11
3.1393789370078737
21
-2.8458163779527559
0
LINE
8
BLACK
6
CONTINUOUS
10
3.1393789370078737
20
-2.8458163779527559
11
3.1393490551181102
21
-2.8458884251968501
0
LINE
8
BLACK
6
CONTINUOUS
10
3.1393490551181102
20
-2.8458884251968501
11
3.1392841338582675
21
-2.8461740944881888
0
LINE
8
BLACK
6
CONTINUOUS
10
3.1392841338582675
20
-2.8461740944881888
11
3.13740937007874
21
-2.8517983464566927
0
LINE
8
BLACK
6
CONTINUOUS
10
3.13740937007874
20
-2.8517983464566927
11
3.1371733858267716
21
-2.852326929133858
0
LINE
8
BLACK
6
CONTINUOUS
10
3.1371733858267716
20
-2.852326929133858
11
3.1371038582677166
21
-2.8524070472440943
0
LINE
8
BLACK
6
CONTINUOUS
10
3.1371038582677166
20
-2.8524070472440943
11
3.1370633070866143
21
-2.8525050393700786
0
LINE
8
BLACK
6
CONTINUOUS
10
3.1370633070866143
20
-2.8525050393700786
11
3.1366961023622046
21
-2.8529524803149604
0
LINE
8
BLACK
6
CONTINUOUS
10
3.1366961023622046
20
-2.8529524803149604
11
3.1329465354330708
21
-2.856702086614173
0
LINE
8
BLACK
6
CONTINUOUS
10
3.1329465354330708
20
-2.856702086614173
11
3.132499094488189
21
-2.8570692913385827
0
LINE
8
BLACK
6
CONTINUOUS
10
3.132499094488189
20
-2.8570692913385827
11
3.1324010236220472
21
-2.8571098818897638
0
LINE
8
BLACK
6
CONTINUOUS
10
3.1324010236220472
20
-2.8571098818897638
11
3.1323209055118109
21
-2.8571794094488188
0
LINE
8
BLACK
6
CONTINUOUS
10
3.1323209055118109
20
-2.8571794094488188
11
3.1317923622047243
21
-2.8574153937007871
0
LINE
8
BLACK
6
CONTINUOUS
10
3.1317923622047243
20
-2.8574153937007871
11
3.1261680708661417
21
-2.8592901574803147
0
LINE
8
BLACK
6
CONTINUOUS
10
3.1261680708661417
20
-2.8592901574803147
11
3.1258824803149605
21
-2.8593550787401574
0
LINE
8
BLACK
6
CONTINUOUS
10
3.1258824803149605
20
-2.8593550787401574
11
3.1258103937007875
21
-2.8593849606299213
0
LINE
8
BLACK
6
CONTINUOUS
10
3.1258103937007875
20
-2.8593849606299213
11
3.1257058661417321
21
-2.8593952362204722
0
LINE
8
BLACK
6
CONTINUOUS
10
3.1257058661417321
20
-2.8593952362204722
11
3.1256036220472438
21
-2.8594185039370079
0
LINE
8
BLACK
6
CONTINUOUS
10
3.1256036220472438
20
-2.8594185039370079
11
3.1255258661417322
21
-2.8594129527559056
0
LINE
8
BLACK
6
CONTINUOUS
10
3.1255258661417322
20
-2.8594129527559056
11
3.1252343307086612
21
-2.8594416929133857
0
LINE
8
BLACK
6
CONTINUOUS
10
3.1252343307086612
20
-2.8594416929133857
11
3.1214848031496061
21
-2.8594416929133857
0
LINE
8
BLACK
6
CONTINUOUS
10
3.1214848031496061
20
-2.8594416929133857
11
3.1209087401574802
21
-2.8593849606299213
0
LINE
8
BLACK
6
CONTINUOUS
10
3.1209087401574802
20
-2.8593849606299213
11
3.1198443307086614
21
-2.8589440551181102
0
LINE
8
BLACK
6
CONTINUOUS
10
3.1198443307086614
20
-2.8589440551181102
11
3.1190296850393699
21
-2.8581294094488188
0
LINE
8
BLACK
6
CONTINUOUS
10
3.1190296850393699
20
-2.8581294094488188
11
3.1185887795275589
21
-2.857065
0
LINE
8
BLACK
6
CONTINUOUS
10
3.1185887795275589
20
-2.857065
11
3.1185887795275589
21
-2.8559128740157478
0
LINE
8
BLACK
6
CONTINUOUS
10
3.1185887795275589
20
-2.8559128740157478
11
3.1190296850393699
21
-2.854848464566929
0
LINE
8
BLACK
6
CONTINUOUS
10
3.1190296850393699
20
-2.854848464566929
11
3.1198443307086614
21
-2.8540338188976375
0
LINE
8
BLACK
6
CONTINUOUS
10
3.1198443307086614
20
-2.8540338188976375
11
3.1209087401574802
21
-2.8535929133858269
0
LINE
8
BLACK
6
CONTINUOUS
10
3.1209087401574802
20
-2.8535929133858269
11
3.1214848031496061
21
-2.8535361811023621
0
LINE
8
BLACK
6
CONTINUOUS
10
3.1214848031496061
20
-2.8535361811023621
11
3.1247551968503937
21
-2.8535361811023621
0
LINE
8
BLACK
6
CONTINUOUS
10
3.1247551968503937
20
-2.8535361811023621
11
3.1292635826771651
21
-2.8520333464566927
0
LINE
8
BLACK
6
CONTINUOUS
10
3.1292635826771651
20
-2.8520333464566927
11
3.1320273228346456
21
-2.8492695669291339
0
LINE
8
BLACK
6
CONTINUOUS
10
3.1320273228346456
20
-2.8492695669291339
11
3.1335301574803149
21
-2.8447611811023621
0
LINE
8
BLACK
6
CONTINUOUS
10
3.1335301574803149
20
-2.8447611811023621
11
3.1335301574803149
21
-2.8171188582677167
0
LINE
8
BLACK
6
CONTINUOUS
10
3.1335301574803149
20
-2.8171188582677167
11
3.1335868897637793
21
-2.8165427952755904
0
LINE
8
BLACK
6
CONTINUOUS
10
3.1335868897637793
20
-2.8165427952755904
11
3.1340277952755904
21
-2.8154783858267716
0
LINE
8
BLACK
6
CONTINUOUS
10
3.1340277952755904
20
-2.8154783858267716
11
3.1348424409448818
21
-2.8146637401574801
0
LINE
8
BLACK
6
CONTINUOUS
10
3.1348424409448818
20
-2.8146637401574801
11
3.1359068503937007
21
-2.814222834645669
0
LINE
8
BLACK
6
CONTINUOUS
10
3.1359068503937007
20
-2.814222834645669
11
3.1370589763779528
21
-2.814222834645669
0
LINE
8
BLACK
6
CONTINUOUS
10
3.1370589763779528
20
-2.814222834645669
11
3.1381233858267716
21
-2.8146637401574801
0
LINE
8
BLACK
6
CONTINUOUS
10
3.1648880708661418
20
-2.814222834645669
11
3.1651804724409449
21
-2.814222834645669
0
LINE
8
BLACK
6
CONTINUOUS
10
3.1651804724409449
20
-2.814222834645669
11
3.1654477165354331
21
-2.8143335433070864
0
LINE
8
BLACK
6
CONTINUOUS
10
3.1654477165354331
20
-2.8143335433070864
11
3.1657315354330708
21
-2.8143896850393699
0
LINE
8
BLACK
6
CONTINUOUS
10
3.1657315354330708
20
-2.8143896850393699
11
3.1659748031496062
21
-2.8145518503937006
0
LINE
8
BLACK
6
CONTINUOUS
10
3.1659748031496062
20
-2.8145518503937006
11
3.1662448818897637
21
-2.8146637401574801
0
LINE
8
BLACK
6
CONTINUOUS
10
3.1662448818897637
20
-2.8146637401574801
11
3.1664493307086614
21
-2.8148681889763778
0
LINE
8
BLACK
6
CONTINUOUS
10
3.1664493307086614
20
-2.8148681889763778
11
3.166690157480315
21
-2.8150287401574801
0
LINE
8
BLACK
6
CONTINUOUS
10
3.166690157480315
20
-2.8150287401574801
11
3.1668528740157478
21
-2.8152717322834646
0
LINE
8
BLACK
6
CONTINUOUS
10
3.1668528740157478
20
-2.8152717322834646
11
3.1670595275590552
21
-2.8154783858267716
0
LINE
8
BLACK
6
CONTINUOUS
10
3.1670595275590552
20
-2.8154783858267716
11
3.1671701968503938
21
-2.815745590551181
0
LINE
8
BLACK
6
CONTINUOUS
10
3.1671701968503938
20
-2.815745590551181
11
3.1673312204724411
21
-2.8159860236220471
0
LINE
8
BLACK
6
CONTINUOUS
10
3.1673312204724411
20
-2.8159860236220471
11
3.1673885433070867
21
-2.8162726771653541
0
LINE
8
BLACK
6
CONTINUOUS
10
3.1673885433070867
20
-2.8162726771653541
11
3.1675004330708663
21
-2.8165427952755904
0
LINE
8
BLACK
6
CONTINUOUS
10
3.1675004330708663
20
-2.8165427952755904
11
3.1675565354330706
21
-2.817112716535433
0
LINE
8
BLACK
6
CONTINUOUS
10
3.1675565354330706
20
-2.817112716535433
11
3.1675571653543306
21
-2.8171157480314961
0
LINE
8
BLACK
6
CONTINUOUS
10
3.1675571653543306
20
-2.8171157480314961
11
3.1675569291338581
21
-2.8171167716535432
0
LINE
8
BLACK
6
CONTINUOUS
10
3.1675569291338581
20
-2.8171167716535432
11
3.1675571653543306
21
-2.8171188582677167
0
LINE
8
BLACK
6
CONTINUOUS
10
3.1675571653543306
20
-2.8171188582677167
11
3.1675571653543306
21
-2.8535361811023621
0
LINE
8
BLACK
6
CONTINUOUS
10
3.1675571653543306
20
-2.8535361811023621
11
3.1758529921259844
21
-2.8535361811023621
0
LINE
8
BLACK
6
CONTINUOUS
10
3.1758529921259844
20
-2.8535361811023621
11
3.1764290551181102
21
-2.8535929133858269
0
LINE
8
BLACK
6
CONTINUOUS
10
3.1764290551181102
20
-2.8535929133858269
11
3.177493464566929
21
-2.8540338188976375
0
LINE
8
BLACK
6
CONTINUOUS
10
3.177493464566929
20
-2.8540338188976375
11
3.1783081102362205
21
-2.854848464566929
0
LINE
8
BLACK
6
CONTINUOUS
10
3.1783081102362205
20
-2.854848464566929
11
3.1787490157480316
21
-2.8559128740157478
0
LINE
8
BLACK
6
CONTINUOUS
10
3.1787490157480316
20
-2.8559128740157478
11
3.1787490157480316
21
-2.857065
0
LINE
8
BLACK
6
CONTINUOUS
10
3.1787490157480316
20
-2.857065
11
3.1783081102362205
21
-2.8581294094488188
0
LINE
8
BLACK
6
CONTINUOUS
10
3.1783081102362205
20
-2.8581294094488188
11
3.177493464566929
21
-2.8589440551181102
0
LINE
8
BLACK
6
CONTINUOUS
10
3.177493464566929
20
-2.8589440551181102
11
3.1764290551181102
21
-2.8593849606299213
0
LINE
8
BLACK
6
CONTINUOUS
10
3.1764290551181102
20
-2.8593849606299213
11
3.1758529921259844
21
-2.8594416929133857
0
LINE
8
BLACK
6
CONTINUOUS
10
3.1758529921259844
20
-2.8594416929133857
11
3.1533558267716533
21
-2.8594416929133857
0
LINE
8
BLACK
6
CONTINUOUS
10
3.1533558267716533
20
-2.8594416929133857
11
3.1527797637795274
21
-2.8593849606299213
0
LINE
8
BLACK
6
CONTINUOUS
10
3.1527797637795274
20
-2.8593849606299213
11
3.1517153543307086
21
-2.8589440551181102
0
LINE
8
BLACK
6
CONTINUOUS
10
3.1517153543307086
20
-2.8589440551181102
11
3.1509007086614171
21
-2.8581294094488188
0
LINE
8
BLACK
6
CONTINUOUS
10
3.1509007086614171
20
-2.8581294094488188
11
3.1504598031496061
21
-2.857065
0
LINE
8
BLACK
6
CONTINUOUS
10
3.1504598031496061
20
-2.857065
11
3.1504598031496061
21
-2.8559128740157478
0
LINE
8
BLACK
6
CONTINUOUS
10
3.1504598031496061
20
-2.8559128740157478
11
3.1509007086614171
21
-2.854848464566929
0
LINE
8
BLACK
6
CONTINUOUS
10
3.1509007086614171
20
-2.854848464566929
11
3.1517153543307086
21
-2.8540338188976375
0
LINE
8
BLACK
6
CONTINUOUS
10
3.1517153543307086
20
-2.8540338188976375
11
3.1527797637795274
21
-2.8535929133858269
0
LINE
8
BLACK
6
CONTINUOUS
10
3.1527797637795274
20
-2.8535929133858269
11
3.1533558267716533
21
-2.8535361811023621
0
LINE
8
BLACK
6
CONTINUOUS
10
3.1533558267716533
20
-2.8535361811023621
11
3.161651653543307
21
-2.8535361811023621
0
LINE
8
BLACK
6
CONTINUOUS
10
3.161651653543307
20
-2.8535361811023621
11
3.161651653543307
21
-2.8261222047244092
0
LINE
8
BLACK
6
CONTINUOUS
10
3.161651653543307
20
-2.8261222047244092
11
3.1591932677165353
21
-2.8285805905511809
0
LINE
8
BLACK
6
CONTINUOUS
10
3.1591932677165353
20
-2.8285805905511809
11
3.1589668897637795
21
-2.8287663385826769
0
LINE
8
BLACK
6
CONTINUOUS
10
3.1589668897637795
20
-2.8287663385826769
11
3.1589157480314958
21
-2.8288253543307085
0
LINE
8
BLACK
6
CONTINUOUS
10
3.1589157480314958
20
-2.8288253543307085
11
3.1588267716535432
21
-2.8288812992125982
0
LINE
8
BLACK
6
CONTINUOUS
10
3.1588267716535432
20
-2.8288812992125982
11
3.1587458267716535
21
-2.8289477952755906
0
LINE
8
BLACK
6
CONTINUOUS
10
3.1587458267716535
20
-2.8289477952755906
11
3.1586738582677163
21
-2.8289775984251966
0
LINE
8
BLACK
6
CONTINUOUS
10
3.1586738582677163
20
-2.8289775984251966
11
3.1584258661417324
21
-2.8291337007874016
0
LINE
8
BLACK
6
CONTINUOUS
10
3.1584258661417324
20
-2.8291337007874016
11
3.1546763385826773
21
-2.8310084645669291
0
LINE
8
BLACK
6
CONTINUOUS
10
3.1546763385826773
20
-2.8310084645669291
11
3.1541357086614172
21
-2.8312153543307086
0
LINE
8
BLACK
6
CONTINUOUS
10
3.1541357086614172
20
-2.8312153543307086
11
3.1529864960629919
21
-2.8312970078740158
0
LINE
8
BLACK
6
CONTINUOUS
10
3.1529864960629919
20
-2.8312970078740158
11
3.1518935433070867
21
-2.8309326771653542
0
LINE
8
BLACK
6
CONTINUOUS
10
3.1518935433070867
20
-2.8309326771653542
11
3.1510231496062993
21
-2.8301778346456694
0
LINE
8
BLACK
6
CONTINUOUS
10
3.1510231496062993
20
-2.8301778346456694
11
3.1505079133858267
21
-2.8291473228346455
0
LINE
8
BLACK
6
CONTINUOUS
10
3.1505079133858267
20
-2.8291473228346455
11
3.1504262598425194
21
-2.8279981102362206
0
LINE
8
BLACK
6
CONTINUOUS
10
3.1504262598425194
20
-2.8279981102362206
11
3.150790590551181
21
-2.826905157480315
0
LINE
8
BLACK
6
CONTINUOUS
10
3.150790590551181
20
-2.826905157480315
11
3.1515454330708659
21
-2.8260347637795276
0
LINE
8
BLACK
6
CONTINUOUS
10
3.1515454330708659
20
-2.8260347637795276
11
3.1520353149606297
21
-2.8257264173228345
0
LINE
8
BLACK
6
CONTINUOUS
10
3.1520353149606297
20
-2.8257264173228345
11
3.1553562598425198
21
-2.8240659448818897
0
LINE
8
BLACK
6
CONTINUOUS
10
3.1553562598425198
20
-2.8240659448818897
11
3.158560157480315
21
-2.8208620472440944
0
LINE
8
BLACK
6
CONTINUOUS
10
3.158560157480315
20
-2.8208620472440944
11
3.1621475590551182
21
-2.8154809448818896
0
LINE
8
BLACK
6
CONTINUOUS
10
3.1621475590551182
20
-2.8154809448818896
11
3.1621488976377954
21
-2.8154792519685037
0
LINE
8
BLACK
6
CONTINUOUS
10
3.1621488976377954
20
-2.8154792519685037
11
3.1621492913385825
21
-2.8154783858267716
0
LINE
8
BLACK
6
CONTINUOUS
10
3.1621492913385825
20
-2.8154783858267716
11
3.1621512992125984
21
-2.8154763385826773
0
LINE
8
BLACK
6
CONTINUOUS
10
3.1621512992125984
20
-2.8154763385826773
11
3.1625143307086612
21
-2.8150331102362203
0
LINE
8
BLACK
6
CONTINUOUS
10
3.1625143307086612
20
-2.8150331102362203
11
3.1627572047244095
21
-2.8148704330708663
0
LINE
8
BLACK
6
CONTINUOUS
10
3.1627572047244095
20
-2.8148704330708663
11
3.1629639370078739
21
-2.8146637401574801
0
LINE
8
BLACK
6
CONTINUOUS
10
3.1629639370078739
20
-2.8146637401574801
11
3.1632312204724409
21
-2.814552992125984
0
LINE
8
BLACK
6
CONTINUOUS
10
3.1632312204724409
20
-2.814552992125984
11
3.1634716141732282
21
-2.8143920472440946
0
LINE
8
BLACK
6
CONTINUOUS
10
3.1634716141732282
20
-2.8143920472440946
11
3.1637582283464565
21
-2.8143346850393702
0
LINE
8
BLACK
6
CONTINUOUS
10
3.1637582283464565
20
-2.8143346850393702
11
3.1640283464566927
21
-2.814222834645669
0
LINE
8
BLACK
6
CONTINUOUS
10
3.1640283464566927
20
-2.814222834645669
11
3.1643176377952753
21
-2.814222834645669
0
LINE
8
BLACK
6
CONTINUOUS
10
3.1643176377952753
20
-2.814222834645669
11
3.1646012992125985
21
-2.8141661023622047
0
LINE
8
BLACK
6
CONTINUOUS
10
3.1646012992125985
20
-2.8141661023622047
11
3.1648880708661418
21
-2.814222834645669
0
LINE
8
BLACK
6
CONTINUOUS
10
2.9873789763779528
20
-2.6407609055118111
11
2.9884603937007874
21
-2.6412088582677167
0
LINE
8
BLACK
6
CONTINUOUS
10
2.9884603937007874
20
-2.6412088582677167
11
2.9892881102362203
21
-2.6420365748031496
0
LINE
8
BLACK
6
CONTINUOUS
10
2.9892881102362203
20
-2.6420365748031496
11
2.9897360629921259
21
-2.6431179921259842
0
LINE
8
BLACK
6
CONTINUOUS
10
2.9897360629921259
20
-2.6431179921259842
11
2.9897360629921259
21
-2.6442885433070864
0
LINE
8
BLACK
6
CONTINUOUS
10
2.9897360629921259
20
-2.6442885433070864
11
2.9892881102362203
21
-2.645369960629921
0
LINE
8
BLACK
6
CONTINUOUS
10
2.9892881102362203
20
-2.645369960629921
11
2.9884603937007874
21
-2.6461976771653544
0
LINE
8
BLACK
6
CONTINUOUS
10
2.9884603937007874
20
-2.6461976771653544
11
2.9873789763779528
21
-2.64664562992126
0
LINE
8
BLACK
6
CONTINUOUS
10
2.9873789763779528
20
-2.64664562992126
11
2.9867937007874015
21
-2.6467032677165352
0
LINE
8
BLACK
6
CONTINUOUS
10
2.9867937007874015
20
-2.6467032677165352
11
2.951818897637795
21
-2.6467032677165352
0
LINE
8
BLACK
6
CONTINUOUS
10
2.951818897637795
20
-2.6467032677165352
11
2.951818897637795
21
-2.8014132677165353
0
LINE
8
BLACK
6
CONTINUOUS
10
2.951818897637795
20
-2.8014132677165353
11
2.9517612598425198
21
-2.8019985433070866
0
LINE
8
BLACK
6
CONTINUOUS
10
2.9517612598425198
20
-2.8019985433070866
11
2.9513133070866142
21
-2.8030799606299213
0
LINE
8
BLACK
6
CONTINUOUS
10
2.9513133070866142
20
-2.8030799606299213
11
2.9504855905511809
21
-2.8039076771653542
0
LINE
8
BLACK
6
CONTINUOUS
10
2.9504855905511809
20
-2.8039076771653542
11
2.9494041732283462
21
-2.8043556299212598
0
LINE
8
BLACK
6
CONTINUOUS
10
2.9494041732283462
20
-2.8043556299212598
11
2.948233622047244
21
-2.8043556299212598
0
LINE
8
BLACK
6
CONTINUOUS
10
2.948233622047244
20
-2.8043556299212598
11
2.9471522047244094
21
-2.8039076771653542
0
LINE
8
BLACK
6
CONTINUOUS
10
2.9471522047244094
20
-2.8039076771653542
11
2.9463244881889765
21
-2.8030799606299213
0
LINE
8
BLACK
6
CONTINUOUS
10
2.9463244881889765
20
-2.8030799606299213
11
2.9458765354330709
21
-2.8019985433070866
0
LINE
8
BLACK
6
CONTINUOUS
10
2.9458765354330709
20
-2.8019985433070866
11
2.9458188976377953
21
-2.8014132677165353
0
LINE
8
BLACK
6
CONTINUOUS
10
2.9458188976377953
20
-2.8014132677165353
11
2.9458188976377953
21
-2.6437032677165355
0
LINE
8
BLACK
6
CONTINUOUS
10
2.9458188976377953
20
-2.6437032677165355
11
2.9458765354330709
21
-2.6431179921259842
0
LINE
8
BLACK
6
CONTINUOUS
10
2.9458765354330709
20
-2.6431179921259842
11
2.9463244881889765
21
-2.6420365748031496
0
LINE
8
BLACK
6
CONTINUOUS
10
2.9463244881889765
20
-2.6420365748031496
11
2.9471522047244094
21
-2.6412088582677167
0
LINE
8
BLACK
6
CONTINUOUS
10
2.9471522047244094
20
-2.6412088582677167
11
2.948233622047244
21
-2.6407609055118111
0
LINE
8
BLACK
6
CONTINUOUS
10
2.948233622047244
20
-2.6407609055118111
11
2.9488188976377954
21
-2.6407032677165354
0
LINE
8
BLACK
6
CONTINUOUS
10
2.9488188976377954
20
-2.6407032677165354
11
2.9867937007874015
21
-2.6407032677165354
0
LINE
8
BLACK
6
CONTINUOUS
10
2.9867937007874015
20
-2.6407032677165354
11
2.9873789763779528
21
-2.6407609055118111
0
LINE
8
BLACK
6
CONTINUOUS
10
3.352061653543307
20
-2.6395561811023622
11
3.3531430708661416
21
-2.6400041338582678
0
LINE
8
BLACK
6
CONTINUOUS
10
3.3531430708661416
20
-2.6400041338582678
11
3.3539707874015745
21
-2.6408318503937007
0
LINE
8
BLACK
6
CONTINUOUS
10
3.3539707874015745
20
-2.6408318503937007
11
3.3544187401574801
21
-2.6419132677165353
0
LINE
8
BLACK
6
CONTINUOUS
10
3.3544187401574801
20
-2.6419132677165353
11
3.3544763779527558
21
-2.6424985433070867
0
LINE
8
BLACK
6
CONTINUOUS
10
3.3544763779527558
20
-2.6424985433070867
11
3.3544763779527558
21
-2.8002085433070865
0
LINE
8
BLACK
6
CONTINUOUS
10
3.3544763779527558
20
-2.8002085433070865
11
3.3544187401574801
21
-2.8007938188976378
0
LINE
8
BLACK
6
CONTINUOUS
10
3.3544187401574801
20
-2.8007938188976378
11
3.3539707874015745
21
-2.8018752362204724
0
LINE
8
BLACK
6
CONTINUOUS
10
3.3539707874015745
20
-2.8018752362204724
11
3.3531430708661416
21
-2.8027029527559053
0
LINE
8
BLACK
6
CONTINUOUS
10
3.3531430708661416
20
-2.8027029527559053
11
3.352061653543307
21
-2.8031509055118109
0
LINE
8
BLACK
6
CONTINUOUS
10
3.352061653543307
20
-2.8031509055118109
11
3.3508911023622048
21
-2.8031509055118109
0
LINE
8
BLACK
6
CONTINUOUS
10
3.3508911023622048
20
-2.8031509055118109
11
3.3498096850393702
21
-2.8027029527559053
0
LINE
8
BLACK
6
CONTINUOUS
10
3.3498096850393702
20
-2.8027029527559053
11
3.3489819685039368
21
-2.8018752362204724
0
LINE
8
BLACK
6
CONTINUOUS
10
3.3489819685039368
20
-2.8018752362204724
11
3.3485340157480312
21
-2.8007938188976378
0
LINE
8
BLACK
6
CONTINUOUS
10
3.3485340157480312
20
-2.8007938188976378
11
3.348476377952756
21
-2.8002085433070865
0
LINE
8
BLACK
6
CONTINUOUS
10
3.348476377952756
20
-2.8002085433070865
11
3.348476377952756
21
-2.6454985433070863
0
LINE
8
BLACK
6
CONTINUOUS
10
3.348476377952756
20
-2.6454985433070863
11
3.3135015748031496
21
-2.6454985433070863
0
LINE
8
BLACK
6
CONTINUOUS
10
3.3135015748031496
20
-2.6454985433070863
11
3.3129162992125982
21
-2.6454409055118111
0
LINE
8
BLACK
6
CONTINUOUS
10
3.3129162992125982
20
-2.6454409055118111
11
3.3118348818897636
21
-2.6449929527559055
0
LINE
8
BLACK
6
CONTINUOUS
10
3.3118348818897636
20
-2.6449929527559055
11
3.3110071653543307
21
-2.6441652362204722
0
LINE
8
BLACK
6
CONTINUOUS
10
3.3110071653543307
20
-2.6441652362204722
11
3.3105592125984251
21
-2.6430838188976375
0
LINE
8
BLACK
6
CONTINUOUS
10
3.3105592125984251
20
-2.6430838188976375
11
3.3105592125984251
21
-2.6419132677165353
0
LINE
8
BLACK
6
CONTINUOUS
10
3.3105592125984251
20
-2.6419132677165353
11
3.3110071653543307
21
-2.6408318503937007
0
LINE
8
BLACK
6
CONTINUOUS
10
3.3110071653543307
20
-2.6408318503937007
11
3.3118348818897636
21
-2.6400041338582678
0
LINE
8
BLACK
6
CONTINUOUS
10
3.3118348818897636
20
-2.6400041338582678
11
3.3129162992125982
21
-2.6395561811023622
0
LINE
8
BLACK
6
CONTINUOUS
10
3.3129162992125982
20
-2.6395561811023622
11
3.3135015748031496
21
-2.6394985433070866
0
LINE
8
BLACK
6
CONTINUOUS
10
3.3135015748031496
20
-2.6394985433070866
11
3.3514763779527557
21
-2.6394985433070866
0
LINE
8
BLACK
6
CONTINUOUS
10
3.3514763779527557
20
-2.6394985433070866
11
3.352061653543307
21
-2.6395561811023622
0
LINE
8
BLACK
6
CONTINUOUS
10
2.783787716535433
20
-2.7313061023622045
11
2.7838305905511809
21
-2.7312918503937009
0
LINE
8
BLACK
6
CONTINUOUS
10
2.7838305905511809
20
-2.7312918503937009
11
2.7841348031496063
21
-2.7313751574803149
0
LINE
8
BLACK
6
CONTINUOUS
10
2.7841348031496063
20
-2.7313751574803149
11
2.7844443307086615
21
-2.7314367322834645
0
LINE
8
BLACK
6
CONTINUOUS
10
2.7844443307086615
20
-2.7314367322834645
11
2.7844762598425197
21
-2.7314686614173227
0
LINE
8
BLACK
6
CONTINUOUS
10
2.7844762598425197
20
-2.7314686614173227
11
2.7845713779527559
21
-2.731494724409449
0
LINE
8
BLACK
6
CONTINUOUS
10
2.7845713779527559
20
-2.731494724409449
11
2.7883208661417322
21
-2.7333694488188978
0
LINE
8
BLACK
6
CONTINUOUS
10
2.7883208661417322
20
-2.7333694488188978
11
2.7885701968503938
21
-2.7335629527559053
0
LINE
8
BLACK
6
CONTINUOUS
10
2.7885701968503938
20
-2.7335629527559053
11
2.7888324803149604
21
-2.7337382283464566
0
LINE
8
BLACK
6
CONTINUOUS
10
2.7888324803149604
20
-2.7337382283464566
11
2.790707244094488
21
-2.7356129527559054
0
LINE
8
BLACK
6
CONTINUOUS
10
2.790707244094488
20
-2.7356129527559054
11
2.7908825984251968
21
-2.7358753937007871
0
LINE
8
BLACK
6
CONTINUOUS
10
2.7908825984251968
20
-2.7358753937007871
11
2.7910759842519686
21
-2.7361245669291336
0
LINE
8
BLACK
6
CONTINUOUS
10
2.7910759842519686
20
-2.7361245669291336
11
2.7929507480314961
21
-2.7398740944881887
0
LINE
8
BLACK
6
CONTINUOUS
10
2.7929507480314961
20
-2.7398740944881887
11
2.7929767716535432
21
-2.7399691732283462
0
LINE
8
BLACK
6
CONTINUOUS
10
2.7929767716535432
20
-2.7399691732283462
11
2.7930087401574801
21
-2.7400011417322836
0
LINE
8
BLACK
6
CONTINUOUS
10
2.7930087401574801
20
-2.7400011417322836
11
2.793070275590551
21
-2.7403106299212596
0
LINE
8
BLACK
6
CONTINUOUS
10
2.793070275590551
20
-2.7403106299212596
11
2.7931536220472442
21
-2.7406148818897638
0
LINE
8
BLACK
6
CONTINUOUS
10
2.7931536220472442
20
-2.7406148818897638
11
2.7931393307086614
21
-2.7406577165354329
0
LINE
8
BLACK
6
CONTINUOUS
10
2.7931393307086614
20
-2.7406577165354329
11
2.7931585826771652
21
-2.7407544488188975
0
LINE
8
BLACK
6
CONTINUOUS
10
2.7931585826771652
20
-2.7407544488188975
11
2.7931585826771652
21
-2.7425979133858269
0
LINE
8
BLACK
6
CONTINUOUS
10
2.7931585826771652
20
-2.7425979133858269
11
2.8088088976377952
21
-2.7316427165354331
0
LINE
8
BLACK
6
CONTINUOUS
10
2.8088088976377952
20
-2.7316427165354331
11
2.8095119685039371
21
-2.7313335039370079
0
LINE
8
BLACK
6
CONTINUOUS
10
2.8095119685039371
20
-2.7313335039370079
11
2.8109956692913385
21
-2.73159531496063
0
LINE
8
BLACK
6
CONTINUOUS
10
2.8109956692913385
20
-2.73159531496063
11
2.8118596456692915
21
-2.7328296062992123
0
LINE
8
BLACK
6
CONTINUOUS
10
2.8118596456692915
20
-2.7328296062992123
11
2.8115978346456694
21
-2.7343133070866141
0
LINE
8
BLACK
6
CONTINUOUS
10
2.8115978346456694
20
-2.7343133070866141
11
2.8110666141732281
21
-2.7348680708661415
0
LINE
8
BLACK
6
CONTINUOUS
10
2.8110666141732281
20
-2.7348680708661415
11
2.7931585826771652
21
-2.747403661417323
0
LINE
8
BLACK
6
CONTINUOUS
10
2.7931585826771652
20
-2.747403661417323
11
2.7931585826771652
21
-2.7537840551181101
0
LINE
8
BLACK
6
CONTINUOUS
10
2.7931585826771652
20
-2.7537840551181101
11
2.8099377559055116
21
-2.7537840551181101
0
LINE
8
BLACK
6
CONTINUOUS
10
2.8099377559055116
20
-2.7537840551181101
11
2.810691062992126
21
-2.7539338976377952
0
LINE
8
BLACK
6
CONTINUOUS
10
2.810691062992126
20
-2.7539338976377952
11
2.8117564173228344
21
-2.754999251968504
0
LINE
8
BLACK
6
CONTINUOUS
10
2.8117564173228344
20
-2.754999251968504
11
2.8117564173228344
21
-2.7565058661417323
0
LINE
8
BLACK
6
CONTINUOUS
10
2.8117564173228344
20
-2.7565058661417323
11
2.810691062992126
21
-2.7575712204724407
0
LINE
8
BLACK
6
CONTINUOUS
10
2.810691062992126
20
-2.7575712204724407
11
2.8099377559055116
21
-2.7577210629921258
0
LINE
8
BLACK
6
CONTINUOUS
10
2.8099377559055116
20
-2.7577210629921258
11
2.7705676771653542
21
-2.7577210629921258
0
LINE
8
BLACK
6
CONTINUOUS
10
2.7705676771653542
20
-2.7577210629921258
11
2.7698143700787399
21
-2.7575712204724407
0
LINE
8
BLACK
6
CONTINUOUS
10
2.7698143700787399
20
-2.7575712204724407
11
2.7687490157480315
21
-2.7565058661417323
0
LINE
8
BLACK
6
CONTINUOUS
10
2.7687490157480315
20
-2.7565058661417323
11
2.7685991732283464
21
-2.755752559055118
0
LINE
8
BLACK
6
CONTINUOUS
10
2.7685991732283464
20
-2.755752559055118
11
2.7685991732283464
21
-2.7407544488188975
0
LINE
8
BLACK
6
CONTINUOUS
10
2.7685991732283464
20
-2.7407544488188975
11
2.7686183858267714
21
-2.7406577165354329
0
LINE
8
BLACK
6
CONTINUOUS
10
2.7686183858267714
20
-2.7406577165354329
11
2.7686041338582679
21
-2.7406148818897638
0
LINE
8
BLACK
6
CONTINUOUS
10
2.7686041338582679
20
-2.7406148818897638
11
2.7686874409448818
21
-2.7403106299212596
0
LINE
8
BLACK
6
CONTINUOUS
10
2.7686874409448818
20
-2.7403106299212596
11
2.7687490157480315
21
-2.7400011417322836
0
LINE
8
BLACK
6
CONTINUOUS
10
2.7687490157480315
20
-2.7400011417322836
11
2.7687809448818896
21
-2.7399691732283462
0
LINE
8
BLACK
6
CONTINUOUS
10
2.7687809448818896
20
-2.7399691732283462
11
2.7688070078740159
21
-2.7398740944881887
0
LINE
8
BLACK
6
CONTINUOUS
10
2.7688070078740159
20
-2.7398740944881887
11
2.7706817322834647
21
-2.7361246062992124
0
LINE
8
BLACK
6
CONTINUOUS
10
2.7706817322834647
20
-2.7361246062992124
11
2.7708752362204723
21
-2.7358752362204726
0
LINE
8
BLACK
6
CONTINUOUS
10
2.7708752362204723
20
-2.7358752362204726
11
2.7710505118110236
21
-2.7356129921259842
0
LINE
8
BLACK
6
CONTINUOUS
10
2.7710505118110236
20
-2.7356129921259842
11
2.7729252362204724
21
-2.7337382283464566
0
LINE
8
BLACK
6
CONTINUOUS
10
2.7729252362204724
20
-2.7337382283464566
11
2.7731876771653541
21
-2.7335628346456691
0
LINE
8
BLACK
6
CONTINUOUS
10
2.7731876771653541
20
-2.7335628346456691
11
2.7734368503937006
21
-2.7333694881889765
0
LINE
8
BLACK
6
CONTINUOUS
10
2.7734368503937006
20
-2.7333694881889765
11
2.7771863779527557
21
-2.731494724409449
0
LINE
8
BLACK
6
CONTINUOUS
10
2.7771863779527557
20
-2.731494724409449
11
2.7772814566929132
21
-2.7314686614173227
0
LINE
8
BLACK
6
CONTINUOUS
10
2.7772814566929132
20
-2.7314686614173227
11
2.7773134251968505
21
-2.7314367322834645
0
LINE
8
BLACK
6
CONTINUOUS
10
2.7773134251968505
20
-2.7314367322834645
11
2.7776229133858266
21
-2.7313751574803149
0
LINE
8
BLACK
6
CONTINUOUS
10
2.7776229133858266
20
-2.7313751574803149
11
2.7779271653543307
21
-2.7312918503937009
0
LINE
8
BLACK
6
CONTINUOUS
10
2.7779271653543307
20
-2.7312918503937009
11
2.7779699999999998
21
-2.7313061023622045
0
LINE
8
BLACK
6
CONTINUOUS
10
2.7779699999999998
20
-2.7313061023622045
11
2.7780667322834645
21
-2.7312868897637794
0
LINE
8
BLACK
6
CONTINUOUS
10
2.7780667322834645
20
-2.7312868897637794
11
2.7836910236220471
21
-2.7312868897637794
0
LINE
8
BLACK
6
CONTINUOUS
10
2.7836910236220471
20
-2.7312868897637794
11
2.783787716535433
21
-2.7313061023622045
0
LINE
8
BLACK
6
CONTINUOUS
10
2.7754832677165355
20
-2.7367479527559055
11
2.7740602362204725
21
-2.7381709448818898
0
LINE
8
BLACK
6
CONTINUOUS
10
2.7740602362204725
20
-2.7381709448818898
11
2.7725361811023621
21
-2.7412191338582677
0
LINE
8
BLACK
6
CONTINUOUS
10
2.7725361811023621
20
-2.7412191338582677
11
2.7725361811023621
21
-2.7537840551181101
0
LINE
8
BLACK
6
CONTINUOUS
10
2.7725361811023621
20
-2.7537840551181101
11
2.7892215748031495
21
-2.7537840551181101
0
LINE
8
BLACK
6
CONTINUOUS
10
2.7892215748031495
20
-2.7537840551181101
11
2.7892215748031495
21
-2.7412191338582677
0
LINE
8
BLACK
6
CONTINUOUS
10
2.7892215748031495
20
-2.7412191338582677
11
2.7876974803149608
21
-2.7381709842519686
0
LINE
8
BLACK
6
CONTINUOUS
10
2.7876974803149608
20
-2.7381709842519686
11
2.7862744881889765
21
-2.7367479527559055
0
LINE
8
BLACK
6
CONTINUOUS
10
2.7862744881889765
20
-2.7367479527559055
11
2.783226338582677
21
-2.7352238976377952
0
LINE
8
BLACK
6
CONTINUOUS
10
2.783226338582677
20
-2.7352238976377952
11
2.7785314566929133
21
-2.7352238976377952
0
LINE
8
BLACK
6
CONTINUOUS
10
2.7785314566929133
20
-2.7352238976377952
11
2.7754832677165355
21
-2.7367479527559055
0
LINE
8
BLACK
6
CONTINUOUS
10
3.2946587007874015
20
-2.6985199212598423
11
3.2991864960629922
21
-2.7003953937007874
0
LINE
8
BLACK
6
CONTINUOUS
10
3.2991864960629922
20
-2.7003953937007874
11
3.3032614173228345
21
-2.7031181496062993
0
LINE
8
BLACK
6
CONTINUOUS
10
3.3032614173228345
20
-2.7031181496062993
11
3.3067268503937006
21
-2.7065835826771654
0
LINE
8
BLACK
6
CONTINUOUS
10
3.3067268503937006
20
-2.7065835826771654
11
3.3094496062992125
21
-2.7106585039370077
0
LINE
8
BLACK
6
CONTINUOUS
10
3.3094496062992125
20
-2.7106585039370077
11
3.3113250787401576
21
-2.7151862992125984
0
LINE
8
BLACK
6
CONTINUOUS
10
3.3113250787401576
20
-2.7151862992125984
11
3.312281181102362
21
-2.719992992125984
0
LINE
8
BLACK
6
CONTINUOUS
10
3.312281181102362
20
-2.719992992125984
11
3.312281181102362
21
-2.7248938582677167
0
LINE
8
BLACK
6
CONTINUOUS
10
3.312281181102362
20
-2.7248938582677167
11
3.3113250787401576
21
-2.7297005511811023
0
LINE
8
BLACK
6
CONTINUOUS
10
3.3113250787401576
20
-2.7297005511811023
11
3.3094496062992125
21
-2.734228346456693
0
LINE
8
BLACK
6
CONTINUOUS
10
3.3094496062992125
20
-2.734228346456693
11
3.3067268503937006
21
-2.7383032677165353
0
LINE
8
BLACK
6
CONTINUOUS
10
3.3067268503937006
20
-2.7383032677165353
11
3.3032614173228345
21
-2.7417687007874014
0
LINE
8
BLACK
6
CONTINUOUS
10
3.3032614173228345
20
-2.7417687007874014
11
3.2991864960629922
21
-2.7444914566929133
0
LINE
8
BLACK
6
CONTINUOUS
10
3.2991864960629922
20
-2.7444914566929133
11
3.2946587007874015
21
-2.7463669291338584
0
LINE
8
BLACK
6
CONTINUOUS
10
3.2946587007874015
20
-2.7463669291338584
11
3.2898520078740159
21
-2.7473230314960628
0
LINE
8
BLACK
6
CONTINUOUS
10
3.2898520078740159
20
-2.7473230314960628
11
3.2849511417322832
21
-2.7473230314960628
0
LINE
8
BLACK
6
CONTINUOUS
10
3.2849511417322832
20
-2.7473230314960628
11
3.2801444488188976
21
-2.7463669291338584
0
LINE
8
BLACK
6
CONTINUOUS
10
3.2801444488188976
20
-2.7463669291338584
11
3.2756166535433069
21
-2.7444914566929133
0
LINE
8
BLACK
6
CONTINUOUS
10
3.2756166535433069
20
-2.7444914566929133
11
3.2715417322834646
21
-2.7417687007874014
0
LINE
8
BLACK
6
CONTINUOUS
10
3.2715417322834646
20
-2.7417687007874014
11
3.2680762992125985
21
-2.7383032677165353
0
LINE
8
BLACK
6
CONTINUOUS
10
3.2680762992125985
20
-2.7383032677165353
11
3.2653535433070866
21
-2.734228346456693
0
LINE
8
BLACK
6
CONTINUOUS
10
3.2653535433070866
20
-2.734228346456693
11
3.2634780708661415
21
-2.7297005511811023
0
LINE
8
BLACK
6
CONTINUOUS
10
3.2634780708661415
20
-2.7297005511811023
11
3.2625219685039371
21
-2.7248938582677167
0
LINE
8
BLACK
6
CONTINUOUS
10
3.2625219685039371
20
-2.7248938582677167
11
3.2625219685039371
21
-2.7214488582677165
0
LINE
8
BLACK
6
CONTINUOUS
10
3.2625219685039371
20
-2.7214488582677165
11
3.2625219685039371
21
-2.719992992125984
0
LINE
8
BLACK
6
CONTINUOUS
10
3.2625219685039371
20
-2.719992992125984
11
3.2634780708661415
21
-2.7151862992125984
0
LINE
8
BLACK
6
CONTINUOUS
10
3.2634780708661415
20
-2.7151862992125984
11
3.2653535433070866
21
-2.7106585039370077
0
LINE
8
BLACK
6
CONTINUOUS
10
3.2653535433070866
20
-2.7106585039370077
11
3.2680762992125985
21
-2.7065835826771654
0
LINE
8
BLACK
6
CONTINUOUS
10
3.2680762992125985
20
-2.7065835826771654
11
3.2715417322834646
21
-2.7031181496062993
0
LINE
8
BLACK
6
CONTINUOUS
10
3.2715417322834646
20
-2.7031181496062993
11
3.2756166535433069
21
-2.7003953937007874
0
LINE
8
BLACK
6
CONTINUOUS
10
3.2756166535433069
20
-2.7003953937007874
11
3.2801444488188976
21
-2.6985199212598423
0
LINE
8
BLACK
6
CONTINUOUS
10
3.2801444488188976
20
-2.6985199212598423
11
3.2849511417322832
21
-2.6975638188976379
0
LINE
8
BLACK
6
CONTINUOUS
10
3.2849511417322832
20
-2.6975638188976379
11
3.2898520078740159
21
-2.6975638188976379
0
LINE
8
BLACK
6
CONTINUOUS
10
3.2898520078740159
20
-2.6975638188976379
11
3.2946587007874015
21
-2.6985199212598423
0
LINE
8
BLACK
6
CONTINUOUS
10
3.2824015748031496
20
-2.7234379921259841
11
3.2831627952755906
21
-2.7252757086614174
0
LINE
8
BLACK
6
CONTINUOUS
10
3.2831627952755906
20
-2.7252757086614174
11
3.2845692913385824
21
-2.7266822047244093
0
LINE
8
BLACK
6
CONTINUOUS
10
3.2845692913385824
20
-2.7266822047244093
11
3.2864070078740157
21
-2.7274434251968502
0
LINE
8
BLACK
6
CONTINUOUS
10
3.2864070078740157
20
-2.7274434251968502
11
3.2883961417322833
21
-2.7274434251968502
0
LINE
8
BLACK
6
CONTINUOUS
10
3.2883961417322833
20
-2.7274434251968502
11
3.2902338582677166
21
-2.7266822047244093
0
LINE
8
BLACK
6
CONTINUOUS
10
3.2902338582677166
20
-2.7266822047244093
11
3.2916403543307085
21
-2.7252757086614174
0
LINE
8
BLACK
6
CONTINUOUS
10
3.2916403543307085
20
-2.7252757086614174
11
3.2924015748031494
21
-2.7234379921259841
0
LINE
8
BLACK
6
CONTINUOUS
10
3.2924015748031494
20
-2.7234379921259841
11
3.2924015748031494
21
-2.7214488582677165
0
LINE
8
BLACK
6
CONTINUOUS
10
3.2924015748031494
20
-2.7214488582677165
11
3.2916403543307085
21
-2.7196111417322832
0
LINE
8
BLACK
6
CONTINUOUS
10
3.2916403543307085
20
-2.7196111417322832
11
3.2902338582677166
21
-2.7182046456692914
0
LINE
8
BLACK
6
CONTINUOUS
10
3.2902338582677166
20
-2.7182046456692914
11
3.2883961417322833
21
-2.7174434251968504
0
LINE
8
BLACK
6
CONTINUOUS
10
3.2883961417322833
20
-2.7174434251968504
11
3.2864070078740157
21
-2.7174434251968504
0
LINE
8
BLACK
6
CONTINUOUS
10
3.2864070078740157
20
-2.7174434251968504
11
3.2845692913385824
21
-2.7182046456692914
0
LINE
8
BLACK
6
CONTINUOUS
10
3.2845692913385824
20
-2.7182046456692914
11
3.2831627952755906
21
-2.7196111417322832
0
LINE
8
BLACK
6
CONTINUOUS
10
3.2831627952755906
20
-2.7196111417322832
11
3.2824015748031496
21
-2.7214488582677165
0
LINE
8
BLACK
6
CONTINUOUS
10
3.2824015748031496
20
-2.7214488582677165
11
3.2824015748031496
21
-2.7234379921259841
0
LINE
8
BLACK
6
CONTINUOUS
10
2.772386338582677
20
-2.6987562992125982
11
2.7725361811023621
21
-2.6995096062992125
0
LINE
8
BLACK
6
CONTINUOUS
10
2.7725361811023621
20
-2.6995096062992125
11
2.7725361811023621
21
-2.70878968503937
0
LINE
8
BLACK
6
CONTINUOUS
10
2.7725361811023621
20
-2.70878968503937
11
2.8099377559055116
21
-2.70878968503937
0
LINE
8
BLACK
6
CONTINUOUS
10
2.8099377559055116
20
-2.70878968503937
11
2.810691062992126
21
-2.7089395275590551
0
LINE
8
BLACK
6
CONTINUOUS
10
2.810691062992126
20
-2.7089395275590551
11
2.8117564173228344
21
-2.7100048818897635
0
LINE
8
BLACK
6
CONTINUOUS
10
2.8117564173228344
20
-2.7100048818897635
11
2.8117564173228344
21
-2.7115114960629922
0
LINE
8
BLACK
6
CONTINUOUS
10
2.8117564173228344
20
-2.7115114960629922
11
2.810691062992126
21
-2.7125768503937007
0
LINE
8
BLACK
6
CONTINUOUS
10
2.810691062992126
20
-2.7125768503937007
11
2.8099377559055116
21
-2.7127266929133858
0
LINE
8
BLACK
6
CONTINUOUS
10
2.8099377559055116
20
-2.7127266929133858
11
2.7725361811023621
21
-2.7127266929133858
0
LINE
8
BLACK
6
CONTINUOUS
10
2.7725361811023621
20
-2.7127266929133858
11
2.7725361811023621
21
-2.7220067716535432
0
LINE
8
BLACK
6
CONTINUOUS
10
2.7725361811023621
20
-2.7220067716535432
11
2.772386338582677
21
-2.7227600787401576
0
LINE
8
BLACK
6
CONTINUOUS
10
2.772386338582677
20
-2.7227600787401576
11
2.7713209842519686
21
-2.723825433070866
0
LINE
8
BLACK
6
CONTINUOUS
10
2.7713209842519686
20
-2.723825433070866
11
2.7698143700787399
21
-2.723825433070866
0
LINE
8
BLACK
6
CONTINUOUS
10
2.7698143700787399
20
-2.723825433070866
11
2.7687490157480315
21
-2.7227600787401576
0
LINE
8
BLACK
6
CONTINUOUS
10
2.7687490157480315
20
-2.7227600787401576
11
2.7685991732283464
21
-2.7220067716535432
0
LINE
8
BLACK
6
CONTINUOUS
10
2.7685991732283464
20
-2.7220067716535432
11
2.7685991732283464
21
-2.6995096062992125
0
LINE
8
BLACK
6
CONTINUOUS
10
2.7685991732283464
20
-2.6995096062992125
11
2.7687490157480315
21
-2.6987562992125982
0
LINE
8
BLACK
6
CONTINUOUS
10
2.7687490157480315
20
-2.6987562992125982
11
2.7698143700787399
21
-2.6976909448818898
0
LINE
8
BLACK
6
CONTINUOUS
10
2.7698143700787399
20
-2.6976909448818898
11
2.7713209842519686
21
-2.6976909448818898
0
LINE
8
BLACK
6
CONTINUOUS
10
2.7713209842519686
20
-2.6976909448818898
11
2.772386338582677
21
-2.6987562992125982
0
LINE
8
BLACK
6
CONTINUOUS
10
2.7970509448818897
20
-2.6600928346456691
11
2.797291811023622
21
-2.6601045669291339
0
LINE
8
BLACK
6
CONTINUOUS
10
2.797291811023622
20
-2.6601045669291339
11
2.8047908661417322
21
-2.6619793307086614
0
LINE
8
BLACK
6
CONTINUOUS
10
2.8047908661417322
20
-2.6619793307086614
11
2.8049836220472439
21
-2.6620703937007875
0
LINE
8
BLACK
6
CONTINUOUS
10
2.8049836220472439
20
-2.6620703937007875
11
2.8050667322834646
21
-2.6620703937007875
0
LINE
8
BLACK
6
CONTINUOUS
10
2.8050667322834646
20
-2.6620703937007875
11
2.8052673228346454
21
-2.6622044094488189
0
LINE
8
BLACK
6
CONTINUOUS
10
2.8052673228346454
20
-2.6622044094488189
11
2.80548531496063
21
-2.6623074015748029
0
LINE
8
BLACK
6
CONTINUOUS
10
2.80548531496063
20
-2.6623074015748029
11
2.8055280314960629
21
-2.6623785826771651
0
LINE
8
BLACK
6
CONTINUOUS
10
2.8055280314960629
20
-2.6623785826771651
11
2.8057053543307084
21
-2.6624970866141733
0
LINE
8
BLACK
6
CONTINUOUS
10
2.8057053543307084
20
-2.6624970866141733
11
2.8094549212598423
21
-2.6662466535433071
0
LINE
8
BLACK
6
CONTINUOUS
10
2.8094549212598423
20
-2.6662466535433071
11
2.8096301181102361
21
-2.6665088188976376
0
LINE
8
BLACK
6
CONTINUOUS
10
2.8096301181102361
20
-2.6665088188976376
11
2.8098236614173229
21
-2.6667582283464566
0
LINE
8
BLACK
6
CONTINUOUS
10
2.8098236614173229
20
-2.6667582283464566
11
2.8116984251968504
21
-2.6705077559055117
0
LINE
8
BLACK
6
CONTINUOUS
10
2.8116984251968504
20
-2.6705077559055117
11
2.8117244488188975
21
-2.6706028346456692
0
LINE
8
BLACK
6
CONTINUOUS
10
2.8117244488188975
20
-2.6706028346456692
11
2.8117564173228344
21
-2.6706348031496061
0
LINE
8
BLACK
6
CONTINUOUS
10
2.8117564173228344
20
-2.6706348031496061
11
2.8118179527559053
21
-2.6709442913385826
0
LINE
8
BLACK
6
CONTINUOUS
10
2.8118179527559053
20
-2.6709442913385826
11
2.8119012992125985
21
-2.6712485433070867
0
LINE
8
BLACK
6
CONTINUOUS
10
2.8119012992125985
20
-2.6712485433070867
11
2.8118870078740157
21
-2.6712913779527558
0
LINE
8
BLACK
6
CONTINUOUS
10
2.8118870078740157
20
-2.6712913779527558
11
2.8119062598425195
21
-2.6713881102362205
0
LINE
8
BLACK
6
CONTINUOUS
10
2.8119062598425195
20
-2.6713881102362205
11
2.8119062598425195
21
-2.6788871653543307
0
LINE
8
BLACK
6
CONTINUOUS
10
2.8119062598425195
20
-2.6788871653543307
11
2.8118870078740157
21
-2.6789838582677166
0
LINE
8
BLACK
6
CONTINUOUS
10
2.8118870078740157
20
-2.6789838582677166
11
2.8119012992125985
21
-2.6790267322834644
0
LINE
8
BLACK
6
CONTINUOUS
10
2.8119012992125985
20
-2.6790267322834644
11
2.8118179527559053
21
-2.6793309448818898
0
LINE
8
BLACK
6
CONTINUOUS
10
2.8118179527559053
20
-2.6793309448818898
11
2.8117564173228344
21
-2.6796404724409446
0
LINE
8
BLACK
6
CONTINUOUS
10
2.8117564173228344
20
-2.6796404724409446
11
2.8117244488188975
21
-2.6796724015748032
0
LINE
8
BLACK
6
CONTINUOUS
10
2.8117244488188975
20
-2.6796724015748032
11
2.8116984251968504
21
-2.6797675196850395
0
LINE
8
BLACK
6
CONTINUOUS
10
2.8116984251968504
20
-2.6797675196850395
11
2.8098236614173229
21
-2.6835170472440946
0
LINE
8
BLACK
6
CONTINUOUS
10
2.8098236614173229
20
-2.6835170472440946
11
2.8096301181102361
21
-2.6837664173228344
0
LINE
8
BLACK
6
CONTINUOUS
10
2.8096301181102361
20
-2.6837664173228344
11
2.8094549212598423
21
-2.684028622047244
0
LINE
8
BLACK
6
CONTINUOUS
10
2.8094549212598423
20
-2.684028622047244
11
2.8057053543307084
21
-2.6877781889763779
0
LINE
8
BLACK
6
CONTINUOUS
10
2.8057053543307084
20
-2.6877781889763779
11
2.8055280314960629
21
-2.6878966535433069
0
LINE
8
BLACK
6
CONTINUOUS
10
2.8055280314960629
20
-2.6878966535433069
11
2.80548531496063
21
-2.6879678740157478
0
LINE
8
BLACK
6
CONTINUOUS
10
2.80548531496063
20
-2.6879678740157478
11
2.8052673228346454
21
-2.6880708267716535
0
LINE
8
BLACK
6
CONTINUOUS
10
2.8052673228346454
20
-2.6880708267716535
11
2.8050667322834646
21
-2.6882048818897637
0
LINE
8
BLACK
6
CONTINUOUS
10
2.8050667322834646
20
-2.6882048818897637
11
2.8049836220472439
21
-2.6882048818897637
0
LINE
8
BLACK
6
CONTINUOUS
10
2.8049836220472439
20
-2.6882048818897637
11
2.8047908661417322
21
-2.6882959448818897
0
LINE
8
BLACK
6
CONTINUOUS
10
2.8047908661417322
20
-2.6882959448818897
11
2.797291811023622
21
-2.6901707086614173
0
LINE
8
BLACK
6
CONTINUOUS
10
2.797291811023622
20
-2.6901707086614173
11
2.7970509448818897
21
-2.6901824015748033
0
LINE
8
BLACK
6
CONTINUOUS
10
2.7970509448818897
20
-2.6901824015748033
11
2.79681437007874
21
-2.6902294881889763
0
LINE
8
BLACK
6
CONTINUOUS
10
2.79681437007874
20
-2.6902294881889763
11
2.7836910236220471
21
-2.6902294881889763
0
LINE
8
BLACK
6
CONTINUOUS
10
2.7836910236220471
20
-2.6902294881889763
11
2.7834544094488187
21
-2.6901824015748033
0
LINE
8
BLACK
6
CONTINUOUS
10
2.7834544094488187
20
-2.6901824015748033
11
2.7832135826771651
21
-2.6901707086614173
0
LINE
8
BLACK
6
CONTINUOUS
10
2.7832135826771651
20
-2.6901707086614173
11
2.7757145275590549
21
-2.6882959448818897
0
LINE
8
BLACK
6
CONTINUOUS
10
2.7757145275590549
20
-2.6882959448818897
11
2.7755217716535432
21
-2.6882048818897637
0
LINE
8
BLACK
6
CONTINUOUS
10
2.7755217716535432
20
-2.6882048818897637
11
2.775438661417323
21
-2.6882048818897637
0
LINE
8
BLACK
6
CONTINUOUS
10
2.775438661417323
20
-2.6882048818897637
11
2.7752381102362205
21
-2.6880708661417323
0
LINE
8
BLACK
6
CONTINUOUS
10
2.7752381102362205
20
-2.6880708661417323
11
2.7750200787401575
21
-2.6879678740157478
0
LINE
8
BLACK
6
CONTINUOUS
10
2.7750200787401575
20
-2.6879678740157478
11
2.7749772834645667
21
-2.6878965748031494
0
LINE
8
BLACK
6
CONTINUOUS
10
2.7749772834645667
20
-2.6878965748031494
11
2.7748000393700787
21
-2.6877781496062991
0
LINE
8
BLACK
6
CONTINUOUS
10
2.7748000393700787
20
-2.6877781496062991
11
2.7710505118110236
21
-2.684028622047244
0
LINE
8
BLACK
6
CONTINUOUS
10
2.7710505118110236
20
-2.684028622047244
11
2.7708752362204723
21
-2.6837663385826773
0
LINE
8
BLACK
6
CONTINUOUS
10
2.7708752362204723
20
-2.6837663385826773
11
2.7706817322834647
21
-2.6835170078740158
0
LINE
8
BLACK
6
CONTINUOUS
10
2.7706817322834647
20
-2.6835170078740158
11
2.7688070078740159
21
-2.6797675196850395
0
LINE
8
BLACK
6
CONTINUOUS
10
2.7688070078740159
20
-2.6797675196850395
11
2.7687809448818896
21
-2.6796724015748032
0
LINE
8
BLACK
6
CONTINUOUS
10
2.7687809448818896
20
-2.6796724015748032
11
2.7687490157480315
21
-2.6796404724409446
0
LINE
8
BLACK
6
CONTINUOUS
10
2.7687490157480315
20
-2.6796404724409446
11
2.7686874409448818
21
-2.6793309448818898
0
LINE
8
BLACK
6
CONTINUOUS
10
2.7686874409448818
20
-2.6793309448818898
11
2.7686041338582679
21
-2.6790267322834644
0
LINE
8
BLACK
6
CONTINUOUS
10
2.7686041338582679
20
-2.6790267322834644
11
2.7686183858267714
21
-2.6789838582677166
0
LINE
8
BLACK
6
CONTINUOUS
10
2.7686183858267714
20
-2.6789838582677166
11
2.7685991732283464
21
-2.6788871653543307
0
LINE
8
BLACK
6
CONTINUOUS
10
2.7685991732283464
20
-2.6788871653543307
11
2.7685991732283464
21
-2.6713881102362205
0
LINE
8
BLACK
6
CONTINUOUS
10
2.7685991732283464
20
-2.6713881102362205
11
2.7686183858267714
21
-2.6712913779527558
0
LINE
8
BLACK
6
CONTINUOUS
10
2.7686183858267714
20
-2.6712913779527558
11
2.7686041338582679
21
-2.6712485433070867
0
LINE
8
BLACK
6
CONTINUOUS
10
2.7686041338582679
20
-2.6712485433070867
11
2.7686874409448818
21
-2.6709442913385826
0
LINE
8
BLACK
6
CONTINUOUS
10
2.7686874409448818
20
-2.6709442913385826
11
2.7687490157480315
21
-2.6706348031496061
0
LINE
8
BLACK
6
CONTINUOUS
10
2.7687490157480315
20
-2.6706348031496061
11
2.7687809448818896
21
-2.6706028346456692
0
LINE
8
BLACK
6
CONTINUOUS
10
2.7687809448818896
20
-2.6706028346456692
11
2.7688070078740159
21
-2.6705077559055117
0
LINE
8
BLACK
6
CONTINUOUS
10
2.7688070078740159
20
-2.6705077559055117
11
2.7706817322834647
21
-2.6667582677165353
0
LINE
8
BLACK
6
CONTINUOUS
10
2.7706817322834647
20
-2.6667582677165353
11
2.7708752362204723
21
-2.6665088976377951
0
LINE
8
BLACK
6
CONTINUOUS
10
2.7708752362204723
20
-2.6665088976377951
11
2.7710505118110236
21
-2.6662466535433071
0
LINE
8
BLACK
6
CONTINUOUS
10
2.7710505118110236
20
-2.6662466535433071
11
2.7748000393700787
21
-2.662497125984252
0
LINE
8
BLACK
6
CONTINUOUS
10
2.7748000393700787
20
-2.662497125984252
11
2.7749772834645667
21
-2.6623786614173226
0
LINE
8
BLACK
6
CONTINUOUS
10
2.7749772834645667
20
-2.6623786614173226
11
2.7750200787401575
21
-2.6623074015748029
0
LINE
8
BLACK
6
CONTINUOUS
10
2.7750200787401575
20
-2.6623074015748029
11
2.7752381102362205
21
-2.6622043700787401
0
LINE
8
BLACK
6
CONTINUOUS
10
2.7752381102362205
20
-2.6622043700787401
11
2.775438661417323
21
-2.6620703937007875
0
LINE
8
BLACK
6
CONTINUOUS
10
2.775438661417323
20
-2.6620703937007875
11
2.7755217716535432
21
-2.6620703937007875
0
LINE
8
BLACK
6
CONTINUOUS
10
2.7755217716535432
20
-2.6620703937007875
11
2.7757145275590549
21
-2.6619793307086614
0
LINE
8
BLACK
6
CONTINUOUS
10
2.7757145275590549
20
-2.6619793307086614
11
2.7832135826771651
21
-2.6601045669291339
0
LINE
8
BLACK
6
CONTINUOUS
10
2.7832135826771651
20
-2.6601045669291339
11
2.7834544094488187
21
-2.6600928346456691
0
LINE
8
BLACK
6
CONTINUOUS
10
2.7834544094488187
20
-2.6600928346456691
11
2.7836910236220471
21
-2.6600457874015748
0
LINE
8
BLACK
6
CONTINUOUS
10
2.7836910236220471
20
-2.6600457874015748
11
2.79681437007874
21
-2.6600457874015748
0
LINE
8
BLACK
6
CONTINUOUS
10
2.79681437007874
20
-2.6600457874015748
11
2.7970509448818897
21
-2.6600928346456691
0
LINE
8
BLACK
6
CONTINUOUS
10
2.7771983070866142
20
-2.6656665354330706
11
2.7740602755905512
21
-2.6688046062992123
0
LINE
8
BLACK
6
CONTINUOUS
10
2.7740602755905512
20
-2.6688046062992123
11
2.7725361811023621
21
-2.6718527952755906
0
LINE
8
BLACK
6
CONTINUOUS
10
2.7725361811023621
20
-2.6718527952755906
11
2.7725361811023621
21
-2.6784224803149606
0
LINE
8
BLACK
6
CONTINUOUS
10
2.7725361811023621
20
-2.6784224803149606
11
2.7740602755905512
21
-2.6814706692913384
0
LINE
8
BLACK
6
CONTINUOUS
10
2.7740602755905512
20
-2.6814706692913384
11
2.7771983070866142
21
-2.6846087007874013
0
LINE
8
BLACK
6
CONTINUOUS
10
2.7771983070866142
20
-2.6846087007874013
11
2.7839333464566929
21
-2.6862924803149606
0
LINE
8
BLACK
6
CONTINUOUS
10
2.7839333464566929
20
-2.6862924803149606
11
2.7965720472440943
21
-2.6862924803149606
0
LINE
8
BLACK
6
CONTINUOUS
10
2.7965720472440943
20
-2.6862924803149606
11
2.8033070078740159
21
-2.6846087007874013
0
LINE
8
BLACK
6
CONTINUOUS
10
2.8033070078740159
20
-2.6846087007874013
11
2.8064451574803151
21
-2.6814705511811021
0
LINE
8
BLACK
6
CONTINUOUS
10
2.8064451574803151
20
-2.6814705511811021
11
2.8079692519685038
21
-2.6784224409448818
0
LINE
8
BLACK
6
CONTINUOUS
10
2.8079692519685038
20
-2.6784224409448818
11
2.8079692519685038
21
-2.6718527952755906
0
LINE
8
BLACK
6
CONTINUOUS
10
2.8079692519685038
20
-2.6718527952755906
11
2.8064451574803151
21
-2.6688046850393699
0
LINE
8
BLACK
6
CONTINUOUS
10
2.8064451574803151
20
-2.6688046850393699
11
2.8033070078740159
21
-2.6656665354330706
0
LINE
8
BLACK
6
CONTINUOUS
10
2.8033070078740159
20
-2.6656665354330706
11
2.7965720472440943
21
-2.6639827952755906
0
LINE
8
BLACK
6
CONTINUOUS
10
2.7965720472440943
20
-2.6639827952755906
11
2.7839333464566929
21
-2.6639827952755906
0
LINE
8
BLACK
6
CONTINUOUS
10
2.7839333464566929
20
-2.6639827952755906
11
2.7771983070866142
21
-2.6656665354330706
0
LINE
8
BLACK
6
CONTINUOUS
10
2.7843531102362205
20
-2.5982931889763781
11
2.810599842519685
21
-2.6076670078740158
0
LINE
8
BLACK
6
CONTINUOUS
10
2.810599842519685
20
-2.6076670078740158
11
2.8112588582677165
21
-2.6080614960629922
0
LINE
8
BLACK
6
CONTINUOUS
10
2.8112588582677165
20
-2.6080614960629922
11
2.8113032677165353
21
-2.6081552755905513
0
LINE
8
BLACK
6
CONTINUOUS
10
2.8113032677165353
20
-2.6081552755905513
11
2.8113970866141731
21
-2.6081997244094488
0
LINE
8
BLACK
6
CONTINUOUS
10
2.8113970866141731
20
-2.6081997244094488
11
2.81162
21
-2.6088239370078741
0
LINE
8
BLACK
6
CONTINUOUS
10
2.81162
20
-2.6088239370078741
11
2.8119038188976377
21
-2.6094230708661419
0
LINE
8
BLACK
6
CONTINUOUS
10
2.8119038188976377
20
-2.6094230708661419
11
2.8118688976377952
21
-2.6095208267716536
0
LINE
8
BLACK
6
CONTINUOUS
10
2.8118688976377952
20
-2.6095208267716536
11
2.8119038188976377
21
-2.6096185826771654
0
LINE
8
BLACK
6
CONTINUOUS
10
2.8119038188976377
20
-2.6096185826771654
11
2.81162
21
-2.6102176771653545
0
LINE
8
BLACK
6
CONTINUOUS
10
2.81162
20
-2.6102176771653545
11
2.8113970866141731
21
-2.610841929133858
0
LINE
8
BLACK
6
CONTINUOUS
10
2.8113970866141731
20
-2.610841929133858
11
2.8113032677165353
21
-2.6108863385826773
0
LINE
8
BLACK
6
CONTINUOUS
10
2.8113032677165353
20
-2.6108863385826773
11
2.8112588582677165
21
-2.6109801574803151
0
LINE
8
BLACK
6
CONTINUOUS
10
2.8112588582677165
20
-2.6109801574803151
11
2.810599842519685
21
-2.6113746456692914
0
LINE
8
BLACK
6
CONTINUOUS
10
2.810599842519685
20
-2.6113746456692914
11
2.7843531102362205
21
-2.6207484645669292
0
LINE
8
BLACK
6
CONTINUOUS
10
2.7843531102362205
20
-2.6207484645669292
11
2.7835932677165354
21
-2.6208607086614171
0
LINE
8
BLACK
6
CONTINUOUS
10
2.7835932677165354
20
-2.6208607086614171
11
2.7822316929133857
21
-2.6202157480314958
0
LINE
8
BLACK
6
CONTINUOUS
10
2.7822316929133857
20
-2.6202157480314958
11
2.781724960629921
21
-2.6187968897637797
0
LINE
8
BLACK
6
CONTINUOUS
10
2.781724960629921
20
-2.6187968897637797
11
2.7823699212598423
21
-2.61743531496063
0
LINE
8
BLACK
6
CONTINUOUS
10
2.7823699212598423
20
-2.61743531496063
11
2.7830289370078738
21
-2.6170408267716536
0
LINE
8
BLACK
6
CONTINUOUS
10
2.7830289370078738
20
-2.6170408267716536
11
2.8040849606299214
21
-2.6095208267716536
0
LINE
8
BLACK
6
CONTINUOUS
10
2.8040849606299214
20
-2.6095208267716536
11
2.7830289370078738
21
-2.6020008267716537
0
LINE
8
BLACK
6
CONTINUOUS
10
2.7830289370078738
20
-2.6020008267716537
11
2.7823699212598423
21
-2.6016063385826773
0
LINE
8
BLACK
6
CONTINUOUS
10
2.7823699212598423
20
-2.6016063385826773
11
2.781724960629921
21
-2.6002447637795276
0
LINE
8
BLACK
6
CONTINUOUS
10
2.781724960629921
20
-2.6002447637795276
11
2.7822316929133857
21
-2.598825905511811
0
LINE
8
BLACK
6
CONTINUOUS
10
2.7822316929133857
20
-2.598825905511811
11
2.7835932677165354
21
-2.5981809448818898
0
LINE
8
BLACK
6
CONTINUOUS
10
2.7835932677165354
20
-2.5981809448818898
11
2.7843531102362205
21
-2.5982931889763781
0
LINE
8
BLACK
6
CONTINUOUS
10
2.7986330314960628
20
-2.5618983858267717
11
2.7987828740157479
21
-2.5626516929133856
0
LINE
8
BLACK
6
CONTINUOUS
10
2.7987828740157479
20
-2.5626516929133856
11
2.7987828740157479
21
-2.5663074803149604
0
LINE
8
BLACK
6
CONTINUOUS
10
2.7987828740157479
20
-2.5663074803149604
11
2.8099377559055116
21
-2.5663074803149604
0
LINE
8
BLACK
6
CONTINUOUS
10
2.8099377559055116
20
-2.5663074803149604
11
2.810691062992126
21
-2.5664573228346454
0
LINE
8
BLACK
6
CONTINUOUS
10
2.810691062992126
20
-2.5664573228346454
11
2.8117564173228344
21
-2.5675226771653543
0
LINE
8
BLACK
6
CONTINUOUS
10
2.8117564173228344
20
-2.5675226771653543
11
2.8117564173228344
21
-2.5690292913385826
0
LINE
8
BLACK
6
CONTINUOUS
10
2.8117564173228344
20
-2.5690292913385826
11
2.810691062992126
21
-2.5700946456692915
0
LINE
8
BLACK
6
CONTINUOUS
10
2.810691062992126
20
-2.5700946456692915
11
2.8099377559055116
21
-2.5702444881889761
0
LINE
8
BLACK
6
CONTINUOUS
10
2.8099377559055116
20
-2.5702444881889761
11
2.7987828740157479
21
-2.5702444881889761
0
LINE
8
BLACK
6
CONTINUOUS
10
2.7987828740157479
20
-2.5702444881889761
11
2.7987828740157479
21
-2.5870236220472442
0
LINE
8
BLACK
6
CONTINUOUS
10
2.7987828740157479
20
-2.5870236220472442
11
2.7986330314960628
21
-2.5877769291338582
0
LINE
8
BLACK
6
CONTINUOUS
10
2.7986330314960628
20
-2.5877769291338582
11
2.7984038976377952
21
-2.588006023622047
0
LINE
8
BLACK
6
CONTINUOUS
10
2.7984038976377952
20
-2.588006023622047
11
2.7983014566929132
21
-2.5883133858267717
0
LINE
8
BLACK
6
CONTINUOUS
10
2.7983014566929132
20
-2.5883133858267717
11
2.7978916929133857
21
-2.5885182677165353
0
LINE
8
BLACK
6
CONTINUOUS
10
2.7978916929133857
20
-2.5885182677165353
11
2.7975676771653544
21
-2.588842283464567
0
LINE
8
BLACK
6
CONTINUOUS
10
2.7975676771653544
20
-2.588842283464567
11
2.7972436614173226
21
-2.588842283464567
0
LINE
8
BLACK
6
CONTINUOUS
10
2.7972436614173226
20
-2.588842283464567
11
2.796953897637795
21
-2.5889871653543306
0
LINE
8
BLACK
6
CONTINUOUS
10
2.796953897637795
20
-2.5889871653543306
11
2.7961918503937007
21
-2.5888911023622048
0
LINE
8
BLACK
6
CONTINUOUS
10
2.7961918503937007
20
-2.5888911023622048
11
2.7680704330708661
21
-2.579517283464567
0
LINE
8
BLACK
6
CONTINUOUS
10
2.7680704330708661
20
-2.579517283464567
11
2.7674031496062992
21
-2.5791369291338584
0
LINE
8
BLACK
6
CONTINUOUS
10
2.7674031496062992
20
-2.5791369291338584
11
2.7667293700787403
21
-2.5777893307086615
0
LINE
8
BLACK
6
CONTINUOUS
10
2.7667293700787403
20
-2.5777893307086615
11
2.7672057874015747
21
-2.5763600393700785
0
LINE
8
BLACK
6
CONTINUOUS
10
2.7672057874015747
20
-2.5763600393700785
11
2.7685533858267717
21
-2.5756862598425196
0
LINE
8
BLACK
6
CONTINUOUS
10
2.7685533858267717
20
-2.5756862598425196
11
2.7693153937007873
21
-2.5757823228346455
0
LINE
8
BLACK
6
CONTINUOUS
10
2.7693153937007873
20
-2.5757823228346455
11
2.7948458661417321
21
-2.5842924803149607
0
LINE
8
BLACK
6
CONTINUOUS
10
2.7948458661417321
20
-2.5842924803149607
11
2.7948458661417321
21
-2.5702444881889761
0
LINE
8
BLACK
6
CONTINUOUS
10
2.7948458661417321
20
-2.5702444881889761
11
2.7836910236220471
21
-2.5702444881889761
0
LINE
8
BLACK
6
CONTINUOUS
10
2.7836910236220471
20
-2.5702444881889761
11
2.7829377165354332
21
-2.5700946456692915
0
LINE
8
BLACK
6
CONTINUOUS
10
2.7829377165354332
20
-2.5700946456692915
11
2.7818723622047243
21
-2.5690292913385826
0
LINE
8
BLACK
6
CONTINUOUS
10
2.7818723622047243
20
-2.5690292913385826
11
2.7818723622047243
21
-2.5675226771653543
0
LINE
8
BLACK
6
CONTINUOUS
10
2.7818723622047243
20
-2.5675226771653543
11
2.7829377165354332
21
-2.5664573228346454
0
LINE
8
BLACK
6
CONTINUOUS
10
2.7829377165354332
20
-2.5664573228346454
11
2.7836910236220471
21
-2.5663074803149604
0
LINE
8
BLACK
6
CONTINUOUS
10
2.7836910236220471
20
-2.5663074803149604
11
2.7948458661417321
21
-2.5663074803149604
0
LINE
8
BLACK
6
CONTINUOUS
10
2.7948458661417321
20
-2.5663074803149604
11
2.7948458661417321
21
-2.5626516929133856
0
LINE
8
BLACK
6
CONTINUOUS
10
2.7948458661417321
20
-2.5626516929133856
11
2.7949957086614172
21
-2.5618983858267717
0
LINE
8
BLACK
6
CONTINUOUS
10
2.7949957086614172
20
-2.5618983858267717
11
2.7960610629921261
21
-2.5608330314960628
0
LINE
8
BLACK
6
CONTINUOUS
10
2.7960610629921261
20
-2.5608330314960628
11
2.7975676771653544
21
-2.5608330314960628
0
LINE
8
BLACK
6
CONTINUOUS
10
2.7975676771653544
20
-2.5608330314960628
11
2.7986330314960628
21
-2.5618983858267717
0
LINE
8
BLACK
6
CONTINUOUS
10
2.8088164173228347
20
-2.5439601968503935
11
2.8094549212598423
21
-2.5443868503937006
0
LINE
8
BLACK
6
CONTINUOUS
10
2.8094549212598423
20
-2.5443868503937006
11
2.8113296850393699
21
-2.5462615748031494
0
LINE
8
BLACK
6
CONTINUOUS
10
2.8113296850393699
20
-2.5462615748031494
11
2.8117564173228344
21
-2.5469001968503937
0
LINE
8
BLACK
6
CONTINUOUS
10
2.8117564173228344
20
-2.5469001968503937
11
2.8117564173228344
21
-2.5469002362204725
0
LINE
8
BLACK
6
CONTINUOUS
10
2.8117564173228344
20
-2.5469002362204725
11
2.8117564173228344
21
-2.5484068897637795
0
LINE
8
BLACK
6
CONTINUOUS
10
2.8117564173228344
20
-2.5484068897637795
11
2.8113296850393699
21
-2.5490455118110233
0
LINE
8
BLACK
6
CONTINUOUS
10
2.8113296850393699
20
-2.5490455118110233
11
2.8094549212598423
21
-2.5509202362204726
0
LINE
8
BLACK
6
CONTINUOUS
10
2.8094549212598423
20
-2.5509202362204726
11
2.8088164173228347
21
-2.5513468503937009
0
LINE
8
BLACK
6
CONTINUOUS
10
2.8088164173228347
20
-2.5513468503937009
11
2.8088163385826772
21
-2.5513469685039372
0
LINE
8
BLACK
6
CONTINUOUS
10
2.8088163385826772
20
-2.5513469685039372
11
2.8073096850393702
21
-2.5513469685039372
0
LINE
8
BLACK
6
CONTINUOUS
10
2.8073096850393702
20
-2.5513469685039372
11
2.8066710629921259
21
-2.5509202755905513
0
LINE
8
BLACK
6
CONTINUOUS
10
2.8066710629921259
20
-2.5509202755905513
11
2.8047962598425196
21
-2.5490455118110233
0
LINE
8
BLACK
6
CONTINUOUS
10
2.8047962598425196
20
-2.5490455118110233
11
2.804369527559055
21
-2.5484068897637795
0
LINE
8
BLACK
6
CONTINUOUS
10
2.804369527559055
20
-2.5484068897637795
11
2.804369527559055
21
-2.5469002362204725
0
LINE
8
BLACK
6
CONTINUOUS
10
2.804369527559055
20
-2.5469002362204725
11
2.804369527559055
21
-2.5469001968503937
0
LINE
8
BLACK
6
CONTINUOUS
10
2.804369527559055
20
-2.5469001968503937
11
2.8047962598425196
21
-2.5462615748031494
0
LINE
8
BLACK
6
CONTINUOUS
10
2.8047962598425196
20
-2.5462615748031494
11
2.8066710629921259
21
-2.5443868110236219
0
LINE
8
BLACK
6
CONTINUOUS
10
2.8066710629921259
20
-2.5443868110236219
11
2.8073096850393702
21
-2.543960118110236
0
LINE
8
BLACK
6
CONTINUOUS
10
2.8073096850393702
20
-2.543960118110236
11
2.8088163385826772
21
-2.543960118110236
0
LINE
8
BLACK
6
CONTINUOUS
10
2.8088163385826772
20
-2.543960118110236
11
2.8088164173228347
21
-2.5439601968503935
0
LINE
8
BLACK
6
CONTINUOUS
10
2.7951761811023621
20
-2.5063620472440946
11
2.7954170472440945
21
-2.5063737795275589
0
LINE
8
BLACK
6
CONTINUOUS
10
2.7954170472440945
20
-2.5063737795275589
11
2.8029161023622047
21
-2.5082485433070865
0
LINE
8
BLACK
6
CONTINUOUS
10
2.8029161023622047
20
-2.5082485433070865
11
2.8031110629921261
21
-2.5083406299212596
0
LINE
8
BLACK
6
CONTINUOUS
10
2.8031110629921261
20
-2.5083406299212596
11
2.8033190157480314
21
-2.5083975984251969
0
LINE
8
BLACK
6
CONTINUOUS
10
2.8033190157480314
20
-2.5083975984251969
11
2.8070685039370078
21
-2.5102723228346457
0
LINE
8
BLACK
6
CONTINUOUS
10
2.8070685039370078
20
-2.5102723228346457
11
2.8073176377952755
21
-2.5104656692913387
0
LINE
8
BLACK
6
CONTINUOUS
10
2.8073176377952755
20
-2.5104656692913387
11
2.807580118110236
21
-2.5106410629921259
0
LINE
8
BLACK
6
CONTINUOUS
10
2.807580118110236
20
-2.5106410629921259
11
2.8094549212598423
21
-2.5125158267716534
0
LINE
8
BLACK
6
CONTINUOUS
10
2.8094549212598423
20
-2.5125158267716534
11
2.8096302755905511
21
-2.5127782677165356
0
LINE
8
BLACK
6
CONTINUOUS
10
2.8096302755905511
20
-2.5127782677165356
11
2.8098236614173229
21
-2.5130274409448816
0
LINE
8
BLACK
6
CONTINUOUS
10
2.8098236614173229
20
-2.5130274409448816
11
2.8116984251968504
21
-2.5167769685039367
0
LINE
8
BLACK
6
CONTINUOUS
10
2.8116984251968504
20
-2.5167769685039367
11
2.8117244488188975
21
-2.5168720472440946
0
LINE
8
BLACK
6
CONTINUOUS
10
2.8117244488188975
20
-2.5168720472440946
11
2.8117564173228344
21
-2.5169040157480316
0
LINE
8
BLACK
6
CONTINUOUS
10
2.8117564173228344
20
-2.5169040157480316
11
2.8118179527559053
21
-2.5172135039370076
0
LINE
8
BLACK
6
CONTINUOUS
10
2.8118179527559053
20
-2.5172135039370076
11
2.8119012992125985
21
-2.5175177559055117
0
LINE
8
BLACK
6
CONTINUOUS
10
2.8119012992125985
20
-2.5175177559055117
11
2.8118870078740157
21
-2.5175605905511809
0
LINE
8
BLACK
6
CONTINUOUS
10
2.8118870078740157
20
-2.5175605905511809
11
2.8119062598425195
21
-2.5176573228346455
0
LINE
8
BLACK
6
CONTINUOUS
10
2.8119062598425195
20
-2.5176573228346455
11
2.8119062598425195
21
-2.5214068503937006
0
LINE
8
BLACK
6
CONTINUOUS
10
2.8119062598425195
20
-2.5214068503937006
11
2.8118870078740157
21
-2.5215035433070865
0
LINE
8
BLACK
6
CONTINUOUS
10
2.8118870078740157
20
-2.5215035433070865
11
2.8119012992125985
21
-2.5215464173228348
0
LINE
8
BLACK
6
CONTINUOUS
10
2.8119012992125985
20
-2.5215464173228348
11
2.8118179527559053
21
-2.5218506299212597
0
LINE
8
BLACK
6
CONTINUOUS
10
2.8118179527559053
20
-2.5218506299212597
11
2.8117564173228344
21
-2.522160157480315
0
LINE
8
BLACK
6
CONTINUOUS
10
2.8117564173228344
20
-2.522160157480315
11
2.8117244488188975
21
-2.5221920866141732
0
LINE
8
BLACK
6
CONTINUOUS
10
2.8117244488188975
20
-2.5221920866141732
11
2.8116984251968504
21
-2.5222872047244094
0
LINE
8
BLACK
6
CONTINUOUS
10
2.8116984251968504
20
-2.5222872047244094
11
2.8098236614173229
21
-2.5260367322834645
0
LINE
8
BLACK
6
CONTINUOUS
10
2.8098236614173229
20
-2.5260367322834645
11
2.8096302755905511
21
-2.5262858661417322
0
LINE
8
BLACK
6
CONTINUOUS
10
2.8096302755905511
20
-2.5262858661417322
11
2.8094549212598423
21
-2.5265483464566927
0
LINE
8
BLACK
6
CONTINUOUS
10
2.8094549212598423
20
-2.5265483464566927
11
2.807580118110236
21
-2.5284231102362202
0
LINE
8
BLACK
6
CONTINUOUS
10
2.807580118110236
20
-2.5284231102362202
11
2.8073176377952755
21
-2.528598464566929
0
LINE
8
BLACK
6
CONTINUOUS
10
2.8073176377952755
20
-2.528598464566929
11
2.8070685039370078
21
-2.5287918503937008
0
LINE
8
BLACK
6
CONTINUOUS
10
2.8070685039370078
20
-2.5287918503937008
11
2.8033190157480314
21
-2.5306665748031496
0
LINE
8
BLACK
6
CONTINUOUS
10
2.8033190157480314
20
-2.5306665748031496
11
2.8031110629921261
21
-2.5307235039370077
0
LINE
8
BLACK
6
CONTINUOUS
10
2.8031110629921261
20
-2.5307235039370077
11
2.8029161023622047
21
-2.5308156299212596
0
LINE
8
BLACK
6
CONTINUOUS
10
2.8029161023622047
20
-2.5308156299212596
11
2.7954170472440945
21
-2.5326903937007872
0
LINE
8
BLACK
6
CONTINUOUS
10
2.7954170472440945
20
-2.5326903937007872
11
2.7951761811023621
21
-2.5327020866141732
0
LINE
8
BLACK
6
CONTINUOUS
10
2.7951761811023621
20
-2.5327020866141732
11
2.7949396062992125
21
-2.5327491732283463
0
LINE
8
BLACK
6
CONTINUOUS
10
2.7949396062992125
20
-2.5327491732283463
11
2.7855657874015747
21
-2.5327491732283463
0
LINE
8
BLACK
6
CONTINUOUS
10
2.7855657874015747
20
-2.5327491732283463
11
2.7853291732283463
21
-2.5327020866141732
0
LINE
8
BLACK
6
CONTINUOUS
10
2.7853291732283463
20
-2.5327020866141732
11
2.7850883464566927
21
-2.5326903937007872
0
LINE
8
BLACK
6
CONTINUOUS
10
2.7850883464566927
20
-2.5326903937007872
11
2.7775892913385825
21
-2.5308156299212596
0
LINE
8
BLACK
6
CONTINUOUS
10
2.7775892913385825
20
-2.5308156299212596
11
2.7773942913385827
21
-2.5307235039370077
0
LINE
8
BLACK
6
CONTINUOUS
10
2.7773942913385827
20
-2.5307235039370077
11
2.7771863779527557
21
-2.5306665748031496
0
LINE
8
BLACK
6
CONTINUOUS
10
2.7771863779527557
20
-2.5306665748031496
11
2.7734368503937006
21
-2.528791811023622
0
LINE
8
BLACK
6
CONTINUOUS
10
2.7734368503937006
20
-2.528791811023622
11
2.7731876771653541
21
-2.5285984251968503
0
LINE
8
BLACK
6
CONTINUOUS
10
2.7731876771653541
20
-2.5285984251968503
11
2.7729252362204724
21
-2.5284230708661415
0
LINE
8
BLACK
6
CONTINUOUS
10
2.7729252362204724
20
-2.5284230708661415
11
2.7710505118110236
21
-2.5265483070866139
0
LINE
8
BLACK
6
CONTINUOUS
10
2.7710505118110236
20
-2.5265483070866139
11
2.7708752362204723
21
-2.5262860236220472
0
LINE
8
BLACK
6
CONTINUOUS
10
2.7708752362204723
20
-2.5262860236220472
11
2.7706817322834647
21
-2.5260366929133857
0
LINE
8
BLACK
6
CONTINUOUS
10
2.7706817322834647
20
-2.5260366929133857
11
2.7688070078740159
21
-2.5222872047244094
0
LINE
8
BLACK
6
CONTINUOUS
10
2.7688070078740159
20
-2.5222872047244094
11
2.7687809448818896
21
-2.5221920866141732
0
LINE
8
BLACK
6
CONTINUOUS
10
2.7687809448818896
20
-2.5221920866141732
11
2.7687490157480315
21
-2.522160157480315
0
LINE
8
BLACK
6
CONTINUOUS
10
2.7687490157480315
20
-2.522160157480315
11
2.7686874409448818
21
-2.5218506299212597
0
LINE
8
BLACK
6
CONTINUOUS
10
2.7686874409448818
20
-2.5218506299212597
11
2.7686041338582679
21
-2.5215464173228348
0
LINE
8
BLACK
6
CONTINUOUS
10
2.7686041338582679
20
-2.5215464173228348
11
2.7686183858267714
21
-2.5215035433070865
0
LINE
8
BLACK
6
CONTINUOUS
10
2.7686183858267714
20
-2.5215035433070865
11
2.7685991732283464
21
-2.5214068503937006
0
LINE
8
BLACK
6
CONTINUOUS
10
2.7685991732283464
20
-2.5214068503937006
11
2.7685991732283464
21
-2.5176573228346455
0
LINE
8
BLACK
6
CONTINUOUS
10
2.7685991732283464
20
-2.5176573228346455
11
2.7686183858267714
21
-2.5175605905511809
0
LINE
8
BLACK
6
CONTINUOUS
10
2.7686183858267714
20
-2.5175605905511809
11
2.7686041338582679
21
-2.5175177559055117
0
LINE
8
BLACK
6
CONTINUOUS
10
2.7686041338582679
20
-2.5175177559055117
11
2.7686874409448818
21
-2.5172135039370076
0
LINE
8
BLACK
6
CONTINUOUS
10
2.7686874409448818
20
-2.5172135039370076
11
2.7687490157480315
21
-2.5169040157480316
0
LINE
8
BLACK
6
CONTINUOUS
10
2.7687490157480315
20
-2.5169040157480316
11
2.7687809448818896
21
-2.5168720472440946
0
LINE
8
BLACK
6
CONTINUOUS
10
2.7687809448818896
20
-2.5168720472440946
11
2.7688070078740159
21
-2.5167769685039367
0
LINE
8
BLACK
6
CONTINUOUS
10
2.7688070078740159
20
-2.5167769685039367
11
2.7706817322834647
21
-2.5130274803149604
0
LINE
8
BLACK
6
CONTINUOUS
10
2.7706817322834647
20
-2.5130274803149604
11
2.7708752362204723
21
-2.5127781102362206
0
LINE
8
BLACK
6
CONTINUOUS
10
2.7708752362204723
20
-2.5127781102362206
11
2.7710505118110236
21
-2.5125158661417322
0
LINE
8
BLACK
6
CONTINUOUS
10
2.7710505118110236
20
-2.5125158661417322
11
2.7729252362204724
21
-2.5106411023622046
0
LINE
8
BLACK
6
CONTINUOUS
10
2.7729252362204724
20
-2.5106411023622046
11
2.7731876771653541
21
-2.5104657086614171
0
LINE
8
BLACK
6
CONTINUOUS
10
2.7731876771653541
20
-2.5104657086614171
11
2.7734368503937006
21
-2.5102723622047245
0
LINE
8
BLACK
6
CONTINUOUS
10
2.7734368503937006
20
-2.5102723622047245
11
2.7771863779527557
21
-2.5083975984251969
0
LINE
8
BLACK
6
CONTINUOUS
10
2.7771863779527557
20
-2.5083975984251969
11
2.7773942913385827
21
-2.5083406299212596
0
LINE
8
BLACK
6
CONTINUOUS
10
2.7773942913385827
20
-2.5083406299212596
11
2.7775892913385825
21
-2.5082485433070865
0
LINE
8
BLACK
6
CONTINUOUS
10
2.7775892913385825
20
-2.5082485433070865
11
2.7850883464566927
21
-2.5063737795275589
0
LINE
8
BLACK
6
CONTINUOUS
10
2.7850883464566927
20
-2.5063737795275589
11
2.7853291732283463
21
-2.5063620472440946
0
LINE
8
BLACK
6
CONTINUOUS
10
2.7853291732283463
20
-2.5063620472440946
11
2.7855657874015747
21
-2.5063149999999998
0
LINE
8
BLACK
6
CONTINUOUS
10
2.7855657874015747
20
-2.5063149999999998
11
2.7949396062992125
21
-2.5063149999999998
0
LINE
8
BLACK
6
CONTINUOUS
10
2.7949396062992125
20
-2.5063149999999998
11
2.7951761811023621
21
-2.5063620472440946
0
LINE
8
BLACK
6
CONTINUOUS
10
2.7787538188976377
20
-2.5120155511811024
11
2.7754832677165355
21
-2.5136508267716535
0
LINE
8
BLACK
6
CONTINUOUS
10
2.7754832677165355
20
-2.5136508267716535
11
2.7740602362204725
21
-2.5150738188976378
0
LINE
8
BLACK
6
CONTINUOUS
10
2.7740602362204725
20
-2.5150738188976378
11
2.7725361811023621
21
-2.5181220078740156
0
LINE
8
BLACK
6
CONTINUOUS
10
2.7725361811023621
20
-2.5181220078740156
11
2.7725361811023621
21
-2.5209421653543305
0
LINE
8
BLACK
6
CONTINUOUS
10
2.7725361811023621
20
-2.5209421653543305
11
2.7740602362204725
21
-2.52399031496063
0
LINE
8
BLACK
6
CONTINUOUS
10
2.7740602362204725
20
-2.52399031496063
11
2.7754832677165355
21
-2.5254133070866143
0
LINE
8
BLACK
6
CONTINUOUS
10
2.7754832677165355
20
-2.5254133070866143
11
2.7787538188976377
21
-2.5270485826771654
0
LINE
8
BLACK
6
CONTINUOUS
10
2.7787538188976377
20
-2.5270485826771654
11
2.7858081102362204
21
-2.5288121653543305
0
LINE
8
BLACK
6
CONTINUOUS
10
2.7858081102362204
20
-2.5288121653543305
11
2.7946972834645667
21
-2.5288121653543305
0
LINE
8
BLACK
6
CONTINUOUS
10
2.7946972834645667
20
-2.5288121653543305
11
2.8017516141732282
21
-2.5270485826771654
0
LINE
8
BLACK
6
CONTINUOUS
10
2.8017516141732282
20
-2.5270485826771654
11
2.8050220866141733
21
-2.5254133070866143
0
LINE
8
BLACK
6
CONTINUOUS
10
2.8050220866141733
20
-2.5254133070866143
11
2.8064451968503938
21
-2.5239902362204725
0
LINE
8
BLACK
6
CONTINUOUS
10
2.8064451968503938
20
-2.5239902362204725
11
2.8079692519685038
21
-2.5209421259842517
0
LINE
8
BLACK
6
CONTINUOUS
10
2.8079692519685038
20
-2.5209421259842517
11
2.8079692519685038
21
-2.5181220078740156
0
LINE
8
BLACK
6
CONTINUOUS
10
2.8079692519685038
20
-2.5181220078740156
11
2.8064451968503938
21
-2.5150738976377953
0
LINE
8
BLACK
6
CONTINUOUS
10
2.8064451968503938
20
-2.5150738976377953
11
2.8050220866141733
21
-2.5136508267716535
0
LINE
8
BLACK
6
CONTINUOUS
10
2.8050220866141733
20
-2.5136508267716535
11
2.8017516141732282
21
-2.5120155905511812
0
LINE
8
BLACK
6
CONTINUOUS
10
2.8017516141732282
20
-2.5120155905511812
11
2.7946972834645667
21
-2.5102520078740156
0
LINE
8
BLACK
6
CONTINUOUS
10
2.7946972834645667
20
-2.5102520078740156
11
2.7858081102362204
21
-2.5102520078740156
0
LINE
8
BLACK
6
CONTINUOUS
10
2.7858081102362204
20
-2.5102520078740156
11
2.7787538188976377
21
-2.5120155511811024
0
LINE
8
BLACK
6
CONTINUOUS
10
3.3712405118110236
20
-2.4685795669291339
11
3.3726597244094489
21
-2.4691674409448821
0
LINE
8
BLACK
6
CONTINUOUS
10
3.3726597244094489
20
-2.4691674409448821
11
3.3737459448818896
21
-2.4702536614173227
0
LINE
8
BLACK
6
CONTINUOUS
10
3.3737459448818896
20
-2.4702536614173227
11
3.3743338188976377
21
-2.4716728740157481
0
LINE
8
BLACK
6
CONTINUOUS
10
3.3743338188976377
20
-2.4716728740157481
11
3.3743338188976377
21
-2.4732090157480315
0
LINE
8
BLACK
6
CONTINUOUS
10
3.3743338188976377
20
-2.4732090157480315
11
3.3737459448818896
21
-2.4746282283464565
0
LINE
8
BLACK
6
CONTINUOUS
10
3.3737459448818896
20
-2.4746282283464565
11
3.3726597244094489
21
-2.4757144488188976
0
LINE
8
BLACK
6
CONTINUOUS
10
3.3726597244094489
20
-2.4757144488188976
11
3.3712405118110236
21
-2.4763023228346457
0
LINE
8
BLACK
6
CONTINUOUS
10
3.3712405118110236
20
-2.4763023228346457
11
3.3704724409448819
21
-2.4763779527559056
0
LINE
8
BLACK
6
CONTINUOUS
10
3.3704724409448819
20
-2.4763779527559056
11
3.3311023622047244
21
-2.4763779527559056
0
LINE
8
BLACK
6
CONTINUOUS
10
3.3311023622047244
20
-2.4763779527559056
11
3.3303342913385827
21
-2.4763023228346457
0
LINE
8
BLACK
6
CONTINUOUS
10
3.3303342913385827
20
-2.4763023228346457
11
3.3289150787401574
21
-2.4757144488188976
0
LINE
8
BLACK
6
CONTINUOUS
10
3.3289150787401574
20
-2.4757144488188976
11
3.3278288582677162
21
-2.4746282283464565
0
LINE
8
BLACK
6
CONTINUOUS
10
3.3278288582677162
20
-2.4746282283464565
11
3.3272409842519686
21
-2.4732090157480315
0
LINE
8
BLACK
6
CONTINUOUS
10
3.3272409842519686
20
-2.4732090157480315
11
3.3272409842519686
21
-2.4716728740157481
0
LINE
8
BLACK
6
CONTINUOUS
10
3.3272409842519686
20
-2.4716728740157481
11
3.3278288582677162
21
-2.4702536614173227
0
LINE
8
BLACK
6
CONTINUOUS
10
3.3278288582677162
20
-2.4702536614173227
11
3.3289150787401574
21
-2.4691674409448821
0
LINE
8
BLACK
6
CONTINUOUS
10
3.3289150787401574
20
-2.4691674409448821
11
3.3303342913385827
21
-2.4685795669291339
0
LINE
8
BLACK
6
CONTINUOUS
10
3.3303342913385827
20
-2.4685795669291339
11
3.3311023622047244
21
-2.4685039370078741
0
LINE
8
BLACK
6
CONTINUOUS
10
3.3311023622047244
20
-2.4685039370078741
11
3.3704724409448819
21
-2.4685039370078741
0
LINE
8
BLACK
6
CONTINUOUS
10
3.3704724409448819
20
-2.4685039370078741
11
3.3712405118110236
21
-2.4685795669291339
0
LINE
8
BLACK
6
CONTINUOUS
10
3.0009039763779528
20
-2.3665183858267715
11
3.0021824015748031
21
-2.3677968110236218
0
LINE
8
BLACK
6
CONTINUOUS
10
3.0021824015748031
20
-2.3677968110236218
11
3.0021824015748031
21
-2.3696047637795274
0
LINE
8
BLACK
6
CONTINUOUS
10
3.0021824015748031
20
-2.3696047637795274
11
3.0009039763779528
21
-2.3708831889763777
0
LINE
8
BLACK
6
CONTINUOUS
10
3.0009039763779528
20
-2.3708831889763777
11
3.
21
-2.3710629921259843
0
LINE
8
BLACK
6
CONTINUOUS
10
3.
20
-2.3710629921259843
11
2.8494094488188977
21
-2.3710629921259843
0
LINE
8
BLACK
6
CONTINUOUS
10
2.8494094488188977
20
-2.3710629921259843
11
2.8494094488188977
21
-2.4557086614173227
0
LINE
8
BLACK
6
CONTINUOUS
10
2.8494094488188977
20
-2.4557086614173227
11
3.
21
-2.4557086614173227
0
LINE
8
BLACK
6
CONTINUOUS
10
3.
20
-2.4557086614173227
11
3.0009039763779528
21
-2.4558884645669292
0
LINE
8
BLACK
6
CONTINUOUS
10
3.0009039763779528
20
-2.4558884645669292
11
3.0021824015748031
21
-2.4571668897637795
0
LINE
8
BLACK
6
CONTINUOUS
10
3.0021824015748031
20
-2.4571668897637795
11
3.0021824015748031
21
-2.4589748425196851
0
LINE
8
BLACK
6
CONTINUOUS
10
3.0021824015748031
20
-2.4589748425196851
11
3.0009039763779528
21
-2.4602532677165354
0
LINE
8
BLACK
6
CONTINUOUS
10
3.0009039763779528
20
-2.4602532677165354
11
3.
21
-2.4604330708661415
0
LINE
8
BLACK
6
CONTINUOUS
10
3.
20
-2.4604330708661415
11
2.8470472440944881
21
-2.4604330708661415
0
LINE
8
BLACK
6
CONTINUOUS
10
2.8470472440944881
20
-2.4604330708661415
11
2.8461432677165353
21
-2.4602532677165354
0
LINE
8
BLACK
6
CONTINUOUS
10
2.8461432677165353
20
-2.4602532677165354
11
2.844864842519685
21
-2.4589748425196851
0
LINE
8
BLACK
6
CONTINUOUS
10
2.844864842519685
20
-2.4589748425196851
11
2.8446850393700789
21
-2.4580708661417323
0
LINE
8
BLACK
6
CONTINUOUS
10
2.8446850393700789
20
-2.4580708661417323
11
2.8446850393700789
21
-2.3687007874015746
0
LINE
8
BLACK
6
CONTINUOUS
10
2.8446850393700789
20
-2.3687007874015746
11
2.844864842519685
21
-2.3677968110236218
0
LINE
8
BLACK
6
CONTINUOUS
10
2.844864842519685
20
-2.3677968110236218
11
2.8461432677165353
21
-2.3665183858267715
0
LINE
8
BLACK
6
CONTINUOUS
10
2.8461432677165353
20
-2.3665183858267715
11
2.8470472440944881
21
-2.3663385826771655
0
LINE
8
BLACK
6
CONTINUOUS
10
2.8470472440944881
20
-2.3663385826771655
11
3.
21
-2.3663385826771655
0
LINE
8
BLACK
6
CONTINUOUS
10
3.
20
-2.3663385826771655
11
3.0009039763779528
21
-2.3665183858267715
0
LINE
8
BLACK
6
CONTINUOUS
10
3.4254156299212597
20
-2.4061753149606298
11
3.4265018503937008
21
-2.4072615354330709
0
LINE
8
BLACK
6
CONTINUOUS
10
3.4265018503937008
20
-2.4072615354330709
11
3.4270897244094489
21
-2.4086807480314958
0
LINE
8
BLACK
6
CONTINUOUS
10
3.4270897244094489
20
-2.4086807480314958
11
3.4271653543307088
21
-2.409448818897638
0
LINE
8
BLACK
6
CONTINUOUS
10
3.4271653543307088
20
-2.409448818897638
11
3.4271653543307088
21
-2.4177165354330707
0
LINE
8
BLACK
6
CONTINUOUS
10
3.4271653543307088
20
-2.4177165354330707
11
3.4270897244094489
21
-2.4184846062992125
0
LINE
8
BLACK
6
CONTINUOUS
10
3.4270897244094489
20
-2.4184846062992125
11
3.4265018503937008
21
-2.4199038188976378
0
LINE
8
BLACK
6
CONTINUOUS
10
3.4265018503937008
20
-2.4199038188976378
11
3.4254156299212597
21
-2.4209900393700785
0
LINE
8
BLACK
6
CONTINUOUS
10
3.4254156299212597
20
-2.4209900393700785
11
3.4239964173228348
21
-2.4215779133858266
0
LINE
8
BLACK
6
CONTINUOUS
10
3.4239964173228348
20
-2.4215779133858266
11
3.4224602755905509
21
-2.4215779133858266
0
LINE
8
BLACK
6
CONTINUOUS
10
3.4224602755905509
20
-2.4215779133858266
11
3.421041062992126
21
-2.4209900393700785
0
LINE
8
BLACK
6
CONTINUOUS
10
3.421041062992126
20
-2.4209900393700785
11
3.4199548425196848
21
-2.4199038188976378
0
LINE
8
BLACK
6
CONTINUOUS
10
3.4199548425196848
20
-2.4199038188976378
11
3.4193669685039367
21
-2.4184846062992125
0
LINE
8
BLACK
6
CONTINUOUS
10
3.4193669685039367
20
-2.4184846062992125
11
3.4192913385826773
21
-2.4177165354330707
0
LINE
8
BLACK
6
CONTINUOUS
10
3.4192913385826773
20
-2.4177165354330707
11
3.4192913385826773
21
-2.409448818897638
0
LINE
8
BLACK
6
CONTINUOUS
10
3.4192913385826773
20
-2.409448818897638
11
3.4193669685039367
21
-2.4086807480314958
0
LINE
8
BLACK
6
CONTINUOUS
10
3.4193669685039367
20
-2.4086807480314958
11
3.4199548425196848
21
-2.4072615354330709
0
LINE
8
BLACK
6
CONTINUOUS
10
3.4199548425196848
20
-2.4072615354330709
11
3.421041062992126
21
-2.4061753149606298
0
LINE
8
BLACK
6
CONTINUOUS
10
3.421041062992126
20
-2.4061753149606298
11
3.4224602755905509
21
-2.4055874409448816
0
LINE
8
BLACK
6
CONTINUOUS
10
3.4224602755905509
20
-2.4055874409448816
11
3.4239964173228348
21
-2.4055874409448816
0
LINE
8
BLACK
6
CONTINUOUS
10
3.4239964173228348
20
-2.4055874409448816
11
3.4254156299212597
21
-2.4061753149606298
0
LINE
8
BLACK
6
CONTINUOUS
10
3.2797463385826773
20
-2.4053879133858267
11
3.2808325590551179
21
-2.4064741338582678
0
LINE
8
BLACK
6
CONTINUOUS
10
3.2808325590551179
20
-2.4064741338582678
11
3.2814204330708661
21
-2.4078933464566927
0
LINE
8
BLACK
6
CONTINUOUS
10
3.2814204330708661
20
-2.4078933464566927
11
3.2814960629921259
21
-2.4086614173228345
0
LINE
8
BLACK
6
CONTINUOUS
10
3.2814960629921259
20
-2.4086614173228345
11
3.2814960629921259
21
-2.4169291338582677
0
LINE
8
BLACK
6
CONTINUOUS
10
3.2814960629921259
20
-2.4169291338582677
11
3.2814204330708661
21
-2.4176972047244094
0
LINE
8
BLACK
6
CONTINUOUS
10
3.2814204330708661
20
-2.4176972047244094
11
3.2808325590551179
21
-2.4191164173228348
0
LINE
8
BLACK
6
CONTINUOUS
10
3.2808325590551179
20
-2.4191164173228348
11
3.2797463385826773
21
-2.4202026377952754
0
LINE
8
BLACK
6
CONTINUOUS
10
3.2797463385826773
20
-2.4202026377952754
11
3.2783271259842519
21
-2.4207905118110236
0
LINE
8
BLACK
6
CONTINUOUS
10
3.2783271259842519
20
-2.4207905118110236
11
3.2767909842519685
21
-2.4207905118110236
0
LINE
8
BLACK
6
CONTINUOUS
10
3.2767909842519685
20
-2.4207905118110236
11
3.2753717716535431
21
-2.4202026377952754
0
LINE
8
BLACK
6
CONTINUOUS
10
3.2753717716535431
20
-2.4202026377952754
11
3.2742855511811024
21
-2.4191164173228348
0
LINE
8
BLACK
6
CONTINUOUS
10
3.2742855511811024
20
-2.4191164173228348
11
3.2736976771653543
21
-2.4176972047244094
0
LINE
8
BLACK
6
CONTINUOUS
10
3.2736976771653543
20
-2.4176972047244094
11
3.2736220472440944
21
-2.4169291338582677
0
LINE
8
BLACK
6
CONTINUOUS
10
3.2736220472440944
20
-2.4169291338582677
11
3.2736220472440944
21
-2.4086614173228345
0
LINE
8
BLACK
6
CONTINUOUS
10
3.2736220472440944
20
-2.4086614173228345
11
3.2736976771653543
21
-2.4078933464566927
0
LINE
8
BLACK
6
CONTINUOUS
10
3.2736976771653543
20
-2.4078933464566927
11
3.2742855511811024
21
-2.4064741338582678
0
LINE
8
BLACK
6
CONTINUOUS
10
3.2742855511811024
20
-2.4064741338582678
11
3.2753717716535431
21
-2.4053879133858267
0
LINE
8
BLACK
6
CONTINUOUS
10
3.2753717716535431
20
-2.4053879133858267
11
3.2767909842519685
21
-2.4048000393700786
0
LINE
8
BLACK
6
CONTINUOUS
10
3.2767909842519685
20
-2.4048000393700786
11
3.2783271259842519
21
-2.4048000393700786
0
LINE
8
BLACK
6
CONTINUOUS
10
3.2783271259842519
20
-2.4048000393700786
11
3.2797463385826773
21
-2.4053879133858267
0
LINE
8
BLACK
6
CONTINUOUS
10
3.4730238188976377
20
-2.3552297637795276
11
3.4756940157480316
21
-2.3567714173228347
0
LINE
8
BLACK
6
CONTINUOUS
10
3.4756940157480316
20
-2.3567714173228347
11
3.4778742519685037
21
-2.3589516535433068
0
LINE
8
BLACK
6
CONTINUOUS
10
3.4778742519685037
20
-2.3589516535433068
11
3.4794159055118108
21
-2.3616218503937008
0
LINE
8
BLACK
6
CONTINUOUS
10
3.4794159055118108
20
-2.3616218503937008
11
3.4802138976377952
21
-2.3646000787401573
0
LINE
8
BLACK
6
CONTINUOUS
10
3.4802138976377952
20
-2.3646000787401573
11
3.4802138976377952
21
-2.3676833858267714
0
LINE
8
BLACK
6
CONTINUOUS
10
3.4802138976377952
20
-2.3676833858267714
11
3.4794159055118108
21
-2.3706616141732284
0
LINE
8
BLACK
6
CONTINUOUS
10
3.4794159055118108
20
-2.3706616141732284
11
3.4778742519685037
21
-2.3733318110236219
0
LINE
8
BLACK
6
CONTINUOUS
10
3.4778742519685037
20
-2.3733318110236219
11
3.4756940157480316
21
-2.3755120472440945
0
LINE
8
BLACK
6
CONTINUOUS
10
3.4756940157480316
20
-2.3755120472440945
11
3.4730238188976377
21
-2.3770537007874015
0
LINE
8
BLACK
6
CONTINUOUS
10
3.4730238188976377
20
-2.3770537007874015
11
3.4700455905511811
21
-2.3778516929133859
0
LINE
8
BLACK
6
CONTINUOUS
10
3.4700455905511811
20
-2.3778516929133859
11
3.466962283464567
21
-2.3778516929133859
0
LINE
8
BLACK
6
CONTINUOUS
10
3.466962283464567
20
-2.3778516929133859
11
3.46398405511811
21
-2.3770537007874015
0
LINE
8
BLACK
6
CONTINUOUS
10
3.46398405511811
20
-2.3770537007874015
11
3.4613138582677165
21
-2.3755120472440945
0
LINE
8
BLACK
6
CONTINUOUS
10
3.4613138582677165
20
-2.3755120472440945
11
3.4591336220472439
21
-2.3733318110236219
0
LINE
8
BLACK
6
CONTINUOUS
10
3.4591336220472439
20
-2.3733318110236219
11
3.4575919685039369
21
-2.3706616141732284
0
LINE
8
BLACK
6
CONTINUOUS
10
3.4575919685039369
20
-2.3706616141732284
11
3.4567939763779525
21
-2.3676833858267714
0
LINE
8
BLACK
6
CONTINUOUS
10
3.4567939763779525
20
-2.3676833858267714
11
3.4567939763779525
21
-2.3646000787401573
0
LINE
8
BLACK
6
CONTINUOUS
10
3.4567939763779525
20
-2.3646000787401573
11
3.4575919685039369
21
-2.3616218503937008
0
LINE
8
BLACK
6
CONTINUOUS
10
3.4575919685039369
20
-2.3616218503937008
11
3.4591336220472439
21
-2.3589516535433068
0
LINE
8
BLACK
6
CONTINUOUS
10
3.4591336220472439
20
-2.3589516535433068
11
3.4613138582677165
21
-2.3567714173228347
0
LINE
8
BLACK
6
CONTINUOUS
10
3.4613138582677165
20
-2.3567714173228347
11
3.46398405511811
21
-2.3552297637795276
0
LINE
8
BLACK
6
CONTINUOUS
10
3.46398405511811
20
-2.3552297637795276
11
3.466962283464567
21
-2.3544317716535432
0
LINE
8
BLACK
6
CONTINUOUS
10
3.466962283464567
20
-2.3544317716535432
11
3.4700455905511811
21
-2.3544317716535432
0
LINE
8
BLACK
6
CONTINUOUS
10
3.4700455905511811
20
-2.3544317716535432
11
3.4730238188976377
21
-2.3552297637795276
0
LINE
8
BLACK
6
CONTINUOUS
10
3.3708468110236218
20
-2.3504693307086613
11
3.3722660236220472
21
-2.3510572047244094
0
LINE
8
BLACK
6
CONTINUOUS
10
3.3722660236220472
20
-2.3510572047244094
11
3.3733522440944883
21
-2.3521434251968505
0
LINE
8
BLACK
6
CONTINUOUS
10
3.3733522440944883
20
-2.3521434251968505
11
3.373940118110236
21
-2.3535626377952754
0
LINE
8
BLACK
6
CONTINUOUS
10
3.373940118110236
20
-2.3535626377952754
11
3.373940118110236
21
-2.3550987795275589
0
LINE
8
BLACK
6
CONTINUOUS
10
3.373940118110236
20
-2.3550987795275589
11
3.3733522440944883
21
-2.3565179921259842
0
LINE
8
BLACK
6
CONTINUOUS
10
3.3733522440944883
20
-2.3565179921259842
11
3.3722660236220472
21
-2.3576042125984253
0
LINE
8
BLACK
6
CONTINUOUS
10
3.3722660236220472
20
-2.3576042125984253
11
3.3708468110236218
21
-2.358192086614173
0
LINE
8
BLACK
6
CONTINUOUS
10
3.3708468110236218
20
-2.358192086614173
11
3.3700787401574801
21
-2.3582677165354329
0
LINE
8
BLACK
6
CONTINUOUS
10
3.3700787401574801
20
-2.3582677165354329
11
3.3307086614173227
21
-2.3582677165354329
0
LINE
8
BLACK
6
CONTINUOUS
10
3.3307086614173227
20
-2.3582677165354329
11
3.329940590551181
21
-2.358192086614173
0
LINE
8
BLACK
6
CONTINUOUS
10
3.329940590551181
20
-2.358192086614173
11
3.328521377952756
21
-2.3576042125984253
0
LINE
8
BLACK
6
CONTINUOUS
10
3.328521377952756
20
-2.3576042125984253
11
3.3274351574803149
21
-2.3565179921259842
0
LINE
8
BLACK
6
CONTINUOUS
10
3.3274351574803149
20
-2.3565179921259842
11
3.3268472834645668
21
-2.3550987795275589
0
LINE
8
BLACK
6
CONTINUOUS
10
3.3268472834645668
20
-2.3550987795275589
11
3.3268472834645668
21
-2.3535626377952754
0
LINE
8
BLACK
6
CONTINUOUS
10
3.3268472834645668
20
-2.3535626377952754
11
3.3274351574803149
21
-2.3521434251968505
0
LINE
8
BLACK
6
CONTINUOUS
10
3.3274351574803149
20
-2.3521434251968505
11
3.328521377952756
21
-2.3510572047244094
0
LINE
8
BLACK
6
CONTINUOUS
10
3.328521377952756
20
-2.3510572047244094
11
3.329940590551181
21
-2.3504693307086613
0
LINE
8
BLACK
6
CONTINUOUS
10
3.329940590551181
20
-2.3504693307086613
11
3.3307086614173227
21
-2.3503937007874014
0
LINE
8
BLACK
6
CONTINUOUS
10
3.3307086614173227
20
-2.3503937007874014
11
3.3700787401574801
21
-2.3503937007874014
0
LINE
8
BLACK
6
CONTINUOUS
10
3.3700787401574801
20
-2.3503937007874014
11
3.3708468110236218
21
-2.3504693307086613
0
LINE
8
BLACK
6
CONTINUOUS
10
2.8673107874015749
20
-2.2695390944881888
11
2.8673856692913384
21
-2.269536968503937
0
LINE
8
BLACK
6
CONTINUOUS
10
2.8673856692913384
20
-2.269536968503937
11
2.867440433070866
21
-2.2695518503937007
0
LINE
8
BLACK
6
CONTINUOUS
10
2.867440433070866
20
-2.2695518503937007
11
2.8674968503937008
21
-2.2695574409448818
0
LINE
8
BLACK
6
CONTINUOUS
10
2.8674968503937008
20
-2.2695574409448818
11
2.867565866141732
21
-2.2695860236220473
0
LINE
8
BLACK
6
CONTINUOUS
10
2.867565866141732
20
-2.2695860236220473
11
2.8681303543307086
21
-2.2697397244094488
0
LINE
8
BLACK
6
CONTINUOUS
10
2.8681303543307086
20
-2.2697397244094488
11
2.8779728346456692
21
-2.2734892519685039
0
LINE
8
BLACK
6
CONTINUOUS
10
2.8779728346456692
20
-2.2734892519685039
11
2.8786636614173227
21
-2.2738333464566929
0
LINE
8
BLACK
6
CONTINUOUS
10
2.8786636614173227
20
-2.2738333464566929
11
2.8788015748031497
21
-2.2739635433070866
0
LINE
8
BLACK
6
CONTINUOUS
10
2.8788015748031497
20
-2.2739635433070866
11
2.878971496062992
21
-2.2740475984251969
0
LINE
8
BLACK
6
CONTINUOUS
10
2.878971496062992
20
-2.2740475984251969
11
2.8795342125984251
21
-2.2745758267716534
0
LINE
8
BLACK
6
CONTINUOUS
10
2.8795342125984251
20
-2.2745758267716534
11
2.8828150393700787
21
-2.2783253543307085
0
LINE
8
BLACK
6
CONTINUOUS
10
2.8828150393700787
20
-2.2783253543307085
11
2.8832638976377951
21
-2.2789531889763781
0
LINE
8
BLACK
6
CONTINUOUS
10
2.8832638976377951
20
-2.2789531889763781
11
2.883756023622047
21
-2.2804083464566927
0
LINE
8
BLACK
6
CONTINUOUS
10
2.883756023622047
20
-2.2804083464566927
11
2.8836538582677163
21
-2.2819411023622047
0
LINE
8
BLACK
6
CONTINUOUS
10
2.8836538582677163
20
-2.2819411023622047
11
2.8829728740157479
21
-2.2833180708661418
0
LINE
8
BLACK
6
CONTINUOUS
10
2.8829728740157479
20
-2.2833180708661418
11
2.8818168110236222
21
-2.2843296456692914
0
LINE
8
BLACK
6
CONTINUOUS
10
2.8818168110236222
20
-2.2843296456692914
11
2.8803616535433072
21
-2.2848217716535433
0
LINE
8
BLACK
6
CONTINUOUS
10
2.8803616535433072
20
-2.2848217716535433
11
2.8788288976377951
21
-2.2847195669291338
0
LINE
8
BLACK
6
CONTINUOUS
10
2.8788288976377951
20
-2.2847195669291338
11
2.8774519291338581
21
-2.2840386220472442
0
LINE
8
BLACK
6
CONTINUOUS
10
2.8774519291338581
20
-2.2840386220472442
11
2.8768892125984253
21
-2.2835103937007872
0
LINE
8
BLACK
6
CONTINUOUS
10
2.8768892125984253
20
-2.2835103937007872
11
2.8742538188976376
21
-2.2804985039370078
0
LINE
8
BLACK
6
CONTINUOUS
10
2.8742538188976376
20
-2.2804985039370078
11
2.8660042125984253
21
-2.2773558267716534
0
LINE
8
BLACK
6
CONTINUOUS
10
2.8660042125984253
20
-2.2773558267716534
11
2.8608916141732283
21
-2.2773558267716534
0
LINE
8
BLACK
6
CONTINUOUS
10
2.8608916141732283
20
-2.2773558267716534
11
2.8526420078740156
21
-2.2804985039370078
0
LINE
8
BLACK
6
CONTINUOUS
10
2.8526420078740156
20
-2.2804985039370078
11
2.8471261417322835
21
-2.2868023622047242
0
LINE
8
BLACK
6
CONTINUOUS
10
2.8471261417322835
20
-2.2868023622047242
11
2.8442449212598424
21
-2.2933879921259841
0
LINE
8
BLACK
6
CONTINUOUS
10
2.8442449212598424
20
-2.2933879921259841
11
2.8411382283464568
21
-2.3075901181102361
0
LINE
8
BLACK
6
CONTINUOUS
10
2.8411382283464568
20
-2.3075901181102361
11
2.8411382283464568
21
-2.317987598425197
0
LINE
8
BLACK
6
CONTINUOUS
10
2.8411382283464568
20
-2.317987598425197
11
2.8442449212598424
21
-2.3321897244094489
0
LINE
8
BLACK
6
CONTINUOUS
10
2.8442449212598424
20
-2.3321897244094489
11
2.8471261417322835
21
-2.3387753543307088
0
LINE
8
BLACK
6
CONTINUOUS
10
2.8471261417322835
20
-2.3387753543307088
11
2.8526420078740156
21
-2.345079251968504
0
LINE
8
BLACK
6
CONTINUOUS
10
2.8526420078740156
20
-2.345079251968504
11
2.8608916141732283
21
-2.3482219685039372
0
LINE
8
BLACK
6
CONTINUOUS
10
2.8608916141732283
20
-2.3482219685039372
11
2.8660042125984253
21
-2.3482219685039372
0
LINE
8
BLACK
6
CONTINUOUS
10
2.8660042125984253
20
-2.3482219685039372
11
2.8742538188976376
21
-2.345079251968504
0
LINE
8
BLACK
6
CONTINUOUS
10
2.8742538188976376
20
-2.345079251968504
11
2.8768892125984253
21
-2.3420673622047246
0
LINE
8
BLACK
6
CONTINUOUS
10
2.8768892125984253
20
-2.3420673622047246
11
2.8774518897637793
21
-2.3415391338582676
0
LINE
8
BLACK
6
CONTINUOUS
10
2.8774518897637793
20
-2.3415391338582676
11
2.8788288976377951
21
-2.3408581496062992
0
LINE
8
BLACK
6
CONTINUOUS
10
2.8788288976377951
20
-2.3408581496062992
11
2.8803616141732284
21
-2.3407559842519685
0
LINE
8
BLACK
6
CONTINUOUS
10
2.8803616141732284
20
-2.3407559842519685
11
2.8818168110236222
21
-2.3412481102362204
0
LINE
8
BLACK
6
CONTINUOUS
10
2.8818168110236222
20
-2.3412481102362204
11
2.8829728740157479
21
-2.3422596456692912
0
LINE
8
BLACK
6
CONTINUOUS
10
2.8829728740157479
20
-2.3422596456692912
11
2.8836538582677163
21
-2.3436366141732283
0
LINE
8
BLACK
6
CONTINUOUS
10
2.8836538582677163
20
-2.3436366141732283
11
2.883756023622047
21
-2.3451693700787399
0
LINE
8
BLACK
6
CONTINUOUS
10
2.883756023622047
20
-2.3451693700787399
11
2.8832638976377951
21
-2.3466245669291337
0
LINE
8
BLACK
6
CONTINUOUS
10
2.8832638976377951
20
-2.3466245669291337
11
2.8828150393700787
21
-2.3472524015748033
0
LINE
8
BLACK
6
CONTINUOUS
10
2.8828150393700787
20
-2.3472524015748033
11
2.8795342125984251
21
-2.3510019685039372
0
LINE
8
BLACK
6
CONTINUOUS
10
2.8795342125984251
20
-2.3510019685039372
11
2.8789715354330707
21
-2.3515301968503937
0
LINE
8
BLACK
6
CONTINUOUS
10
2.8789715354330707
20
-2.3515301968503937
11
2.8788015354330709
21
-2.3516142519685039
0
LINE
8
BLACK
6
CONTINUOUS
10
2.8788015354330709
20
-2.3516142519685039
11
2.8786636614173227
21
-2.3517444488188977
0
LINE
8
BLACK
6
CONTINUOUS
10
2.8786636614173227
20
-2.3517444488188977
11
2.8779728346456692
21
-2.3520885433070866
0
LINE
8
BLACK
6
CONTINUOUS
10
2.8779728346456692
20
-2.3520885433070866
11
2.8681303543307086
21
-2.3558380708661417
0
LINE
8
BLACK
6
CONTINUOUS
10
2.8681303543307086
20
-2.3558380708661417
11
2.867565866141732
21
-2.3559917322834645
0
LINE
8
BLACK
6
CONTINUOUS
10
2.867565866141732
20
-2.3559917322834645
11
2.8674968503937008
21
-2.3560203543307088
0
LINE
8
BLACK
6
CONTINUOUS
10
2.8674968503937008
20
-2.3560203543307088
11
2.867440433070866
21
-2.3560259055118111
0
LINE
8
BLACK
6
CONTINUOUS
10
2.867440433070866
20
-2.3560259055118111
11
2.8673856692913384
21
-2.3560408267716535
0
LINE
8
BLACK
6
CONTINUOUS
10
2.8673856692913384
20
-2.3560408267716535
11
2.8673107874015749
21
-2.356038661417323
0
LINE
8
BLACK
6
CONTINUOUS
10
2.8673107874015749
20
-2.356038661417323
11
2.8667287795275591
21
-2.3560959842519686
0
LINE
8
BLACK
6
CONTINUOUS
10
2.8667287795275591
20
-2.3560959842519686
11
2.8601670866141733
21
-2.3560959842519686
0
LINE
8
BLACK
6
CONTINUOUS
10
2.8601670866141733
20
-2.3560959842519686
11
2.8595850393700788
21
-2.356038661417323
0
LINE
8
BLACK
6
CONTINUOUS
10
2.8595850393700788
20
-2.356038661417323
11
2.8595101968503935
21
-2.3560408267716535
0
LINE
8
BLACK
6
CONTINUOUS
10
2.8595101968503935
20
-2.3560408267716535
11
2.8594553937007872
21
-2.3560259055118111
0
LINE
8
BLACK
6
CONTINUOUS
10
2.8594553937007872
20
-2.3560259055118111
11
2.8593990157480316
21
-2.3560203543307088
0
LINE
8
BLACK
6
CONTINUOUS
10
2.8593990157480316
20
-2.3560203543307088
11
2.8593299606299212
21
-2.3559917322834645
0
LINE
8
BLACK
6
CONTINUOUS
10
2.8593299606299212
20
-2.3559917322834645
11
2.8587655118110233
21
-2.3558380708661417
0
LINE
8
BLACK
6
CONTINUOUS
10
2.8587655118110233
20
-2.3558380708661417
11
2.848922992125984
21
-2.3520885433070866
0
LINE
8
BLACK
6
CONTINUOUS
10
2.848922992125984
20
-2.3520885433070866
11
2.8482321653543305
21
-2.3517444488188977
0
LINE
8
BLACK
6
CONTINUOUS
10
2.8482321653543305
20
-2.3517444488188977
11
2.8480941732283465
21
-2.3516141732283464
0
LINE
8
BLACK
6
CONTINUOUS
10
2.8480941732283465
20
-2.3516141732283464
11
2.84792437007874
21
-2.3515301968503937
0
LINE
8
BLACK
6
CONTINUOUS
10
2.84792437007874
20
-2.3515301968503937
11
2.8473616535433068
21
-2.3510019685039372
0
LINE
8
BLACK
6
CONTINUOUS
10
2.8473616535433068
20
-2.3510019685039372
11
2.8407999999999998
21
-2.3435028740157482
0
LINE
8
BLACK
6
CONTINUOUS
10
2.8407999999999998
20
-2.3435028740157482
11
2.8406066141732285
21
-2.3432324015748032
0
LINE
8
BLACK
6
CONTINUOUS
10
2.8406066141732285
20
-2.3432324015748032
11
2.8405331496062991
21
-2.3431617716535431
0
LINE
8
BLACK
6
CONTINUOUS
10
2.8405331496062991
20
-2.3431617716535431
11
2.8404499606299214
21
-2.3430133070866139
0
LINE
8
BLACK
6
CONTINUOUS
10
2.8404499606299214
20
-2.3430133070866139
11
2.8403511417322833
21
-2.3428750393700786
0
LINE
8
BLACK
6
CONTINUOUS
10
2.8403511417322833
20
-2.3428750393700786
11
2.840318503937008
21
-2.3427785433070865
0
LINE
8
BLACK
6
CONTINUOUS
10
2.840318503937008
20
-2.3427785433070865
11
2.8401559842519686
21
-2.3424883858267718
0
LINE
8
BLACK
6
CONTINUOUS
10
2.8401559842519686
20
-2.3424883858267718
11
2.8368751181102363
21
-2.3349893307086615
0
LINE
8
BLACK
6
CONTINUOUS
10
2.8368751181102363
20
-2.3349893307086615
11
2.8368744881889763
21
-2.3349874803149606
0
LINE
8
BLACK
6
CONTINUOUS
10
2.8368744881889763
20
-2.3349874803149606
11
2.8368740157480312
21
-2.3349867716535431
0
LINE
8
BLACK
6
CONTINUOUS
10
2.8368740157480312
20
-2.3349867716535431
11
2.8367595669291337
21
-2.3346338188976379
0
LINE
8
BLACK
6
CONTINUOUS
10
2.8367595669291337
20
-2.3346338188976379
11
2.8366365748031495
21
-2.3342553543307085
0
LINE
8
BLACK
6
CONTINUOUS
10
2.8366365748031495
20
-2.3342553543307085
11
2.8366365354330707
21
-2.3342543700787401
0
LINE
8
BLACK
6
CONTINUOUS
10
2.8366365354330707
20
-2.3342543700787401
11
2.8366359842519686
21
-2.3342526377952755
0
LINE
8
BLACK
6
CONTINUOUS
10
2.8366359842519686
20
-2.3342526377952755
11
2.8333551574803151
21
-2.319254527559055
0
LINE
8
BLACK
6
CONTINUOUS
10
2.8333551574803151
20
-2.319254527559055
11
2.8333491732283465
21
-2.3192038188976376
0
LINE
8
BLACK
6
CONTINUOUS
10
2.8333491732283465
20
-2.3192038188976376
11
2.8333398425196852
21
-2.3191812598425194
0
LINE
8
BLACK
6
CONTINUOUS
10
2.8333398425196852
20
-2.3191812598425194
11
2.8333056299212598
21
-2.3188338976377953
0
LINE
8
BLACK
6
CONTINUOUS
10
2.8333056299212598
20
-2.3188338976377953
11
2.8332649212598424
21
-2.318488031496063
0
LINE
8
BLACK
6
CONTINUOUS
10
2.8332649212598424
20
-2.318488031496063
11
2.8332692125984251
21
-2.3184640157480314
0
LINE
8
BLACK
6
CONTINUOUS
10
2.8332692125984251
20
-2.3184640157480314
11
2.8332642125984253
21
-2.3184131889763777
0
LINE
8
BLACK
6
CONTINUOUS
10
2.8332642125984253
20
-2.3184131889763777
11
2.8332642125984253
21
-2.3071645669291336
0
LINE
8
BLACK
6
CONTINUOUS
10
2.8332642125984253
20
-2.3071645669291336
11
2.8332692125984251
21
-2.3071137007874016
0
LINE
8
BLACK
6
CONTINUOUS
10
2.8332692125984251
20
-2.3071137007874016
11
2.8332649212598424
21
-2.3070897244094488
0
LINE
8
BLACK
6
CONTINUOUS
10
2.8332649212598424
20
-2.3070897244094488
11
2.8333056299212598
21
-2.3067438188976377
0
LINE
8
BLACK
6
CONTINUOUS
10
2.8333056299212598
20
-2.3067438188976377
11
2.8333398425196852
21
-2.3063964960629919
0
LINE
8
BLACK
6
CONTINUOUS
10
2.8333398425196852
20
-2.3063964960629919
11
2.8333491732283465
21
-2.3063738976377954
0
LINE
8
BLACK
6
CONTINUOUS
10
2.8333491732283465
20
-2.3063738976377954
11
2.8333551574803151
21
-2.3063232283464568
0
LINE
8
BLACK
6
CONTINUOUS
10
2.8333551574803151
20
-2.3063232283464568
11
2.8366359842519686
21
-2.2913251181102363
0
LINE
8
BLACK
6
CONTINUOUS
10
2.8366359842519686
20
-2.2913251181102363
11
2.8366365354330707
21
-2.2913233464566929
0
LINE
8
BLACK
6
CONTINUOUS
10
2.8366365354330707
20
-2.2913233464566929
11
2.8366365748031495
21
-2.2913224015748033
0
LINE
8
BLACK
6
CONTINUOUS
10
2.8366365748031495
20
-2.2913224015748033
11
2.8367595669291337
21
-2.2909438976377952
0
LINE
8
BLACK
6
CONTINUOUS
10
2.8367595669291337
20
-2.2909438976377952
11
2.8368740157480312
21
-2.2905909842519683
0
LINE
8
BLACK
6
CONTINUOUS
10
2.8368740157480312
20
-2.2905909842519683
11
2.8368744881889763
21
-2.2905902362204724
0
LINE
8
BLACK
6
CONTINUOUS
10
2.8368744881889763
20
-2.2905902362204724
11
2.8368751181102363
21
-2.2905884251968502
0
LINE
8
BLACK
6
CONTINUOUS
10
2.8368751181102363
20
-2.2905884251968502
11
2.8401559842519686
21
-2.28308937007874
0
LINE
8
BLACK
6
CONTINUOUS
10
2.8401559842519686
20
-2.28308937007874
11
2.840318503937008
21
-2.2827991732283466
0
LINE
8
BLACK
6
CONTINUOUS
10
2.840318503937008
20
-2.2827991732283466
11
2.8403511417322833
21
-2.2827027165354332
0
LINE
8
BLACK
6
CONTINUOUS
10
2.8403511417322833
20
-2.2827027165354332
11
2.8404499606299214
21
-2.2825644094488187
0
LINE
8
BLACK
6
CONTINUOUS
10
2.8404499606299214
20
-2.2825644094488187
11
2.8405331496062991
21
-2.2824159842519682
0
LINE
8
BLACK
6
CONTINUOUS
10
2.8405331496062991
20
-2.2824159842519682
11
2.8406066141732285
21
-2.2823453149606299
0
LINE
8
BLACK
6
CONTINUOUS
10
2.8406066141732285
20
-2.2823453149606299
11
2.8407999999999998
21
-2.2820748818897636
0
LINE
8
BLACK
6
CONTINUOUS
10
2.8407999999999998
20
-2.2820748818897636
11
2.8473616535433068
21
-2.2745758267716534
0
LINE
8
BLACK
6
CONTINUOUS
10
2.8473616535433068
20
-2.2745758267716534
11
2.84792437007874
21
-2.2740475984251969
0
LINE
8
BLACK
6
CONTINUOUS
10
2.84792437007874
20
-2.2740475984251969
11
2.8480941732283465
21
-2.2739635826771654
0
LINE
8
BLACK
6
CONTINUOUS
10
2.8480941732283465
20
-2.2739635826771654
11
2.8482321653543305
21
-2.2738333464566929
0
LINE
8
BLACK
6
CONTINUOUS
10
2.8482321653543305
20
-2.2738333464566929
11
2.848922992125984
21
-2.2734892519685039
0
LINE
8
BLACK
6
CONTINUOUS
10
2.848922992125984
20
-2.2734892519685039
11
2.8587655118110233
21
-2.2697397244094488
0
LINE
8
BLACK
6
CONTINUOUS
10
2.8587655118110233
20
-2.2697397244094488
11
2.8593299606299212
21
-2.2695860236220473
0
LINE
8
BLACK
6
CONTINUOUS
10
2.8593299606299212
20
-2.2695860236220473
11
2.8593990157480316
21
-2.2695574409448818
0
LINE
8
BLACK
6
CONTINUOUS
10
2.8593990157480316
20
-2.2695574409448818
11
2.8594553937007872
21
-2.2695518503937007
0
LINE
8
BLACK
6
CONTINUOUS
10
2.8594553937007872
20
-2.2695518503937007
11
2.8595101968503935
21
-2.269536968503937
0
LINE
8
BLACK
6
CONTINUOUS
10
2.8595101968503935
20
-2.269536968503937
11
2.8595850393700788
21
-2.2695390944881888
0
LINE
8
BLACK
6
CONTINUOUS
10
2.8595850393700788
20
-2.2695390944881888
11
2.8601670866141733
21
-2.2694818110236219
0
LINE
8
BLACK
6
CONTINUOUS
10
2.8601670866141733
20
-2.2694818110236219
11
2.8667287795275591
21
-2.2694818110236219
0
LINE
8
BLACK
6
CONTINUOUS
10
2.8667287795275591
20
-2.2694818110236219
11
2.8673107874015749
21
-2.2695390944881888
0
LINE
8
BLACK
6
CONTINUOUS
10
2.9298327952755905
20
-2.2958041338582675
11
2.9300646062992124
21
-2.2959001574803151
0
LINE
8
BLACK
6
CONTINUOUS
10
2.9300646062992124
20
-2.2959001574803151
11
2.9303136220472439
21
-2.295931811023622
0
LINE
8
BLACK
6
CONTINUOUS
10
2.9303136220472439
20
-2.295931811023622
11
2.931018031496063
21
-2.2962472440944883
0
LINE
8
BLACK
6
CONTINUOUS
10
2.931018031496063
20
-2.2962472440944883
11
2.9375797244094488
21
-2.2999967716535434
0
LINE
8
BLACK
6
CONTINUOUS
10
2.9375797244094488
20
-2.2999967716535434
11
2.9376931496062992
21
-2.3000772834645669
0
LINE
8
BLACK
6
CONTINUOUS
10
2.9376931496062992
20
-2.3000772834645669
11
2.937748779527559
21
-2.30009905511811
0
LINE
8
BLACK
6
CONTINUOUS
10
2.937748779527559
20
-2.30009905511811
11
2.9378192125984253
21
-2.3001667716535432
0
LINE
8
BLACK
6
CONTINUOUS
10
2.9378192125984253
20
-2.3001667716535432
11
2.9382090551181101
21
-2.3004435039370077
0
LINE
8
BLACK
6
CONTINUOUS
10
2.9382090551181101
20
-2.3004435039370077
11
2.938506220472441
21
-2.3008272440944881
0
LINE
8
BLACK
6
CONTINUOUS
10
2.938506220472441
20
-2.3008272440944881
11
2.9388561811023624
21
-2.301163661417323
0
LINE
8
BLACK
6
CONTINUOUS
10
2.9388561811023624
20
-2.301163661417323
11
2.9390898031496064
21
-2.3015807874015746
0
LINE
8
BLACK
6
CONTINUOUS
10
2.9390898031496064
20
-2.3015807874015746
11
2.9391496456692914
21
-2.3016580314960629
0
LINE
8
BLACK
6
CONTINUOUS
10
2.9391496456692914
20
-2.3016580314960629
11
2.93916531496063
21
-2.301715590551181
0
LINE
8
BLACK
6
CONTINUOUS
10
2.93916531496063
20
-2.301715590551181
11
2.9392333464566929
21
-2.3018370078740156
0
LINE
8
BLACK
6
CONTINUOUS
10
2.9392333464566929
20
-2.3018370078740156
11
2.9425141732283464
21
-2.3093361023622045
0
LINE
8
BLACK
6
CONTINUOUS
10
2.9425141732283464
20
-2.3093361023622045
11
2.9427527165354328
21
-2.3100700787401576
0
LINE
8
BLACK
6
CONTINUOUS
10
2.9427527165354328
20
-2.3100700787401576
11
2.9427534645669291
21
-2.3101095275590549
0
LINE
8
BLACK
6
CONTINUOUS
10
2.9427534645669291
20
-2.3101095275590549
11
2.942768622047244
21
-2.3101460629921258
0
LINE
8
BLACK
6
CONTINUOUS
10
2.942768622047244
20
-2.3101460629921258
11
2.9428442519685039
21
-2.3109141338582675
0
LINE
8
BLACK
6
CONTINUOUS
10
2.9428442519685039
20
-2.3109141338582675
11
2.9428442519685039
21
-2.3521589763779529
0
LINE
8
BLACK
6
CONTINUOUS
10
2.9428442519685039
20
-2.3521589763779529
11
2.942768622047244
21
-2.3529270472440946
0
LINE
8
BLACK
6
CONTINUOUS
10
2.942768622047244
20
-2.3529270472440946
11
2.9421807480314959
21
-2.3543462598425196
0
LINE
8
BLACK
6
CONTINUOUS
10
2.9421807480314959
20
-2.3543462598425196
11
2.9410945275590552
21
-2.3554324803149607
0
LINE
8
BLACK
6
CONTINUOUS
10
2.9410945275590552
20
-2.3554324803149607
11
2.9396753149606298
21
-2.3560203543307088
0
LINE
8
BLACK
6
CONTINUOUS
10
2.9396753149606298
20
-2.3560203543307088
11
2.9381391732283464
21
-2.3560203543307088
0
LINE
8
BLACK
6
CONTINUOUS
10
2.9381391732283464
20
-2.3560203543307088
11
2.936719960629921
21
-2.3554324803149607
0
LINE
8
BLACK
6
CONTINUOUS
10
2.936719960629921
20
-2.3554324803149607
11
2.9359316929133858
21
-2.354644212598425
0
LINE
8
BLACK
6
CONTINUOUS
10
2.9359316929133858
20
-2.354644212598425
11
2.9342988976377953
21
-2.355577244094488
0
LINE
8
BLACK
6
CONTINUOUS
10
2.9342988976377953
20
-2.355577244094488
11
2.9335944881889762
21
-2.3558926771653543
0
LINE
8
BLACK
6
CONTINUOUS
10
2.9335944881889762
20
-2.3558926771653543
11
2.9333454724409447
21
-2.3559242913385825
0
LINE
8
BLACK
6
CONTINUOUS
10
2.9333454724409447
20
-2.3559242913385825
11
2.9331136614173228
21
-2.3560203543307088
0
LINE
8
BLACK
6
CONTINUOUS
10
2.9331136614173228
20
-2.3560203543307088
11
2.932345590551181
21
-2.3560959842519686
0
LINE
8
BLACK
6
CONTINUOUS
10
2.932345590551181
20
-2.3560959842519686
11
2.9159413779527559
21
-2.3560959842519686
0
LINE
8
BLACK
6
CONTINUOUS
10
2.9159413779527559
20
-2.3560959842519686
11
2.9151733070866142
21
-2.3560203543307088
0
LINE
8
BLACK
6
CONTINUOUS
10
2.9151733070866142
20
-2.3560203543307088
11
2.9149414566929135
21
-2.3559242913385825
0
LINE
8
BLACK
6
CONTINUOUS
10
2.9149414566929135
20
-2.3559242913385825
11
2.9146924803149608
21
-2.3558926771653543
0
LINE
8
BLACK
6
CONTINUOUS
10
2.9146924803149608
20
-2.3558926771653543
11
2.9139880708661416
21
-2.355577244094488
0
LINE
8
BLACK
6
CONTINUOUS
10
2.9139880708661416
20
-2.355577244094488
11
2.9074263779527558
21
-2.3518277165354329
0
LINE
8
BLACK
6
CONTINUOUS
10
2.9074263779527558
20
-2.3518277165354329
11
2.9073127952755904
21
-2.3517470866141732
0
LINE
8
BLACK
6
CONTINUOUS
10
2.9073127952755904
20
-2.3517470866141732
11
2.9072573228346457
21
-2.3517253937007871
0
LINE
8
BLACK
6
CONTINUOUS
10
2.9072573228346457
20
-2.3517253937007871
11
2.9071869685039369
21
-2.3516577559055118
0
LINE
8
BLACK
6
CONTINUOUS
10
2.9071869685039369
20
-2.3516577559055118
11
2.9067970472440945
21
-2.3513809842519686
0
LINE
8
BLACK
6
CONTINUOUS
10
2.9067970472440945
20
-2.3513809842519686
11
2.9064999212598424
21
-2.3509973228346457
0
LINE
8
BLACK
6
CONTINUOUS
10
2.9064999212598424
20
-2.3509973228346457
11
2.9061498818897635
21
-2.3506608267716533
0
LINE
8
BLACK
6
CONTINUOUS
10
2.9061498818897635
20
-2.3506608267716533
11
2.9059161417322832
21
-2.3502434645669292
0
LINE
8
BLACK
6
CONTINUOUS
10
2.9059161417322832
20
-2.3502434645669292
11
2.905856496062992
21
-2.3501664566929135
0
LINE
8
BLACK
6
CONTINUOUS
10
2.905856496062992
20
-2.3501664566929135
11
2.9058407874015746
21
-2.350108937007874
0
LINE
8
BLACK
6
CONTINUOUS
10
2.9058407874015746
20
-2.350108937007874
11
2.9057727559055118
21
-2.349987440944882
0
LINE
8
BLACK
6
CONTINUOUS
10
2.9057727559055118
20
-2.349987440944882
11
2.9024919291338582
21
-2.3424883858267718
0
LINE
8
BLACK
6
CONTINUOUS
10
2.9024919291338582
20
-2.3424883858267718
11
2.9022533858267714
21
-2.34175437007874
0
LINE
8
BLACK
6
CONTINUOUS
10
2.9022533858267714
20
-2.34175437007874
11
2.9022525984251968
21
-2.3417149212598423
0
LINE
8
BLACK
6
CONTINUOUS
10
2.9022525984251968
20
-2.3417149212598423
11
2.9022374803149606
21
-2.3416784251968505
0
LINE
8
BLACK
6
CONTINUOUS
10
2.9022374803149606
20
-2.3416784251968505
11
2.9021618503937008
21
-2.3409103543307088
0
LINE
8
BLACK
6
CONTINUOUS
10
2.9021618503937008
20
-2.3409103543307088
11
2.9021618503937008
21
-2.3334112992125982
0
LINE
8
BLACK
6
CONTINUOUS
10
2.9021618503937008
20
-2.3334112992125982
11
2.9022374803149606
21
-2.3326432283464564
0
LINE
8
BLACK
6
CONTINUOUS
10
2.9022374803149606
20
-2.3326432283464564
11
2.9022525984251968
21
-2.332606692913386
0
LINE
8
BLACK
6
CONTINUOUS
10
2.9022525984251968
20
-2.332606692913386
11
2.9022533858267714
21
-2.332567283464567
0
LINE
8
BLACK
6
CONTINUOUS
10
2.9022533858267714
20
-2.332567283464567
11
2.9024919291338582
21
-2.3318332677165352
0
LINE
8
BLACK
6
CONTINUOUS
10
2.9024919291338582
20
-2.3318332677165352
11
2.9057727559055118
21
-2.3243342519685037
0
LINE
8
BLACK
6
CONTINUOUS
10
2.9057727559055118
20
-2.3243342519685037
11
2.9058407874015746
21
-2.3242127165354329
0
LINE
8
BLACK
6
CONTINUOUS
10
2.9058407874015746
20
-2.3242127165354329
11
2.905856496062992
21
-2.3241552362204723
0
LINE
8
BLACK
6
CONTINUOUS
10
2.905856496062992
20
-2.3241552362204723
11
2.9059161811023619
21
-2.3240781102362202
0
LINE
8
BLACK
6
CONTINUOUS
10
2.9059161811023619
20
-2.3240781102362202
11
2.9061499212598423
21
-2.3236608661417324
0
LINE
8
BLACK
6
CONTINUOUS
10
2.9061499212598423
20
-2.3236608661417324
11
2.9064998425196849
21
-2.3233244488188975
0
LINE
8
BLACK
6
CONTINUOUS
10
2.9064998425196849
20
-2.3233244488188975
11
2.9067970472440945
21
-2.3229407086614171
0
LINE
8
BLACK
6
CONTINUOUS
10
2.9067970472440945
20
-2.3229407086614171
11
2.9071870078740156
21
-2.3226638582677164
0
LINE
8
BLACK
6
CONTINUOUS
10
2.9071870078740156
20
-2.3226638582677164
11
2.9072573228346457
21
-2.3225962992125986
0
LINE
8
BLACK
6
CONTINUOUS
10
2.9072573228346457
20
-2.3225962992125986
11
2.9073127952755904
21
-2.3225745669291338
0
LINE
8
BLACK
6
CONTINUOUS
10
2.9073127952755904
20
-2.3225745669291338
11
2.9074263779527558
21
-2.3224939763779529
0
LINE
8
BLACK
6
CONTINUOUS
10
2.9074263779527558
20
-2.3224939763779529
11
2.9139880708661416
21
-2.3187444488188977
0
LINE
8
BLACK
6
CONTINUOUS
10
2.9139880708661416
20
-2.3187444488188977
11
2.9146924803149608
21
-2.3184290157480314
0
LINE
8
BLACK
6
CONTINUOUS
10
2.9146924803149608
20
-2.3184290157480314
11
2.9149414566929135
21
-2.3183973622047245
0
LINE
8
BLACK
6
CONTINUOUS
10
2.9149414566929135
20
-2.3183973622047245
11
2.9151733070866142
21
-2.318301338582677
0
LINE
8
BLACK
6
CONTINUOUS
10
2.9151733070866142
20
-2.318301338582677
11
2.9159413779527559
21
-2.3182257086614171
0
LINE
8
BLACK
6
CONTINUOUS
10
2.9159413779527559
20
-2.3182257086614171
11
2.9313000787401573
21
-2.3182257086614171
0
LINE
8
BLACK
6
CONTINUOUS
10
2.9313000787401573
20
-2.3182257086614171
11
2.9349702362204724
21
-2.3161284645669289
0
LINE
8
BLACK
6
CONTINUOUS
10
2.9349702362204724
20
-2.3161284645669289
11
2.9349702362204724
21
-2.3117376377952756
0
LINE
8
BLACK
6
CONTINUOUS
10
2.9349702362204724
20
-2.3117376377952756
11
2.9325417322834646
21
-2.3061868110236219
0
LINE
8
BLACK
6
CONTINUOUS
10
2.9325417322834646
20
-2.3061868110236219
11
2.928019212598425
21
-2.3036025196850392
0
LINE
8
BLACK
6
CONTINUOUS
10
2.928019212598425
20
-2.3036025196850392
11
2.9169868897637796
21
-2.3036025196850392
0
LINE
8
BLACK
6
CONTINUOUS
10
2.9169868897637796
20
-2.3036025196850392
11
2.9113329921259843
21
-2.306833307086614
0
LINE
8
BLACK
6
CONTINUOUS
10
2.9113329921259843
20
-2.306833307086614
11
2.9106285826771652
21
-2.3071487401574804
0
LINE
8
BLACK
6
CONTINUOUS
10
2.9106285826771652
20
-2.3071487401574804
11
2.9091046850393698
21
-2.3073424409448817
0
LINE
8
BLACK
6
CONTINUOUS
10
2.9091046850393698
20
-2.3073424409448817
11
2.9076226771653544
21
-2.3069382283464566
0
LINE
8
BLACK
6
CONTINUOUS
10
2.9076226771653544
20
-2.3069382283464566
11
2.9064081496062992
21
-2.3059976771653541
0
LINE
8
BLACK
6
CONTINUOUS
10
2.9064081496062992
20
-2.3059976771653541
11
2.9056459842519686
21
-2.3046639370078741
0
LINE
8
BLACK
6
CONTINUOUS
10
2.9056459842519686
20
-2.3046639370078741
11
2.9054522834645669
21
-2.3031400393700787
0
LINE
8
BLACK
6
CONTINUOUS
10
2.9054522834645669
20
-2.3031400393700787
11
2.905856496062992
21
-2.3016580314960629
0
LINE
8
BLACK
6
CONTINUOUS
10
2.905856496062992
20
-2.3016580314960629
11
2.9067970472440945
21
-2.3004435039370077
0
LINE
8
BLACK
6
CONTINUOUS
10
2.9067970472440945
20
-2.3004435039370077
11
2.9074263779527558
21
-2.2999967716535434
0
LINE
8
BLACK
6
CONTINUOUS
10
2.9074263779527558
20
-2.2999967716535434
11
2.9139880708661416
21
-2.2962472440944883
0
LINE
8
BLACK
6
CONTINUOUS
10
2.9139880708661416
20
-2.2962472440944883
11
2.9146924803149608
21
-2.295931811023622
0
LINE
8
BLACK
6
CONTINUOUS
10
2.9146924803149608
20
-2.295931811023622
11
2.9149414566929135
21
-2.2959001574803151
0
LINE
8
BLACK
6
CONTINUOUS
10
2.9149414566929135
20
-2.2959001574803151
11
2.9151733070866142
21
-2.2958041338582675
0
LINE
8
BLACK
6
CONTINUOUS
10
2.9151733070866142
20
-2.2958041338582675
11
2.9159413779527559
21
-2.2957285039370077
0
LINE
8
BLACK
6
CONTINUOUS
10
2.9159413779527559
20
-2.2957285039370077
11
2.9290647244094488
21
-2.2957285039370077
0
LINE
8
BLACK
6
CONTINUOUS
10
2.9290647244094488
20
-2.2957285039370077
11
2.9298327952755905
21
-2.2958041338582675
0
LINE
8
BLACK
6
CONTINUOUS
10
2.9342988976377953
20
-2.3255809842519684
11
2.9335944881889762
21
-2.3258964173228347
0
LINE
8
BLACK
6
CONTINUOUS
10
2.9335944881889762
20
-2.3258964173228347
11
2.9333454724409447
21
-2.3259280314960629
0
LINE
8
BLACK
6
CONTINUOUS
10
2.9333454724409447
20
-2.3259280314960629
11
2.9331136614173228
21
-2.3260240944881891
0
LINE
8
BLACK
6
CONTINUOUS
10
2.9331136614173228
20
-2.3260240944881891
11
2.932345590551181
21
-2.3260997244094486
0
LINE
8
BLACK
6
CONTINUOUS
10
2.932345590551181
20
-2.3260997244094486
11
2.9169868897637796
21
-2.3260997244094486
0
LINE
8
BLACK
6
CONTINUOUS
10
2.9169868897637796
20
-2.3260997244094486
11
2.9124643307086613
21
-2.3286840157480313
0
LINE
8
BLACK
6
CONTINUOUS
10
2.9124643307086613
20
-2.3286840157480313
11
2.9100358661417323
21
-2.334234842519685
0
LINE
8
BLACK
6
CONTINUOUS
10
2.9100358661417323
20
-2.334234842519685
11
2.9100358661417323
21
-2.3400867716535432
0
LINE
8
BLACK
6
CONTINUOUS
10
2.9100358661417323
20
-2.3400867716535432
11
2.9124643307086613
21
-2.3456376377952757
0
LINE
8
BLACK
6
CONTINUOUS
10
2.9124643307086613
20
-2.3456376377952757
11
2.9169868897637796
21
-2.3482219685039372
0
LINE
8
BLACK
6
CONTINUOUS
10
2.9169868897637796
20
-2.3482219685039372
11
2.9313000787401573
21
-2.3482219685039372
0
LINE
8
BLACK
6
CONTINUOUS
10
2.9313000787401573
20
-2.3482219685039372
11
2.9349702362204724
21
-2.346124724409449
0
LINE
8
BLACK
6
CONTINUOUS
10
2.9349702362204724
20
-2.346124724409449
11
2.9349702362204724
21
-2.3251973228346454
0
LINE
8
BLACK
6
CONTINUOUS
10
2.9349702362204724
20
-2.3251973228346454
11
2.9342988976377953
21
-2.3255809842519684
0
LINE
8
BLACK
6
CONTINUOUS
10
2.9921687401574801
20
-2.2958041338582675
11
2.9924005511811025
21
-2.2959001574803151
0
LINE
8
BLACK
6
CONTINUOUS
10
2.9924005511811025
20
-2.2959001574803151
11
2.992649566929134
21
-2.295931811023622
0
LINE
8
BLACK
6
CONTINUOUS
10
2.992649566929134
20
-2.295931811023622
11
2.9933539763779526
21
-2.2962472440944883
0
LINE
8
BLACK
6
CONTINUOUS
10
2.9933539763779526
20
-2.2962472440944883
11
2.9999156692913385
21
-2.2999967716535434
0
LINE
8
BLACK
6
CONTINUOUS
10
2.9999156692913385
20
-2.2999967716535434
11
3.0000290944881889
21
-2.3000772834645669
0
LINE
8
BLACK
6
CONTINUOUS
10
3.0000290944881889
20
-2.3000772834645669
11
3.0000847244094486
21
-2.30009905511811
0
LINE
8
BLACK
6
CONTINUOUS
10
3.0000847244094486
20
-2.30009905511811
11
3.0001551574803149
21
-2.3001667716535432
0
LINE
8
BLACK
6
CONTINUOUS
10
3.0001551574803149
20
-2.3001667716535432
11
3.0005449999999998
21
-2.3004435039370077
0
LINE
8
BLACK
6
CONTINUOUS
10
3.0005449999999998
20
-2.3004435039370077
11
3.0008421653543307
21
-2.3008272440944881
0
LINE
8
BLACK
6
CONTINUOUS
10
3.0008421653543307
20
-2.3008272440944881
11
3.001192125984252
21
-2.301163661417323
0
LINE
8
BLACK
6
CONTINUOUS
10
3.001192125984252
20
-2.301163661417323
11
3.0012431889763778
21
-2.3012548031496061
0
LINE
8
BLACK
6
CONTINUOUS
10
3.0012431889763778
20
-2.3012548031496061
11
3.0012942913385827
21
-2.3011636220472442
0
LINE
8
BLACK
6
CONTINUOUS
10
3.0012942913385827
20
-2.3011636220472442
11
3.001644251968504
21
-2.3008271653543306
0
LINE
8
BLACK
6
CONTINUOUS
10
3.001644251968504
20
-2.3008271653543306
11
3.0019414173228345
21
-2.3004435039370077
0
LINE
8
BLACK
6
CONTINUOUS
10
3.0019414173228345
20
-2.3004435039370077
11
3.0023313385826773
21
-2.3001666929133857
0
LINE
8
BLACK
6
CONTINUOUS
10
3.0023313385826773
20
-2.3001666929133857
11
3.0024017322834644
21
-2.30009905511811
0
LINE
8
BLACK
6
CONTINUOUS
10
3.0024017322834644
20
-2.30009905511811
11
3.0024572440944883
21
-2.3000772834645669
0
LINE
8
BLACK
6
CONTINUOUS
10
3.0024572440944883
20
-2.3000772834645669
11
3.0025707480314958
21
-2.2999967716535434
0
LINE
8
BLACK
6
CONTINUOUS
10
3.0025707480314958
20
-2.2999967716535434
11
3.0091324015748029
21
-2.2962472440944883
0
LINE
8
BLACK
6
CONTINUOUS
10
3.0091324015748029
20
-2.2962472440944883
11
3.009836811023622
21
-2.295931811023622
0
LINE
8
BLACK
6
CONTINUOUS
10
3.009836811023622
20
-2.295931811023622
11
3.0100857874015747
21
-2.2959001574803151
0
LINE
8
BLACK
6
CONTINUOUS
10
3.0100857874015747
20
-2.2959001574803151
11
3.0103176377952754
21
-2.2958041338582675
0
LINE
8
BLACK
6
CONTINUOUS
10
3.0103176377952754
20
-2.2958041338582675
11
3.0110857086614171
21
-2.2957285039370077
0
LINE
8
BLACK
6
CONTINUOUS
10
3.0110857086614171
20
-2.2957285039370077
11
3.0209282283464565
21
-2.2957285039370077
0
LINE
8
BLACK
6
CONTINUOUS
10
3.0209282283464565
20
-2.2957285039370077
11
3.0216962992125982
21
-2.2958041338582675
0
LINE
8
BLACK
6
CONTINUOUS
10
3.0216962992125982
20
-2.2958041338582675
11
3.0219281102362205
21
-2.2959001574803151
0
LINE
8
BLACK
6
CONTINUOUS
10
3.0219281102362205
20
-2.2959001574803151
11
3.022177125984252
21
-2.295931811023622
0
LINE
8
BLACK
6
CONTINUOUS
10
3.022177125984252
20
-2.295931811023622
11
3.0228815354330707
21
-2.2962472440944883
0
LINE
8
BLACK
6
CONTINUOUS
10
3.0228815354330707
20
-2.2962472440944883
11
3.0294432283464565
21
-2.2999967716535434
0
LINE
8
BLACK
6
CONTINUOUS
10
3.0294432283464565
20
-2.2999967716535434
11
3.0295566535433069
21
-2.3000772834645669
0
LINE
8
BLACK
6
CONTINUOUS
10
3.0295566535433069
20
-2.3000772834645669
11
3.0296122834645667
21
-2.30009905511811
0
LINE
8
BLACK
6
CONTINUOUS
10
3.0296122834645667
20
-2.30009905511811
11
3.029682716535433
21
-2.3001667716535432
0
LINE
8
BLACK
6
CONTINUOUS
10
3.029682716535433
20
-2.3001667716535432
11
3.0300725590551179
21
-2.3004435039370077
0
LINE
8
BLACK
6
CONTINUOUS
10
3.0300725590551179
20
-2.3004435039370077
11
3.0303697244094487
21
-2.3008272440944881
0
LINE
8
BLACK
6
CONTINUOUS
10
3.0303697244094487
20
-2.3008272440944881
11
3.0307196850393701
21
-2.301163661417323
0
LINE
8
BLACK
6
CONTINUOUS
10
3.0307196850393701
20
-2.301163661417323
11
3.0309533070866141
21
-2.3015807874015746
0
LINE
8
BLACK
6
CONTINUOUS
10
3.0309533070866141
20
-2.3015807874015746
11
3.0310131496062991
21
-2.3016580314960629
0
LINE
8
BLACK
6
CONTINUOUS
10
3.0310131496062991
20
-2.3016580314960629
11
3.0310288188976378
21
-2.301715590551181
0
LINE
8
BLACK
6
CONTINUOUS
10
3.0310288188976378
20
-2.301715590551181
11
3.0310968503937006
21
-2.3018370078740156
0
LINE
8
BLACK
6
CONTINUOUS
10
3.0310968503937006
20
-2.3018370078740156
11
3.0343776771653541
21
-2.3093361023622045
0
LINE
8
BLACK
6
CONTINUOUS
10
3.0343776771653541
20
-2.3093361023622045
11
3.034616220472441
21
-2.3100700787401576
0
LINE
8
BLACK
6
CONTINUOUS
10
3.034616220472441
20
-2.3100700787401576
11
3.0346169685039368
21
-2.3101095275590549
0
LINE
8
BLACK
6
CONTINUOUS
10
3.0346169685039368
20
-2.3101095275590549
11
3.0346321259842517
21
-2.3101460629921258
0
LINE
8
BLACK
6
CONTINUOUS
10
3.0346321259842517
20
-2.3101460629921258
11
3.0347077559055116
21
-2.3109141338582675
0
LINE
8
BLACK
6
CONTINUOUS
10
3.0347077559055116
20
-2.3109141338582675
11
3.0347077559055116
21
-2.3521589763779529
0
LINE
8
BLACK
6
CONTINUOUS
10
3.0347077559055116
20
-2.3521589763779529
11
3.0346321259842517
21
-2.3529270472440946
0
LINE
8
BLACK
6
CONTINUOUS
10
3.0346321259842517
20
-2.3529270472440946
11
3.034044251968504
21
-2.3543462598425196
0
LINE
8
BLACK
6
CONTINUOUS
10
3.034044251968504
20
-2.3543462598425196
11
3.0329580314960629
21
-2.3554324803149607
0
LINE
8
BLACK
6
CONTINUOUS
10
3.0329580314960629
20
-2.3554324803149607
11
3.0315388188976375
21
-2.3560203543307088
0
LINE
8
BLACK
6
CONTINUOUS
10
3.0315388188976375
20
-2.3560203543307088
11
3.0300026771653541
21
-2.3560203543307088
0
LINE
8
BLACK
6
CONTINUOUS
10
3.0300026771653541
20
-2.3560203543307088
11
3.0285834645669292
21
-2.3554324803149607
0
LINE
8
BLACK
6
CONTINUOUS
10
3.0285834645669292
20
-2.3554324803149607
11
3.0274972440944881
21
-2.3543462598425196
0
LINE
8
BLACK
6
CONTINUOUS
10
3.0274972440944881
20
-2.3543462598425196
11
3.0269093700787399
21
-2.3529270472440946
0
LINE
8
BLACK
6
CONTINUOUS
10
3.0269093700787399
20
-2.3529270472440946
11
3.0268337401574801
21
-2.3521589763779529
0
LINE
8
BLACK
6
CONTINUOUS
10
3.0268337401574801
20
-2.3521589763779529
11
3.0268337401574801
21
-2.3117376377952756
0
LINE
8
BLACK
6
CONTINUOUS
10
3.0268337401574801
20
-2.3117376377952756
11
3.0244052362204723
21
-2.3061868110236219
0
LINE
8
BLACK
6
CONTINUOUS
10
3.0244052362204723
20
-2.3061868110236219
11
3.0198827165354332
21
-2.3036025196850392
0
LINE
8
BLACK
6
CONTINUOUS
10
3.0198827165354332
20
-2.3036025196850392
11
3.0121312204724409
21
-2.3036025196850392
0
LINE
8
BLACK
6
CONTINUOUS
10
3.0121312204724409
20
-2.3036025196850392
11
3.0076087007874017
21
-2.3061868110236219
0
LINE
8
BLACK
6
CONTINUOUS
10
3.0076087007874017
20
-2.3061868110236219
11
3.0051801968503935
21
-2.3117376771653544
0
LINE
8
BLACK
6
CONTINUOUS
10
3.0051801968503935
20
-2.3117376771653544
11
3.0051801968503935
21
-2.3521589763779529
0
LINE
8
BLACK
6
CONTINUOUS
10
3.0051801968503935
20
-2.3521589763779529
11
3.0051045669291336
21
-2.3529270472440946
0
LINE
8
BLACK
6
CONTINUOUS
10
3.0051045669291336
20
-2.3529270472440946
11
3.004516692913386
21
-2.3543462598425196
0
LINE
8
BLACK
6
CONTINUOUS
10
3.004516692913386
20
-2.3543462598425196
11
3.0034304724409449
21
-2.3554324803149607
0
LINE
8
BLACK
6
CONTINUOUS
10
3.0034304724409449
20
-2.3554324803149607
11
3.0020112598425195
21
-2.3560203543307088
0
LINE
8
BLACK
6
CONTINUOUS
10
3.0020112598425195
20
-2.3560203543307088
11
3.000475118110236
21
-2.3560203543307088
0
LINE
8
BLACK
6
CONTINUOUS
10
3.000475118110236
20
-2.3560203543307088
11
2.9990559055118111
21
-2.3554324803149607
0
LINE
8
BLACK
6
CONTINUOUS
10
2.9990559055118111
20
-2.3554324803149607
11
2.99796968503937
21
-2.3543462598425196
0
LINE
8
BLACK
6
CONTINUOUS
10
2.99796968503937
20
-2.3543462598425196
11
2.9973818110236219
21
-2.3529270472440946
0
LINE
8
BLACK
6
CONTINUOUS
10
2.9973818110236219
20
-2.3529270472440946
11
2.997306181102362
21
-2.3521589763779529
0
LINE
8
BLACK
6
CONTINUOUS
10
2.997306181102362
20
-2.3521589763779529
11
2.997306181102362
21
-2.3117376377952756
0
LINE
8
BLACK
6
CONTINUOUS
10
2.997306181102362
20
-2.3117376377952756
11
2.9948776771653542
21
-2.3061868110236219
0
LINE
8
BLACK
6
CONTINUOUS
10
2.9948776771653542
20
-2.3061868110236219
11
2.9903551574803151
21
-2.3036025196850392
0
LINE
8
BLACK
6
CONTINUOUS
10
2.9903551574803151
20
-2.3036025196850392
11
2.9826036614173228
21
-2.3036025196850392
0
LINE
8
BLACK
6
CONTINUOUS
10
2.9826036614173228
20
-2.3036025196850392
11
2.9775239763779529
21
-2.306505157480315
0
LINE
8
BLACK
6
CONTINUOUS
10
2.9775239763779529
20
-2.306505157480315
11
2.9756526377952754
21
-2.3086438188976377
0
LINE
8
BLACK
6
CONTINUOUS
10
2.9756526377952754
20
-2.3086438188976377
11
2.9756526377952754
21
-2.3521589763779529
0
LINE
8
BLACK
6
CONTINUOUS
10
2.9756526377952754
20
-2.3521589763779529
11
2.9755770078740156
21
-2.3529270472440946
0
LINE
8
BLACK
6
CONTINUOUS
10
2.9755770078740156
20
-2.3529270472440946
11
2.9749891338582675
21
-2.3543462598425196
0
LINE
8
BLACK
6
CONTINUOUS
10
2.9749891338582675
20
-2.3543462598425196
11
2.9739029133858268
21
-2.3554324803149607
0
LINE
8
BLACK
6
CONTINUOUS
10
2.9739029133858268
20
-2.3554324803149607
11
2.9724837007874014
21
-2.3560203543307088
0
LINE
8
BLACK
6
CONTINUOUS
10
2.9724837007874014
20
-2.3560203543307088
11
2.970947559055118
21
-2.3560203543307088
0
LINE
8
BLACK
6
CONTINUOUS
10
2.970947559055118
20
-2.3560203543307088
11
2.9695283464566931
21
-2.3554324803149607
0
LINE
8
BLACK
6
CONTINUOUS
10
2.9695283464566931
20
-2.3554324803149607
11
2.9684421259842519
21
-2.3543462598425196
0
LINE
8
BLACK
6
CONTINUOUS
10
2.9684421259842519
20
-2.3543462598425196
11
2.9678542519685038
21
-2.3529270472440946
0
LINE
8
BLACK
6
CONTINUOUS
10
2.9678542519685038
20
-2.3529270472440946
11
2.967778622047244
21
-2.3521589763779529
0
LINE
8
BLACK
6
CONTINUOUS
10
2.967778622047244
20
-2.3521589763779529
11
2.967778622047244
21
-2.2996655118110234
0
LINE
8
BLACK
6
CONTINUOUS
10
2.967778622047244
20
-2.2996655118110234
11
2.9678542519685038
21
-2.2988974409448817
0
LINE
8
BLACK
6
CONTINUOUS
10
2.9678542519685038
20
-2.2988974409448817
11
2.9684421259842519
21
-2.2974782283464568
0
LINE
8
BLACK
6
CONTINUOUS
10
2.9684421259842519
20
-2.2974782283464568
11
2.9695283464566931
21
-2.2963920078740157
0
LINE
8
BLACK
6
CONTINUOUS
10
2.9695283464566931
20
-2.2963920078740157
11
2.970947559055118
21
-2.2958041338582675
0
LINE
8
BLACK
6
CONTINUOUS
10
2.970947559055118
20
-2.2958041338582675
11
2.9724837007874014
21
-2.2958041338582675
0
LINE
8
BLACK
6
CONTINUOUS
10
2.9724837007874014
20
-2.2958041338582675
11
2.9739029133858268
21
-2.2963920078740157
0
LINE
8
BLACK
6
CONTINUOUS
10
2.9739029133858268
20
-2.2963920078740157
11
2.9749891338582675
21
-2.2974782283464568
0
LINE
8
BLACK
6
CONTINUOUS
10
2.9749891338582675
20
-2.2974782283464568
11
2.9754602362204725
21
-2.2986155511811024
0
LINE
8
BLACK
6
CONTINUOUS
10
2.9754602362204725
20
-2.2986155511811024
11
2.9796048425196848
21
-2.2962472440944883
0
LINE
8
BLACK
6
CONTINUOUS
10
2.9796048425196848
20
-2.2962472440944883
11
2.9803092519685039
21
-2.295931811023622
0
LINE
8
BLACK
6
CONTINUOUS
10
2.9803092519685039
20
-2.295931811023622
11
2.9805582283464567
21
-2.2959001574803151
0
LINE
8
BLACK
6
CONTINUOUS
10
2.9805582283464567
20
-2.2959001574803151
11
2.9807900787401573
21
-2.2958041338582675
0
LINE
8
BLACK
6
CONTINUOUS
10
2.9807900787401573
20
-2.2958041338582675
11
2.9815581496062991
21
-2.2957285039370077
0
LINE
8
BLACK
6
CONTINUOUS
10
2.9815581496062991
20
-2.2957285039370077
11
2.9914006692913384
21
-2.2957285039370077
0
LINE
8
BLACK
6
CONTINUOUS
10
2.9914006692913384
20
-2.2957285039370077
11
2.9921687401574801
21
-2.2958041338582675
0
LINE
8
BLACK
6
CONTINUOUS
10
3.421958779527559
20
-2.2459353937007873
11
3.4221905905511809
21
-2.2460314173228344
0
LINE
8
BLACK
6
CONTINUOUS
10
3.4221905905511809
20
-2.2460314173228344
11
3.4224396062992124
21
-2.2460630708661418
0
LINE
8
BLACK
6
CONTINUOUS
10
3.4224396062992124
20
-2.2460630708661418
11
3.4231440157480315
21
-2.2463785039370077
0
LINE
8
BLACK
6
CONTINUOUS
10
3.4231440157480315
20
-2.2463785039370077
11
3.4297057086614173
21
-2.2501280314960628
0
LINE
8
BLACK
6
CONTINUOUS
10
3.4297057086614173
20
-2.2501280314960628
11
3.430061062992126
21
-2.2503802755905511
0
LINE
8
BLACK
6
CONTINUOUS
10
3.430061062992126
20
-2.2503802755905511
11
3.4301525984251966
21
-2.2504255511811024
0
LINE
8
BLACK
6
CONTINUOUS
10
3.4301525984251966
20
-2.2504255511811024
11
3.4302387007874016
21
-2.2505063779527559
0
LINE
8
BLACK
6
CONTINUOUS
10
3.4302387007874016
20
-2.2505063779527559
11
3.4303350393700787
21
-2.2505747637795275
0
LINE
8
BLACK
6
CONTINUOUS
10
3.4303350393700787
20
-2.2505747637795275
11
3.4303975590551179
21
-2.2506555118110234
0
LINE
8
BLACK
6
CONTINUOUS
10
3.4303975590551179
20
-2.2506555118110234
11
3.4307153149606298
21
-2.2509537795275589
0
LINE
8
BLACK
6
CONTINUOUS
10
3.4307153149606298
20
-2.2509537795275589
11
3.4372769685039368
21
-2.2584528346456691
0
LINE
8
BLACK
6
CONTINUOUS
10
3.4372769685039368
20
-2.2584528346456691
11
3.4377258267716533
21
-2.2590806692913383
0
LINE
8
BLACK
6
CONTINUOUS
10
3.4377258267716533
20
-2.2590806692913383
11
3.4377963385826771
21
-2.2592891732283462
0
LINE
8
BLACK
6
CONTINUOUS
10
3.4377963385826771
20
-2.2592891732283462
11
3.4379220866141731
21
-2.2594698425196849
0
LINE
8
BLACK
6
CONTINUOUS
10
3.4379220866141731
20
-2.2594698425196849
11
3.4381601181102361
21
-2.2602040157480316
0
LINE
8
BLACK
6
CONTINUOUS
10
3.4381601181102361
20
-2.2602040157480316
11
3.4414409842519684
21
-2.2752021259842521
0
LINE
8
BLACK
6
CONTINUOUS
10
3.4414409842519684
20
-2.2752021259842521
11
3.4414469291338583
21
-2.2752527952755903
0
LINE
8
BLACK
6
CONTINUOUS
10
3.4414469291338583
20
-2.2752527952755903
11
3.4414562992125983
21
-2.2752753937007872
0
LINE
8
BLACK
6
CONTINUOUS
10
3.4414562992125983
20
-2.2752753937007872
11
3.441490472440945
21
-2.275622716535433
0
LINE
8
BLACK
6
CONTINUOUS
10
3.441490472440945
20
-2.275622716535433
11
3.4415312204724411
21
-2.2759686220472441
0
LINE
8
BLACK
6
CONTINUOUS
10
3.4415312204724411
20
-2.2759686220472441
11
3.4415268897637796
21
-2.275992598425197
0
LINE
8
BLACK
6
CONTINUOUS
10
3.4415268897637796
20
-2.275992598425197
11
3.4415319291338582
21
-2.276043464566929
0
LINE
8
BLACK
6
CONTINUOUS
10
3.4415319291338582
20
-2.276043464566929
11
3.4415319291338582
21
-2.3022901968503935
0
LINE
8
BLACK
6
CONTINUOUS
10
3.4415319291338582
20
-2.3022901968503935
11
3.4415268897637796
21
-2.3023410236220472
0
LINE
8
BLACK
6
CONTINUOUS
10
3.4415268897637796
20
-2.3023410236220472
11
3.4415312204724411
21
-2.3023650393700787
0
LINE
8
BLACK
6
CONTINUOUS
10
3.4415312204724411
20
-2.3023650393700787
11
3.441490472440945
21
-2.3027109055118111
0
LINE
8
BLACK
6
CONTINUOUS
10
3.441490472440945
20
-2.3027109055118111
11
3.4414562992125983
21
-2.3030582677165352
0
LINE
8
BLACK
6
CONTINUOUS
10
3.4414562992125983
20
-2.3030582677165352
11
3.4414469291338583
21
-2.3030808267716534
0
LINE
8
BLACK
6
CONTINUOUS
10
3.4414469291338583
20
-2.3030808267716534
11
3.4414409842519684
21
-2.3031315354330708
0
LINE
8
BLACK
6
CONTINUOUS
10
3.4414409842519684
20
-2.3031315354330708
11
3.4381601181102361
21
-2.3181296456692912
0
LINE
8
BLACK
6
CONTINUOUS
10
3.4381601181102361
20
-2.3181296456692912
11
3.4379220866141731
21
-2.3188638188976376
0
LINE
8
BLACK
6
CONTINUOUS
10
3.4379220866141731
20
-2.3188638188976376
11
3.4377963385826771
21
-2.3190444488188975
0
LINE
8
BLACK
6
CONTINUOUS
10
3.4377963385826771
20
-2.3190444488188975
11
3.4377258267716533
21
-2.3192529921259841
0
LINE
8
BLACK
6
CONTINUOUS
10
3.4377258267716533
20
-2.3192529921259841
11
3.4372769685039368
21
-2.3198808267716533
0
LINE
8
BLACK
6
CONTINUOUS
10
3.4372769685039368
20
-2.3198808267716533
11
3.4307153149606298
21
-2.3273799212598423
0
LINE
8
BLACK
6
CONTINUOUS
10
3.4307153149606298
20
-2.3273799212598423
11
3.4303974803149604
21
-2.3276782283464565
0
LINE
8
BLACK
6
CONTINUOUS
10
3.4303974803149604
20
-2.3276782283464565
11
3.4303350393700787
21
-2.3277589370078742
0
LINE
8
BLACK
6
CONTINUOUS
10
3.4303350393700787
20
-2.3277589370078742
11
3.4302388188976378
21
-2.3278272047244095
0
LINE
8
BLACK
6
CONTINUOUS
10
3.4302388188976378
20
-2.3278272047244095
11
3.4301526377952753
21
-2.3279081496062992
0
LINE
8
BLACK
6
CONTINUOUS
10
3.4301526377952753
20
-2.3279081496062992
11
3.4300609842519685
21
-2.3279534645669289
0
LINE
8
BLACK
6
CONTINUOUS
10
3.4300609842519685
20
-2.3279534645669289
11
3.4297057086614173
21
-2.3282056692913384
0
LINE
8
BLACK
6
CONTINUOUS
10
3.4297057086614173
20
-2.3282056692913384
11
3.4231440157480315
21
-2.3319551968503935
0
LINE
8
BLACK
6
CONTINUOUS
10
3.4231440157480315
20
-2.3319551968503935
11
3.4224396062992124
21
-2.3322706299212599
0
LINE
8
BLACK
6
CONTINUOUS
10
3.4224396062992124
20
-2.3322706299212599
11
3.4221905905511809
21
-2.3323022440944881
0
LINE
8
BLACK
6
CONTINUOUS
10
3.4221905905511809
20
-2.3323022440944881
11
3.421958779527559
21
-2.3323983070866143
0
LINE
8
BLACK
6
CONTINUOUS
10
3.421958779527559
20
-2.3323983070866143
11
3.4211907086614173
21
-2.3324739370078738
0
LINE
8
BLACK
6
CONTINUOUS
10
3.4211907086614173
20
-2.3324739370078738
11
3.4080673622047244
21
-2.3324739370078738
0
LINE
8
BLACK
6
CONTINUOUS
10
3.4080673622047244
20
-2.3324739370078738
11
3.4072992913385827
21
-2.3323983070866143
0
LINE
8
BLACK
6
CONTINUOUS
10
3.4072992913385827
20
-2.3323983070866143
11
3.407067440944882
21
-2.3323022440944881
0
LINE
8
BLACK
6
CONTINUOUS
10
3.407067440944882
20
-2.3323022440944881
11
3.4068184645669293
21
-2.3322706299212599
0
LINE
8
BLACK
6
CONTINUOUS
10
3.4068184645669293
20
-2.3322706299212599
11
3.4061140551181102
21
-2.3319551968503935
0
LINE
8
BLACK
6
CONTINUOUS
10
3.4061140551181102
20
-2.3319551968503935
11
3.3995523622047243
21
-2.3282056692913384
0
LINE
8
BLACK
6
CONTINUOUS
10
3.3995523622047243
20
-2.3282056692913384
11
3.3991971653543307
21
-2.3279535039370076
0
LINE
8
BLACK
6
CONTINUOUS
10
3.3991971653543307
20
-2.3279535039370076
11
3.3991054724409446
21
-2.327908188976378
0
LINE
8
BLACK
6
CONTINUOUS
10
3.3991054724409446
20
-2.327908188976378
11
3.3990192125984251
21
-2.3278272047244095
0
LINE
8
BLACK
6
CONTINUOUS
10
3.3990192125984251
20
-2.3278272047244095
11
3.398923031496063
21
-2.3277589370078742
0
LINE
8
BLACK
6
CONTINUOUS
10
3.398923031496063
20
-2.3277589370078742
11
3.3988605511811021
21
-2.3276782677165353
0
LINE
8
BLACK
6
CONTINUOUS
10
3.3988605511811021
20
-2.3276782677165353
11
3.3985427952755907
21
-2.327379960629921
0
LINE
8
BLACK
6
CONTINUOUS
10
3.3985427952755907
20
-2.327379960629921
11
3.3919810629921261
21
-2.3198808267716533
0
LINE
8
BLACK
6
CONTINUOUS
10
3.3919810629921261
20
-2.3198808267716533
11
3.3915322047244092
21
-2.3192529921259841
0
LINE
8
BLACK
6
CONTINUOUS
10
3.3915322047244092
20
-2.3192529921259841
11
3.3914616535433071
21
-2.31904437007874
0
LINE
8
BLACK
6
CONTINUOUS
10
3.3914616535433071
20
-2.31904437007874
11
3.3913359448818898
21
-2.3188637795275588
0
LINE
8
BLACK
6
CONTINUOUS
10
3.3913359448818898
20
-2.3188637795275588
11
3.3910979133858268
21
-2.3181296456692912
0
LINE
8
BLACK
6
CONTINUOUS
10
3.3910979133858268
20
-2.3181296456692912
11
3.3878170866141732
21
-2.3031315354330708
0
LINE
8
BLACK
6
CONTINUOUS
10
3.3878170866141732
20
-2.3031315354330708
11
3.3878111023622046
21
-2.3030808267716534
0
LINE
8
BLACK
6
CONTINUOUS
10
3.3878111023622046
20
-2.3030808267716534
11
3.3878017716535433
21
-2.3030582677165352
0
LINE
8
BLACK
6
CONTINUOUS
10
3.3878017716535433
20
-2.3030582677165352
11
3.3877675590551179
21
-2.3027109055118111
0
LINE
8
BLACK
6
CONTINUOUS
10
3.3877675590551179
20
-2.3027109055118111
11
3.3877268503937006
21
-2.3023650393700787
0
LINE
8
BLACK
6
CONTINUOUS
10
3.3877268503937006
20
-2.3023650393700787
11
3.3877311417322833
21
-2.3023410236220472
0
LINE
8
BLACK
6
CONTINUOUS
10
3.3877311417322833
20
-2.3023410236220472
11
3.3877261417322835
21
-2.3022901968503935
0
LINE
8
BLACK
6
CONTINUOUS
10
3.3877261417322835
20
-2.3022901968503935
11
3.3877261417322835
21
-2.276043464566929
0
LINE
8
BLACK
6
CONTINUOUS
10
3.3877261417322835
20
-2.276043464566929
11
3.3877311417322833
21
-2.275992598425197
0
LINE
8
BLACK
6
CONTINUOUS
10
3.3877311417322833
20
-2.275992598425197
11
3.3877268503937006
21
-2.2759686220472441
0
LINE
8
BLACK
6
CONTINUOUS
10
3.3877268503937006
20
-2.2759686220472441
11
3.3877675590551179
21
-2.275622716535433
0
LINE
8
BLACK
6
CONTINUOUS
10
3.3877675590551179
20
-2.275622716535433
11
3.3878017716535433
21
-2.2752753937007872
0
LINE
8
BLACK
6
CONTINUOUS
10
3.3878017716535433
20
-2.2752753937007872
11
3.3878111023622046
21
-2.2752527952755903
0
LINE
8
BLACK
6
CONTINUOUS
10
3.3878111023622046
20
-2.2752527952755903
11
3.3878170866141732
21
-2.2752021259842521
0
LINE
8
BLACK
6
CONTINUOUS
10
3.3878170866141732
20
-2.2752021259842521
11
3.3910979133858268
21
-2.2602040157480316
0
LINE
8
BLACK
6
CONTINUOUS
10
3.3910979133858268
20
-2.2602040157480316
11
3.3913359448818898
21
-2.2594698818897636
0
LINE
8
BLACK
6
CONTINUOUS
10
3.3913359448818898
20
-2.2594698818897636
11
3.3914616141732283
21
-2.2592892913385825
0
LINE
8
BLACK
6
CONTINUOUS
10
3.3914616141732283
20
-2.2592892913385825
11
3.3915322047244092
21
-2.2590806299212596
0
LINE
8
BLACK
6
CONTINUOUS
10
3.3915322047244092
20
-2.2590806299212596
11
3.3919810629921261
21
-2.2584527952755904
0
LINE
8
BLACK
6
CONTINUOUS
10
3.3919810629921261
20
-2.2584527952755904
11
3.3985427952755907
21
-2.2509537401574802
0
LINE
8
BLACK
6
CONTINUOUS
10
3.3985427952755907
20
-2.2509537401574802
11
3.3988605511811021
21
-2.2506553937007872
0
LINE
8
BLACK
6
CONTINUOUS
10
3.3988605511811021
20
-2.2506553937007872
11
3.398923031496063
21
-2.2505747637795275
0
LINE
8
BLACK
6
CONTINUOUS
10
3.398923031496063
20
-2.2505747637795275
11
3.3990192125984251
21
-2.2505064566929134
0
LINE
8
BLACK
6
CONTINUOUS
10
3.3990192125984251
20
-2.2505064566929134
11
3.3991054724409446
21
-2.2504255118110237
0
LINE
8
BLACK
6
CONTINUOUS
10
3.3991054724409446
20
-2.2504255118110237
11
3.3991971653543307
21
-2.2503801574803148
0
LINE
8
BLACK
6
CONTINUOUS
10
3.3991971653543307
20
-2.2503801574803148
11
3.3995523622047243
21
-2.2501280314960628
0
LINE
8
BLACK
6
CONTINUOUS
10
3.3995523622047243
20
-2.2501280314960628
11
3.4061140551181102
21
-2.2463785039370077
0
LINE
8
BLACK
6
CONTINUOUS
10
3.4061140551181102
20
-2.2463785039370077
11
3.4068184645669293
21
-2.2460630708661418
0
LINE
8
BLACK
6
CONTINUOUS
10
3.4068184645669293
20
-2.2460630708661418
11
3.407067440944882
21
-2.2460314173228344
0
LINE
8
BLACK
6
CONTINUOUS
10
3.407067440944882
20
-2.2460314173228344
11
3.4072992913385827
21
-2.2459353937007873
0
LINE
8
BLACK
6
CONTINUOUS
10
3.4072992913385827
20
-2.2459353937007873
11
3.4080673622047244
21
-2.2458597637795275
0
LINE
8
BLACK
6
CONTINUOUS
10
3.4080673622047244
20
-2.2458597637795275
11
3.4211907086614173
21
-2.2458597637795275
0
LINE
8
BLACK
6
CONTINUOUS
10
3.4211907086614173
20
-2.2458597637795275
11
3.421958779527559
21
-2.2459353937007873
0
LINE
8
BLACK
6
CONTINUOUS
10
3.4040331102362202
20
-2.2566364566929131
11
3.3985736220472442
21
-2.2628758661417323
0
LINE
8
BLACK
6
CONTINUOUS
10
3.3985736220472442
20
-2.2628758661417323
11
3.395600157480315
21
-2.2764690157480314
0
LINE
8
BLACK
6
CONTINUOUS
10
3.395600157480315
20
-2.2764690157480314
11
3.395600157480315
21
-2.3018646062992127
0
LINE
8
BLACK
6
CONTINUOUS
10
3.395600157480315
20
-2.3018646062992127
11
3.398573661417323
21
-2.3154577952755906
0
LINE
8
BLACK
6
CONTINUOUS
10
3.398573661417323
20
-2.3154577952755906
11
3.4040331102362202
21
-2.3216972047244093
0
LINE
8
BLACK
6
CONTINUOUS
10
3.4040331102362202
20
-2.3216972047244093
11
3.4091128740157481
21
-2.3245999212598423
0
LINE
8
BLACK
6
CONTINUOUS
10
3.4091128740157481
20
-2.3245999212598423
11
3.4201451968503935
21
-2.3245999212598423
0
LINE
8
BLACK
6
CONTINUOUS
10
3.4201451968503935
20
-2.3245999212598423
11
3.4252249212598422
21
-2.3216972047244093
0
LINE
8
BLACK
6
CONTINUOUS
10
3.4252249212598422
20
-2.3216972047244093
11
3.4306843700787399
21
-2.3154577952755906
0
LINE
8
BLACK
6
CONTINUOUS
10
3.4306843700787399
20
-2.3154577952755906
11
3.4336579133858267
21
-2.301864566929134
0
LINE
8
BLACK
6
CONTINUOUS
10
3.4336579133858267
20
-2.301864566929134
11
3.4336579133858267
21
-2.2764690551181102
0
LINE
8
BLACK
6
CONTINUOUS
10
3.4336579133858267
20
-2.2764690551181102
11
3.4306843700787399
21
-2.2628758267716536
0
LINE
8
BLACK
6
CONTINUOUS
10
3.4306843700787399
20
-2.2628758267716536
11
3.4252249212598422
21
-2.2566364566929131
0
LINE
8
BLACK
6
CONTINUOUS
10
3.4252249212598422
20
-2.2566364566929131
11
3.4201451968503935
21
-2.2537337795275589
0
LINE
8
BLACK
6
CONTINUOUS
10
3.4201451968503935
20
-2.2537337795275589
11
3.4091128740157481
21
-2.2537337795275589
0
LINE
8
BLACK
6
CONTINUOUS
10
3.4091128740157481
20
-2.2537337795275589
11
3.4040331102362202
21
-2.2566364566929131
0
LINE
8
BLACK
6
CONTINUOUS
10
3.3005677165354328
20
-2.2459353937007873
11
3.3007995275590551
21
-2.2460314173228344
0
LINE
8
BLACK
6
CONTINUOUS
10
3.3007995275590551
20
-2.2460314173228344
11
3.3010485433070866
21
-2.2460630708661418
0
LINE
8
BLACK
6
CONTINUOUS
10
3.3010485433070866
20
-2.2460630708661418
11
3.3017529527559053
21
-2.2463785039370077
0
LINE
8
BLACK
6
CONTINUOUS
10
3.3017529527559053
20
-2.2463785039370077
11
3.3083146456692911
21
-2.2501280314960628
0
LINE
8
BLACK
6
CONTINUOUS
10
3.3083146456692911
20
-2.2501280314960628
11
3.3086699999999998
21
-2.2503802755905511
0
LINE
8
BLACK
6
CONTINUOUS
10
3.3086699999999998
20
-2.2503802755905511
11
3.3087615354330708
21
-2.2504255511811024
0
LINE
8
BLACK
6
CONTINUOUS
10
3.3087615354330708
20
-2.2504255511811024
11
3.3088476377952754
21
-2.2505063779527559
0
LINE
8
BLACK
6
CONTINUOUS
10
3.3088476377952754
20
-2.2505063779527559
11
3.3089439763779529
21
-2.2505747637795275
0
LINE
8
BLACK
6
CONTINUOUS
10
3.3089439763779529
20
-2.2505747637795275
11
3.3090064960629921
21
-2.2506555118110234
0
LINE
8
BLACK
6
CONTINUOUS
10
3.3090064960629921
20
-2.2506555118110234
11
3.309324251968504
21
-2.2509537795275589
0
LINE
8
BLACK
6
CONTINUOUS
10
3.309324251968504
20
-2.2509537795275589
11
3.3126050787401575
21
-2.254703307086614
0
LINE
8
BLACK
6
CONTINUOUS
10
3.3126050787401575
20
-2.254703307086614
11
3.3127985039370076
21
-2.2549738582677166
0
LINE
8
BLACK
6
CONTINUOUS
10
3.3127985039370076
20
-2.2549738582677166
11
3.3128719291338582
21
-2.2550444488188974
0
LINE
8
BLACK
6
CONTINUOUS
10
3.3128719291338582
20
-2.2550444488188974
11
3.3129550000000001
21
-2.2551927559055116
0
LINE
8
BLACK
6
CONTINUOUS
10
3.3129550000000001
20
-2.2551927559055116
11
3.313053937007874
21
-2.2553311417322832
0
LINE
8
BLACK
6
CONTINUOUS
10
3.313053937007874
20
-2.2553311417322832
11
3.3130865748031497
21
-2.2554276377952753
0
LINE
8
BLACK
6
CONTINUOUS
10
3.3130865748031497
20
-2.2554276377952753
11
3.3132490944881887
21
-2.2557177952755905
0
LINE
8
BLACK
6
CONTINUOUS
10
3.3132490944881887
20
-2.2557177952755905
11
3.3165299212598423
21
-2.2632168503937007
0
LINE
8
BLACK
6
CONTINUOUS
10
3.3165299212598423
20
-2.2632168503937007
11
3.3167684645669291
21
-2.2639508267716537
0
LINE
8
BLACK
6
CONTINUOUS
10
3.3167684645669291
20
-2.2639508267716537
11
3.3167692125984249
21
-2.263990275590551
0
LINE
8
BLACK
6
CONTINUOUS
10
3.3167692125984249
20
-2.263990275590551
11
3.3167843700787403
21
-2.2640268110236219
0
LINE
8
BLACK
6
CONTINUOUS
10
3.3167843700787403
20
-2.2640268110236219
11
3.3168600000000001
21
-2.2647948818897636
0
LINE
8
BLACK
6
CONTINUOUS
10
3.3168600000000001
20
-2.2647948818897636
11
3.3168600000000001
21
-2.276043464566929
0
LINE
8
BLACK
6
CONTINUOUS
10
3.3168600000000001
20
-2.276043464566929
11
3.3167843700787403
21
-2.2768115354330707
0
LINE
8
BLACK
6
CONTINUOUS
10
3.3167843700787403
20
-2.2768115354330707
11
3.3167692125984249
21
-2.2768480314960629
0
LINE
8
BLACK
6
CONTINUOUS
10
3.3167692125984249
20
-2.2768480314960629
11
3.3167684645669291
21
-2.2768875196850393
0
LINE
8
BLACK
6
CONTINUOUS
10
3.3167684645669291
20
-2.2768875196850393
11
3.3165299212598423
21
-2.2776214960629919
0
LINE
8
BLACK
6
CONTINUOUS
10
3.3165299212598423
20
-2.2776214960629919
11
3.3132490944881887
21
-2.2851205511811021
0
LINE
8
BLACK
6
CONTINUOUS
10
3.3132490944881887
20
-2.2851205511811021
11
3.3130865748031497
21
-2.2854106692913385
0
LINE
8
BLACK
6
CONTINUOUS
10
3.3130865748031497
20
-2.2854106692913385
11
3.313053937007874
21
-2.2855072047244094
0
LINE
8
BLACK
6
CONTINUOUS
10
3.313053937007874
20
-2.2855072047244094
11
3.3129550000000001
21
-2.2856455511811022
0
LINE
8
BLACK
6
CONTINUOUS
10
3.3129550000000001
20
-2.2856455511811022
11
3.3128719291338582
21
-2.2857938976377952
0
LINE
8
BLACK
6
CONTINUOUS
10
3.3128719291338582
20
-2.2857938976377952
11
3.3127985039370076
21
-2.2858644488188977
0
LINE
8
BLACK
6
CONTINUOUS
10
3.3127985039370076
20
-2.2858644488188977
11
3.3126050787401575
21
-2.2861350393700786
0
LINE
8
BLACK
6
CONTINUOUS
10
3.3126050787401575
20
-2.2861350393700786
11
3.309324251968504
21
-2.2898846062992124
0
LINE
8
BLACK
6
CONTINUOUS
10
3.309324251968504
20
-2.2898846062992124
11
3.3090064173228346
21
-2.2901829133858267
0
LINE
8
BLACK
6
CONTINUOUS
10
3.3090064173228346
20
-2.2901829133858267
11
3.3089439763779529
21
-2.2902636220472439
0
LINE
8
BLACK
6
CONTINUOUS
10
3.3089439763779529
20
-2.2902636220472439
11
3.3088477559055116
21
-2.2903318897637797
0
LINE
8
BLACK
6
CONTINUOUS
10
3.3088477559055116
20
-2.2903318897637797
11
3.3087615748031496
21
-2.2904128346456694
0
LINE
8
BLACK
6
CONTINUOUS
10
3.3087615748031496
20
-2.2904128346456694
11
3.3086699212598423
21
-2.290458149606299
0
LINE
8
BLACK
6
CONTINUOUS
10
3.3086699212598423
20
-2.290458149606299
11
3.3083146456692911
21
-2.2907103543307086
0
LINE
8
BLACK
6
CONTINUOUS
10
3.3083146456692911
20
-2.2907103543307086
11
3.3017529527559053
21
-2.2944598818897637
0
LINE
8
BLACK
6
CONTINUOUS
10
3.3017529527559053
20
-2.2944598818897637
11
3.3010485433070866
21
-2.29477531496063
0
LINE
8
BLACK
6
CONTINUOUS
10
3.3010485433070866
20
-2.29477531496063
11
3.3007995275590551
21
-2.2948069291338582
0
LINE
8
BLACK
6
CONTINUOUS
10
3.3007995275590551
20
-2.2948069291338582
11
3.3005677165354328
21
-2.294902992125984
0
LINE
8
BLACK
6
CONTINUOUS
10
3.3005677165354328
20
-2.294902992125984
11
3.2997996456692911
21
-2.2949786220472439
0
LINE
8
BLACK
6
CONTINUOUS
10
3.2997996456692911
20
-2.2949786220472439
11
3.2969853149606299
21
-2.2949786220472439
0
LINE
8
BLACK
6
CONTINUOUS
10
3.2969853149606299
20
-2.2949786220472439
11
3.3162802755905512
21
-2.3264805905511809
0
LINE
8
BLACK
6
CONTINUOUS
10
3.3162802755905512
20
-2.3264805905511809
11
3.3166169685039368
21
-2.3271750787401575
0
LINE
8
BLACK
6
CONTINUOUS
10
3.3166169685039368
20
-2.3271750787401575
11
3.3168569291338583
21
-2.3286923622047242
0
LINE
8
BLACK
6
CONTINUOUS
10
3.3168569291338583
20
-2.3286923622047242
11
3.3164979921259841
21
-2.3301859842519685
0
LINE
8
BLACK
6
CONTINUOUS
10
3.3164979921259841
20
-2.3301859842519685
11
3.3155948031496063
21
-2.3314285826771655
0
LINE
8
BLACK
6
CONTINUOUS
10
3.3155948031496063
20
-2.3314285826771655
11
3.3142848425196849
21
-2.3322309055118109
0
LINE
8
BLACK
6
CONTINUOUS
10
3.3142848425196849
20
-2.3322309055118109
11
3.3127675590551182
21
-2.3324708661417324
0
LINE
8
BLACK
6
CONTINUOUS
10
3.3127675590551182
20
-2.3324708661417324
11
3.3112739370078739
21
-2.3321119291338581
0
LINE
8
BLACK
6
CONTINUOUS
10
3.3112739370078739
20
-2.3321119291338581
11
3.310031338582677
21
-2.3312087401574804
0
LINE
8
BLACK
6
CONTINUOUS
10
3.310031338582677
20
-2.3312087401574804
11
3.3095657086614172
21
-2.3305932677165355
0
LINE
8
BLACK
6
CONTINUOUS
10
3.3095657086614172
20
-2.3305932677165355
11
3.2877517322834646
21
-2.2949786220472439
0
LINE
8
BLACK
6
CONTINUOUS
10
3.2877517322834646
20
-2.2949786220472439
11
3.2774899212598423
21
-2.2949786220472439
0
LINE
8
BLACK
6
CONTINUOUS
10
3.2774899212598423
20
-2.2949786220472439
11
3.2774899212598423
21
-2.328536929133858
0
LINE
8
BLACK
6
CONTINUOUS
10
3.2774899212598423
20
-2.328536929133858
11
3.2774142913385824
21
-2.3293049999999997
0
LINE
8
BLACK
6
CONTINUOUS
10
3.2774142913385824
20
-2.3293049999999997
11
3.2768264173228348
21
-2.3307242125984251
0
LINE
8
BLACK
6
CONTINUOUS
10
3.2768264173228348
20
-2.3307242125984251
11
3.2757401968503936
21
-2.3318104330708662
0
LINE
8
BLACK
6
CONTINUOUS
10
3.2757401968503936
20
-2.3318104330708662
11
3.2743209842519683
21
-2.3323983070866143
0
LINE
8
BLACK
6
CONTINUOUS
10
3.2743209842519683
20
-2.3323983070866143
11
3.2727848425196848
21
-2.3323983070866143
0
LINE
8
BLACK
6
CONTINUOUS
10
3.2727848425196848
20
-2.3323983070866143
11
3.2713656299212599
21
-2.3318104330708662
0
LINE
8
BLACK
6
CONTINUOUS
10
3.2713656299212599
20
-2.3318104330708662
11
3.2702794094488188
21
-2.3307242125984251
0
LINE
8
BLACK
6
CONTINUOUS
10
3.2702794094488188
20
-2.3307242125984251
11
3.2696915354330707
21
-2.3293049999999997
0
LINE
8
BLACK
6
CONTINUOUS
10
3.2696915354330707
20
-2.3293049999999997
11
3.2696159055118108
21
-2.328536929133858
0
LINE
8
BLACK
6
CONTINUOUS
10
3.2696159055118108
20
-2.328536929133858
11
3.2696159055118108
21
-2.2497967716535432
0
LINE
8
BLACK
6
CONTINUOUS
10
3.2696159055118108
20
-2.2497967716535432
11
3.2696915354330707
21
-2.2490287007874015
0
LINE
8
BLACK
6
CONTINUOUS
10
3.2696915354330707
20
-2.2490287007874015
11
3.2702794094488188
21
-2.2476094881889765
0
LINE
8
BLACK
6
CONTINUOUS
10
3.2702794094488188
20
-2.2476094881889765
11
3.2713656299212599
21
-2.2465232677165354
0
LINE
8
BLACK
6
CONTINUOUS
10
3.2713656299212599
20
-2.2465232677165354
11
3.2727848425196848
21
-2.2459353937007873
0
LINE
8
BLACK
6
CONTINUOUS
10
3.2727848425196848
20
-2.2459353937007873
11
3.2735529133858265
21
-2.2458597637795275
0
LINE
8
BLACK
6
CONTINUOUS
10
3.2735529133858265
20
-2.2458597637795275
11
3.2997996456692911
21
-2.2458597637795275
0
LINE
8
BLACK
6
CONTINUOUS
10
3.2997996456692911
20
-2.2458597637795275
11
3.3005677165354328
21
-2.2459353937007873
0
LINE
8
BLACK
6
CONTINUOUS
10
3.2774899212598423
20
-2.2871046062992124
11
3.2987541338582678
21
-2.2871046062992124
0
LINE
8
BLACK
6
CONTINUOUS
10
3.2987541338582678
20
-2.2871046062992124
11
3.3038338582677165
21
-2.2842018897637795
0
LINE
8
BLACK
6
CONTINUOUS
10
3.3038338582677165
20
-2.2842018897637795
11
3.3062788582677163
21
-2.2814075196850392
0
LINE
8
BLACK
6
CONTINUOUS
10
3.3062788582677163
20
-2.2814075196850392
11
3.3089859842519682
21
-2.2752199212598425
0
LINE
8
BLACK
6
CONTINUOUS
10
3.3089859842519682
20
-2.2752199212598425
11
3.3089859842519682
21
-2.2656183858267718
0
LINE
8
BLACK
6
CONTINUOUS
10
3.3089859842519682
20
-2.2656183858267718
11
3.3062788582677163
21
-2.2594307874015747
0
LINE
8
BLACK
6
CONTINUOUS
10
3.3062788582677163
20
-2.2594307874015747
11
3.3038338582677165
21
-2.2566364566929131
0
LINE
8
BLACK
6
CONTINUOUS
10
3.3038338582677165
20
-2.2566364566929131
11
3.2987541338582678
21
-2.2537337795275589
0
LINE
8
BLACK
6
CONTINUOUS
10
3.2987541338582678
20
-2.2537337795275589
11
3.2774899212598423
21
-2.2537337795275589
0
LINE
8
BLACK
6
CONTINUOUS
10
3.2774899212598423
20
-2.2537337795275589
11
3.2774899212598423
21
-2.2871046062992124
0
LINE
8
BLACK
6
CONTINUOUS
10
3.3727461811023622
20
-2.2459353937007873
11
3.3741653937007872
21
-2.2465232677165354
0
LINE
8
BLACK
6
CONTINUOUS
10
3.3741653937007872
20
-2.2465232677165354
11
3.3752516141732283
21
-2.2476094881889765
0
LINE
8
BLACK
6
CONTINUOUS
10
3.3752516141732283
20
-2.2476094881889765
11
3.3758394881889764
21
-2.2490287007874015
0
LINE
8
BLACK
6
CONTINUOUS
10
3.3758394881889764
20
-2.2490287007874015
11
3.3758394881889764
21
-2.2505648425196849
0
LINE
8
BLACK
6
CONTINUOUS
10
3.3758394881889764
20
-2.2505648425196849
11
3.3752516141732283
21
-2.2519840551181103
0
LINE
8
BLACK
6
CONTINUOUS
10
3.3752516141732283
20
-2.2519840551181103
11
3.3741653937007872
21
-2.253070275590551
0
LINE
8
BLACK
6
CONTINUOUS
10
3.3741653937007872
20
-2.253070275590551
11
3.3727461811023622
21
-2.2536581496062991
0
LINE
8
BLACK
6
CONTINUOUS
10
3.3727461811023622
20
-2.2536581496062991
11
3.3719781102362205
21
-2.2537337795275589
0
LINE
8
BLACK
6
CONTINUOUS
10
3.3719781102362205
20
-2.2537337795275589
11
3.3562300787401576
21
-2.2537337795275589
0
LINE
8
BLACK
6
CONTINUOUS
10
3.3562300787401576
20
-2.2537337795275589
11
3.3562300787401576
21
-2.328536929133858
0
LINE
8
BLACK
6
CONTINUOUS
10
3.3562300787401576
20
-2.328536929133858
11
3.3561544488188977
21
-2.3293049999999997
0
LINE
8
BLACK
6
CONTINUOUS
10
3.3561544488188977
20
-2.3293049999999997
11
3.3555665748031496
21
-2.3307242125984251
0
LINE
8
BLACK
6
CONTINUOUS
10
3.3555665748031496
20
-2.3307242125984251
11
3.3544803543307085
21
-2.3318104330708662
0
LINE
8
BLACK
6
CONTINUOUS
10
3.3544803543307085
20
-2.3318104330708662
11
3.3530611417322835
21
-2.3323983070866143
0
LINE
8
BLACK
6
CONTINUOUS
10
3.3530611417322835
20
-2.3323983070866143
11
3.3515250000000001
21
-2.3323983070866143
0
LINE
8
BLACK
6
CONTINUOUS
10
3.3515250000000001
20
-2.3323983070866143
11
3.3501057874015747
21
-2.3318104330708662
0
LINE
8
BLACK
6
CONTINUOUS
10
3.3501057874015747
20
-2.3318104330708662
11
3.3490195669291336
21
-2.3307242125984251
0
LINE
8
BLACK
6
CONTINUOUS
10
3.3490195669291336
20
-2.3307242125984251
11
3.3484316929133859
21
-2.3293049999999997
0
LINE
8
BLACK
6
CONTINUOUS
10
3.3484316929133859
20
-2.3293049999999997
11
3.3483560629921261
21
-2.328536929133858
0
LINE
8
BLACK
6
CONTINUOUS
10
3.3483560629921261
20
-2.328536929133858
11
3.3483560629921261
21
-2.2537337795275589
0
LINE
8
BLACK
6
CONTINUOUS
10
3.3483560629921261
20
-2.2537337795275589
11
3.3326080314960631
21
-2.2537337795275589
0
LINE
8
BLACK
6
CONTINUOUS
10
3.3326080314960631
20
-2.2537337795275589
11
3.3318399606299214
21
-2.2536581496062991
0
LINE
8
BLACK
6
CONTINUOUS
10
3.3318399606299214
20
-2.2536581496062991
11
3.330420748031496
21
-2.253070275590551
0
LINE
8
BLACK
6
CONTINUOUS
10
3.330420748031496
20
-2.253070275590551
11
3.3293345275590549
21
-2.2519840551181103
0
LINE
8
BLACK
6
CONTINUOUS
10
3.3293345275590549
20
-2.2519840551181103
11
3.3287466535433072
21
-2.2505648425196849
0
LINE
8
BLACK
6
CONTINUOUS
10
3.3287466535433072
20
-2.2505648425196849
11
3.3287466535433072
21
-2.2490287007874015
0
LINE
8
BLACK
6
CONTINUOUS
10
3.3287466535433072
20
-2.2490287007874015
11
3.3293345275590549
21
-2.2476094881889765
0
LINE
8
BLACK
6
CONTINUOUS
10
3.3293345275590549
20
-2.2476094881889765
11
3.330420748031496
21
-2.2465232677165354
0
LINE
8
BLACK
6
CONTINUOUS
10
3.330420748031496
20
-2.2465232677165354
11
3.3318399606299214
21
-2.2459353937007873
0
LINE
8
BLACK
6
CONTINUOUS
10
3.3318399606299214
20
-2.2459353937007873
11
3.3326080314960631
21
-2.2458597637795275
0
LINE
8
BLACK
6
CONTINUOUS
10
3.3326080314960631
20
-2.2458597637795275
11
3.3719781102362205
21
-2.2458597637795275
0
LINE
8
BLACK
6
CONTINUOUS
10
3.3719781102362205
20
-2.2458597637795275
11
3.3727461811023622
21
-2.2459353937007873
0
LINE
8
BLACK
6
CONTINUOUS
10
3.0785547244094489
20
-2.1815541732283465
11
3.0915468503937009
21
-2.1910029921259842
0
LINE
8
BLACK
6
CONTINUOUS
10
3.0915468503937009
20
-2.1910029921259842
11
3.0924907874015748
21
-2.1925449606299212
0
LINE
8
BLACK
6
CONTINUOUS
10
3.0924907874015748
20
-2.1925449606299212
11
3.0920678740157479
21
-2.1943027559055119
0
LINE
8
BLACK
6
CONTINUOUS
10
3.0920678740157479
20
-2.1943027559055119
11
3.0915468503937009
21
-2.1948237795275589
0
LINE
8
BLACK
6
CONTINUOUS
10
3.0915468503937009
20
-2.1948237795275589
11
3.0785547244094489
21
-2.204272598425197
0
LINE
8
BLACK
6
CONTINUOUS
10
3.0785547244094489
20
-2.204272598425197
11
3.0767969291338582
21
-2.2046955118110234
0
LINE
8
BLACK
6
CONTINUOUS
10
3.0767969291338582
20
-2.2046955118110234
11
3.0752549606299211
21
-2.2037515748031495
0
LINE
8
BLACK
6
CONTINUOUS
10
3.0752549606299211
20
-2.2037515748031495
11
3.0748031496062991
21
-2.2023622047244094
0
LINE
8
BLACK
6
CONTINUOUS
10
3.0748031496062991
20
-2.2023622047244094
11
3.0748031496062991
21
-2.1834645669291337
0
LINE
8
BLACK
6
CONTINUOUS
10
3.0748031496062991
20
-2.1834645669291337
11
3.0754950393700788
21
-2.1817942519685039
0
LINE
8
BLACK
6
CONTINUOUS
10
3.0754950393700788
20
-2.1817942519685039
11
3.0771653543307087
21
-2.1811023622047245
0
LINE
8
BLACK
6
CONTINUOUS
10
3.0771653543307087
20
-2.1811023622047245
11
3.0785547244094489
21
-2.1815541732283465
0
LINE
8
BLACK
6
CONTINUOUS
10
3.090371377952756
20
-2.1093322440944879
11
3.090551181102362
21
-2.1102362204724407
0
LINE
8
BLACK
6
CONTINUOUS
10
3.090551181102362
20
-2.1102362204724407
11
3.090551181102362
21
-2.1417322834645667
0
LINE
8
BLACK
6
CONTINUOUS
10
3.090551181102362
20
-2.1417322834645667
11
3.090551181102362
21
-2.173228346456693
0
LINE
8
BLACK
6
CONTINUOUS
10
3.090551181102362
20
-2.173228346456693
11
3.090371377952756
21
-2.1741323228346454
0
LINE
8
BLACK
6
CONTINUOUS
10
3.090371377952756
20
-2.1741323228346454
11
3.0890929527559052
21
-2.1754107480314961
0
LINE
8
BLACK
6
CONTINUOUS
10
3.0890929527559052
20
-2.1754107480314961
11
3.0872850000000001
21
-2.1754107480314961
0
LINE
8
BLACK
6
CONTINUOUS
10
3.0872850000000001
20
-2.1754107480314961
11
3.0860065748031493
21
-2.1741323228346454
0
LINE
8
BLACK
6
CONTINUOUS
10
3.0860065748031493
20
-2.1741323228346454
11
3.0858267716535432
21
-2.173228346456693
0
LINE
8
BLACK
6
CONTINUOUS
10
3.0858267716535432
20
-2.173228346456693
11
3.0858267716535432
21
-2.1417322834645667
0
LINE
8
BLACK
6
CONTINUOUS
10
3.0858267716535432
20
-2.1417322834645667
11
3.0858267716535432
21
-2.1102362204724407
0
LINE
8
BLACK
6
CONTINUOUS
10
3.0858267716535432
20
-2.1102362204724407
11
3.0860065748031493
21
-2.1093322440944879
0
LINE
8
BLACK
6
CONTINUOUS
10
3.0860065748031493
20
-2.1093322440944879
11
3.0872850000000001
21
-2.1080538188976377
0
LINE
8
BLACK
6
CONTINUOUS
10
3.0872850000000001
20
-2.1080538188976377
11
3.0890929527559052
21
-2.1080538188976377
0
LINE
8
BLACK
6
CONTINUOUS
10
3.0890929527559052
20
-2.1080538188976377
11
3.090371377952756
21
-2.1093322440944879
0
LINE
8
BLACK
6
CONTINUOUS
10
3.213206023622047
20
-2.1093322440944879
11
3.2133858267716535
21
-2.1102362204724407
0
LINE
8
BLACK
6
CONTINUOUS
10
3.2133858267716535
20
-2.1102362204724407
11
3.2133858267716535
21
-2.1417322834645667
0
LINE
8
BLACK
6
CONTINUOUS
10
3.2133858267716535
20
-2.1417322834645667
11
3.2133858267716535
21
-2.173228346456693
0
LINE
8
BLACK
6
CONTINUOUS
10
3.2133858267716535
20
-2.173228346456693
11
3.213206023622047
21
-2.1741323228346454
0
LINE
8
BLACK
6
CONTINUOUS
10
3.213206023622047
20
-2.1741323228346454
11
3.2119275984251967
21
-2.1754107480314961
0
LINE
8
BLACK
6
CONTINUOUS
10
3.2119275984251967
20
-2.1754107480314961
11
3.2101196456692911
21
-2.1754107480314961
0
LINE
8
BLACK
6
CONTINUOUS
10
3.2101196456692911
20
-2.1754107480314961
11
3.2088412204724408
21
-2.1741323228346454
0
LINE
8
BLACK
6
CONTINUOUS
10
3.2088412204724408
20
-2.1741323228346454
11
3.2086614173228347
21
-2.173228346456693
0
LINE
8
BLACK
6
CONTINUOUS
10
3.2086614173228347
20
-2.173228346456693
11
3.2086614173228347
21
-2.1417322834645667
0
LINE
8
BLACK
6
CONTINUOUS
10
3.2086614173228347
20
-2.1417322834645667
11
3.2086614173228347
21
-2.1102362204724407
0
LINE
8
BLACK
6
CONTINUOUS
10
3.2086614173228347
20
-2.1102362204724407
11
3.2088412204724408
21
-2.1093322440944879
0
LINE
8
BLACK
6
CONTINUOUS
10
3.2088412204724408
20
-2.1093322440944879
11
3.2101196456692911
21
-2.1080538188976377
0
LINE
8
BLACK
6
CONTINUOUS
10
3.2101196456692911
20
-2.1080538188976377
11
3.2119275984251967
21
-2.1080538188976377
0
LINE
8
BLACK
6
CONTINUOUS
10
3.2119275984251967
20
-2.1080538188976377
11
3.213206023622047
21
-2.1093322440944879
0
LINE
8
BLACK
6
CONTINUOUS
10
3.171269251968504
20
-1.9956924409448817
11
3.18547937007874
21
-1.9985190157480315
0
LINE
8
BLACK
6
CONTINUOUS
10
3.18547937007874
20
-1.9985190157480315
11
3.1993439763779525
21
-2.0027248031496061
0
LINE
8
BLACK
6
CONTINUOUS
10
3.1993439763779525
20
-2.0027248031496061
11
3.2127296062992126
21
-2.0082692913385825
0
LINE
8
BLACK
6
CONTINUOUS
10
3.2127296062992126
20
-2.0082692913385825
11
3.2255072834645668
21
-2.0150991338582678
0
LINE
8
BLACK
6
CONTINUOUS
10
3.2255072834645668
20
-2.0150991338582678
11
3.2375540157480316
21
-2.0231485039370076
0
LINE
8
BLACK
6
CONTINUOUS
10
3.2375540157480316
20
-2.0231485039370076
11
3.2487537795275592
21
-2.0323398818897638
0
LINE
8
BLACK
6
CONTINUOUS
10
3.2487537795275592
20
-2.0323398818897638
11
3.2589987007874015
21
-2.0425848031496061
0
LINE
8
BLACK
6
CONTINUOUS
10
3.2589987007874015
20
-2.0425848031496061
11
3.2681900787401572
21
-2.0537845669291337
0
LINE
8
BLACK
6
CONTINUOUS
10
3.2681900787401572
20
-2.0537845669291337
11
3.2762394488188975
21
-2.0658312992125984
0
LINE
8
BLACK
6
CONTINUOUS
10
3.2762394488188975
20
-2.0658312992125984
11
3.2830692913385824
21
-2.0786089763779527
0
LINE
8
BLACK
6
CONTINUOUS
10
3.2830692913385824
20
-2.0786089763779527
11
3.2886137795275592
21
-2.0919946062992127
0
LINE
8
BLACK
6
CONTINUOUS
10
3.2886137795275592
20
-2.0919946062992127
11
3.2928195669291336
21
-2.1058592125984252
0
LINE
8
BLACK
6
CONTINUOUS
10
3.2928195669291336
20
-2.1058592125984252
11
3.2956461417322833
21
-2.1200693307086613
0
LINE
8
BLACK
6
CONTINUOUS
10
3.2956461417322833
20
-2.1200693307086613
11
3.2970662598425196
21
-2.1344880314960628
0
LINE
8
BLACK
6
CONTINUOUS
10
3.2970662598425196
20
-2.1344880314960628
11
3.2970662598425196
21
-2.148976535433071
0
LINE
8
BLACK
6
CONTINUOUS
10
3.2970662598425196
20
-2.148976535433071
11
3.2956461417322833
21
-2.1633952362204725
0
LINE
8
BLACK
6
CONTINUOUS
10
3.2956461417322833
20
-2.1633952362204725
11
3.2928195669291336
21
-2.1776053543307086
0
LINE
8
BLACK
6
CONTINUOUS
10
3.2928195669291336
20
-2.1776053543307086
11
3.2886137795275592
21
-2.1914699606299211
0
LINE
8
BLACK
6
CONTINUOUS
10
3.2886137795275592
20
-2.1914699606299211
11
3.2830692913385824
21
-2.2048555905511811
0
LINE
8
BLACK
6
CONTINUOUS
10
3.2830692913385824
20
-2.2048555905511811
11
3.2762394488188975
21
-2.2176332677165354
0
LINE
8
BLACK
6
CONTINUOUS
10
3.2762394488188975
20
-2.2176332677165354
11
3.2681900787401572
21
-2.2296800000000001
0
LINE
8
BLACK
6
CONTINUOUS
10
3.2681900787401572
20
-2.2296800000000001
11
3.2589987007874015
21
-2.2408797637795277
0
LINE
8
BLACK
6
CONTINUOUS
10
3.2589987007874015
20
-2.2408797637795277
11
3.2487537795275592
21
-2.25112468503937
0
LINE
8
BLACK
6
CONTINUOUS
10
3.2487537795275592
20
-2.25112468503937
11
3.2375540157480316
21
-2.2603160629921257
0
LINE
8
BLACK
6
CONTINUOUS
10
3.2375540157480316
20
-2.2603160629921257
11
3.2255072834645668
21
-2.268365433070866
0
LINE
8
BLACK
6
CONTINUOUS
10
3.2255072834645668
20
-2.268365433070866
11
3.2127296062992126
21
-2.2751952755905513
0
LINE
8
BLACK
6
CONTINUOUS
10
3.2127296062992126
20
-2.2751952755905513
11
3.1993439763779525
21
-2.2807397637795277
0
LINE
8
BLACK
6
CONTINUOUS
10
3.1993439763779525
20
-2.2807397637795277
11
3.18547937007874
21
-2.2849455511811021
0
LINE
8
BLACK
6
CONTINUOUS
10
3.18547937007874
20
-2.2849455511811021
11
3.171269251968504
21
-2.2877721259842518
0
LINE
8
BLACK
6
CONTINUOUS
10
3.171269251968504
20
-2.2877721259842518
11
3.1568505511811025
21
-2.2891922440944881
0
LINE
8
BLACK
6
CONTINUOUS
10
3.1568505511811025
20
-2.2891922440944881
11
3.1423620472440943
21
-2.2891922440944881
0
LINE
8
BLACK
6
CONTINUOUS
10
3.1423620472440943
20
-2.2891922440944881
11
3.1279433464566928
21
-2.2877721259842518
0
LINE
8
BLACK
6
CONTINUOUS
10
3.1279433464566928
20
-2.2877721259842518
11
3.1137332283464567
21
-2.2849455511811021
0
LINE
8
BLACK
6
CONTINUOUS
10
3.1137332283464567
20
-2.2849455511811021
11
3.0998686220472442
21
-2.2807397637795277
0
LINE
8
BLACK
6
CONTINUOUS
10
3.0998686220472442
20
-2.2807397637795277
11
3.0864829921259842
21
-2.2751952755905513
0
LINE
8
BLACK
6
CONTINUOUS
10
3.0864829921259842
20
-2.2751952755905513
11
3.0737053149606299
21
-2.268365433070866
0
LINE
8
BLACK
6
CONTINUOUS
10
3.0737053149606299
20
-2.268365433070866
11
3.0616585826771652
21
-2.2603160629921257
0
LINE
8
BLACK
6
CONTINUOUS
10
3.0616585826771652
20
-2.2603160629921257
11
3.0504588188976376
21
-2.25112468503937
0
LINE
8
BLACK
6
CONTINUOUS
10
3.0504588188976376
20
-2.25112468503937
11
3.0402138976377953
21
-2.2408797637795277
0
LINE
8
BLACK
6
CONTINUOUS
10
3.0402138976377953
20
-2.2408797637795277
11
3.0310225196850391
21
-2.2296800000000001
0
LINE
8
BLACK
6
CONTINUOUS
10
3.0310225196850391
20
-2.2296800000000001
11
3.0229731496062993
21
-2.2176332677165354
0
LINE
8
BLACK
6
CONTINUOUS
10
3.0229731496062993
20
-2.2176332677165354
11
3.0161433070866139
21
-2.2048555905511811
0
LINE
8
BLACK
6
CONTINUOUS
10
3.0161433070866139
20
-2.2048555905511811
11
3.0105988188976376
21
-2.1914699606299211
0
LINE
8
BLACK
6
CONTINUOUS
10
3.0105988188976376
20
-2.1914699606299211
11
3.0063930314960627
21
-2.1776053543307086
0
LINE
8
BLACK
6
CONTINUOUS
10
3.0063930314960627
20
-2.1776053543307086
11
3.0035664566929134
21
-2.1633952362204725
0
LINE
8
BLACK
6
CONTINUOUS
10
3.0035664566929134
20
-2.1633952362204725
11
3.0021463385826772
21
-2.148976535433071
0
LINE
8
BLACK
6
CONTINUOUS
10
3.0021463385826772
20
-2.148976535433071
11
3.0021463385826772
21
-2.1354463779527557
0
LINE
8
BLACK
6
CONTINUOUS
10
3.0021463385826772
20
-2.1354463779527557
11
3.0021463385826772
21
-2.1344880314960628
0
LINE
8
BLACK
6
CONTINUOUS
10
3.0021463385826772
20
-2.1344880314960628
11
3.0035664566929134
21
-2.1200693307086613
0
LINE
8
BLACK
6
CONTINUOUS
10
3.0035664566929134
20
-2.1200693307086613
11
3.0063930314960627
21
-2.1058592125984252
0
LINE
8
BLACK
6
CONTINUOUS
10
3.0063930314960627
20
-2.1058592125984252
11
3.0105988188976376
21
-2.0919946062992127
0
LINE
8
BLACK
6
CONTINUOUS
10
3.0105988188976376
20
-2.0919946062992127
11
3.0161433070866139
21
-2.0786089763779527
0
LINE
8
BLACK
6
CONTINUOUS
10
3.0161433070866139
20
-2.0786089763779527
11
3.0229731496062993
21
-2.0658312992125984
0
LINE
8
BLACK
6
CONTINUOUS
10
3.0229731496062993
20
-2.0658312992125984
11
3.0310225196850391
21
-2.0537845669291337
0
LINE
8
BLACK
6
CONTINUOUS
10
3.0310225196850391
20
-2.0537845669291337
11
3.0402138976377953
21
-2.0425848031496061
0
LINE
8
BLACK
6
CONTINUOUS
10
3.0402138976377953
20
-2.0425848031496061
11
3.0504588188976376
21
-2.0323398818897638
0
LINE
8
BLACK
6
CONTINUOUS
10
3.0504588188976376
20
-2.0323398818897638
11
3.0616585826771652
21
-2.0231485039370076
0
LINE
8
BLACK
6
CONTINUOUS
10
3.0616585826771652
20
-2.0231485039370076
11
3.0737053149606299
21
-2.0150991338582678
0
LINE
8
BLACK
6
CONTINUOUS
10
3.0737053149606299
20
-2.0150991338582678
11
3.0864829921259842
21
-2.0082692913385825
0
LINE
8
BLACK
6
CONTINUOUS
10
3.0864829921259842
20
-2.0082692913385825
11
3.0998686220472442
21
-2.0027248031496061
0
LINE
8
BLACK
6
CONTINUOUS
10
3.0998686220472442
20
-2.0027248031496061
11
3.1137332283464567
21
-1.9985190157480315
0
LINE
8
BLACK
6
CONTINUOUS
10
3.1137332283464567
20
-1.9985190157480315
11
3.1279433464566928
21
-1.9956924409448817
0
LINE
8
BLACK
6
CONTINUOUS
10
3.1279433464566928
20
-1.9956924409448817
11
3.1423620472440943
21
-1.9942723228346457
0
LINE
8
BLACK
6
CONTINUOUS
10
3.1423620472440943
20
-1.9942723228346457
11
3.1568505511811025
21
-1.9942723228346457
0
LINE
8
BLACK
6
CONTINUOUS
10
3.1568505511811025
20
-1.9942723228346457
11
3.171269251968504
21
-1.9956924409448817
0
LINE
8
BLACK
6
CONTINUOUS
10
3.0216535433070866
20
-2.1480181889763781
11
3.0228858267716534
21
-2.1605294881889763
0
LINE
8
BLACK
6
CONTINUOUS
10
3.0228858267716534
20
-2.1605294881889763
11
3.025338464566929
21
-2.1728597637795275
0
LINE
8
BLACK
6
CONTINUOUS
10
3.025338464566929
20
-2.1728597637795275
11
3.0289878740157481
21
-2.1848902362204723
0
LINE
8
BLACK
6
CONTINUOUS
10
3.0289878740157481
20
-2.1848902362204723
11
3.0337988976377952
21
-2.196505118110236
0
LINE
8
BLACK
6
CONTINUOUS
10
3.0337988976377952
20
-2.196505118110236
11
3.0397252362204723
21
-2.2075924803149607
0
LINE
8
BLACK
6
CONTINUOUS
10
3.0397252362204723
20
-2.2075924803149607
11
3.0467097637795275
21
-2.2180455511811021
0
LINE
8
BLACK
6
CONTINUOUS
10
3.0467097637795275
20
-2.2180455511811021
11
3.0546852362204722
21
-2.2277637007874014
0
LINE
8
BLACK
6
CONTINUOUS
10
3.0546852362204722
20
-2.2277637007874014
11
3.0635748818897639
21
-2.2366533464566927
0
LINE
8
BLACK
6
CONTINUOUS
10
3.0635748818897639
20
-2.2366533464566927
11
3.0732930314960631
21
-2.2446288188976378
0
LINE
8
BLACK
6
CONTINUOUS
10
3.0732930314960631
20
-2.2446288188976378
11
3.0837461023622046
21
-2.251613346456693
0
LINE
8
BLACK
6
CONTINUOUS
10
3.0837461023622046
20
-2.251613346456693
11
3.0948334645669289
21
-2.2575396850393701
0
LINE
8
BLACK
6
CONTINUOUS
10
3.0948334645669289
20
-2.2575396850393701
11
3.106448346456693
21
-2.2623507086614172
0
LINE
8
BLACK
6
CONTINUOUS
10
3.106448346456693
20
-2.2623507086614172
11
3.1184788188976378
21
-2.2660001181102363
0
LINE
8
BLACK
6
CONTINUOUS
10
3.1184788188976378
20
-2.2660001181102363
11
3.130809094488189
21
-2.2684527559055119
0
LINE
8
BLACK
6
CONTINUOUS
10
3.130809094488189
20
-2.2684527559055119
11
3.1433203937007872
21
-2.2696850393700787
0
LINE
8
BLACK
6
CONTINUOUS
10
3.1433203937007872
20
-2.2696850393700787
11
3.1558922047244096
21
-2.2696850393700787
0
LINE
8
BLACK
6
CONTINUOUS
10
3.1558922047244096
20
-2.2696850393700787
11
3.1684035039370078
21
-2.2684527559055119
0
LINE
8
BLACK
6
CONTINUOUS
10
3.1684035039370078
20
-2.2684527559055119
11
3.180733779527559
21
-2.2660001181102363
0
LINE
8
BLACK
6
CONTINUOUS
10
3.180733779527559
20
-2.2660001181102363
11
3.1927642519685038
21
-2.2623507086614172
0
LINE
8
BLACK
6
CONTINUOUS
10
3.1927642519685038
20
-2.2623507086614172
11
3.2043791338582674
21
-2.2575396850393701
0
LINE
8
BLACK
6
CONTINUOUS
10
3.2043791338582674
20
-2.2575396850393701
11
3.2154664960629922
21
-2.251613346456693
0
LINE
8
BLACK
6
CONTINUOUS
10
3.2154664960629922
20
-2.251613346456693
11
3.2259195669291336
21
-2.2446288188976378
0
LINE
8
BLACK
6
CONTINUOUS
10
3.2259195669291336
20
-2.2446288188976378
11
3.2356377165354329
21
-2.2366533464566927
0
LINE
8
BLACK
6
CONTINUOUS
10
3.2356377165354329
20
-2.2366533464566927
11
3.2445273622047242
21
-2.2277637007874014
0
LINE
8
BLACK
6
CONTINUOUS
10
3.2445273622047242
20
-2.2277637007874014
11
3.2525028346456692
21
-2.2180455511811021
0
LINE
8
BLACK
6
CONTINUOUS
10
3.2525028346456692
20
-2.2180455511811021
11
3.2594873622047245
21
-2.2075924803149607
0
LINE
8
BLACK
6
CONTINUOUS
10
3.2594873622047245
20
-2.2075924803149607
11
3.2654137007874016
21
-2.196505118110236
0
LINE
8
BLACK
6
CONTINUOUS
10
3.2654137007874016
20
-2.196505118110236
11
3.2702247244094487
21
-2.1848902362204723
0
LINE
8
BLACK
6
CONTINUOUS
10
3.2702247244094487
20
-2.1848902362204723
11
3.2738741338582678
21
-2.1728597637795275
0
LINE
8
BLACK
6
CONTINUOUS
10
3.2738741338582678
20
-2.1728597637795275
11
3.2763267716535434
21
-2.1605294881889763
0
LINE
8
BLACK
6
CONTINUOUS
10
3.2763267716535434
20
-2.1605294881889763
11
3.2775590551181102
21
-2.1480181889763781
0
LINE
8
BLACK
6
CONTINUOUS
10
3.2775590551181102
20
-2.1480181889763781
11
3.2775590551181102
21
-2.1354463779527557
0
LINE
8
BLACK
6
CONTINUOUS
10
3.2775590551181102
20
-2.1354463779527557
11
3.2763267716535434
21
-2.1229350787401575
0
LINE
8
BLACK
6
CONTINUOUS
10
3.2763267716535434
20
-2.1229350787401575
11
3.2738741338582678
21
-2.1106048031496063
0
LINE
8
BLACK
6
CONTINUOUS
10
3.2738741338582678
20
-2.1106048031496063
11
3.2702247244094487
21
-2.0985743307086615
0
LINE
8
BLACK
6
CONTINUOUS
10
3.2702247244094487
20
-2.0985743307086615
11
3.2654137007874016
21
-2.0869594488188974
0
LINE
8
BLACK
6
CONTINUOUS
10
3.2654137007874016
20
-2.0869594488188974
11
3.2594873622047245
21
-2.0758720866141731
0
LINE
8
BLACK
6
CONTINUOUS
10
3.2594873622047245
20
-2.0758720866141731
11
3.2525028346456692
21
-2.0654190157480317
0
LINE
8
BLACK
6
CONTINUOUS
10
3.2525028346456692
20
-2.0654190157480317
11
3.2445273622047242
21
-2.0557008661417324
0
LINE
8
BLACK
6
CONTINUOUS
10
3.2445273622047242
20
-2.0557008661417324
11
3.2356377165354329
21
-2.0468112204724407
0
LINE
8
BLACK
6
CONTINUOUS
10
3.2356377165354329
20
-2.0468112204724407
11
3.2259195669291336
21
-2.038835748031496
0
LINE
8
BLACK
6
CONTINUOUS
10
3.2259195669291336
20
-2.038835748031496
11
3.2154664960629922
21
-2.0318512204724408
0
LINE
8
BLACK
6
CONTINUOUS
10
3.2154664960629922
20
-2.0318512204724408
11
3.2043791338582674
21
-2.0259248818897637
0
LINE
8
BLACK
6
CONTINUOUS
10
3.2043791338582674
20
-2.0259248818897637
11
3.1927642519685038
21
-2.0211138582677166
0
LINE
8
BLACK
6
CONTINUOUS
10
3.1927642519685038
20
-2.0211138582677166
11
3.180733779527559
21
-2.0174644488188975
0
LINE
8
BLACK
6
CONTINUOUS
10
3.180733779527559
20
-2.0174644488188975
11
3.1684035039370078
21
-2.0150118110236219
0
LINE
8
BLACK
6
CONTINUOUS
10
3.1684035039370078
20
-2.0150118110236219
11
3.1558922047244096
21
-2.0137795275590551
0
LINE
8
BLACK
6
CONTINUOUS
10
3.1558922047244096
20
-2.0137795275590551
11
3.1433203937007872
21
-2.0137795275590551
0
LINE
8
BLACK
6
CONTINUOUS
10
3.1433203937007872
20
-2.0137795275590551
11
3.130809094488189
21
-2.0150118110236219
0
LINE
8
BLACK
6
CONTINUOUS
10
3.130809094488189
20
-2.0150118110236219
11
3.1184788188976378
21
-2.0174644488188975
0
LINE
8
BLACK
6
CONTINUOUS
10
3.1184788188976378
20
-2.0174644488188975
11
3.106448346456693
21
-2.0211138582677166
0
LINE
8
BLACK
6
CONTINUOUS
10
3.106448346456693
20
-2.0211138582677166
11
3.0948334645669289
21
-2.0259248818897637
0
LINE
8
BLACK
6
CONTINUOUS
10
3.0948334645669289
20
-2.0259248818897637
11
3.0837461023622046
21
-2.0318512204724408
0
LINE
8
BLACK
6
CONTINUOUS
10
3.0837461023622046
20
-2.0318512204724408
11
3.0732930314960631
21
-2.038835748031496
0
LINE
8
BLACK
6
CONTINUOUS
10
3.0732930314960631
20
-2.038835748031496
11
3.0635748818897639
21
-2.0468112204724407
0
LINE
8
BLACK
6
CONTINUOUS
10
3.0635748818897639
20
-2.0468112204724407
11
3.0546852362204722
21
-2.0557008661417324
0
LINE
8
BLACK
6
CONTINUOUS
10
3.0546852362204722
20
-2.0557008661417324
11
3.0467097637795275
21
-2.0654190157480317
0
LINE
8
BLACK
6
CONTINUOUS
10
3.0467097637795275
20
-2.0654190157480317
11
3.0397252362204723
21
-2.0758720866141731
0
LINE
8
BLACK
6
CONTINUOUS
10
3.0397252362204723
20
-2.0758720866141731
11
3.0337988976377952
21
-2.0869594488188974
0
LINE
8
BLACK
6
CONTINUOUS
10
3.0337988976377952
20
-2.0869594488188974
11
3.0289878740157481
21
-2.0985743307086615
0
LINE
8
BLACK
6
CONTINUOUS
10
3.0289878740157481
20
-2.0985743307086615
11
3.025338464566929
21
-2.1106048031496063
0
LINE
8
BLACK
6
CONTINUOUS
10
3.025338464566929
20
-2.1106048031496063
11
3.0228858267716534
21
-2.1229350787401575
0
LINE
8
BLACK
6
CONTINUOUS
10
3.0228858267716534
20
-2.1229350787401575
11
3.0216535433070866
21
-2.1354463779527557
0
LINE
8
BLACK
6
CONTINUOUS
10
3.0216535433070866
20
-2.1354463779527557
11
3.0216535433070866
21
-2.1480181889763781
  0
ENDSEC
  0
EOF
