  0
SECTION
  2
HEADER
  9
$ANGBASE
  50
0.0
  9
$ANGDIR
  70
1
  9
$MEASUREMENT
  70
0
  0
ENDSEC
  0
SECTION
  2
TABLES
  0
TABLE
  2
LTYPE
  70
4
  0
LTYPE
  5
40F
  2
CONTINUOUS
  70
0
  3
Solid line
  72
65
  73
0
  40
0.0
  0
LTYPE
  5
410
  2
DASHDOT
 70
0
  3
Dash Dot ____ _ ____ _
 72
65
 73
4
 40
2.0
 49
1.25
 49
-0.25
 49
0.25
 49
-0.25
  0
LTYPE
  5
411
  2
DASHED
 70
0
  3
Dashed __ __ __ __ __
 72
65
 73
2
 40
0.75
 49
0.5
 49
-0.25
  0
LTYPE
  5
43B
  2
DOTTED
 70
0
  3
Dotted .  .  .  .
 72
65
 73
2
 40
0.2
 49
0.0
 49
-0.2
  0
ENDTAB
  0
TABLE
  2
STYLE
  70
4
  0
STYLE
  2
KICAD
  70
0
  40
0
  41
1
  42
1
  50
0
  71
0
  3
isocp.shx
  0
STYLE
  2
KICADB
  70
0
  40
0
  41
1
  42
1
  50
0
  71
0
  3
isocp.shx
  0
STYLE
  2
KICADI
  70
0
  40
0
  41
1
  42
1
  50
15
  71
0
  3
isocp.shx
  0
STYLE
  2
KICADBI
  70
0
  40
0
  41
1
  42
1
  50
15
  71
0
  3
isocp.shx
  0
ENDTAB
  0
TABLE
  2
LAYER
  70
1
  0
LAYER
  2
BLACK
  70
0
  62
7
  6
CONTINUOUS
  0
ENDTAB
  0
ENDSEC
  0
SECTION
  2
ENTITIES
0
LINE
8
BLACK
6
CONTINUOUS
10
2.8605035433070864
20
-2.8161572047244094
11
2.8669666141732284
21
-2.8182572047244094
0
LINE
8
BLACK
6
CONTINUOUS
10
2.8669666141732284
20
-2.8182572047244094
11
2.8730215748031496
21
-2.8213423622047245
0
LINE
8
BLACK
6
CONTINUOUS
10
2.8730215748031496
20
-2.8213423622047245
11
2.8785194094488187
21
-2.8253367322834646
0
LINE
8
BLACK
6
CONTINUOUS
10
2.8785194094488187
20
-2.8253367322834646
11
2.8833246850393701
21
-2.8301420078740156
0
LINE
8
BLACK
6
CONTINUOUS
10
2.8833246850393701
20
-2.8301420078740156
11
2.8873190551181103
21
-2.8356398425196851
0
LINE
8
BLACK
6
CONTINUOUS
10
2.8873190551181103
20
-2.8356398425196851
11
2.8904042125984253
21
-2.8416948031496063
0
LINE
8
BLACK
6
CONTINUOUS
10
2.8904042125984253
20
-2.8416948031496063
11
2.8925042125984253
21
-2.8481578740157478
0
LINE
8
BLACK
6
CONTINUOUS
10
2.8925042125984253
20
-2.8481578740157478
11
2.8935672834645669
21
-2.8548698818897638
0
LINE
8
BLACK
6
CONTINUOUS
10
2.8935672834645669
20
-2.8548698818897638
11
2.8935672834645669
21
-2.8616655511811024
0
LINE
8
BLACK
6
CONTINUOUS
10
2.8935672834645669
20
-2.8616655511811024
11
2.8925042125984253
21
-2.8683775590551179
0
LINE
8
BLACK
6
CONTINUOUS
10
2.8925042125984253
20
-2.8683775590551179
11
2.8904042125984253
21
-2.8748406299212599
0
LINE
8
BLACK
6
CONTINUOUS
10
2.8904042125984253
20
-2.8748406299212599
11
2.8873190551181103
21
-2.8808955905511811
0
LINE
8
BLACK
6
CONTINUOUS
10
2.8873190551181103
20
-2.8808955905511811
11
2.8833246850393701
21
-2.8863934251968502
0
LINE
8
BLACK
6
CONTINUOUS
10
2.8833246850393701
20
-2.8863934251968502
11
2.8785194094488187
21
-2.8911987007874016
0
LINE
8
BLACK
6
CONTINUOUS
10
2.8785194094488187
20
-2.8911987007874016
11
2.8730215748031496
21
-2.8951930708661417
0
LINE
8
BLACK
6
CONTINUOUS
10
2.8730215748031496
20
-2.8951930708661417
11
2.8669666141732284
21
-2.8982782283464568
0
LINE
8
BLACK
6
CONTINUOUS
10
2.8669666141732284
20
-2.8982782283464568
11
2.8605035433070864
21
-2.9003782283464568
0
LINE
8
BLACK
6
CONTINUOUS
10
2.8605035433070864
20
-2.9003782283464568
11
2.853791535433071
21
-2.9014412992125984
0
LINE
8
BLACK
6
CONTINUOUS
10
2.853791535433071
20
-2.9014412992125984
11
2.8469958661417323
21
-2.9014412992125984
0
LINE
8
BLACK
6
CONTINUOUS
10
2.8469958661417323
20
-2.9014412992125984
11
2.8402838582677163
21
-2.9003782283464568
0
LINE
8
BLACK
6
CONTINUOUS
10
2.8402838582677163
20
-2.9003782283464568
11
2.8338207874015748
21
-2.8982782283464568
0
LINE
8
BLACK
6
CONTINUOUS
10
2.8338207874015748
20
-2.8982782283464568
11
2.8277658267716537
21
-2.8951930708661417
0
LINE
8
BLACK
6
CONTINUOUS
10
2.8277658267716537
20
-2.8951930708661417
11
2.8222679921259841
21
-2.8911987007874016
0
LINE
8
BLACK
6
CONTINUOUS
10
2.8222679921259841
20
-2.8911987007874016
11
2.8174627165354331
21
-2.8863934251968502
0
LINE
8
BLACK
6
CONTINUOUS
10
2.8174627165354331
20
-2.8863934251968502
11
2.813468346456693
21
-2.8808955905511811
0
LINE
8
BLACK
6
CONTINUOUS
10
2.813468346456693
20
-2.8808955905511811
11
2.810383188976378
21
-2.8748406299212599
0
LINE
8
BLACK
6
CONTINUOUS
10
2.810383188976378
20
-2.8748406299212599
11
2.808283188976378
21
-2.8683775590551179
0
LINE
8
BLACK
6
CONTINUOUS
10
2.808283188976378
20
-2.8683775590551179
11
2.8072201181102363
21
-2.8616655511811024
0
LINE
8
BLACK
6
CONTINUOUS
10
2.8072201181102363
20
-2.8616655511811024
11
2.8072201181102363
21
-2.8548698818897638
0
LINE
8
BLACK
6
CONTINUOUS
10
2.8072201181102363
20
-2.8548698818897638
11
2.808283188976378
21
-2.8481578740157478
0
LINE
8
BLACK
6
CONTINUOUS
10
2.808283188976378
20
-2.8481578740157478
11
2.810383188976378
21
-2.8416948031496063
0
LINE
8
BLACK
6
CONTINUOUS
10
2.810383188976378
20
-2.8416948031496063
11
2.813468346456693
21
-2.8356398425196851
0
LINE
8
BLACK
6
CONTINUOUS
10
2.813468346456693
20
-2.8356398425196851
11
2.8174627165354331
21
-2.8301420078740156
0
LINE
8
BLACK
6
CONTINUOUS
10
2.8174627165354331
20
-2.8301420078740156
11
2.8222679921259841
21
-2.8253367322834646
0
LINE
8
BLACK
6
CONTINUOUS
10
2.8222679921259841
20
-2.8253367322834646
11
2.8277658267716537
21
-2.8213423622047245
0
LINE
8
BLACK
6
CONTINUOUS
10
2.8277658267716537
20
-2.8213423622047245
11
2.8338207874015748
21
-2.8182572047244094
0
LINE
8
BLACK
6
CONTINUOUS
10
2.8338207874015748
20
-2.8182572047244094
11
2.8402838582677163
21
-2.8161572047244094
0
LINE
8
BLACK
6
CONTINUOUS
10
2.8402838582677163
20
-2.8161572047244094
11
2.8469958661417323
21
-2.8150941338582678
0
LINE
8
BLACK
6
CONTINUOUS
10
2.8469958661417323
20
-2.8150941338582678
11
2.853791535433071
21
-2.8150941338582678
0
LINE
8
BLACK
6
CONTINUOUS
10
2.853791535433071
20
-2.8150941338582678
11
2.8605035433070864
21
-2.8161572047244094
0
LINE
8
BLACK
6
CONTINUOUS
10
3.4589287401574804
20
-2.8161572047244094
11
3.4653918110236219
21
-2.8182572047244094
0
LINE
8
BLACK
6
CONTINUOUS
10
3.4653918110236219
20
-2.8182572047244094
11
3.4714467716535431
21
-2.8213423622047245
0
LINE
8
BLACK
6
CONTINUOUS
10
3.4714467716535431
20
-2.8213423622047245
11
3.4769446062992126
21
-2.8253367322834646
0
LINE
8
BLACK
6
CONTINUOUS
10
3.4769446062992126
20
-2.8253367322834646
11
3.4817498818897636
21
-2.8301420078740156
0
LINE
8
BLACK
6
CONTINUOUS
10
3.4817498818897636
20
-2.8301420078740156
11
3.4857442519685038
21
-2.8356398425196851
0
LINE
8
BLACK
6
CONTINUOUS
10
3.4857442519685038
20
-2.8356398425196851
11
3.4888294094488188
21
-2.8416948031496063
0
LINE
8
BLACK
6
CONTINUOUS
10
3.4888294094488188
20
-2.8416948031496063
11
3.4909294094488188
21
-2.8481578740157478
0
LINE
8
BLACK
6
CONTINUOUS
10
3.4909294094488188
20
-2.8481578740157478
11
3.4919924803149605
21
-2.8548698818897638
0
LINE
8
BLACK
6
CONTINUOUS
10
3.4919924803149605
20
-2.8548698818897638
11
3.4919924803149605
21
-2.8616655511811024
0
LINE
8
BLACK
6
CONTINUOUS
10
3.4919924803149605
20
-2.8616655511811024
11
3.4909294094488188
21
-2.8683775590551179
0
LINE
8
BLACK
6
CONTINUOUS
10
3.4909294094488188
20
-2.8683775590551179
11
3.4888294094488188
21
-2.8748406299212599
0
LINE
8
BLACK
6
CONTINUOUS
10
3.4888294094488188
20
-2.8748406299212599
11
3.4857442519685038
21
-2.8808955905511811
0
LINE
8
BLACK
6
CONTINUOUS
10
3.4857442519685038
20
-2.8808955905511811
11
3.4817498818897636
21
-2.8863934251968502
0
LINE
8
BLACK
6
CONTINUOUS
10
3.4817498818897636
20
-2.8863934251968502
11
3.4769446062992126
21
-2.8911987007874016
0
LINE
8
BLACK
6
CONTINUOUS
10
3.4769446062992126
20
-2.8911987007874016
11
3.4714467716535431
21
-2.8951930708661417
0
LINE
8
BLACK
6
CONTINUOUS
10
3.4714467716535431
20
-2.8951930708661417
11
3.4653918110236219
21
-2.8982782283464568
0
LINE
8
BLACK
6
CONTINUOUS
10
3.4653918110236219
20
-2.8982782283464568
11
3.4589287401574804
21
-2.9003782283464568
0
LINE
8
BLACK
6
CONTINUOUS
10
3.4589287401574804
20
-2.9003782283464568
11
3.4522167322834645
21
-2.9014412992125984
0
LINE
8
BLACK
6
CONTINUOUS
10
3.4522167322834645
20
-2.9014412992125984
11
3.4454210629921258
21
-2.9014412992125984
0
LINE
8
BLACK
6
CONTINUOUS
10
3.4454210629921258
20
-2.9014412992125984
11
3.4387090551181103
21
-2.9003782283464568
0
LINE
8
BLACK
6
CONTINUOUS
10
3.4387090551181103
20
-2.9003782283464568
11
3.4322459842519684
21
-2.8982782283464568
0
LINE
8
BLACK
6
CONTINUOUS
10
3.4322459842519684
20
-2.8982782283464568
11
3.4261910236220472
21
-2.8951930708661417
0
LINE
8
BLACK
6
CONTINUOUS
10
3.4261910236220472
20
-2.8951930708661417
11
3.4206931889763781
21
-2.8911987007874016
0
LINE
8
BLACK
6
CONTINUOUS
10
3.4206931889763781
20
-2.8911987007874016
11
3.4158879133858266
21
-2.8863934251968502
0
LINE
8
BLACK
6
CONTINUOUS
10
3.4158879133858266
20
-2.8863934251968502
11
3.4118935433070865
21
-2.8808955905511811
0
LINE
8
BLACK
6
CONTINUOUS
10
3.4118935433070865
20
-2.8808955905511811
11
3.4088083858267715
21
-2.8748406299212599
0
LINE
8
BLACK
6
CONTINUOUS
10
3.4088083858267715
20
-2.8748406299212599
11
3.4067083858267715
21
-2.8683775590551179
0
LINE
8
BLACK
6
CONTINUOUS
10
3.4067083858267715
20
-2.8683775590551179
11
3.4056453149606298
21
-2.8616655511811024
0
LINE
8
BLACK
6
CONTINUOUS
10
3.4056453149606298
20
-2.8616655511811024
11
3.4056453149606298
21
-2.8548698818897638
0
LINE
8
BLACK
6
CONTINUOUS
10
3.4056453149606298
20
-2.8548698818897638
11
3.4067083858267715
21
-2.8481578740157478
0
LINE
8
BLACK
6
CONTINUOUS
10
3.4067083858267715
20
-2.8481578740157478
11
3.4088083858267715
21
-2.8416948031496063
0
LINE
8
BLACK
6
CONTINUOUS
10
3.4088083858267715
20
-2.8416948031496063
11
3.4118935433070865
21
-2.8356398425196851
0
LINE
8
BLACK
6
CONTINUOUS
10
3.4118935433070865
20
-2.8356398425196851
11
3.4158879133858266
21
-2.8301420078740156
0
LINE
8
BLACK
6
CONTINUOUS
10
3.4158879133858266
20
-2.8301420078740156
11
3.4206931889763781
21
-2.8253367322834646
0
LINE
8
BLACK
6
CONTINUOUS
10
3.4206931889763781
20
-2.8253367322834646
11
3.4261910236220472
21
-2.8213423622047245
0
LINE
8
BLACK
6
CONTINUOUS
10
3.4261910236220472
20
-2.8213423622047245
11
3.4322459842519684
21
-2.8182572047244094
0
LINE
8
BLACK
6
CONTINUOUS
10
3.4322459842519684
20
-2.8182572047244094
11
3.4387090551181103
21
-2.8161572047244094
0
LINE
8
BLACK
6
CONTINUOUS
10
3.4387090551181103
20
-2.8161572047244094
11
3.4454210629921258
21
-2.8150941338582678
0
LINE
8
BLACK
6
CONTINUOUS
10
3.4454210629921258
20
-2.8150941338582678
11
3.4522167322834645
21
-2.8150941338582678
0
LINE
8
BLACK
6
CONTINUOUS
10
3.4522167322834645
20
-2.8150941338582678
11
3.4589287401574804
21
-2.8161572047244094
0
LINE
8
BLACK
6
CONTINUOUS
10
3.0088459055118109
20
-2.5902507874015748
11
3.0109214566929134
21
-2.5916375984251969
0
LINE
8
BLACK
6
CONTINUOUS
10
3.0109214566929134
20
-2.5916375984251969
11
3.0123082677165351
21
-2.5937131496062991
0
LINE
8
BLACK
6
CONTINUOUS
10
3.0123082677165351
20
-2.5937131496062991
11
3.0127952755905509
21
-2.5961614173228345
0
LINE
8
BLACK
6
CONTINUOUS
10
3.0127952755905509
20
-2.5961614173228345
11
3.0127952755905509
21
-2.6089566929133858
0
LINE
8
BLACK
6
CONTINUOUS
10
3.0127952755905509
20
-2.6089566929133858
11
3.0123082677165351
21
-2.6114049606299212
0
LINE
8
BLACK
6
CONTINUOUS
10
3.0123082677165351
20
-2.6114049606299212
11
3.0109214566929134
21
-2.6134805118110234
0
LINE
8
BLACK
6
CONTINUOUS
10
3.0109214566929134
20
-2.6134805118110234
11
3.0088459055118109
21
-2.6148673228346455
0
LINE
8
BLACK
6
CONTINUOUS
10
3.0088459055118109
20
-2.6148673228346455
11
3.0063976377952755
21
-2.6153543307086613
0
LINE
8
BLACK
6
CONTINUOUS
10
3.0063976377952755
20
-2.6153543307086613
11
2.9552165354330708
21
-2.6153543307086613
0
LINE
8
BLACK
6
CONTINUOUS
10
2.9552165354330708
20
-2.6153543307086613
11
2.9527682677165354
21
-2.6148673228346455
0
LINE
8
BLACK
6
CONTINUOUS
10
2.9527682677165354
20
-2.6148673228346455
11
2.9506927165354329
21
-2.6134805118110234
0
LINE
8
BLACK
6
CONTINUOUS
10
2.9506927165354329
20
-2.6134805118110234
11
2.9493059055118112
21
-2.6114049606299212
0
LINE
8
BLACK
6
CONTINUOUS
10
2.9493059055118112
20
-2.6114049606299212
11
2.9488188976377954
21
-2.6089566929133858
0
LINE
8
BLACK
6
CONTINUOUS
10
2.9488188976377954
20
-2.6089566929133858
11
2.9488188976377954
21
-2.5961614173228345
0
LINE
8
BLACK
6
CONTINUOUS
10
2.9488188976377954
20
-2.5961614173228345
11
2.9493059055118112
21
-2.5937131496062991
0
LINE
8
BLACK
6
CONTINUOUS
10
2.9493059055118112
20
-2.5937131496062991
11
2.9506927165354329
21
-2.5916375984251969
0
LINE
8
BLACK
6
CONTINUOUS
10
2.9506927165354329
20
-2.5916375984251969
11
2.9527682677165354
21
-2.5902507874015748
0
LINE
8
BLACK
6
CONTINUOUS
10
2.9527682677165354
20
-2.5902507874015748
11
2.9552165354330708
21
-2.589763779527559
0
LINE
8
BLACK
6
CONTINUOUS
10
2.9552165354330708
20
-2.589763779527559
11
3.0063976377952755
21
-2.589763779527559
0
LINE
8
BLACK
6
CONTINUOUS
10
3.0063976377952755
20
-2.589763779527559
11
3.0088459055118109
21
-2.5902507874015748
0
LINE
8
BLACK
6
CONTINUOUS
10
3.2913262204724409
20
-2.5902507874015748
11
3.2934017716535431
21
-2.5916375984251969
0
LINE
8
BLACK
6
CONTINUOUS
10
3.2934017716535431
20
-2.5916375984251969
11
3.2947885826771652
21
-2.5937131496062991
0
LINE
8
BLACK
6
CONTINUOUS
10
3.2947885826771652
20
-2.5937131496062991
11
3.295275590551181
21
-2.5961614173228345
0
LINE
8
BLACK
6
CONTINUOUS
10
3.295275590551181
20
-2.5961614173228345
11
3.295275590551181
21
-2.6089566929133858
0
LINE
8
BLACK
6
CONTINUOUS
10
3.295275590551181
20
-2.6089566929133858
11
3.2947885826771652
21
-2.6114049606299212
0
LINE
8
BLACK
6
CONTINUOUS
10
3.2947885826771652
20
-2.6114049606299212
11
3.2934017716535431
21
-2.6134805118110234
0
LINE
8
BLACK
6
CONTINUOUS
10
3.2934017716535431
20
-2.6134805118110234
11
3.2913262204724409
21
-2.6148673228346455
0
LINE
8
BLACK
6
CONTINUOUS
10
3.2913262204724409
20
-2.6148673228346455
11
3.2888779527559056
21
-2.6153543307086613
0
LINE
8
BLACK
6
CONTINUOUS
10
3.2888779527559056
20
-2.6153543307086613
11
3.2376968503937009
21
-2.6153543307086613
0
LINE
8
BLACK
6
CONTINUOUS
10
3.2376968503937009
20
-2.6153543307086613
11
3.2352485826771651
21
-2.6148673228346455
0
LINE
8
BLACK
6
CONTINUOUS
10
3.2352485826771651
20
-2.6148673228346455
11
3.2331730314960629
21
-2.6134805118110234
0
LINE
8
BLACK
6
CONTINUOUS
10
3.2331730314960629
20
-2.6134805118110234
11
3.2317862204724408
21
-2.6114049606299212
0
LINE
8
BLACK
6
CONTINUOUS
10
3.2317862204724408
20
-2.6114049606299212
11
3.231299212598425
21
-2.6089566929133858
0
LINE
8
BLACK
6
CONTINUOUS
10
3.231299212598425
20
-2.6089566929133858
11
3.231299212598425
21
-2.5961614173228345
0
LINE
8
BLACK
6
CONTINUOUS
10
3.231299212598425
20
-2.5961614173228345
11
3.2317862204724408
21
-2.5937131496062991
0
LINE
8
BLACK
6
CONTINUOUS
10
3.2317862204724408
20
-2.5937131496062991
11
3.2331730314960629
21
-2.5916375984251969
0
LINE
8
BLACK
6
CONTINUOUS
10
3.2331730314960629
20
-2.5916375984251969
11
3.2352485826771651
21
-2.5902507874015748
0
LINE
8
BLACK
6
CONTINUOUS
10
3.2352485826771651
20
-2.5902507874015748
11
3.2376968503937009
21
-2.589763779527559
0
LINE
8
BLACK
6
CONTINUOUS
10
3.2376968503937009
20
-2.589763779527559
11
3.2888779527559056
21
-2.589763779527559
0
LINE
8
BLACK
6
CONTINUOUS
10
3.2888779527559056
20
-2.589763779527559
11
3.2913262204724409
21
-2.5902507874015748
0
LINE
8
BLACK
6
CONTINUOUS
10
3.3718768110236219
20
-2.5479933070866143
11
3.3750699606299213
21
-2.5501268897637797
0
LINE
8
BLACK
6
CONTINUOUS
10
3.3750699606299213
20
-2.5501268897637797
11
3.3772035433070866
21
-2.5533200393700786
0
LINE
8
BLACK
6
CONTINUOUS
10
3.3772035433070866
20
-2.5533200393700786
11
3.3779527559055116
21
-2.5570866141732282
0
LINE
8
BLACK
6
CONTINUOUS
10
3.3779527559055116
20
-2.5570866141732282
11
3.3779527559055116
21
-2.5925196850393699
0
LINE
8
BLACK
6
CONTINUOUS
10
3.3779527559055116
20
-2.5925196850393699
11
3.3772035433070866
21
-2.5962862598425196
0
LINE
8
BLACK
6
CONTINUOUS
10
3.3772035433070866
20
-2.5962862598425196
11
3.3750699606299213
21
-2.5994794094488189
0
LINE
8
BLACK
6
CONTINUOUS
10
3.3750699606299213
20
-2.5994794094488189
11
3.3718768110236219
21
-2.6016129921259843
0
LINE
8
BLACK
6
CONTINUOUS
10
3.3718768110236219
20
-2.6016129921259843
11
3.3681102362204722
21
-2.6023622047244093
0
LINE
8
BLACK
6
CONTINUOUS
10
3.3681102362204722
20
-2.6023622047244093
11
3.3474409448818898
21
-2.6023622047244093
0
LINE
8
BLACK
6
CONTINUOUS
10
3.3474409448818898
20
-2.6023622047244093
11
3.3436743700787401
21
-2.6016129921259843
0
LINE
8
BLACK
6
CONTINUOUS
10
3.3436743700787401
20
-2.6016129921259843
11
3.3404812204724408
21
-2.5994794094488189
0
LINE
8
BLACK
6
CONTINUOUS
10
3.3404812204724408
20
-2.5994794094488189
11
3.3383476377952754
21
-2.5962862598425196
0
LINE
8
BLACK
6
CONTINUOUS
10
3.3383476377952754
20
-2.5962862598425196
11
3.3375984251968505
21
-2.5925196850393699
0
LINE
8
BLACK
6
CONTINUOUS
10
3.3375984251968505
20
-2.5925196850393699
11
3.3375984251968505
21
-2.5570866141732282
0
LINE
8
BLACK
6
CONTINUOUS
10
3.3375984251968505
20
-2.5570866141732282
11
3.3383476377952754
21
-2.5533200393700786
0
LINE
8
BLACK
6
CONTINUOUS
10
3.3383476377952754
20
-2.5533200393700786
11
3.3404812204724408
21
-2.5501268897637797
0
LINE
8
BLACK
6
CONTINUOUS
10
3.3404812204724408
20
-2.5501268897637797
11
3.3436743700787401
21
-2.5479933070866143
0
LINE
8
BLACK
6
CONTINUOUS
10
3.3436743700787401
20
-2.5479933070866143
11
3.3474409448818898
21
-2.5472440944881889
0
LINE
8
BLACK
6
CONTINUOUS
10
3.3474409448818898
20
-2.5472440944881889
11
3.3681102362204722
21
-2.5472440944881889
0
LINE
8
BLACK
6
CONTINUOUS
10
3.3681102362204722
20
-2.5472440944881889
11
3.3718768110236219
21
-2.5479933070866143
0
LINE
8
BLACK
6
CONTINUOUS
10
3.4437272047244094
20
-2.5479933070866143
11
3.4469203543307088
21
-2.5501268897637797
0
LINE
8
BLACK
6
CONTINUOUS
10
3.4469203543307088
20
-2.5501268897637797
11
3.4490539370078741
21
-2.5533200393700786
0
LINE
8
BLACK
6
CONTINUOUS
10
3.4490539370078741
20
-2.5533200393700786
11
3.4498031496062991
21
-2.5570866141732282
0
LINE
8
BLACK
6
CONTINUOUS
10
3.4498031496062991
20
-2.5570866141732282
11
3.4498031496062991
21
-2.5925196850393699
0
LINE
8
BLACK
6
CONTINUOUS
10
3.4498031496062991
20
-2.5925196850393699
11
3.4490539370078741
21
-2.5962862598425196
0
LINE
8
BLACK
6
CONTINUOUS
10
3.4490539370078741
20
-2.5962862598425196
11
3.4469203543307088
21
-2.5994794094488189
0
LINE
8
BLACK
6
CONTINUOUS
10
3.4469203543307088
20
-2.5994794094488189
11
3.4437272047244094
21
-2.6016129921259843
0
LINE
8
BLACK
6
CONTINUOUS
10
3.4437272047244094
20
-2.6016129921259843
11
3.4399606299212597
21
-2.6023622047244093
0
LINE
8
BLACK
6
CONTINUOUS
10
3.4399606299212597
20
-2.6023622047244093
11
3.4192913385826773
21
-2.6023622047244093
0
LINE
8
BLACK
6
CONTINUOUS
10
3.4192913385826773
20
-2.6023622047244093
11
3.4155247637795276
21
-2.6016129921259843
0
LINE
8
BLACK
6
CONTINUOUS
10
3.4155247637795276
20
-2.6016129921259843
11
3.4123316141732283
21
-2.5994794094488189
0
LINE
8
BLACK
6
CONTINUOUS
10
3.4123316141732283
20
-2.5994794094488189
11
3.4101980314960629
21
-2.5962862598425196
0
LINE
8
BLACK
6
CONTINUOUS
10
3.4101980314960629
20
-2.5962862598425196
11
3.4094488188976375
21
-2.5925196850393699
0
LINE
8
BLACK
6
CONTINUOUS
10
3.4094488188976375
20
-2.5925196850393699
11
3.4094488188976375
21
-2.5570866141732282
0
LINE
8
BLACK
6
CONTINUOUS
10
3.4094488188976375
20
-2.5570866141732282
11
3.4101980314960629
21
-2.5533200393700786
0
LINE
8
BLACK
6
CONTINUOUS
10
3.4101980314960629
20
-2.5533200393700786
11
3.4123316141732283
21
-2.5501268897637797
0
LINE
8
BLACK
6
CONTINUOUS
10
3.4123316141732283
20
-2.5501268897637797
11
3.4155247637795276
21
-2.5479933070866143
0
LINE
8
BLACK
6
CONTINUOUS
10
3.4155247637795276
20
-2.5479933070866143
11
3.4192913385826773
21
-2.5472440944881889
0
LINE
8
BLACK
6
CONTINUOUS
10
3.4192913385826773
20
-2.5472440944881889
11
3.4399606299212597
21
-2.5472440944881889
0
LINE
8
BLACK
6
CONTINUOUS
10
3.4399606299212597
20
-2.5472440944881889
11
3.4437272047244094
21
-2.5479933070866143
0
LINE
8
BLACK
6
CONTINUOUS
10
3.0088459055118109
20
-2.540250787401575
11
3.0109214566929134
21
-2.5416375984251967
0
LINE
8
BLACK
6
CONTINUOUS
10
3.0109214566929134
20
-2.5416375984251967
11
3.0123082677165351
21
-2.5437131496062992
0
LINE
8
BLACK
6
CONTINUOUS
10
3.0123082677165351
20
-2.5437131496062992
11
3.0127952755905509
21
-2.5461614173228346
0
LINE
8
BLACK
6
CONTINUOUS
10
3.0127952755905509
20
-2.5461614173228346
11
3.0127952755905509
21
-2.5589566929133856
0
LINE
8
BLACK
6
CONTINUOUS
10
3.0127952755905509
20
-2.5589566929133856
11
3.0123082677165351
21
-2.5614049606299214
0
LINE
8
BLACK
6
CONTINUOUS
10
3.0123082677165351
20
-2.5614049606299214
11
3.0109214566929134
21
-2.5634805118110235
0
LINE
8
BLACK
6
CONTINUOUS
10
3.0109214566929134
20
-2.5634805118110235
11
3.0088459055118109
21
-2.5648673228346457
0
LINE
8
BLACK
6
CONTINUOUS
10
3.0088459055118109
20
-2.5648673228346457
11
3.0063976377952755
21
-2.5653543307086615
0
LINE
8
BLACK
6
CONTINUOUS
10
3.0063976377952755
20
-2.5653543307086615
11
2.9552165354330708
21
-2.5653543307086615
0
LINE
8
BLACK
6
CONTINUOUS
10
2.9552165354330708
20
-2.5653543307086615
11
2.9527682677165354
21
-2.5648673228346457
0
LINE
8
BLACK
6
CONTINUOUS
10
2.9527682677165354
20
-2.5648673228346457
11
2.9506927165354329
21
-2.5634805118110235
0
LINE
8
BLACK
6
CONTINUOUS
10
2.9506927165354329
20
-2.5634805118110235
11
2.9493059055118112
21
-2.5614049606299214
0
LINE
8
BLACK
6
CONTINUOUS
10
2.9493059055118112
20
-2.5614049606299214
11
2.9488188976377954
21
-2.5589566929133856
0
LINE
8
BLACK
6
CONTINUOUS
10
2.9488188976377954
20
-2.5589566929133856
11
2.9488188976377954
21
-2.5461614173228346
0
LINE
8
BLACK
6
CONTINUOUS
10
2.9488188976377954
20
-2.5461614173228346
11
2.9493059055118112
21
-2.5437131496062992
0
LINE
8
BLACK
6
CONTINUOUS
10
2.9493059055118112
20
-2.5437131496062992
11
2.9506927165354329
21
-2.5416375984251967
0
LINE
8
BLACK
6
CONTINUOUS
10
2.9506927165354329
20
-2.5416375984251967
11
2.9527682677165354
21
-2.540250787401575
0
LINE
8
BLACK
6
CONTINUOUS
10
2.9527682677165354
20
-2.540250787401575
11
2.9552165354330708
21
-2.5397637795275592
0
LINE
8
BLACK
6
CONTINUOUS
10
2.9552165354330708
20
-2.5397637795275592
11
3.0063976377952755
21
-2.5397637795275592
0
LINE
8
BLACK
6
CONTINUOUS
10
3.0063976377952755
20
-2.5397637795275592
11
3.0088459055118109
21
-2.540250787401575
0
LINE
8
BLACK
6
CONTINUOUS
10
3.2913262204724409
20
-2.540250787401575
11
3.2934017716535431
21
-2.5416375984251967
0
LINE
8
BLACK
6
CONTINUOUS
10
3.2934017716535431
20
-2.5416375984251967
11
3.2947885826771652
21
-2.5437131496062992
0
LINE
8
BLACK
6
CONTINUOUS
10
3.2947885826771652
20
-2.5437131496062992
11
3.295275590551181
21
-2.5461614173228346
0
LINE
8
BLACK
6
CONTINUOUS
10
3.295275590551181
20
-2.5461614173228346
11
3.295275590551181
21
-2.5589566929133856
0
LINE
8
BLACK
6
CONTINUOUS
10
3.295275590551181
20
-2.5589566929133856
11
3.2947885826771652
21
-2.5614049606299214
0
LINE
8
BLACK
6
CONTINUOUS
10
3.2947885826771652
20
-2.5614049606299214
11
3.2934017716535431
21
-2.5634805118110235
0
LINE
8
BLACK
6
CONTINUOUS
10
3.2934017716535431
20
-2.5634805118110235
11
3.2913262204724409
21
-2.5648673228346457
0
LINE
8
BLACK
6
CONTINUOUS
10
3.2913262204724409
20
-2.5648673228346457
11
3.2888779527559056
21
-2.5653543307086615
0
LINE
8
BLACK
6
CONTINUOUS
10
3.2888779527559056
20
-2.5653543307086615
11
3.2376968503937009
21
-2.5653543307086615
0
LINE
8
BLACK
6
CONTINUOUS
10
3.2376968503937009
20
-2.5653543307086615
11
3.2352485826771651
21
-2.5648673228346457
0
LINE
8
BLACK
6
CONTINUOUS
10
3.2352485826771651
20
-2.5648673228346457
11
3.2331730314960629
21
-2.5634805118110235
0
LINE
8
BLACK
6
CONTINUOUS
10
3.2331730314960629
20
-2.5634805118110235
11
3.2317862204724408
21
-2.5614049606299214
0
LINE
8
BLACK
6
CONTINUOUS
10
3.2317862204724408
20
-2.5614049606299214
11
3.231299212598425
21
-2.5589566929133856
0
LINE
8
BLACK
6
CONTINUOUS
10
3.231299212598425
20
-2.5589566929133856
11
3.231299212598425
21
-2.5461614173228346
0
LINE
8
BLACK
6
CONTINUOUS
10
3.231299212598425
20
-2.5461614173228346
11
3.2317862204724408
21
-2.5437131496062992
0
LINE
8
BLACK
6
CONTINUOUS
10
3.2317862204724408
20
-2.5437131496062992
11
3.2331730314960629
21
-2.5416375984251967
0
LINE
8
BLACK
6
CONTINUOUS
10
3.2331730314960629
20
-2.5416375984251967
11
3.2352485826771651
21
-2.540250787401575
0
LINE
8
BLACK
6
CONTINUOUS
10
3.2352485826771651
20
-2.540250787401575
11
3.2376968503937009
21
-2.5397637795275592
0
LINE
8
BLACK
6
CONTINUOUS
10
3.2376968503937009
20
-2.5397637795275592
11
3.2888779527559056
21
-2.5397637795275592
0
LINE
8
BLACK
6
CONTINUOUS
10
3.2888779527559056
20
-2.5397637795275592
11
3.2913262204724409
21
-2.540250787401575
0
LINE
8
BLACK
6
CONTINUOUS
10
3.3718768110236219
20
-2.4731901574803148
11
3.3750699606299213
21
-2.4753237401574801
0
LINE
8
BLACK
6
CONTINUOUS
10
3.3750699606299213
20
-2.4753237401574801
11
3.3772035433070866
21
-2.4785168897637795
0
LINE
8
BLACK
6
CONTINUOUS
10
3.3772035433070866
20
-2.4785168897637795
11
3.3779527559055116
21
-2.4822834645669292
0
LINE
8
BLACK
6
CONTINUOUS
10
3.3779527559055116
20
-2.4822834645669292
11
3.3779527559055116
21
-2.5177165354330708
0
LINE
8
BLACK
6
CONTINUOUS
10
3.3779527559055116
20
-2.5177165354330708
11
3.3772035433070866
21
-2.5214831102362205
0
LINE
8
BLACK
6
CONTINUOUS
10
3.3772035433070866
20
-2.5214831102362205
11
3.3750699606299213
21
-2.5246762598425194
0
LINE
8
BLACK
6
CONTINUOUS
10
3.3750699606299213
20
-2.5246762598425194
11
3.3718768110236219
21
-2.5268098425196848
0
LINE
8
BLACK
6
CONTINUOUS
10
3.3718768110236219
20
-2.5268098425196848
11
3.3681102362204722
21
-2.5275590551181102
0
LINE
8
BLACK
6
CONTINUOUS
10
3.3681102362204722
20
-2.5275590551181102
11
3.3474409448818898
21
-2.5275590551181102
0
LINE
8
BLACK
6
CONTINUOUS
10
3.3474409448818898
20
-2.5275590551181102
11
3.3436743700787401
21
-2.5268098425196848
0
LINE
8
BLACK
6
CONTINUOUS
10
3.3436743700787401
20
-2.5268098425196848
11
3.3404812204724408
21
-2.5246762598425194
0
LINE
8
BLACK
6
CONTINUOUS
10
3.3404812204724408
20
-2.5246762598425194
11
3.3383476377952754
21
-2.5214831102362205
0
LINE
8
BLACK
6
CONTINUOUS
10
3.3383476377952754
20
-2.5214831102362205
11
3.3375984251968505
21
-2.5177165354330708
0
LINE
8
BLACK
6
CONTINUOUS
10
3.3375984251968505
20
-2.5177165354330708
11
3.3375984251968505
21
-2.4822834645669292
0
LINE
8
BLACK
6
CONTINUOUS
10
3.3375984251968505
20
-2.4822834645669292
11
3.3383476377952754
21
-2.4785168897637795
0
LINE
8
BLACK
6
CONTINUOUS
10
3.3383476377952754
20
-2.4785168897637795
11
3.3404812204724408
21
-2.4753237401574801
0
LINE
8
BLACK
6
CONTINUOUS
10
3.3404812204724408
20
-2.4753237401574801
11
3.3436743700787401
21
-2.4731901574803148
0
LINE
8
BLACK
6
CONTINUOUS
10
3.3436743700787401
20
-2.4731901574803148
11
3.3474409448818898
21
-2.4724409448818898
0
LINE
8
BLACK
6
CONTINUOUS
10
3.3474409448818898
20
-2.4724409448818898
11
3.3681102362204722
21
-2.4724409448818898
0
LINE
8
BLACK
6
CONTINUOUS
10
3.3681102362204722
20
-2.4724409448818898
11
3.3718768110236219
21
-2.4731901574803148
0
LINE
8
BLACK
6
CONTINUOUS
10
3.4437272047244094
20
-2.4731901574803148
11
3.4469203543307088
21
-2.4753237401574801
0
LINE
8
BLACK
6
CONTINUOUS
10
3.4469203543307088
20
-2.4753237401574801
11
3.4490539370078741
21
-2.4785168897637795
0
LINE
8
BLACK
6
CONTINUOUS
10
3.4490539370078741
20
-2.4785168897637795
11
3.4498031496062991
21
-2.4822834645669292
0
LINE
8
BLACK
6
CONTINUOUS
10
3.4498031496062991
20
-2.4822834645669292
11
3.4498031496062991
21
-2.5177165354330708
0
LINE
8
BLACK
6
CONTINUOUS
10
3.4498031496062991
20
-2.5177165354330708
11
3.4490539370078741
21
-2.5214831102362205
0
LINE
8
BLACK
6
CONTINUOUS
10
3.4490539370078741
20
-2.5214831102362205
11
3.4469203543307088
21
-2.5246762598425194
0
LINE
8
BLACK
6
CONTINUOUS
10
3.4469203543307088
20
-2.5246762598425194
11
3.4437272047244094
21
-2.5268098425196848
0
LINE
8
BLACK
6
CONTINUOUS
10
3.4437272047244094
20
-2.5268098425196848
11
3.4399606299212597
21
-2.5275590551181102
0
LINE
8
BLACK
6
CONTINUOUS
10
3.4399606299212597
20
-2.5275590551181102
11
3.4192913385826773
21
-2.5275590551181102
0
LINE
8
BLACK
6
CONTINUOUS
10
3.4192913385826773
20
-2.5275590551181102
11
3.4155247637795276
21
-2.5268098425196848
0
LINE
8
BLACK
6
CONTINUOUS
10
3.4155247637795276
20
-2.5268098425196848
11
3.4123316141732283
21
-2.5246762598425194
0
LINE
8
BLACK
6
CONTINUOUS
10
3.4123316141732283
20
-2.5246762598425194
11
3.4101980314960629
21
-2.5214831102362205
0
LINE
8
BLACK
6
CONTINUOUS
10
3.4101980314960629
20
-2.5214831102362205
11
3.4094488188976375
21
-2.5177165354330708
0
LINE
8
BLACK
6
CONTINUOUS
10
3.4094488188976375
20
-2.5177165354330708
11
3.4094488188976375
21
-2.4822834645669292
0
LINE
8
BLACK
6
CONTINUOUS
10
3.4094488188976375
20
-2.4822834645669292
11
3.4101980314960629
21
-2.4785168897637795
0
LINE
8
BLACK
6
CONTINUOUS
10
3.4101980314960629
20
-2.4785168897637795
11
3.4123316141732283
21
-2.4753237401574801
0
LINE
8
BLACK
6
CONTINUOUS
10
3.4123316141732283
20
-2.4753237401574801
11
3.4155247637795276
21
-2.4731901574803148
0
LINE
8
BLACK
6
CONTINUOUS
10
3.4155247637795276
20
-2.4731901574803148
11
3.4192913385826773
21
-2.4724409448818898
0
LINE
8
BLACK
6
CONTINUOUS
10
3.4192913385826773
20
-2.4724409448818898
11
3.4399606299212597
21
-2.4724409448818898
0
LINE
8
BLACK
6
CONTINUOUS
10
3.4399606299212597
20
-2.4724409448818898
11
3.4437272047244094
21
-2.4731901574803148
0
LINE
8
BLACK
6
CONTINUOUS
10
3.0088459055118109
20
-2.4902507874015747
11
3.0109214566929134
21
-2.4916375984251968
0
LINE
8
BLACK
6
CONTINUOUS
10
3.0109214566929134
20
-2.4916375984251968
11
3.0123082677165351
21
-2.493713149606299
0
LINE
8
BLACK
6
CONTINUOUS
10
3.0123082677165351
20
-2.493713149606299
11
3.0127952755905509
21
-2.4961614173228348
0
LINE
8
BLACK
6
CONTINUOUS
10
3.0127952755905509
20
-2.4961614173228348
11
3.0127952755905509
21
-2.5089566929133857
0
LINE
8
BLACK
6
CONTINUOUS
10
3.0127952755905509
20
-2.5089566929133857
11
3.0123082677165351
21
-2.5114049606299211
0
LINE
8
BLACK
6
CONTINUOUS
10
3.0123082677165351
20
-2.5114049606299211
11
3.0109214566929134
21
-2.5134805118110237
0
LINE
8
BLACK
6
CONTINUOUS
10
3.0109214566929134
20
-2.5134805118110237
11
3.0088459055118109
21
-2.5148673228346454
0
LINE
8
BLACK
6
CONTINUOUS
10
3.0088459055118109
20
-2.5148673228346454
11
3.0063976377952755
21
-2.5153543307086612
0
LINE
8
BLACK
6
CONTINUOUS
10
3.0063976377952755
20
-2.5153543307086612
11
2.9552165354330708
21
-2.5153543307086612
0
LINE
8
BLACK
6
CONTINUOUS
10
2.9552165354330708
20
-2.5153543307086612
11
2.9527682677165354
21
-2.5148673228346454
0
LINE
8
BLACK
6
CONTINUOUS
10
2.9527682677165354
20
-2.5148673228346454
11
2.9506927165354329
21
-2.5134805118110237
0
LINE
8
BLACK
6
CONTINUOUS
10
2.9506927165354329
20
-2.5134805118110237
11
2.9493059055118112
21
-2.5114049606299211
0
LINE
8
BLACK
6
CONTINUOUS
10
2.9493059055118112
20
-2.5114049606299211
11
2.9488188976377954
21
-2.5089566929133857
0
LINE
8
BLACK
6
CONTINUOUS
10
2.9488188976377954
20
-2.5089566929133857
11
2.9488188976377954
21
-2.4961614173228348
0
LINE
8
BLACK
6
CONTINUOUS
10
2.9488188976377954
20
-2.4961614173228348
11
2.9493059055118112
21
-2.493713149606299
0
LINE
8
BLACK
6
CONTINUOUS
10
2.9493059055118112
20
-2.493713149606299
11
2.9506927165354329
21
-2.4916375984251968
0
LINE
8
BLACK
6
CONTINUOUS
10
2.9506927165354329
20
-2.4916375984251968
11
2.9527682677165354
21
-2.4902507874015747
0
LINE
8
BLACK
6
CONTINUOUS
10
2.9527682677165354
20
-2.4902507874015747
11
2.9552165354330708
21
-2.4897637795275589
0
LINE
8
BLACK
6
CONTINUOUS
10
2.9552165354330708
20
-2.4897637795275589
11
3.0063976377952755
21
-2.4897637795275589
0
LINE
8
BLACK
6
CONTINUOUS
10
3.0063976377952755
20
-2.4897637795275589
11
3.0088459055118109
21
-2.4902507874015747
0
LINE
8
BLACK
6
CONTINUOUS
10
3.2913262204724409
20
-2.4902507874015747
11
3.2934017716535431
21
-2.4916375984251968
0
LINE
8
BLACK
6
CONTINUOUS
10
3.2934017716535431
20
-2.4916375984251968
11
3.2947885826771652
21
-2.493713149606299
0
LINE
8
BLACK
6
CONTINUOUS
10
3.2947885826771652
20
-2.493713149606299
11
3.295275590551181
21
-2.4961614173228348
0
LINE
8
BLACK
6
CONTINUOUS
10
3.295275590551181
20
-2.4961614173228348
11
3.295275590551181
21
-2.5089566929133857
0
LINE
8
BLACK
6
CONTINUOUS
10
3.295275590551181
20
-2.5089566929133857
11
3.2947885826771652
21
-2.5114049606299211
0
LINE
8
BLACK
6
CONTINUOUS
10
3.2947885826771652
20
-2.5114049606299211
11
3.2934017716535431
21
-2.5134805118110237
0
LINE
8
BLACK
6
CONTINUOUS
10
3.2934017716535431
20
-2.5134805118110237
11
3.2913262204724409
21
-2.5148673228346454
0
LINE
8
BLACK
6
CONTINUOUS
10
3.2913262204724409
20
-2.5148673228346454
11
3.2888779527559056
21
-2.5153543307086612
0
LINE
8
BLACK
6
CONTINUOUS
10
3.2888779527559056
20
-2.5153543307086612
11
3.2376968503937009
21
-2.5153543307086612
0
LINE
8
BLACK
6
CONTINUOUS
10
3.2376968503937009
20
-2.5153543307086612
11
3.2352485826771651
21
-2.5148673228346454
0
LINE
8
BLACK
6
CONTINUOUS
10
3.2352485826771651
20
-2.5148673228346454
11
3.2331730314960629
21
-2.5134805118110237
0
LINE
8
BLACK
6
CONTINUOUS
10
3.2331730314960629
20
-2.5134805118110237
11
3.2317862204724408
21
-2.5114049606299211
0
LINE
8
BLACK
6
CONTINUOUS
10
3.2317862204724408
20
-2.5114049606299211
11
3.231299212598425
21
-2.5089566929133857
0
LINE
8
BLACK
6
CONTINUOUS
10
3.231299212598425
20
-2.5089566929133857
11
3.231299212598425
21
-2.4961614173228348
0
LINE
8
BLACK
6
CONTINUOUS
10
3.231299212598425
20
-2.4961614173228348
11
3.2317862204724408
21
-2.493713149606299
0
LINE
8
BLACK
6
CONTINUOUS
10
3.2317862204724408
20
-2.493713149606299
11
3.2331730314960629
21
-2.4916375984251968
0
LINE
8
BLACK
6
CONTINUOUS
10
3.2331730314960629
20
-2.4916375984251968
11
3.2352485826771651
21
-2.4902507874015747
0
LINE
8
BLACK
6
CONTINUOUS
10
3.2352485826771651
20
-2.4902507874015747
11
3.2376968503937009
21
-2.4897637795275589
0
LINE
8
BLACK
6
CONTINUOUS
10
3.2376968503937009
20
-2.4897637795275589
11
3.2888779527559056
21
-2.4897637795275589
0
LINE
8
BLACK
6
CONTINUOUS
10
3.2888779527559056
20
-2.4897637795275589
11
3.2913262204724409
21
-2.4902507874015747
0
LINE
8
BLACK
6
CONTINUOUS
10
3.0088459055118109
20
-2.4402507874015749
11
3.0109214566929134
21
-2.441637598425197
0
LINE
8
BLACK
6
CONTINUOUS
10
3.0109214566929134
20
-2.441637598425197
11
3.0123082677165351
21
-2.4437131496062992
0
LINE
8
BLACK
6
CONTINUOUS
10
3.0123082677165351
20
-2.4437131496062992
11
3.0127952755905509
21
-2.4461614173228345
0
LINE
8
BLACK
6
CONTINUOUS
10
3.0127952755905509
20
-2.4461614173228345
11
3.0127952755905509
21
-2.4589566929133859
0
LINE
8
BLACK
6
CONTINUOUS
10
3.0127952755905509
20
-2.4589566929133859
11
3.0123082677165351
21
-2.4614049606299213
0
LINE
8
BLACK
6
CONTINUOUS
10
3.0123082677165351
20
-2.4614049606299213
11
3.0109214566929134
21
-2.4634805118110235
0
LINE
8
BLACK
6
CONTINUOUS
10
3.0109214566929134
20
-2.4634805118110235
11
3.0088459055118109
21
-2.4648673228346456
0
LINE
8
BLACK
6
CONTINUOUS
10
3.0088459055118109
20
-2.4648673228346456
11
3.0063976377952755
21
-2.4653543307086614
0
LINE
8
BLACK
6
CONTINUOUS
10
3.0063976377952755
20
-2.4653543307086614
11
2.9552165354330708
21
-2.4653543307086614
0
LINE
8
BLACK
6
CONTINUOUS
10
2.9552165354330708
20
-2.4653543307086614
11
2.9527682677165354
21
-2.4648673228346456
0
LINE
8
BLACK
6
CONTINUOUS
10
2.9527682677165354
20
-2.4648673228346456
11
2.9506927165354329
21
-2.4634805118110235
0
LINE
8
BLACK
6
CONTINUOUS
10
2.9506927165354329
20
-2.4634805118110235
11
2.9493059055118112
21
-2.4614049606299213
0
LINE
8
BLACK
6
CONTINUOUS
10
2.9493059055118112
20
-2.4614049606299213
11
2.9488188976377954
21
-2.4589566929133859
0
LINE
8
BLACK
6
CONTINUOUS
10
2.9488188976377954
20
-2.4589566929133859
11
2.9488188976377954
21
-2.4461614173228345
0
LINE
8
BLACK
6
CONTINUOUS
10
2.9488188976377954
20
-2.4461614173228345
11
2.9493059055118112
21
-2.4437131496062992
0
LINE
8
BLACK
6
CONTINUOUS
10
2.9493059055118112
20
-2.4437131496062992
11
2.9506927165354329
21
-2.441637598425197
0
LINE
8
BLACK
6
CONTINUOUS
10
2.9506927165354329
20
-2.441637598425197
11
2.9527682677165354
21
-2.4402507874015749
0
LINE
8
BLACK
6
CONTINUOUS
10
2.9527682677165354
20
-2.4402507874015749
11
2.9552165354330708
21
-2.4397637795275591
0
LINE
8
BLACK
6
CONTINUOUS
10
2.9552165354330708
20
-2.4397637795275591
11
3.0063976377952755
21
-2.4397637795275591
0
LINE
8
BLACK
6
CONTINUOUS
10
3.0063976377952755
20
-2.4397637795275591
11
3.0088459055118109
21
-2.4402507874015749
0
LINE
8
BLACK
6
CONTINUOUS
10
3.2913262204724409
20
-2.4402507874015749
11
3.2934017716535431
21
-2.441637598425197
0
LINE
8
BLACK
6
CONTINUOUS
10
3.2934017716535431
20
-2.441637598425197
11
3.2947885826771652
21
-2.4437131496062992
0
LINE
8
BLACK
6
CONTINUOUS
10
3.2947885826771652
20
-2.4437131496062992
11
3.295275590551181
21
-2.4461614173228345
0
LINE
8
BLACK
6
CONTINUOUS
10
3.295275590551181
20
-2.4461614173228345
11
3.295275590551181
21
-2.4589566929133859
0
LINE
8
BLACK
6
CONTINUOUS
10
3.295275590551181
20
-2.4589566929133859
11
3.2947885826771652
21
-2.4614049606299213
0
LINE
8
BLACK
6
CONTINUOUS
10
3.2947885826771652
20
-2.4614049606299213
11
3.2934017716535431
21
-2.4634805118110235
0
LINE
8
BLACK
6
CONTINUOUS
10
3.2934017716535431
20
-2.4634805118110235
11
3.2913262204724409
21
-2.4648673228346456
0
LINE
8
BLACK
6
CONTINUOUS
10
3.2913262204724409
20
-2.4648673228346456
11
3.2888779527559056
21
-2.4653543307086614
0
LINE
8
BLACK
6
CONTINUOUS
10
3.2888779527559056
20
-2.4653543307086614
11
3.2376968503937009
21
-2.4653543307086614
0
LINE
8
BLACK
6
CONTINUOUS
10
3.2376968503937009
20
-2.4653543307086614
11
3.2352485826771651
21
-2.4648673228346456
0
LINE
8
BLACK
6
CONTINUOUS
10
3.2352485826771651
20
-2.4648673228346456
11
3.2331730314960629
21
-2.4634805118110235
0
LINE
8
BLACK
6
CONTINUOUS
10
3.2331730314960629
20
-2.4634805118110235
11
3.2317862204724408
21
-2.4614049606299213
0
LINE
8
BLACK
6
CONTINUOUS
10
3.2317862204724408
20
-2.4614049606299213
11
3.231299212598425
21
-2.4589566929133859
0
LINE
8
BLACK
6
CONTINUOUS
10
3.231299212598425
20
-2.4589566929133859
11
3.231299212598425
21
-2.4461614173228345
0
LINE
8
BLACK
6
CONTINUOUS
10
3.231299212598425
20
-2.4461614173228345
11
3.2317862204724408
21
-2.4437131496062992
0
LINE
8
BLACK
6
CONTINUOUS
10
3.2317862204724408
20
-2.4437131496062992
11
3.2331730314960629
21
-2.441637598425197
0
LINE
8
BLACK
6
CONTINUOUS
10
3.2331730314960629
20
-2.441637598425197
11
3.2352485826771651
21
-2.4402507874015749
0
LINE
8
BLACK
6
CONTINUOUS
10
3.2352485826771651
20
-2.4402507874015749
11
3.2376968503937009
21
-2.4397637795275591
0
LINE
8
BLACK
6
CONTINUOUS
10
3.2376968503937009
20
-2.4397637795275591
11
3.2888779527559056
21
-2.4397637795275591
0
LINE
8
BLACK
6
CONTINUOUS
10
3.2888779527559056
20
-2.4397637795275591
11
3.2913262204724409
21
-2.4402507874015749
0
LINE
8
BLACK
6
CONTINUOUS
10
2.9210894094488187
20
-2.314725590551181
11
2.924282559055118
21
-2.3168591732283463
0
LINE
8
BLACK
6
CONTINUOUS
10
2.924282559055118
20
-2.3168591732283463
11
2.9264161417322834
21
-2.3200523228346457
0
LINE
8
BLACK
6
CONTINUOUS
10
2.9264161417322834
20
-2.3200523228346457
11
2.9271653543307088
21
-2.3238188976377954
0
LINE
8
BLACK
6
CONTINUOUS
10
2.9271653543307088
20
-2.3238188976377954
11
2.9271653543307088
21
-2.3612204724409449
0
LINE
8
BLACK
6
CONTINUOUS
10
2.9271653543307088
20
-2.3612204724409449
11
2.9264161417322834
21
-2.3649870472440946
0
LINE
8
BLACK
6
CONTINUOUS
10
2.9264161417322834
20
-2.3649870472440946
11
2.924282559055118
21
-2.3681801968503935
0
LINE
8
BLACK
6
CONTINUOUS
10
2.924282559055118
20
-2.3681801968503935
11
2.9210894094488187
21
-2.3703137795275588
0
LINE
8
BLACK
6
CONTINUOUS
10
2.9210894094488187
20
-2.3703137795275588
11
2.9173228346456694
21
-2.3710629921259843
0
LINE
8
BLACK
6
CONTINUOUS
10
2.9173228346456694
20
-2.3710629921259843
11
2.8976377952755903
21
-2.3710629921259843
0
LINE
8
BLACK
6
CONTINUOUS
10
2.8976377952755903
20
-2.3710629921259843
11
2.8938712204724411
21
-2.3703137795275588
0
LINE
8
BLACK
6
CONTINUOUS
10
2.8938712204724411
20
-2.3703137795275588
11
2.8906780708661417
21
-2.3681801968503935
0
LINE
8
BLACK
6
CONTINUOUS
10
2.8906780708661417
20
-2.3681801968503935
11
2.8885444881889764
21
-2.3649870472440946
0
LINE
8
BLACK
6
CONTINUOUS
10
2.8885444881889764
20
-2.3649870472440946
11
2.8877952755905509
21
-2.3612204724409449
0
LINE
8
BLACK
6
CONTINUOUS
10
2.8877952755905509
20
-2.3612204724409449
11
2.8877952755905509
21
-2.3238188976377954
0
LINE
8
BLACK
6
CONTINUOUS
10
2.8877952755905509
20
-2.3238188976377954
11
2.8885444881889764
21
-2.3200523228346457
0
LINE
8
BLACK
6
CONTINUOUS
10
2.8885444881889764
20
-2.3200523228346457
11
2.8906780708661417
21
-2.3168591732283463
0
LINE
8
BLACK
6
CONTINUOUS
10
2.8906780708661417
20
-2.3168591732283463
11
2.8938712204724411
21
-2.314725590551181
0
LINE
8
BLACK
6
CONTINUOUS
10
2.8938712204724411
20
-2.314725590551181
11
2.8976377952755903
21
-2.313976377952756
0
LINE
8
BLACK
6
CONTINUOUS
10
2.8976377952755903
20
-2.313976377952756
11
2.9173228346456694
21
-2.313976377952756
0
LINE
8
BLACK
6
CONTINUOUS
10
2.9173228346456694
20
-2.313976377952756
11
2.9210894094488187
21
-2.314725590551181
0
LINE
8
BLACK
6
CONTINUOUS
10
2.9958925590551182
20
-2.314725590551181
11
2.9990857086614171
21
-2.3168591732283463
0
LINE
8
BLACK
6
CONTINUOUS
10
2.9990857086614171
20
-2.3168591732283463
11
3.0012192913385825
21
-2.3200523228346457
0
LINE
8
BLACK
6
CONTINUOUS
10
3.0012192913385825
20
-2.3200523228346457
11
3.0019685039370079
21
-2.3238188976377954
0
LINE
8
BLACK
6
CONTINUOUS
10
3.0019685039370079
20
-2.3238188976377954
11
3.0019685039370079
21
-2.3612204724409449
0
LINE
8
BLACK
6
CONTINUOUS
10
3.0019685039370079
20
-2.3612204724409449
11
3.0012192913385825
21
-2.3649870472440946
0
LINE
8
BLACK
6
CONTINUOUS
10
3.0012192913385825
20
-2.3649870472440946
11
2.9990857086614171
21
-2.3681801968503935
0
LINE
8
BLACK
6
CONTINUOUS
10
2.9990857086614171
20
-2.3681801968503935
11
2.9958925590551182
21
-2.3703137795275588
0
LINE
8
BLACK
6
CONTINUOUS
10
2.9958925590551182
20
-2.3703137795275588
11
2.9921259842519685
21
-2.3710629921259843
0
LINE
8
BLACK
6
CONTINUOUS
10
2.9921259842519685
20
-2.3710629921259843
11
2.9724409448818898
21
-2.3710629921259843
0
LINE
8
BLACK
6
CONTINUOUS
10
2.9724409448818898
20
-2.3710629921259843
11
2.9686743700787401
21
-2.3703137795275588
0
LINE
8
BLACK
6
CONTINUOUS
10
2.9686743700787401
20
-2.3703137795275588
11
2.9654812204724408
21
-2.3681801968503935
0
LINE
8
BLACK
6
CONTINUOUS
10
2.9654812204724408
20
-2.3681801968503935
11
2.9633476377952754
21
-2.3649870472440946
0
LINE
8
BLACK
6
CONTINUOUS
10
2.9633476377952754
20
-2.3649870472440946
11
2.9625984251968505
21
-2.3612204724409449
0
LINE
8
BLACK
6
CONTINUOUS
10
2.9625984251968505
20
-2.3612204724409449
11
2.9625984251968505
21
-2.3238188976377954
0
LINE
8
BLACK
6
CONTINUOUS
10
2.9625984251968505
20
-2.3238188976377954
11
2.9633476377952754
21
-2.3200523228346457
0
LINE
8
BLACK
6
CONTINUOUS
10
2.9633476377952754
20
-2.3200523228346457
11
2.9654812204724408
21
-2.3168591732283463
0
LINE
8
BLACK
6
CONTINUOUS
10
2.9654812204724408
20
-2.3168591732283463
11
2.9686743700787401
21
-2.314725590551181
0
LINE
8
BLACK
6
CONTINUOUS
10
2.9686743700787401
20
-2.314725590551181
11
2.9724409448818898
21
-2.313976377952756
0
LINE
8
BLACK
6
CONTINUOUS
10
2.9724409448818898
20
-2.313976377952756
11
2.9921259842519685
21
-2.313976377952756
0
LINE
8
BLACK
6
CONTINUOUS
10
2.9921259842519685
20
-2.313976377952756
11
2.9958925590551182
21
-2.314725590551181
0
LINE
8
BLACK
6
CONTINUOUS
10
3.2773886220472441
20
-2.3117728346456694
11
3.280581771653543
21
-2.3139064173228348
0
LINE
8
BLACK
6
CONTINUOUS
10
3.280581771653543
20
-2.3139064173228348
11
3.2827153543307084
21
-2.3170995669291337
0
LINE
8
BLACK
6
CONTINUOUS
10
3.2827153543307084
20
-2.3170995669291337
11
3.2834645669291338
21
-2.3208661417322833
0
LINE
8
BLACK
6
CONTINUOUS
10
3.2834645669291338
20
-2.3208661417322833
11
3.2834645669291338
21
-2.356299212598425
0
LINE
8
BLACK
6
CONTINUOUS
10
3.2834645669291338
20
-2.356299212598425
11
3.2827153543307084
21
-2.3600657874015747
0
LINE
8
BLACK
6
CONTINUOUS
10
3.2827153543307084
20
-2.3600657874015747
11
3.280581771653543
21
-2.363258937007874
0
LINE
8
BLACK
6
CONTINUOUS
10
3.280581771653543
20
-2.363258937007874
11
3.2773886220472441
21
-2.3653925196850394
0
LINE
8
BLACK
6
CONTINUOUS
10
3.2773886220472441
20
-2.3653925196850394
11
3.2736220472440944
21
-2.3661417322834644
0
LINE
8
BLACK
6
CONTINUOUS
10
3.2736220472440944
20
-2.3661417322834644
11
3.2529527559055116
21
-2.3661417322834644
0
LINE
8
BLACK
6
CONTINUOUS
10
3.2529527559055116
20
-2.3661417322834644
11
3.2491861811023623
21
-2.3653925196850394
0
LINE
8
BLACK
6
CONTINUOUS
10
3.2491861811023623
20
-2.3653925196850394
11
3.245993031496063
21
-2.363258937007874
0
LINE
8
BLACK
6
CONTINUOUS
10
3.245993031496063
20
-2.363258937007874
11
3.2438594488188977
21
-2.3600657874015747
0
LINE
8
BLACK
6
CONTINUOUS
10
3.2438594488188977
20
-2.3600657874015747
11
3.2431102362204722
21
-2.356299212598425
0
LINE
8
BLACK
6
CONTINUOUS
10
3.2431102362204722
20
-2.356299212598425
11
3.2431102362204722
21
-2.3208661417322833
0
LINE
8
BLACK
6
CONTINUOUS
10
3.2431102362204722
20
-2.3208661417322833
11
3.2438594488188977
21
-2.3170995669291337
0
LINE
8
BLACK
6
CONTINUOUS
10
3.2438594488188977
20
-2.3170995669291337
11
3.245993031496063
21
-2.3139064173228348
0
LINE
8
BLACK
6
CONTINUOUS
10
3.245993031496063
20
-2.3139064173228348
11
3.2491861811023623
21
-2.3117728346456694
0
LINE
8
BLACK
6
CONTINUOUS
10
3.2491861811023623
20
-2.3117728346456694
11
3.2529527559055116
21
-2.311023622047244
0
LINE
8
BLACK
6
CONTINUOUS
10
3.2529527559055116
20
-2.311023622047244
11
3.2736220472440944
21
-2.311023622047244
0
LINE
8
BLACK
6
CONTINUOUS
10
3.2736220472440944
20
-2.311023622047244
11
3.2773886220472441
21
-2.3117728346456694
0
LINE
8
BLACK
6
CONTINUOUS
10
3.3492390157480316
20
-2.3117728346456694
11
3.3524321653543305
21
-2.3139064173228348
0
LINE
8
BLACK
6
CONTINUOUS
10
3.3524321653543305
20
-2.3139064173228348
11
3.3545657480314959
21
-2.3170995669291337
0
LINE
8
BLACK
6
CONTINUOUS
10
3.3545657480314959
20
-2.3170995669291337
11
3.3553149606299213
21
-2.3208661417322833
0
LINE
8
BLACK
6
CONTINUOUS
10
3.3553149606299213
20
-2.3208661417322833
11
3.3553149606299213
21
-2.356299212598425
0
LINE
8
BLACK
6
CONTINUOUS
10
3.3553149606299213
20
-2.356299212598425
11
3.3545657480314959
21
-2.3600657874015747
0
LINE
8
BLACK
6
CONTINUOUS
10
3.3545657480314959
20
-2.3600657874015747
11
3.3524321653543305
21
-2.363258937007874
0
LINE
8
BLACK
6
CONTINUOUS
10
3.3524321653543305
20
-2.363258937007874
11
3.3492390157480316
21
-2.3653925196850394
0
LINE
8
BLACK
6
CONTINUOUS
10
3.3492390157480316
20
-2.3653925196850394
11
3.3454724409448819
21
-2.3661417322834644
0
LINE
8
BLACK
6
CONTINUOUS
10
3.3454724409448819
20
-2.3661417322834644
11
3.3248031496062991
21
-2.3661417322834644
0
LINE
8
BLACK
6
CONTINUOUS
10
3.3248031496062991
20
-2.3661417322834644
11
3.3210365748031494
21
-2.3653925196850394
0
LINE
8
BLACK
6
CONTINUOUS
10
3.3210365748031494
20
-2.3653925196850394
11
3.3178434251968505
21
-2.363258937007874
0
LINE
8
BLACK
6
CONTINUOUS
10
3.3178434251968505
20
-2.363258937007874
11
3.3157098425196851
21
-2.3600657874015747
0
LINE
8
BLACK
6
CONTINUOUS
10
3.3157098425196851
20
-2.3600657874015747
11
3.3149606299212597
21
-2.356299212598425
0
LINE
8
BLACK
6
CONTINUOUS
10
3.3149606299212597
20
-2.356299212598425
11
3.3149606299212597
21
-2.3208661417322833
0
LINE
8
BLACK
6
CONTINUOUS
10
3.3149606299212597
20
-2.3208661417322833
11
3.3157098425196851
21
-2.3170995669291337
0
LINE
8
BLACK
6
CONTINUOUS
10
3.3157098425196851
20
-2.3170995669291337
11
3.3178434251968505
21
-2.3139064173228348
0
LINE
8
BLACK
6
CONTINUOUS
10
3.3178434251968505
20
-2.3139064173228348
11
3.3210365748031494
21
-2.3117728346456694
0
LINE
8
BLACK
6
CONTINUOUS
10
3.3210365748031494
20
-2.3117728346456694
11
3.3248031496062991
21
-2.311023622047244
0
LINE
8
BLACK
6
CONTINUOUS
10
3.3248031496062991
20
-2.311023622047244
11
3.3454724409448819
21
-2.311023622047244
0
LINE
8
BLACK
6
CONTINUOUS
10
3.3454724409448819
20
-2.311023622047244
11
3.3492390157480316
21
-2.3117728346456694
0
LINE
8
BLACK
6
CONTINUOUS
10
3.3010106692913386
20
-2.1700405511811023
11
3.3042038188976379
21
-2.1721741338582676
0
LINE
8
BLACK
6
CONTINUOUS
10
3.3042038188976379
20
-2.1721741338582676
11
3.3063374015748033
21
-2.175367283464567
0
LINE
8
BLACK
6
CONTINUOUS
10
3.3063374015748033
20
-2.175367283464567
11
3.3070866141732282
21
-2.1791338582677167
0
LINE
8
BLACK
6
CONTINUOUS
10
3.3070866141732282
20
-2.1791338582677167
11
3.3070866141732282
21
-2.1998031496062991
0
LINE
8
BLACK
6
CONTINUOUS
10
3.3070866141732282
20
-2.1998031496062991
11
3.3063374015748033
21
-2.2035697244094488
0
LINE
8
BLACK
6
CONTINUOUS
10
3.3063374015748033
20
-2.2035697244094488
11
3.3042038188976379
21
-2.2067628740157481
0
LINE
8
BLACK
6
CONTINUOUS
10
3.3042038188976379
20
-2.2067628740157481
11
3.3010106692913386
21
-2.2088964566929135
0
LINE
8
BLACK
6
CONTINUOUS
10
3.3010106692913386
20
-2.2088964566929135
11
3.2972440944881889
21
-2.2096456692913384
0
LINE
8
BLACK
6
CONTINUOUS
10
3.2972440944881889
20
-2.2096456692913384
11
3.2618110236220472
21
-2.2096456692913384
0
LINE
8
BLACK
6
CONTINUOUS
10
3.2618110236220472
20
-2.2096456692913384
11
3.2580444488188975
21
-2.2088964566929135
0
LINE
8
BLACK
6
CONTINUOUS
10
3.2580444488188975
20
-2.2088964566929135
11
3.2548512992125982
21
-2.2067628740157481
0
LINE
8
BLACK
6
CONTINUOUS
10
3.2548512992125982
20
-2.2067628740157481
11
3.2527177165354328
21
-2.2035697244094488
0
LINE
8
BLACK
6
CONTINUOUS
10
3.2527177165354328
20
-2.2035697244094488
11
3.2519685039370079
21
-2.1998031496062991
0
LINE
8
BLACK
6
CONTINUOUS
10
3.2519685039370079
20
-2.1998031496062991
11
3.2519685039370079
21
-2.1791338582677167
0
LINE
8
BLACK
6
CONTINUOUS
10
3.2519685039370079
20
-2.1791338582677167
11
3.2527177165354328
21
-2.175367283464567
0
LINE
8
BLACK
6
CONTINUOUS
10
3.2527177165354328
20
-2.175367283464567
11
3.2548512992125982
21
-2.1721741338582676
0
LINE
8
BLACK
6
CONTINUOUS
10
3.2548512992125982
20
-2.1721741338582676
11
3.2580444488188975
21
-2.1700405511811023
0
LINE
8
BLACK
6
CONTINUOUS
10
3.2580444488188975
20
-2.1700405511811023
11
3.2618110236220472
21
-2.1692913385826773
0
LINE
8
BLACK
6
CONTINUOUS
10
3.2618110236220472
20
-2.1692913385826773
11
3.2972440944881889
21
-2.1692913385826773
0
LINE
8
BLACK
6
CONTINUOUS
10
3.2972440944881889
20
-2.1692913385826773
11
3.3010106692913386
21
-2.1700405511811023
0
LINE
8
BLACK
6
CONTINUOUS
10
3.0421524015748029
20
-2.1405129921259842
11
3.0453455511811023
21
-2.1426465748031496
0
LINE
8
BLACK
6
CONTINUOUS
10
3.0453455511811023
20
-2.1426465748031496
11
3.0474791338582676
21
-2.1458397244094489
0
LINE
8
BLACK
6
CONTINUOUS
10
3.0474791338582676
20
-2.1458397244094489
11
3.048228346456693
21
-2.1496062992125982
0
LINE
8
BLACK
6
CONTINUOUS
10
3.048228346456693
20
-2.1496062992125982
11
3.048228346456693
21
-2.1692913385826773
0
LINE
8
BLACK
6
CONTINUOUS
10
3.048228346456693
20
-2.1692913385826773
11
3.0474791338582676
21
-2.1730579133858265
0
LINE
8
BLACK
6
CONTINUOUS
10
3.0474791338582676
20
-2.1730579133858265
11
3.0453455511811023
21
-2.1762510629921259
0
LINE
8
BLACK
6
CONTINUOUS
10
3.0453455511811023
20
-2.1762510629921259
11
3.0421524015748029
21
-2.1783846456692912
0
LINE
8
BLACK
6
CONTINUOUS
10
3.0421524015748029
20
-2.1783846456692912
11
3.0383858267716533
21
-2.1791338582677167
0
LINE
8
BLACK
6
CONTINUOUS
10
3.0383858267716533
20
-2.1791338582677167
11
3.0009842519685037
21
-2.1791338582677167
0
LINE
8
BLACK
6
CONTINUOUS
10
3.0009842519685037
20
-2.1791338582677167
11
2.9972176771653545
21
-2.1783846456692912
0
LINE
8
BLACK
6
CONTINUOUS
10
2.9972176771653545
20
-2.1783846456692912
11
2.9940245275590551
21
-2.1762510629921259
0
LINE
8
BLACK
6
CONTINUOUS
10
2.9940245275590551
20
-2.1762510629921259
11
2.9918909448818898
21
-2.1730579133858265
0
LINE
8
BLACK
6
CONTINUOUS
10
2.9918909448818898
20
-2.1730579133858265
11
2.9911417322834644
21
-2.1692913385826773
0
LINE
8
BLACK
6
CONTINUOUS
10
2.9911417322834644
20
-2.1692913385826773
11
2.9911417322834644
21
-2.1496062992125982
0
LINE
8
BLACK
6
CONTINUOUS
10
2.9911417322834644
20
-2.1496062992125982
11
2.9918909448818898
21
-2.1458397244094489
0
LINE
8
BLACK
6
CONTINUOUS
10
2.9918909448818898
20
-2.1458397244094489
11
2.9940245275590551
21
-2.1426465748031496
0
LINE
8
BLACK
6
CONTINUOUS
10
2.9940245275590551
20
-2.1426465748031496
11
2.9972176771653545
21
-2.1405129921259842
0
LINE
8
BLACK
6
CONTINUOUS
10
2.9972176771653545
20
-2.1405129921259842
11
3.0009842519685037
21
-2.1397637795275588
0
LINE
8
BLACK
6
CONTINUOUS
10
3.0009842519685037
20
-2.1397637795275588
11
3.0383858267716533
21
-2.1397637795275588
0
LINE
8
BLACK
6
CONTINUOUS
10
3.0383858267716533
20
-2.1397637795275588
11
3.0421524015748029
21
-2.1405129921259842
0
LINE
8
BLACK
6
CONTINUOUS
10
3.3010106692913386
20
-2.0981901574803148
11
3.3042038188976379
21
-2.1003237401574801
0
LINE
8
BLACK
6
CONTINUOUS
10
3.3042038188976379
20
-2.1003237401574801
11
3.3063374015748033
21
-2.1035168897637795
0
LINE
8
BLACK
6
CONTINUOUS
10
3.3063374015748033
20
-2.1035168897637795
11
3.3070866141732282
21
-2.1072834645669292
0
LINE
8
BLACK
6
CONTINUOUS
10
3.3070866141732282
20
-2.1072834645669292
11
3.3070866141732282
21
-2.1279527559055116
0
LINE
8
BLACK
6
CONTINUOUS
10
3.3070866141732282
20
-2.1279527559055116
11
3.3063374015748033
21
-2.1317193307086613
0
LINE
8
BLACK
6
CONTINUOUS
10
3.3063374015748033
20
-2.1317193307086613
11
3.3042038188976379
21
-2.1349124803149606
0
LINE
8
BLACK
6
CONTINUOUS
10
3.3042038188976379
20
-2.1349124803149606
11
3.3010106692913386
21
-2.137046062992126
0
LINE
8
BLACK
6
CONTINUOUS
10
3.3010106692913386
20
-2.137046062992126
11
3.2972440944881889
21
-2.1377952755905509
0
LINE
8
BLACK
6
CONTINUOUS
10
3.2972440944881889
20
-2.1377952755905509
11
3.2618110236220472
21
-2.1377952755905509
0
LINE
8
BLACK
6
CONTINUOUS
10
3.2618110236220472
20
-2.1377952755905509
11
3.2580444488188975
21
-2.137046062992126
0
LINE
8
BLACK
6
CONTINUOUS
10
3.2580444488188975
20
-2.137046062992126
11
3.2548512992125982
21
-2.1349124803149606
0
LINE
8
BLACK
6
CONTINUOUS
10
3.2548512992125982
20
-2.1349124803149606
11
3.2527177165354328
21
-2.1317193307086613
0
LINE
8
BLACK
6
CONTINUOUS
10
3.2527177165354328
20
-2.1317193307086613
11
3.2519685039370079
21
-2.1279527559055116
0
LINE
8
BLACK
6
CONTINUOUS
10
3.2519685039370079
20
-2.1279527559055116
11
3.2519685039370079
21
-2.1072834645669292
0
LINE
8
BLACK
6
CONTINUOUS
10
3.2519685039370079
20
-2.1072834645669292
11
3.2527177165354328
21
-2.1035168897637795
0
LINE
8
BLACK
6
CONTINUOUS
10
3.2527177165354328
20
-2.1035168897637795
11
3.2548512992125982
21
-2.1003237401574801
0
LINE
8
BLACK
6
CONTINUOUS
10
3.2548512992125982
20
-2.1003237401574801
11
3.2580444488188975
21
-2.0981901574803148
0
LINE
8
BLACK
6
CONTINUOUS
10
3.2580444488188975
20
-2.0981901574803148
11
3.2618110236220472
21
-2.0974409448818898
0
LINE
8
BLACK
6
CONTINUOUS
10
3.2618110236220472
20
-2.0974409448818898
11
3.2972440944881889
21
-2.0974409448818898
0
LINE
8
BLACK
6
CONTINUOUS
10
3.2972440944881889
20
-2.0974409448818898
11
3.3010106692913386
21
-2.0981901574803148
0
LINE
8
BLACK
6
CONTINUOUS
10
2.8605035433070864
20
-2.0208816141732284
11
2.8669666141732284
21
-2.0229816141732284
0
LINE
8
BLACK
6
CONTINUOUS
10
2.8669666141732284
20
-2.0229816141732284
11
2.8730215748031496
21
-2.0260667716535434
0
LINE
8
BLACK
6
CONTINUOUS
10
2.8730215748031496
20
-2.0260667716535434
11
2.8785194094488187
21
-2.0300611417322836
0
LINE
8
BLACK
6
CONTINUOUS
10
2.8785194094488187
20
-2.0300611417322836
11
2.8833246850393701
21
-2.0348664173228346
0
LINE
8
BLACK
6
CONTINUOUS
10
2.8833246850393701
20
-2.0348664173228346
11
2.8873190551181103
21
-2.0403642519685037
0
LINE
8
BLACK
6
CONTINUOUS
10
2.8873190551181103
20
-2.0403642519685037
11
2.8904042125984253
21
-2.0464192125984253
0
LINE
8
BLACK
6
CONTINUOUS
10
2.8904042125984253
20
-2.0464192125984253
11
2.8925042125984253
21
-2.0528822834645668
0
LINE
8
BLACK
6
CONTINUOUS
10
2.8925042125984253
20
-2.0528822834645668
11
2.8935672834645669
21
-2.0595942913385827
0
LINE
8
BLACK
6
CONTINUOUS
10
2.8935672834645669
20
-2.0595942913385827
11
2.8935672834645669
21
-2.0663899606299214
0
LINE
8
BLACK
6
CONTINUOUS
10
2.8935672834645669
20
-2.0663899606299214
11
2.8925042125984253
21
-2.0731019685039369
0
LINE
8
BLACK
6
CONTINUOUS
10
2.8925042125984253
20
-2.0731019685039369
11
2.8904042125984253
21
-2.0795650393700789
0
LINE
8
BLACK
6
CONTINUOUS
10
2.8904042125984253
20
-2.0795650393700789
11
2.8873190551181103
21
-2.08562
0
LINE
8
BLACK
6
CONTINUOUS
10
2.8873190551181103
20
-2.08562
11
2.8833246850393701
21
-2.0911178346456691
0
LINE
8
BLACK
6
CONTINUOUS
10
2.8833246850393701
20
-2.0911178346456691
11
2.8785194094488187
21
-2.0959231102362206
0
LINE
8
BLACK
6
CONTINUOUS
10
2.8785194094488187
20
-2.0959231102362206
11
2.8730215748031496
21
-2.0999174803149607
0
LINE
8
BLACK
6
CONTINUOUS
10
2.8730215748031496
20
-2.0999174803149607
11
2.8669666141732284
21
-2.1030026377952757
0
LINE
8
BLACK
6
CONTINUOUS
10
2.8669666141732284
20
-2.1030026377952757
11
2.8605035433070864
21
-2.1051026377952757
0
LINE
8
BLACK
6
CONTINUOUS
10
2.8605035433070864
20
-2.1051026377952757
11
2.853791535433071
21
-2.1061657086614174
0
LINE
8
BLACK
6
CONTINUOUS
10
2.853791535433071
20
-2.1061657086614174
11
2.8469958661417323
21
-2.1061657086614174
0
LINE
8
BLACK
6
CONTINUOUS
10
2.8469958661417323
20
-2.1061657086614174
11
2.8402838582677163
21
-2.1051026377952757
0
LINE
8
BLACK
6
CONTINUOUS
10
2.8402838582677163
20
-2.1051026377952757
11
2.8338207874015748
21
-2.1030026377952757
0
LINE
8
BLACK
6
CONTINUOUS
10
2.8338207874015748
20
-2.1030026377952757
11
2.8277658267716537
21
-2.0999174803149607
0
LINE
8
BLACK
6
CONTINUOUS
10
2.8277658267716537
20
-2.0999174803149607
11
2.8222679921259841
21
-2.0959231102362206
0
LINE
8
BLACK
6
CONTINUOUS
10
2.8222679921259841
20
-2.0959231102362206
11
2.8174627165354331
21
-2.0911178346456691
0
LINE
8
BLACK
6
CONTINUOUS
10
2.8174627165354331
20
-2.0911178346456691
11
2.813468346456693
21
-2.08562
0
LINE
8
BLACK
6
CONTINUOUS
10
2.813468346456693
20
-2.08562
11
2.810383188976378
21
-2.0795650393700789
0
LINE
8
BLACK
6
CONTINUOUS
10
2.810383188976378
20
-2.0795650393700789
11
2.808283188976378
21
-2.0731019685039369
0
LINE
8
BLACK
6
CONTINUOUS
10
2.808283188976378
20
-2.0731019685039369
11
2.8072201181102363
21
-2.0663899606299214
0
LINE
8
BLACK
6
CONTINUOUS
10
2.8072201181102363
20
-2.0663899606299214
11
2.8072201181102363
21
-2.0595942913385827
0
LINE
8
BLACK
6
CONTINUOUS
10
2.8072201181102363
20
-2.0595942913385827
11
2.808283188976378
21
-2.0528822834645668
0
LINE
8
BLACK
6
CONTINUOUS
10
2.808283188976378
20
-2.0528822834645668
11
2.810383188976378
21
-2.0464192125984253
0
LINE
8
BLACK
6
CONTINUOUS
10
2.810383188976378
20
-2.0464192125984253
11
2.813468346456693
21
-2.0403642519685037
0
LINE
8
BLACK
6
CONTINUOUS
10
2.813468346456693
20
-2.0403642519685037
11
2.8174627165354331
21
-2.0348664173228346
0
LINE
8
BLACK
6
CONTINUOUS
10
2.8174627165354331
20
-2.0348664173228346
11
2.8222679921259841
21
-2.0300611417322836
0
LINE
8
BLACK
6
CONTINUOUS
10
2.8222679921259841
20
-2.0300611417322836
11
2.8277658267716537
21
-2.0260667716535434
0
LINE
8
BLACK
6
CONTINUOUS
10
2.8277658267716537
20
-2.0260667716535434
11
2.8338207874015748
21
-2.0229816141732284
0
LINE
8
BLACK
6
CONTINUOUS
10
2.8338207874015748
20
-2.0229816141732284
11
2.8402838582677163
21
-2.0208816141732284
0
LINE
8
BLACK
6
CONTINUOUS
10
2.8402838582677163
20
-2.0208816141732284
11
2.8469958661417323
21
-2.0198185433070868
0
LINE
8
BLACK
6
CONTINUOUS
10
2.8469958661417323
20
-2.0198185433070868
11
2.853791535433071
21
-2.0198185433070868
0
LINE
8
BLACK
6
CONTINUOUS
10
2.853791535433071
20
-2.0198185433070868
11
2.8605035433070864
21
-2.0208816141732284
0
LINE
8
BLACK
6
CONTINUOUS
10
3.0421524015748029
20
-2.0657098425196851
11
3.0453455511811023
21
-2.0678434251968505
0
LINE
8
BLACK
6
CONTINUOUS
10
3.0453455511811023
20
-2.0678434251968505
11
3.0474791338582676
21
-2.0710365748031494
0
LINE
8
BLACK
6
CONTINUOUS
10
3.0474791338582676
20
-2.0710365748031494
11
3.048228346456693
21
-2.0748031496062991
0
LINE
8
BLACK
6
CONTINUOUS
10
3.048228346456693
20
-2.0748031496062991
11
3.048228346456693
21
-2.0944881889763778
0
LINE
8
BLACK
6
CONTINUOUS
10
3.048228346456693
20
-2.0944881889763778
11
3.0474791338582676
21
-2.0982547637795275
0
LINE
8
BLACK
6
CONTINUOUS
10
3.0474791338582676
20
-2.0982547637795275
11
3.0453455511811023
21
-2.1014479133858268
0
LINE
8
BLACK
6
CONTINUOUS
10
3.0453455511811023
20
-2.1014479133858268
11
3.0421524015748029
21
-2.1035814960629922
0
LINE
8
BLACK
6
CONTINUOUS
10
3.0421524015748029
20
-2.1035814960629922
11
3.0383858267716533
21
-2.1043307086614171
0
LINE
8
BLACK
6
CONTINUOUS
10
3.0383858267716533
20
-2.1043307086614171
11
3.0009842519685037
21
-2.1043307086614171
0
LINE
8
BLACK
6
CONTINUOUS
10
3.0009842519685037
20
-2.1043307086614171
11
2.9972176771653545
21
-2.1035814960629922
0
LINE
8
BLACK
6
CONTINUOUS
10
2.9972176771653545
20
-2.1035814960629922
11
2.9940245275590551
21
-2.1014479133858268
0
LINE
8
BLACK
6
CONTINUOUS
10
2.9940245275590551
20
-2.1014479133858268
11
2.9918909448818898
21
-2.0982547637795275
0
LINE
8
BLACK
6
CONTINUOUS
10
2.9918909448818898
20
-2.0982547637795275
11
2.9911417322834644
21
-2.0944881889763778
0
LINE
8
BLACK
6
CONTINUOUS
10
2.9911417322834644
20
-2.0944881889763778
11
2.9911417322834644
21
-2.0748031496062991
0
LINE
8
BLACK
6
CONTINUOUS
10
2.9911417322834644
20
-2.0748031496062991
11
2.9918909448818898
21
-2.0710365748031494
0
LINE
8
BLACK
6
CONTINUOUS
10
2.9918909448818898
20
-2.0710365748031494
11
2.9940245275590551
21
-2.0678434251968505
0
LINE
8
BLACK
6
CONTINUOUS
10
2.9940245275590551
20
-2.0678434251968505
11
2.9972176771653545
21
-2.0657098425196851
0
LINE
8
BLACK
6
CONTINUOUS
10
2.9972176771653545
20
-2.0657098425196851
11
3.0009842519685037
21
-2.0649606299212597
0
LINE
8
BLACK
6
CONTINUOUS
10
3.0009842519685037
20
-2.0649606299212597
11
3.0383858267716533
21
-2.0649606299212597
0
LINE
8
BLACK
6
CONTINUOUS
10
3.0383858267716533
20
-2.0649606299212597
11
3.0421524015748029
21
-2.0657098425196851
0
LINE
8
BLACK
6
CONTINUOUS
10
3.4668027559055119
20
-2.0130075984251969
11
3.4732658267716534
21
-2.0151075984251969
0
LINE
8
BLACK
6
CONTINUOUS
10
3.4732658267716534
20
-2.0151075984251969
11
3.4793207874015746
21
-2.0181927559055119
0
LINE
8
BLACK
6
CONTINUOUS
10
3.4793207874015746
20
-2.0181927559055119
11
3.4848186220472441
21
-2.0221871259842521
0
LINE
8
BLACK
6
CONTINUOUS
10
3.4848186220472441
20
-2.0221871259842521
11
3.4896238976377951
21
-2.0269924015748031
0
LINE
8
BLACK
6
CONTINUOUS
10
3.4896238976377951
20
-2.0269924015748031
11
3.4936182677165353
21
-2.0324902362204722
0
LINE
8
BLACK
6
CONTINUOUS
10
3.4936182677165353
20
-2.0324902362204722
11
3.4967034251968503
21
-2.0385451968503938
0
LINE
8
BLACK
6
CONTINUOUS
10
3.4967034251968503
20
-2.0385451968503938
11
3.4988034251968503
21
-2.0450082677165353
0
LINE
8
BLACK
6
CONTINUOUS
10
3.4988034251968503
20
-2.0450082677165353
11
3.4998664960629919
21
-2.0517202755905513
0
LINE
8
BLACK
6
CONTINUOUS
10
3.4998664960629919
20
-2.0517202755905513
11
3.4998664960629919
21
-2.0585159448818899
0
LINE
8
BLACK
6
CONTINUOUS
10
3.4998664960629919
20
-2.0585159448818899
11
3.4988034251968503
21
-2.0652279527559054
0
LINE
8
BLACK
6
CONTINUOUS
10
3.4988034251968503
20
-2.0652279527559054
11
3.4967034251968503
21
-2.0716910236220474
0
LINE
8
BLACK
6
CONTINUOUS
10
3.4967034251968503
20
-2.0716910236220474
11
3.4936182677165353
21
-2.0777459842519685
0
LINE
8
BLACK
6
CONTINUOUS
10
3.4936182677165353
20
-2.0777459842519685
11
3.4896238976377951
21
-2.0832438188976377
0
LINE
8
BLACK
6
CONTINUOUS
10
3.4896238976377951
20
-2.0832438188976377
11
3.4848186220472441
21
-2.0880490944881891
0
LINE
8
BLACK
6
CONTINUOUS
10
3.4848186220472441
20
-2.0880490944881891
11
3.4793207874015746
21
-2.0920434645669292
0
LINE
8
BLACK
6
CONTINUOUS
10
3.4793207874015746
20
-2.0920434645669292
11
3.4732658267716534
21
-2.0951286220472443
0
LINE
8
BLACK
6
CONTINUOUS
10
3.4732658267716534
20
-2.0951286220472443
11
3.4668027559055119
21
-2.0972286220472443
0
LINE
8
BLACK
6
CONTINUOUS
10
3.4668027559055119
20
-2.0972286220472443
11
3.460090748031496
21
-2.0982916929133859
0
LINE
8
BLACK
6
CONTINUOUS
10
3.460090748031496
20
-2.0982916929133859
11
3.4532950787401573
21
-2.0982916929133859
0
LINE
8
BLACK
6
CONTINUOUS
10
3.4532950787401573
20
-2.0982916929133859
11
3.4465830708661418
21
-2.0972286220472443
0
LINE
8
BLACK
6
CONTINUOUS
10
3.4465830708661418
20
-2.0972286220472443
11
3.4401199999999998
21
-2.0951286220472443
0
LINE
8
BLACK
6
CONTINUOUS
10
3.4401199999999998
20
-2.0951286220472443
11
3.4340650393700787
21
-2.0920434645669292
0
LINE
8
BLACK
6
CONTINUOUS
10
3.4340650393700787
20
-2.0920434645669292
11
3.4285672047244096
21
-2.0880490944881891
0
LINE
8
BLACK
6
CONTINUOUS
10
3.4285672047244096
20
-2.0880490944881891
11
3.4237619291338581
21
-2.0832438188976377
0
LINE
8
BLACK
6
CONTINUOUS
10
3.4237619291338581
20
-2.0832438188976377
11
3.419767559055118
21
-2.0777459842519685
0
LINE
8
BLACK
6
CONTINUOUS
10
3.419767559055118
20
-2.0777459842519685
11
3.416682401574803
21
-2.0716910236220474
0
LINE
8
BLACK
6
CONTINUOUS
10
3.416682401574803
20
-2.0716910236220474
11
3.414582401574803
21
-2.0652279527559054
0
LINE
8
BLACK
6
CONTINUOUS
10
3.414582401574803
20
-2.0652279527559054
11
3.4135193307086613
21
-2.0585159448818899
0
LINE
8
BLACK
6
CONTINUOUS
10
3.4135193307086613
20
-2.0585159448818899
11
3.4135193307086613
21
-2.0517202755905513
0
LINE
8
BLACK
6
CONTINUOUS
10
3.4135193307086613
20
-2.0517202755905513
11
3.414582401574803
21
-2.0450082677165353
0
LINE
8
BLACK
6
CONTINUOUS
10
3.414582401574803
20
-2.0450082677165353
11
3.416682401574803
21
-2.0385451968503938
0
LINE
8
BLACK
6
CONTINUOUS
10
3.416682401574803
20
-2.0385451968503938
11
3.419767559055118
21
-2.0324902362204722
0
LINE
8
BLACK
6
CONTINUOUS
10
3.419767559055118
20
-2.0324902362204722
11
3.4237619291338581
21
-2.0269924015748031
0
LINE
8
BLACK
6
CONTINUOUS
10
3.4237619291338581
20
-2.0269924015748031
11
3.4285672047244096
21
-2.0221871259842521
0
LINE
8
BLACK
6
CONTINUOUS
10
3.4285672047244096
20
-2.0221871259842521
11
3.4340650393700787
21
-2.0181927559055119
0
LINE
8
BLACK
6
CONTINUOUS
10
3.4340650393700787
20
-2.0181927559055119
11
3.4401199999999998
21
-2.0151075984251969
0
LINE
8
BLACK
6
CONTINUOUS
10
3.4401199999999998
20
-2.0151075984251969
11
3.4465830708661418
21
-2.0130075984251969
0
LINE
8
BLACK
6
CONTINUOUS
10
3.4465830708661418
20
-2.0130075984251969
11
3.4532950787401573
21
-2.0119445275590553
0
LINE
8
BLACK
6
CONTINUOUS
10
3.4532950787401573
20
-2.0119445275590553
11
3.460090748031496
21
-2.0119445275590553
0
LINE
8
BLACK
6
CONTINUOUS
10
3.460090748031496
20
-2.0119445275590553
11
3.4668027559055119
21
-2.0130075984251969
  0
ENDSEC
  0
EOF
