  0
SECTION
  2
HEADER
  9
$ANGBASE
  50
0.0
  9
$ANGDIR
  70
1
  9
$MEASUREMENT
  70
0
  0
ENDSEC
  0
SECTION
  2
TABLES
  0
TABLE
  2
LTYPE
  70
4
  0
LTYPE
  5
40F
  2
CONTINUOUS
  70
0
  3
Solid line
  72
65
  73
0
  40
0.0
  0
LTYPE
  5
410
  2
DASHDOT
 70
0
  3
Dash Dot ____ _ ____ _
 72
65
 73
4
 40
2.0
 49
1.25
 49
-0.25
 49
0.25
 49
-0.25
  0
LTYPE
  5
411
  2
DASHED
 70
0
  3
Dashed __ __ __ __ __
 72
65
 73
2
 40
0.75
 49
0.5
 49
-0.25
  0
LTYPE
  5
43B
  2
DOTTED
 70
0
  3
Dotted .  .  .  .
 72
65
 73
2
 40
0.2
 49
0.0
 49
-0.2
  0
ENDTAB
  0
TABLE
  2
STYLE
  70
4
  0
STYLE
  2
KICAD
  70
0
  40
0
  41
1
  42
1
  50
0
  71
0
  3
isocp.shx
  0
STYLE
  2
KICADB
  70
0
  40
0
  41
1
  42
1
  50
0
  71
0
  3
isocp.shx
  0
STYLE
  2
KICADI
  70
0
  40
0
  41
1
  42
1
  50
15
  71
0
  3
isocp.shx
  0
STYLE
  2
KICADBI
  70
0
  40
0
  41
1
  42
1
  50
15
  71
0
  3
isocp.shx
  0
ENDTAB
  0
TABLE
  2
LAYER
  70
1
  0
LAYER
  2
BLACK
  70
0
  62
7
  6
CONTINUOUS
  0
ENDTAB
  0
ENDSEC
  0
SECTION
  2
ENTITIES
0
LINE
8
BLACK
6
CONTINUOUS
10
2.9900039370078741
20
-2.9282835826771652
11
2.947003937007874
21
-2.9282835826771652
0
LINE
8
BLACK
6
CONTINUOUS
10
2.947003937007874
20
-2.9282835826771652
11
2.947003937007874
21
-2.8142835826771653
0
LINE
8
BLACK
6
CONTINUOUS
10
2.947003937007874
20
-2.8142835826771653
11
2.9900039370078741
21
-2.8142835826771653
0
LINE
8
BLACK
6
CONTINUOUS
10
2.9900039370078741
20
-2.8142835826771653
11
2.9900039370078741
21
-2.9282835826771652
0
LINE
8
BLACK
6
CONTINUOUS
10
3.3522086614173228
20
-2.9273085433070865
11
3.3092086614173226
21
-2.9273085433070865
0
LINE
8
BLACK
6
CONTINUOUS
10
3.3092086614173226
20
-2.9273085433070865
11
3.3092086614173226
21
-2.8133085433070866
0
LINE
8
BLACK
6
CONTINUOUS
10
3.3092086614173226
20
-2.8133085433070866
11
3.3522086614173228
21
-2.8133085433070866
0
LINE
8
BLACK
6
CONTINUOUS
10
3.3522086614173228
20
-2.8133085433070866
11
3.3522086614173228
21
-2.9273085433070865
0
LINE
8
BLACK
6
CONTINUOUS
10
2.8605035433070864
20
-2.8161572047244094
11
2.8669666141732284
21
-2.8182572047244094
0
LINE
8
BLACK
6
CONTINUOUS
10
2.8669666141732284
20
-2.8182572047244094
11
2.8730215748031496
21
-2.8213423622047245
0
LINE
8
BLACK
6
CONTINUOUS
10
2.8730215748031496
20
-2.8213423622047245
11
2.8785194094488187
21
-2.8253367322834646
0
LINE
8
BLACK
6
CONTINUOUS
10
2.8785194094488187
20
-2.8253367322834646
11
2.8833246850393701
21
-2.8301420078740156
0
LINE
8
BLACK
6
CONTINUOUS
10
2.8833246850393701
20
-2.8301420078740156
11
2.8873190551181103
21
-2.8356398425196851
0
LINE
8
BLACK
6
CONTINUOUS
10
2.8873190551181103
20
-2.8356398425196851
11
2.8904042125984253
21
-2.8416948031496063
0
LINE
8
BLACK
6
CONTINUOUS
10
2.8904042125984253
20
-2.8416948031496063
11
2.8925042125984253
21
-2.8481578740157478
0
LINE
8
BLACK
6
CONTINUOUS
10
2.8925042125984253
20
-2.8481578740157478
11
2.8935672834645669
21
-2.8548698818897638
0
LINE
8
BLACK
6
CONTINUOUS
10
2.8935672834645669
20
-2.8548698818897638
11
2.8935672834645669
21
-2.8616655511811024
0
LINE
8
BLACK
6
CONTINUOUS
10
2.8935672834645669
20
-2.8616655511811024
11
2.8925042125984253
21
-2.8683775590551179
0
LINE
8
BLACK
6
CONTINUOUS
10
2.8925042125984253
20
-2.8683775590551179
11
2.8904042125984253
21
-2.8748406299212599
0
LINE
8
BLACK
6
CONTINUOUS
10
2.8904042125984253
20
-2.8748406299212599
11
2.8873190551181103
21
-2.8808955905511811
0
LINE
8
BLACK
6
CONTINUOUS
10
2.8873190551181103
20
-2.8808955905511811
11
2.8833246850393701
21
-2.8863934251968502
0
LINE
8
BLACK
6
CONTINUOUS
10
2.8833246850393701
20
-2.8863934251968502
11
2.8785194094488187
21
-2.8911987007874016
0
LINE
8
BLACK
6
CONTINUOUS
10
2.8785194094488187
20
-2.8911987007874016
11
2.8730215748031496
21
-2.8951930708661417
0
LINE
8
BLACK
6
CONTINUOUS
10
2.8730215748031496
20
-2.8951930708661417
11
2.8669666141732284
21
-2.8982782283464568
0
LINE
8
BLACK
6
CONTINUOUS
10
2.8669666141732284
20
-2.8982782283464568
11
2.8605035433070864
21
-2.9003782283464568
0
LINE
8
BLACK
6
CONTINUOUS
10
2.8605035433070864
20
-2.9003782283464568
11
2.853791535433071
21
-2.9014412992125984
0
LINE
8
BLACK
6
CONTINUOUS
10
2.853791535433071
20
-2.9014412992125984
11
2.8469958661417323
21
-2.9014412992125984
0
LINE
8
BLACK
6
CONTINUOUS
10
2.8469958661417323
20
-2.9014412992125984
11
2.8402838582677163
21
-2.9003782283464568
0
LINE
8
BLACK
6
CONTINUOUS
10
2.8402838582677163
20
-2.9003782283464568
11
2.8338207874015748
21
-2.8982782283464568
0
LINE
8
BLACK
6
CONTINUOUS
10
2.8338207874015748
20
-2.8982782283464568
11
2.8277658267716537
21
-2.8951930708661417
0
LINE
8
BLACK
6
CONTINUOUS
10
2.8277658267716537
20
-2.8951930708661417
11
2.8222679921259841
21
-2.8911987007874016
0
LINE
8
BLACK
6
CONTINUOUS
10
2.8222679921259841
20
-2.8911987007874016
11
2.8174627165354331
21
-2.8863934251968502
0
LINE
8
BLACK
6
CONTINUOUS
10
2.8174627165354331
20
-2.8863934251968502
11
2.813468346456693
21
-2.8808955905511811
0
LINE
8
BLACK
6
CONTINUOUS
10
2.813468346456693
20
-2.8808955905511811
11
2.810383188976378
21
-2.8748406299212599
0
LINE
8
BLACK
6
CONTINUOUS
10
2.810383188976378
20
-2.8748406299212599
11
2.808283188976378
21
-2.8683775590551179
0
LINE
8
BLACK
6
CONTINUOUS
10
2.808283188976378
20
-2.8683775590551179
11
2.8072201181102363
21
-2.8616655511811024
0
LINE
8
BLACK
6
CONTINUOUS
10
2.8072201181102363
20
-2.8616655511811024
11
2.8072201181102363
21
-2.8548698818897638
0
LINE
8
BLACK
6
CONTINUOUS
10
2.8072201181102363
20
-2.8548698818897638
11
2.808283188976378
21
-2.8481578740157478
0
LINE
8
BLACK
6
CONTINUOUS
10
2.808283188976378
20
-2.8481578740157478
11
2.810383188976378
21
-2.8416948031496063
0
LINE
8
BLACK
6
CONTINUOUS
10
2.810383188976378
20
-2.8416948031496063
11
2.813468346456693
21
-2.8356398425196851
0
LINE
8
BLACK
6
CONTINUOUS
10
2.813468346456693
20
-2.8356398425196851
11
2.8174627165354331
21
-2.8301420078740156
0
LINE
8
BLACK
6
CONTINUOUS
10
2.8174627165354331
20
-2.8301420078740156
11
2.8222679921259841
21
-2.8253367322834646
0
LINE
8
BLACK
6
CONTINUOUS
10
2.8222679921259841
20
-2.8253367322834646
11
2.8277658267716537
21
-2.8213423622047245
0
LINE
8
BLACK
6
CONTINUOUS
10
2.8277658267716537
20
-2.8213423622047245
11
2.8338207874015748
21
-2.8182572047244094
0
LINE
8
BLACK
6
CONTINUOUS
10
2.8338207874015748
20
-2.8182572047244094
11
2.8402838582677163
21
-2.8161572047244094
0
LINE
8
BLACK
6
CONTINUOUS
10
2.8402838582677163
20
-2.8161572047244094
11
2.8469958661417323
21
-2.8150941338582678
0
LINE
8
BLACK
6
CONTINUOUS
10
2.8469958661417323
20
-2.8150941338582678
11
2.853791535433071
21
-2.8150941338582678
0
LINE
8
BLACK
6
CONTINUOUS
10
2.853791535433071
20
-2.8150941338582678
11
2.8605035433070864
21
-2.8161572047244094
0
LINE
8
BLACK
6
CONTINUOUS
10
3.4589287401574804
20
-2.8161572047244094
11
3.4653918110236219
21
-2.8182572047244094
0
LINE
8
BLACK
6
CONTINUOUS
10
3.4653918110236219
20
-2.8182572047244094
11
3.4714467716535431
21
-2.8213423622047245
0
LINE
8
BLACK
6
CONTINUOUS
10
3.4714467716535431
20
-2.8213423622047245
11
3.4769446062992126
21
-2.8253367322834646
0
LINE
8
BLACK
6
CONTINUOUS
10
3.4769446062992126
20
-2.8253367322834646
11
3.4817498818897636
21
-2.8301420078740156
0
LINE
8
BLACK
6
CONTINUOUS
10
3.4817498818897636
20
-2.8301420078740156
11
3.4857442519685038
21
-2.8356398425196851
0
LINE
8
BLACK
6
CONTINUOUS
10
3.4857442519685038
20
-2.8356398425196851
11
3.4888294094488188
21
-2.8416948031496063
0
LINE
8
BLACK
6
CONTINUOUS
10
3.4888294094488188
20
-2.8416948031496063
11
3.4909294094488188
21
-2.8481578740157478
0
LINE
8
BLACK
6
CONTINUOUS
10
3.4909294094488188
20
-2.8481578740157478
11
3.4919924803149605
21
-2.8548698818897638
0
LINE
8
BLACK
6
CONTINUOUS
10
3.4919924803149605
20
-2.8548698818897638
11
3.4919924803149605
21
-2.8616655511811024
0
LINE
8
BLACK
6
CONTINUOUS
10
3.4919924803149605
20
-2.8616655511811024
11
3.4909294094488188
21
-2.8683775590551179
0
LINE
8
BLACK
6
CONTINUOUS
10
3.4909294094488188
20
-2.8683775590551179
11
3.4888294094488188
21
-2.8748406299212599
0
LINE
8
BLACK
6
CONTINUOUS
10
3.4888294094488188
20
-2.8748406299212599
11
3.4857442519685038
21
-2.8808955905511811
0
LINE
8
BLACK
6
CONTINUOUS
10
3.4857442519685038
20
-2.8808955905511811
11
3.4817498818897636
21
-2.8863934251968502
0
LINE
8
BLACK
6
CONTINUOUS
10
3.4817498818897636
20
-2.8863934251968502
11
3.4769446062992126
21
-2.8911987007874016
0
LINE
8
BLACK
6
CONTINUOUS
10
3.4769446062992126
20
-2.8911987007874016
11
3.4714467716535431
21
-2.8951930708661417
0
LINE
8
BLACK
6
CONTINUOUS
10
3.4714467716535431
20
-2.8951930708661417
11
3.4653918110236219
21
-2.8982782283464568
0
LINE
8
BLACK
6
CONTINUOUS
10
3.4653918110236219
20
-2.8982782283464568
11
3.4589287401574804
21
-2.9003782283464568
0
LINE
8
BLACK
6
CONTINUOUS
10
3.4589287401574804
20
-2.9003782283464568
11
3.4522167322834645
21
-2.9014412992125984
0
LINE
8
BLACK
6
CONTINUOUS
10
3.4522167322834645
20
-2.9014412992125984
11
3.4454210629921258
21
-2.9014412992125984
0
LINE
8
BLACK
6
CONTINUOUS
10
3.4454210629921258
20
-2.9014412992125984
11
3.4387090551181103
21
-2.9003782283464568
0
LINE
8
BLACK
6
CONTINUOUS
10
3.4387090551181103
20
-2.9003782283464568
11
3.4322459842519684
21
-2.8982782283464568
0
LINE
8
BLACK
6
CONTINUOUS
10
3.4322459842519684
20
-2.8982782283464568
11
3.4261910236220472
21
-2.8951930708661417
0
LINE
8
BLACK
6
CONTINUOUS
10
3.4261910236220472
20
-2.8951930708661417
11
3.4206931889763781
21
-2.8911987007874016
0
LINE
8
BLACK
6
CONTINUOUS
10
3.4206931889763781
20
-2.8911987007874016
11
3.4158879133858266
21
-2.8863934251968502
0
LINE
8
BLACK
6
CONTINUOUS
10
3.4158879133858266
20
-2.8863934251968502
11
3.4118935433070865
21
-2.8808955905511811
0
LINE
8
BLACK
6
CONTINUOUS
10
3.4118935433070865
20
-2.8808955905511811
11
3.4088083858267715
21
-2.8748406299212599
0
LINE
8
BLACK
6
CONTINUOUS
10
3.4088083858267715
20
-2.8748406299212599
11
3.4067083858267715
21
-2.8683775590551179
0
LINE
8
BLACK
6
CONTINUOUS
10
3.4067083858267715
20
-2.8683775590551179
11
3.4056453149606298
21
-2.8616655511811024
0
LINE
8
BLACK
6
CONTINUOUS
10
3.4056453149606298
20
-2.8616655511811024
11
3.4056453149606298
21
-2.8548698818897638
0
LINE
8
BLACK
6
CONTINUOUS
10
3.4056453149606298
20
-2.8548698818897638
11
3.4067083858267715
21
-2.8481578740157478
0
LINE
8
BLACK
6
CONTINUOUS
10
3.4067083858267715
20
-2.8481578740157478
11
3.4088083858267715
21
-2.8416948031496063
0
LINE
8
BLACK
6
CONTINUOUS
10
3.4088083858267715
20
-2.8416948031496063
11
3.4118935433070865
21
-2.8356398425196851
0
LINE
8
BLACK
6
CONTINUOUS
10
3.4118935433070865
20
-2.8356398425196851
11
3.4158879133858266
21
-2.8301420078740156
0
LINE
8
BLACK
6
CONTINUOUS
10
3.4158879133858266
20
-2.8301420078740156
11
3.4206931889763781
21
-2.8253367322834646
0
LINE
8
BLACK
6
CONTINUOUS
10
3.4206931889763781
20
-2.8253367322834646
11
3.4261910236220472
21
-2.8213423622047245
0
LINE
8
BLACK
6
CONTINUOUS
10
3.4261910236220472
20
-2.8213423622047245
11
3.4322459842519684
21
-2.8182572047244094
0
LINE
8
BLACK
6
CONTINUOUS
10
3.4322459842519684
20
-2.8182572047244094
11
3.4387090551181103
21
-2.8161572047244094
0
LINE
8
BLACK
6
CONTINUOUS
10
3.4387090551181103
20
-2.8161572047244094
11
3.4454210629921258
21
-2.8150941338582678
0
LINE
8
BLACK
6
CONTINUOUS
10
3.4454210629921258
20
-2.8150941338582678
11
3.4522167322834645
21
-2.8150941338582678
0
LINE
8
BLACK
6
CONTINUOUS
10
3.4522167322834645
20
-2.8150941338582678
11
3.4589287401574804
21
-2.8161572047244094
0
LINE
8
BLACK
6
CONTINUOUS
10
3.0248110236220471
20
-2.6829985433070864
11
2.9988110236220473
21
-2.6829985433070864
0
LINE
8
BLACK
6
CONTINUOUS
10
2.9988110236220473
20
-2.6829985433070864
11
2.9988110236220473
21
-2.6159985433070867
0
LINE
8
BLACK
6
CONTINUOUS
10
2.9988110236220473
20
-2.6159985433070867
11
3.0248110236220471
21
-2.6159985433070867
0
LINE
8
BLACK
6
CONTINUOUS
10
3.0248110236220471
20
-2.6159985433070867
11
3.0248110236220471
21
-2.6829985433070864
0
LINE
8
BLACK
6
CONTINUOUS
10
3.0641811023622045
20
-2.6829985433070864
11
3.0381811023622047
21
-2.6829985433070864
0
LINE
8
BLACK
6
CONTINUOUS
10
3.0381811023622047
20
-2.6829985433070864
11
3.0381811023622047
21
-2.6159985433070867
0
LINE
8
BLACK
6
CONTINUOUS
10
3.0381811023622047
20
-2.6159985433070867
11
3.0641811023622045
21
-2.6159985433070867
0
LINE
8
BLACK
6
CONTINUOUS
10
3.0641811023622045
20
-2.6159985433070867
11
3.0641811023622045
21
-2.6829985433070864
0
LINE
8
BLACK
6
CONTINUOUS
10
3.1035511811023619
20
-2.6829985433070864
11
3.0775511811023621
21
-2.6829985433070864
0
LINE
8
BLACK
6
CONTINUOUS
10
3.0775511811023621
20
-2.6829985433070864
11
3.0775511811023621
21
-2.6159985433070867
0
LINE
8
BLACK
6
CONTINUOUS
10
3.0775511811023621
20
-2.6159985433070867
11
3.1035511811023619
21
-2.6159985433070867
0
LINE
8
BLACK
6
CONTINUOUS
10
3.1035511811023619
20
-2.6159985433070867
11
3.1035511811023619
21
-2.6829985433070864
0
LINE
8
BLACK
6
CONTINUOUS
10
3.1429212598425198
20
-2.6829985433070864
11
3.1169212598425196
21
-2.6829985433070864
0
LINE
8
BLACK
6
CONTINUOUS
10
3.1169212598425196
20
-2.6829985433070864
11
3.1169212598425196
21
-2.6159985433070867
0
LINE
8
BLACK
6
CONTINUOUS
10
3.1169212598425196
20
-2.6159985433070867
11
3.1429212598425198
21
-2.6159985433070867
0
LINE
8
BLACK
6
CONTINUOUS
10
3.1429212598425198
20
-2.6159985433070867
11
3.1429212598425198
21
-2.6829985433070864
0
LINE
8
BLACK
6
CONTINUOUS
10
3.182291377952756
20
-2.6829985433070864
11
3.1562913779527557
21
-2.6829985433070864
0
LINE
8
BLACK
6
CONTINUOUS
10
3.1562913779527557
20
-2.6829985433070864
11
3.1562913779527557
21
-2.6159985433070867
0
LINE
8
BLACK
6
CONTINUOUS
10
3.1562913779527557
20
-2.6159985433070867
11
3.182291377952756
21
-2.6159985433070867
0
LINE
8
BLACK
6
CONTINUOUS
10
3.182291377952756
20
-2.6159985433070867
11
3.182291377952756
21
-2.6829985433070864
0
LINE
8
BLACK
6
CONTINUOUS
10
3.2216613779527559
20
-2.6829985433070864
11
3.1956613779527556
21
-2.6829985433070864
0
LINE
8
BLACK
6
CONTINUOUS
10
3.1956613779527556
20
-2.6829985433070864
11
3.1956613779527556
21
-2.6159985433070867
0
LINE
8
BLACK
6
CONTINUOUS
10
3.1956613779527556
20
-2.6159985433070867
11
3.2216613779527559
21
-2.6159985433070867
0
LINE
8
BLACK
6
CONTINUOUS
10
3.2216613779527559
20
-2.6159985433070867
11
3.2216613779527559
21
-2.6829985433070864
0
LINE
8
BLACK
6
CONTINUOUS
10
3.261031496062992
20
-2.6829985433070864
11
3.2350314960629922
21
-2.6829985433070864
0
LINE
8
BLACK
6
CONTINUOUS
10
3.2350314960629922
20
-2.6829985433070864
11
3.2350314960629922
21
-2.6159985433070867
0
LINE
8
BLACK
6
CONTINUOUS
10
3.2350314960629922
20
-2.6159985433070867
11
3.261031496062992
21
-2.6159985433070867
0
LINE
8
BLACK
6
CONTINUOUS
10
3.261031496062992
20
-2.6159985433070867
11
3.261031496062992
21
-2.6829985433070864
0
LINE
8
BLACK
6
CONTINUOUS
10
3.3004015748031494
20
-2.6829985433070864
11
3.2744015748031496
21
-2.6829985433070864
0
LINE
8
BLACK
6
CONTINUOUS
10
3.2744015748031496
20
-2.6829985433070864
11
3.2744015748031496
21
-2.6159985433070867
0
LINE
8
BLACK
6
CONTINUOUS
10
3.2744015748031496
20
-2.6159985433070867
11
3.3004015748031494
21
-2.6159985433070867
0
LINE
8
BLACK
6
CONTINUOUS
10
3.3004015748031494
20
-2.6159985433070867
11
3.3004015748031494
21
-2.6829985433070864
0
LINE
8
BLACK
6
CONTINUOUS
10
3.320434409448819
20
-2.4195182677165352
11
3.3217372047244096
21
-2.4203887795275589
0
LINE
8
BLACK
6
CONTINUOUS
10
3.3217372047244096
20
-2.4203887795275589
11
3.3226077165354329
21
-2.4216915748031496
0
LINE
8
BLACK
6
CONTINUOUS
10
3.3226077165354329
20
-2.4216915748031496
11
3.3229133858267716
21
-2.423228346456693
0
LINE
8
BLACK
6
CONTINUOUS
10
3.3229133858267716
20
-2.423228346456693
11
3.3229133858267716
21
-2.4586614173228347
0
LINE
8
BLACK
6
CONTINUOUS
10
3.3229133858267716
20
-2.4586614173228347
11
3.3226077165354329
21
-2.4601981889763778
0
LINE
8
BLACK
6
CONTINUOUS
10
3.3226077165354329
20
-2.4601981889763778
11
3.3217372047244096
21
-2.4615009842519684
0
LINE
8
BLACK
6
CONTINUOUS
10
3.3217372047244096
20
-2.4615009842519684
11
3.320434409448819
21
-2.4623714960629921
0
LINE
8
BLACK
6
CONTINUOUS
10
3.320434409448819
20
-2.4623714960629921
11
3.3188976377952755
21
-2.4626771653543305
0
LINE
8
BLACK
6
CONTINUOUS
10
3.3188976377952755
20
-2.4626771653543305
11
3.2598425196850394
21
-2.4626771653543305
0
LINE
8
BLACK
6
CONTINUOUS
10
3.2598425196850394
20
-2.4626771653543305
11
3.2583057480314959
21
-2.4623714960629921
0
LINE
8
BLACK
6
CONTINUOUS
10
3.2583057480314959
20
-2.4623714960629921
11
3.2570029527559052
21
-2.4615009842519684
0
LINE
8
BLACK
6
CONTINUOUS
10
3.2570029527559052
20
-2.4615009842519684
11
3.256132440944882
21
-2.4601981889763778
0
LINE
8
BLACK
6
CONTINUOUS
10
3.256132440944882
20
-2.4601981889763778
11
3.2558267716535432
21
-2.4586614173228347
0
LINE
8
BLACK
6
CONTINUOUS
10
3.2558267716535432
20
-2.4586614173228347
11
3.2558267716535432
21
-2.423228346456693
0
LINE
8
BLACK
6
CONTINUOUS
10
3.2558267716535432
20
-2.423228346456693
11
3.256132440944882
21
-2.4216915748031496
0
LINE
8
BLACK
6
CONTINUOUS
10
3.256132440944882
20
-2.4216915748031496
11
3.2570029527559052
21
-2.4203887795275589
0
LINE
8
BLACK
6
CONTINUOUS
10
3.2570029527559052
20
-2.4203887795275589
11
3.2583057480314959
21
-2.4195182677165352
0
LINE
8
BLACK
6
CONTINUOUS
10
3.2583057480314959
20
-2.4195182677165352
11
3.2598425196850394
21
-2.4192125984251969
0
LINE
8
BLACK
6
CONTINUOUS
10
3.2598425196850394
20
-2.4192125984251969
11
3.3188976377952755
21
-2.4192125984251969
0
LINE
8
BLACK
6
CONTINUOUS
10
3.3188976377952755
20
-2.4192125984251969
11
3.320434409448819
21
-2.4195182677165352
0
LINE
8
BLACK
6
CONTINUOUS
10
3.4424816535433069
20
-2.4195182677165352
11
3.4437844488188976
21
-2.4203887795275589
0
LINE
8
BLACK
6
CONTINUOUS
10
3.4437844488188976
20
-2.4203887795275589
11
3.4446549606299213
21
-2.4216915748031496
0
LINE
8
BLACK
6
CONTINUOUS
10
3.4446549606299213
20
-2.4216915748031496
11
3.4449606299212596
21
-2.423228346456693
0
LINE
8
BLACK
6
CONTINUOUS
10
3.4449606299212596
20
-2.423228346456693
11
3.4449606299212596
21
-2.4586614173228347
0
LINE
8
BLACK
6
CONTINUOUS
10
3.4449606299212596
20
-2.4586614173228347
11
3.4446549606299213
21
-2.4601981889763778
0
LINE
8
BLACK
6
CONTINUOUS
10
3.4446549606299213
20
-2.4601981889763778
11
3.4437844488188976
21
-2.4615009842519684
0
LINE
8
BLACK
6
CONTINUOUS
10
3.4437844488188976
20
-2.4615009842519684
11
3.4424816535433069
21
-2.4623714960629921
0
LINE
8
BLACK
6
CONTINUOUS
10
3.4424816535433069
20
-2.4623714960629921
11
3.4409448818897639
21
-2.4626771653543305
0
LINE
8
BLACK
6
CONTINUOUS
10
3.4409448818897639
20
-2.4626771653543305
11
3.3818897637795273
21
-2.4626771653543305
0
LINE
8
BLACK
6
CONTINUOUS
10
3.3818897637795273
20
-2.4626771653543305
11
3.3803529921259843
21
-2.4623714960629921
0
LINE
8
BLACK
6
CONTINUOUS
10
3.3803529921259843
20
-2.4623714960629921
11
3.3790501968503937
21
-2.4615009842519684
0
LINE
8
BLACK
6
CONTINUOUS
10
3.3790501968503937
20
-2.4615009842519684
11
3.3781796850393699
21
-2.4601981889763778
0
LINE
8
BLACK
6
CONTINUOUS
10
3.3781796850393699
20
-2.4601981889763778
11
3.3778740157480316
21
-2.4586614173228347
0
LINE
8
BLACK
6
CONTINUOUS
10
3.3778740157480316
20
-2.4586614173228347
11
3.3778740157480316
21
-2.423228346456693
0
LINE
8
BLACK
6
CONTINUOUS
10
3.3778740157480316
20
-2.423228346456693
11
3.3781796850393699
21
-2.4216915748031496
0
LINE
8
BLACK
6
CONTINUOUS
10
3.3781796850393699
20
-2.4216915748031496
11
3.3790501968503937
21
-2.4203887795275589
0
LINE
8
BLACK
6
CONTINUOUS
10
3.3790501968503937
20
-2.4203887795275589
11
3.3803529921259843
21
-2.4195182677165352
0
LINE
8
BLACK
6
CONTINUOUS
10
3.3803529921259843
20
-2.4195182677165352
11
3.3818897637795273
21
-2.4192125984251969
0
LINE
8
BLACK
6
CONTINUOUS
10
3.3818897637795273
20
-2.4192125984251969
11
3.4409448818897639
21
-2.4192125984251969
0
LINE
8
BLACK
6
CONTINUOUS
10
3.4409448818897639
20
-2.4192125984251969
11
3.4424816535433069
21
-2.4195182677165352
0
LINE
8
BLACK
6
CONTINUOUS
10
2.9004201181102363
20
-2.3796862204724407
11
2.9036132677165352
21
-2.3818198031496061
0
LINE
8
BLACK
6
CONTINUOUS
10
2.9036132677165352
20
-2.3818198031496061
11
2.9057468503937005
21
-2.3850129527559054
0
LINE
8
BLACK
6
CONTINUOUS
10
2.9057468503937005
20
-2.3850129527559054
11
2.9064960629921259
21
-2.3887795275590551
0
LINE
8
BLACK
6
CONTINUOUS
10
2.9064960629921259
20
-2.3887795275590551
11
2.9064960629921259
21
-2.4379921259842519
0
LINE
8
BLACK
6
CONTINUOUS
10
2.9064960629921259
20
-2.4379921259842519
11
2.9057468503937005
21
-2.4417587007874015
0
LINE
8
BLACK
6
CONTINUOUS
10
2.9057468503937005
20
-2.4417587007874015
11
2.9036132677165352
21
-2.4449518503937009
0
LINE
8
BLACK
6
CONTINUOUS
10
2.9036132677165352
20
-2.4449518503937009
11
2.9004201181102363
21
-2.4470854330708662
0
LINE
8
BLACK
6
CONTINUOUS
10
2.9004201181102363
20
-2.4470854330708662
11
2.8966535433070866
21
-2.4478346456692912
0
LINE
8
BLACK
6
CONTINUOUS
10
2.8966535433070866
20
-2.4478346456692912
11
2.8671259842519685
21
-2.4478346456692912
0
LINE
8
BLACK
6
CONTINUOUS
10
2.8671259842519685
20
-2.4478346456692912
11
2.8633594094488188
21
-2.4470854330708662
0
LINE
8
BLACK
6
CONTINUOUS
10
2.8633594094488188
20
-2.4470854330708662
11
2.8601662598425195
21
-2.4449518503937009
0
LINE
8
BLACK
6
CONTINUOUS
10
2.8601662598425195
20
-2.4449518503937009
11
2.8580326771653541
21
-2.4417587007874015
0
LINE
8
BLACK
6
CONTINUOUS
10
2.8580326771653541
20
-2.4417587007874015
11
2.8572834645669292
21
-2.4379921259842519
0
LINE
8
BLACK
6
CONTINUOUS
10
2.8572834645669292
20
-2.4379921259842519
11
2.8572834645669292
21
-2.3887795275590551
0
LINE
8
BLACK
6
CONTINUOUS
10
2.8572834645669292
20
-2.3887795275590551
11
2.8580326771653541
21
-2.3850129527559054
0
LINE
8
BLACK
6
CONTINUOUS
10
2.8580326771653541
20
-2.3850129527559054
11
2.8601662598425195
21
-2.3818198031496061
0
LINE
8
BLACK
6
CONTINUOUS
10
2.8601662598425195
20
-2.3818198031496061
11
2.8633594094488188
21
-2.3796862204724407
0
LINE
8
BLACK
6
CONTINUOUS
10
2.8633594094488188
20
-2.3796862204724407
11
2.8671259842519685
21
-2.3789370078740157
0
LINE
8
BLACK
6
CONTINUOUS
10
2.8671259842519685
20
-2.3789370078740157
11
2.8966535433070866
21
-2.3789370078740157
0
LINE
8
BLACK
6
CONTINUOUS
10
2.8966535433070866
20
-2.3789370078740157
11
2.9004201181102363
21
-2.3796862204724407
0
LINE
8
BLACK
6
CONTINUOUS
10
3.010656338582677
20
-2.3796862204724407
11
3.0138494881889764
21
-2.3818198031496061
0
LINE
8
BLACK
6
CONTINUOUS
10
3.0138494881889764
20
-2.3818198031496061
11
3.0159830708661417
21
-2.3850129527559054
0
LINE
8
BLACK
6
CONTINUOUS
10
3.0159830708661417
20
-2.3850129527559054
11
3.0167322834645667
21
-2.3887795275590551
0
LINE
8
BLACK
6
CONTINUOUS
10
3.0167322834645667
20
-2.3887795275590551
11
3.0167322834645667
21
-2.4379921259842519
0
LINE
8
BLACK
6
CONTINUOUS
10
3.0167322834645667
20
-2.4379921259842519
11
3.0159830708661417
21
-2.4417587007874015
0
LINE
8
BLACK
6
CONTINUOUS
10
3.0159830708661417
20
-2.4417587007874015
11
3.0138494881889764
21
-2.4449518503937009
0
LINE
8
BLACK
6
CONTINUOUS
10
3.0138494881889764
20
-2.4449518503937009
11
3.010656338582677
21
-2.4470854330708662
0
LINE
8
BLACK
6
CONTINUOUS
10
3.010656338582677
20
-2.4470854330708662
11
3.0068897637795273
21
-2.4478346456692912
0
LINE
8
BLACK
6
CONTINUOUS
10
3.0068897637795273
20
-2.4478346456692912
11
2.9773622047244093
21
-2.4478346456692912
0
LINE
8
BLACK
6
CONTINUOUS
10
2.9773622047244093
20
-2.4478346456692912
11
2.9735956299212596
21
-2.4470854330708662
0
LINE
8
BLACK
6
CONTINUOUS
10
2.9735956299212596
20
-2.4470854330708662
11
2.9704024803149607
21
-2.4449518503937009
0
LINE
8
BLACK
6
CONTINUOUS
10
2.9704024803149607
20
-2.4449518503937009
11
2.9682688976377953
21
-2.4417587007874015
0
LINE
8
BLACK
6
CONTINUOUS
10
2.9682688976377953
20
-2.4417587007874015
11
2.9675196850393699
21
-2.4379921259842519
0
LINE
8
BLACK
6
CONTINUOUS
10
2.9675196850393699
20
-2.4379921259842519
11
2.9675196850393699
21
-2.3887795275590551
0
LINE
8
BLACK
6
CONTINUOUS
10
2.9675196850393699
20
-2.3887795275590551
11
2.9682688976377953
21
-2.3850129527559054
0
LINE
8
BLACK
6
CONTINUOUS
10
2.9682688976377953
20
-2.3850129527559054
11
2.9704024803149607
21
-2.3818198031496061
0
LINE
8
BLACK
6
CONTINUOUS
10
2.9704024803149607
20
-2.3818198031496061
11
2.9735956299212596
21
-2.3796862204724407
0
LINE
8
BLACK
6
CONTINUOUS
10
2.9735956299212596
20
-2.3796862204724407
11
2.9773622047244093
21
-2.3789370078740157
0
LINE
8
BLACK
6
CONTINUOUS
10
2.9773622047244093
20
-2.3789370078740157
11
3.0068897637795273
21
-2.3789370078740157
0
LINE
8
BLACK
6
CONTINUOUS
10
3.0068897637795273
20
-2.3789370078740157
11
3.010656338582677
21
-2.3796862204724407
0
LINE
8
BLACK
6
CONTINUOUS
10
3.320434409448819
20
-2.3644001574803148
11
3.3217372047244096
21
-2.3652706692913386
0
LINE
8
BLACK
6
CONTINUOUS
10
3.3217372047244096
20
-2.3652706692913386
11
3.3226077165354329
21
-2.3665734645669292
0
LINE
8
BLACK
6
CONTINUOUS
10
3.3226077165354329
20
-2.3665734645669292
11
3.3229133858267716
21
-2.3681102362204722
0
LINE
8
BLACK
6
CONTINUOUS
10
3.3229133858267716
20
-2.3681102362204722
11
3.3229133858267716
21
-2.4035433070866139
0
LINE
8
BLACK
6
CONTINUOUS
10
3.3229133858267716
20
-2.4035433070866139
11
3.3226077165354329
21
-2.4050800787401574
0
LINE
8
BLACK
6
CONTINUOUS
10
3.3226077165354329
20
-2.4050800787401574
11
3.3217372047244096
21
-2.406382874015748
0
LINE
8
BLACK
6
CONTINUOUS
10
3.3217372047244096
20
-2.406382874015748
11
3.320434409448819
21
-2.4072533858267717
0
LINE
8
BLACK
6
CONTINUOUS
10
3.320434409448819
20
-2.4072533858267717
11
3.3188976377952755
21
-2.4075590551181101
0
LINE
8
BLACK
6
CONTINUOUS
10
3.3188976377952755
20
-2.4075590551181101
11
3.2598425196850394
21
-2.4075590551181101
0
LINE
8
BLACK
6
CONTINUOUS
10
3.2598425196850394
20
-2.4075590551181101
11
3.2583057480314959
21
-2.4072533858267717
0
LINE
8
BLACK
6
CONTINUOUS
10
3.2583057480314959
20
-2.4072533858267717
11
3.2570029527559052
21
-2.406382874015748
0
LINE
8
BLACK
6
CONTINUOUS
10
3.2570029527559052
20
-2.406382874015748
11
3.256132440944882
21
-2.4050800787401574
0
LINE
8
BLACK
6
CONTINUOUS
10
3.256132440944882
20
-2.4050800787401574
11
3.2558267716535432
21
-2.4035433070866139
0
LINE
8
BLACK
6
CONTINUOUS
10
3.2558267716535432
20
-2.4035433070866139
11
3.2558267716535432
21
-2.3681102362204722
0
LINE
8
BLACK
6
CONTINUOUS
10
3.2558267716535432
20
-2.3681102362204722
11
3.256132440944882
21
-2.3665734645669292
0
LINE
8
BLACK
6
CONTINUOUS
10
3.256132440944882
20
-2.3665734645669292
11
3.2570029527559052
21
-2.3652706692913386
0
LINE
8
BLACK
6
CONTINUOUS
10
3.2570029527559052
20
-2.3652706692913386
11
3.2583057480314959
21
-2.3644001574803148
0
LINE
8
BLACK
6
CONTINUOUS
10
3.2583057480314959
20
-2.3644001574803148
11
3.2598425196850394
21
-2.3640944881889765
0
LINE
8
BLACK
6
CONTINUOUS
10
3.2598425196850394
20
-2.3640944881889765
11
3.3188976377952755
21
-2.3640944881889765
0
LINE
8
BLACK
6
CONTINUOUS
10
3.3188976377952755
20
-2.3640944881889765
11
3.320434409448819
21
-2.3644001574803148
0
LINE
8
BLACK
6
CONTINUOUS
10
3.4424816535433069
20
-2.3644001574803148
11
3.4437844488188976
21
-2.3652706692913386
0
LINE
8
BLACK
6
CONTINUOUS
10
3.4437844488188976
20
-2.3652706692913386
11
3.4446549606299213
21
-2.3665734645669292
0
LINE
8
BLACK
6
CONTINUOUS
10
3.4446549606299213
20
-2.3665734645669292
11
3.4449606299212596
21
-2.3681102362204722
0
LINE
8
BLACK
6
CONTINUOUS
10
3.4449606299212596
20
-2.3681102362204722
11
3.4449606299212596
21
-2.4035433070866139
0
LINE
8
BLACK
6
CONTINUOUS
10
3.4449606299212596
20
-2.4035433070866139
11
3.4446549606299213
21
-2.4050800787401574
0
LINE
8
BLACK
6
CONTINUOUS
10
3.4446549606299213
20
-2.4050800787401574
11
3.4437844488188976
21
-2.406382874015748
0
LINE
8
BLACK
6
CONTINUOUS
10
3.4437844488188976
20
-2.406382874015748
11
3.4424816535433069
21
-2.4072533858267717
0
LINE
8
BLACK
6
CONTINUOUS
10
3.4424816535433069
20
-2.4072533858267717
11
3.4409448818897639
21
-2.4075590551181101
0
LINE
8
BLACK
6
CONTINUOUS
10
3.4409448818897639
20
-2.4075590551181101
11
3.3818897637795273
21
-2.4075590551181101
0
LINE
8
BLACK
6
CONTINUOUS
10
3.3818897637795273
20
-2.4075590551181101
11
3.3803529921259843
21
-2.4072533858267717
0
LINE
8
BLACK
6
CONTINUOUS
10
3.3803529921259843
20
-2.4072533858267717
11
3.3790501968503937
21
-2.406382874015748
0
LINE
8
BLACK
6
CONTINUOUS
10
3.3790501968503937
20
-2.406382874015748
11
3.3781796850393699
21
-2.4050800787401574
0
LINE
8
BLACK
6
CONTINUOUS
10
3.3781796850393699
20
-2.4050800787401574
11
3.3778740157480316
21
-2.4035433070866139
0
LINE
8
BLACK
6
CONTINUOUS
10
3.3778740157480316
20
-2.4035433070866139
11
3.3778740157480316
21
-2.3681102362204722
0
LINE
8
BLACK
6
CONTINUOUS
10
3.3778740157480316
20
-2.3681102362204722
11
3.3781796850393699
21
-2.3665734645669292
0
LINE
8
BLACK
6
CONTINUOUS
10
3.3781796850393699
20
-2.3665734645669292
11
3.3790501968503937
21
-2.3652706692913386
0
LINE
8
BLACK
6
CONTINUOUS
10
3.3790501968503937
20
-2.3652706692913386
11
3.3803529921259843
21
-2.3644001574803148
0
LINE
8
BLACK
6
CONTINUOUS
10
3.3803529921259843
20
-2.3644001574803148
11
3.3818897637795273
21
-2.3640944881889765
0
LINE
8
BLACK
6
CONTINUOUS
10
3.3818897637795273
20
-2.3640944881889765
11
3.4409448818897639
21
-2.3640944881889765
0
LINE
8
BLACK
6
CONTINUOUS
10
3.4409448818897639
20
-2.3640944881889765
11
3.4424816535433069
21
-2.3644001574803148
0
LINE
8
BLACK
6
CONTINUOUS
10
3.1203701968503936
20
-2.1608825984251969
11
3.1222860629921261
21
-2.1621627559055119
0
LINE
8
BLACK
6
CONTINUOUS
10
3.1222860629921261
20
-2.1621627559055119
11
3.123566220472441
21
-2.1640786220472439
0
LINE
8
BLACK
6
CONTINUOUS
10
3.123566220472441
20
-2.1640786220472439
11
3.1240157480314958
21
-2.1663385826771653
0
LINE
8
BLACK
6
CONTINUOUS
10
3.1240157480314958
20
-2.1663385826771653
11
3.1240157480314958
21
-2.2066929133858268
0
LINE
8
BLACK
6
CONTINUOUS
10
3.1240157480314958
20
-2.2066929133858268
11
3.123566220472441
21
-2.2089528740157478
0
LINE
8
BLACK
6
CONTINUOUS
10
3.123566220472441
20
-2.2089528740157478
11
3.1222860629921261
21
-2.2108687401574803
0
LINE
8
BLACK
6
CONTINUOUS
10
3.1222860629921261
20
-2.2108687401574803
11
3.1203701968503936
21
-2.2121488976377952
0
LINE
8
BLACK
6
CONTINUOUS
10
3.1203701968503936
20
-2.2121488976377952
11
3.1181102362204722
21
-2.2125984251968505
0
LINE
8
BLACK
6
CONTINUOUS
10
3.1181102362204722
20
-2.2125984251968505
11
3.106299212598425
21
-2.2125984251968505
0
LINE
8
BLACK
6
CONTINUOUS
10
3.106299212598425
20
-2.2125984251968505
11
3.1040392519685041
21
-2.2121488976377952
0
LINE
8
BLACK
6
CONTINUOUS
10
3.1040392519685041
20
-2.2121488976377952
11
3.1021233858267716
21
-2.2108687401574803
0
LINE
8
BLACK
6
CONTINUOUS
10
3.1021233858267716
20
-2.2108687401574803
11
3.1008432283464566
21
-2.2089528740157478
0
LINE
8
BLACK
6
CONTINUOUS
10
3.1008432283464566
20
-2.2089528740157478
11
3.1003937007874014
21
-2.2066929133858268
0
LINE
8
BLACK
6
CONTINUOUS
10
3.1003937007874014
20
-2.2066929133858268
11
3.1003937007874014
21
-2.1663385826771653
0
LINE
8
BLACK
6
CONTINUOUS
10
3.1003937007874014
20
-2.1663385826771653
11
3.1008432283464566
21
-2.1640786220472439
0
LINE
8
BLACK
6
CONTINUOUS
10
3.1008432283464566
20
-2.1640786220472439
11
3.1021233858267716
21
-2.1621627559055119
0
LINE
8
BLACK
6
CONTINUOUS
10
3.1021233858267716
20
-2.1621627559055119
11
3.1040392519685041
21
-2.1608825984251969
0
LINE
8
BLACK
6
CONTINUOUS
10
3.1040392519685041
20
-2.1608825984251969
11
3.106299212598425
21
-2.1604330708661417
0
LINE
8
BLACK
6
CONTINUOUS
10
3.106299212598425
20
-2.1604330708661417
11
3.1181102362204722
21
-2.1604330708661417
0
LINE
8
BLACK
6
CONTINUOUS
10
3.1181102362204722
20
-2.1604330708661417
11
3.1203701968503936
21
-2.1608825984251969
0
LINE
8
BLACK
6
CONTINUOUS
10
3.1951733464566927
20
-2.1608825984251969
11
3.1970892125984252
21
-2.1621627559055119
0
LINE
8
BLACK
6
CONTINUOUS
10
3.1970892125984252
20
-2.1621627559055119
11
3.1983693700787401
21
-2.1640786220472439
0
LINE
8
BLACK
6
CONTINUOUS
10
3.1983693700787401
20
-2.1640786220472439
11
3.1988188976377954
21
-2.1663385826771653
0
LINE
8
BLACK
6
CONTINUOUS
10
3.1988188976377954
20
-2.1663385826771653
11
3.1988188976377954
21
-2.2066929133858268
0
LINE
8
BLACK
6
CONTINUOUS
10
3.1988188976377954
20
-2.2066929133858268
11
3.1983693700787401
21
-2.2089528740157478
0
LINE
8
BLACK
6
CONTINUOUS
10
3.1983693700787401
20
-2.2089528740157478
11
3.1970892125984252
21
-2.2108687401574803
0
LINE
8
BLACK
6
CONTINUOUS
10
3.1970892125984252
20
-2.2108687401574803
11
3.1951733464566927
21
-2.2121488976377952
0
LINE
8
BLACK
6
CONTINUOUS
10
3.1951733464566927
20
-2.2121488976377952
11
3.1929133858267718
21
-2.2125984251968505
0
LINE
8
BLACK
6
CONTINUOUS
10
3.1929133858267718
20
-2.2125984251968505
11
3.1811023622047245
21
-2.2125984251968505
0
LINE
8
BLACK
6
CONTINUOUS
10
3.1811023622047245
20
-2.2125984251968505
11
3.1788424015748031
21
-2.2121488976377952
0
LINE
8
BLACK
6
CONTINUOUS
10
3.1788424015748031
20
-2.2121488976377952
11
3.1769265354330707
21
-2.2108687401574803
0
LINE
8
BLACK
6
CONTINUOUS
10
3.1769265354330707
20
-2.2108687401574803
11
3.1756463779527557
21
-2.2089528740157478
0
LINE
8
BLACK
6
CONTINUOUS
10
3.1756463779527557
20
-2.2089528740157478
11
3.1751968503937009
21
-2.2066929133858268
0
LINE
8
BLACK
6
CONTINUOUS
10
3.1751968503937009
20
-2.2066929133858268
11
3.1751968503937009
21
-2.1663385826771653
0
LINE
8
BLACK
6
CONTINUOUS
10
3.1751968503937009
20
-2.1663385826771653
11
3.1756463779527557
21
-2.1640786220472439
0
LINE
8
BLACK
6
CONTINUOUS
10
3.1756463779527557
20
-2.1640786220472439
11
3.1769265354330707
21
-2.1621627559055119
0
LINE
8
BLACK
6
CONTINUOUS
10
3.1769265354330707
20
-2.1621627559055119
11
3.1788424015748031
21
-2.1608825984251969
0
LINE
8
BLACK
6
CONTINUOUS
10
3.1788424015748031
20
-2.1608825984251969
11
3.1811023622047245
21
-2.1604330708661417
0
LINE
8
BLACK
6
CONTINUOUS
10
3.1811023622047245
20
-2.1604330708661417
11
3.1929133858267718
21
-2.1604330708661417
0
LINE
8
BLACK
6
CONTINUOUS
10
3.1929133858267718
20
-2.1604330708661417
11
3.1951733464566927
21
-2.1608825984251969
0
LINE
8
BLACK
6
CONTINUOUS
10
3.1577717716535432
20
-2.0713156692913386
11
3.1596876377952756
21
-2.0725958267716535
0
LINE
8
BLACK
6
CONTINUOUS
10
3.1596876377952756
20
-2.0725958267716535
11
3.1609677952755906
21
-2.074511692913386
0
LINE
8
BLACK
6
CONTINUOUS
10
3.1609677952755906
20
-2.074511692913386
11
3.1614173228346454
21
-2.076771653543307
0
LINE
8
BLACK
6
CONTINUOUS
10
3.1614173228346454
20
-2.076771653543307
11
3.1614173228346454
21
-2.1171259842519685
0
LINE
8
BLACK
6
CONTINUOUS
10
3.1614173228346454
20
-2.1171259842519685
11
3.1609677952755906
21
-2.1193859448818899
0
LINE
8
BLACK
6
CONTINUOUS
10
3.1609677952755906
20
-2.1193859448818899
11
3.1596876377952756
21
-2.1213018110236219
0
LINE
8
BLACK
6
CONTINUOUS
10
3.1596876377952756
20
-2.1213018110236219
11
3.1577717716535432
21
-2.1225819685039369
0
LINE
8
BLACK
6
CONTINUOUS
10
3.1577717716535432
20
-2.1225819685039369
11
3.1555118110236218
21
-2.1230314960629921
0
LINE
8
BLACK
6
CONTINUOUS
10
3.1555118110236218
20
-2.1230314960629921
11
3.1437007874015745
21
-2.1230314960629921
0
LINE
8
BLACK
6
CONTINUOUS
10
3.1437007874015745
20
-2.1230314960629921
11
3.1414408267716536
21
-2.1225819685039369
0
LINE
8
BLACK
6
CONTINUOUS
10
3.1414408267716536
20
-2.1225819685039369
11
3.1395249606299211
21
-2.1213018110236219
0
LINE
8
BLACK
6
CONTINUOUS
10
3.1395249606299211
20
-2.1213018110236219
11
3.1382448031496062
21
-2.1193859448818899
0
LINE
8
BLACK
6
CONTINUOUS
10
3.1382448031496062
20
-2.1193859448818899
11
3.1377952755905509
21
-2.1171259842519685
0
LINE
8
BLACK
6
CONTINUOUS
10
3.1377952755905509
20
-2.1171259842519685
11
3.1377952755905509
21
-2.076771653543307
0
LINE
8
BLACK
6
CONTINUOUS
10
3.1377952755905509
20
-2.076771653543307
11
3.1382448031496062
21
-2.074511692913386
0
LINE
8
BLACK
6
CONTINUOUS
10
3.1382448031496062
20
-2.074511692913386
11
3.1395249606299211
21
-2.0725958267716535
0
LINE
8
BLACK
6
CONTINUOUS
10
3.1395249606299211
20
-2.0725958267716535
11
3.1414408267716536
21
-2.0713156692913386
0
LINE
8
BLACK
6
CONTINUOUS
10
3.1414408267716536
20
-2.0713156692913386
11
3.1437007874015745
21
-2.0708661417322833
0
LINE
8
BLACK
6
CONTINUOUS
10
3.1437007874015745
20
-2.0708661417322833
11
3.1555118110236218
21
-2.0708661417322833
0
LINE
8
BLACK
6
CONTINUOUS
10
3.1555118110236218
20
-2.0708661417322833
11
3.1577717716535432
21
-2.0713156692913386
0
LINE
8
BLACK
6
CONTINUOUS
10
2.8605035433070864
20
-2.0208816141732284
11
2.8669666141732284
21
-2.0229816141732284
0
LINE
8
BLACK
6
CONTINUOUS
10
2.8669666141732284
20
-2.0229816141732284
11
2.8730215748031496
21
-2.0260667716535434
0
LINE
8
BLACK
6
CONTINUOUS
10
2.8730215748031496
20
-2.0260667716535434
11
2.8785194094488187
21
-2.0300611417322836
0
LINE
8
BLACK
6
CONTINUOUS
10
2.8785194094488187
20
-2.0300611417322836
11
2.8833246850393701
21
-2.0348664173228346
0
LINE
8
BLACK
6
CONTINUOUS
10
2.8833246850393701
20
-2.0348664173228346
11
2.8873190551181103
21
-2.0403642519685037
0
LINE
8
BLACK
6
CONTINUOUS
10
2.8873190551181103
20
-2.0403642519685037
11
2.8904042125984253
21
-2.0464192125984253
0
LINE
8
BLACK
6
CONTINUOUS
10
2.8904042125984253
20
-2.0464192125984253
11
2.8925042125984253
21
-2.0528822834645668
0
LINE
8
BLACK
6
CONTINUOUS
10
2.8925042125984253
20
-2.0528822834645668
11
2.8935672834645669
21
-2.0595942913385827
0
LINE
8
BLACK
6
CONTINUOUS
10
2.8935672834645669
20
-2.0595942913385827
11
2.8935672834645669
21
-2.0663899606299214
0
LINE
8
BLACK
6
CONTINUOUS
10
2.8935672834645669
20
-2.0663899606299214
11
2.8925042125984253
21
-2.0731019685039369
0
LINE
8
BLACK
6
CONTINUOUS
10
2.8925042125984253
20
-2.0731019685039369
11
2.8904042125984253
21
-2.0795650393700789
0
LINE
8
BLACK
6
CONTINUOUS
10
2.8904042125984253
20
-2.0795650393700789
11
2.8873190551181103
21
-2.08562
0
LINE
8
BLACK
6
CONTINUOUS
10
2.8873190551181103
20
-2.08562
11
2.8833246850393701
21
-2.0911178346456691
0
LINE
8
BLACK
6
CONTINUOUS
10
2.8833246850393701
20
-2.0911178346456691
11
2.8785194094488187
21
-2.0959231102362206
0
LINE
8
BLACK
6
CONTINUOUS
10
2.8785194094488187
20
-2.0959231102362206
11
2.8730215748031496
21
-2.0999174803149607
0
LINE
8
BLACK
6
CONTINUOUS
10
2.8730215748031496
20
-2.0999174803149607
11
2.8669666141732284
21
-2.1030026377952757
0
LINE
8
BLACK
6
CONTINUOUS
10
2.8669666141732284
20
-2.1030026377952757
11
2.8605035433070864
21
-2.1051026377952757
0
LINE
8
BLACK
6
CONTINUOUS
10
2.8605035433070864
20
-2.1051026377952757
11
2.853791535433071
21
-2.1061657086614174
0
LINE
8
BLACK
6
CONTINUOUS
10
2.853791535433071
20
-2.1061657086614174
11
2.8469958661417323
21
-2.1061657086614174
0
LINE
8
BLACK
6
CONTINUOUS
10
2.8469958661417323
20
-2.1061657086614174
11
2.8402838582677163
21
-2.1051026377952757
0
LINE
8
BLACK
6
CONTINUOUS
10
2.8402838582677163
20
-2.1051026377952757
11
2.8338207874015748
21
-2.1030026377952757
0
LINE
8
BLACK
6
CONTINUOUS
10
2.8338207874015748
20
-2.1030026377952757
11
2.8277658267716537
21
-2.0999174803149607
0
LINE
8
BLACK
6
CONTINUOUS
10
2.8277658267716537
20
-2.0999174803149607
11
2.8222679921259841
21
-2.0959231102362206
0
LINE
8
BLACK
6
CONTINUOUS
10
2.8222679921259841
20
-2.0959231102362206
11
2.8174627165354331
21
-2.0911178346456691
0
LINE
8
BLACK
6
CONTINUOUS
10
2.8174627165354331
20
-2.0911178346456691
11
2.813468346456693
21
-2.08562
0
LINE
8
BLACK
6
CONTINUOUS
10
2.813468346456693
20
-2.08562
11
2.810383188976378
21
-2.0795650393700789
0
LINE
8
BLACK
6
CONTINUOUS
10
2.810383188976378
20
-2.0795650393700789
11
2.808283188976378
21
-2.0731019685039369
0
LINE
8
BLACK
6
CONTINUOUS
10
2.808283188976378
20
-2.0731019685039369
11
2.8072201181102363
21
-2.0663899606299214
0
LINE
8
BLACK
6
CONTINUOUS
10
2.8072201181102363
20
-2.0663899606299214
11
2.8072201181102363
21
-2.0595942913385827
0
LINE
8
BLACK
6
CONTINUOUS
10
2.8072201181102363
20
-2.0595942913385827
11
2.808283188976378
21
-2.0528822834645668
0
LINE
8
BLACK
6
CONTINUOUS
10
2.808283188976378
20
-2.0528822834645668
11
2.810383188976378
21
-2.0464192125984253
0
LINE
8
BLACK
6
CONTINUOUS
10
2.810383188976378
20
-2.0464192125984253
11
2.813468346456693
21
-2.0403642519685037
0
LINE
8
BLACK
6
CONTINUOUS
10
2.813468346456693
20
-2.0403642519685037
11
2.8174627165354331
21
-2.0348664173228346
0
LINE
8
BLACK
6
CONTINUOUS
10
2.8174627165354331
20
-2.0348664173228346
11
2.8222679921259841
21
-2.0300611417322836
0
LINE
8
BLACK
6
CONTINUOUS
10
2.8222679921259841
20
-2.0300611417322836
11
2.8277658267716537
21
-2.0260667716535434
0
LINE
8
BLACK
6
CONTINUOUS
10
2.8277658267716537
20
-2.0260667716535434
11
2.8338207874015748
21
-2.0229816141732284
0
LINE
8
BLACK
6
CONTINUOUS
10
2.8338207874015748
20
-2.0229816141732284
11
2.8402838582677163
21
-2.0208816141732284
0
LINE
8
BLACK
6
CONTINUOUS
10
2.8402838582677163
20
-2.0208816141732284
11
2.8469958661417323
21
-2.0198185433070868
0
LINE
8
BLACK
6
CONTINUOUS
10
2.8469958661417323
20
-2.0198185433070868
11
2.853791535433071
21
-2.0198185433070868
0
LINE
8
BLACK
6
CONTINUOUS
10
2.853791535433071
20
-2.0198185433070868
11
2.8605035433070864
21
-2.0208816141732284
0
LINE
8
BLACK
6
CONTINUOUS
10
3.4668027559055119
20
-2.0130075984251969
11
3.4732658267716534
21
-2.0151075984251969
0
LINE
8
BLACK
6
CONTINUOUS
10
3.4732658267716534
20
-2.0151075984251969
11
3.4793207874015746
21
-2.0181927559055119
0
LINE
8
BLACK
6
CONTINUOUS
10
3.4793207874015746
20
-2.0181927559055119
11
3.4848186220472441
21
-2.0221871259842521
0
LINE
8
BLACK
6
CONTINUOUS
10
3.4848186220472441
20
-2.0221871259842521
11
3.4896238976377951
21
-2.0269924015748031
0
LINE
8
BLACK
6
CONTINUOUS
10
3.4896238976377951
20
-2.0269924015748031
11
3.4936182677165353
21
-2.0324902362204722
0
LINE
8
BLACK
6
CONTINUOUS
10
3.4936182677165353
20
-2.0324902362204722
11
3.4967034251968503
21
-2.0385451968503938
0
LINE
8
BLACK
6
CONTINUOUS
10
3.4967034251968503
20
-2.0385451968503938
11
3.4988034251968503
21
-2.0450082677165353
0
LINE
8
BLACK
6
CONTINUOUS
10
3.4988034251968503
20
-2.0450082677165353
11
3.4998664960629919
21
-2.0517202755905513
0
LINE
8
BLACK
6
CONTINUOUS
10
3.4998664960629919
20
-2.0517202755905513
11
3.4998664960629919
21
-2.0585159448818899
0
LINE
8
BLACK
6
CONTINUOUS
10
3.4998664960629919
20
-2.0585159448818899
11
3.4988034251968503
21
-2.0652279527559054
0
LINE
8
BLACK
6
CONTINUOUS
10
3.4988034251968503
20
-2.0652279527559054
11
3.4967034251968503
21
-2.0716910236220474
0
LINE
8
BLACK
6
CONTINUOUS
10
3.4967034251968503
20
-2.0716910236220474
11
3.4936182677165353
21
-2.0777459842519685
0
LINE
8
BLACK
6
CONTINUOUS
10
3.4936182677165353
20
-2.0777459842519685
11
3.4896238976377951
21
-2.0832438188976377
0
LINE
8
BLACK
6
CONTINUOUS
10
3.4896238976377951
20
-2.0832438188976377
11
3.4848186220472441
21
-2.0880490944881891
0
LINE
8
BLACK
6
CONTINUOUS
10
3.4848186220472441
20
-2.0880490944881891
11
3.4793207874015746
21
-2.0920434645669292
0
LINE
8
BLACK
6
CONTINUOUS
10
3.4793207874015746
20
-2.0920434645669292
11
3.4732658267716534
21
-2.0951286220472443
0
LINE
8
BLACK
6
CONTINUOUS
10
3.4732658267716534
20
-2.0951286220472443
11
3.4668027559055119
21
-2.0972286220472443
0
LINE
8
BLACK
6
CONTINUOUS
10
3.4668027559055119
20
-2.0972286220472443
11
3.460090748031496
21
-2.0982916929133859
0
LINE
8
BLACK
6
CONTINUOUS
10
3.460090748031496
20
-2.0982916929133859
11
3.4532950787401573
21
-2.0982916929133859
0
LINE
8
BLACK
6
CONTINUOUS
10
3.4532950787401573
20
-2.0982916929133859
11
3.4465830708661418
21
-2.0972286220472443
0
LINE
8
BLACK
6
CONTINUOUS
10
3.4465830708661418
20
-2.0972286220472443
11
3.4401199999999998
21
-2.0951286220472443
0
LINE
8
BLACK
6
CONTINUOUS
10
3.4401199999999998
20
-2.0951286220472443
11
3.4340650393700787
21
-2.0920434645669292
0
LINE
8
BLACK
6
CONTINUOUS
10
3.4340650393700787
20
-2.0920434645669292
11
3.4285672047244096
21
-2.0880490944881891
0
LINE
8
BLACK
6
CONTINUOUS
10
3.4285672047244096
20
-2.0880490944881891
11
3.4237619291338581
21
-2.0832438188976377
0
LINE
8
BLACK
6
CONTINUOUS
10
3.4237619291338581
20
-2.0832438188976377
11
3.419767559055118
21
-2.0777459842519685
0
LINE
8
BLACK
6
CONTINUOUS
10
3.419767559055118
20
-2.0777459842519685
11
3.416682401574803
21
-2.0716910236220474
0
LINE
8
BLACK
6
CONTINUOUS
10
3.416682401574803
20
-2.0716910236220474
11
3.414582401574803
21
-2.0652279527559054
0
LINE
8
BLACK
6
CONTINUOUS
10
3.414582401574803
20
-2.0652279527559054
11
3.4135193307086613
21
-2.0585159448818899
0
LINE
8
BLACK
6
CONTINUOUS
10
3.4135193307086613
20
-2.0585159448818899
11
3.4135193307086613
21
-2.0517202755905513
0
LINE
8
BLACK
6
CONTINUOUS
10
3.4135193307086613
20
-2.0517202755905513
11
3.414582401574803
21
-2.0450082677165353
0
LINE
8
BLACK
6
CONTINUOUS
10
3.414582401574803
20
-2.0450082677165353
11
3.416682401574803
21
-2.0385451968503938
0
LINE
8
BLACK
6
CONTINUOUS
10
3.416682401574803
20
-2.0385451968503938
11
3.419767559055118
21
-2.0324902362204722
0
LINE
8
BLACK
6
CONTINUOUS
10
3.419767559055118
20
-2.0324902362204722
11
3.4237619291338581
21
-2.0269924015748031
0
LINE
8
BLACK
6
CONTINUOUS
10
3.4237619291338581
20
-2.0269924015748031
11
3.4285672047244096
21
-2.0221871259842521
0
LINE
8
BLACK
6
CONTINUOUS
10
3.4285672047244096
20
-2.0221871259842521
11
3.4340650393700787
21
-2.0181927559055119
0
LINE
8
BLACK
6
CONTINUOUS
10
3.4340650393700787
20
-2.0181927559055119
11
3.4401199999999998
21
-2.0151075984251969
0
LINE
8
BLACK
6
CONTINUOUS
10
3.4401199999999998
20
-2.0151075984251969
11
3.4465830708661418
21
-2.0130075984251969
0
LINE
8
BLACK
6
CONTINUOUS
10
3.4465830708661418
20
-2.0130075984251969
11
3.4532950787401573
21
-2.0119445275590553
0
LINE
8
BLACK
6
CONTINUOUS
10
3.4532950787401573
20
-2.0119445275590553
11
3.460090748031496
21
-2.0119445275590553
0
LINE
8
BLACK
6
CONTINUOUS
10
3.460090748031496
20
-2.0119445275590553
11
3.4668027559055119
21
-2.0130075984251969
  0
ENDSEC
  0
EOF
